<?xml version="1.0" encoding="UTF-8"?>
<svg width="200px" height="200px" viewBox="0 0 200 200" version="1.1" xmlns="http://www.w3.org/2000/svg" xmlns:xlink="http://www.w3.org/1999/xlink">
    <!-- Generator: Sketch 59.1 (86144) - https://sketch.com -->
    <title>Assets/Illustrations/Addresses</title>
    <desc>Created with Sketch.</desc>
    <g id="Assets/Illustrations/Addresses" stroke="none" stroke-width="1" fill="none" fill-rule="evenodd">
        <g id="undraw_destinations_fpv7" transform="translate(0.000000, 38.000000)" fill-rule="nonzero">
            <path d="M197.053109,50.4803063 C189.724442,21.6623222 164.40159,0.859765845 134.678039,0.0253943662 C118.96409,-0.415713028 102.428629,4.79590317 90.3895933,23.0332588 C68.8685194,55.6344912 91.7121144,78.1629437 107.638065,88.8680158 C115.33223,94.0502906 122.265102,100.281531 128.235873,107.381252 C138.993333,120.146708 159.688236,136.009581 184.33493,111.154898 C202.198886,93.1401919 201.934725,69.6759313 197.053109,50.4803063 Z" id="Path" fill="#F2F2F2"></path>
            <path d="M27.6830528,72.3285229 C27.4855915,72.0360687 27.2914824,71.7358803 27.1060563,71.436206 L27.4055581,71.2508644 C27.5884912,71.546757 27.7800211,71.842993 27.9748187,72.1314982 L27.6830528,72.3285229 Z" id="Path" fill="#3F3D56"></path>
            <path d="M26.0443891,69.5491039 C25.7178046,68.9081479 25.4142641,68.2460458 25.1422764,67.5811074 L25.4680845,67.4476884 C25.7365528,68.1036884 26.0359683,68.7569366 26.3581655,69.3892095 L26.0443891,69.5491039 Z M24.4064173,65.5451092 C24.1903961,64.859625 24.0004912,64.1564313 23.8418856,63.4552148 L24.1854014,63.3775018 C24.3417729,64.0693486 24.5290898,64.763 24.7421972,65.4392007 L24.4064173,65.5451092 Z M23.452544,61.3257746 C23.3527377,60.6151884 23.2812148,59.8905898 23.2397799,59.1719225 L23.5913768,59.1516338 C23.632125,59.8607588 23.702787,60.5757306 23.8012165,61.2767746 L23.452544,61.3257746 Z M23.5551004,57.0158327 L23.2031637,57.007581 C23.2200986,56.287882 23.2668644,55.5613046 23.3420827,54.8481391 L23.6923046,54.8851109 C23.6180264,55.5888134 23.5718627,56.3056761 23.5551004,57.0158327 L23.5551004,57.0158327 Z M24.0035792,52.7728592 L23.6576549,52.7071813 C23.7917606,52.0010651 23.9570722,51.2919384 24.1490282,50.5994912 L24.4884173,50.693537 C24.2989542,51.3767007 24.1358785,52.0762835 24.0035792,52.7728592 L24.0035792,52.7728592 Z M25.1439912,48.6614965 L24.8137095,48.5395968 C25.0626637,47.8651162 25.343169,47.1925264 25.6473979,46.5405669 L25.9665,46.6894577 C25.6663134,47.3326496 25.3895933,47.9961268 25.1439912,48.6614965 L25.1439912,48.6614965 Z M73.3665775,47.5730933 C73.0913187,46.9203609 72.7850246,46.2705511 72.4561232,45.6416303 L72.7681761,45.4784701 C73.1015475,46.1159859 73.4120546,46.7746496 73.6910106,47.4362359 L73.3665775,47.5730933 Z M26.9491708,44.792382 L26.6434789,44.6177025 C27.0000616,43.9939349 27.3873345,43.3769683 27.7945493,42.7838099 L28.0847623,42.9830827 C27.6830528,43.5683275 27.3009384,44.1770458 26.9491708,44.792382 Z M71.3892975,43.79175 C71.0101056,43.1928327 70.601169,42.602081 70.173838,42.036 L70.4549437,41.8238398 C70.8880423,42.3976549 71.3024789,42.9964014 71.6867359,43.6034014 L71.3892975,43.79175 Z M29.3652201,41.2733187 L29.0921954,41.0508415 C29.5464349,40.4935299 30.029213,39.9483398 30.5273803,39.4302289 L30.7811496,39.6741989 C30.2896919,40.1854313 29.8132658,40.7233996 29.3652201,41.2733187 Z M68.8185176,40.3856426 C68.3462254,39.8562694 67.8462535,39.3401356 67.3324401,38.8515106 L67.5751197,38.5963662 C68.0958099,39.0916127 68.6025722,39.6147077 69.0812254,40.1511303 L68.8185176,40.3856426 Z M32.3231004,38.196463 L32.0901356,37.9325546 C32.6288785,37.4569965 33.1940986,36.9978574 33.7700651,36.5679419 L33.9806796,36.8500792 C33.4123627,37.2743134 32.8547077,37.7272623 32.3231004,38.196463 Z M65.7258363,37.4441743 C65.1735106,36.9990475 64.5959067,36.5713715 64.0092007,36.1731813 L64.206912,35.8817606 C64.801618,36.2854577 65.3869542,36.7188011 65.946757,37.1699454 L65.7258363,37.4441743 Z M35.7426162,35.6444173 L35.5559014,35.3459454 C36.1655651,34.9646074 36.7980951,34.6043257 37.4360423,34.2750792 L37.5974859,34.587993 C36.9681338,34.9127676 36.3441144,35.2682342 35.7426162,35.6444173 Z M62.1939648,35.0474754 C61.5753592,34.6983715 60.9354366,34.3712746 60.2919877,34.0752923 L60.4391602,33.7553292 C61.0913768,34.0554331 61.7399824,34.3870018 62.3670123,34.7407465 L62.1939648,35.0474754 Z M39.5328996,33.6883644 L39.3977623,33.3632447 C40.0613187,33.0876408 40.7443187,32.836537 41.4278275,32.6169824 L41.5354542,32.9522465 C40.8612306,33.1687958 40.1874366,33.4164613 39.5328996,33.6883644 Z M58.3160827,33.2636127 C57.6496813,33.0217113 56.9645405,32.8047306 56.279743,32.6187887 L56.3720704,32.2790546 C57.0661514,32.4674894 57.760662,32.6873891 58.4362623,32.9326461 L58.3160827,33.2636127 Z M43.5936285,32.3842799 L43.5141972,32.0412746 C44.2134366,31.8791461 44.9290088,31.7442676 45.6408856,31.6402482 L45.6917764,31.9886637 C44.9894437,32.0913099 44.2835845,32.2243838 43.5936285,32.3842799 L43.5936285,32.3842799 Z M54.1969824,32.1451215 C53.5010106,32.0168609 52.7896496,31.9159384 52.0826743,31.8452746 L52.1177482,31.494882 C52.8342658,31.5665775 53.5553398,31.6687887 54.2607694,31.7988539 L54.1969824,32.1451215 Z M47.8153715,31.7673081 L47.7931884,31.4158803 C48.5093627,31.370662 49.2395493,31.3545863 49.9570968,31.3675669 L49.9507359,31.7196796 C49.242132,31.7067025 48.5221743,31.7227782 47.8153715,31.7673081 L47.8153715,31.7673081 Z" id="Shape" fill="#3F3D56"></path>
            <path d="M74.4270423,50.6028433 C74.3327394,50.2677518 74.2302694,49.9299947 74.122382,49.5989437 L74.4571303,49.4897694 C74.5664771,49.8253768 74.6704102,50.1677746 74.7659173,50.5074225 L74.4270423,50.6028433 Z" id="Path" fill="#3F3D56"></path>
            <path d="M72.2799806,30.8843627 L71.927868,30.8843627 C71.927868,30.5319912 71.9340581,30.174463 71.9463539,29.8218345 L72.2982905,29.8340423 C72.2861708,30.1827148 72.2799806,30.5360317 72.2799806,30.8843627 Z" id="Path" fill="#3F3D56"></path>
            <path d="M72.4475264,27.7167236 L72.0973046,27.6794137 C72.1727817,26.9702887 72.2748222,26.2554049 72.4006761,25.554618 L72.747287,25.6168556 C72.6228944,26.3093908 72.5220581,27.0159366 72.4475264,27.7167236 Z M73.1971408,23.5439824 L72.8560317,23.4569859 C73.0322641,22.765912 73.2359982,22.0730352 73.4613979,21.3975211 L73.7954577,21.5089313 C73.5726356,22.176537 73.3713926,22.861162 73.1971408,23.5439824 L73.1971408,23.5439824 Z M129.352579,19.8290898 C129.089356,19.175669 128.798965,18.5237113 128.489491,17.8915246 L128.805842,17.736787 C129.118926,18.3765387 129.412755,19.0362342 129.679246,19.6975634 L129.352579,19.8290898 Z M74.5396567,19.5204754 L74.214537,19.3851673 C74.4883363,18.7271901 74.7898151,18.070331 75.1108081,17.4328151 L75.4252676,17.591162 C75.1081426,18.2212007 74.8101884,18.8702306 74.5396567,19.5204754 L74.5396567,19.5204754 Z M127.489202,16.0207588 C127.135199,15.4122993 126.754546,14.8085669 126.357558,14.226412 L126.648465,14.0279965 C127.050264,14.6171144 127.435387,15.2279806 127.793518,15.8436655 L127.489202,16.0207588 Z M76.4473011,15.730794 L76.1449736,15.5502676 C76.5098961,14.9388838 76.9023257,14.3321426 77.3111708,13.7469789 L77.5998415,13.9486532 C77.1957183,14.5269401 76.8079296,15.1265458 76.4473063,15.730794 L76.4473011,15.730794 Z M125.100401,12.5174225 C124.662495,11.9647535 124.19966,11.421368 123.724618,10.9023116 L123.984232,10.6645317 C124.464947,11.1897782 124.933458,11.7395317 125.376521,12.2987271 L125.100401,12.5174225 Z M78.8766778,12.2536813 L78.6031373,12.0318908 C79.0523046,11.4779331 79.5269173,10.9334313 80.0139085,10.4135141 L80.2709507,10.6542165 C79.789625,11.168118 79.3205141,11.706257 78.8766778,12.2536813 Z M122.237255,9.38924472 C121.725421,8.90457394 121.19003,8.43245423 120.645706,7.9858662 L120.868871,7.7137007 C121.419736,8.16544718 121.961488,8.6432412 122.47934,9.13358451 L122.237255,9.38924472 Z M81.7754173,9.15834331 L81.5360915,8.89993134 C82.0589296,8.41586268 82.6059261,7.94434507 83.1620335,7.4986162 L83.3822799,7.77336092 C82.8327007,8.21392782 82.2920669,8.67985739 81.7754173,9.15834331 L81.7754173,9.15834331 Z M118.958206,6.69948592 C118.38293,6.29252817 117.785815,5.90138732 117.183206,5.53689437 L117.365452,5.2356743 C117.975116,5.60446303 118.579451,6.00024648 119.161433,6.41201937 L118.958206,6.69948592 Z M85.0834366,6.50658099 L84.8833099,6.21687852 C85.4695053,5.81215493 86.0778803,5.42350704 86.6916708,5.06159683 L86.8704771,5.36488028 C86.2639085,5.7225757 85.662669,6.1066743 85.0834366,6.50658099 L85.0834366,6.50658099 Z M115.329452,4.50454049 C114.701736,4.18389085 114.054762,3.8823257 113.406243,3.60801232 L113.543442,3.28375176 C114.199699,3.56124648 114.854408,3.8665088 115.48969,4.19094014 L115.329452,4.50454049 Z M88.7344577,4.35436444 L88.5778292,4.03904754 C89.2156813,3.72235211 89.8731496,3.42482746 90.5320704,3.15481162 L90.6656602,3.48061972 C90.0144754,3.74744366 89.3647518,4.04144366 88.7344577,4.35436444 L88.7344577,4.35436444 Z M111.423366,2.85246831 C110.75731,2.62569366 110.073542,2.42023768 109.391148,2.24185915 L109.480208,1.90126585 C110.17085,2.08170599 110.86287,2.28965669 111.536835,2.51909683 L111.423366,2.85246831 Z M92.6541109,2.74827993 L92.5444278,2.41370423 C93.2211444,2.19191373 93.9150546,1.99187324 94.6069859,1.81916197 L94.6922641,2.16078697 C94.0084965,2.33142782 93.3227535,2.52906162 92.654118,2.74827993 L92.6541109,2.74827993 Z M107.3206,1.77979401 C106.628238,1.65127289 105.922294,1.54631338 105.222361,1.4677412 L105.261562,1.11786444 C105.969914,1.19738204 106.684282,1.30354754 107.384898,1.43353345 L107.3206,1.77979401 Z M96.7674507,1.72185387 L96.7071021,1.37489965 C97.4085775,1.25274296 98.1238926,1.15447711 98.8334472,1.08270423 L98.8688644,1.43309683 C98.1677412,1.50392958 97.4606796,1.60106866 96.7674577,1.72185387 L96.7674507,1.72185387 Z M103.107111,1.3062993 C102.402026,1.27767254 101.68525,1.27389085 100.985495,1.29477993 L100.974836,0.94284331 C101.683016,0.921697183 102.408044,0.925392606 103.121555,0.954535211 L103.107111,1.3062993 Z" id="Shape" fill="#3F3D56"></path>
            <path d="M130.382613,22.8505018 C130.288394,22.5154102 130.186613,22.1771373 130.080359,21.8448838 L130.415623,21.7375986 C130.523252,22.0737218 130.626238,22.4160352 130.721658,22.755081 L130.382613,22.8505018 Z" id="Path" fill="#3F3D56"></path>
            <ellipse id="Oval" fill="#166DFF" cx="27.4771426" cy="76.2588697" rx="5.86486444" ry="1"></ellipse>
            <ellipse id="Oval" fill="#166DFF" cx="74.2494437" cy="54.9987324" rx="5.86486444" ry="1"></ellipse>
            <ellipse id="Oval" fill="#166DFF" cx="132.018366" cy="32.8588662" rx="5.86486444" ry="1"></ellipse>
            <polygon id="Rectangle" fill="#3F3D56" transform="translate(121.001252, 40.357061) rotate(-45.000000) translate(-121.001252, -40.357061) " points="108.531004 40.1810231 133.471499 40.1810231 133.471499 40.5330988 108.531004 40.5330988"></polygon>
            <rect id="Rectangle" fill="#3F3D56" x="77.3285335" y="51.3037165" width="29.6176109" height="1"></rect>
            <polygon id="Rectangle" fill="#3F3D56" transform="translate(63.764589, 62.111323) rotate(-45.000000) translate(-63.764589, -62.111323) " points="52.0511327 61.9352849 75.4780447 61.9352849 75.4780447 62.2873606 52.0511327 62.2873606"></polygon>
            <rect id="Rectangle" fill="#3F3D56" x="30.5561761" y="72.5638944" width="19.7939595" height="1"></rect>
            <polygon id="Rectangle" fill="#3F3D56" transform="translate(15.465235, 84.751843) rotate(-45.000000) translate(-15.465235, -84.751843) " points="1.55684184 84.5758052 29.3736288 84.5758052 29.3736288 84.9278809 1.55684184 84.9278809"></polygon>
            <path d="M27.4771673,75.9951021 C26.1605737,75.9951021 24.973601,75.2020671 24.4697382,73.9857034 C23.9658753,72.7693397 24.2443506,71.369227 25.1753102,70.4382422 C26.1062699,69.5072574 27.506375,69.2287442 28.7227524,69.7325742 C29.9391297,70.2364042 30.7322324,71.4233554 30.7322324,72.7399489 C30.7302086,74.5368471 29.2740653,75.9930297 27.4771673,75.9951021 Z M27.4771673,69.836912 C26.3029897,69.836912 25.2444098,70.5441578 24.7950475,71.6289465 C24.3456852,72.7137352 24.5940359,73.9623982 25.4242927,74.7926792 C26.2545496,75.6229602 27.5032053,75.8713473 28.5880071,75.4220165 C29.6728089,74.9726858 30.3801197,73.9141265 30.3801197,72.7399489 C30.3782861,71.137439 29.0796771,69.8387922 27.4771673,69.836912 L27.4771673,69.836912 Z" id="Shape" fill="#3F3D56"></path>
            <path d="M53.4291444,75.9951021 C51.6313739,75.9951021 50.1739912,74.5377229 50.1739912,72.7399525 C50.1739912,70.942182 51.6313704,69.4847993 53.4291408,69.4847993 C55.2269113,69.4847993 56.684294,70.9421785 56.684294,72.7399489 C56.6823108,74.5368969 55.2260923,75.9931169 53.4291444,75.9951021 L53.4291444,75.9951021 Z M53.4291444,69.836912 C52.2549745,69.836912 51.1964206,70.5442137 50.7470849,71.6290051 C50.2977492,72.7137965 50.5461207,73.9624456 51.3763842,74.7927091 C52.2066477,75.6229726 53.4552969,75.8713441 54.5400882,75.4220084 C55.6248796,74.9726727 56.3321813,73.9141188 56.3321813,72.7399489 C56.3303622,71.1374 55.0316933,69.8387311 53.4291444,69.836912 L53.4291444,69.836912 Z" id="Shape" fill="#3F3D56"></path>
            <path d="M74.2494384,54.7349243 C72.4517051,54.7349243 70.9943785,53.2775367 70.9943785,51.4798034 C70.9943785,49.6820701 72.4517356,48.224713 74.2494689,48.224713 C76.0472022,48.224713 77.5045898,49.6820396 77.5045898,51.4797729 C77.5025775,53.2767092 76.0463747,54.732912 74.2494384,54.7349243 Z M74.2494384,48.5768204 C72.6461603,48.5768204 71.3464912,49.8765846 71.3464912,51.4798627 C71.3464912,53.0831407 72.6462484,54.3828116 74.2495264,54.3828116 C75.8528045,54.3828116 77.1524771,53.0830562 77.1524771,51.4797782 C77.1506501,49.8772446 75.851972,48.5786027 74.2494384,48.5768204 L74.2494384,48.5768204 Z" id="Shape" fill="#3F3D56"></path>
            <path d="M110.025067,54.7349243 C108.227334,54.7349243 106.770007,53.2775367 106.770007,51.4798034 C106.770007,49.6820701 108.227364,48.224713 110.025097,48.224713 C111.822831,48.224713 113.280218,49.6820396 113.280218,51.4797729 C113.278214,53.2767124 111.822006,54.7329197 110.025067,54.7349243 L110.025067,54.7349243 Z M110.025067,48.5768204 C108.421789,48.5768204 107.12212,49.8765846 107.12212,51.4798627 C107.12212,53.0831407 108.421877,54.3828116 110.025155,54.3828116 C111.628433,54.3828116 112.928106,53.0830562 112.928106,51.4797782 C112.92632,49.8772274 111.627618,48.5785611 110.025067,48.5768204 L110.025067,48.5768204 Z" id="Shape" fill="#3F3D56"></path>
            <path d="M132.018354,32.5950651 C130.220621,32.5950651 128.763294,31.1376775 128.763294,29.3399442 C128.763294,27.542211 130.220651,26.0848539 132.018384,26.0848539 C133.816118,26.0848539 135.273505,27.5421804 135.273505,29.3399137 C135.271481,31.1368452 133.815285,32.5930412 132.018354,32.5950651 Z M132.018354,26.436956 C130.415076,26.436956 129.115407,27.7367258 129.115407,29.3400041 C129.115407,30.9432824 130.415165,32.2429525 132.018443,32.2429525 C133.621721,32.2429525 134.921393,30.9431955 134.921393,29.3399173 C134.919532,27.7373972 133.620874,26.4387741 132.018354,26.436956 L132.018354,26.436956 Z" id="Shape" fill="#3F3D56"></path>
            <path d="M3.43120599,100.041062 C2.11461213,100.041062 0.927639218,99.2480263 0.423776549,98.0316621 C-0.0800861197,96.8152979 0.198389846,95.415185 1.12935021,94.4842005 C2.06031056,93.5532159 3.46041628,93.2747036 4.67679353,93.7785347 C5.89317078,94.2823658 6.68627113,95.4693181 6.68627113,96.785912 C6.68424633,98.5828091 5.22810309,100.03899 3.43120599,100.041062 Z M3.43120599,93.8828732 C2.25702857,93.8828732 1.19844883,94.5901189 0.749086412,95.6749074 C0.299723992,96.7596958 0.54807437,98.0083587 1.37833084,98.8386398 C2.20858732,99.668921 3.4572428,99.9173085 4.54204462,99.4679783 C5.62684644,99.0186481 6.33415845,97.9600894 6.33415845,96.785912 C6.33232679,95.1834009 5.03371697,93.8847525 3.43120599,93.8828732 Z" id="Shape" fill="#3F3D56"></path>
            <path d="M27.4771426,53.5325158 C25.9216834,53.5325158 24.4299316,54.1504191 23.3300561,55.250295 C22.2301805,56.3501709 21.6122782,57.8419228 21.6122782,59.397382 C21.6122782,62.6364542 27.4771426,73.3264313 27.4771426,73.3264313 C27.4771426,73.3264313 33.3420088,62.6364489 33.3420088,59.397382 C33.3420088,57.8419227 32.7241056,56.3501707 31.6242298,55.2502949 C30.5243539,54.150419 29.032602,53.5325158 27.4771426,53.5325158 L27.4771426,53.5325158 Z M27.4771426,62.4764349 C25.7766306,62.4764349 24.3980933,61.0978975 24.3980933,59.3973856 C24.3980933,57.6968736 25.7766306,56.3183363 27.4771426,56.3183363 C29.1776546,56.3183363 30.5561919,57.6968736 30.5561919,59.3973856 C30.5561919,61.0978975 29.1776546,62.4764349 27.4771426,62.4764349 Z" id="Shape" fill="#166DFF"></path>
            <path d="M74.2494437,31.5392711 C71.0103705,31.5392711 68.3845863,34.1650642 68.3845863,37.4041373 C68.3845863,40.6432095 74.2494525,51.3331866 74.2494525,51.3331866 C74.2494525,51.3331866 80.1143169,40.6432042 80.1143169,37.4041373 C80.1143169,35.8486766 79.4964134,34.3569233 78.3965359,33.2570471 C77.2966584,32.157171 75.8049044,31.5392711 74.2494437,31.5392711 L74.2494437,31.5392711 Z M74.2494437,40.4831901 C72.5489317,40.4831901 71.1703944,39.1046528 71.1703944,37.4041408 C71.1703944,35.7036289 72.5489317,34.3250915 74.2494437,34.3250915 C75.9499556,34.3250915 77.328493,35.7036289 77.328493,37.4041408 C77.328493,39.1046528 75.9499556,40.4831901 74.2494437,40.4831901 Z" id="Shape" fill="#166DFF"></path>
            <rect id="Rectangle" fill="#2F2E41" x="109.538162" y="124.531801" width="79.8477359" height="1"></rect>
            <path d="M175.428329,12.752081 C174.186989,16.4273785 172.283556,19.7761268 168.404282,19.7761268 C164.525007,19.7761268 161.598812,16.6251901 161.380236,12.752081 C161.10094,7.80301585 164.435518,5.70753873 168.404282,5.72803345 C173.092731,5.75225 176.901504,8.39039437 175.428329,12.752081 Z" id="Path" fill="#2F2E41"></path>
            <rect id="Rectangle" fill="#2F2E41" x="161.380236" y="12.1975511" width="13.8632518" height="17.560118"></rect>
            <path d="M175.650558,25.2799137 L176.829715,25.2799137 C176.829715,25.2799137 179.712097,28.9483996 178.401923,33.9270599 C177.091748,38.9057201 178.139889,39.8228345 178.139889,39.8228345 C178.139889,39.8228345 179.845544,45.2143028 178.011301,53.3373803 C176.177058,61.4604577 179.712097,63.667993 179.712097,63.667993 L176.436664,57.117125 L174.602421,39.8228345 L175.650558,25.2799137 Z" id="Path" fill="#575A89"></path>
            <path d="M175.650558,25.7108996 L176.829715,25.7108996 C176.829715,25.7108996 179.712097,29.3793856 178.401923,34.3580458 C177.091748,39.336706 178.139889,40.2538204 178.139889,40.2538204 C178.139889,40.2538204 179.845544,45.6452887 178.011301,53.7683662 C176.177058,61.8914437 179.712097,64.0989789 179.712097,64.0989789 L176.436664,57.5481109 L174.602421,40.2538204 L175.650558,25.7108996 Z" id="Path" fill="#000000" opacity="0.1"></path>
            <path d="M171.523512,18.9255739 C171.523512,18.9255739 170.475373,23.1181285 170.999442,23.1181285 C171.523511,23.1181285 173.357755,25.3454173 173.357755,25.3454173 L174.536912,29.6689894 L173.61979,32.8134067 L170.475373,32.1583204 L166.544852,27.8347465 L165.365695,26.6555915 L164.317556,22.856088 C164.317556,22.856088 165.627731,21.2838785 164.710609,19.973706 C163.793488,18.6635335 171.523512,18.9255739 171.523512,18.9255739 Z" id="Path" fill="#FBBEBE"></path>
            <path d="M171.523512,18.9255739 C171.523512,18.9255739 170.475373,23.1181285 170.999442,23.1181285 C171.523511,23.1181285 173.357755,25.3454173 173.357755,25.3454173 L174.536912,29.6689894 L173.61979,32.8134067 L170.475373,32.1583204 L166.544852,27.8347465 L165.365695,26.6555915 L164.317556,22.856088 C164.317556,22.856088 165.627731,21.2838785 164.710609,19.973706 C163.793488,18.6635335 171.523512,18.9255739 171.523512,18.9255739 Z" id="Path" fill="#000000" opacity="0.1"></path>
            <path d="M139.817312,30.586118 L136.934938,25.869493 C136.934938,25.869493 133.823556,18.9852641 131.596261,21.4745986 C129.368965,23.9639331 134.969676,29.0139155 134.969676,29.0139155 L137.852058,32.813419 L139.817312,30.586118 Z" id="Path" fill="#FBBEBE"></path>
            <path d="M178.074375,71.5945528 L175.978102,86.9235757 C175.978102,86.9235757 176.240137,88.1027324 173.61979,92.4263063 C170.999444,96.7498803 163.924505,106.183129 163.924505,106.183129 L161.828227,102.252607 C161.828227,102.252607 164.317556,89.8059525 168.64113,87.1856109 L168.11706,68.3191109 L178.074375,71.5945528 Z" id="Path" fill="#FBBEBE"></path>
            <path d="M178.074375,71.5945528 L175.978102,86.9235757 C175.978102,86.9235757 176.240137,88.1027324 173.61979,92.4263063 C170.999444,96.7498803 163.924505,106.183129 163.924505,106.183129 L161.828227,102.252607 C161.828227,102.252607 164.317556,89.8059525 168.64113,87.1856109 L168.11706,68.3191109 L178.074375,71.5945528 Z" id="Path" fill="#000000" opacity="0.1"></path>
            <path d="M161.828227,100.680407 L164.710609,106.183136 C164.710609,106.183136 162.352298,112.865021 163.269412,113.520107 C164.186526,114.175194 165.365688,120.070975 162.876359,119.415882 C160.38703,118.760789 158.421769,116.140447 158.421769,115.747396 C158.421769,115.354345 159.862967,109.851621 159.076856,108.54144 C158.290745,107.231259 157.766681,106.838215 157.766681,106.838215 L155.801423,110.11365 L155.146335,109.720597 L158.421769,104.217868 C158.421769,104.217868 158.81482,103.169729 160.38703,102.514643 L161.828227,100.680407 Z" id="Path" fill="#2F2E41"></path>
            <path d="M161.828227,100.680407 L164.710609,106.183136 C164.710609,106.183136 162.352298,112.865021 163.269412,113.520107 C164.186526,114.175194 165.365688,120.070975 162.876359,119.415882 C160.38703,118.760789 158.421769,116.140447 158.421769,115.747396 C158.421769,115.354345 159.862967,109.851621 159.076856,108.54144 C158.290745,107.231259 157.766681,106.838215 157.766681,106.838215 L155.801423,110.11365 L155.146335,109.720597 L158.421769,104.217868 C158.421769,104.217868 158.81482,103.169729 160.38703,102.514643 L161.828227,100.680407 Z" id="Path" fill="#000000" opacity="0.1"></path>
            <path d="M168.147632,69.4196796 C168.147632,69.4196796 169.165199,83.9101849 166.937905,87.7096884 L166.937905,106.576188 L163.924505,106.969239 C163.924505,106.969239 157.839035,96.9808592 160.066329,87.1545634 C162.293623,77.3282676 157.766681,68.319118 157.766681,68.319118 L168.147632,69.4196796 Z" id="Path" fill="#FBBEBE"></path>
            <circle id="Oval" fill="#FBBEBE" cx="167.396467" cy="16.6327694" r="5.50272887"></circle>
            <path d="M172.964702,31.1101954 L167.461974,24.1662746 L164.317556,22.0699965 L163.007384,23.7732236 L159.338898,24.8213627 C159.338898,24.8213627 156.980585,25.3454313 154.491255,28.2278134 C152.001926,31.1101954 147.547335,32.8134208 147.547335,32.8134208 L143.878849,32.1583345 C143.878849,32.1583345 139.555276,30.1930739 139.555276,29.6690035 C139.555276,29.1449331 135.755773,33.2064736 136.672894,34.7786866 C137.590016,36.3508996 139.555276,38.3161549 140.603415,39.364294 C141.651555,40.4124331 142.044613,43.4258327 148.464456,42.5087113 C154.884299,41.5915898 157.242625,38.4471725 157.242625,38.4471725 C157.242625,38.4471725 158.421782,44.4739718 161.828232,45.6531268 C165.234683,46.8322817 176.37116,47.6183873 176.37116,47.6183873 L178.729472,39.7573468 C178.729472,39.7573468 181.349819,36.3508944 177.81235,31.3722359 C177.81235,31.3722359 177.744438,28.5878151 177.364139,26.7349718 C177.216218,26.0142958 177.021039,25.4345563 176.764211,25.214419 C175.84709,24.4283151 170.999447,23.1181408 170.999447,23.1181408 C170.999447,23.1181408 171.785553,25.7384894 172.178604,25.8695053 C172.571655,26.0005211 173.488773,30.4551021 172.964702,31.1101954 Z" id="Path" fill="#575A89"></path>
            <path d="M155.342861,70.2188697 C161.940877,69.7603099 165.782315,70.8412025 167.49603,71.6652993 C167.814624,71.8094812 168.114644,71.9916038 168.389576,72.207713 C168.515349,72.3138363 168.575611,72.3963785 168.575611,72.4461655 C168.575611,72.8392165 177.615808,73.6253222 180.891243,72.8392165 C184.166678,72.0531109 178.663954,55.1518732 177.222757,53.7106831 C175.78156,52.269493 176.558496,46.9947324 176.558496,46.9947324 C176.558496,46.9947324 173.685296,46.3737113 172.89919,46.6357535 C172.113085,46.8977958 168.051549,46.2427025 166.610357,45.4565986 C165.169165,44.6704947 163.334924,45.1945634 162.155768,44.9325282 C161.629076,44.8159208 161.363106,45.0124472 161.230768,45.2666215 C161.024794,45.6478965 160.713784,45.9620946 160.33463,46.1719472 C157.553134,47.7742958 155.320593,58.8531232 153.63963,64.9781849 C151.8054,71.6600616 155.342861,70.2188697 155.342861,70.2188697 Z" id="Path" fill="#2F2E41"></path>
            <path d="M167.461974,105.397032 L167.986044,108.279414 C167.986044,108.279414 170.737403,112.209935 169.951312,115.485371 C169.951312,115.485371 170.6064,119.808944 172.964711,120.9881 C175.323023,122.167257 173.357764,124.918621 171.130468,124.787604 C168.903173,124.656586 166.806896,124.918621 166.544861,124.263535 C166.282826,123.608449 164.710618,117.188597 164.710618,117.188597 L164.280479,124.701123 L162.970306,124.832141 L163.400444,116.140458 C163.400444,116.140458 162.352306,114.175197 163.793496,110.899764 L163.429764,105.872035 C163.429764,105.872035 167.068917,106.707202 167.461974,105.397032 Z" id="Path" fill="#2F2E41"></path>
            <path d="M167.49604,71.6653011 C167.814635,71.809483 168.114654,71.9916056 168.389586,72.2077148 C168.458998,70.9695986 168.859919,63.4819542 168.379095,63.6024947 L167.49604,71.6653011 Z" id="Path" fill="#000000" opacity="0.1"></path>
            <path d="M165.118472,9.05521303 C165.118472,9.05521303 165.05753,8.71597183 162.674139,9.60974296 C160.290748,10.5035141 158.862069,17.0991602 160.053764,20.9721673 C160.534012,22.5329754 160.143338,23.6583222 159.505701,24.4457025 C157.112903,27.4004349 158.054849,31.8383609 161.540141,33.357787 C161.638518,33.4006743 161.738906,33.4430698 161.841305,33.4849736 L163.330917,34.3787465 C163.330917,34.3787465 161.431974,31.8801338 162.382276,28.6839489 C163.207546,25.9606765 163.309461,23.0694406 162.677989,20.2948187 C162.568965,19.8267588 162.44512,19.3442799 162.304442,18.8519049 C161.112755,14.6809701 161.692345,15.1626602 165.863283,10.9917183 C165.863283,10.9917183 168.246674,12.7792623 170.332143,13.6730352 C172.417611,14.5668081 174.205155,15.4605792 172.715535,18.4398187 C171.225915,21.4190581 167.650827,24.100382 170.034218,27.9733856 C172.417609,31.8463891 172.715535,30.3567782 172.417611,31.8463979 L172.417611,31.8463979 L172.119687,33.3360106 L173.907231,31.5484665 L172.715535,33.9318592 C172.715535,33.9318592 176.588546,33.9318592 177.780243,30.952618 L178.37609,31.5484665 C178.37609,31.5484665 180.759482,27.3775317 176.290623,23.5045194 C176.290623,23.5045194 174.801011,22.6107465 176.88647,19.631507 C178.97193,16.6522676 177.370273,10.2469014 174.688958,9.05520599 C172.007643,7.86351056 165.118472,9.05521303 165.118472,9.05521303 Z" id="Path" fill="#2F2E41"></path>
            <circle id="Oval" fill="#2F2E41" cx="168.404283" cy="4.43413028" r="2.77264965"></circle>
            <path d="M165.077102,2.95538204 C165.077209,1.53151883 166.155767,0.339173723 167.572488,0.196734155 C167.481273,0.187674296 167.388829,0.182732394 167.295222,0.182732394 C165.763929,0.182732394 164.522571,1.42409032 164.522571,2.95538292 C164.522571,4.48667553 165.763929,5.72803345 167.295222,5.72803345 C167.388829,5.72803345 167.481273,5.72309155 167.572488,5.71403169 C166.155768,5.57158814 165.077213,4.37924436 165.077102,2.95538204 L165.077102,2.95538204 Z" id="Path" fill="#2F2E41"></path>
            <path d="M132.018366,10.425757 C130.462907,10.425757 128.971155,11.04366 127.87128,12.1435354 C126.771404,13.2434109 126.1535,14.7351624 126.1535,16.2906215 C126.1535,19.5296937 132.018366,30.2196708 132.018366,30.2196708 C132.018366,30.2196708 137.883231,19.5296884 137.883231,16.2906215 C137.883231,14.7351626 137.265328,13.2434111 136.165452,12.1435355 C135.065577,11.04366 133.573825,10.425757 132.018366,10.425757 L132.018366,10.425757 Z M132.018366,19.3696761 C130.317854,19.3696761 128.939317,17.9911387 128.939317,16.2906268 C128.939317,14.5901148 130.317854,13.2115775 132.018366,13.2115775 C133.718878,13.2115775 135.097415,14.5901148 135.097415,16.2906268 C135.097415,17.9911387 133.718878,19.3696761 132.018366,19.3696761 Z" id="Shape" fill="#166DFF"></path>
            <circle id="Oval" fill="#F1F1F1" cx="84.7394771" cy="116.377331" r="3.17346655"></circle>
            <circle id="Oval" fill="#F1F1F1" cx="104.4836" cy="102.953884" r="3.17346655"></circle>
            <circle id="Oval" fill="#F1F1F1" cx="80.0667183" cy="90.4549648" r="3.17346655"></circle>
        </g>
    </g>
</svg>