<svg width="263" height="203" xmlns="http://www.w3.org/2000/svg" xmlns:xlink="http://www.w3.org/1999/xlink"><defs><path d="M197.632577 81.777743c3.758356-3.717623 9.835702-3.70156 13.574132.035876 3.738431 3.737436 3.722279 9.780956-.036076 13.498578l-54.500732 53.910058c-3.700563 3.660458-9.664278 3.709325-13.424996.110006l-27.302468-26.130723c-3.81945-3.655529-3.935747-9.697963-.259757-13.496154 3.675991-3.798191 9.752245-3.91384 13.571695-.258311l20.535851 19.654511 47.842351-47.32384z" id="b"/><filter x="-23.8%" y="-32.9%" width="147.5%" height="165.8%" filterUnits="objectBoundingBox" id="a"><feMorphology radius="3" operator="dilate" in="SourceAlpha" result="shadowSpreadOuter1"/><feOffset in="shadowSpreadOuter1" result="shadowOffsetOuter1"/><feGaussianBlur stdDeviation="7" in="shadowOffsetOuter1" result="shadowBlurOuter1"/><feComposite in="shadowBlurOuter1" in2="SourceAlpha" operator="out" result="shadowBlurOuter1"/><feColorMatrix values="0 0 0 0 0.478431373 0 0 0 0 0.890196078 0 0 0 0 0.788235294 0 0 0 0.4 0" in="shadowBlurOuter1"/></filter><filter x="-11.8%" y="-25.2%" width="123.7%" height="149.5%" filterUnits="objectBoundingBox" id="c"><feOffset in="SourceAlpha" result="shadowOffsetOuter1"/><feGaussianBlur stdDeviation="7" in="shadowOffsetOuter1" result="shadowBlurOuter1"/><feColorMatrix values="0 0 0 0 0.733333333 0 0 0 0 0.858823529 0 0 0 0 0.82745098 0 0 0 0.5 0" in="shadowBlurOuter1" result="shadowMatrixOuter1"/><feMerge><feMergeNode in="shadowMatrixOuter1"/><feMergeNode in="SourceGraphic"/></feMerge></filter><circle id="e" cx="20" cy="20" r="20"/><filter x="-90%" y="-90%" width="280%" height="280%" filterUnits="objectBoundingBox" id="d"><feOffset in="SourceAlpha" result="shadowOffsetOuter1"/><feGaussianBlur stdDeviation="12" in="shadowOffsetOuter1" result="shadowBlurOuter1"/><feColorMatrix values="0 0 0 0 0 0 0 0 0 0 0 0 0 0 0 0 0 0 0.15 0" in="shadowBlurOuter1"/></filter></defs><g fill="none" fill-rule="evenodd"><g fill-rule="nonzero"><path d="M85.417467 160.932711c-4.573673 2.640612-10.423655 1.070701-13.066299-3.506493-2.642644-4.577194-1.077236-10.428382 3.496437-13.068993l124.373523-71.807087c4.573674-2.640611 10.423655-1.070701 13.0663 3.506493 2.642643 4.577194 1.077235 10.428382-3.496438 13.068993L85.417467 160.932711z" fill-opacity=".3" fill="#D3F6ED"/><path d="M198.142704 117.834965c-4.573674 2.640611-10.423655 1.0707-13.066299-3.506493-2.642644-4.577194-1.077236-10.428382 3.496437-13.068993l7.947233-4.588337c4.573673-2.640612 10.423655-1.070701 13.066299 3.506493 2.642644 4.577194 1.077236 10.428381-3.496437 13.068993l-7.947233 4.588337zM69.309122 148.78224c-4.573673 2.64061-10.423655 1.0707-13.066299-3.506494-2.642644-4.577194-1.077236-10.428382 3.496437-13.068993l138.347559-79.875c4.573673-2.640611 10.423654-1.070701 13.066298 3.506493 2.642645 4.577194 1.077236 10.428382-3.496437 13.068993l-138.347558 79.875zM108.509074 169.584965c-4.573673 2.640611-10.423654 1.070701-13.066298-3.506493-2.642645-4.577194-1.077236-10.428382 3.496437-13.068993l64.302386-37.125c4.573674-2.640612 10.423655-1.070701 13.066299 3.506493 2.642644 4.577194 1.077236 10.428381-3.496437 13.068993l-64.302387 37.125z" fill-opacity=".3" fill="#D3F6ED"/><path d="M76.301996 122.644253c-4.573673 2.640611-10.423654 1.070701-13.066298-3.506493-2.642645-4.577194-1.077236-10.428382 3.496437-13.068993L168.21011 47.48043c4.573674-2.640612 10.423655-1.070701 13.066299 3.506493 2.642644 4.577194 1.077236 10.428382-3.496437 13.068993L76.301996 122.644253z" fill-opacity=".3" fill="#D3F6ED"/><path d="M66.732135 106.068767c-4.573673 2.640611-10.423655 1.0707-13.066299-3.506493-2.642644-4.577194-1.077236-10.428382 3.496437-13.068993L158.64025 30.904944c4.573673-2.640612 10.423654-1.070701 13.066298 3.506493 2.642645 4.577194 1.077237 10.428381-3.496437 13.068993L66.732135 106.068767z" fill-opacity=".3" fill="#D3F6ED"/><path d="M17.358142 156.675503c-4.573673 2.640611-10.423654 1.070701-13.066298-3.506493-2.642645-4.577194-1.077236-10.428382 3.496437-13.068993L109.266257 81.51168c4.573674-2.640612 10.423655-1.070701 13.066299 3.506493 2.642644 4.577194 1.077236 10.428382-3.496437 13.068993L17.358142 156.675503zM155.7057 76.800503c-4.573673 2.640612-10.423654 1.070701-13.066298-3.506493-2.642644-4.577194-1.077236-10.428382 3.496437-13.068993L247.613815 1.63668c4.573674-2.640612 10.423655-1.070701 13.0663 3.506493 2.642643 4.577194 1.077235 10.428382-3.496438 13.068993L155.7057 76.800503zM155.93451 120.103229c-4.573673 2.640611-10.423654 1.0707-13.066299-3.506493-2.642644-4.577195-1.077236-10.428382 3.496437-13.068994l101.477977-58.588337c4.573673-2.640611 10.423654-1.0707 13.066299 3.506494 2.642644 4.577194 1.077236 10.428381-3.496438 13.068993L155.93451 120.103229zM15.151255 201.384479c-4.573673 2.640611-10.423654 1.0707-13.066299-3.506493-2.642644-4.577194-1.077236-10.428382 3.496438-13.068993l101.477976-58.588338c4.573673-2.640611 10.423655-1.0707 13.066299 3.506494 2.642644 4.577194 1.077236 10.428381-3.496437 13.068993L15.151255 201.384479z" fill="#FFF"/></g><g fill-rule="nonzero" transform="translate(-32 -20)"><use fill="#000" filter="url(#a)" xlink:href="#b"/><path stroke="#DDFFF7" stroke-width="3" d="M149.772984 127.008782l46.804728-46.297462c4.344994-4.297904 11.367525-4.279344 15.689516.041498 4.326616 4.325464 4.307914 11.3233-.04173 15.625803l-54.500731 53.910057c-4.278186 4.23182-11.16938 4.288287-15.517014.127242l-27.302468-26.130723c-4.420247-4.230543-4.554908-11.227116-.300462-15.622992 4.249901-4.39118 11.271176-4.524816 15.686703-.298791l19.481458 18.645368z" fill="#4ED9B7" fill-rule="evenodd"/></g><g filter="url(#c)" transform="translate(18 46)"><path d="M45.883981 72.395821c.915008 1.429304 1.664981 2.217803 2.249918 2.365497.584938.147694 1.612635-.127398 3.083093-.825277-1.306899.785618-2.047657 1.486366-2.222273 2.102246-.174616.615879.05453 1.557516.687437 2.824911-.714918-1.206043-1.389662-1.889178-2.024233-2.049405-.634571-.160226-1.617436.123321-2.948596.850641 1.285566-.855943 2.01332-1.58361 2.183262-2.183003.169941-.599392-.166261-1.627928-1.008608-3.08561z" stroke="#88C8FF" stroke-width=".863718" fill="#88C8FF" fill-rule="nonzero" stroke-linecap="round" stroke-linejoin="round"/><path d="M182.126889 98.784616c.29678 1.324846.64483 2.122808 1.044146 2.393886.399318.271078 1.247164.34547 2.543538.223178-1.197425.233003-1.946028.55711-2.245812.972322-.299783.415212-.385168 1.18579-.256157 2.311733-.20745-1.102262-.527775-1.800431-.960976-2.094512-.4332-.294079-1.249657-.349849-2.449368-.16731 1.20063-.291707 1.946823-.639609 2.23858-1.043706.291759-.404096.320442-1.269293.086049-2.595591z" stroke="#7AE3C9" stroke-width=".647789" fill="#7AE3C9" fill-rule="nonzero" stroke-linecap="round" stroke-linejoin="round"/><path d="M105.22738 26.25c.116653 2.542976.499521 4.129746 1.148607 4.76031.649085.630562 2.190423 1.04398 4.624013 1.240252-2.286926.040374-3.774759.395104-4.463502 1.064193-.688742.669088-1.097301 2.06417-1.225677 4.185245-.024173-2.102885-.38834-3.496361-1.092502-4.18043-.704162-.684068-2.193602-1.052878-4.468319-1.106432 2.311956-.147728 3.803087-.54718 4.473392-1.198357.670305-.651177 1.004967-2.239437 1.003988-4.764781z" stroke="#FCE3B5" stroke-width="1.295577" fill="#FCE3B5" fill-rule="nonzero" stroke-linecap="round" stroke-linejoin="round"/><circle stroke="#F3A9B3" stroke-width="1.5" cx="83.625" cy="100.125" r="1.875"/><circle stroke="#FCE3B5" stroke-width="1.5" cx="157.125" cy="77.625" r="1.875"/><circle stroke="#88C8FF" stroke-width="1.5" cx="146.25" cy="2.25" r="2.25"/><circle stroke="#F3A9B3" stroke-width="1.5" cx="106.5" cy="2.25" r="1"/><path stroke="#A7ECDB" stroke-width="1.5" d="M66.492641 19.81066l3.18198 3.181981-3.18198 3.18198-3.18198-3.18198z"/><path stroke="#88C8FF" stroke-width=".75" d="M130.838221 106.463221l1.948558 1.125-1.125 1.948558-1.948558-1.125z"/><path stroke="#FCE3B5" stroke-width=".75" d="M225.62132 19.28033l1.59099 1.59099-1.59099 1.59099-1.59099-1.59099z"/><path stroke="#F3A9B3" stroke-width=".75" d="M31.250187 42.480642l2.114309.769545-.769545 2.114309-2.114309-.769545z"/><path stroke="#88C8FF" stroke-width="3" d="M25.299038 14.049038l.866025.5-.5.866025-.866025-.5z"/><path stroke="#F3A9B3" stroke-width="3" d="M218.799038 64.299038l.866025-.5.5.866025-.866025.5z"/><path stroke="#FCE3B5" stroke-width="1.125" d="M1.996555 85.482258L5.1258 86.746555 3.861503 89.8758.732258 88.611503z"/><path stroke="#88C8FF" stroke-width="1.875" d="M178.84385 45.495868l2.377228 5.097982-5.097982 2.377228-2.377228-5.097982z"/></g><g transform="translate(134 91)"><use fill="#000" filter="url(#d)" xlink:href="#e"/><use fill="#FFF" xlink:href="#e"/></g><path d="M161.7 102.6h-2.1v-2.275c0-.28875-.23625-.525-.525-.525h-.35c-.28875 0-.525.23625-.525.525v2.275h-8.4v-2.275c0-.28875-.23625-.525-.525-.525h-.35c-.28875 0-.525.23625-.525.525v2.275h-2.1c-1.159375 0-2.1.940625-2.1 2.1v15.4c0 1.159375.940625 2.1 2.1 2.1h15.4c1.159375 0 2.1-.940625 2.1-2.1v-15.4c0-1.159375-.940625-2.1-2.1-2.1zm-15.4 1.4h15.4c.385 0 .7.315.7.7v2.1h-16.8v-2.1c0-.385.315-.7.7-.7zm15.4 16.8h-15.4c-.385 0-.7-.315-.7-.7v-11.9h16.8v11.9c0 .385-.315.7-.7.7zm-11.025-7h-1.75c-.28875 0-.525-.23625-.525-.525v-1.75c0-.28875.23625-.525.525-.525h1.75c.28875 0 .525.23625.525.525v1.75c0 .28875-.23625.525-.525.525zm4.2 0h-1.75c-.28875 0-.525-.23625-.525-.525v-1.75c0-.28875.23625-.525.525-.525h1.75c.28875 0 .525.23625.525.525v1.75c0 .28875-.23625.525-.525.525zm4.2 0h-1.75c-.28875 0-.525-.23625-.525-.525v-1.75c0-.28875.23625-.525.525-.525h1.75c.28875 0 .525.23625.525.525v1.75c0 .28875-.23625.525-.525.525zm-4.2 4.2h-1.75c-.28875 0-.525-.23625-.525-.525v-1.75c0-.28875.23625-.525.525-.525h1.75c.28875 0 .525.23625.525.525v1.75c0 .28875-.23625.525-.525.525zm-4.2 0h-1.75c-.28875 0-.525-.23625-.525-.525v-1.75c0-.28875.23625-.525.525-.525h1.75c.28875 0 .525.23625.525.525v1.75c0 .28875-.23625.525-.525.525zm8.4 0h-1.75c-.28875 0-.525-.23625-.525-.525v-1.75c0-.28875.23625-.525.525-.525h1.75c.28875 0 .525.23625.525.525v1.75c0 .28875-.23625.525-.525.525z" fill-opacity=".6" fill="#000" fill-rule="nonzero"/></g></svg>