<svg width="436" height="325" viewBox="0 0 436 325" xmlns="http://www.w3.org/2000/svg" xmlns:xlink="http://www.w3.org/1999/xlink">
  <defs>
    <path d="M264.067 108.66c4.993-4.97 13.065-4.949 18.031.048 4.966 4.996 4.945 13.075-.048 18.045l-72.395 72.067c-4.916 4.894-12.838 4.959-17.834.147l-36.267-34.932c-5.073-4.886-5.228-12.964-.345-18.041 4.883-5.078 12.955-5.232 18.028-.346l27.279 26.275 63.551-63.263z" id="b"/>
    <filter x="-23.1%" y="-31.8%" width="146.2%" height="163.5%" filterUnits="objectBoundingBox" id="a">
      <feMorphology radius="4" operator="dilate" in="SourceAlpha" result="shadowSpreadOuter1"/>
      <feOffset in="shadowSpreadOuter1" result="shadowOffsetOuter1"/>
      <feGaussianBlur stdDeviation="9" in="shadowOffsetOuter1" result="shadowBlurOuter1"/>
      <feComposite in="shadowBlurOuter1" in2="SourceAlpha" operator="out" result="shadowBlurOuter1"/>
      <feColorMatrix values="0 0 0 0 0.478431373 0 0 0 0 0.890196078 0 0 0 0 0.788235294 0 0 0 0.4 0" in="shadowBlurOuter1"/>
    </filter>
    <filter x="-11.5%" y="-24.5%" width="123%" height="148.3%" filterUnits="objectBoundingBox" id="c">
      <feOffset in="SourceAlpha" result="shadowOffsetOuter1"/>
      <feGaussianBlur stdDeviation="9" in="shadowOffsetOuter1" result="shadowBlurOuter1"/>
      <feColorMatrix values="0 0 0 0 0.733333333 0 0 0 0 0.858823529 0 0 0 0 0.82745098 0 0 0 0.5 0" in="shadowBlurOuter1" result="shadowMatrixOuter1"/>
      <feMerge>
        <feMergeNode in="shadowMatrixOuter1"/>
        <feMergeNode in="SourceGraphic"/>
      </feMerge>
    </filter>
    <circle id="e" cx="247" cy="177" r="26"/>
    <filter x="-69.2%" y="-69.2%" width="238.5%" height="238.5%" filterUnits="objectBoundingBox" id="d">
      <feOffset in="SourceAlpha" result="shadowOffsetOuter1"/>
      <feGaussianBlur stdDeviation="12" in="shadowOffsetOuter1" result="shadowBlurOuter1"/>
      <feColorMatrix values="0 0 0 0 0 0 0 0 0 0 0 0 0 0 0 0 0 0 0.15 0" in="shadowBlurOuter1"/>
    </filter>
  </defs>
  <g fill="none" fill-rule="evenodd">
    <g fill-rule="nonzero">
      <path d="M156.861 241.638c-6.098 3.521-13.898 1.428-17.421-4.675-3.524-6.103-1.437-13.904 4.662-17.425l165.831-95.743c6.098-3.52 13.898-1.428 17.422 4.675 3.523 6.103 1.436 13.905-4.662 17.426L156.86 241.638z" fill-opacity=".3" fill="#D3F6ED"/>
      <path d="M307.162 184.175c-6.098 3.52-13.898 1.427-17.422-4.676-3.523-6.102-1.436-13.904 4.662-17.425l10.596-6.118c6.099-3.52 13.898-1.427 17.422 4.676 3.524 6.103 1.436 13.904-4.662 17.425l-10.596 6.118zM135.384 225.438c-6.099 3.52-13.899 1.427-17.422-4.675-3.524-6.103-1.436-13.905 4.662-17.426l184.463-106.5c6.099-3.52 13.898-1.427 17.422 4.676 3.524 6.102 1.436 13.904-4.662 17.425l-184.463 106.5zM187.65 253.175c-6.098 3.52-13.898 1.427-17.421-4.676-3.524-6.102-1.437-13.904 4.661-17.425l85.737-49.5c6.098-3.52 13.898-1.427 17.422 4.675 3.523 6.103 1.436 13.905-4.662 17.426l-85.737 49.5z" fill-opacity=".3" fill="#D3F6ED"/>
      <path d="M144.708 190.587c-6.099 3.521-13.899 1.428-17.422-4.675-3.524-6.103-1.437-13.905 4.662-17.425l135.304-78.118c6.098-3.521 13.898-1.428 17.421 4.675 3.524 6.103 1.437 13.905-4.662 17.425l-135.303 78.118z" fill-opacity=".3" fill="#D3F6ED"/>
      <path d="M131.948 168.487c-6.099 3.52-13.899 1.427-17.422-4.676-3.524-6.103-1.436-13.904 4.662-17.425l135.304-78.118c6.098-3.52 13.898-1.427 17.422 4.675 3.523 6.103 1.436 13.905-4.662 17.426l-135.304 78.118z" fill-opacity=".3" fill="#D3F6ED"/>
      <path d="M66.116 235.962c-6.099 3.521-13.898 1.428-17.422-4.675-3.524-6.103-1.436-13.905 4.662-17.425l135.304-78.118c6.098-3.521 13.898-1.428 17.422 4.675 3.523 6.103 1.436 13.905-4.662 17.425L66.116 235.962zM250.58 129.462c-6.1 3.521-13.9 1.428-17.423-4.675-3.523-6.103-1.436-13.905 4.662-17.425l135.304-78.118c6.099-3.521 13.898-1.428 17.422 4.675 3.524 6.103 1.436 13.905-4.662 17.425L250.58 129.462zM250.884 187.2c-6.098 3.52-13.898 1.427-17.422-4.676-3.523-6.103-1.436-13.905 4.662-17.425L373.428 86.98c6.099-3.521 13.899-1.428 17.422 4.675 3.524 6.103 1.436 13.905-4.662 17.425L250.884 187.2zM63.173 295.574c-6.098 3.521-13.898 1.428-17.422-4.675-3.523-6.103-1.436-13.905 4.662-17.425l135.304-78.118c6.099-3.521 13.899-1.428 17.422 4.675 3.524 6.103 1.436 13.905-4.662 17.425L63.173 295.574z" fill="#FFF"/>
    </g>
    <g fill-rule="nonzero">
      <use fill="#000" filter="url(#a)" xlink:href="#b"/>
      <path stroke="#DDFFF7" stroke-width="4" d="M200.493 169.124l62.163-61.882c5.776-5.75 15.116-5.724 20.86.056 5.745 5.779 5.72 15.124-.055 20.872l-72.395 72.068c-5.687 5.66-14.853 5.736-20.632.17l-36.267-34.932c-5.869-5.653-6.048-14.996-.4-20.869 5.65-5.874 14.988-6.053 20.858-.4l25.868 24.917z" fill="#4ED9B7" fill-rule="evenodd"/>
    </g>
    <g filter="url(#c)" transform="translate(67 88)">
      <path d="M61.179 96.528c1.22 1.906 2.22 2.957 3 3.154.78.197 2.15-.17 4.11-1.1-1.742 1.047-2.73 1.981-2.963 2.802-.233.822.073 2.077.917 3.767-.953-1.608-1.853-2.519-2.7-2.733-.845-.213-2.156.165-3.93 1.135 1.714-1.142 2.684-2.112 2.91-2.911.227-.8-.221-2.17-1.344-4.114z" stroke="#88C8FF" stroke-width="1.152" fill="#88C8FF" fill-rule="nonzero" stroke-linecap="round" stroke-linejoin="round"/>
      <path d="M242.836 131.713c.396 1.766.86 2.83 1.392 3.192.532.361 1.663.46 3.391.297-1.596.31-2.594.743-2.994 1.297-.4.553-.514 1.58-.342 3.082-.276-1.47-.703-2.4-1.28-2.793-.578-.392-1.667-.466-3.267-.223 1.601-.389 2.596-.853 2.985-1.391.39-.54.427-1.693.115-3.461z" stroke="#7AE3C9" stroke-width=".864" fill="#7AE3C9" fill-rule="nonzero" stroke-linecap="round" stroke-linejoin="round"/>
      <path d="M140.303 35c.156 3.39.666 5.506 1.532 6.347.865.84 2.92 1.392 6.165 1.654-3.05.054-5.033.527-5.951 1.419-.919.892-1.463 2.752-1.635 5.58-.032-2.804-.517-4.662-1.456-5.574-.94-.912-2.925-1.404-5.958-1.475 3.083-.197 5.07-.73 5.965-1.598.893-.868 1.34-2.986 1.338-6.353z" stroke="#FCE3B5" stroke-width="1.727" fill="#FCE3B5" fill-rule="nonzero" stroke-linecap="round" stroke-linejoin="round"/>
      <circle stroke="#F3A9B3" stroke-width="2" cx="111.5" cy="133.5" r="2.5"/>
      <circle stroke="#FCE3B5" stroke-width="2" cx="209.5" cy="103.5" r="2.5"/>
      <circle stroke="#88C8FF" stroke-width="2" cx="195" cy="3" r="3"/>
      <circle stroke="#F3A9B3" stroke-width="2" cx="142" cy="3" r="1"/>
      <path stroke="#A7ECDB" stroke-width="2" d="M88.657 26.414l4.242 4.243-4.242 4.243-4.243-4.243z"/>
      <path stroke="#88C8FF" d="M174.451 141.951l2.598 1.5-1.5 2.598-2.598-1.5z"/>
      <path stroke="#FCE3B5" d="M300.828 25.707l2.122 2.12-2.122 2.122-2.12-2.121z"/>
      <path stroke="#F3A9B3" d="M41.667 56.64l2.819 1.026-1.026 2.82-2.82-1.027z"/>
      <path stroke="#88C8FF" stroke-width="4" d="M33.732 18.732l.866.5-.5.866-.866-.5z"/>
      <path stroke="#F3A9B3" stroke-width="4" d="M291.732 85.732l.866-.5.5.866-.866.5z"/>
      <path stroke="#FCE3B5" stroke-width="1.5" d="M2.662 113.976l4.172 1.686-1.686 4.172-4.172-1.686z"/>
      <path stroke="#88C8FF" stroke-width="2.5" d="M238.458 60.662l3.17 6.797-6.797 3.17-3.17-6.798z"/>
    </g>
    <use fill="#000" filter="url(#d)" xlink:href="#e"/>
    <use fill="#FFF" xlink:href="#e"/>
    <g fill="#6E6E6E" fill-rule="nonzero">
      <path d="M260 169.5h-2.438a5.34 5.34 0 0 0 .938-3c0-2.75-2.063-5-4.625-5-2.688 0-4.188 1.563-6.875 6-2.688-4.438-4.188-6-6.813-6s-4.687 2.25-4.687 5a5.34 5.34 0 0 0 .938 3H234c-1.625 0-3 1.375-3 3v6c0 .563.438 1 1 1h1v9a3 3 0 0 0 3 3h22c1.688 0 3-1.313 3-3v-9h1c.563 0 1-.438 1-1v-6a3 3 0 0 0-3-3zm-11.75-.25c3.125-5.188 4.125-5.75 5.563-5.75 1.5 0 2.687 1.375 2.687 3s-1.188 3-2.625 3h-5.75l.125-.25zm-8.063-5.75c1.438 0 2.438.563 5.563 5.75l.125.25h-5.75c-1.438 0-2.625-1.313-2.625-3 0-1.625 1.188-3 2.688-3zm2.813 26h-7c-.563 0-1-.438-1-1v-9h8v10zm0-12h-10v-5c0-.563.438-1 1-1h9v6zm6 12h-4v-18h4v18zm10-1c0 .563-.438 1-1 1h-7v-10h8v9zm2-11h-10v-6h9c.563 0 1 .438 1 1v5z"/>
    </g>
  </g>
</svg>
