<svg width="327" height="226" viewBox="0 0 327 226" fill="none" xmlns="http://www.w3.org/2000/svg">
<path d="M117.418 162.933C112.844 165.573 106.994 164.003 104.351 159.426C101.709 154.849 103.274 148.998 107.848 146.357L232.221 74.5501C236.795 71.9095 242.645 73.4794 245.287 78.0566C247.93 82.6338 246.365 88.485 241.791 91.1256L117.418 162.933Z" fill="#D3F6ED" fill-opacity="0.3"/>
<path d="M230.143 119.835C225.569 122.475 219.719 120.906 217.076 116.328C214.434 111.751 215.999 105.9 220.573 103.259L228.52 98.6711C233.094 96.0305 238.944 97.6004 241.586 102.178C244.229 106.755 242.664 112.606 238.09 115.247L230.143 119.835Z" fill="#D3F6ED" fill-opacity="0.3"/>
<path d="M101.309 150.782C96.7354 153.423 90.8855 151.853 88.2428 147.276C85.6002 142.698 87.1656 136.847 91.7393 134.207L230.087 54.3317C234.66 51.6911 240.51 53.261 243.153 57.8382C245.796 62.4154 244.23 68.2665 239.657 70.9072L101.309 150.782Z" fill="#D3F6ED" fill-opacity="0.3"/>
<path d="M140.509 171.585C135.935 174.225 130.085 172.656 127.443 168.078C124.8 163.501 126.366 157.65 130.939 155.009L195.242 117.884C199.815 115.244 205.665 116.814 208.308 121.391C210.951 125.968 209.385 131.819 204.811 134.46L140.509 171.585Z" fill="#D3F6ED" fill-opacity="0.3"/>
<path d="M108.302 124.644C103.728 127.285 97.8784 125.715 95.2357 121.138C92.5931 116.561 94.1585 110.709 98.7322 108.069L200.21 49.4804C204.784 46.8398 210.634 48.4097 213.276 52.9869C215.919 57.5641 214.354 63.4153 209.78 66.0559L108.302 124.644Z" fill="#D3F6ED" fill-opacity="0.3"/>
<path d="M98.7322 108.069C94.1585 110.709 88.3086 109.139 85.6659 104.562C83.0233 99.9851 84.5887 94.1339 89.1623 91.4933L190.64 32.9049C195.214 30.2643 201.064 31.8342 203.707 36.4114C206.349 40.9886 204.784 46.8398 200.21 49.4804L98.7322 108.069Z" fill="#D3F6ED" fill-opacity="0.3"/>
<path d="M49.3582 158.675C44.7845 161.316 38.9345 159.746 36.2919 155.169C33.6492 150.592 35.2147 144.741 39.7883 142.1L141.266 83.5116C145.84 80.871 151.69 82.4409 154.333 87.0181C156.975 91.5953 155.41 97.4465 150.836 100.087L49.3582 158.675Z" fill="white"/>
<path d="M187.706 78.8005C183.132 81.4411 177.282 79.8712 174.639 75.294C171.997 70.7168 173.562 64.8656 178.136 62.225L279.614 3.63664C284.188 0.996025 290.037 2.56593 292.68 7.14313C295.323 11.7203 293.757 17.5715 289.184 20.2121L187.706 78.8005Z" fill="white"/>
<path d="M187.934 122.103C183.361 124.744 177.511 123.174 174.868 118.597C172.226 114.02 173.791 108.168 178.365 105.528L279.843 46.9394C284.416 44.2988 290.266 45.8687 292.909 50.4459C295.552 55.0231 293.986 60.8742 289.412 63.5149L187.934 122.103Z" fill="white"/>
<path d="M47.1513 203.384C42.5776 206.025 36.7276 204.455 34.085 199.878C31.4423 195.301 33.0077 189.45 37.5814 186.809L139.059 128.221C143.633 125.58 149.483 127.15 152.126 131.727C154.768 136.304 153.203 142.155 148.629 144.796L47.1513 203.384Z" fill="white"/>
<g filter="url(#filter0_d)">
<path d="M197.633 63.7777C201.391 60.0601 207.468 60.0762 211.207 63.8136C214.945 67.5511 214.929 73.5946 211.171 77.3122L156.67 131.222C152.969 134.883 147.006 134.932 143.245 131.332L115.942 105.202C112.123 101.546 112.007 95.5036 115.683 91.7054C119.359 87.9072 125.435 87.7915 129.254 91.4471L149.79 111.102L197.633 63.7777Z" fill="#4ED9B7"/>
<path d="M212.267 62.7528C207.945 58.432 200.923 58.4134 196.578 62.7113L149.773 109.009L130.292 90.3634C125.876 86.1375 118.855 86.2709 114.605 90.6622C110.35 95.0582 110.485 102.055 114.905 106.285L142.208 132.416C146.555 136.577 153.447 136.521 157.725 132.289L212.225 78.3786C216.575 74.0761 216.594 67.0783 212.267 62.7528Z" stroke="#DDFFF7" stroke-width="3"/>
</g>
<g filter="url(#filter1_d)">
<path d="M95.8839 120.396C96.7989 121.825 97.5489 122.614 98.1338 122.761C98.7188 122.909 99.7465 122.634 101.217 121.936C99.91 122.722 99.1693 123.422 98.9947 124.038C98.82 124.654 99.0492 125.596 99.6821 126.863C98.9672 125.657 98.2924 124.974 97.6579 124.814C97.0233 124.654 96.0404 124.937 94.7093 125.664C95.9948 124.808 96.7226 124.081 96.8925 123.481C97.0625 122.882 96.7263 121.853 95.8839 120.396Z" fill="#88C8FF" stroke="#88C8FF" stroke-width="0.863718" stroke-linecap="round" stroke-linejoin="round"/>
<path d="M232.127 146.785C232.424 148.109 232.772 148.907 233.171 149.178C233.57 149.45 234.418 149.524 235.715 149.402C234.517 149.635 233.769 149.959 233.469 150.374C233.169 150.789 233.084 151.56 233.213 152.686C233.005 151.583 232.685 150.885 232.252 150.591C231.818 150.297 231.002 150.241 229.802 150.424C231.003 150.132 231.749 149.784 232.041 149.38C232.333 148.976 232.361 148.111 232.127 146.785Z" fill="#7AE3C9" stroke="#7AE3C9" stroke-width="0.647789" stroke-linecap="round" stroke-linejoin="round"/>
<path d="M155.227 74.25C155.344 76.793 155.727 78.3797 156.376 79.0103C157.025 79.6409 158.566 80.0543 161 80.2506C158.713 80.2909 157.225 80.6457 156.536 81.3148C155.848 81.9838 155.439 83.3789 155.311 85.5C155.287 83.3971 154.922 82.0036 154.218 81.3196C153.514 80.6355 152.025 80.2667 149.75 80.2131C152.062 80.0654 153.553 79.666 154.223 79.0148C154.894 78.3636 155.228 76.7753 155.227 74.25Z" fill="#FCE3B5" stroke="#FCE3B5" stroke-width="1.29558" stroke-linecap="round" stroke-linejoin="round"/>
<path fill-rule="evenodd" clip-rule="evenodd" d="M133.625 150C134.661 150 135.5 149.161 135.5 148.125C135.5 147.089 134.661 146.25 133.625 146.25C132.589 146.25 131.75 147.089 131.75 148.125C131.75 149.161 132.589 150 133.625 150Z" stroke="#F3A9B3" stroke-width="1.5"/>
<path fill-rule="evenodd" clip-rule="evenodd" d="M207.125 127.5C208.161 127.5 209 126.661 209 125.625C209 124.589 208.161 123.75 207.125 123.75C206.089 123.75 205.25 124.589 205.25 125.625C205.25 126.661 206.089 127.5 207.125 127.5Z" stroke="#FCE3B5" stroke-width="1.5"/>
<path fill-rule="evenodd" clip-rule="evenodd" d="M196.25 52.5C197.493 52.5 198.5 51.4926 198.5 50.25C198.5 49.0074 197.493 48 196.25 48C195.007 48 194 49.0074 194 50.25C194 51.4926 195.007 52.5 196.25 52.5Z" stroke="#88C8FF" stroke-width="1.5"/>
<path fill-rule="evenodd" clip-rule="evenodd" d="M156.5 51C156.914 51 157.25 50.6642 157.25 50.25C157.25 49.8358 156.914 49.5 156.5 49.5C156.086 49.5 155.75 49.8358 155.75 50.25C155.75 50.6642 156.086 51 156.5 51Z" stroke="#F3A9B3" stroke-width="1.5"/>
<rect x="116.493" y="67.8107" width="4.5" height="4.5" transform="rotate(45 116.493 67.8107)" stroke="#A7ECDB" stroke-width="1.5"/>
<rect x="180.838" y="154.463" width="2.25" height="2.25" transform="rotate(30 180.838 154.463)" stroke="#88C8FF" stroke-width="0.75"/>
<rect x="275.621" y="67.2803" width="2.25" height="2.25" transform="rotate(45 275.621 67.2803)" stroke="#FCE3B5" stroke-width="0.75"/>
<rect x="81.2501" y="90.4806" width="2.25" height="2.25" transform="rotate(20 81.2501 90.4806)" stroke="#F3A9B3" stroke-width="0.75"/>
<rect x="75.0245" y="61.0245" width="1.5" height="1.5" transform="rotate(30 75.0245 61.0245)" stroke="#88C8FF" stroke-width="1.5"/>
<rect x="267.775" y="112.025" width="1.5" height="1.5" transform="rotate(-30 267.775 112.025)" stroke="#F3A9B3" stroke-width="1.5"/>
<rect x="51.9965" y="133.482" width="3.375" height="3.375" transform="rotate(22 51.9965 133.482)" stroke="#FCE3B5" stroke-width="1.125"/>
<rect x="228.844" y="93.4959" width="5.625" height="5.625" transform="rotate(65 228.844 93.4959)" stroke="#88C8FF" stroke-width="1.875"/>
</g>
<g filter="url(#filter2_d)">
<path fill-rule="evenodd" clip-rule="evenodd" d="M186 133C197.046 133 206 124.046 206 113C206 101.954 197.046 93 186 93C174.954 93 166 101.954 166 113C166 124.046 174.954 133 186 133Z" fill="white"/>
</g>
<path fill-rule="evenodd" clip-rule="evenodd" d="M193.394 107.75H195.1C196.281 107.75 197.2 108.713 197.2 109.85V114.05C197.2 114.444 196.894 114.75 196.5 114.75H195.8V121.05C195.8 122.231 194.881 123.15 193.7 123.15H178.3C177.162 123.15 176.2 122.231 176.2 121.05V114.75H175.5C175.106 114.75 174.8 114.444 174.8 114.05V109.85C174.8 108.713 175.762 107.75 176.9 107.75H178.606C178.212 107.181 177.95 106.438 177.95 105.65C177.95 103.725 179.394 102.15 181.231 102.15C183.069 102.15 184.119 103.244 186 106.35C187.881 103.244 188.931 102.15 190.812 102.15C192.606 102.15 194.05 103.725 194.05 105.65C194.05 106.438 193.787 107.181 193.394 107.75ZM190.769 103.55C189.762 103.55 189.062 103.944 186.875 107.575L186.787 107.75H190.812C191.819 107.75 192.65 106.788 192.65 105.65C192.65 104.513 191.819 103.55 190.769 103.55ZM181.231 103.55C182.237 103.55 182.937 103.944 185.125 107.575L185.212 107.75H181.187C180.181 107.75 179.35 106.831 179.35 105.65C179.35 104.513 180.181 103.55 181.231 103.55ZM178.3 121.75H183.2V114.75H177.6V121.05C177.6 121.444 177.906 121.75 178.3 121.75ZM183.2 113.35H176.2V109.85C176.2 109.456 176.506 109.15 176.9 109.15H183.2V113.35ZM184.6 121.75H187.4V109.15H184.6V121.75ZM194.4 121.05C194.4 121.444 194.094 121.75 193.7 121.75H188.8V114.75H194.4V121.05ZM188.8 113.35H195.8V109.85C195.8 109.456 195.494 109.15 195.1 109.15H188.8V113.35Z" fill="black" fill-opacity="0.87"/>
<defs>
<filter id="filter0_d" x="96" y="44" width="135" height="107" filterUnits="userSpaceOnUse" color-interpolation-filters="sRGB">
<feFlood flood-opacity="0" result="BackgroundImageFix"/>
<feColorMatrix in="SourceAlpha" type="matrix" values="0 0 0 0 0 0 0 0 0 0 0 0 0 0 0 0 0 0 127 0" result="hardAlpha"/>
<feOffset/>
<feGaussianBlur stdDeviation="7"/>
<feColorMatrix type="matrix" values="0 0 0 0 0.478431 0 0 0 0 0.890196 0 0 0 0 0.788235 0 0 0 0.4 0"/>
<feBlend mode="normal" in2="BackgroundImageFix" result="effect1_dropShadow"/>
<feBlend mode="normal" in="SourceGraphic" in2="effect1_dropShadow" result="shape"/>
</filter>
<filter id="filter1_d" x="36" y="33.25" width="255.743" height="138.799" filterUnits="userSpaceOnUse" color-interpolation-filters="sRGB">
<feFlood flood-opacity="0" result="BackgroundImageFix"/>
<feColorMatrix in="SourceAlpha" type="matrix" values="0 0 0 0 0 0 0 0 0 0 0 0 0 0 0 0 0 0 127 0" result="hardAlpha"/>
<feOffset/>
<feGaussianBlur stdDeviation="7"/>
<feColorMatrix type="matrix" values="0 0 0 0 0.733333 0 0 0 0 0.858824 0 0 0 0 0.827451 0 0 0 0.5 0"/>
<feBlend mode="normal" in2="BackgroundImageFix" result="effect1_dropShadow"/>
<feBlend mode="normal" in="SourceGraphic" in2="effect1_dropShadow" result="shape"/>
</filter>
<filter id="filter2_d" x="142" y="69" width="88" height="88" filterUnits="userSpaceOnUse" color-interpolation-filters="sRGB">
<feFlood flood-opacity="0" result="BackgroundImageFix"/>
<feColorMatrix in="SourceAlpha" type="matrix" values="0 0 0 0 0 0 0 0 0 0 0 0 0 0 0 0 0 0 127 0" result="hardAlpha"/>
<feOffset/>
<feGaussianBlur stdDeviation="12"/>
<feColorMatrix type="matrix" values="0 0 0 0 0 0 0 0 0 0 0 0 0 0 0 0 0 0 0.15 0"/>
<feBlend mode="normal" in2="BackgroundImageFix" result="effect1_dropShadow"/>
<feBlend mode="normal" in="SourceGraphic" in2="effect1_dropShadow" result="shape"/>
</filter>
</defs>
</svg>
