<svg width="256" height="172" viewBox="0 0 256 172" fill="none" xmlns="http://www.w3.org/2000/svg">
<path fill-rule="evenodd" clip-rule="evenodd" d="M60.5222 91.8641C55.9577 94.4554 50.1482 92.8792 47.5174 88.3224C44.8748 83.7453 46.4402 77.8941 51.0138 75.2535L152.492 16.6651C157.065 14.0245 162.915 15.5944 165.558 20.1716C168.189 24.7284 166.649 30.5479 162.123 33.2051C166.687 30.6138 172.497 32.1901 175.127 36.7468C177.77 41.324 176.205 47.1752 171.631 49.8158L70.153 108.404C65.5794 111.045 59.7294 109.475 57.0867 104.898C54.4559 100.341 55.9956 94.5214 60.5222 91.8641ZM63.1599 134.543C58.5862 137.183 52.7362 135.614 50.0936 131.036C47.4509 126.459 49.0163 120.608 53.59 117.967L191.938 38.0923C196.511 35.4517 202.361 37.0216 205.004 41.5988C207.647 46.176 206.081 52.0272 201.507 54.6678L197.159 57.1786C201.016 56.4853 205.065 58.2253 207.138 61.8171C209.781 66.3943 208.215 72.2455 203.642 74.8861L191.627 81.8231C195.966 80.0962 201.031 81.7706 203.438 85.9382C206.08 90.5154 204.515 96.3666 199.941 99.0072L191.994 103.596C187.42 106.236 181.57 104.666 178.928 100.089C176.521 95.9215 177.604 90.6977 181.269 87.8029L158.349 101.036C162.688 99.3097 167.753 100.984 170.159 105.152C172.802 109.729 171.236 115.58 166.662 118.221L102.36 155.346C97.7864 157.986 91.9364 156.416 89.2938 151.839C86.8877 147.672 87.97 142.448 91.6349 139.553L79.2683 146.693C74.6946 149.334 68.8446 147.764 66.202 143.187C64.1282 139.595 64.6457 135.219 67.1747 132.225L63.1599 134.543Z" fill="#D3F6ED" fill-opacity="0.3"/>
<path d="M64.0133 111.949C59.4397 114.589 53.5897 113.019 50.947 108.442C48.3044 103.865 49.8698 98.0137 54.4435 95.373L103.117 67.2713C107.691 64.6307 113.541 66.2006 116.183 70.7778C118.826 75.355 117.261 81.2062 112.687 83.8468L64.0133 111.949Z" fill="white"/>
<path d="M149.556 62.5608C144.983 65.2014 139.133 63.6315 136.49 59.0543C133.847 54.4772 135.413 48.626 139.986 45.9854L171.186 27.9725C175.759 25.3319 181.609 26.9018 184.252 31.479C186.895 36.0561 185.329 41.9073 180.756 44.548L149.556 62.5608Z" fill="white"/>
<path d="M149.786 105.864C145.212 108.504 139.362 106.934 136.72 102.357C134.077 97.7799 135.642 91.9287 140.216 89.2881L197.17 56.9891C201.744 54.3485 207.594 55.9184 210.236 60.4956C212.879 65.0728 211.313 70.924 206.74 73.5646L149.786 105.864Z" fill="white"/>
<path d="M76.1813 148.359C71.6076 150.999 65.7577 149.429 63.115 144.852C60.4724 140.275 62.0378 134.424 66.6114 131.783L100.91 111.981C105.484 109.34 111.334 110.91 113.977 115.487C116.619 120.064 115.054 125.916 110.48 128.556L76.1813 148.359Z" fill="white"/>
<g filter="url(#filter0_d_11811_278637)">
<path d="M161.633 48.7777C165.391 45.0601 171.468 45.0762 175.207 48.8136C178.945 52.5511 178.929 58.5946 175.171 62.3122L120.67 116.222C116.969 119.883 111.006 119.932 107.245 116.332L79.9424 90.2015C76.123 86.546 76.0067 80.5036 79.6827 76.7054C83.3587 72.9072 89.4349 72.7915 93.2544 76.4471L113.79 96.1016L161.633 48.7777Z" fill="#4ED9B7"/>
<path d="M176.267 47.7528C171.945 43.432 164.923 43.4134 160.578 47.7113L113.773 94.0088L94.2915 75.3634C89.8762 71.1375 82.8549 71.2709 78.6048 75.6622C74.3502 80.0582 74.4852 87.0548 78.9053 91.2852L106.208 117.416C110.555 121.577 117.447 121.521 121.725 117.289L176.225 63.3786C180.575 59.0761 180.594 52.0783 176.267 47.7528Z" stroke="#DDFFF7" stroke-width="3"/>
</g>
<g filter="url(#filter1_d_11811_278637)">
<path d="M59.884 105.396C60.7991 106.825 61.549 107.614 62.134 107.761C62.7189 107.909 63.7466 107.634 65.2171 106.936C63.9102 107.722 63.1694 108.422 62.9948 109.038C62.8202 109.654 63.0493 110.596 63.6822 111.863C62.9673 110.657 62.2926 109.974 61.658 109.814C61.0234 109.654 60.0406 109.937 58.7094 110.664C59.995 109.809 60.7227 109.081 60.8927 108.481C61.0626 107.882 60.7264 106.854 59.884 105.396Z" fill="#88C8FF" stroke="#88C8FF" stroke-width="0.863718" stroke-linecap="round" stroke-linejoin="round"/>
<path d="M196.127 131.785C196.424 133.11 196.772 133.908 197.171 134.179C197.57 134.45 198.418 134.524 199.715 134.402C198.517 134.635 197.769 134.959 197.469 135.374C197.169 135.789 197.084 136.56 197.213 137.686C197.005 136.584 196.685 135.885 196.252 135.591C195.818 135.297 195.002 135.241 193.802 135.424C195.003 135.132 195.749 134.784 196.041 134.38C196.333 133.976 196.361 133.111 196.127 131.785Z" fill="#7AE3C9" stroke="#7AE3C9" stroke-width="0.647789" stroke-linecap="round" stroke-linejoin="round"/>
<path d="M119.227 59.25C119.344 61.793 119.727 63.3797 120.376 64.0103C121.025 64.6409 122.566 65.0543 125 65.2506C122.713 65.2909 121.225 65.6457 120.536 66.3148C119.848 66.9838 119.439 68.3789 119.311 70.5C119.287 68.3971 118.922 67.0036 118.218 66.3196C117.514 65.6355 116.025 65.2667 113.75 65.2131C116.062 65.0654 117.553 64.666 118.223 64.0148C118.894 63.3636 119.228 61.7753 119.227 59.25Z" fill="#FCE3B5" stroke="#FCE3B5" stroke-width="1.29558" stroke-linecap="round" stroke-linejoin="round"/>
<path fill-rule="evenodd" clip-rule="evenodd" d="M97.625 135C98.6605 135 99.5 134.161 99.5 133.125C99.5 132.089 98.6605 131.25 97.625 131.25C96.5895 131.25 95.75 132.089 95.75 133.125C95.75 134.161 96.5895 135 97.625 135Z" stroke="#F3A9B3" stroke-width="1.5"/>
<path fill-rule="evenodd" clip-rule="evenodd" d="M171.125 112.5C172.161 112.5 173 111.661 173 110.625C173 109.589 172.161 108.75 171.125 108.75C170.089 108.75 169.25 109.589 169.25 110.625C169.25 111.661 170.089 112.5 171.125 112.5Z" stroke="#FCE3B5" stroke-width="1.5"/>
<path fill-rule="evenodd" clip-rule="evenodd" d="M160.25 37.5C161.493 37.5 162.5 36.4926 162.5 35.25C162.5 34.0074 161.493 33 160.25 33C159.007 33 158 34.0074 158 35.25C158 36.4926 159.007 37.5 160.25 37.5Z" stroke="#88C8FF" stroke-width="1.5"/>
<path fill-rule="evenodd" clip-rule="evenodd" d="M120.5 36C120.914 36 121.25 35.6642 121.25 35.25C121.25 34.8358 120.914 34.5 120.5 34.5C120.086 34.5 119.75 34.8358 119.75 35.25C119.75 35.6642 120.086 36 120.5 36Z" stroke="#F3A9B3" stroke-width="1.5"/>
<rect x="80.4922" y="52.8107" width="4.5" height="4.5" transform="rotate(45 80.4922 52.8107)" stroke="#A7ECDB" stroke-width="1.5"/>
<rect x="144.838" y="139.463" width="2.25" height="2.25" transform="rotate(30 144.838 139.463)" stroke="#88C8FF" stroke-width="0.75"/>
<rect x="239.621" y="52.2803" width="2.25" height="2.25" transform="rotate(45 239.621 52.2803)" stroke="#FCE3B5" stroke-width="0.75"/>
<rect x="45.2505" y="75.4806" width="2.25" height="2.25" transform="rotate(20 45.2505 75.4806)" stroke="#F3A9B3" stroke-width="0.75"/>
<rect x="39.0245" y="46.0245" width="1.5" height="1.5" transform="rotate(30 39.0245 46.0245)" stroke="#88C8FF" stroke-width="1.5"/>
<rect x="231.775" y="97.0245" width="1.5" height="1.5" transform="rotate(-30 231.775 97.0245)" stroke="#F3A9B3" stroke-width="1.5"/>
<rect x="15.9964" y="118.482" width="3.375" height="3.375" transform="rotate(22 15.9964 118.482)" stroke="#FCE3B5" stroke-width="1.125"/>
<rect x="192.843" y="78.4959" width="5.625" height="5.625" transform="rotate(65 192.843 78.4959)" stroke="#88C8FF" stroke-width="1.875"/>
</g>
<defs>
<filter id="filter0_d_11811_278637" x="60" y="29" width="135" height="107" filterUnits="userSpaceOnUse" color-interpolation-filters="sRGB">
<feFlood flood-opacity="0" result="BackgroundImageFix"/>
<feColorMatrix in="SourceAlpha" type="matrix" values="0 0 0 0 0 0 0 0 0 0 0 0 0 0 0 0 0 0 127 0" result="hardAlpha"/>
<feOffset/>
<feGaussianBlur stdDeviation="7"/>
<feColorMatrix type="matrix" values="0 0 0 0 0.478431 0 0 0 0 0.890196 0 0 0 0 0.788235 0 0 0 0.4 0"/>
<feBlend mode="normal" in2="BackgroundImageFix" result="effect1_dropShadow_11811_278637"/>
<feBlend mode="normal" in="SourceGraphic" in2="effect1_dropShadow_11811_278637" result="shape"/>
</filter>
<filter id="filter1_d_11811_278637" x="0" y="18.25" width="255.742" height="138.799" filterUnits="userSpaceOnUse" color-interpolation-filters="sRGB">
<feFlood flood-opacity="0" result="BackgroundImageFix"/>
<feColorMatrix in="SourceAlpha" type="matrix" values="0 0 0 0 0 0 0 0 0 0 0 0 0 0 0 0 0 0 127 0" result="hardAlpha"/>
<feOffset/>
<feGaussianBlur stdDeviation="7"/>
<feColorMatrix type="matrix" values="0 0 0 0 0.733333 0 0 0 0 0.858824 0 0 0 0 0.827451 0 0 0 0.5 0"/>
<feBlend mode="normal" in2="BackgroundImageFix" result="effect1_dropShadow_11811_278637"/>
<feBlend mode="normal" in="SourceGraphic" in2="effect1_dropShadow_11811_278637" result="shape"/>
</filter>
</defs>
</svg>
