<svg width="327" height="226" viewBox="0 0 327 226" fill="none" xmlns="http://www.w3.org/2000/svg">
<path d="M117.417 162.933C112.844 165.573 106.994 164.003 104.351 159.426C101.708 154.849 103.274 148.998 107.848 146.357L232.221 74.5501C236.795 71.9095 242.645 73.4794 245.287 78.0566C247.93 82.6338 246.365 88.485 241.791 91.1256L117.417 162.933Z" fill="#DBEEFF" fill-opacity="0.3"/>
<path d="M230.143 119.835C225.569 122.475 219.719 120.906 217.076 116.328C214.434 111.751 215.999 105.9 220.573 103.259L228.52 98.6711C233.094 96.0305 238.944 97.6004 241.586 102.178C244.229 106.755 242.664 112.606 238.09 115.247L230.143 119.835Z" fill="#D4E6F5" fill-opacity="0.3"/>
<path d="M101.309 150.782C96.7356 153.423 90.8856 151.853 88.2429 147.276C85.6003 142.698 87.1657 136.847 91.7394 134.207L230.087 54.3317C234.661 51.6911 240.511 53.261 243.153 57.8382C245.796 62.4154 244.23 68.2665 239.657 70.9072L101.309 150.782Z" fill="#D4E6F5" fill-opacity="0.3"/>
<path d="M140.509 171.585C135.936 174.225 130.086 172.656 127.443 168.078C124.8 163.501 126.366 157.65 130.939 155.009L195.242 117.884C199.815 115.244 205.665 116.814 208.308 121.391C210.951 125.968 209.385 131.819 204.812 134.46L140.509 171.585Z" fill="#D4E6F5" fill-opacity="0.3"/>
<path d="M108.302 124.644C103.728 127.285 97.8783 125.715 95.2356 121.138C92.593 116.561 94.1584 110.709 98.7321 108.069L200.21 49.4804C204.784 46.8398 210.634 48.4097 213.276 52.9869C215.919 57.5641 214.354 63.4153 209.78 66.0559L108.302 124.644Z" fill="#DBEEFF" fill-opacity="0.3"/>
<path d="M98.7321 108.069C94.1584 110.709 88.3084 109.139 85.6658 104.562C83.0231 99.9851 84.5886 94.1339 89.1622 91.4933L190.64 32.9049C195.214 30.2643 201.064 31.8342 203.707 36.4114C206.349 40.9886 204.784 46.8398 200.21 49.4804L98.7321 108.069Z" fill="#D4E6F5" fill-opacity="0.3"/>
<path d="M49.3581 158.675C44.7844 161.316 38.9344 159.746 36.2918 155.169C33.6491 150.592 35.2145 144.741 39.7882 142.1L141.266 83.5116C145.84 80.871 151.69 82.4409 154.332 87.0181C156.975 91.5953 155.41 97.4465 150.836 100.087L49.3581 158.675Z" fill="white"/>
<path d="M187.706 78.8005C183.132 81.4411 177.282 79.8712 174.639 75.294C171.997 70.7168 173.562 64.8656 178.136 62.225L279.614 3.63664C284.188 0.996025 290.037 2.56593 292.68 7.14313C295.323 11.7203 293.757 17.5715 289.184 20.2121L187.706 78.8005Z" fill="white"/>
<path d="M187.934 122.103C183.361 124.744 177.511 123.174 174.868 118.597C172.226 114.02 173.791 108.168 178.365 105.528L279.843 46.9394C284.416 44.2988 290.266 45.8687 292.909 50.4459C295.552 55.0231 293.986 60.8742 289.412 63.5149L187.934 122.103Z" fill="white"/>
<path d="M47.1513 203.384C42.5776 206.025 36.7276 204.455 34.085 199.878C31.4423 195.301 33.0077 189.45 37.5814 186.809L139.059 128.221C143.633 125.58 149.483 127.15 152.126 131.727C154.768 136.304 153.203 142.155 148.629 144.796L47.1513 203.384Z" fill="white"/>
<g filter="url(#filter0_d)">
<path d="M191 56H135C132.791 56 131 57.8048 131 60.0312V62.7188C131 64.9452 132.791 66.75 135 66.75C135 82.0293 143.503 94.9241 155.14 99C143.503 103.076 135 115.971 135 131.25C132.791 131.25 131 133.055 131 135.281V137.969C131 140.195 132.791 142 135 142H191C193.209 142 195 140.195 195 137.969V135.281C195 133.055 193.209 131.25 191 131.25C191 115.971 182.497 103.076 170.86 99C182.497 94.9241 191 82.0293 191 66.75C193.209 66.75 195 64.9452 195 62.7188V60.0312C195 57.8048 193.209 56 191 56ZM178.487 120.5H147.513C150.357 112.64 156.196 107.062 163 107.062C169.804 107.062 175.644 112.638 178.487 120.5ZM178.49 77.5H147.513C146.331 74.2327 145.667 70.571 145.667 66.75H180.333C180.333 70.5805 179.669 74.2392 178.49 77.5Z" fill="#88C8FF"/>
<path d="M191 54.5H135C131.951 54.5 129.5 56.9874 129.5 60.0312V62.7188C129.5 65.2501 131.195 67.3967 133.52 68.0477C133.942 81.8403 141.075 93.7514 151.344 99C141.075 104.249 133.942 116.16 133.52 129.952C131.195 130.603 129.5 132.75 129.5 135.281V137.969C129.5 141.013 131.951 143.5 135 143.5H191C194.049 143.5 196.5 141.013 196.5 137.969V135.281C196.5 132.75 194.805 130.603 192.48 129.952C192.058 116.16 184.925 104.249 174.656 99C184.925 93.7514 192.058 81.8403 192.48 68.0477C194.805 67.3967 196.5 65.2501 196.5 62.7188V60.0312C196.5 56.9874 194.049 54.5 191 54.5ZM163 108.562C168.37 108.562 173.343 112.598 176.258 119H149.742C152.657 112.599 157.63 108.562 163 108.562ZM178.798 68.25C178.668 70.9812 178.185 73.5961 177.417 76H148.586C147.816 73.5921 147.333 70.9759 147.203 68.25H178.798Z" stroke="#E9F5FF" stroke-width="3"/>
</g>
<g filter="url(#filter1_d)">
<path d="M95.884 120.396C96.7991 121.825 97.549 122.614 98.134 122.761C98.7189 122.909 99.7466 122.634 101.217 121.936C99.9102 122.722 99.1694 123.422 98.9948 124.038C98.8202 124.654 99.0493 125.596 99.6822 126.863C98.9673 125.657 98.2926 124.974 97.658 124.814C97.0234 124.654 96.0406 124.937 94.7094 125.664C95.995 124.808 96.7227 124.081 96.8927 123.481C97.0626 122.882 96.7264 121.853 95.884 120.396Z" fill="#88C8FF" stroke="#88C8FF" stroke-width="0.863718" stroke-linecap="round" stroke-linejoin="round"/>
<path d="M232.127 146.785C232.424 148.109 232.772 148.907 233.171 149.178C233.57 149.45 234.418 149.524 235.715 149.402C234.517 149.635 233.769 149.959 233.469 150.374C233.169 150.789 233.084 151.56 233.213 152.686C233.005 151.583 232.685 150.885 232.252 150.591C231.818 150.297 231.002 150.241 229.802 150.424C231.003 150.132 231.749 149.784 232.041 149.38C232.333 148.976 232.361 148.111 232.127 146.785Z" fill="#7AE3C9" stroke="#7AE3C9" stroke-width="0.647789" stroke-linecap="round" stroke-linejoin="round"/>
<path fill-rule="evenodd" clip-rule="evenodd" d="M133.625 150C134.661 150 135.5 149.161 135.5 148.125C135.5 147.089 134.661 146.25 133.625 146.25C132.589 146.25 131.75 147.089 131.75 148.125C131.75 149.161 132.589 150 133.625 150Z" stroke="#F3A9B3" stroke-width="1.5"/>
<path fill-rule="evenodd" clip-rule="evenodd" d="M207.125 127.5C208.161 127.5 209 126.661 209 125.625C209 124.589 208.161 123.75 207.125 123.75C206.089 123.75 205.25 124.589 205.25 125.625C205.25 126.661 206.089 127.5 207.125 127.5Z" stroke="#FCE3B5" stroke-width="1.5"/>
<path fill-rule="evenodd" clip-rule="evenodd" d="M196.25 52.5C197.493 52.5 198.5 51.4926 198.5 50.25C198.5 49.0074 197.493 48 196.25 48C195.007 48 194 49.0074 194 50.25C194 51.4926 195.007 52.5 196.25 52.5Z" stroke="#88C8FF" stroke-width="1.5"/>
<path fill-rule="evenodd" clip-rule="evenodd" d="M156.5 51C156.914 51 157.25 50.6642 157.25 50.25C157.25 49.8358 156.914 49.5 156.5 49.5C156.086 49.5 155.75 49.8358 155.75 50.25C155.75 50.6642 156.086 51 156.5 51Z" stroke="#F3A9B3" stroke-width="1.5"/>
<rect x="116.493" y="67.8107" width="4.5" height="4.5" transform="rotate(45 116.493 67.8107)" stroke="#A7ECDB" stroke-width="1.5"/>
<rect x="180.838" y="154.463" width="2.25" height="2.25" transform="rotate(30 180.838 154.463)" stroke="#88C8FF" stroke-width="0.75"/>
<rect x="275.621" y="67.2803" width="2.25" height="2.25" transform="rotate(45 275.621 67.2803)" stroke="#FCE3B5" stroke-width="0.75"/>
<rect x="81.2503" y="90.4806" width="2.25" height="2.25" transform="rotate(20 81.2503 90.4806)" stroke="#F3A9B3" stroke-width="0.75"/>
<rect x="75.0245" y="61.0245" width="1.5" height="1.5" transform="rotate(30 75.0245 61.0245)" stroke="#88C8FF" stroke-width="1.5"/>
<rect x="267.775" y="112.025" width="1.5" height="1.5" transform="rotate(-30 267.775 112.025)" stroke="#F3A9B3" stroke-width="1.5"/>
<rect x="51.9966" y="133.482" width="3.375" height="3.375" transform="rotate(22 51.9966 133.482)" stroke="#FCE3B5" stroke-width="1.125"/>
<rect x="228.844" y="93.4959" width="5.625" height="5.625" transform="rotate(65 228.844 93.4959)" stroke="#88C8FF" stroke-width="1.875"/>
</g>
<g filter="url(#filter2_d)">
<path fill-rule="evenodd" clip-rule="evenodd" d="M186 133C197.046 133 206 124.046 206 113C206 101.954 197.046 93 186 93C174.954 93 166 101.954 166 113C166 124.046 174.954 133 186 133Z" fill="white"/>
</g>
<path d="M186 105.5C183.519 105.5 181.5 107.519 181.5 110C181.5 112.481 183.519 114.5 186 114.5C188.481 114.5 190.5 112.481 190.5 110C190.5 107.519 188.481 105.5 186 105.5ZM186 113C184.346 113 183 111.654 183 110C183 108.346 184.346 107 186 107C187.654 107 189 108.346 189 110C189 111.654 187.654 113 186 113ZM186 101C181.029 101 177 105.029 177 110C177 113.629 178.264 114.642 185.075 124.516C185.522 125.161 186.478 125.161 186.925 124.516C193.736 114.642 195 113.629 195 110C195 105.029 190.971 101 186 101ZM186 123.216C179.471 113.773 178.5 113.023 178.5 110C178.5 107.997 179.28 106.113 180.697 104.697C182.113 103.28 183.997 102.5 186 102.5C188.003 102.5 189.887 103.28 191.303 104.697C192.72 106.113 193.5 107.997 193.5 110C193.5 113.023 192.53 113.772 186 123.216Z" fill="black" fill-opacity="0.87"/>
<defs>
<filter id="filter0_d" x="114" y="39" width="98" height="120" filterUnits="userSpaceOnUse" color-interpolation-filters="sRGB">
<feFlood flood-opacity="0" result="BackgroundImageFix"/>
<feColorMatrix in="SourceAlpha" type="matrix" values="0 0 0 0 0 0 0 0 0 0 0 0 0 0 0 0 0 0 127 0" result="hardAlpha"/>
<feOffset/>
<feGaussianBlur stdDeviation="7"/>
<feColorMatrix type="matrix" values="0 0 0 0 0.642743 0 0 0 0 0.776618 0 0 0 0 0.891667 0 0 0 0.4 0"/>
<feBlend mode="normal" in2="BackgroundImageFix" result="effect1_dropShadow"/>
<feBlend mode="normal" in="SourceGraphic" in2="effect1_dropShadow" result="shape"/>
</filter>
<filter id="filter1_d" x="36" y="33.25" width="255.743" height="138.799" filterUnits="userSpaceOnUse" color-interpolation-filters="sRGB">
<feFlood flood-opacity="0" result="BackgroundImageFix"/>
<feColorMatrix in="SourceAlpha" type="matrix" values="0 0 0 0 0 0 0 0 0 0 0 0 0 0 0 0 0 0 127 0" result="hardAlpha"/>
<feOffset/>
<feGaussianBlur stdDeviation="7"/>
<feColorMatrix type="matrix" values="0 0 0 0 0.733333 0 0 0 0 0.858824 0 0 0 0 0.827451 0 0 0 0.5 0"/>
<feBlend mode="normal" in2="BackgroundImageFix" result="effect1_dropShadow"/>
<feBlend mode="normal" in="SourceGraphic" in2="effect1_dropShadow" result="shape"/>
</filter>
<filter id="filter2_d" x="142" y="69" width="88" height="88" filterUnits="userSpaceOnUse" color-interpolation-filters="sRGB">
<feFlood flood-opacity="0" result="BackgroundImageFix"/>
<feColorMatrix in="SourceAlpha" type="matrix" values="0 0 0 0 0 0 0 0 0 0 0 0 0 0 0 0 0 0 127 0" result="hardAlpha"/>
<feOffset/>
<feGaussianBlur stdDeviation="12"/>
<feColorMatrix type="matrix" values="0 0 0 0 0 0 0 0 0 0 0 0 0 0 0 0 0 0 0.15 0"/>
<feBlend mode="normal" in2="BackgroundImageFix" result="effect1_dropShadow"/>
<feBlend mode="normal" in="SourceGraphic" in2="effect1_dropShadow" result="shape"/>
</filter>
</defs>
</svg>
