<svg width="376" height="200" xmlns="http://www.w3.org/2000/svg" xmlns:xlink="http://www.w3.org/1999/xlink"><defs><path d="M263.07 108.32c4.99-4.86 13.06-4.84 18.03.05a12.3 12.3 0 0 1-.05 17.65l-72.4 70.52a12.94 12.94 0 0 1-17.83.14l-36.27-34.18a12.3 12.3 0 0 1-.34-17.65 12.94 12.94 0 0 1 18.03-.34l27.28 25.71 63.55-61.9z" id="b"/><filter x="-23.1%" y="-32.5%" width="146.2%" height="164.9%" filterUnits="objectBoundingBox" id="a"><feMorphology radius="4" operator="dilate" in="SourceAlpha" result="shadowSpreadOuter1"/><feOffset in="shadowSpreadOuter1" result="shadowOffsetOuter1"/><feGaussianBlur stdDeviation="9" in="shadowOffsetOuter1" result="shadowBlurOuter1"/><feComposite in="shadowBlurOuter1" in2="SourceAlpha" operator="out" result="shadowBlurOuter1"/><feColorMatrix values="0 0 0 0 0.478431373 0 0 0 0 0.890196078 0 0 0 0 0.788235294 0 0 0 0.4 0" in="shadowBlurOuter1"/></filter><filter x="-11.5%" y="-25%" width="123%" height="149.5%" filterUnits="objectBoundingBox" id="c"><feOffset in="SourceAlpha" result="shadowOffsetOuter1"/><feGaussianBlur stdDeviation="9" in="shadowOffsetOuter1" result="shadowBlurOuter1"/><feColorMatrix values="0 0 0 0 0.733333333 0 0 0 0 0.858823529 0 0 0 0 0.82745098 0 0 0 0.5 0" in="shadowBlurOuter1" result="shadowMatrixOuter1"/><feMerge><feMergeNode in="shadowMatrixOuter1"/><feMergeNode in="SourceGraphic"/></feMerge></filter><ellipse id="e" cx="246" cy="175.19" rx="26" ry="25.44"/><filter x="-69.2%" y="-70.8%" width="238.5%" height="241.5%" filterUnits="objectBoundingBox" id="d"><feOffset in="SourceAlpha" result="shadowOffsetOuter1"/><feGaussianBlur stdDeviation="12" in="shadowOffsetOuter1" result="shadowBlurOuter1"/><feColorMatrix values="0 0 0 0 0 0 0 0 0 0 0 0 0 0 0 0 0 0 0.15 0" in="shadowBlurOuter1"/></filter></defs><g fill="none" fill-rule="evenodd"><path fill="#FFF" d="M0 0h376v200H0z"/><g fill-rule="nonzero"><path d="M126.45 180.43c-6.1 3.52-13.83 1.53-17.28-4.44-3.45-5.97-1.3-13.66 4.8-17.18L279.8 63.06c6.1-3.52 13.84-1.53 17.28 4.44 3.45 5.97 1.3 13.67-4.8 17.19l-165.83 95.74z" fill-opacity=".3" fill="#D3F6ED"/><path d="M276.48 122.5c-6.1 3.51-13.84 1.53-17.28-4.44-3.45-5.98-1.3-13.67 4.8-17.2l10.6-6.1c6.1-3.53 13.83-1.54 17.28 4.43 3.44 5.97 1.3 13.66-4.8 17.19l-10.6 6.11zM105.24 164.7c-6.1 3.51-13.83 1.53-17.28-4.45-3.45-5.97-1.3-13.66 4.8-17.18l184.46-106.5c6.1-3.52 13.84-1.54 17.29 4.43 3.44 5.98 1.3 13.67-4.8 17.2L105.24 164.7zM156.97 191.5c-6.1 3.51-13.84 1.53-17.28-4.44-3.45-5.98-1.3-13.67 4.8-17.2l85.73-49.5c6.1-3.51 13.84-1.53 17.29 4.45 3.44 5.97 1.3 13.66-4.8 17.18l-85.74 49.5z" fill-opacity=".3" fill="#D3F6ED"/><path d="M114.84 130.32c-6.1 3.52-13.83 1.53-17.28-4.44-3.45-5.97-1.3-13.67 4.8-17.19l135.3-78.12c6.1-3.52 13.84-1.53 17.29 4.44 3.44 5.97 1.3 13.67-4.8 17.19l-135.3 78.12z" fill-opacity=".3" fill="#D3F6ED"/><path d="M102.36 108.7c-6.1 3.51-13.84 1.53-17.29-4.45-3.45-5.97-1.3-13.66 4.8-17.18l135.3-78.12c6.1-3.52 13.84-1.53 17.29 4.44 3.45 5.97 1.3 13.66-4.8 17.18l-135.3 78.12z" fill-opacity=".3" fill="#D3F6ED"/><path d="M36.25 175.7c-6.1 3.51-13.84 1.53-17.28-4.45-3.45-5.97-1.3-13.66 4.8-17.18l135.3-78.12c6.1-3.52 13.84-1.53 17.28 4.44 3.45 5.97 1.3 13.66-4.8 17.18L36.25 175.7zM220.71 69.2c-6.1 3.51-13.83 1.53-17.28-4.45-3.45-5.97-1.3-13.66 4.8-17.18l135.3-78.12c6.1-3.52 13.84-1.53 17.29 4.44 3.44 5.97 1.3 13.66-4.8 17.18L220.72 69.2zM220.48 126c-6.1 3.51-13.84 1.53-17.29-4.44-3.44-5.98-1.3-13.67 4.8-17.2l135.3-78.1c6.1-3.53 13.84-1.54 17.3 4.43 3.44 5.97 1.29 13.66-4.8 17.19l-135.31 78.11zM32.77 234.37c-6.1 3.52-13.84 1.53-17.29-4.44-3.44-5.97-1.3-13.67 4.8-17.19l135.3-78.11c6.1-3.52 13.84-1.54 17.3 4.43 3.44 5.97 1.29 13.67-4.8 17.2l-135.31 78.1z" fill="#FFF"/></g><g fill-rule="nonzero" transform="translate(-29 -59)"><use fill="#000" filter="url(#a)" xlink:href="#b"/><path stroke="#DDFFF7" stroke-width="4" d="M199.5 167.45l62.17-60.56a14.94 14.94 0 0 1 20.83.05 14.3 14.3 0 0 1-.05 20.52l-72.4 70.51a14.94 14.94 0 0 1-20.6.17l-36.27-34.18a14.3 14.3 0 0 1-.4-20.51 14.94 14.94 0 0 1 20.83-.4l25.88 24.4z" fill="#4ED9B7" fill-rule="evenodd"/></g><g filter="url(#c)" transform="translate(37 29.1)"><path d="M61.18 94.45c1.22 1.86 2.22 2.9 3 3.08.78.2 2.15-.16 4.1-1.07-1.73 1.02-2.72 1.94-2.95 2.74-.24.8.07 2.03.91 3.69-.95-1.58-1.85-2.47-2.7-2.68-.84-.2-2.15.16-3.93 1.11 1.72-1.11 2.69-2.06 2.91-2.85.23-.78-.22-2.12-1.34-4.02z" stroke="#88C8FF" stroke-width="1.15" fill="#88C8FF" fill-rule="nonzero" stroke-linecap="round" stroke-linejoin="round"/><path d="M242.84 128.88c.4 1.72.86 2.77 1.39 3.12.53.35 1.66.45 3.39.29-1.6.3-2.6.73-3 1.27-.4.54-.5 1.55-.34 3.01-.27-1.43-.7-2.34-1.28-2.73-.58-.38-1.66-.45-3.26-.22 1.6-.38 2.6-.83 2.98-1.36.39-.53.43-1.65.12-3.38z" stroke="#7AE3C9" stroke-width=".86" fill="#7AE3C9" fill-rule="nonzero" stroke-linecap="round" stroke-linejoin="round"/><path d="M140.3 34.25c.16 3.31.67 5.38 1.53 6.2.87.83 2.93 1.37 6.17 1.62-3.05.06-5.03.52-5.95 1.4-.92.87-1.46 2.69-1.64 5.45-.03-2.74-.51-4.56-1.45-5.45-.94-.9-2.93-1.37-5.96-1.44 3.08-.2 5.07-.72 5.96-1.57.9-.85 1.34-2.92 1.34-6.21z" stroke="#FCE3B5" stroke-width="1.73" fill="#FCE3B5" fill-rule="nonzero" stroke-linecap="round" stroke-linejoin="round"/><ellipse stroke="#F3A9B3" stroke-width="2" cx="111.5" cy="130.62" rx="2.5" ry="2.45"/><ellipse stroke="#FCE3B5" stroke-width="2" cx="209.5" cy="101.27" rx="2.5" ry="2.45"/><ellipse stroke="#88C8FF" stroke-width="2" cx="195" cy="2.94" rx="3" ry="2.94"/><ellipse stroke="#F3A9B3" stroke-width="2" cx="142" cy="2.94" rx="1" ry="1"/><path d="M88.66 25.86L84.43 30l4.23 4.13L92.88 30l-4.22-4.14z" stroke="#A7ECDB" stroke-width="2"/><path d="M174.45 138.9l-1.5 2.53 2.6 1.46 1.5-2.52-2.6-1.47z" stroke="#88C8FF"/><path d="M300.83 25.16l-2.12 2.07 2.12 2.07 2.11-2.07-2.11-2.07z" stroke="#FCE3B5"/><path d="M41.66 55.43l-1.01 2.74 2.81 1 1.02-2.74-2.82-1z" stroke="#F3A9B3"/><path d="M35.36 19.28l.12.07-.74-2.75-.05.08-2.58.7-.13-.08.74 2.76.05-.08 2.59-.7z" stroke="#88C8FF" stroke-width="4"/><path d="M293.36 82.93l-2.59-.7-.05-.08-.74 2.76.13-.07 2.58.7.05.08.74-2.76-.12.07z" stroke="#F3A9B3" stroke-width="4"/><path d="M2.66 111.54l-1.68 4.05 4.17 1.65 1.68-4.06-4.17-1.64z" stroke="#FCE3B5" stroke-width="1.5"/><path d="M238.46 59.38l-6.78 3.1 3.15 6.6 6.78-3.1-3.15-6.6z" stroke="#88C8FF" stroke-width="2.5"/></g><g transform="translate(-29 -59)"><use fill="#000" filter="url(#d)" xlink:href="#e"/><use fill="#FFF" xlink:href="#e"/></g><path d="M217.67 119.65l4.1-3.93a.87.87 0 0 1 1.2.01c.33.33.32.85-.01 1.18l-6.13 5.87-6.17-5.87a.81.81 0 0 1-.02-1.17.87.87 0 0 1 1.2-.02l4.13 3.92v-9.93a3.63 3.63 0 0 0-2.99-3.54h-.45a.84.84 0 0 1-.85-.83c0-.45.38-.82.85-.82H213.2a5.3 5.3 0 0 1 4.46 5.2v9.93zm-14.67.61c0-.46.38-.83.85-.83s.85.37.85.83v4.18c0 1.12.94 2.04 2.1 2.04h19.6c1.16 0 2.1-.92 2.1-2.04v-4.18c0-.46.38-.83.85-.83s.85.37.85.83v4.18c0 2.04-1.7 3.7-3.8 3.7h-19.6c-2.1 0-3.8-1.66-3.8-3.7v-4.18z" fill="#6E6E6E" fill-rule="nonzero"/></g></svg>