<svg width="360" height="88" xmlns="http://www.w3.org/2000/svg" xmlns:xlink="http://www.w3.org/1999/xlink">
  <defs>
    <radialGradient cy="59.087%" fx="50%" fy="59.087%" r="289.987%" gradientTransform="matrix(0 -1 .23333 0 .362 1.09)" id="b">
      <stop stop-opacity=".03" offset="0%"/>
      <stop stop-opacity=".25" offset="100%"/>
    </radialGradient>
    <path id="a" d="M0 0h360v84H0z"/>
  </defs>
  <g fill="none" fill-rule="evenodd">
    <g transform="translate(0 2)">
      <mask id="c" fill="#fff">
        <use xlink:href="#a"/>
      </mask>
      <use fill="url(#b)" xlink:href="#a"/>
      <g mask="url(#c)">
        <path d="M-34.691 87.067l12.403-23.355a1.583 1.583 0 0 1 2.134-.656 1.567 1.567 0 0 1 .659 2.124l-12.001 22.6h42.074c.05-.245 18.331-34.757 18.331-34.757l-2.717-5.046-2.844 3.712a2.637 2.637 0 0 1-1.998 1.032 2.636 2.636 0 0 1-2.072-.875l-6.851-7.627-13.318 15.64a2.644 2.644 0 0 1-1.993.93h-.023a2.645 2.645 0 0 1-2.001-.913l-7.26-8.493-2.952 5.558a1.583 1.583 0 0 1-2.134.655 1.567 1.567 0 0 1-.659-2.123L5.45 11.478a2.638 2.638 0 0 1 2.328-1.4h.008c.975 0 1.867.53 2.328 1.387l16.586 30.8 1.117 2.075 2.872 5.332 8.537-16.075a2.633 2.633 0 0 1 2.328-1.4h.008c.033 0 .065.001.097.003.027 0 .054 0 .08.002l.073.008.107.01.095.016.079.014c.76.154 1.421.636 1.797 1.333l5.782 10.737 9.724 18.059.005.01 13.283 24.665c.442.822.42 1.79-.062 2.59a2.622 2.622 0 0 1-2.266 1.278H-32.355c-.935 0-1.78-.475-2.263-1.271a2.595 2.595 0 0 1-.073-2.584zm58.765-43.022L7.788 13.804l-18.367 34.588 7.671 8.973 13.309-15.63a2.645 2.645 0 0 1 1.98-.929h.035c.752 0 1.468.319 1.97.877l6.83 7.604 3.337-4.354-.479-.888zM69.49 87.779L57.53 65.567l-4.612 3.842a2.639 2.639 0 0 1-3.667-.265l-5.289-5.897-3.406 3.362c-.62.612-1.62.608-2.234-.008a1.566 1.566 0 0 1 .008-2.223l3.795-3.745a2.663 2.663 0 0 1 1.94-.761c.722.022 1.41.341 1.89.877l5.32 5.93 4.73-3.942-14.44-26.815-18.633 35.09 4.498 4.124 4.115-4.062a1.586 1.586 0 0 1 2.234.01c.615.615.61 1.61-.008 2.221l-4.467 4.41a2.641 2.641 0 0 1-1.86.764c-.641 0-1.283-.232-1.79-.698l-4.25-3.896-7.378 13.894H69.49zM265.309 85.067l12.403-23.355a1.583 1.583 0 0 1 2.134-.656 1.567 1.567 0 0 1 .659 2.124l-12.001 22.6h42.074c.05-.245 18.331-34.757 18.331-34.757l-2.717-5.046-2.844 3.712a2.637 2.637 0 0 1-1.998 1.032 2.636 2.636 0 0 1-2.072-.875l-6.851-7.627-13.318 15.64a2.644 2.644 0 0 1-1.993.93h-.023a2.645 2.645 0 0 1-2.001-.913l-7.26-8.493-2.952 5.558a1.583 1.583 0 0 1-2.134.655 1.567 1.567 0 0 1-.659-2.123L305.45 9.478a2.638 2.638 0 0 1 2.328-1.4h.008c.975 0 1.867.53 2.328 1.387l16.586 30.8 1.117 2.075 2.872 5.332 8.537-16.075a2.633 2.633 0 0 1 2.328-1.4h.008c.033 0 .065.001.097.003.027 0 .054 0 .08.002l.073.008.107.01.095.016.079.014c.76.154 1.421.636 1.797 1.333l5.782 10.737 9.724 18.059.005.01 13.283 24.665c.442.822.42 1.79-.062 2.59a2.622 2.622 0 0 1-2.266 1.278H267.645c-.935 0-1.78-.475-2.263-1.271a2.595 2.595 0 0 1-.073-2.584zm58.765-43.022l-16.286-30.241-18.367 34.588 7.671 8.973 13.309-15.63a2.645 2.645 0 0 1 1.98-.929h.035c.752 0 1.468.319 1.97.877l6.83 7.604 3.337-4.354-.479-.888zm45.416 43.734L357.53 63.567l-4.612 3.842a2.639 2.639 0 0 1-3.667-.265l-5.289-5.897-3.406 3.362c-.62.612-1.62.608-2.234-.008a1.566 1.566 0 0 1 .008-2.223l3.795-3.745a2.663 2.663 0 0 1 1.94-.761c.722.022 1.41.341 1.89.877l5.32 5.93 4.73-3.942-14.44-26.815-18.633 35.09 4.498 4.124 4.115-4.062a1.586 1.586 0 0 1 2.234.01c.615.615.61 1.61-.008 2.221l-4.467 4.41a2.641 2.641 0 0 1-1.86.764c-.641 0-1.283-.232-1.79-.698l-4.25-3.896-7.378 13.894h55.465z" fill-opacity=".1" fill="#000" fill-rule="nonzero"/>
        <g stroke-opacity=".1" stroke="#000" stroke-width="3" transform="matrix(-1 0 0 1 380 -21)">
          <circle cx="18" cy="18" r="18"/>
          <path d="M47.747 26.724L42 25M40.184 38.71l-4.596-3.856M27.434 46.638L25.382 41" stroke-linecap="round"/>
        </g>
        <path d="M55.726 22.476a9.18 9.18 0 0 1 6.544-2.742c.237 0 .521 0 .759.048.9-1.924 2.228-3.511 3.888-4.666A11.494 11.494 0 0 1 73.555 13a11.49 11.49 0 0 1 7.587 2.838 12.05 12.05 0 0 1 3.746 6.205 8.147 8.147 0 0 1 4.741 2.357A8.278 8.278 0 0 1 92 30.22c0 2.261-.9 4.33-2.37 5.82-1.47 1.54-3.51 2.454-5.786 2.454H62.27c-2.56 0-4.837-1.059-6.544-2.742a9.448 9.448 0 0 1-2.702-6.638c0-2.598 1.043-4.906 2.702-6.638zm1.897 11.544a6.73 6.73 0 0 0 4.79 2.02h21.431a5.62 5.62 0 0 0 4.03-1.683 5.785 5.785 0 0 0 1.66-4.089c0-1.635-.616-3.078-1.66-4.088a5.62 5.62 0 0 0-4.03-1.684c-.19 0-.426-.048-.569-.144a1.182 1.182 0 0 1-.521-.818c-.332-2.26-1.47-4.28-3.082-5.676a9.246 9.246 0 0 0-6.022-2.26c-1.944 0-3.746.625-5.263 1.683-1.138.818-2.134 1.876-2.798 3.175.19.096.38.144.57.24 1.184.53 2.228 1.347 3.129 2.31.426.528.379 1.298-.095 1.73-.522.434-1.28.386-1.707-.095a7.977 7.977 0 0 0-2.276-1.732 6.812 6.812 0 0 0-2.798-.625c-1.896 0-3.556.77-4.789 2.02a6.926 6.926 0 0 0-1.991 4.858c0 1.876.758 3.608 1.991 4.858zM292.297 12.476a9.18 9.18 0 0 0-6.543-2.742c-.237 0-.522 0-.759.048-.9-1.924-2.228-3.511-3.888-4.666A11.494 11.494 0 0 0 274.469 3a11.49 11.49 0 0 0-7.587 2.838 12.05 12.05 0 0 0-3.746 6.205 8.147 8.147 0 0 0-4.741 2.357 8.278 8.278 0 0 0-2.371 5.82c0 2.261.9 4.33 2.37 5.82 1.47 1.54 3.51 2.454 5.785 2.454h21.575c2.56 0 4.836-1.059 6.543-2.742A9.448 9.448 0 0 0 295 19.114c0-2.598-1.043-4.906-2.703-6.638zm-1.896 11.544a6.73 6.73 0 0 1-4.79 2.02H264.18a5.62 5.62 0 0 1-4.03-1.683 5.785 5.785 0 0 1-1.66-4.089c0-1.635.617-3.078 1.66-4.088a5.62 5.62 0 0 1 4.03-1.684c.19 0 .427-.048.57-.144.284-.193.473-.481.52-.818.333-2.26 1.47-4.28 3.083-5.676a9.246 9.246 0 0 1 6.022-2.26c1.944 0 3.746.625 5.263 1.683 1.138.818 2.134 1.876 2.798 3.175-.19.096-.38.144-.57.24-1.185.53-2.228 1.347-3.129 2.31-.427.528-.38 1.298.095 1.73.522.434 1.28.386 1.707-.095a7.977 7.977 0 0 1 2.276-1.732 6.812 6.812 0 0 1 2.798-.625c1.896 0 3.556.77 4.789 2.02a6.926 6.926 0 0 1 1.991 4.858 6.926 6.926 0 0 1-1.991 4.858z" fill-opacity=".1" fill="#000" fill-rule="nonzero"/>
      </g>
    </g>
    <path fill-opacity=".2" fill="#000" d="M0 86h360v2H0zM0 0h360v2H0z"/>
  </g>
</svg>
