<svg width="160" height="160" viewBox="0 0 160 160" xmlns="http://www.w3.org/2000/svg"><g fill="none" fill-rule="evenodd"><rect fill="#F5F5F5" width="160" height="160" rx="8"/><g fill-rule="nonzero"><path fill="#E9E9E9" d="M38.23 64.93h84.14v52.98H38.23z"/><path d="M38.23 75.83a15.1 15.1 0 005.85 1.18c4.76 0 9.23-2.28 12.07-5.98C59 74.73 63.45 77 68.23 77c4.77 0 9.23-2.28 12.07-5.98 2.84 3.7 7.3 5.98 12.08 5.98 4.77 0 9.23-2.28 12.07-5.98 2.84 3.7 7.31 5.98 12.08 5.98 2.07 0 4.04-.42 5.84-1.18v-10.9H38.23v10.9z" fill="#D5D5D5"/><path d="M128.6 61.81a12.08 12.08 0 01-23 5.15c-.47-1-1.83-1-2.3 0a12.08 12.08 0 01-21.85 0c-.47-1-1.83-1-2.3 0a12.08 12.08 0 01-21.85 0c-.47-1-1.83-1-2.3 0a12.08 12.08 0 01-23-5.15l11.57-20.24a3.12 3.12 0 012.7-1.57h68.06c1.12 0 2.15.6 2.7 1.57l11.57 20.24z" fill="#D9D9D9"/><path d="M114.33 40H46.27c-1.11 0-2.15.6-2.7 1.57L32 61.81h96.6l-11.56-20.24a3.12 3.12 0 00-2.71-1.57z" fill="#E5E5E5"/><path d="M95.88 82.07v35.84h18.7V82.07c0-.86-.7-1.56-1.56-1.56H97.44c-.86 0-1.56.7-1.56 1.56z" fill="#FFF"/><path d="M125.49 119.46H35.12a1.56 1.56 0 110-3.11h90.37a1.56 1.56 0 110 3.11z" fill="#E2E2E2"/><path d="M86.53 110.12H47.58c-.86 0-1.56-.7-1.56-1.56v-26.5c0-.85.7-1.55 1.56-1.55h38.95c.87 0 1.56.7 1.56 1.56v26.49c0 .86-.7 1.56-1.56 1.56z" fill="#FFF"/><g fill="#F8F8F8"><path d="M66.28 107H84.2c.43 0 .78-.35.78-.78V88.3L66.28 107zM56.93 107L80.3 83.63h-5.14L51.79 107zM69.66 83.63H49.92a.78.78 0 00-.78.78v19.74l20.52-20.52zM111.46 86.37V84.4a.78.78 0 00-.77-.78H99.78a.78.78 0 00-.78.78v14.42l12.46-12.46zM99 105.44v2.34c0 .43.35.78.78.78h10.9c.44 0 .78-.35.78-.78v-14.8L99 105.44z"/></g></g></g></svg>