<svg width="65" height="64" viewBox="0 0 65 64" fill="none" xmlns="http://www.w3.org/2000/svg">
<path d="M37.4999 44.375C37.4999 47.4766 35.053 50 32.0454 50C29.0377 50 26.5908 47.4766 26.5908 44.375C26.5908 41.2734 29.0377 38.75 32.0454 38.75C35.053 38.75 37.4999 41.2734 37.4999 44.375ZM27.2222 15.7718L28.1495 34.8968C28.193 35.7949 28.9118 36.5 29.7838 36.5H34.307C35.1789 36.5 35.8977 35.7949 35.9413 34.8968L36.8685 15.7718C36.9153 14.8079 36.1701 14 35.2342 14H28.8565C27.9206 14 27.1755 14.8079 27.2222 15.7718Z" fill="#0878C8"/>
</svg>
