<svg width="200" height="200" viewBox="0 0 200 200" xmlns="http://www.w3.org/2000/svg"><g transform="translate(0 25)" fill="none" fill-rule="evenodd"><path fill="#F2F2F2" fill-rule="nonzero" d="M38.673 6.103h80.549v67.562H38.673z"/><path d="M140.16 116.476s1.83 6.636 1.83 7.551c0 .916 2.976.687 2.976.687l2.288-3.661s-1.83-3.662-2.288-5.492c-.458-1.831-4.806.915-4.806.915z" fill="#FBBEBE" fill-rule="nonzero"/><path d="M143.593 122.654s2.746.687 2.746-1.373c0-2.059 1.144-1.144 1.144-1.144s2.746 1.602 1.602 3.204-3.204 3.432-3.89 5.034c-.687 1.602-2.746 5.95-5.035 5.035-2.288-.916-.686-2.975-.686-2.975s1.83-2.746 1.373-5.035c-.458-2.288-.687-3.432 0-3.432.686 0 1.83-.687 1.83.229 0 .915.916.457.916.457z" fill="#2F2E41" fill-rule="nonzero"/><circle fill="#2F2E41" fill-rule="nonzero" cx="143.478" cy="28.947" r="8.696"/><circle fill="#2F2E41" fill-rule="nonzero" cx="142.563" cy="21.625" r="7.78"/><path fill="#3F3D56" fill-rule="nonzero" d="M138.444 67.62l-4.577-.458-1.868-4.57.266-4.125h6.179z"/><path fill="#000" fill-rule="nonzero" opacity=".1" d="M138.444 67.62l-4.577-.458-1.868-4.57.266-4.125h6.179z"/><path d="M138.787 34.783s-.229 5.72-1.144 6.407c-.915.686 1.373 3.432 1.373 3.432l3.661-.915 2.746-2.517-1.144-.229s0-3.204.687-4.119c.686-.915-6.179-2.06-6.179-2.06z" fill="#FBBEBE" fill-rule="nonzero"/><path d="M138.787 34.783s-.229 5.72-1.144 6.407c-.915.686 1.373 3.432 1.373 3.432l3.661-.915 2.746-2.517-1.144-.229s0-3.204.687-4.119c.686-.915-6.179-2.06-6.179-2.06z" fill="#000" fill-rule="nonzero" opacity=".1"/><path d="M132.38 57.208s2.288 5.95 1.83 10.984c-.457 5.035 10.298.687 10.298.687l3.204-2.06s.915-6.178 0-7.551c-.916-1.373-2.746-6.179-2.746-6.179l-4.806-.686-7.78 4.805zM170.856 83.476s3.902-4.313 4.555-4.728c.653-.415-.859-2.432-.859-2.432l-3.648.028s-1.78 2.964-2.879 4.12c-1.097 1.157 2.831 3.012 2.831 3.012z" fill="#FBBEBE" fill-rule="nonzero"/><path d="M173.706 78.228s-.755-2.269-2.224-1.335c-1.468.933-1.334-.298-1.334-.298s-.102-2.684 1.558-2.594c1.661.09 3.9.729 5.353.492 1.454-.236 5.487-.738 5.872 1.308.384 2.047-1.81 1.838-1.81 1.838s-2.788-.06-4.212 1.303c-1.425 1.363-2.137 2.045-2.448 1.555-.311-.49-1.32-.994-.666-1.409.652-.414-.089-.86-.089-.86z" fill="#2F2E41" fill-rule="nonzero"/><path d="M136.27 38.902s-2.746-1.602-3.432-6.179c-.687-4.577-5.492-20.595-5.492-20.595s-3.204-10.984-4.348-7.323c-1.144 3.662 1.373 7.78 1.373 7.78l3.203 14.875s2.746 19.222 4.12 20.137c1.372.916 4.576-8.695 4.576-8.695zM147.413 39.79s3.18-.034 6.039-3.673c2.86-3.638 14.956-15.186 14.956-15.186s8.216-7.963 7.4-4.215c-.816 3.748-5.04 6.084-5.04 6.084l-10.14 11.345s-11.89 15.35-13.536 15.467c-1.646.116.321-9.822.321-9.822z" fill="#FBBEBE" fill-rule="nonzero"/><circle fill="#FBBEBE" fill-rule="nonzero" cx="142.677" cy="32.723" r="5.721"/><path d="M148.118 63.218s-7.958 5.66-10.933 4.745c-2.974-.915-3.432-1.601-3.432-1.601s-2.746 18.764-.687 26.087c0 0 .23 7.322 2.289 10.068l4.805 15.79s5.263-.23 5.263-2.06c0 0-.686-3.89-.686-6.636S141.076 100 141.076 100l2.517-19.222s9.61 19.222 13.5 17.849c3.891-1.373 14.875-15.79 14.875-15.79l-3.433-3.203s-9.61 5.72-10.755 8.696c0 0-7.653-23.45-9.662-25.112z" fill="#2F2E41" fill-rule="nonzero"/><path d="M141.99 41.876s2.976-2.288 3.433-2.288h2.975s2.288 5.492 1.373 7.78c0 0-1.144 5.95-1.373 6.408-.229.457 0 1.83.458 3.203.458 1.373 1.83 4.348 1.144 5.035-.686.686-1.373 2.517-1.83 2.517-.458 0-4.12-3.433-4.806-5.72-.687-2.29-.687-2.976-2.288-2.06-1.602.915-8.696.457-8.238 4.119a51.78 51.78 0 00.915 5.492s-2.746.915-3.204-3.433c-.457-4.348-.915-4.577.458-6.178 1.373-1.602-.458-8.238-.458-8.238s2.289-3.89 2.746-5.95c.458-2.06 2.289-4.12 2.289-4.12s1.144-.686 1.83-.228c.687.458 1.054.229 1.054.229s-1.283 3.204.09 3.204 3.433.228 3.433.228z" fill="#3F3D56" fill-rule="nonzero"/><circle fill="#000" fill-rule="nonzero" opacity=".1" cx="138.558" cy="66.018" r="1"/><ellipse fill="#2F2E41" fill-rule="nonzero" cx="143.249" cy="27.574" rx="6.865" ry="4.348"/><ellipse fill="#2F2E41" fill-rule="nonzero" cx="25.858" cy="44.05" rx="9.611" ry="13.043"/><path d="M28.268 52.31s3.883-3.797 4.34-5.17c.458-1.373 5.95-24.714 5.95-24.714s4.577-13.044 6.637-9.84c2.059 3.203-3.433 10.755-3.433 10.755s-1.373 14.416-2.288 17.849c-.916 3.432-4.12 16.247-6.179 17.62l-2.06 4.12-2.288.457-2.06-5.721.23-2.288 1.15-3.067zM39.703 113.043s5.492 1.602 6.178.687c.687-.915 3.204 4.577 3.204 4.577v2.06l-2.289.457s-6.865-2.975-8.009-2.975c-1.144 0 .916-4.806.916-4.806z" fill="#A0616A" fill-rule="nonzero"/><path d="M46.796 116.476s-3.203-2.746-2.517-3.204c.687-.457 3.433-3.661 4.806-1.83 1.373 1.83 7.551 11.899 5.95 14.187-1.603 2.289-2.747.916-2.747.916s-4.256-5.721-5.903-5.721c0 0 2.242-2.517.411-4.348z" fill="#2F2E41" fill-rule="nonzero"/><path d="M23.913 133.638s.229 7.552-1.83 9.84c-2.06 2.289 2.745 1.83 2.745 1.83l5.035-3.432s-1.373-3.66-.916-7.093l-5.034-1.145z" fill="#A0616A" fill-rule="nonzero"/><path d="M29.863 140.046s-.458-.458-1.602.915c-1.144 1.373-3.433 2.975-4.806 1.602-1.373-1.373-1.373-.229-1.373-.229s-2.974 4.806-5.492 5.492c-2.517.687-.686 2.975 1.602 2.06 2.289-.916 13.501-4.806 13.501-4.806s-.228-3.204-1.83-5.034z" fill="#2F2E41" fill-rule="nonzero"/><path d="M13.158 79.176L9.725 84.44s-8.466 6.637-4.119 7.323c4.348.687 6.865-6.178 6.865-6.178l2.975-3.662-2.288-2.746z" fill="#A0616A" fill-rule="nonzero"/><path d="M12.014 78.26s3.89 5.722 5.72 6.18c1.831.457 1.145-4.348 1.145-4.348l-6.865-1.831z" fill="#166DFF" fill-rule="nonzero"/><path d="M12.014 78.26s3.89 5.722 5.72 6.18c1.831.457 1.145-4.348 1.145-4.348l-6.865-1.831z" fill="#000" fill-rule="nonzero" opacity=".1"/><path d="M17.048 77.803l.687 11.9s-2.518 17.62 1.373 21.739c0 0 2.288 6.178 2.288 8.466 0 2.289 1.602 16.019 1.602 16.019h6.636s1.373-18.993-2.288-24.943V78.49l-10.298-.687z" fill="#2F2E41" fill-rule="nonzero"/><path d="M16.935 101.385c.033 4.197.535 8.323 2.173 10.057 0 0 2.288 6.178 2.288 8.466 0 2.289 1.602 16.019 1.602 16.019h6.636s1.373-18.993-2.288-24.943v-8.497" fill="#000" fill-rule="nonzero" opacity=".1"/><path d="M24.142 80.55l-6.865 18.077s-4.12 15.56.915 17.162c5.035 1.602 18.078 1.145 20.138 2.746 2.059 1.602 3.203-4.805 2.517-5.492-.687-.686-11.67-4.347-16.247-4.347 0 0 12.128-16.476 9.153-20.138-2.975-3.661-7.094-8.238-9.611-8.009z" fill="#2F2E41" fill-rule="nonzero"/><path d="M22.54 45.767s.229 6.178-.915 6.407c-.94.23-1.858.535-2.746.915v3.433l1.83 1.144 4.577-2.746 1.83-1.602 1.831-1.602s-1.144-3.203 0-5.263l-6.407-.686z" fill="#A0616A" fill-rule="nonzero"/><path d="M22.54 45.767s.229 6.178-.915 6.407c-.94.23-1.858.535-2.746.915v3.433l1.83 1.144 4.577-2.746 1.83-1.602 1.831-1.602s-1.144-3.203 0-5.263l-6.407-.686z" fill="#000" fill-rule="nonzero" opacity=".1"/><path d="M21.625 55.606s3.89-3.66 4.805-3.432c.916.229 3.547-1.488 3.547-1.488a29.505 29.505 0 00-1.03 5.378c-.124 1.487.155 2.304.437 2.739.327.49.592 1.02.79 1.575.378 1.107 1.08 2.444 1.977.95 0 0-.458 2.516-.915 9.839-.458 7.323 2.06 12.357 2.06 12.357s2.059 5.492 1.143 6.636c0 0-7.093-4.576-6.636-6.636 0 0-16.476-2.288-16.476-5.263a5.224 5.224 0 012.289-4.348c.153-1.402.46-2.784.915-4.119 0 0-2.517-5.263-.229-9.61 0 0-2.06-5.95.687-7.324 2.746-1.373 6.178-.686 6.178-.686s-3.204 2.06-1.144 3.204l1.602.228z" fill="#166DFF" fill-rule="nonzero"/><circle fill="#A0616A" fill-rule="nonzero" cx="25.973" cy="42.792" r="5.721"/><ellipse fill="#2F2E41" fill-rule="nonzero" cx="26.43" cy="39.359" rx="6.293" ry="3.318"/><circle fill="#2F2E41" fill-rule="nonzero" cx="18.993" cy="33.295" r="1.831"/><circle fill="#2F2E41" fill-rule="nonzero" cx="32.723" cy="33.295" r="1.831"/><path d="M0 150.229h194.788M43.707.114h80.549v67.562H43.707z" stroke="#3F3D56" stroke-width=".533"/><path d="M98.903 27.595l-8.458-1.288-3.765-7.726A1.853 1.853 0 0085 17.5c-.72 0-1.375.422-1.68 1.081l-3.765 7.726-8.458 1.288c-1.506.176-2.143 2.107-1.043 3.16l6.14 6.03-1.447 8.545c-.29 1.522 1.332 2.692 2.664 1.931L85 43.281l7.589 3.98c1.332.761 2.954-.41 2.664-1.931l-1.448-8.546 6.14-6.028c1.101-1.054.464-2.985-1.042-3.161zm-8.415 7.811L91.796 43l-6.82-3.563L78.205 43l1.261-7.594L74 30.016l7.567-1.125L84.977 22l3.41 6.938L96 30.015l-5.512 5.39z" fill="#166DFF" fill-rule="nonzero"/><path d="M184.586 121.81a4.763 4.763 0 10.634-9.133l.12 2.451-1.16-2.1a4.745 4.745 0 00-2.445 2.682 4.762 4.762 0 002.851 6.1z" fill="#57B894" fill-rule="nonzero"/><path d="M190.325 150.242c-.41-2.085 1.364-3.933 3.116-5.134 1.753-1.202 3.8-2.382 4.398-4.42.86-2.93-1.7-5.614-3.692-7.928a28.673 28.673 0 01-3.781-5.62c-.415-.808-.796-1.653-.905-2.555-.157-1.298.26-2.59.68-3.83 1.401-4.126 2.898-8.219 4.492-12.277" stroke="#3F3D56" stroke-width=".533"/><path d="M184.782 121.18a4.763 4.763 0 10.634-9.134l.12 2.451-1.16-2.1a4.745 4.745 0 00-2.445 2.682 4.762 4.762 0 002.851 6.1h0z" stroke="#3F3D56" stroke-width=".533"/><path d="M189.742 107.632a4.757 4.757 0 013.428-3.02l.392 2.33.727-2.447a4.762 4.762 0 11-4.547 3.137z" fill="#57B894" fill-rule="nonzero"/><path d="M190.004 106.79a4.757 4.757 0 013.428-3.02l.392 2.33.727-2.447a4.762 4.762 0 11-4.547 3.137h0z" stroke="#3F3D56" stroke-width=".533"/><path d="M193.31 132.807a4.762 4.762 0 004.216-8.472l-.559 1.881-.396-2.358a4.762 4.762 0 10-3.26 8.949z" fill="#57B894" fill-rule="nonzero"/><path d="M193.537 131.955a4.762 4.762 0 004.215-8.472l-.558 1.88-.397-2.357a4.762 4.762 0 10-3.26 8.949h0z" stroke="#3F3D56" stroke-width=".533"/><path d="M188.353 140.716a4.76 4.76 0 10.917-3.729l2.122 3.194-2.899-1.695a4.718 4.718 0 00-.14 2.23z" fill="#57B894" fill-rule="nonzero"/><path d="M188.549 140.085a4.76 4.76 0 10.918-3.73l2.121 3.195-2.899-1.696a4.718 4.718 0 00-.14 2.231z" stroke="#3F3D56" stroke-width=".533"/></g></svg>