<svg width="192" height="108" viewBox="0 0 192 108" fill="none" xmlns="http://www.w3.org/2000/svg">
<rect width="192" height="108" rx="8" fill="#F1F1F1"/>
<path d="M0 8C0 3.58172 3.58172 0 8 0H184C188.418 0 192 3.58172 192 8V18H0V8Z" fill="black" fill-opacity="0.1"/>
<rect x="16" y="34" width="58" height="58" rx="4" fill="black" fill-opacity="0.05"/>
<path d="M45.0008 43.8C42.1385 43.8 39.9568 44.7766 38.4383 46.6118C37.0722 48.2628 36.2663 50.5851 36.0008 53.4C35.7226 56.3504 36.1031 58.5863 37.3133 60.1883C38.7085 62.0348 41.2005 63 45.0008 63C48.7945 63 51.2861 62.0244 52.6828 60.1649C53.8891 58.5585 54.2716 56.3247 54.0008 53.4C53.7363 50.543 52.933 48.2186 51.5635 46.5751C50.0509 44.7602 47.8719 43.8 45.0008 43.8ZM45.0004 65.9C52.1594 65.9 57.1006 69.5507 60.1569 75.2529C61.9405 78.5808 59.3232 82.2 55.518 82.2H34.4827C30.6776 82.2 28.0603 78.5808 29.8438 75.2529C32.9 69.5508 37.8413 65.9 45.0004 65.9Z" fill="black" fill-opacity="0.15"/>
<rect x="90" y="37" width="86" height="12" rx="6" fill="black" fill-opacity="0.05"/>
<rect x="90" y="57" width="86" height="12" rx="6" fill="black" fill-opacity="0.05"/>
<rect x="90" y="77" width="54" height="12" rx="6" fill="black" fill-opacity="0.05"/>
</svg>
