<svg width="192" height="108" viewBox="0 0 192 108" fill="none" xmlns="http://www.w3.org/2000/svg">
<rect width="192" height="108" rx="8" fill="#F1F1F1"/>
<path d="M16 20C16 17.7909 17.7909 16 20 16H28C30.2091 16 32 17.7909 32 20V30C32 32.2091 30.2091 34 28 34H20C17.7909 34 16 32.2091 16 30V20Z" fill="black" fill-opacity="0.1"/>
<path d="M36 20C36 17.7909 37.7909 16 40 16H48C50.2091 16 52 17.7909 52 20V30C52 32.2091 50.2091 34 48 34H40C37.7909 34 36 32.2091 36 30V20Z" fill="black" fill-opacity="0.1"/>
<path d="M56 20C56 17.7909 57.7909 16 60 16H84C86.2091 16 88 17.7909 88 20V30C88 32.2091 86.2091 34 84 34H60C57.7909 34 56 32.2091 56 30V20Z" fill="black" fill-opacity="0.1"/>
<path d="M92 20C92 17.7909 93.7909 16 96 16H112C114.209 16 116 17.7909 116 20V30C116 32.2091 114.209 34 112 34H96C93.7909 34 92 32.2091 92 30V20Z" fill="black" fill-opacity="0.1"/>
<path d="M120 20C120 17.7909 121.791 16 124 16H128C130.209 16 132 17.7909 132 20V30C132 32.2091 130.209 34 128 34H124C121.791 34 120 32.2091 120 30V20Z" fill="black" fill-opacity="0.1"/>
<path d="M136 20C136 17.7909 137.791 16 140 16H144C146.209 16 148 17.7909 148 20V30C148 32.2091 146.209 34 144 34H140C137.791 34 136 32.2091 136 30V20Z" fill="black" fill-opacity="0.1"/>
<path d="M152 20C152 17.7909 153.791 16 156 16H172C174.209 16 176 17.7909 176 20V30C176 32.2091 174.209 34 172 34H156C153.791 34 152 32.2091 152 30V20Z" fill="black" fill-opacity="0.1"/>
<rect x="16" y="60" width="160" height="12" rx="6" fill="black" fill-opacity="0.05"/>
<rect x="16" y="80" width="54" height="12" rx="6" fill="black" fill-opacity="0.05"/>
<rect x="82" y="80" width="94" height="12" rx="6" fill="black" fill-opacity="0.05"/>
</svg>
