<svg width="375" height="366" viewBox="0 0 375 366" fill="none" xmlns="http://www.w3.org/2000/svg">
<rect width="375" height="366" fill="#E5E5E5"/>
<g clip-path="url(#clip0)">
<rect width="375" height="812" transform="translate(0 -328)" fill="white"/>
<path d="M303.978 138.637C303.978 70.6765 248.885 15.5833 180.925 15.5833C112.964 15.5833 57.8711 70.6765 57.8711 138.637V242.946C57.8711 310.907 112.964 366 180.925 366C248.885 366 303.978 310.907 303.978 242.946V138.637Z" fill="#F6F9FF"/>
<path d="M77.7182 108.207C77.7182 108.207 87.0863 98.5235 88.7277 86.9437C90.3691 75.3639 100.853 72.6166 108.019 74.8184C115.185 77.0203 121.811 97.0773 139.476 96.9722C157.142 96.8671 186.882 82.535 187.983 78.6767C189.084 74.8184 190.741 67.6674 202.866 66.001C214.991 64.3346 215.542 52.7698 233.182 52.7698C250.822 52.7698 281.874 55.7273 284.631 56.8282C287.389 57.9292 300.415 59.7607 303.147 75.0336C303.147 75.0336 305.364 81.4591 301.506 99.6345C297.648 117.81 324.656 129.39 331.272 129.39C337.887 129.39 357.179 170.179 335.68 204.904C314.182 239.628 316.939 252.854 294.34 239.078C271.74 225.301 273.947 239.628 271.74 225.296C269.533 210.964 258.514 218.68 255.226 210.964C251.938 203.247 263.493 187.814 255.777 184.506C248.06 181.199 228.753 187.264 224.91 167.422C221.067 147.58 197.346 171.28 208.396 189.471C219.445 207.661 196.27 193.879 196.27 204.904C196.27 215.928 183.044 224.745 189.655 233.012C196.265 241.279 213.36 287.584 160.444 286.478C107.529 285.372 137.289 295.851 126.27 296.952C115.251 298.053 109.135 283.17 91.495 283.17C73.8548 283.17 13.2276 279.867 14.879 253.41C16.5305 226.952 32.4342 231.891 32.199 208.762C31.9638 185.632 5.28075 158.875 45.6305 134.484C85.9803 110.093 77.7182 108.207 77.7182 108.207Z" fill="#E2EEFF"/>
<path d="M72.4984 46.9648H-12.8201V246.219H72.4984V46.9648Z" fill="url(#paint0_linear)"/>
<path d="M32.1989 82.5998C39.617 82.5998 45.6305 76.5864 45.6305 69.1684C45.6305 61.7505 39.617 55.7371 32.1989 55.7371C24.7809 55.7371 18.7673 61.7505 18.7673 69.1684C18.7673 76.5864 24.7809 82.5998 32.1989 82.5998Z" fill="#E2EEFF"/>
<path d="M41.1016 96.9722H-2.45095C-3.72782 96.9722 -4.76294 98.0073 -4.76294 99.2841V99.9897C-4.76294 101.267 -3.72782 102.302 -2.45095 102.302H41.1016C42.3785 102.302 43.4136 101.267 43.4136 99.9897V99.2841C43.4136 98.0073 42.3785 96.9722 41.1016 96.9722Z" fill="#E2EEFF"/>
<path d="M64.2516 96.9722H56.9853C55.7085 96.9722 54.6733 98.0073 54.6733 99.2841V99.9897C54.6733 101.267 55.7085 102.302 56.9853 102.302H64.2516C65.5285 102.302 66.5636 101.267 66.5636 99.9897V99.2841C66.5636 98.0073 65.5285 96.9722 64.2516 96.9722Z" fill="#E2EEFF"/>
<path d="M26.2588 108.207H-2.45095C-3.72782 108.207 -4.76294 109.242 -4.76294 110.519V111.224C-4.76294 112.501 -3.72782 113.536 -2.45095 113.536H26.2588C27.5357 113.536 28.5708 112.501 28.5708 111.224V110.519C28.5708 109.242 27.5357 108.207 26.2588 108.207Z" fill="#E2EEFF"/>
<path d="M64.2464 108.207H62.9253C61.6484 108.207 60.6133 109.242 60.6133 110.519V111.224C60.6133 112.501 61.6484 113.536 62.9253 113.536H64.2464C65.5233 113.536 66.5584 112.501 66.5584 111.224V110.519C66.5584 109.242 65.5233 108.207 64.2464 108.207Z" fill="#E2EEFF"/>
<path d="M46.5612 120.692H-2.03566C-3.31254 120.692 -4.34766 121.727 -4.34766 123.004V123.71C-4.34766 124.987 -3.31254 126.022 -2.03566 126.022H46.5612C47.8381 126.022 48.8732 124.987 48.8732 123.71V123.004C48.8732 121.727 47.8381 120.692 46.5612 120.692Z" fill="#E2EEFF"/>
<path d="M64.6619 120.692H60.7585C59.4817 120.692 58.4465 121.727 58.4465 123.004V123.71C58.4465 124.987 59.4817 126.022 60.7585 126.022H64.6619C65.9388 126.022 66.9739 124.987 66.9739 123.71V123.004C66.9739 121.727 65.9388 120.692 64.6619 120.692Z" fill="#E2EEFF"/>
<path d="M37.9738 131.822H-2.03567C-3.31254 131.822 -4.34766 132.857 -4.34766 134.133V134.839C-4.34766 136.116 -3.31254 137.151 -2.03567 137.151H37.9738C39.2507 137.151 40.2858 136.116 40.2858 134.839V134.133C40.2858 132.857 39.2507 131.822 37.9738 131.822Z" fill="#E2EEFF"/>
<path d="M64.6669 131.822H57.4006C56.1237 131.822 55.0886 132.857 55.0886 134.133V134.839C55.0886 136.116 56.1237 137.151 57.4006 137.151H64.6669C65.9438 137.151 66.9789 136.116 66.9789 134.839V134.133C66.9789 132.857 65.9438 131.822 64.6669 131.822Z" fill="#E2EEFF"/>
<path d="M19.9533 143.472H-2.03566C-3.31254 143.472 -4.34766 144.507 -4.34766 145.784V146.489C-4.34766 147.766 -3.31254 148.801 -2.03566 148.801H19.9533C21.2302 148.801 22.2653 147.766 22.2653 146.489V145.784C22.2653 144.507 21.2302 143.472 19.9533 143.472Z" fill="#E2EEFF"/>
<path d="M64.6667 143.472H52.8816C51.6047 143.472 50.5696 144.507 50.5696 145.784V146.489C50.5696 147.766 51.6047 148.801 52.8816 148.801H64.6667C65.9436 148.801 66.9787 147.766 66.9787 146.489V145.784C66.9787 144.507 65.9436 143.472 64.6667 143.472Z" fill="#E2EEFF"/>
<path d="M36.9129 154.706H-2.03566C-3.31254 154.706 -4.34766 155.741 -4.34766 157.018V157.724C-4.34766 159 -3.31254 160.036 -2.03566 160.036H36.9129C38.1898 160.036 39.2249 159 39.2249 157.724V157.018C39.2249 155.741 38.1898 154.706 36.9129 154.706Z" fill="#E2EEFF"/>
<path d="M64.6669 154.706H57.4006C56.1237 154.706 55.0886 155.741 55.0886 157.018V157.724C55.0886 159 56.1237 160.036 57.4006 160.036H64.6669C65.9438 160.036 66.9789 159 66.9789 157.724V157.018C66.9789 155.741 65.9438 154.706 64.6669 154.706Z" fill="#E2EEFF"/>
<path d="M215.807 239.238C214.253 236.357 213.645 233.06 214.07 229.815C214.495 226.57 215.931 223.541 218.174 221.157C221.342 217.784 223.919 213.406 223.709 208.196C223.208 195.185 235.679 190.506 237.761 196.231C239.843 201.956 238.802 221.753 247.124 223.289C255.446 224.825 267.942 234.298 258.053 246.218C248.165 258.139 244.006 239.418 248.165 258.154C252.324 276.889 228.393 292.312 222.643 278.09C216.893 263.868 199.253 268.903 211.719 259.194C220.046 252.704 218.98 245.163 215.807 239.238Z" fill="#E2EEFF"/>
<path d="M272.371 86.9537L273.742 85.5024" stroke="white" stroke-width="0.34182" stroke-miterlimit="10" stroke-linecap="round"/>
<path d="M275.924 83.1954C277.956 81.0386 280.663 78.1511 283.52 75.0835" stroke="white" stroke-width="0.34182" stroke-miterlimit="10" stroke-linecap="round" stroke-dasharray="2.17 2.17"/>
<path d="M284.601 73.9175L285.962 72.4463" stroke="white" stroke-width="0.34182" stroke-miterlimit="10" stroke-linecap="round"/>
<path d="M285.962 75.0386C288.085 75.0386 289.806 73.3179 289.806 71.1953C289.806 69.0727 288.085 67.3521 285.962 67.3521C283.84 67.3521 282.119 69.0727 282.119 71.1953C282.119 73.3179 283.84 75.0386 285.962 75.0386Z" fill="white"/>
<path d="M267.952 94.9253C270.075 94.9253 271.795 93.2046 271.795 91.082C271.795 88.9594 270.075 87.2388 267.952 87.2388C265.829 87.2388 264.109 88.9594 264.109 91.082C264.109 93.2046 265.829 94.9253 267.952 94.9253Z" fill="white"/>
<path d="M78.9241 189.21C78.9241 189.21 79.1193 188.545 79.5947 187.329" stroke="white" stroke-width="0.34182" stroke-miterlimit="10" stroke-linecap="round"/>
<path d="M81.2161 183.646C88.8777 167.662 118.823 121.928 214.541 108.732" stroke="white" stroke-width="0.34182" stroke-miterlimit="10" stroke-linecap="round" stroke-dasharray="2.74 2.74"/>
<path d="M216.543 108.462L218.544 108.207" stroke="white" stroke-width="0.34182" stroke-miterlimit="10" stroke-linecap="round"/>
<path d="M75.0508 193.329C75.0508 193.329 75.4161 193.944 76.0867 195.035" stroke="white" stroke-width="0.34182" stroke-miterlimit="10" stroke-linecap="round"/>
<path d="M78.3186 198.598C84.1787 207.826 96.9497 226.787 108.53 236.27" stroke="white" stroke-width="0.34182" stroke-miterlimit="10" stroke-linecap="round" stroke-dasharray="2.88 2.88"/>
<path d="M110.191 237.581C110.736 237.992 111.282 238.377 111.822 238.732" stroke="white" stroke-width="0.34182" stroke-miterlimit="10" stroke-linecap="round"/>
<path d="M75.0509 209.933C84.539 209.933 92.2307 202.241 92.2307 192.753C92.2307 183.265 84.539 175.574 75.0509 175.574C65.5628 175.574 57.8711 183.265 57.8711 192.753C57.8711 202.241 65.5628 209.933 75.0509 209.933Z" stroke="white" stroke-width="1.36728" stroke-miterlimit="10"/>
<path d="M75.0507 200.145C78.815 200.145 81.8666 197.093 81.8666 193.329C81.8666 189.564 78.815 186.513 75.0507 186.513C71.2864 186.513 68.2349 189.564 68.2349 193.329C68.2349 197.093 71.2864 200.145 75.0507 200.145Z" fill="white"/>
<path d="M249.316 123.355C258.804 123.355 266.496 115.663 266.496 106.175C266.496 96.6869 258.804 88.9954 249.316 88.9954C239.828 88.9954 232.136 96.6869 232.136 106.175C232.136 115.663 239.828 123.355 249.316 123.355Z" stroke="white" stroke-width="1.36728" stroke-miterlimit="10"/>
<path d="M249.316 113.571C253.08 113.571 256.132 110.52 256.132 106.755C256.132 102.991 253.08 99.9397 249.316 99.9397C245.552 99.9397 242.5 102.991 242.5 106.755C242.5 110.52 245.552 113.571 249.316 113.571Z" fill="white"/>
<path d="M224.755 111.474C226.877 111.474 228.598 109.754 228.598 107.631C228.598 105.509 226.877 103.788 224.755 103.788C222.632 103.788 220.911 105.509 220.911 107.631C220.911 109.754 222.632 111.474 224.755 111.474Z" fill="white"/>
<path d="M111.823 242.581C113.945 242.581 115.666 240.86 115.666 238.737C115.666 236.615 113.945 234.894 111.823 234.894C109.7 234.894 107.979 236.615 107.979 238.737C107.979 240.86 109.7 242.581 111.823 242.581Z" fill="white"/>
<path d="M162.921 238.737H122.767C122.128 238.737 121.611 239.255 121.611 239.893V240.243C121.611 240.882 122.128 241.399 122.767 241.399H162.921C163.56 241.399 164.077 240.882 164.077 240.243V239.893C164.077 239.255 163.56 238.737 162.921 238.737Z" fill="#F6F9FF"/>
<path d="M162.921 246.219H122.767C122.128 246.219 121.611 246.736 121.611 247.375V247.725C121.611 248.363 122.128 248.881 122.767 248.881H162.921C163.56 248.881 164.077 248.363 164.077 247.725V247.375C164.077 246.736 163.56 246.219 162.921 246.219Z" fill="#F6F9FF"/>
<path d="M162.921 255.647H122.767C122.128 255.647 121.611 256.164 121.611 256.803V257.153C121.611 257.791 122.128 258.309 122.767 258.309H162.921C163.56 258.309 164.077 257.791 164.077 257.153V256.803C164.077 256.164 163.56 255.647 162.921 255.647Z" fill="#F6F9FF"/>
<path d="M147.648 263.158H122.767C122.128 263.158 121.611 263.676 121.611 264.314V264.664C121.611 265.303 122.128 265.82 122.767 265.82H147.648C148.287 265.82 148.804 265.303 148.804 264.664V264.314C148.804 263.676 148.287 263.158 147.648 263.158Z" fill="#F6F9FF"/>
<path d="M331.692 76.7048H291.537C290.899 76.7048 290.381 77.2224 290.381 77.8608V78.2111C290.381 78.8495 290.899 79.3671 291.537 79.3671H331.692C332.33 79.3671 332.848 78.8495 332.848 78.2111V77.8608C332.848 77.2224 332.33 76.7048 331.692 76.7048Z" fill="#F9FBFF"/>
<path d="M331.692 84.1863H291.537C290.899 84.1863 290.381 84.7038 290.381 85.3423V85.6926C290.381 86.331 290.899 86.8485 291.537 86.8485H331.692C332.33 86.8485 332.848 86.331 332.848 85.6926V85.3423C332.848 84.7038 332.33 84.1863 331.692 84.1863Z" fill="#F9FBFF"/>
<path d="M331.692 93.6143H291.537C290.899 93.6143 290.381 94.1318 290.381 94.7702V95.1205C290.381 95.759 290.899 96.2765 291.537 96.2765H331.692C332.33 96.2765 332.848 95.759 332.848 95.1205V94.7702C332.848 94.1318 332.33 93.6143 331.692 93.6143Z" fill="#F9FBFF"/>
<path d="M316.419 101.126H291.537C290.899 101.126 290.381 101.643 290.381 102.282V102.632C290.381 103.27 290.899 103.788 291.537 103.788H316.419C317.057 103.788 317.575 103.27 317.575 102.632V102.282C317.575 101.643 317.057 101.126 316.419 101.126Z" fill="#F9FBFF"/>
<path d="M115.666 238.732C115.666 238.732 116.361 238.847 117.667 239.007" stroke="#E2EEFF" stroke-width="0.34182" stroke-miterlimit="10"/>
<path d="M121.556 239.433C149.079 242.055 263.403 245.348 249.776 117.515" stroke="#E2EEFF" stroke-width="0.34182" stroke-miterlimit="10" stroke-dasharray="2.69 2.69"/>
<path d="M249.571 115.553C249.496 114.892 249.416 114.232 249.331 113.551" stroke="#E2EEFF" stroke-width="0.34182" stroke-miterlimit="10"/>
<path d="M330.271 115.138C330.271 115.138 322.139 106.866 329.77 101.011C337.402 95.1557 339.449 95.506 339.514 101.341C339.579 107.176 333.869 108.062 337.327 114.212C340.785 120.362 336.601 121.973 334.014 120.637C331.427 119.301 330.271 115.138 330.271 115.138Z" fill="#E2EEFF"/>
<path d="M328.889 117.029C328.889 117.029 329.39 121.533 333.458 123.47C337.527 125.406 344.433 129.975 343.822 133.603C343.212 137.231 335.125 127.098 332.593 127.989C330.061 128.879 324.526 125.562 322.864 121.303C321.203 117.044 321.518 113.656 324.03 113.686C326.542 113.717 328.889 117.029 328.889 117.029Z" fill="#E2EEFF"/>
<path d="M314.677 42.3909H378.682C388.961 42.3909 394.821 30.3506 388.191 22.474C384.327 17.8751 377.261 14.4272 364.62 14.9276C364.62 14.9276 346.95 -18.6008 322.194 14.8775C322.194 14.8775 301.826 12.8758 300.265 25.8869L300.22 26.2722C299.994 28.3038 300.199 30.3603 300.823 32.307C301.447 34.2537 302.475 36.0467 303.84 37.5684C305.204 39.0902 306.876 40.3064 308.743 41.1375C310.611 41.9685 312.633 42.3957 314.677 42.3909Z" fill="#F6F9FF"/>
<path d="M-13.4454 330.41H50.5397C60.8186 330.41 66.6786 318.37 60.0479 310.498C56.1796 305.894 49.1185 302.451 36.4726 302.947C36.4726 302.947 18.8074 269.418 -5.95397 302.902C-5.95397 302.902 -26.3165 300.9 -27.8779 313.936C-27.8779 314.066 -27.9079 314.196 -27.9229 314.321C-28.1448 316.352 -27.9354 318.407 -27.3084 320.352C-26.6814 322.296 -25.6508 324.086 -24.2842 325.605C-22.9176 327.124 -21.2456 328.337 -19.3779 329.165C-17.5101 329.993 -15.4885 330.417 -13.4454 330.41Z" fill="#F6F9FF"/>
<g clip-path="url(#clip1)">
<path d="M209.49 181.838C215.16 181.838 219.757 177.234 219.757 171.556C219.757 165.877 215.16 161.273 209.49 161.273C203.819 161.273 199.223 165.877 199.223 171.556C199.223 177.234 203.819 181.838 209.49 181.838Z" fill="#F3F8FF"/>
<path d="M234.653 184.769L223.924 174.024C224.746 172.743 225.303 171.309 225.563 169.808C225.822 168.307 225.777 166.77 225.432 165.286C225.087 163.803 224.449 162.404 223.554 161.172C222.659 159.941 221.526 158.902 220.223 158.116C217.77 156.648 214.855 156.157 212.056 156.739C209.258 157.321 206.78 158.935 205.113 161.26C203.579 163.414 202.842 166.036 203.029 168.675C203.216 171.314 204.315 173.805 206.138 175.72C207.96 177.636 210.392 178.855 213.015 179.169C215.638 179.484 218.288 178.873 220.511 177.442L231.24 188.188C231.693 188.64 232.307 188.895 232.946 188.895C233.586 188.894 234.2 188.64 234.652 188.187C235.105 187.733 235.359 187.119 235.359 186.478C235.359 185.837 235.105 185.223 234.653 184.769ZM220.11 173.623C218.78 174.954 217.031 175.783 215.16 175.967C213.289 176.152 211.412 175.681 209.848 174.635C208.285 173.589 207.132 172.032 206.587 170.23C206.041 168.428 206.136 166.493 206.855 164.753C207.575 163.013 208.874 161.577 210.532 160.69C212.191 159.802 214.105 159.518 215.949 159.885C217.793 160.252 219.453 161.249 220.645 162.704C221.838 164.16 222.49 165.985 222.49 167.868C222.491 168.937 222.282 169.995 221.873 170.983C221.465 171.971 220.866 172.868 220.11 173.623Z" fill="#3F3D56"/>
<path d="M312.43 200.62C339.87 231.01 260.327 274.807 196.055 274.807C131.783 274.807 87.3162 240.872 79.6796 200.62C61.1634 103.02 237.442 40.9867 196.055 126.432C135.729 250.978 290.821 176.686 312.43 200.62Z" fill="#F3F8FF"/>
<path d="M300.119 207.812C327.558 238.203 248.016 282 183.743 282C119.471 282 75.0047 248.065 67.368 207.812C48.8519 110.213 225.13 48.1794 183.743 133.624C123.417 258.17 278.51 183.879 300.119 207.812Z" fill="#3F3D56"/>
<path d="M104.37 136.56C85.1155 135.711 70.1866 131.551 70.3828 127.09C70.5004 124.416 75.9495 122.265 85.3329 121.19C85.3664 121.186 85.4005 121.188 85.4331 121.198C85.4656 121.207 85.4961 121.222 85.5226 121.243C85.5492 121.264 85.5713 121.29 85.5878 121.32C85.6042 121.349 85.6147 121.382 85.6185 121.416C85.6224 121.449 85.6195 121.483 85.6102 121.516C85.6008 121.549 85.5851 121.579 85.564 121.605C85.5428 121.632 85.5167 121.654 85.487 121.67C85.4574 121.686 85.4248 121.697 85.3911 121.7C76.552 122.713 70.9975 124.787 70.8953 127.113C70.7179 131.147 86.0576 135.238 104.392 136.046C122.727 136.855 138.366 134.13 138.544 130.096C138.646 127.76 133.261 125.198 124.488 123.41C124.455 123.403 124.424 123.39 124.396 123.371C124.368 123.352 124.344 123.328 124.325 123.3C124.306 123.272 124.294 123.24 124.287 123.207C124.281 123.174 124.281 123.14 124.287 123.107C124.294 123.073 124.307 123.042 124.326 123.014C124.345 122.986 124.369 122.962 124.398 122.943C124.426 122.925 124.457 122.912 124.49 122.906C124.524 122.899 124.558 122.899 124.591 122.906C133.902 124.805 139.174 127.433 139.056 130.118C138.86 134.579 123.624 137.409 104.37 136.56Z" fill="#166DFF"/>
<path d="M87.269 137.307C88.8798 140.371 91.2658 142.958 94.1884 144.809C97.111 146.66 100.468 147.71 103.923 147.853C107.378 147.997 110.81 147.23 113.875 145.628C116.941 144.026 119.533 141.646 121.392 138.725C110 138.879 98.6087 138.406 87.269 137.307Z" fill="#166DFF"/>
<path d="M123.522 133.322C124.491 130.41 124.77 127.312 124.337 124.273C123.905 121.234 122.771 118.338 121.028 115.814C119.284 113.289 116.977 111.206 114.291 109.729C111.604 108.252 108.611 107.421 105.548 107.302C102.486 107.184 99.4374 107.781 96.645 109.046C93.8526 110.312 91.3925 112.211 89.4596 114.593C87.5267 116.975 86.1739 119.775 85.5084 122.771C84.8428 125.768 84.8827 128.878 85.625 131.856C98.1407 133.984 110.879 134.477 123.522 133.322Z" fill="#166DFF"/>
<path d="M109.305 120.062C110.579 120.062 111.613 119.027 111.613 117.75C111.613 116.473 110.579 115.438 109.305 115.438C108.03 115.438 106.996 116.473 106.996 117.75C106.996 119.027 108.03 120.062 109.305 120.062Z" fill="white"/>
<path d="M97.4238 129.05C99.5486 129.05 101.271 127.325 101.271 125.197C101.271 123.069 99.5486 121.344 97.4238 121.344C95.2989 121.344 93.5764 123.069 93.5764 125.197C93.5764 127.325 95.2989 129.05 97.4238 129.05Z" fill="white"/>
<path d="M155.491 125.276C156.908 125.276 158.056 124.126 158.056 122.707C158.056 121.288 156.908 120.138 155.491 120.138C154.075 120.138 152.926 121.288 152.926 122.707C152.926 124.126 154.075 125.276 155.491 125.276Z" fill="#166DFF"/>
<path d="M97.5241 203.88C98.374 203.88 99.0631 203.19 99.0631 202.339C99.0631 201.487 98.374 200.797 97.5241 200.797C96.6741 200.797 95.9851 201.487 95.9851 202.339C95.9851 203.19 96.6741 203.88 97.5241 203.88Z" fill="#F3F8FF"/>
<path d="M205.251 256.796C206.101 256.796 206.79 256.106 206.79 255.255C206.79 254.404 206.101 253.714 205.251 253.714C204.401 253.714 203.712 254.404 203.712 255.255C203.712 256.106 204.401 256.796 205.251 256.796Z" fill="#F3F8FF"/>
<path d="M104.962 174.082C105.387 174.082 105.732 173.737 105.732 173.312C105.732 172.886 105.387 172.541 104.962 172.541C104.537 172.541 104.193 172.886 104.193 173.312C104.193 173.737 104.537 174.082 104.962 174.082Z" fill="#F3F8FF"/>
<path d="M168.572 231.623C168.997 231.623 169.342 231.278 169.342 230.852C169.342 230.426 168.997 230.081 168.572 230.081C168.147 230.081 167.803 230.426 167.803 230.852C167.803 231.278 168.147 231.623 168.572 231.623Z" fill="#F3F8FF"/>
<path d="M284.25 224.173C284.675 224.173 285.02 223.828 285.02 223.402C285.02 222.977 284.675 222.632 284.25 222.632C283.825 222.632 283.481 222.977 283.481 223.402C283.481 223.828 283.825 224.173 284.25 224.173Z" fill="#F3F8FF"/>
<path d="M248.085 247.035C248.51 247.035 248.854 246.69 248.854 246.265C248.854 245.839 248.51 245.494 248.085 245.494C247.66 245.494 247.315 245.839 247.315 246.265C247.315 246.69 247.66 247.035 248.085 247.035Z" fill="#F3F8FF"/>
<path d="M210.381 219.293C210.806 219.293 211.15 218.947 211.15 218.522C211.15 218.096 210.806 217.751 210.381 217.751C209.956 217.751 209.611 218.096 209.611 218.522C209.611 218.947 209.956 219.293 210.381 219.293Z" fill="#F3F8FF"/>
<path d="M161.647 143.257C162.072 143.257 162.416 142.912 162.416 142.487C162.416 142.061 162.072 141.716 161.647 141.716C161.222 141.716 160.877 142.061 160.877 142.487C160.877 142.912 161.222 143.257 161.647 143.257Z" fill="#F3F8FF"/>
<path d="M167.803 105.24C168.228 105.24 168.572 104.895 168.572 104.469C168.572 104.043 168.228 103.698 167.803 103.698C167.378 103.698 167.033 104.043 167.033 104.469C167.033 104.895 167.378 105.24 167.803 105.24Z" fill="#F3F8FF"/>
<path d="M164.212 265.273C164.637 265.273 164.981 264.928 164.981 264.503C164.981 264.077 164.637 263.732 164.212 263.732C163.787 263.732 163.442 264.077 163.442 264.503C163.442 264.928 163.787 265.273 164.212 265.273Z" fill="#F3F8FF"/>
<path d="M126.251 249.09C126.676 249.09 127.021 248.745 127.021 248.319C127.021 247.894 126.676 247.549 126.251 247.549C125.826 247.549 125.482 247.894 125.482 248.319C125.482 248.745 125.826 249.09 126.251 249.09Z" fill="#F3F8FF"/>
<path d="M246.546 221.347C246.971 221.347 247.315 221.002 247.315 220.577C247.315 220.151 246.971 219.806 246.546 219.806C246.121 219.806 245.776 220.151 245.776 220.577C245.776 221.002 246.121 221.347 246.546 221.347Z" fill="#F3F8FF"/>
<path d="M104.057 146.057C105.332 146.057 106.365 145.022 106.365 143.745C106.365 142.468 105.332 141.433 104.057 141.433C102.782 141.433 101.748 142.468 101.748 143.745C101.748 145.022 102.782 146.057 104.057 146.057Z" fill="white"/>
<path d="M156.261 179.22C156.261 186.125 145.601 202.214 142.486 206.769C142.392 206.907 142.266 207.019 142.119 207.097C141.971 207.175 141.807 207.216 141.641 207.216C141.474 207.216 141.31 207.175 141.163 207.097C141.016 207.019 140.89 206.907 140.796 206.769C137.68 202.214 127.021 186.125 127.021 179.22C127.021 177.297 127.399 175.393 128.134 173.617C128.868 171.84 129.945 170.226 131.303 168.867C132.66 167.507 134.272 166.428 136.046 165.693C137.82 164.957 139.721 164.578 141.641 164.578C143.561 164.578 145.462 164.957 147.236 165.693C149.009 166.428 150.621 167.507 151.979 168.867C153.336 170.226 154.413 171.84 155.148 173.617C155.883 175.393 156.261 177.297 156.261 179.22Z" fill="white"/>
<path d="M141.641 185.642C145.749 185.642 149.079 182.307 149.079 178.192C149.079 174.078 145.749 170.743 141.641 170.743C137.533 170.743 134.202 174.078 134.202 178.192C134.202 182.307 137.533 185.642 141.641 185.642Z" fill="#166DFF"/>
<path d="M141.512 215.183C146.258 215.183 150.105 214.435 150.105 213.513C150.105 212.591 146.258 211.843 141.512 211.843C136.767 211.843 132.92 212.591 132.92 213.513C132.92 214.435 136.767 215.183 141.512 215.183Z" fill="white"/>
<path d="M275.516 167.666C275.451 167.792 275.396 167.923 275.352 168.058L263.096 171.469L260.887 169.304L257.19 172.216L260.728 176.428C261.014 176.768 261.402 177.007 261.835 177.107C262.267 177.208 262.72 177.165 263.127 176.985L276.366 171.132C276.815 171.445 277.348 171.613 277.895 171.614C278.442 171.615 278.976 171.449 279.427 171.139C279.877 170.829 280.223 170.389 280.417 169.877C280.612 169.365 280.646 168.806 280.516 168.274C280.386 167.743 280.097 167.263 279.688 166.9C279.279 166.537 278.769 166.307 278.226 166.241C277.683 166.174 277.133 166.275 276.649 166.53C276.165 166.785 275.77 167.181 275.516 167.666H275.516Z" fill="#FFB8B8"/>
<path d="M262.664 171.669L258.064 175.255C257.933 175.357 257.782 175.429 257.62 175.468C257.459 175.506 257.291 175.509 257.128 175.476C256.966 175.444 256.812 175.376 256.678 175.279C256.543 175.181 256.432 175.056 256.35 174.911L253.491 169.844C252.973 169.17 252.744 168.319 252.852 167.476C252.961 166.633 253.399 165.867 254.07 165.347C254.741 164.827 255.591 164.595 256.433 164.701C257.275 164.808 258.041 165.244 258.562 165.915L262.752 169.921C262.872 170.036 262.966 170.175 263.027 170.329C263.089 170.483 263.116 170.649 263.108 170.815C263.099 170.981 263.056 171.143 262.979 171.291C262.902 171.438 262.795 171.567 262.664 171.669V171.669Z" fill="#166DFF"/>
<path d="M276.691 165.97L281.357 168.072C281.552 168.16 281.704 168.322 281.78 168.523C281.856 168.723 281.85 168.946 281.762 169.141L281.209 170.371C281.274 170.4 281.325 170.454 281.35 170.521C281.376 170.588 281.374 170.662 281.345 170.727L281.124 171.219C281.094 171.284 281.04 171.335 280.973 171.36C280.907 171.386 280.833 171.384 280.768 171.354L280.547 171.846C280.612 171.876 280.662 171.93 280.688 171.997C280.713 172.063 280.711 172.138 280.682 172.203L280.461 172.695C280.431 172.76 280.377 172.81 280.311 172.836C280.244 172.861 280.17 172.859 280.105 172.83L277.122 179.469C277.034 179.665 276.872 179.817 276.672 179.893C276.472 179.97 276.25 179.963 276.054 179.875L271.389 177.773C271.194 177.685 271.041 177.523 270.965 177.322C270.889 177.122 270.896 176.899 270.984 176.703L275.623 166.376C275.711 166.18 275.873 166.027 276.074 165.951C276.274 165.875 276.496 165.882 276.691 165.97Z" fill="#3F3D56"/>
<path d="M272.236 177.119L275.979 178.807C276.166 178.891 276.379 178.897 276.571 178.824C276.764 178.752 276.919 178.606 277.004 178.418L278.733 174.568L279.333 173.233L280.898 169.75C280.981 169.562 280.987 169.349 280.915 169.157C280.842 168.965 280.696 168.81 280.51 168.725L279.333 168.194L276.765 167.037C276.577 166.953 276.364 166.947 276.172 167.02C275.981 167.094 275.826 167.24 275.742 167.428L274.229 170.796L272.505 174.63L271.849 176.094C271.765 176.282 271.758 176.495 271.831 176.687C271.904 176.879 272.049 177.034 272.236 177.119Z" fill="#F2F2F2"/>
<path d="M264.416 224.827L267.561 224.827L269.057 212.679L264.416 212.68L264.416 224.827Z" fill="#FFB8B8"/>
<path d="M263.614 223.799L269.807 223.798H269.807C270.325 223.798 270.839 223.901 271.317 224.099C271.796 224.298 272.231 224.589 272.598 224.956C272.964 225.323 273.255 225.759 273.453 226.238C273.652 226.718 273.754 227.232 273.754 227.751V227.879L263.614 227.88L263.614 223.799Z" fill="#2F2E41"/>
<path d="M272.624 224.056L275.769 224.056L277.265 211.909L272.624 211.909L272.624 224.056Z" fill="#FFB8B8"/>
<path d="M271.822 223.028L278.015 223.028H278.015C278.533 223.028 279.046 223.13 279.525 223.329C280.004 223.527 280.439 223.818 280.806 224.185C281.172 224.552 281.463 224.988 281.661 225.468C281.859 225.947 281.961 226.461 281.961 226.98V227.108L271.822 227.109L271.822 223.028Z" fill="#2F2E41"/>
<path d="M250.311 196.323C250.981 198.312 252.252 200.043 253.948 201.277C255.643 202.51 257.68 203.186 259.776 203.209L259.935 203.212C261.558 203.258 263.464 202.734 265.334 201.982C269.027 200.494 272.575 198.113 273.516 197.458L271.921 212.817L271.274 219.043C271.258 219.204 271.275 219.367 271.326 219.521C271.376 219.675 271.458 219.817 271.566 219.937C271.674 220.057 271.807 220.153 271.954 220.219C272.102 220.285 272.262 220.32 272.423 220.32H276.407C276.662 220.32 276.91 220.236 277.113 220.079C277.315 219.923 277.46 219.704 277.525 219.457L284.101 194.373C284.299 193.622 284.314 192.835 284.148 192.077C283.981 191.319 283.636 190.611 283.142 190.013C282.648 189.415 282.019 188.943 281.306 188.637C280.594 188.33 279.819 188.198 279.046 188.252L265.385 189.189L266.339 185.367L254.146 184.555L254.11 184.581C253.817 184.794 253.533 185.018 253.261 185.251C252.581 185.827 251.978 186.488 251.468 187.219C250.555 188.53 249.972 190.043 249.771 191.628C249.569 193.214 249.755 194.825 250.311 196.323Z" fill="#2F2E41"/>
<path d="M250.311 196.323C250.981 198.312 252.252 200.043 253.948 201.277C255.643 202.51 257.68 203.186 259.776 203.209C261.78 202.194 263.714 201.045 265.565 199.77L265.334 201.982L263.323 221.355C263.307 221.516 263.324 221.679 263.374 221.833C263.425 221.987 263.507 222.128 263.615 222.249C263.723 222.369 263.855 222.465 264.003 222.531C264.151 222.597 264.31 222.631 264.472 222.632H268.455C268.711 222.632 268.959 222.547 269.161 222.391C269.364 222.235 269.509 222.016 269.574 221.769L271.921 212.817L276.15 196.685C276.347 195.934 276.363 195.147 276.196 194.389C276.03 193.631 275.685 192.923 275.191 192.325C274.697 191.727 274.067 191.255 273.355 190.949C272.643 190.642 271.868 190.51 271.095 190.563L257.434 191.501L258.388 187.679L251.468 187.219C250.555 188.53 249.972 190.043 249.771 191.628C249.569 193.214 249.755 194.824 250.311 196.323Z" fill="#2F2E41"/>
<path d="M253.243 186.137L253.152 186.126L251.024 175.65C251.006 175.559 249.267 166.522 254.599 161.798L254.692 161.151C254.715 160.986 254.775 160.827 254.865 160.687C254.956 160.547 255.076 160.428 255.217 160.339C255.358 160.249 255.517 160.192 255.683 160.17C255.848 160.148 256.016 160.162 256.176 160.212L261.199 161.772C261.484 161.86 261.723 162.054 261.867 162.315C262.012 162.576 262.05 162.882 261.974 163.17L261.485 165.03C262.162 165.827 270.133 175.437 267.356 182.841L266.113 187.709L253.243 186.137Z" fill="#166DFF"/>
<path d="M274.101 177.961C273.981 178.036 273.867 178.121 273.761 178.215L261.475 174.912L260.672 171.924L256.01 172.548L256.919 177.977C256.992 178.416 257.206 178.819 257.527 179.125C257.849 179.432 258.261 179.626 258.702 179.678L273.073 181.378C273.302 181.876 273.676 182.292 274.146 182.572C274.616 182.851 275.16 182.98 275.706 182.943C276.251 182.905 276.772 182.702 277.2 182.36C277.627 182.018 277.94 181.555 278.098 181.03C278.256 180.506 278.25 179.946 278.082 179.425C277.915 178.904 277.592 178.446 277.158 178.113C276.725 177.78 276.2 177.587 275.654 177.559C275.108 177.532 274.566 177.672 274.101 177.961H274.101Z" fill="#FFB8B8"/>
<path d="M261.002 174.865L255.22 175.61C255.056 175.632 254.889 175.617 254.73 175.568C254.572 175.518 254.426 175.436 254.303 175.325C254.179 175.214 254.081 175.078 254.015 174.925C253.948 174.773 253.916 174.608 253.919 174.442L254.029 168.623C253.925 167.779 254.16 166.929 254.681 166.258C255.203 165.588 255.968 165.151 256.81 165.045C257.652 164.939 258.502 165.172 259.173 165.692C259.844 166.212 260.282 166.978 260.39 167.821L261.965 173.404C262.01 173.564 262.021 173.732 261.995 173.896C261.97 174.06 261.909 174.217 261.818 174.355C261.726 174.494 261.606 174.611 261.465 174.699C261.325 174.787 261.167 174.843 261.002 174.865Z" fill="#166DFF"/>
<path d="M259.374 158.79C262.854 158.79 265.674 155.965 265.674 152.48C265.674 148.996 262.854 146.171 259.374 146.171C255.895 146.171 253.075 148.996 253.075 152.48C253.075 155.965 255.895 158.79 259.374 158.79Z" fill="#FFB8B8"/>
<path d="M259.043 153.007L258.254 151.569C256.76 157.665 259.399 162.71 259.399 162.71L249.157 157.932L249.254 156.237L248.241 157.389L246.785 156.585L246.592 155.485L245.493 155.758L249.506 148.466C253.4 141.527 259.061 144.176 259.061 144.176C268.068 143.748 266.968 152.647 266.968 152.647L259.043 153.007Z" fill="#2F2E41"/>
<path d="M187.331 200.024C188.783 199.091 187.017 193.736 183.386 188.063C179.754 182.39 175.633 178.547 174.18 179.48C172.728 180.412 174.494 185.767 178.126 191.44C181.757 197.113 185.878 200.956 187.331 200.024Z" fill="#3F3D56"/>
</g>
<rect y="356" width="375" height="128" fill="url(#paint1_linear)"/>
</g>
<defs>
<linearGradient id="paint0_linear" x1="30.217" y1="110.058" x2="28.2954" y2="295.776" gradientUnits="userSpaceOnUse">
<stop offset="0.03" stop-color="white"/>
<stop offset="1" stop-color="white" stop-opacity="0"/>
</linearGradient>
<linearGradient id="paint1_linear" x1="93.75" y1="356" x2="93.75" y2="420" gradientUnits="userSpaceOnUse">
<stop stop-color="white" stop-opacity="0.01"/>
<stop offset="1" stop-color="white"/>
</linearGradient>
<clipPath id="clip0">
<rect width="375" height="812" fill="white" transform="translate(0 -328)"/>
</clipPath>
<clipPath id="clip1">
<rect width="252" height="196" fill="white" transform="translate(66 86)"/>
</clipPath>
</defs>
</svg>
