<svg width="201" height="200" viewBox="0 0 201 200" fill="none" xmlns="http://www.w3.org/2000/svg">
<g clip-path="url(#clip0_12653_292452)">
<path d="M163.888 54.7122L17.0857 97.5383L20.9741 110.901L167.776 68.0747L163.888 54.7122Z" fill="#3F3D56"/>
<path d="M34.6247 158.917L12.9872 84.5593C12.8268 84.008 12.8917 83.4155 13.1676 82.9121C13.4435 82.4087 13.9078 82.0357 14.4584 81.8751L157.702 40.0871C158.252 39.927 158.844 39.9922 159.347 40.2683C159.849 40.5445 160.222 41.009 160.383 41.56L179.552 107.436L178.959 107.609L159.79 41.7331C159.674 41.3397 159.408 41.008 159.049 40.8108C158.69 40.6136 158.268 40.5669 157.875 40.6809L14.6312 82.4689C14.2379 82.5836 13.9062 82.8501 13.7092 83.2097C13.5121 83.5692 13.4658 83.9925 13.5803 84.3863L35.2178 158.744L34.6247 158.917Z" fill="#3F3D56"/>
<path d="M147.848 107.742C147.413 107.741 146.99 107.6 146.643 107.339C146.295 107.078 146.041 106.711 145.919 106.293L142.29 93.8217C142.141 93.3099 142.202 92.76 142.458 92.2927C142.714 91.8254 143.145 91.479 143.656 91.3293L156.112 87.6955C156.623 87.547 157.172 87.6077 157.639 87.8641C158.106 88.1206 158.452 88.5519 158.601 89.0635L162.23 101.535C162.379 102.047 162.318 102.597 162.062 103.064C161.806 103.531 161.375 103.878 160.864 104.028L148.408 107.661C148.226 107.715 148.037 107.742 147.848 107.742Z" fill="#0878C8"/>
<path d="M34.2903 84.7892C34.253 84.661 34.2086 84.5351 34.1574 84.4118C33.8092 83.5655 33.1608 82.8778 32.3369 82.4811C31.5131 82.0843 30.5718 82.0063 29.694 82.2622C28.8162 82.5181 28.0639 83.0897 27.5815 83.8673C27.0991 84.6449 26.9207 85.5735 27.0806 86.4748C27.103 86.6063 27.133 86.7364 27.1702 86.8645C27.3957 87.6355 27.8647 88.3125 28.5067 88.7942C29.1488 89.276 29.9294 89.5365 30.7317 89.5368C31.082 89.5376 31.4306 89.4876 31.7666 89.3884C32.7097 89.1125 33.5049 88.4733 33.978 87.6112C34.4511 86.749 34.5634 85.7341 34.2903 84.7892ZM31.5936 88.7945C30.8071 89.0231 29.9622 88.93 29.2442 88.5357C28.5262 88.1415 27.9936 87.4782 27.7632 86.6913C27.7271 86.5632 27.6982 86.433 27.6767 86.3016C27.5608 85.559 27.719 84.7996 28.1218 84.1654C28.5245 83.5312 29.1442 83.0655 29.865 82.8555C30.5857 82.6456 31.3582 82.7056 32.0379 83.0245C32.7176 83.3434 33.258 83.8992 33.5582 84.5881C33.6141 84.7091 33.6606 84.8342 33.6972 84.9624C33.9252 85.7498 33.8317 86.5957 33.4373 87.3142C33.0428 88.0327 32.3798 88.5651 31.5936 88.7945V88.7945Z" fill="#0878C8"/>
<path d="M25.1984 87.4399C25.0007 86.7601 25.0197 86.0356 25.2527 85.3671C25.4857 84.6987 25.9212 84.1196 26.4984 83.7107C25.9576 83.6843 25.4184 83.7877 24.9256 84.0122C24.4328 84.2368 24.0007 84.5759 23.6654 85.0015C23.33 85.4271 23.1011 85.9268 22.9977 86.4589C22.8942 86.991 22.9193 87.5401 23.0707 88.0606C23.2222 88.581 23.4956 89.0577 23.8683 89.4509C24.241 89.8441 24.7022 90.1425 25.2133 90.3211C25.7245 90.4997 26.2709 90.5535 26.807 90.4778C27.3431 90.4022 27.8534 90.1994 28.2954 89.8863C27.5892 89.8518 26.9113 89.5976 26.3561 89.159C25.801 88.7205 25.3963 88.1196 25.1984 87.4399Z" fill="#0878C8"/>
<path d="M121.224 102.768C121.159 102.532 121.047 102.31 120.896 102.117C120.744 101.923 120.557 101.762 120.343 101.641C120.129 101.521 119.894 101.443 119.65 101.414C119.407 101.384 119.159 101.403 118.923 101.469L98.4152 107.213L96.2065 107.832H110.076L112.285 107.213L119.93 105.073C120.407 104.939 120.811 104.621 121.053 104.189C121.296 103.757 121.358 103.246 121.224 102.768Z" fill="#CCCCCC"/>
<path d="M106.715 98.4785C106.582 98.0012 106.264 97.5965 105.833 97.3535C105.401 97.1104 104.891 97.049 104.414 97.1826L73.6414 105.799C73.2114 105.921 72.8391 106.193 72.5916 106.566C72.3441 106.938 72.2376 107.387 72.2915 107.832H80.2581L82.4697 107.213L105.421 100.786C105.898 100.651 106.302 100.333 106.545 99.9003C106.788 99.4677 106.849 98.9563 106.715 98.4785Z" fill="#CCCCCC"/>
<path d="M185.938 107.212H36.7378C36.1645 107.213 35.6148 107.441 35.2095 107.847C34.8041 108.253 34.5761 108.803 34.5754 109.377V197.835C34.5761 198.409 34.8041 198.959 35.2094 199.365C35.6148 199.771 36.1645 199.999 36.7378 200H185.938C186.511 199.999 187.06 199.771 187.466 199.365C187.871 198.959 188.099 198.409 188.1 197.835V109.377C188.099 108.803 187.871 108.253 187.466 107.847C187.06 107.441 186.511 107.213 185.938 107.212V107.212ZM187.482 197.835C187.482 198.245 187.319 198.638 187.029 198.928C186.74 199.218 186.347 199.381 185.938 199.381H36.7378C36.3282 199.381 35.9354 199.218 35.6458 198.928C35.3562 198.638 35.1934 198.245 35.1932 197.835V109.377C35.1934 108.967 35.3562 108.574 35.6458 108.284C35.9354 107.994 36.3282 107.831 36.7378 107.831H185.938C186.347 107.831 186.74 107.994 187.029 108.284C187.319 108.574 187.482 108.967 187.482 109.377V197.835Z" fill="#3F3D56"/>
<path d="M51.2552 119.275C50.522 119.275 49.8053 119.058 49.1958 118.65C48.5862 118.242 48.1111 117.662 47.8305 116.984C47.5499 116.306 47.4765 115.56 47.6196 114.84C47.7626 114.12 48.1156 113.458 48.634 112.939C49.1525 112.42 49.813 112.067 50.532 111.924C51.2511 111.78 51.9964 111.854 52.6737 112.135C53.351 112.416 53.93 112.891 54.3373 113.502C54.7446 114.112 54.962 114.83 54.962 115.564C54.9609 116.548 54.57 117.491 53.875 118.187C53.1801 118.883 52.2379 119.274 51.2552 119.275ZM51.2552 112.471C50.6442 112.471 50.047 112.652 49.539 112.992C49.031 113.332 48.6351 113.815 48.4013 114.38C48.1675 114.945 48.1063 115.567 48.2255 116.167C48.3447 116.767 48.6389 117.318 49.0709 117.751C49.5029 118.183 50.0533 118.478 50.6525 118.597C51.2517 118.717 51.8728 118.655 52.4373 118.421C53.0017 118.187 53.4842 117.791 53.8236 117.282C54.163 116.774 54.3442 116.176 54.3442 115.564C54.3433 114.744 54.0175 113.958 53.4384 113.378C52.8593 112.798 52.0741 112.472 51.2552 112.471Z" fill="#0878C8"/>
<path d="M45.4935 115.564C45.4936 114.856 45.7143 114.166 46.1247 113.589C46.5352 113.013 47.115 112.579 47.7834 112.348C47.2716 112.171 46.725 112.119 46.1892 112.197C45.6533 112.274 45.1438 112.479 44.7029 112.793C44.262 113.108 43.9027 113.524 43.6547 114.006C43.4067 114.487 43.2773 115.022 43.2773 115.564C43.2773 116.106 43.4067 116.64 43.6547 117.122C43.9027 117.604 44.262 118.02 44.7029 118.334C45.1438 118.649 45.6533 118.854 46.1892 118.931C46.725 119.009 47.2716 118.957 47.7834 118.78C47.115 118.549 46.5352 118.115 46.1247 117.539C45.7143 116.962 45.4936 116.272 45.4935 115.564Z" fill="#0878C8"/>
<path d="M66.2813 159.415C65.5443 159.414 64.8376 159.12 64.3164 158.599C63.7952 158.077 63.5021 157.369 63.5012 156.631V148.28C63.5012 147.542 63.7941 146.834 64.3155 146.312C64.8369 145.79 65.544 145.497 66.2813 145.497C67.0187 145.497 67.7258 145.79 68.2472 146.312C68.7685 146.834 69.0614 147.542 69.0614 148.28V156.631C69.0606 157.369 68.7674 158.077 68.2462 158.598C67.725 159.12 67.0184 159.414 66.2813 159.415Z" fill="#0878C8"/>
<path d="M73.6949 159.415C72.9578 159.414 72.2512 159.12 71.73 158.599C71.2088 158.077 70.9156 157.369 70.9148 156.631V148.28C70.9148 147.542 71.2077 146.834 71.7291 146.312C72.2504 145.79 72.9576 145.497 73.6949 145.497C74.4322 145.497 75.1394 145.79 75.6607 146.312C76.1821 146.834 76.475 147.542 76.475 148.28V156.631C76.4742 157.369 76.181 158.077 75.6598 158.598C75.1386 159.12 74.432 159.414 73.6949 159.415Z" fill="#0878C8"/>
<path d="M81.1085 159.415C80.3714 159.414 79.6648 159.12 79.1436 158.599C78.6224 158.077 78.3292 157.369 78.3284 156.631V148.28C78.3284 147.542 78.6213 146.834 79.1426 146.312C79.664 145.79 80.3712 145.497 81.1085 145.497C81.8458 145.497 82.5529 145.79 83.0743 146.312C83.5957 146.834 83.8886 147.542 83.8886 148.28V156.631C83.8878 157.369 83.5946 158.077 83.0734 158.598C82.5522 159.12 81.8456 159.414 81.1085 159.415Z" fill="#0878C8"/>
<path d="M92.5379 159.415C91.8009 159.414 91.0942 159.12 90.573 158.599C90.0518 158.077 89.7587 157.369 89.7578 156.631V148.28C89.7578 147.542 90.0507 146.834 90.5721 146.312C91.0935 145.79 91.8006 145.497 92.5379 145.497C93.2753 145.497 93.9824 145.79 94.5038 146.312C95.0251 146.834 95.318 147.542 95.318 148.28V156.631C95.3172 157.369 95.024 158.077 94.5028 158.598C93.9816 159.12 93.275 159.414 92.5379 159.415Z" fill="#0878C8"/>
<path d="M99.9515 159.415C99.2144 159.414 98.5078 159.12 97.9866 158.599C97.4654 158.077 97.1722 157.369 97.1714 156.631V148.28C97.1714 147.542 97.4643 146.834 97.9857 146.312C98.507 145.79 99.2142 145.497 99.9515 145.497C100.689 145.497 101.396 145.79 101.917 146.312C102.439 146.834 102.732 147.542 102.732 148.28V156.631C102.731 157.369 102.438 158.077 101.916 158.598C101.395 159.12 100.689 159.414 99.9515 159.415Z" fill="#0878C8"/>
<path d="M107.365 159.415C106.628 159.414 105.921 159.12 105.4 158.599C104.879 158.077 104.586 157.369 104.585 156.631V148.28C104.585 147.542 104.878 146.834 105.399 146.312C105.921 145.79 106.628 145.497 107.365 145.497C108.102 145.497 108.81 145.79 109.331 146.312C109.852 146.834 110.145 147.542 110.145 148.28V156.631C110.144 157.369 109.851 158.077 109.33 158.598C108.809 159.12 108.102 159.414 107.365 159.415Z" fill="#0878C8"/>
<path d="M118.795 159.415C118.057 159.414 117.351 159.12 116.83 158.599C116.308 158.077 116.015 157.369 116.014 156.631V148.28C116.014 147.542 116.307 146.834 116.829 146.312C117.35 145.79 118.057 145.497 118.795 145.497C119.532 145.497 120.239 145.79 120.76 146.312C121.282 146.834 121.575 147.542 121.575 148.28V156.631C121.574 157.369 121.281 158.077 120.759 158.598C120.238 159.12 119.532 159.414 118.795 159.415Z" fill="#0878C8"/>
<path d="M126.208 159.415C125.471 159.414 124.764 159.12 124.243 158.599C123.722 158.077 123.429 157.369 123.428 156.631V148.28C123.428 147.542 123.721 146.834 124.242 146.312C124.764 145.79 125.471 145.497 126.208 145.497C126.945 145.497 127.653 145.79 128.174 146.312C128.695 146.834 128.988 147.542 128.988 148.28V156.631C128.987 157.369 128.694 158.077 128.173 158.598C127.652 159.12 126.945 159.414 126.208 159.415Z" fill="#0878C8"/>
<path d="M133.622 159.415C132.885 159.414 132.178 159.12 131.657 158.599C131.136 158.077 130.843 157.369 130.842 156.631V148.28C130.842 147.542 131.135 146.834 131.656 146.312C132.177 145.79 132.885 145.497 133.622 145.497C134.359 145.497 135.066 145.79 135.588 146.312C136.109 146.834 136.402 147.542 136.402 148.28V156.631C136.401 157.369 136.108 158.077 135.587 158.598C135.066 159.12 134.359 159.414 133.622 159.415Z" fill="#0878C8"/>
<path d="M145.051 159.415C144.314 159.414 143.607 159.12 143.086 158.599C142.565 158.077 142.272 157.369 142.271 156.631V148.28C142.271 147.542 142.564 146.834 143.085 146.312C143.607 145.79 144.314 145.497 145.051 145.497C145.788 145.497 146.496 145.79 147.017 146.312C147.538 146.834 147.831 147.542 147.831 148.28V156.631C147.83 157.369 147.537 158.077 147.016 158.598C146.495 159.12 145.788 159.414 145.051 159.415Z" fill="#0878C8"/>
<path d="M152.465 159.415C151.728 159.414 151.021 159.12 150.5 158.599C149.979 158.077 149.686 157.369 149.685 156.631V148.28C149.685 147.542 149.978 146.834 150.499 146.312C151.02 145.79 151.728 145.497 152.465 145.497C153.202 145.497 153.909 145.79 154.431 146.312C154.952 146.834 155.245 147.542 155.245 148.28V156.631C155.244 157.369 154.951 158.077 154.43 158.598C153.909 159.12 153.202 159.414 152.465 159.415Z" fill="#0878C8"/>
<path d="M159.879 159.415C159.141 159.414 158.435 159.12 157.914 158.599C157.392 158.077 157.099 157.369 157.098 156.631V148.28C157.098 147.542 157.391 146.834 157.913 146.312C158.434 145.79 159.141 145.497 159.879 145.497C160.616 145.497 161.323 145.79 161.844 146.312C162.366 146.834 162.659 147.542 162.659 148.28V156.631C162.658 157.369 162.365 158.077 161.843 158.598C161.322 159.12 160.616 159.414 159.879 159.415Z" fill="#0878C8"/>
<path d="M85.1297 190.396H45.1454C44.65 190.396 44.1748 190.199 43.8245 189.848C43.4742 189.497 43.2773 189.021 43.2773 188.525C43.2773 188.029 43.4742 187.553 43.8245 187.203C44.1748 186.852 44.65 186.655 45.1454 186.655H85.1297C85.6252 186.655 86.1003 186.852 86.4506 187.203C86.801 187.553 86.9978 188.029 86.9978 188.525C86.9978 189.021 86.801 189.497 86.4506 189.848C86.1003 190.199 85.6252 190.396 85.1297 190.396Z" fill="#E6E6E6"/>
<path d="M72.3105 182.354H57.965C57.4695 182.354 56.9944 182.157 56.6441 181.806C56.2937 181.455 56.0969 180.98 56.0969 180.484C56.0969 179.988 56.2937 179.512 56.6441 179.161C56.9944 178.81 57.4695 178.613 57.965 178.613H72.3105C72.8059 178.613 73.281 178.81 73.6314 179.161C73.9817 179.512 74.1785 179.988 74.1785 180.484C74.1785 180.98 73.9817 181.455 73.6314 181.806C73.281 182.157 72.8059 182.354 72.3105 182.354Z" fill="#E6E6E6"/>
<path d="M187.371 125.702H35.0823V126.32H187.371V125.702Z" fill="#3F3D56"/>
</g>
<defs>
<clipPath id="clip0_12653_292452">
<rect width="175.2" height="160" fill="white" transform="translate(12.8999 40)"/>
</clipPath>
</defs>
</svg>
