<svg width="160" height="160" xmlns="http://www.w3.org/2000/svg">
  <g fill-rule="nonzero" fill="none">
    <path fill-opacity="0" fill="none" d="M0 0h160v160H0z"/>
    <path d="M118.9 148.6a26 26 0 1 1 0-52 26 26 0 0 1 0 52zm.2-17.5a6.6 6.6 0 1 1 0-13.2 6.6 6.6 0 0 1 0 13.2zM107.5 111c-.4 0-.7.3-.7.7v.3c0 .4.3.7.7.7h3c.4 0 .7-.3.7-.7v-.3c0-.4-.3-.7-.7-.7h-3zm11.6 8.7a4.8 4.8 0 1 0 0 9.6 4.8 4.8 0 0 0 0-9.6zm1.7 4.8c0-1-.8-1.7-1.7-1.7a.9.9 0 0 1-1-1c0-.4.5-.8 1-.8 1.9 0 3.5 1.6 3.5 3.5 0 .5-.4.9-1 .9a.9.9 0 0 1-.8-.9zm2-14h-7.2c-1 0-2 .7-2.4 1.7l-.7 1.8h-4.8a2.6 2.6 0 0 0-2.6 2.6v15.8c0 1.4 1.1 2.6 2.6 2.6h22.7c1.5 0 2.7-1.2 2.7-2.6v-15.8c0-1.4-1.2-2.6-2.7-2.6h-4.8l-.8-2a2.2 2.2 0 0 0-2-1.5z" fill="#E6E6E6"/>
    <path d="M89.6 79.3c-7 0-10.4 3.9-21.7 3.9-11.3 0-14.7-3.9-21.7-3.9A32.2 32.2 0 0 0 14 111.5v10.2c0 6.4 5.3 11.5 11.6 11.5h72.3c2.7 0 5-8.9 7-26.6 0-5.2 15.7-5.2 13.5-9.6a32.2 32.2 0 0 0-28.8-17.7zm7.3 46.2H25.5a3.8 3.8 0 0 1-3.8-3.8v-10.2c0-13.4 11-24.5 24.5-24.5 4.9 0 9.7 3.8 21.7 3.8S84.7 87 89.6 87c9.1 0 17.1 5.1 21.4 12.6 1.3 2.4-.7 4.7-6.1 7-2.4 12.6-5 18.9-8 18.9zm-29-53.9a30.8 30.8 0 1 0 0-61.6 30.8 30.8 0 0 0 0 61.6zm0-53.9a23.1 23.1 0 1 1 0 46.2 23.1 23.1 0 0 1 0-46.2z" fill="#E6E6E6"/>
  </g>
</svg>
