<svg width="160" height="90" fill="none" xmlns="http://www.w3.org/2000/svg">
  <path d="M79.91 44c-.78 0-1.55.2-2.24.59L1.9 87.07l2.68 2.13L9 90h142l4.9-.87 2.26-2.22-76-42.33A4.6 4.6 0 0079.9 44z" fill="#EFEFEF"/>
  <path d="M152.75 0H7.25A7.22 7.22 0 00.78 4C.27 5 0 6.11 0 7.24v75.5A7.25 7.25 0 007.26 90h145.49a7.27 7.27 0 007.25-7.25V7.25A7.25 7.25 0 00152.75 0zm6.49 82.75a6.49 6.49 0 01-6.5 6.49H7.27a6.5 6.5 0 01-6.5-6.49V7.25a6.51 6.51 0 014.5-6.17l.16-.05A6.5 6.5 0 017.26.76h145.49a6.5 6.5 0 016.49 6.49v75.5z" fill="#3F3D56"/>
  <path d="M79.84 44.97c-.58 0-1.15-.15-1.66-.43l-76-41.78a.38.38 0 11.36-.67l76.01 41.78a2.67 2.67 0 002.54.03l77.26-40.7a.38.38 0 01.56.3c0 .05 0 .1-.02.14a.37.37 0 01-.07.13.37.37 0 01-.12.1l-77.26 40.7c-.49.26-1.04.4-1.6.4z" fill="#3F3D56"/>
  <path d="M24.27 70.93H13.58a3.06 3.06 0 110-6.1h10.7a3.06 3.06 0 110 6.1zM36.88 81.23h-23.3a3.06 3.06 0 110-6.1h23.3a3.06 3.06 0 110 6.1z" fill="#000"/>
  <path d="M81.2 56.53c4.13 0 7.47-3.78 7.47-8.45 0-4.68-3.34-8.46-7.47-8.46s-7.47 3.78-7.47 8.46c0 4.67 3.34 8.45 7.47 8.45z" fill="#fff"/>
  <path fill-rule="evenodd" clip-rule="evenodd" d="M81.7 26.86a7.64 7.64 0 017.66 7.63v3.47h1.87a3.16 3.16 0 013.17 3.16v14.43a3.16 3.16 0 01-3.17 3.15H72.17a3.16 3.16 0 01-3.18-3.15V41.12a3.16 3.16 0 013.18-3.16h1.86V34.5a7.64 7.64 0 017.67-7.63zm5.78 7.63a5.77 5.77 0 00-5.78-5.75 5.77 5.77 0 00-5.78 5.75v3.47h11.56V34.5zm-4.1 13.84a2.76 2.76 0 00-1.68-5 2.76 2.76 0 00-1.68 5V50c0 1.22.44 2.22 1.68 2.22 1.23 0 1.68-1 1.68-2.22v-1.67z" fill="#000"/>
</svg>
