<svg width="200" height="200" viewBox="0 0 200 200" xmlns="http://www.w3.org/2000/svg"><defs><linearGradient x1=".04%" y1="50.01%" x2="100%" y2="50.01%" id="a"><stop stop-color="gray" stop-opacity=".25" offset="0%"/><stop stop-color="gray" stop-opacity=".12" offset="54%"/><stop stop-color="gray" stop-opacity=".1" offset="100%"/></linearGradient></defs><g transform="translate(0 22)" fill-rule="nonzero" fill="none"><ellipse fill="#166DFF" opacity=".1" cx="70.25" cy="146.64" rx="34.84" ry="6.6"/><path d="M116.23 22.04c-12.8-.45-25-4.58-36.64-9.1S56.41 3.4 43.92 1C35.88-.53 26.69-.75 20.22 3.55c-6.24 4.16-8.26 11.31-9.34 17.95-.81 5-1.3 10.26.94 14.94 1.55 3.25 4.3 5.98 6.2 9.09 6.62 10.82 1.94 24.17-5.23 34.74-3.36 4.96-7.27 9.7-9.87 14.97-2.6 5.27-3.8 11.33-1.52 16.72 2.25 5.34 7.62 9.35 13.43 12.17 11.8 5.72 25.72 7.36 39.3 8.3 30.03 2.04 60.22 1.16 90.33.26 11.15-.32 22.34-.66 33.3-2.38 6.1-.96 12.38-2.48 16.8-6.15 5.61-4.65 7-12.53 3.24-18.37-6.3-9.79-23.74-12.22-28.15-22.73-2.43-5.78.07-12.22 3.6-17.59 7.56-11.5 20.24-21.6 20.9-34.75.46-9.03-5.63-18.08-15.06-22.35-9.88-4.48-23.57-3.92-30.86 3.5-7.5 7.62-20.7 10.56-32 10.17z" fill="#166DFF" opacity=".1"/><path d="M106.06 71.56L100 67.48l3.05-4.55-16-1.28-5.75 4.45-7.2-4.04-6 .72-.07-1.58c-.08-1.65-.24-3.3-.5-4.93.02-.49.04-1.06.04-1.67 0-2.6-.35-6.05-1.9-8.35l.36-3.2-2.9-3.42a21.83 21.83 0 011.9-3.07 7.18 7.18 0 006.7-7.13c0-.17 0-.34-.02-.52l-.02-.2 1.1.59.24.31.02.02.11.14.04.04.12.14.03.03a7.83 7.83 0 00.37.4l.15.13.04.04.4.32.04.04.17.11.06.04.2.12.02.01.23.12.04.02.2.08.06.02.2.07h.05l.27.06.26.03h.33c.1 0 .2-.02.29-.04.44-.06.86-.2 1.24-.44.1-.07.18-.15.26-.24.4-.52-.04-1.09-.04-1.09-.16-.36-1.16-.62-1.16-.62s-3.16-1.32-3.16-2.38c0-1.05-.8-6.5-8.96-7.76 0 0-5.32-.3-6.81 2.55l-.03.33c-.44.28-.8.83-1.24.99-.19.04-.37.1-.54.2v-.04c-.05.04-.09.1-.12.16-.09.18-.14.38-.16.59a2.24 2.24 0 01-.38.9l-.03.05c.23.02.46-.02.67-.1-.03.27-.1.53-.2.79.26 0 .5-.14.61-.37v-.01l.03-.04c.05-.1.09-.19.12-.29l-.02.03.12-.39a.6.6 0 01.1-.2c.1-.1.25-.15.4-.13l-.08 1.71h.04c-.05.13-.1.25-.18.36-.28.46-.79.77-.97 1.27-.09.24-.12.5-.1.74l.03.45v-.01c.03.4.04.77-.17 1.09-.15.22-.39.38-.47.63a.61.61 0 00-.03.21 2.4 2.4 0 00.14.63c.05.15.06.3.03.46-.09.4-.57.73-.54 1.1 0 .06 0 .1.02.15.09.19.25.33.44.4.3.17.66.25 1 .22.14-.02.27-.07.39-.13l-.43.93-.07.15s-1.22-.82-1.92.84c-.2.35-.34.73-.43 1.12-.03.16-.08.31-.14.46-.31.52-.77.94-1.32 1.19-1.42.64-7.14 7.78-7.24 9.63-.05.72-.17 1.43-.37 2.13a12.69 12.69 0 00-.34 5.04c.07.55.2 1.09.35 1.61.61 1.85 1.02 5.3 1.02 5.3l.65 5.97c-.02.82.02 1.65.11 2.47-.67.77-3.36 3.96-2.33 4.83.79.68 2.17.57 2.95.43-.65 1.62-1.69 4.43-1.82 6.37-.2 2.86.34 6.65 1.18 8.1.85 1.47 3.68 5.2 3.68 5.2s-.13 5.12.88 6.99c1.01 1.86 1.42 5.72 1.42 5.72s.94 3.26.47 4.46c-.47 1.2.88 2.2-.54 2.99-1.42.8-3.23 18.77-3.23 18.77s-.73 11.77 0 12.37l.13.07v3.96s-.51.83 1.55 1c1.4.11 5.4.37 7.78.52l1.84.11s4.35.87 6.27 0 5.33-.85 4.83-3.13a6.51 6.51 0 00-.27-.92c-.56-1.42-1.5-1.58-3.24-1.98l-.29-.06c-1.83-.31-2.43.54-3.46-.57-.89-.96-3.73-2.03-4.7-2.38l.08-.2a1.45 1.45 0 01-.73-.37l2.62.17 1.56.1s3.7.73 5.34 0c1.64-.74 4.53-.72 4.1-2.67a5.58 5.58 0 00-.23-.78c-.47-1.2-1.28-1.34-2.75-1.67l-.25-.05c-1.55-.27-2.06.45-2.94-.49-.74-.8-3.1-1.7-3.95-2 0-.45-.6-1.07-.97-1.7-.44-.73.37-3.3.37-3.3l.46-10.62c.18-.08.37-.13.56-.16 0 0 2.1-2 1.62-4.13-.1-.64-.15-1.29-.15-1.94a10 10 0 001.9-2.17c.44-.94 0-5.53 0-5.53V87.94l3.5.35 3.18.33.97.1 3.18.32 7.3.74 6.58-1.25 2.84-.54 5.86-1.1V72.55l6.06-1zM57.86 24.1l-.4-.04c.13 0 .27.03.4.04z" fill="url(#a)"/><path d="M91.86 80.86c-1.98 2.83-9.1 1.33-9.1 1.33l-5.5-5.16-.75-.7 1.25-2.64 1.07.3c3.56 1.04 14.7 4.5 13.03 6.87z" fill="#EFB7B9"/><path d="M78.83 74a11.6 11.6 0 01-1.58 3.03l-.74-.7 1.25-2.64 1.07.3z" fill="#000" opacity=".1"/><path d="M59.92 44.2s-5.08 2.25-4.83 7.78c.18 3.56.57 7.11 1.17 10.63 0 0-1.04 8.33 3.28 10.48 4.33 2.14 8.33 3.9 8.33 3.9s6.77.74 7.6 1.04c.85.3 3.47-4.3 2.99-5.02-.49-.71-6.7-2.21-7.49-3.41-.79-1.2-2.62-1.93-2.62-1.93s-1.89-1.15-2.02-2.18c-.12-1.03.37-1.8.5-2.25.13-.46.45-4.83.45-4.83s2.13-15.57-7.36-14.22z" fill="#DCE6F2"/><path d="M63.28 62.39s-6.97 1.16-6.3 3.6c0 0 2.53-2.63 6.3-3.6zM63.33 63.37s-3.83 3.13-3.08 3.3c.75.15 3.08-3.3 3.08-3.3zM65.17 64.46s-1.02 2.1-.4 1.96c.64-.14.4-1.96.4-1.96z" fill="#000" opacity=".1"/><path d="M79.08 74.22l-.42-.12c.12-.4.16-.72.06-.87-.49-.71-6.7-2.21-7.48-3.4-.8-1.2-2.62-1.94-2.62-1.94s-1.9-1.14-2.02-2.18c-.13-1.03.37-1.8.5-2.25.12-.46.44-4.83.44-4.83s2.13-15.57-7.36-14.22c0 0-5.08 2.26-4.83 7.8.18 3.56.57 7.1 1.16 10.63 0 0-1.03 8.32 3.29 10.47 4.32 2.15 8.33 3.91 8.33 3.91s6.76.73 7.6 1.03c.32.11.9-.48 1.46-1.3l.32.3 5.51 5.16s7.11 1.5 9.1-1.33c1.66-2.38-9.47-5.83-13.04-6.86z" fill="#000" opacity=".1"/><path d="M57 23.42c-.2.04-.38.11-.55.22-.2.16-.2.44-.24.69-.06.34-.2.66-.4.94.23.02.45-.02.66-.1-.04.26-.1.53-.2.78.25.01.48-.13.6-.36.1-.22.18-.45.24-.7a.57.57 0 01.1-.19c.18-.22.52-.12.8-.1.47.05.93-.17 1.2-.57.3-.45.32-1.61-.4-1.73-.74-.13-1.2.9-1.8 1.12z" fill="#965D7B"/><g opacity=".1" fill="#000"><path d="M56.43 23.88l.05-.3c-.18.17-.2.45-.24.7-.03.14-.07.28-.12.41.16-.25.26-.52.31-.81zM56.5 25.51c.1-.25.16-.52.2-.79-.2.09-.42.12-.63.11-.07.14-.14.27-.23.4.22.01.45-.02.66-.11-.04.27-.1.54-.2.8.25 0 .48-.14.6-.37l.11-.28a.6.6 0 01-.51.24zM58.23 24.17c-.28-.03-.62-.13-.8.09a.61.61 0 00-.1.2l-.04.16c.19-.15.49-.07.75-.05.47.04.93-.18 1.2-.58.06-.1.1-.2.13-.3-.27.33-.7.52-1.14.48z"/></g><path fill="#DCE6F2" d="M62.96 39.76l3.01 3.63-.4 3.66-3.64-5.7z"/><path fill="#000" opacity=".1" d="M65.97 43.4l-.37 3.43-.02.22-3.3-5.15-.35-.55.1-.17.92-1.42.2.25z"/><path d="M67.54 34.85c-1.02.3-2 1.3-2.85 2.52A21.5 21.5 0 0063.16 40c-.28.56-.53 1.1-.73 1.56l-.14.33c-.35.81-.54 1.36-.54 1.36s-7.81-5.88-6.58-6.27c.42-.14.96-1.03 1.5-2.15l.07-.14c.34-.72.68-1.52.98-2.28.61-1.55 1.06-2.9 1.06-2.9s11.87 4.44 8.76 5.33z" fill="#EFB7B9"/><path d="M72.21 29.19s1.8 3.26 4.23 2.82c2.42-.45 1.43-1.75 1.43-1.75l-5.66-1.07z" fill="#444053"/><path d="M68.72 142.18c-1.6.73-5.22 0-5.22 0l-1.52-.1c-1.98-.13-5.29-.34-6.46-.43-1.71-.14-1.3-.84-1.3-.84v-4.24l8.3-2.1s3.28 1.12 4.18 2.1c.85.94 1.35.22 2.87.49l.24.05c1.44.33 2.23.46 2.69 1.66.1.25.17.5.22.77.43 1.92-2.4 1.91-4 2.64z" fill="#A36468"/><path d="M72.5 138.77c-.3.18-.61.34-.94.47-1.08.5-2.12 1.1-3.22 1.58-1.1.46-2.28.8-3.47.7-.63-.04-1.26-.19-1.86-.01-.37.14-.71.33-1.03.57-1.98-.13-5.29-.34-6.46-.43-1.71-.14-1.3-.84-1.3-.84v-.5l.22-.02c.4-.01.82.05 1.2.18l2.58.69c.14-.54.5-1 .99-1.26a3.15 3.15 0 011.6-.37c1.32.02 2.58.65 3.91.71.37.04.75-.03 1.09-.18.18-.09.34-.22.52-.32.28-.14.58-.24.9-.3.87-.22 1.72-.5 2.56-.83.23-.1.51-.26.48-.52-.04-.33-.57-.37-.7-.68a.4.4 0 010-.35l.24.05c1.44.33 2.23.46 2.69 1.66z" fill="#000" opacity=".1"/><path d="M67.03 151.43c-1.88.86-6.14 0-6.14 0l-1.79-.1c-2.31-.15-6.22-.4-7.6-.51-2.01-.17-1.52-1-1.52-1v-4.98l9.76-2.47s3.86 1.32 4.92 2.47c1 1.1 1.58.25 3.38.57l.28.06c1.7.4 2.62.54 3.16 1.95.11.3.2.6.26.9.5 2.28-2.83 2.26-4.71 3.11z" fill="#A36468"/><path d="M71.48 147.42c-.35.22-.72.4-1.1.56-1.28.59-2.5 1.3-3.8 1.85-1.29.55-2.68.95-4.08.84-.74-.05-1.49-.23-2.18-.02-.43.17-.84.4-1.22.68-2.31-.15-6.22-.4-7.6-.51-2.01-.17-1.52-1-1.52-1v-.57l.25-.03c.48-.01.96.06 1.42.21l3.03.82a2.4 2.4 0 011.17-1.49 3.7 3.7 0 011.88-.43c1.56.02 3.05.76 4.61.84.44.04.87-.04 1.27-.21.22-.11.4-.27.62-.39a4.3 4.3 0 011.05-.35c1.02-.26 2.02-.58 3-.98.28-.1.6-.3.57-.6-.05-.4-.67-.44-.84-.8a.48.48 0 01.02-.42l.28.06c1.7.38 2.62.53 3.17 1.94z" fill="#000" opacity=".1"/><path d="M62.77 117.21l-.52 12.43s-.8 2.54-.37 3.27c.43.72 1.16 1.45.9 1.88-.27.42-3.43 5.07-4.46 3.29-1.02-1.79-2.03-9.5-2.03-9.5l.94-9.53 5.54-1.84zM65.06 86.25l1.47 1.96v17.07s.43 4.55 0 5.49c-.43.94-2.6 2.81-2.6 2.81l-1.83-9.4.4-9.93 2.56-8z" fill="#444053"/><path d="M62.77 117.21l-.52 12.43s-.8 2.54-.37 3.27c.43.72 1.16 1.45.9 1.88-.27.42-3.43 5.07-4.46 3.29-1.02-1.79-2.03-9.5-2.03-9.5l.94-9.53 5.54-1.84zM65.06 86.25l1.47 1.96v17.07s.43 4.55 0 5.49c-.43.94-2.6 2.81-2.6 2.81l-1.83-9.4.4-9.93 2.56-8z" fill="#000" opacity=".1"/><path d="M66.53 78.97v9.23l-1.65 7.18s-.52 17.35-.06 19.46c.46 2.1-1.59 4.09-1.59 4.09s-1.18.13-1.18 1.05-1.98 3.56-1.98 3.56l.06 5.14s.86 9.63-.46 11.48c-1.32 1.84.46 2.1.46 2.1-1.64 5.42-9.56 4.16-10.27 3.57-.71-.6 0-12.27 0-12.27s1.77-17.8 3.15-18.6c1.39-.78.07-1.77.53-2.96.46-1.18-.46-4.42-.46-4.42s-.4-3.82-1.38-5.67c-1-1.84-.86-6.92-.86-6.92s-2.77-3.7-3.6-5.14c-.82-1.45-1.35-5.21-1.15-8.05.13-1.92 1.14-4.7 1.78-6.31.3-.77.53-1.27.53-1.27l.19.05 10.8 2.83 7.14 1.87z" fill="#444053"/><path d="M67.54 34.85c-1.02.3-2 1.3-2.85 2.52h-.22a7.07 7.07 0 01-6.75-4.96c.6-1.56 1.06-2.9 1.06-2.9s11.87 4.45 8.76 5.34z" fill="#000" opacity=".1"/><path d="M71.54 29.9a7.07 7.07 0 110-.51v.52z" fill="#EFB7B9"/><path d="M65.6 46.83l-.02.22-3.3-5.14c-.34.81-.53 1.36-.53 1.36s-7.81-5.89-6.58-6.28c.42-.14.96-1.03 1.5-2.15l.07-.14c.58 1.7 3.9 5.13 5.3 6.5l.4.38.2.2.11.1c.5.53 2.64 2.82 2.85 4.95z" fill="#000" opacity=".1"/><path d="M68.06 64.29l-.36 11.58-.06 2.07s-4.27-.4-8.25-.83c-3.2-.35-6.22-.73-6.69-.95-.6-.28-1.87-.5-2.87-.63-.77-.11-1.38-.17-1.38-.17s-.23.07-.58.14c-.76.13-2.1.25-2.89-.43-1-.87 1.63-4.03 2.28-4.78l.15-.17-.25-2.28-.64-5.93s-.4-3.41-1-5.24a9.67 9.67 0 01-.33-1.6c-.22-1.66-.11-3.36.33-4.99.19-.69.3-1.4.36-2.11.1-1.83 5.68-8.9 7.07-9.55a2.94 2.94 0 001.63-2.03c.6-2.57 2.1-1.55 2.1-1.55.36 2.01 5.96 7.34 5.96 7.34l.11.11c.56.57 3.03 3.25 2.86 5.53-.04.85.09 1.7.37 2.5a42.28 42.28 0 011.95 11.08l.13 2.89z" fill="#DCE6F2"/><path d="M60.12 50.53s-1.39 3.36-2.42 3.9c-1.04.55 2.91 1.15 2.42-3.9zM61.16 56.8s-3.17.4-3.17 1 3.17-1 3.17-1zM64.47 60.67s-4.6 9.79-5.88 10.09c-1.29.3 5.88-10.1 5.88-10.1zM62.55 42.68l-3.8 1.65-4.6-6.94c.1-.2.18-.4.22-.61.6-2.57 2.1-1.55 2.1-1.55.36 2.01 5.97 7.34 5.97 7.34l.11.1z" fill="#000" opacity=".1"/><path d="M62.75 42.28l-3.8 1.65-4.6-6.93c.1-.2.17-.4.22-.62.6-2.57 2.1-1.55 2.1-1.55.36 2.01 5.96 7.34 5.96 7.34l.12.11z" fill="#DCE6F2"/><path d="M67.64 77.94s-4.27-.4-8.25-.83l7.14 1.87v2.17c-.31.28-.58.43-.76.36-.82-.35-7.54-1.44-7.54-1.44s-3.9-1.98-8.1-4.35l-.3-.19c-.5-.33-.92-.75-1.25-1.25a8.86 8.86 0 01-1.32-3.99c-.1-.8-.13-1.63-.1-2.44.02-.93.1-1.86.25-2.77-.4-3.55-.6-7.11-.6-10.68.05-5.54 5.25-7.52 5.25-7.52 9.54-.84 6.58 14.59 6.58 14.59s-.55 4.35-.7 4.8c-.15.44-.69 1.18-.62 2.22.08 1.04 1.9 2.28 1.9 2.28s1.78.84 2.51 2.07c.54.91 4 2.15 5.97 3.03l-.06 2.07zM70.83 25.51c0 .33-.06.65-.2.95-.1.24-.21.48-.35.7-.2.42-.5.79-.86 1.08-.46.33-1.04.42-1.59.55-.54.13-1.11.34-1.43.81-.17.3-.28.63-.33.97-.05.34-.19.66-.4.94a.78.78 0 01-.92.22.94.94 0 01-.36-.46c-.23-.51-.28-1.07-.37-1.62a3.45 3.45 0 00-.56-1.56c-.34-.44-.93-.73-1.46-.55a1.4 1.4 0 00-.8.76 4.4 4.4 0 00-.29 1.1 62.39 62.39 0 01-.87 4 .37.37 0 01-.06.15.28.28 0 01-.2.08c-.44.06-.87-.25-1.32-.22-.04 0-.09.01-.13.03a7.07 7.07 0 01.71-8.08h.04c.3-.11.56-.28.79-.5.28-.29.55-.6.79-.92l.16-.2c.45-.54.97-1.04 1.54-1.46.16-.13.33-.23.53-.29.16-.03.33-.04.5-.01.68.08 1.37.1 2.05.07.48-.07.97-.12 1.45-.14 1.25.03 2.32.92 3.11 1.89.43.5.8 1.06.83 1.71z" fill="#000" opacity=".1"/><path d="M57.39 26.63c-.28.45-.77.75-.96 1.25-.27.72.19 1.61-.23 2.25-.14.22-.38.38-.46.63-.13.41.24.86.14 1.29-.1.43-.66.79-.5 1.2a.8.8 0 00.43.4c.3.18.64.25.99.22.54-.09.94-.62 1.49-.66.44-.03.87.28 1.31.22a.3.3 0 00.2-.08 64.79 64.79 0 00.94-4.15c.04-.38.14-.75.3-1.1.14-.35.43-.63.78-.76.53-.17 1.12.11 1.46.56.34.44.47 1 .56 1.55.1.55.15 1.11.37 1.62.07.19.2.35.36.46.3.17.7.04.93-.22.2-.28.34-.6.4-.94.04-.34.16-.67.33-.97.3-.46.88-.68 1.43-.8.54-.14 1.12-.23 1.58-.56.36-.3.66-.66.86-1.07.3-.52.57-1.07.55-1.66-.03-.64-.4-1.2-.81-1.7-.8-.98-1.87-1.86-3.12-1.9-.48.03-.97.07-1.44.15-.7.03-1.38 0-2.06-.08a1.62 1.62 0 00-.5.02c-.2.06-.37.16-.53.29-.57.42-1.09.91-1.54 1.46-.3.39-.61.76-.95 1.1-.23.23-.5.4-.8.5-.2.06-.4.02-.58.08-.58.19-.66.95-.93 1.4z" fill="#965D7B"/><path d="M76.44 32c-1.58.3-2.9-.98-3.62-1.92a7.76 7.76 0 01-.6-.9l5.42 1.03.22.05s1 1.3-1.42 1.75z" fill="#000" opacity=".1"/><g opacity=".1" fill="#000"><path d="M55.88 31.48c.03-.26-.01-.52-.11-.76l-.03.06c-.08.27.03.54.1.82a.6.6 0 00.04-.12zM56.35 28.24c-.02.28-.01.55.02.82a4.4 4.4 0 00-.02-.82zM70.1 26.4c-.22.41-.51.78-.87 1.07-.46.33-1.04.42-1.59.55-.55.13-1.11.34-1.43.81-.17.3-.28.63-.33.97-.05.34-.19.66-.4.94-.22.26-.62.4-.92.22a.95.95 0 01-.36-.46c-.22-.51-.28-1.07-.37-1.62a3.42 3.42 0 00-.56-1.55c-.34-.45-.93-.74-1.46-.56-.36.13-.64.41-.8.76-.14.35-.24.72-.29 1.1a62.91 62.91 0 01-.87 4c0 .05-.03.1-.06.15a.3.3 0 01-.2.08c-.44.06-.87-.25-1.32-.22-.54.04-.94.57-1.48.66-.35.03-.7-.04-1-.22a1.06 1.06 0 01-.36-.26c-.09.14-.12.3-.07.47.09.18.24.32.44.4.3.17.64.24.99.21.54-.09.94-.62 1.48-.66.45-.03.88.28 1.32.22a.3.3 0 00.2-.08l.06-.15c.33-1.32.62-2.65.87-4 .05-.38.15-.75.3-1.1.15-.35.43-.63.79-.77.53-.17 1.12.12 1.46.56.34.45.47 1.01.56 1.56.09.55.15 1.11.37 1.62.07.19.2.35.36.46.3.17.7.04.92-.22.21-.28.35-.6.4-.94.05-.34.16-.67.33-.97.32-.47.89-.68 1.43-.81.55-.14 1.13-.22 1.59-.55.36-.3.65-.66.86-1.08.3-.5.57-1.06.55-1.65l-.03-.22c-.1.45-.27.88-.52 1.27z"/></g><path d="M70.64 26.45c.51.9.81 1.9.88 2.94-1.76-.99-3.42-2.07-4.25-2.45-1.46-.66-6.91-.56-8.96-.5a6.91 6.91 0 012.38-2.5 7.08 7.08 0 019.96 2.5v.01zM76.93 31.17c-.95.29-2.5-.28-4.11-1.09a7.76 7.76 0 01-.6-.9l5.42 1.03c.36.25.45.6-.7.96z" fill="#000" opacity=".1"/><path d="M64.9 19.6s-5.2-.3-6.66 2.52l-.24 2.5-.4-.05-.07 1.7s7.94-.35 9.74.47c1.8.81 7.42 4.92 9.67 4.23 2.25-.7-.2-1.34-.2-1.34s-3.1-1.3-3.1-2.34c0-1.02-.76-6.46-8.75-7.7z" fill="#444053"/><path d="M54.88 112.22s3.31 3.21 4.74 2.96c0 0-4.05-.34-4.74-2.96zM54.18 113.7s.3 1.66 1.1 1.5c.78-.17-1.1-1.5-1.1-1.5zM59.38 141.35s-4.7 3.65-3.91 3.75c.79.1 3.9-3.75 3.9-3.75z" fill="#000" opacity=".1"/><path fill="#166DFF" d="M65.67 68.71l15.23-2.48v14.42l-14.47-.75z"/><path fill="#000" opacity=".05" d="M65.67 68.71l15.23-2.48v14.42l-14.47-.75z"/><path fill="#166DFF" d="M80.9 66.23l18.27 1.37-1.01 12.55-17.26.5z"/><path fill="#000" opacity=".1" d="M80.9 66.23l18.27 1.37-1.01 12.55-17.26.5z"/><path fill="#166DFF" d="M86.52 61.83l-5.62 4.4 18.27 1.37 2.98-4.5zM60.15 63.9l13.72-1.67 7.03 4-15.23 2.48z"/><path fill="#166DFF" d="M84.24 69.98v19.71l-7.13-.73-3.1-.32-.95-.1-3.1-.31-4.29-.44V68.7l15.23 1.04zM99.17 67.6v19.23l-5.72 1.1-2.78.53-6.43 1.23V69.98z"/><path fill="#000" opacity=".05" d="M99.17 67.6v19.23l-5.72 1.1-2.78.53-6.43 1.23V69.98z"/><path fill="#166DFF" d="M60.15 72.86l5.52-4.15 18.57 1.27-2.73 4.6z"/><path fill="#FFF" opacity=".1" d="M60.15 72.86l5.52-4.15 18.57 1.27-2.73 4.6z"/><path fill="#166DFF" d="M99.17 67.6l-14.93 2.38 4.86 4.35 15.99-2.68z"/><path fill="#FFF" opacity=".1" d="M99.17 67.6l-14.93 2.38 4.86 4.35 15.99-2.68zM93.45 87.92l-2.78.54v-4.11l2.6-.66zM77.1 86.24v2.72l-3.1-.32v-2.4zM73.06 87.1v1.45l-3.1-.32V87.1z"/><path d="M82.37 84.8c-2.12 2.72-9.15.84-9.15.84l-5.21-5.44-.71-.74 1.38-2.57 1.06.36c3.5 1.22 14.42 5.26 12.63 7.55z" fill="#000" opacity=".1"/><path d="M82.18 84.4c-2.13 2.73-9.15.85-9.15.85L67.8 79.8l-.71-.74 1.38-2.57 1.06.36c3.5 1.23 14.43 5.27 12.64 7.56z" fill="#EFB7B9"/><path d="M69.53 76.85a11.7 11.7 0 01-1.73 2.95l-.7-.74 1.38-2.57 1.05.36z" fill="#000" opacity=".1"/><path d="M52.26 46.09s-5.2 1.98-5.25 7.51c0 3.57.19 7.14.6 10.69 0 0-1.49 8.26 2.72 10.63 4.2 2.37 8.1 4.35 8.1 4.35s6.72 1.09 7.55 1.44c.82.34 3.69-4.1 3.24-4.85-.44-.74-6.56-2.57-7.28-3.8-.73-1.24-2.52-2.08-2.52-2.08s-1.82-1.24-1.9-2.28c-.07-1.04.47-1.78.62-2.23.16-.44.7-4.8.7-4.8s2.96-15.43-6.58-14.58z" fill="#DCE6F2"/><path d="M54.63 64.43s-7.02.79-6.48 3.26c0 0 2.67-2.5 6.48-3.26zM54.63 65.41s-3.99 2.92-3.26 3.12c.74.2 3.26-3.12 3.26-3.12zM56.4 66.6s-1.13 2.05-.49 1.94c.65-.1.5-1.94.5-1.94z" fill="#000" opacity=".1"/><path d="M129.53 22.23s-7.52-.45-6.64 4.82c0 0-.18.94.67 1.36 0 0 .01-.4.77-.26.27.05.54.06.82.04a1.7 1.7 0 001-.41s2.11-.88 2.94-4.33c0 0 .6-.76.59-.95l-1.27.54s.43.92.09 1.68c0 0-.04-1.65-.28-1.6-.05 0-.66.31-.66.31s.74 1.6.18 2.76c0 0 .21-1.97-.42-2.64l-.9.52s.88 1.65.29 2.99c0 0 .15-2.06-.47-2.87l-.81.63s.82 1.63.32 2.75c0 0-.06-2.4-.5-2.59 0 0-.7.63-.81.89 0 0 .56 1.18.21 1.8 0 0-.21-1.6-.4-1.61 0 0-.7 1.06-.77 1.78.03-.67.24-1.32.6-1.89-.4.08-.78.27-1.08.56 0 0 .11-.75 1.26-.81 0 0 .6-.8.74-.86 0 0-1.14-.1-1.83.21 0 0 .6-.7 2.04-.4l.79-.64s-1.5-.2-2.14.02c0 0 .73-.63 2.35-.17l.87-.52s-1.27-.28-2.04-.18c0 0 .8-.43 2.3.04l.62-.28s-.94-.19-1.2-.22c-.28-.03-.3-.1-.3-.1.6-.1 1.2-.03 1.76.2 0 0 1.34-.48 1.3-.57z" fill="#166DFF"/><path d="M152.37 48.61s-7.52-.45-6.64 4.82c0 0-.18.93.67 1.36 0 0 .01-.4.77-.26.27.04.55.06.82.04.37-.03.71-.17.99-.41 0 0 2.12-.88 2.94-4.34 0 0 .6-.75.58-.94l-1.27.54s.44.91.1 1.68c0 0-.05-1.65-.29-1.61-.05 0-.66.32-.66.32s.75 1.6.18 2.75c0 0 .22-1.96-.41-2.64l-.89.52s.87 1.65.28 3c0 0 .16-2.07-.47-2.87l-.8.63s.81 1.62.32 2.74c0 0-.07-2.4-.5-2.58 0 0-.7.62-.82.88 0 0 .56 1.18.22 1.8 0 0-.22-1.6-.4-1.6 0 0-.7 1.05-.78 1.77.04-.67.25-1.32.61-1.89-.4.08-.78.28-1.08.56 0 0 .1-.75 1.25-.81 0 0 .59-.8.74-.86 0 0-1.14-.09-1.83.22 0 0 .61-.71 2.04-.39l.8-.65s-1.5-.2-2.14.02c0 0 .73-.63 2.35-.17l.87-.52s-1.28-.28-2.04-.18c0 0 .8-.43 2.3.04l.62-.28s-.94-.18-1.22-.21c-.27-.03-.28-.1-.28-.1.59-.1 1.2-.04 1.76.19 0 0 1.33-.49 1.31-.57zM106.7 43.93s1.73-7.34-3.62-7.36c0 0-.88-.34-1.44.42 0 0 .38.08.12.8-.1.26-.15.53-.18.8-.04.37.04.74.24 1.05 0 0 .5 2.24 3.75 3.64 0 0 .65.73.84.74l-.32-1.35s-.97.27-1.67-.2c0 0 1.63.24 1.63 0 0-.04-.2-.7-.2-.7s-1.7.46-2.74-.29c0 0 1.9.55 2.67.04l-.35-.97s-1.78.58-3-.24c0 0 2 .5 2.9.03l-.48-.9s-1.74.53-2.76-.16c0 0 2.38.35 2.63-.04 0 0-.5-.8-.73-.96 0 0-1.25.35-1.8-.1 0 0 1.6.07 1.64-.1 0 0-.92-.88-1.63-1.08.66.15 1.27.47 1.76.92 0-.41-.13-.82-.37-1.16 0 0 .72.24.6 1.39 0 0 .69.7.71.87 0 0 .29-1.1.1-1.84 0 0 .6.72.04 2.08l.5.9s.46-1.45.35-2.11c0 0 .49.82-.24 2.34l.37.95s.49-1.21.52-1.98c0 0 .3.87-.43 2.26l.17.66s.34-.9.42-1.16c.07-.26.15-.26.15-.26 0 .6-.17 1.19-.5 1.7 0 0 .27 1.38.35 1.37zM90.24 46.43s-6.04-4.52-8.2.38c0 0-.66.68-.18 1.5 0 0 .22-.32.79.2.2.2.42.35.66.49.32.18.7.25 1.06.2 0 0 2.25.43 4.84-2 0 0 .92-.3 1-.48l-1.36-.24s-.14 1-.84 1.45c0 0 .87-1.4.64-1.5l-.72-.1s-.26 1.75-1.36 2.41c0 0 1.26-1.52 1.1-2.43l-1.03-.06s-.18 1.86-1.42 2.66c0 0 1.26-1.64 1.2-2.65l-1.03.08s-.21 1.8-1.24 2.46c0 0 1.26-2.04 1-2.43 0 0-.93.13-1.16.29 0 0-.18 1.3-.82 1.62 0 0 .7-1.45.56-1.55 0 0-1.17.5-1.63 1.06.4-.54.93-.97 1.55-1.24-.39-.16-.8-.2-1.21-.13 0 0 .5-.57 1.5 0 0 0 .92-.34 1.08-.3 0 0-.9-.7-1.65-.83 0 0 .9-.25 1.92.8l1.03-.11s-1.14-.99-1.8-1.16c0 0 .96-.12 2.06 1.15l1.01.05s-.92-.93-1.6-1.27c0 0 .9.08 1.9 1.3l.67.1s-.69-.67-.9-.84c-.21-.18-.18-.25-.18-.25.55.24 1.02.64 1.36 1.13a8 8 0 001.4.24zM110.34 4.47s-6.04-4.52-8.2.37c0 0-.65.69-.18 1.5 0 0 .22-.31.79.21.2.19.42.35.66.48.33.18.7.25 1.06.2 0 0 2.25.44 4.84-2 0 0 .92-.3 1-.47l-1.35-.24s-.14 1-.85 1.45c0 0 .87-1.4.65-1.5-.05-.02-.73-.1-.73-.1s-.26 1.76-1.37 2.41c0 0 1.26-1.52 1.1-2.43l-1.03-.06s-.18 1.86-1.41 2.66c0 0 1.26-1.64 1.19-2.66l-1.03.09s-.2 1.8-1.24 2.46c0 0 1.27-2.04 1.01-2.43 0 0-.94.13-1.17.29 0 0-.18 1.3-.81 1.62 0 0 .7-1.45.56-1.56 0 0-1.17.5-1.63 1.07.4-.54.93-.97 1.54-1.24-.38-.16-.8-.2-1.21-.13 0 0 .5-.57 1.5 0 0 0 .93-.34 1.09-.3 0 0-.9-.7-1.65-.83 0 0 .9-.25 1.91.8l1.03-.11s-1.14-1-1.8-1.16c0 0 .96-.12 2.06 1.15l1.02.05s-.92-.94-1.61-1.27c0 0 .9.08 1.9 1.29l.67.1s-.68-.65-.9-.82c-.21-.17-.18-.25-.18-.25.55.25 1.02.64 1.36 1.13 0 0 1.38.3 1.41.23zM133.41 10.2s-2.41-7.15-6.96-4.34c0 0-.93.2-1 1.13 0 0 .36-.14.52.61.06.27.15.53.27.78.16.33.43.6.76.77 0 0 1.6 1.63 5.12 1.09 0 0 .93.28 1.1.18l-1-.97s-.67.75-1.51.72c0 0 1.51-.66 1.38-.87-.02-.04-.54-.5-.54-.5s-1.2 1.3-2.48 1.21c0 0 1.9-.54 2.29-1.38l-.82-.63s-1.2 1.43-2.67 1.38c0 0 1.98-.63 2.48-1.51l-.9-.51s-1.18 1.37-2.4 1.32c0 0 2.19-.96 2.2-1.43 0 0-.85-.42-1.13-.42 0 0-.88.96-1.58.88 0 0 1.4-.8 1.34-.97 0 0-1.24-.26-1.95-.05a3.86 3.86 0 011.98-.15 2.13 2.13 0 00-.93-.79s.74-.18 1.23.86c0 0 .97.24 1.07.36 0 0-.34-1.09-.88-1.61 0 0 .88.3 1.12 1.74l.9.5s-.37-1.47-.82-1.98c0 0 .86.44 1.04 2.11l.82.61s-.23-1.29-.6-1.96c0 0 .7.59.82 2.15l.5.47s-.19-.94-.26-1.2c-.08-.27-.02-.29-.02-.29.32.51.48 1.1.48 1.7 0 0 .96 1.03 1.03.98zM117.66 10.54s-7.5-.83-6.88 4.49c0 0-.22.92.6 1.38 0 0 .03-.4.79-.21.26.05.54.08.81.08.37-.01.73-.14 1.02-.37 0 0 2.16-.76 3.17-4.17 0 0 .64-.73.63-.92l-1.3.48s.4.93 0 1.68c0 0 .04-1.65-.2-1.62-.05 0-.67.28-.67.28s.66 1.64.04 2.77c0 0 .31-1.95-.28-2.66l-.92.48s.79 1.7.13 3c0 0 .25-2.05-.33-2.88l-.84.6s.74 1.66.18 2.75c0 0 .06-2.4-.36-2.61 0 0-.74.6-.86.84 0 0 .5 1.2.12 1.8 0 0-.13-1.6-.3-1.62 0 0-.76 1.03-.87 1.75.06-.67.3-1.31.7-1.86-.41.06-.8.24-1.1.5 0 0 .14-.73 1.29-.74 0 0 .62-.77.79-.82 0 0-1.14-.15-1.84.12 0 0 .64-.67 2.05-.28l.84-.61s-1.51-.3-2.15-.1c0 0 .77-.6 2.36-.06l.9-.47s-1.27-.35-2.03-.28c0 0 .82-.4 2.29.15l.64-.25s-.93-.23-1.2-.27c-.28-.05-.29-.12-.29-.12.6-.07 1.2.03 1.75.28 0 0 1.33-.42 1.32-.5zM183.26 68.74s-7.5-.84-6.88 4.48c0 0-.22.92.6 1.38 0 0 .03-.4.79-.22.27.06.54.09.81.08.37 0 .73-.13 1.02-.36 0 0 2.16-.76 3.16-4.18 0 0 .64-.72.63-.91l-1.3.47s.4.94 0 1.69c0 0 .04-1.65-.2-1.62-.04 0-.67.28-.67.28s.67 1.63.04 2.77c0 0 .32-1.95-.28-2.66l-.92.48s.8 1.69.13 3c0 0 .26-2.05-.32-2.89l-.84.6s.73 1.66.18 2.75c0 0 .05-2.4-.37-2.6 0 0-.74.59-.86.83 0 0 .5 1.21.12 1.81 0 0-.13-1.6-.3-1.62 0 0-.76 1.02-.87 1.75.07-.67.3-1.31.7-1.86-.4.06-.8.23-1.1.5 0 0 .14-.74 1.29-.75 0 0 .62-.77.79-.81 0 0-1.13-.15-1.84.12 0 0 .64-.68 2.06-.28l.83-.62s-1.49-.28-2.14-.08c0 0 .77-.6 2.36-.05l.9-.48s-1.27-.34-2.03-.28c0 0 .82-.4 2.29.15l.64-.25s-.93-.23-1.2-.27c-.28-.04-.29-.12-.29-.12.6-.07 1.2.03 1.75.29 0 0 1.34-.44 1.32-.52zM194.71 75.74s-7.49-.84-6.87 4.48c0 0-.22.92.6 1.38 0 0 .03-.4.78-.22.27.06.54.09.82.08.37 0 .72-.13 1.01-.36 0 0 2.16-.76 3.16-4.18 0 0 .64-.72.63-.91l-1.3.47s.4.94 0 1.68c0 0 .04-1.64-.2-1.61-.05 0-.67.28-.67.28s.66 1.63.04 2.77c0 0 .31-1.95-.28-2.66l-.92.48s.8 1.69.13 3c0 0 .26-2.05-.32-2.88l-.85.59s.74 1.66.19 2.75c0 0 .05-2.4-.37-2.6 0 0-.74.59-.86.84 0 0 .5 1.2.12 1.8 0 0-.13-1.6-.3-1.62 0 0-.76 1.02-.87 1.75.07-.67.3-1.31.7-1.86-.41.06-.8.23-1.1.5 0 0 .14-.74 1.29-.74 0 0 .62-.78.79-.82 0 0-1.13-.15-1.84.12 0 0 .64-.68 2.06-.28l.83-.61s-1.49-.29-2.14-.1c0 0 .77-.59 2.36-.04l.9-.48s-1.27-.34-2.03-.28c0 0 .82-.4 2.29.16l.64-.25s-.93-.23-1.2-.28c-.27-.04-.29-.12-.29-.12.6-.06 1.2.03 1.75.29 0 0 1.34-.44 1.32-.52zM169.28 16.78s-6.04-4.51-8.2.38c0 0-.65.68-.18 1.5 0 0 .22-.32.79.2.2.2.42.36.66.5.32.17.7.24 1.06.19 0 0 2.25.43 4.84-2 0 0 .92-.3 1-.47l-1.35-.25s-.14 1-.85 1.45c0 0 .87-1.4.65-1.5-.05-.02-.73-.1-.73-.1s-.25 1.75-1.36 2.41c0 0 1.26-1.53 1.1-2.44l-1.03-.05s-.18 1.86-1.41 2.66c0 0 1.26-1.64 1.19-2.66l-1.03.09s-.2 1.8-1.24 2.46c0 0 1.27-2.04 1-2.43 0 0-.93.13-1.16.29 0 0-.18 1.3-.81 1.62 0 0 .7-1.45.56-1.56 0 0-1.18.5-1.64 1.07.4-.55.94-.97 1.55-1.25-.38-.15-.8-.2-1.21-.12 0 0 .5-.57 1.5 0 0 0 .93-.34 1.08-.3 0 0-.9-.7-1.64-.83 0 0 .9-.26 1.91.8l1.03-.11s-1.14-1-1.8-1.16c0 0 .96-.12 2.06 1.15l1.02.05s-.92-.94-1.61-1.27c0 0 .9.08 1.9 1.29l.67.1s-.68-.66-.9-.83c-.2-.18-.18-.24-.18-.24.55.25 1.02.64 1.36 1.14 0 0 1.37.3 1.4.22zM173.94 49.39s-2.08-7.25-6.76-4.65c0 0-.93.15-1.05 1.09 0 0 .37-.12.5.64.05.27.13.53.24.79.14.34.4.62.72.8 0 0 1.53 1.7 5.06 1.33 0 0 .92.32 1.1.23l-.94-1.02s-.72.72-1.55.65c0 0 1.53-.6 1.41-.8-.02-.05-.51-.52-.51-.52s-1.26 1.24-2.54 1.1c0 0 1.93-.46 2.35-1.28l-.8-.67s-1.26 1.37-2.72 1.27c0 0 2-.55 2.54-1.4l-.86-.55s-1.26 1.31-2.48 1.21c0 0 2.24-.86 2.27-1.33 0 0-.83-.46-1.1-.47 0 0-.93.92-1.63.8 0 0 1.44-.74 1.38-.9 0 0-1.23-.31-1.94-.14.64-.2 1.32-.21 1.98-.06-.21-.36-.52-.65-.9-.83 0 0 .75-.15 1.2.91 0 0 .95.28 1.04.41 0 0-.29-1.1-.8-1.65 0 0 .86.33 1.04 1.79l.88.54s-.3-1.49-.73-2c0 0 .83.47.94 2.15l.8.65s-.17-1.3-.52-1.98c0 0 .68.61.73 2.17l.47.5s-.13-.95-.2-1.22c-.05-.27 0-.3 0-.3.3.52.44 1.12.41 1.72 0 0 .9 1.07.97 1.02zM127.57 65.72s-4.04-6.37-7.8-2.56c0 0-.85.4-.7 1.34 0 0 .32-.22.66.47.12.25.27.48.45.69.23.28.56.48.92.57 0 0 1.95 1.2 5.23-.16 0 0 .97.05 1.11-.08l-1.19-.72s-.49.9-1.3 1.06c0 0 1.3-.99 1.13-1.17-.03-.03-.64-.35-.64-.35s-.86 1.54-2.13 1.77c0 0 1.72-.98 1.9-1.89l-.95-.42s-.82 1.67-2.26 1.98c0 0 1.76-1.08 2.05-2.06l-1-.28s-.83 1.61-2.02 1.86c0 0 1.9-1.46 1.8-1.91 0 0-.92-.21-1.19-.15 0 0-.63 1.15-1.33 1.23 0 0 1.17-1.11 1.07-1.26 0 0-1.27.05-1.9.42a3.85 3.85 0 011.88-.62c-.3-.28-.68-.47-1.08-.54 0 0 .67-.35 1.38.54 0 0 1 0 1.13.1 0 0-.6-1-1.25-1.36 0 0 .93.07 1.51 1.42l1 .27s-.71-1.34-1.27-1.72c0 0 .94.23 1.51 1.8l.94.4s-.53-1.2-1.06-1.75c0 0 .83.4 1.32 1.88l.6.34s-.4-.87-.54-1.1c-.14-.25-.09-.3-.09-.3.43.42.73.95.87 1.54 0 0 1.19.78 1.24.72z" fill="#166DFF" opacity=".1"/><path d="M154.13 33.2s-3.84-6.5-7.71-2.8c0 0-.87.37-.75 1.3 0 0 .33-.2.65.5.11.25.25.49.42.7.23.3.55.5.9.6 0 0 1.91 1.26 5.24 0 0 0 .96.08 1.11-.05l-1.16-.75s-.52.87-1.34 1.02c0 0 1.34-.96 1.17-1.14-.03-.04-.63-.37-.63-.37s-.9 1.52-2.18 1.7c0 0 1.75-.93 1.96-1.82l-.94-.44s-.87 1.64-2.32 1.9c0 0 1.8-1.02 2.11-1.99l-.98-.31s-.88 1.58-2.09 1.8c0 0 1.96-1.4 1.86-1.86 0 0-.91-.24-1.18-.18 0 0-.67 1.12-1.38 1.18 0 0 1.2-1.07 1.12-1.22 0 0-1.28.01-1.92.36a3.86 3.86 0 011.9-.56c-.29-.3-.66-.5-1.06-.58 0 0 .68-.33 1.38.58 0 0 .99.04 1.12.14 0 0-.56-1-1.2-1.4 0 0 .93.1 1.46 1.47l1 .3s-.68-1.36-1.22-1.76c0 0 .93.26 1.46 1.85l.92.43s-.5-1.2-1-1.78c0 0 .82.43 1.26 1.92l.58.36s-.37-.88-.5-1.12c-.13-.24-.07-.3-.07-.3.41.44.7.98.82 1.57 0 0 1.14.8 1.2.74zM129.81 46.83s.2-7.54-5.03-6.47c0 0-.94-.15-1.34.71 0 0 .4 0 .29.76-.04.27-.04.55-.01.82.03.37.19.72.44.99 0 0 .94 2.09 4.43 2.8 0 0 .77.58.96.55l-.59-1.26s-.9.47-1.67.15c0 0 1.64-.1 1.6-.33 0-.05-.35-.66-.35-.66s-1.57.8-2.74.28c0 0 1.97.15 2.62-.5l-.55-.88s-1.62.93-2.98.38c0 0 2.06.08 2.85-.56l-.66-.8s-1.6.88-2.73.42c0 0 2.4-.15 2.57-.59 0 0-.65-.68-.9-.79 0 0-1.17.6-1.8.28 0 0 1.58-.27 1.6-.44 0 0-1.09-.68-1.82-.72.67 0 1.33.2 1.9.54-.08-.4-.29-.77-.58-1.06 0 0 .75.08.85 1.23 0 0 .83.55.88.7 0 0 .06-1.13-.27-1.81 0 0 .73.58.45 2.02l.68.78s.16-1.5-.1-2.14c0 0 .66.71.26 2.35l.55.85s.23-1.29.1-2.04c0 0 .46.79.04 2.3l.3.6s.16-.94.18-1.21c.02-.28.1-.3.1-.3.11.6.06 1.2-.15 1.77 0 0 .54 1.3.62 1.28z" fill="#166DFF"/><ellipse fill="#166DFF" opacity=".1" cx="138.47" cy="141.7" rx="5.33" ry="1"/><ellipse fill="#166DFF" opacity=".1" cx="119.05" cy="155.37" rx="5.33" ry="1"/><ellipse fill="#166DFF" opacity=".1" cx="18.62" cy="148.37" rx="5.33" ry="1"/><ellipse fill="#166DFF" opacity=".1" cx="159.46" cy="154.47" rx="5.33" ry="1"/><ellipse fill="#166DFF" cx="165" cy="143.05" rx="7.95" ry="1.35"/><path d="M168.3 140.84c.37-.29.63-.69.76-1.14.1-.45-.1-1-.53-1.16-.48-.19-1 .15-1.4.49-.4.34-.85.73-1.36.66.54-.5.78-1.23.64-1.95a.81.81 0 00-.18-.4c-.27-.28-.76-.16-1.08.07-1.03.73-1.32 2.12-1.32 3.38-.1-.45-.02-.92-.02-1.38 0-.46-.13-1-.53-1.23-.24-.14-.51-.2-.79-.2-.46-.02-.98.03-1.3.37-.39.42-.28 1.12.06 1.58.34.46.86.75 1.34 1.07a3 3 0 01.96.91c.02.05.05.1.06.17h2.9a8 8 0 001.8-1.24z" fill="#166DFF"/><path d="M15.05 144.18s3.03-.1 3.95-.74c.92-.66 4.68-1.43 4.9-.39.23 1.05 4.57 5.2 1.14 5.23-3.43.03-7.97-.53-8.88-1.1-.92-.55-1.11-3-1.11-3z" fill="#A8A8A8"/><path d="M25.1 147.92c-3.43.02-7.97-.54-8.89-1.1-.7-.42-.97-1.94-1.06-2.64h-.1s.2 2.45 1.1 3c.91.56 5.46 1.12 8.89 1.1.99 0 1.33-.36 1.31-.89-.14.32-.52.52-1.25.53z" fill="#000" opacity=".2"/></g></svg>