<svg width="375" height="296" viewBox="0 0 375 296" fill="none" xmlns="http://www.w3.org/2000/svg">
<path d="M53.6866 27.8694C53.4784 26.2238 53.0571 24.6121 52.4335 23.0748C52.354 22.7841 52.2148 22.5131 52.0247 22.2792C51.8346 22.0452 51.5979 21.8533 51.3295 21.7159C50.9709 21.6226 50.5948 21.6184 50.2341 21.7036L44.6101 22.5637C44.1394 22.5852 43.6887 22.7602 43.3269 23.062C42.5944 23.8319 43.3157 25.0716 43.2933 26.1338C43.2681 27.3282 42.2062 28.2977 41.0548 28.6184C39.8794 28.8558 38.667 28.8408 37.4979 28.5744L29.6338 27.353C31.9499 26.614 34.0114 25.2391 35.5831 23.3852C36.618 22.1599 37.1685 19.8723 35.6729 19.2921C35.2285 19.1702 34.7651 19.133 34.307 19.1825C30.744 19.2102 27.9403 16.237 24.6047 14.9848C22.4699 14.2352 20.1526 14.1794 17.9841 14.8255C15.8157 15.4715 13.9072 16.7863 12.5315 18.5819L16.7208 18.7838C17.1149 18.762 17.5057 18.8662 17.8367 19.0812C18.7548 19.8351 17.6133 21.2832 17.7427 22.4637C17.9107 23.9974 19.9483 24.3249 21.4843 24.48C23.0203 24.6351 24.9688 25.8823 24.23 27.2371C16.51 29.8947 8.65408 22.042 0.546447 23.0086C-1.50555 23.2533 -3.4432 24.059 -5.44661 24.5656C-17.6849 27.6603 -30.3372 19.4032 -42.8393 21.1519C-45.6187 21.6255 -48.3503 22.3455 -51.0019 23.3035C-52.7034 23.8619 -54.4783 24.4653 -55.7146 25.7603C-56.9509 27.0553 -57.4215 29.2699 -56.2502 30.624C-59.4785 30.8897 -62.7283 30.581 -65.8486 29.7121C-65.0048 30.1809 -64.3029 30.8681 -63.8164 31.7015C-63.33 32.5349 -63.077 33.4838 -63.084 34.4487C-68.1245 35.2702 -73.0316 36.7656 -77.6732 38.8946C-76.8069 40.3344 -75.795 41.6815 -74.6536 42.9149L-81.0348 47.0121C-78.8789 47.555 -77.7643 50.493 -79.018 52.328C-76.7826 51.3341 -75.3972 48.763 -73.0068 48.2417C-71.4408 47.9002 -69.8473 48.5404 -68.3617 49.1419C-66.8761 49.7434 -65.2433 50.3266 -63.7054 49.8752C-62.1675 49.4238 -61.0331 47.4308 -62.0104 46.161C-55.4369 44.2441 -48.6434 43.1833 -41.7982 43.0049C-41.2701 42.9386 -40.7345 43.0402 -40.2674 43.2952C-39.3763 43.9131 -39.6108 45.2476 -39.6588 46.3305C-39.7068 47.4133 -38.8623 48.8365 -37.894 48.3484C-39.0332 49.3357 -38.0593 51.1945 -36.9663 52.2328C-35.8733 53.271 -34.5559 54.7037 -35.2251 56.0542C-35.3997 56.4067 -35.6959 56.6888 -35.864 57.0445C-36.36 58.0944 -35.5725 59.3184 -34.6435 60.0156C-33.7146 60.7128 -32.5768 61.2001 -31.9315 62.1655C-31.2863 63.131 -31.5793 64.821 -32.7331 64.9558L-36.0128 60.7941C-37.1333 61.9553 -37.9014 63.4102 -38.2282 64.9901C-34.7504 67.8315 -34.2273 73.6149 -37.1389 77.0335C-38.6268 78.7806 -40.7427 79.8421 -42.5894 81.2048C-44.4361 82.5675 -46.1449 84.5079 -46.1402 86.8021C-46.1322 90.7657 -46.4562 94.448 -44.9701 98.1228C-42.2298 104.899 -39.066 111.496 -35.4974 117.875C-34.5602 119.55 -33.3491 121.386 -31.4507 121.674C-33.8499 115.837 -36.0097 109.908 -37.93 103.889C-36.6793 103.894 -35.2339 103.993 -34.5006 105.006C-33.8935 105.845 -34.0239 106.985 -33.8352 108.003C-33.5953 108.989 -33.1952 109.929 -32.6508 110.786L-21.1937 131.183C-20.2439 132.874 -19.1545 134.689 -17.3393 135.373C-16.1787 135.811 -14.836 135.729 -13.7678 136.359C-12.9305 136.853 -12.3666 137.73 -11.513 138.195C-9.09955 139.511 -5.74335 136.988 -3.48787 138.559C-2.84296 139.008 -2.43269 139.722 -1.83845 140.236C0.244668 142.039 3.66186 140.833 6.0666 142.178C7.61642 143.045 8.41962 144.778 9.24626 146.349C11.3169 150.284 14.6673 154.14 19.1049 154.453C20.4989 154.551 21.9227 154.287 23.2853 154.597C24.6478 154.907 25.9891 156.095 25.7704 157.475C25.3954 159.84 26.5645 162.429 26.2505 164.803C25.6786 169.127 19.5422 171.027 19.0151 175.356C18.8997 176.304 19.0803 177.282 18.8545 178.21C18.5777 179.347 17.7232 180.273 17.4195 181.404C16.8441 183.546 18.3796 185.678 20.0665 187.119C21.7534 188.56 23.7656 189.803 24.6878 191.82C25.6626 193.952 25.1838 196.438 25.5008 198.761C26.1929 203.832 30.5753 207.591 35.0853 210.015C36.4594 210.754 37.9349 211.469 38.8242 212.75C39.9851 214.422 39.8694 216.627 40.2571 218.625C41.2064 223.518 45.328 227.55 45.445 232.533C45.5282 236.074 43.5583 239.288 42.3816 242.629C41.2784 245.831 40.8792 249.233 41.2112 252.603C41.5432 255.973 42.5986 259.232 44.3055 262.158C45.1857 263.643 46.2386 265.044 46.8613 266.654C47.9725 269.528 47.6119 272.795 48.6365 275.701C49.9911 279.543 53.7132 282.716 53.357 286.774C55.0468 290.281 58.7783 292.004 62.5304 293.048L69.2552 294.919C70.5428 295.277 71.8884 295.638 73.1995 295.379C74.5106 295.119 75.7619 294.031 75.7281 292.696C72.4303 291.953 69.0269 291.162 66.3084 289.154C63.59 287.145 61.7278 283.569 62.7592 280.351C63.2375 278.859 64.255 277.137 63.2876 275.904C62.7338 275.198 61.721 275.014 61.0962 274.37C60.1218 273.365 60.4566 271.678 61.1571 270.466C61.8576 269.255 62.8702 268.173 63.1527 266.802C63.2954 266.036 63.2001 265.244 62.8796 264.533C62.5591 263.822 62.0288 263.226 61.3598 262.825C62.6067 262.354 63.7407 261.627 64.6883 260.69C65.5636 259.691 65.9679 258.151 65.2794 257.015C67.3241 257.275 69.7382 257.402 71.0805 255.838C72.1524 254.59 72.0787 252.724 71.6552 251.134C71.2317 249.544 70.5158 248 70.4935 246.356C75.2105 246.579 79.9378 246.419 84.6287 245.876C83.9504 243.593 82.4089 241.664 80.3312 240.497C82.4557 240.138 84.3912 237.596 85.0624 235.55C85.7336 233.503 85.5624 231.274 85.1476 229.161C84.9882 228.617 84.9664 228.042 85.084 227.487C85.3233 226.725 86.0722 226.26 86.7652 225.863L97.3106 219.81C97.9399 219.494 98.5103 219.074 98.997 218.565C100.102 217.268 99.9381 215.31 99.3724 213.704C98.8067 212.097 97.9005 210.586 97.6826 208.896C97.0309 203.844 102.443 200.218 104.269 195.462C104.986 193.596 105.132 191.567 105.271 189.572C105.42 187.43 105.431 184.942 103.785 183.562C102.207 182.238 99.7425 182.534 98.0918 181.303C96.5784 180.174 96.0562 177.983 94.4029 177.071C92.9014 176.243 91.0189 176.77 89.3489 176.38C86.4087 175.695 84.5584 172.308 81.5556 171.995C79.8613 171.818 77.9438 172.645 76.5552 171.659C75.3316 170.79 75.2826 169.044 75.0497 167.562C74.6415 165.259 73.5369 163.136 71.8847 161.479C70.2324 159.822 68.1119 158.712 65.8087 158.296C64.0618 158.016 62.1604 158.123 60.6743 157.163C59.1695 156.192 58.4796 154.373 57.2975 153.027C55.3925 150.859 52.3921 150.089 49.5815 149.428L38.1489 146.742C36.1194 146.265 33.5034 146.012 32.4143 147.789C32.0919 148.466 31.8637 149.183 31.736 149.921C31.3279 151.257 30.5066 152.429 29.3902 153.269C28.2738 154.109 26.9197 154.573 25.5226 154.596C24.5645 152.962 23.0122 151.762 21.1897 151.245C20.0304 150.922 18.7895 150.886 17.6839 150.411C17.0817 150.117 16.5459 149.704 16.1092 149.196C15.6725 148.688 15.344 148.096 15.144 147.457C14.944 146.818 14.8765 146.145 14.9459 145.479C15.0152 144.813 15.2198 144.168 15.5471 143.584C16.2062 142.411 16.4608 141.054 16.2715 139.722C16.0822 138.39 15.4595 137.157 14.4996 136.214C12.5554 134.47 9.74297 134.048 7.13602 134.223C6.45324 132.734 7.59487 131.054 8.82511 129.972C10.0553 128.89 11.5492 127.826 11.8171 126.21C12.2385 123.668 8.99359 121.738 6.52979 122.496C4.06599 123.254 2.49345 125.645 1.45395 128.003C0.857519 129.356 0.350462 130.78 -0.590335 131.921C-1.53113 133.062 -3.04617 133.878 -4.47918 133.512C-6.50792 132.994 -7.29145 130.585 -7.74045 128.541C-8.34287 125.798 -8.94879 123.018 -8.82256 120.213C-8.69634 117.408 -7.75019 114.528 -5.68066 112.629C-2.30824 109.535 2.86525 109.838 7.41659 110.331C6.3413 109.121 6.60705 107.08 7.75756 105.94C8.3649 105.401 9.09469 105.018 9.88366 104.824C10.6726 104.63 11.497 104.632 12.2852 104.829C13.6567 105.114 14.8922 105.852 15.7928 106.925C17.0862 108.501 17.4539 110.628 18.4315 112.417C19.4091 114.206 21.6074 115.732 23.4066 114.772C24.9607 113.943 25.2073 111.79 24.8205 110.072C24.4338 108.354 23.6123 106.684 23.7524 104.929C24.0197 101.581 27.493 99.5648 30.5579 98.1857C33.6228 96.8066 37.1323 94.9519 37.6179 91.6278C37.6345 90.9769 37.7574 90.3332 37.9816 89.7219C38.3215 89.182 38.7939 88.738 39.3539 88.4321C48.299 82.524 57.3928 76.5437 67.6166 73.3154C68.1485 73.1474 68.2109 73.3341 68.753 73.2025C69.5117 72.7643 69.009 71.552 68.2816 71.0636C67.5542 70.5752 66.582 70.2007 66.3975 69.3446C66.2618 68.7153 66.6328 68.0973 66.7292 67.4608C66.966 65.8967 65.0938 64.4526 63.6399 65.0779C62.8186 63.9909 64.4437 62.7278 65.7576 62.3662C69.7033 61.281 73.7536 60.6197 77.8396 60.3937C78.3112 60.3187 78.7942 60.4009 79.2145 60.6274C79.9007 61.1025 79.8131 62.1923 79.3267 62.8704C78.8403 63.5486 78.0837 63.9744 77.4776 64.5482C76.8154 65.193 76.3431 66.0071 76.1123 66.9018C75.8814 67.7965 75.9009 68.7374 76.1685 69.6217C78.3016 70.7062 80.6207 71.8225 82.9832 71.4405C85.3458 71.0585 87.4427 68.4055 86.3322 66.2866C85.2981 64.3135 82.1918 63.8685 81.6577 61.706C81.0322 59.1741 84.6184 56.9222 83.8106 54.4424C83.4567 53.3562 82.3736 52.7169 81.5425 51.9327C80.5609 50.9712 79.8932 49.7355 79.6271 48.3878C79.361 47.0402 79.5089 45.6436 80.0514 44.3815C78.6976 44.6195 77.3064 44.5296 75.9946 44.1193C74.6828 43.709 73.4885 42.9903 72.512 42.0235C70.7087 40.2046 69.27 37.3353 66.7092 37.4167C64.3593 37.4913 62.3352 40.2314 60.1379 39.3954C59.5973 39.1898 59.0274 38.7712 58.5036 39.0164C58.332 39.1278 58.1879 39.2768 58.0823 39.452C57.9767 39.6272 57.9123 39.8241 57.894 40.0278C57.3356 42.696 58.2962 45.7361 56.8411 48.0417C55.2578 50.5507 51.5954 50.8986 49.6759 53.161C48.6339 54.3892 48.2302 56.0441 47.2724 57.3389C46.3147 58.6338 44.2818 59.457 43.1324 58.3286C43.6973 57.168 43.8516 55.8501 43.57 54.5905C43.2885 53.3309 42.5877 52.204 41.5823 51.394C40.5151 50.6981 39.3648 50.1389 38.1583 49.7295C36.8102 49.1591 35.5277 48.4447 34.3332 47.5988C33.7349 47.2381 33.2487 46.7182 32.929 46.0971C32.6761 45.3195 32.7102 44.4771 33.025 43.7224C33.6079 42.0524 34.636 40.5731 35.9986 39.4444C37.3612 38.3157 39.0063 37.5804 40.7564 37.3179C42.2868 37.1098 44.068 37.1831 45.0807 36.0177C45.6166 35.4011 45.8978 34.4688 46.6756 34.2184C47.1732 34.1185 47.6897 34.1821 48.1481 34.3996L53.8602 36.4091C54.4976 36.6966 55.1991 36.8126 55.8951 36.7454C56.2402 36.699 56.555 36.5238 56.7763 36.255C56.9975 35.9863 57.1089 35.6438 57.0881 35.2964C56.9056 34.3483 55.4459 33.8934 55.5787 32.9371C55.6531 32.6272 55.8198 32.3472 56.0568 32.134C58.1182 29.9411 60.6393 28.2309 63.4394 27.1257C66.2396 26.0206 69.2496 25.5478 72.2539 25.7414C72.9749 26.9248 71.8347 28.3262 70.8859 29.3365C69.9372 30.3467 69.1747 32.1518 70.3221 32.9295C70.7923 33.1693 71.3153 33.287 71.843 33.2718C73.2493 33.462 74.6161 33.8764 75.8912 34.499C77.865 35.3575 79.801 36.2968 81.6991 37.317C81.5315 36.0662 81.3714 34.7485 81.8458 33.5789C82.3202 32.4094 83.6683 31.4921 84.8459 31.9475C85.9808 32.3865 86.5628 33.8883 87.7719 34.0259C89.3848 34.2095 90.0211 31.8281 89.3474 30.3521C88.6737 28.876 87.34 27.6401 87.2287 26.0216C87.1536 24.9297 87.5693 23.5754 86.6966 22.9142C86.3861 22.7157 86.0335 22.5922 85.667 22.5534L63.8763 18.5458C62.5823 18.3078 60.7128 18.4902 60.6554 19.8039C60.6233 20.5372 61.2787 21.2627 60.9885 21.9369C60.6786 22.6565 59.6609 22.5907 58.9195 22.8452C57.7693 23.2401 57.1921 24.6052 57.3026 25.8157C57.5049 27.0185 57.971 28.1616 58.6675 29.1632C57.2501 28.5707 55.104 28.4619 53.6866 27.8694Z" fill="#ECECEE"/>
<path d="M36.2998 9.38226C34.9257 8.92778 33.4451 8.90661 32.0585 9.32162C30.672 9.73663 29.4467 10.5677 28.5487 11.7023C28.1899 12.1744 27.8886 12.8253 28.189 13.3365C28.6196 14.0695 29.7169 13.78 30.5259 13.5178C31.715 13.0932 33.0092 13.0624 34.2172 13.4298C34.9768 13.6905 35.6564 14.1512 36.4194 14.402C36.7908 14.5572 37.1975 14.6085 37.5958 14.5503C37.9942 14.4922 38.3692 14.3267 38.6806 14.0717C39.2042 13.538 39.2371 12.7082 39.238 11.9607C39.2743 11.7106 39.2543 11.4555 39.1794 11.2141C39.1045 10.9727 38.9767 10.751 38.8051 10.5653C38.4997 10.3885 38.1566 10.2871 37.8041 10.2694C37.0147 10.1234 36.301 9.70659 35.7861 9.09096" fill="#ECECEE"/>
<path d="M44.1571 7.19583C43.8496 7.17909 43.543 7.24171 43.2667 7.37765C42.9904 7.51359 42.7537 7.7183 42.5795 7.97207C42.4052 8.22585 42.2992 8.52016 42.2717 8.82672C42.2441 9.13327 42.2959 9.44175 42.4222 9.7225C43.3665 9.9799 44.3532 10.0442 45.323 9.91153C45.8068 9.83648 46.2574 9.61999 46.6183 9.28936C46.9791 8.95873 47.2339 8.52875 47.3506 8.05361C46.2088 8.26129 45.0305 8.03638 44.0456 7.42276" fill="#ECECEE"/>
<path d="M70.5191 3.5443C67.9487 4.09047 65.4519 4.93818 63.0805 6.0698C64.1984 6.49927 65.1487 7.27631 65.7914 8.28639C66.4341 9.29647 66.7351 10.4862 66.6501 11.6802C66.5498 12.1385 66.5614 12.6143 66.684 13.0673C66.9571 13.7292 67.7488 13.9776 68.4448 14.1475C69.6952 14.5278 71.0009 14.6944 72.3068 14.6402C72.9601 14.606 73.5945 14.4096 74.1527 14.0687C74.7109 13.7278 75.1752 13.2532 75.5036 12.6878C75.6929 12.1511 75.9149 11.6266 76.1684 11.1172C77.8367 8.57789 82.7926 11.6483 84.5837 9.19402C85.2147 8.32947 85.157 7.02809 85.9795 6.34302C86.405 6.04455 86.898 5.85649 87.4143 5.79576C91.0163 5.08052 94.6547 4.56262 98.3133 4.24438C100.047 4.09361 102.306 3.47151 102.321 1.73251C95.7913 0.450884 89.0211 1.36115 83.0627 4.32178C80.916 5.39641 78.0767 7.65693 76.0088 6.23223C75.2346 5.6988 75.2729 4.2624 74.2073 3.66256C73.1178 3.04931 71.6756 3.29873 70.5191 3.5443Z" fill="#ECECEE"/>
<path d="M91.8722 7.53516L94.9372 8.12377C94.3731 8.09879 93.81 8.19435 93.2857 8.40408C92.7614 8.6138 92.2879 8.93286 91.8967 9.33998C91.5056 9.74709 91.2058 10.2329 91.0173 10.765C90.8289 11.2971 90.7562 11.8632 90.804 12.4256C93.6743 13.3839 96.8035 12.4513 99.827 12.5787C102.851 12.7061 106.368 14.8646 105.852 17.8448C105.696 18.7459 105.175 19.6464 105.446 20.5199C105.636 21.1321 106.176 21.5666 106.481 22.1304C107.117 23.3055 106.609 24.7917 105.806 25.8598C105.004 26.9279 103.926 27.7802 103.221 28.9153C101.469 31.7385 102.465 35.3883 103.508 38.5423C103.81 39.7341 104.367 40.8461 105.141 41.8015C106.687 43.4443 109.206 43.5871 111.463 43.62C113.105 43.644 114.986 43.5629 116.025 42.2913C117.38 40.6311 116.432 38.0408 117.325 36.0924C118.136 34.3228 120.201 33.5636 122.073 33.0252C125.501 32.0388 128.995 31.2001 132.236 29.7102C136.261 27.86 140.022 24.9767 144.445 24.7386C145.686 24.6718 146.958 24.8182 148.154 24.4783C149.349 24.1385 150.485 23.1055 150.394 21.8667C150.317 20.8082 149.421 20.0309 148.721 19.233C148.021 18.4351 147.471 17.2081 148.114 16.3638L159.709 14.1993C158.887 11.9607 158.247 9.01243 160.135 7.55529C160.817 7.02954 161.729 6.81942 162.309 6.18382C163.298 5.10052 162.801 3.23444 161.66 2.31316C160.518 1.39188 158.975 1.17801 157.512 1.05662C152.428 0.634627 147.315 0.913473 142.221 1.19254C132.264 1.73804 122.306 2.28355 112.349 2.82905C110.344 2.93886 108.03 2.7711 106.191 3.45458C104.635 4.03322 103.528 5.09537 101.748 5.46854C98.4621 6.15747 94.8458 5.69129 91.8722 7.53516Z" fill="#ECECEE"/>
<path d="M146.781 31.7483C146.469 31.6989 146.149 31.7713 145.889 31.9505C145.717 32.14 145.614 32.3825 145.598 32.638C145.4 33.7657 145.636 34.9265 146.258 35.8879C146.575 36.3596 147.013 36.7378 147.525 36.9834C148.038 37.229 148.607 37.333 149.173 37.2846C150.553 37.1087 151.57 35.932 152.839 35.3578C154.794 34.4735 163.099 33.0952 157.354 29.9932C155.375 28.9242 154.095 29.8679 152.535 30.5719C150.76 31.4796 148.77 31.8863 146.781 31.7483V31.7483Z" fill="#ECECEE"/>
<path d="M197.098 5.78402C196.428 6.05793 195.866 6.54613 195.502 7.17241C195.335 7.49042 195.296 7.86068 195.394 8.20658C195.492 8.55248 195.719 8.84755 196.028 9.03074C196.279 9.12154 196.544 9.16365 196.811 9.1548L199.538 9.23625C200.697 9.27085 202.144 9.51748 202.456 10.6335C202.687 11.4622 202.169 12.527 202.794 13.1192C203.062 13.3266 203.384 13.4522 203.722 13.4809C204.62 13.7115 205.558 13.7418 206.47 13.5695C208.454 13.0375 207.412 11.8269 208.037 10.749C208.993 9.09972 208.828 10.0981 210.513 9.15287C211.757 8.4548 213.365 7.18849 212.327 5.40929C210.52 2.31532 199.764 4.45486 197.098 5.78402Z" fill="#ECECEE"/>
<path d="M250.933 4.22852L249.35 4.43976C245.778 4.91609 242.186 5.3968 238.746 6.46872C240.235 7.05711 241.798 7.44023 243.39 7.60753C244.267 7.65047 245.137 7.77418 245.991 7.97707C247.511 8.42911 249.042 9.59643 250.509 8.99846C251.42 8.6277 251.716 7.6806 252.47 7.17866C252.991 6.83207 254.965 6.27109 255.186 5.92127C256.971 3.09317 252.305 4.04558 250.933 4.22852Z" fill="#ECECEE"/>
<path d="M257.888 11.4228C255.773 12.6051 253.81 14.0417 252.043 15.7007C251.299 16.3998 250.539 17.2694 250.607 18.2879C250.696 19.6416 252.139 20.4268 253.389 20.9557L258.452 23.0982C259.066 22.2329 258.504 21.0386 257.87 20.1883C257.235 19.338 256.48 18.3543 256.761 17.3311C257.081 16.1635 258.505 15.7656 259.7 15.5644C261.646 15.2367 266.896 15.263 266.265 12.1282C265.522 8.43454 259.842 10.3314 257.888 11.4228Z" fill="#ECECEE"/>
<path d="M256.87 220.452C256.388 221.847 256.342 223.489 257.176 224.707C258.112 226.073 259.984 226.583 261.604 226.236C263.217 225.807 264.655 224.883 265.715 223.595C266.684 222.515 267.482 221.293 268.08 219.971C268.914 217.91 269.502 215.759 269.832 213.561L271.404 205.312C271.755 203.468 271.742 197.816 268.351 199.658C267.425 200.161 265.281 204.133 264.31 205.259C262.561 207.289 262.329 209.259 261.408 211.719C260.255 214.799 257.936 217.366 256.87 220.452Z" fill="#ECECEE"/>
<path d="M362.34 161.571C361.559 160.697 360.383 159.783 359.336 160.31C358.538 160.712 358.318 161.817 358.631 162.654C359.012 163.467 359.599 164.166 360.334 164.683C362.516 166.481 364.865 168.104 366.768 170.194C370.173 173.934 371.977 178.982 375.681 182.427C376.426 183.226 377.411 183.76 378.488 183.946C379.567 184.046 380.778 183.356 380.903 182.28C381.005 181.393 380.386 180.6 379.782 179.943C378.344 178.379 376.768 176.939 375.41 175.305C374.783 174.677 374.389 173.854 374.293 172.972C374.286 172.092 375.089 171.171 375.942 171.389C374.904 171.124 374.135 169.397 372.612 169.072C371.34 168.801 371.032 169.588 369.517 168.939C366.629 167.701 364.363 163.834 362.34 161.571Z" fill="#ECECEE"/>
<path d="M213.413 101.536C213.615 102.621 213.814 103.763 213.458 104.807C213.103 105.852 211.984 106.725 210.927 106.405C210.107 106.157 209.633 105.332 209.051 104.704C205.813 101.21 198.507 103.233 196.506 98.9105C195.69 97.1463 196.245 95.0328 195.688 93.1705C195.336 92.0942 194.637 91.165 193.7 90.5288C192.763 89.8926 191.641 89.5855 190.511 89.6556C189.48 89.8045 188.476 90.1039 187.532 90.5444C181.207 93.076 174.567 94.7359 167.794 95.4782C166.507 95.5566 165.234 95.7881 164.002 96.1679C161.221 97.1755 159.321 99.7522 157.969 102.382C156.617 105.011 155.618 107.857 153.805 110.193C151.9 112.648 149.23 114.368 146.74 116.227C145.78 116.845 144.981 117.682 144.409 118.669C143.869 119.777 143.899 121.065 143.941 122.297L144.45 137.255C144.516 139.179 144.598 141.171 145.459 142.893C146.535 145.043 148.661 146.451 150.135 148.35C151.64 150.302 152.424 152.714 152.354 155.177C152.323 156.167 152.224 157.338 152.996 157.96C153.465 158.264 154.014 158.422 154.574 158.414L174.819 160.07C178.38 160.361 182.327 160.84 184.652 163.552C185.749 164.831 186.631 166.672 188.311 166.809C189.032 166.868 189.734 166.572 190.455 166.515C192.274 166.371 193.872 167.751 194.881 169.271C196.408 171.588 197.101 174.355 196.846 177.117C196.681 178.851 196.143 180.537 196.027 182.275C195.586 188.888 201.195 194.633 201.304 201.26C201.367 205.158 199.516 208.8 197.711 212.256C200.624 216.667 198.239 222.54 199.399 227.697C200.499 232.589 204.58 236.419 205.597 241.329C206.063 243.577 206.09 246.343 208.073 247.501C208.943 247.925 209.908 248.118 210.875 248.062C216.704 248.131 222.467 246.819 227.693 244.235C230.145 243.019 232.687 241.203 233.115 238.501C233.46 236.321 232.354 233.883 233.48 231.985C234.806 229.748 238.204 229.925 240.156 228.205C243.322 225.414 240.853 220.092 242.136 216.072C243.289 212.459 247.258 210.54 249.225 207.297C250 205.902 250.555 204.397 250.873 202.834C251.774 199.099 252.335 195.289 252.549 191.452C252.602 189.121 252.774 186.794 253.065 184.481C255.186 171.309 268.215 162.489 272.445 149.836C272.849 148.627 273.038 147.018 271.963 146.334C271.325 146.03 270.601 145.954 269.914 146.12L260.582 147.296C259.422 147.442 258.194 147.578 257.129 147.097C256.065 146.616 255.302 145.27 255.866 144.248C257.451 141.378 254.191 137.752 252.742 134.811C248.841 126.893 244.196 119.363 238.868 112.324C238.527 111.962 238.314 111.498 238.26 111.004L240.909 111.092C240.015 107.885 238.539 104.377 235.422 103.204C233.666 102.543 231.721 102.771 229.847 102.874C224.479 103.167 218.725 102.357 213.413 101.536Z" fill="#ECECEE"/>
<path d="M229.851 29.2776C231.256 30.7683 232.83 32.3488 234.862 32.6087C238.451 33.0676 241.032 29.3579 242.675 26.1357C242.736 26.9571 243.115 27.7225 243.732 28.2689C244.349 28.8154 245.154 29.0998 245.978 29.0617C246.864 28.9127 247.709 28.5823 248.461 28.0912C255.573 24.2069 263.539 22.1489 271.643 22.1019C271.565 21.4884 271.718 20.8677 272.071 20.3598C272.424 19.8518 272.952 19.4925 273.555 19.3513C275.203 19.0248 276.687 20.4486 277.482 21.9276C278.277 23.4066 278.772 25.1209 280.035 26.228C281.298 27.3351 283.743 27.2868 284.242 25.6837C284.721 24.1446 283.116 22.8321 281.784 21.9247C280.451 21.0173 279.046 19.3378 279.943 17.9987C286.753 16.4923 293.604 14.9801 300.572 14.6807C301.758 14.722 302.94 14.5184 304.045 14.0828C305.107 13.5617 305.952 12.3787 305.666 11.2307C304.145 11.5879 302.553 11.4845 301.091 10.9335C299.63 10.3826 298.366 9.40912 297.46 8.13724C307.128 7.33986 317.412 6.66019 325.98 11.2069C327.008 13.413 321.768 15.2484 323.17 17.2381C323.617 17.8727 324.513 17.9471 325.289 17.9616C331.244 18.072 337.232 18.1804 343.119 17.2819C345.27 16.9536 347.443 16.4901 349.603 16.7564C353.201 17.1998 356.278 19.5989 359.817 20.3811C361.258 20.6995 362.873 20.7103 364.088 19.8729C365.302 19.0354 365.824 17.1286 364.829 16.04C368.161 12.7758 373.692 13.5848 378.089 15.1476C382.485 16.7103 386.65 19.2306 391.303 19.5789C394.64 19.8287 398.023 18.9317 401.32 19.5019C403.392 19.8601 405.32 20.7813 407.345 21.3473C411.175 22.4177 415.226 22.1918 419.203 22.2433C429.349 22.3799 439.384 24.3728 448.811 28.1234C450.037 28.5225 451.161 29.1859 452.103 30.067C452.98 31.0058 453.427 32.4647 452.838 33.6061L443.096 32.1835C444.014 33.9894 446.388 34.2971 448.317 34.9201C450.245 35.5431 452.244 37.6714 451.086 39.3331C448.996 38.6682 447.103 40.756 446.047 42.6769C444.992 44.5979 443.706 46.8985 441.516 47.0155C439.555 47.1203 437.184 45.4517 435.906 46.9415C437.672 49.1677 439.184 51.5836 440.414 54.1445C441.676 56.7735 442.576 60.0862 440.869 62.4516C440.601 62.8739 440.193 63.1895 439.717 63.3443C438.324 63.6969 437.418 61.9928 436.418 60.9599C435.159 59.6583 433.254 59.2897 431.548 58.6793C429.843 58.0689 428.046 56.868 427.912 55.0622C427.829 53.9387 428.423 52.8943 428.86 51.8559C429.595 50.1056 429.916 48.2096 429.799 46.3151C429.704 44.791 429.276 43.2055 428.181 42.1406C427.086 41.0757 425.195 40.7378 424.019 41.7132C423.47 42.1683 423.031 42.8963 422.318 42.9235C421.059 42.9716 420.093 40.7782 419.08 41.5269C419.199 42.3247 419.033 43.1389 418.612 43.8271C415.59 46.454 410.947 45.3427 407.051 46.2707C405.199 46.8006 403.425 47.5748 401.777 48.5729C401.16 48.8364 400.635 49.2765 400.269 49.8377C399.783 50.7823 400.319 51.992 401.176 52.6201C402.085 53.1773 403.107 53.5258 404.167 53.6404C408.917 54.5395 413.736 55.9313 417.486 58.9805C421.236 62.0297 423.696 67.0702 422.509 71.754L413.142 62.8086C413.498 66.5646 413.699 70.3309 413.747 74.1076C413.808 74.845 413.707 75.5867 413.451 76.2809C412.783 77.755 410.973 78.2511 409.387 78.5765C408.946 78.6602 408.527 78.8363 408.159 79.0932C407.791 79.35 407.481 79.6818 407.251 80.0668C407.02 80.4517 406.873 80.8811 406.82 81.3267C406.767 81.7724 406.809 82.2241 406.943 82.6524C407.507 84.4881 408.912 85.9192 410.198 87.3453C411.485 88.7714 412.751 90.3921 412.919 92.3048C413.088 94.2176 411.644 96.3735 409.727 96.2405C408.274 96.1397 407.196 94.8398 406.577 93.5225C405.957 92.2053 405.588 90.7379 404.657 89.6187C401.839 86.231 395.508 87.6824 392.984 84.0709C392.34 84.8005 391.894 85.6825 391.687 86.6329C391.481 87.5834 391.52 88.5709 391.803 89.5016C392.977 88.7667 394.585 89.4495 395.468 90.5173C396.35 91.5851 396.767 92.9541 397.46 94.1534C398.395 95.7718 399.883 97.2065 400.014 99.0708C399.979 99.7757 399.991 100.482 400.049 101.186C400.281 102.315 401.237 103.126 401.899 104.07C403.44 106.267 403.364 109.286 402.371 111.778C401.377 114.271 399.593 116.354 397.825 118.373C394.737 121.901 391.587 125.407 387.927 128.336C386.882 129.172 385.767 129.994 385.117 131.163C384.466 132.331 384.433 133.971 385.433 134.86C384.717 134.896 383.435 135.248 382.719 135.283C382.468 132.416 382.413 129.534 382.556 126.659C379.733 125.305 376.694 128.932 377.058 132.04C377.423 135.148 379.672 137.643 381.273 140.332C382.445 142.298 383.315 144.591 382.924 146.846C382.533 149.101 380.519 151.181 378.238 150.982C374.61 150.665 373.092 145.46 369.499 144.864C369.182 144.79 368.85 144.823 368.554 144.958C368.02 145.25 367.928 145.963 367.898 146.571C367.751 149.551 367.623 152.651 368.788 155.399C370.491 159.419 374.891 162.796 373.968 167.063C368.996 164.753 366.41 159.18 365.237 153.828C364.063 148.475 363.867 142.855 361.763 137.795C360.166 139.841 356.808 138.15 355.348 136.003C353.964 133.967 353.112 131.613 351.77 129.55C350.427 127.487 348.37 125.64 345.91 125.526C343.332 125.407 341.095 127.176 339.128 128.847C337.511 130.222 335.85 131.65 334.905 133.549C333.529 136.314 333.889 139.573 333.823 142.659C333.751 145.996 333.043 149.517 330.768 151.96C328.492 154.403 324.292 155.254 321.782 153.052C320.471 151.903 319.837 150.185 319.272 148.537C316.547 140.591 314.279 132.496 312.476 124.292C312.055 126.164 310.409 128.578 308.838 127.475C308.485 127.178 308.199 126.81 307.999 126.395C305.068 121.429 299.639 118.45 294.153 116.664C288.668 114.878 282.896 114.045 277.471 112.082C274.431 110.982 271.528 109.536 268.818 107.774C268.127 108.789 267.724 109.971 267.65 111.196C267.577 112.421 267.837 113.643 268.402 114.732C269.605 116.862 272.328 118.094 274.659 117.349C275.864 116.965 276.881 116.129 278.076 115.716C279.271 115.303 280.875 115.506 281.398 116.657C281.898 117.759 281.142 119.091 281.517 120.241C282.088 121.993 284.732 122.128 285.656 123.722C286.344 124.908 285.778 126.483 284.796 127.44C283.814 128.397 282.504 128.922 281.305 129.588C277.416 131.75 274.65 135.44 271.251 138.311C267.851 141.182 263.056 143.278 259.005 141.436C259.97 136.549 254.146 132.962 253.074 128.097C252.721 126.495 252.904 124.795 252.401 123.234C251.672 120.975 249.666 119.422 248.021 117.709C246.026 115.61 244.471 113.133 243.449 110.424C242.427 107.714 241.958 104.828 242.071 101.934C242.159 99.9239 242.529 97.8805 242.071 95.9208C241.612 93.9611 239.989 92.0643 237.977 92.1532C233.383 92.356 227.594 92.6975 225.184 88.783C224.323 87.3858 223.949 85.3396 225.193 84.2692C226.07 83.5141 227.366 83.5852 228.518 83.6985L238.87 84.7163C241.292 84.9544 243.909 85.1509 245.987 83.8858C248.065 82.6206 248.965 79.2625 247.041 77.7741C245.635 76.6866 243.117 76.7455 242.708 75.0164C242.368 73.5763 243.963 71.9424 243.101 70.7389C242.484 69.8759 241.095 70.1153 240.254 70.7622C239.412 71.4091 238.802 72.3552 237.86 72.845C236.208 73.7042 234.234 72.8865 232.457 72.3307C230.68 71.7749 228.297 71.7277 227.435 73.3775C226.471 75.2226 228.29 77.6402 227.333 79.4891C226.068 81.9335 221.784 80.542 220.008 82.6445C217.969 85.0572 221.395 88.6548 220.708 91.7371C219.83 92.1715 218.854 92.371 217.876 92.3161C216.899 92.2612 215.952 91.9537 215.128 91.4238C214.318 90.8732 213.673 90.1135 213.26 89.2254C212.848 88.3374 212.684 87.3543 212.786 86.3806C212.956 84.9941 213.68 83.5787 213.195 82.2684C212.803 81.2091 211.739 80.5784 210.75 80.0321L200.689 74.476C199.755 76.2077 200.936 78.3545 202.413 79.6552C203.89 80.9559 205.74 81.9355 206.71 83.6473C207.323 84.8332 207.461 86.2086 207.094 87.4925C206.728 88.7764 205.884 89.872 204.737 90.5556C204.593 90.6548 204.429 90.7217 204.257 90.7517C204.085 90.7817 203.909 90.7741 203.74 90.7294C203.579 90.6351 203.439 90.5097 203.328 90.3603C203.217 90.211 203.137 90.041 203.093 89.8602C201.318 85.3203 198.653 80.8442 194.392 78.4726C190.131 76.101 184.009 76.5886 181.215 80.5837C180.551 81.5326 180.106 82.6142 179.528 83.6174C176.456 88.9474 169.872 91.4714 163.72 91.3065C163.118 91.3398 162.519 91.1992 161.995 90.9015C161.001 90.2152 161.046 88.7589 161.198 87.5608L161.844 82.4766C161.973 81.4556 162.161 80.3271 162.97 79.6898C164.109 78.7914 165.753 79.3584 167.205 79.3375C168.304 79.286 169.362 78.8979 170.233 78.2258C171.105 77.5536 171.748 76.6299 172.077 75.5798C172.37 74.5194 172.368 73.3991 172.071 72.3397C171.774 71.2803 171.194 70.3219 170.393 69.5678C169.727 68.9433 168.834 68.1589 169.186 67.3171C169.326 67.0843 169.516 66.8849 169.741 66.7331C169.967 66.5813 170.223 66.4808 170.491 66.4385C173.098 65.6818 175.853 65.4835 178.417 64.5907C180.98 63.6979 183.467 61.8713 184.074 59.2267C184.26 58.4163 184.344 57.4345 185.073 57.0327C185.438 56.8785 185.831 56.7984 186.227 56.797C187.617 56.5993 188.883 55.8889 189.775 54.8054C190.667 53.722 191.121 52.344 191.047 50.9429C192.276 50.0849 193.997 50.7161 195.185 51.6286C196.374 52.5412 197.423 53.7469 198.87 54.1403C201.565 54.8734 204.169 52.4885 206.963 52.4774C208.137 52.4728 209.353 52.8878 210.458 52.4898C211.579 52.0863 212.248 50.9718 213.107 50.1484C213.967 49.325 215.476 48.8228 216.27 49.7098L215.594 44.7048C216.955 45.0486 218.375 45.0972 219.757 44.8475C221.139 44.5978 222.451 44.0556 223.606 43.2571L214.868 40.3064C214.564 40.2305 214.283 40.0805 214.051 39.8698C213.416 39.1861 214.047 38.1208 214.563 37.3436C215.799 35.4845 216.007 32.4221 213.974 31.4965C212.587 30.8648 210.995 31.6231 209.664 32.365L203.286 35.919C203.084 37.1305 204.566 37.8171 205.485 38.6332C206.041 39.127 206.434 39.7772 206.613 40.4985C206.792 41.2197 206.749 41.9783 206.489 42.6746C206.229 43.3709 205.765 43.9723 205.156 44.3998C204.548 44.8273 203.825 45.061 203.081 45.0701C203.501 45.6158 203.793 46.2489 203.935 46.9225C204.077 47.5962 204.065 48.2931 203.901 48.9617L199.61 49.2702C199.129 49.367 198.629 49.2694 198.219 48.9987C197.76 48.5913 197.822 47.8775 197.716 47.2733C197.459 45.8151 196.03 44.7931 194.572 44.5311C193.114 44.269 191.623 44.6049 190.179 44.9366C189.566 45.1571 188.893 45.1415 188.29 44.893C187.945 44.6688 187.683 44.3378 187.543 43.9505C186.91 42.4166 187.502 40.6137 188.518 39.3019C189.535 37.9902 190.927 37.0312 192.177 35.9392C195.166 33.3181 197.362 29.9139 198.517 26.1111C200.879 25.122 203.324 23.778 205.686 22.7889C209.328 20.9461 213.412 20.1553 217.479 20.5053L225.478 20.658C227.847 20.7033 230.279 20.7612 232.469 21.6636C234.659 22.566 236.584 24.5178 236.735 26.8805C236.781 27.148 236.757 27.4227 236.668 27.6787C236.578 27.9348 236.425 28.164 236.222 28.3446C235.913 28.5133 235.562 28.5922 235.211 28.5724C233.002 28.65 232.06 29.2 229.851 29.2776Z" fill="#ECECEE"/>
<path d="M166.09 54.3344C166.402 54.0388 166.627 53.6627 166.74 53.2476C166.852 52.8325 166.848 52.3944 166.728 51.9815C165.967 51.6882 165.14 51.6129 164.339 51.764C163.538 51.9152 162.795 52.2869 162.194 52.8371C161.72 53.3162 161.312 53.8558 160.979 54.442C159.928 56.156 158.998 58.2034 159.608 60.1193C159.657 60.3283 159.748 60.5252 159.875 60.6985C160.002 60.8719 160.162 61.0182 160.346 61.1289C160.619 61.2384 160.914 61.2845 161.207 61.2636C162.365 61.2621 163.522 61.191 164.671 61.0505C165.377 60.9643 166.197 60.765 166.47 60.1087C166.829 59.2459 165.961 58.2694 166.214 57.37C166.38 56.9678 166.632 56.6068 166.953 56.312C167.112 56.1636 167.234 55.9802 167.31 55.7764C167.385 55.5726 167.412 55.3539 167.389 55.1378C167.287 54.7158 166.64 54.4764 166.407 54.843" fill="#ECECEE"/>
<path d="M172.094 46.5538C171.066 46.3177 170.005 46.2511 168.955 46.3567C168.723 46.3498 168.493 46.4021 168.286 46.5087C168.086 46.6561 167.941 46.8661 167.874 47.1053C167.652 47.8168 167.707 48.5857 168.027 49.2588C168.347 49.932 168.908 50.46 169.6 50.7376C169.978 50.8243 170.339 50.9694 170.671 51.1676C171.559 51.8561 170.993 53.2634 171.161 54.3739C171.35 55.621 172.558 56.6677 172.336 57.9093C172.162 58.8875 171.116 59.6621 171.285 60.6414C171.461 61.6671 172.763 61.9753 173.801 62.0574C174.403 62.1627 175.022 62.0918 175.584 61.8532C176.148 61.4681 176.548 60.8881 176.709 60.225C177.134 58.9608 177.313 57.6269 177.235 56.2955C177.231 55.6899 177.078 55.0946 176.792 54.5611C176.479 54.1384 176.133 53.7419 175.756 53.3754C173.767 51.0634 175.861 47.6147 172.094 46.5538Z" fill="#ECECEE"/>
<path opacity="0.8" d="M433.613 227.671C433.613 227.671 281.293 140.286 215.718 156.843C215.718 156.843 76.7435 171.79 60.6372 204.675C60.6372 204.675 16.4599 66.6984 0.353668 62.0992" stroke="#F0EFFC" stroke-width="2" stroke-miterlimit="10"/>
<path opacity="0.8" d="M60.6372 204.675C86.1772 136.606 316.267 61.1793 316.267 61.1793C283.594 69.4579 215.718 156.843 215.718 156.843C215.718 156.843 72.1417 52.4408 0.353638 62.0991C0.353638 62.0991 316.497 72.4473 433.613 227.671" stroke="#F0EFFC" stroke-width="2" stroke-miterlimit="10"/>
<path d="M0.353642 68.768C4.03882 68.768 7.02625 65.7823 7.02625 62.0991C7.02625 58.416 4.03882 55.4303 0.353642 55.4303C-3.33154 55.4303 -6.31897 58.416 -6.31897 62.0991C-6.31897 65.7823 -3.33154 68.768 0.353642 68.768Z" fill="#E7F2FA"/>
<path d="M60.6372 211.343C64.3224 211.343 67.3098 208.358 67.3098 204.675C67.3098 200.992 64.3224 198.006 60.6372 198.006C56.952 198.006 53.9646 200.992 53.9646 204.675C53.9646 208.358 56.952 211.343 60.6372 211.343Z" fill="#E7F2FA"/>
<path d="M313.783 67.8482C317.468 67.8482 320.455 64.8624 320.455 61.1793C320.455 57.4962 317.468 54.5104 313.783 54.5104C310.097 54.5104 307.11 57.4962 307.11 61.1793C307.11 64.8624 310.097 67.8482 313.783 67.8482Z" fill="#E7F2FA"/>
<path d="M215.718 163.512C219.403 163.512 222.39 160.526 222.39 156.843C222.39 153.16 219.403 150.174 215.718 150.174C212.033 150.174 209.045 153.16 209.045 156.843C209.045 160.526 212.033 163.512 215.718 163.512Z" fill="#E7F2FA"/>
<g clip-path="url(#clip0_13196_294990)">
<path d="M101.851 171.093L148.161 202.544L152.571 199.146L156.473 199.485L149.052 206.698L101.851 177.028V171.093Z" fill="#3F3D56"/>
<path d="M196.685 156.407L216.29 179.549L212.418 184.297L189.424 158.484L196.685 156.407Z" fill="#2F2E41"/>
<path d="M99.7727 169.61C102.232 169.61 104.226 167.352 104.226 164.566C104.226 161.78 102.232 159.522 99.7727 159.522C97.3134 159.522 95.3198 161.78 95.3198 164.566C95.3198 167.352 97.3134 169.61 99.7727 169.61Z" fill="#0878C8"/>
<path d="M202.711 154.777C210.671 124.922 199.753 96.0929 178.326 90.3861C156.899 84.6793 133.076 104.256 125.116 134.111C117.156 163.967 128.073 192.796 149.5 198.502C170.928 204.209 194.751 184.633 202.711 154.777Z" fill="#3F3D56"/>
<path opacity="0.1" d="M199.433 153.905C206.72 126.572 196.726 100.179 177.109 94.9539C157.492 89.7291 135.682 107.651 128.394 134.984C121.107 162.317 131.102 188.71 150.718 193.935C170.335 199.16 192.145 181.238 199.433 153.905Z" fill="white"/>
<path d="M155.582 143.5C156.074 143.5 156.473 143.101 156.473 142.61C156.473 142.118 156.074 141.72 155.582 141.72C155.09 141.72 154.692 142.118 154.692 142.61C154.692 143.101 155.09 143.5 155.582 143.5Z" fill="#0878C8"/>
<path d="M150.536 164.566C151.028 164.566 151.426 164.167 151.426 163.676C151.426 163.184 151.028 162.786 150.536 162.786C150.044 162.786 149.645 163.184 149.645 163.676C149.645 164.167 150.044 164.566 150.536 164.566Z" fill="#0878C8"/>
<path d="M175.472 145.28C175.964 145.28 176.363 144.882 176.363 144.39C176.363 143.898 175.964 143.5 175.472 143.5C174.98 143.5 174.581 143.898 174.581 144.39C174.581 144.882 174.98 145.28 175.472 145.28Z" fill="#0878C8"/>
<path d="M170.425 166.643C170.917 166.643 171.316 166.244 171.316 165.753C171.316 165.261 170.917 164.863 170.425 164.863C169.933 164.863 169.535 165.261 169.535 165.753C169.535 166.244 169.933 166.643 170.425 166.643Z" fill="#0878C8"/>
<path d="M103.335 178.511L100.414 179.095L100.366 179.104L93.5387 177.324L91.4606 163.676L92.7193 163.088L95.9135 161.599C101.554 161.599 102.741 164.863 102.741 164.863L103.335 178.511Z" fill="#3F3D56"/>
<path opacity="0.1" d="M100.414 179.095L100.366 179.104L93.5387 177.324L91.4606 163.676L92.7193 163.088C95.3228 163.433 98.3686 164.171 99.4759 165.753L100.414 179.095Z" fill="black"/>
<path d="M114.466 145.132C114.306 145.132 114.149 145.089 114.011 145.006C105.229 139.777 96.6909 139.777 87.9089 145.006C87.706 145.127 87.4637 145.162 87.2351 145.103C87.0065 145.045 86.8103 144.899 86.6895 144.696C86.5688 144.494 86.5334 144.252 86.591 144.023C86.6487 143.795 86.7948 143.598 86.9972 143.477C96.2624 137.96 105.658 137.96 114.923 143.477C115.091 143.577 115.221 143.729 115.294 143.91C115.366 144.091 115.378 144.291 115.326 144.479C115.274 144.666 115.162 144.832 115.006 144.95C114.851 145.068 114.661 145.132 114.466 145.132H114.466Z" fill="#0878C8"/>
<path d="M111.053 152.509C110.892 152.509 110.735 152.465 110.598 152.383C104.013 148.462 97.6108 148.462 91.0259 152.383C90.8231 152.503 90.5807 152.538 90.3521 152.48C90.1235 152.422 89.9273 152.276 89.8065 152.073C89.6858 151.871 89.6504 151.628 89.7081 151.4C89.7657 151.171 89.9118 150.975 90.1142 150.854C97.2127 146.627 104.411 146.627 111.509 150.854C111.677 150.954 111.807 151.106 111.88 151.286C111.952 151.467 111.964 151.667 111.912 151.855C111.86 152.043 111.748 152.209 111.593 152.327C111.437 152.445 111.248 152.509 111.053 152.509V152.509Z" fill="#0878C8"/>
<path d="M117.138 136.824C116.978 136.824 116.821 136.781 116.683 136.699C107.919 131.48 93.1106 131.48 84.3466 136.699C84.2461 136.759 84.1347 136.799 84.0189 136.816C83.903 136.833 83.785 136.827 83.6714 136.798C83.5579 136.769 83.4511 136.719 83.3572 136.649C83.2633 136.579 83.1841 136.491 83.1241 136.391C83.0642 136.29 83.0247 136.179 83.0078 136.063C82.991 135.947 82.9972 135.829 83.0261 135.716C83.0549 135.602 83.1059 135.496 83.176 135.402C83.2462 135.308 83.3341 135.229 83.4348 135.169C92.6931 129.656 108.337 129.656 117.595 135.169C117.762 135.269 117.893 135.421 117.965 135.602C118.038 135.783 118.049 135.983 117.997 136.171C117.946 136.359 117.833 136.525 117.678 136.643C117.523 136.761 117.333 136.824 117.138 136.824H117.138Z" fill="#0878C8"/>
<path d="M263.413 238.241L265.293 245.758L257.02 248.013L256.268 240.12L263.413 238.241Z" fill="#FBBEBE"/>
<path d="M233.328 247.637V254.779L225.055 256.282L223.55 252.523L226.559 246.134L233.328 247.637Z" fill="#FBBEBE"/>
<path d="M249.875 169.833L248.747 179.982L249.499 199.527C249.499 199.527 250.627 199.527 250.627 200.654C250.627 201.782 249.499 201.406 250.627 202.158C251.232 202.568 251.86 202.945 252.507 203.285L264.541 239.744C264.541 239.744 261.533 243.503 255.892 242.375L254.764 238.617C254.764 238.617 252.507 236.361 252.507 235.234C252.507 234.106 253.259 233.73 252.507 232.603C251.755 231.475 240.473 208.547 240.473 208.547L235.208 199.151L233.704 211.93C233.704 211.93 236.713 228.092 235.96 235.61C235.208 243.127 233.704 251.02 233.704 251.02L224.679 249.517C224.638 248.304 224.246 247.129 223.55 246.134C222.422 244.63 220.918 245.006 222.422 243.879C223.926 242.751 225.807 243.879 224.302 242.375C222.798 240.872 222.798 239.368 222.798 239.368V238.241L220.542 209.299L216.405 171.337L249.875 169.833Z" fill="#2F2E41"/>
<path d="M224.302 101.426C229.91 101.426 234.456 96.8825 234.456 91.2777C234.456 85.6729 229.91 81.1294 224.302 81.1294C218.695 81.1294 214.149 85.6729 214.149 91.2777C214.149 96.8825 218.695 101.426 224.302 101.426Z" fill="#FBBEBE"/>
<path d="M233.14 91.4657L237.277 101.614L227.499 108.755L221.482 98.2312L233.14 91.4657Z" fill="#FBBEBE"/>
<path d="M233.704 99.1709L237.465 97.2915L239.721 102.554C239.721 102.554 254.387 107.064 253.259 127.737C252.131 148.409 249.499 156.302 249.499 156.302C249.499 156.302 255.892 169.833 252.131 171.337C248.37 172.84 216.405 178.478 215.653 173.216C214.901 167.954 218.286 137.133 218.286 137.133C218.286 137.133 217.157 114.957 226.559 110.447L224.679 106.312L233.704 99.1709Z" fill="#D0CDE1"/>
<path d="M213.021 172.089C213.021 172.089 204.371 181.109 209.26 183.365C214.149 185.62 217.157 173.216 217.157 173.216L213.021 172.089Z" fill="#FBBEBE"/>
<path d="M230.696 252.899L234.832 251.396C234.832 251.396 239.345 261.544 235.584 261.544H225.807C225.807 261.544 220.166 259.665 217.157 259.665C214.149 259.665 208.508 254.027 212.645 251.396C216.781 248.765 222.046 249.517 222.046 249.517L223.55 246.134L225.431 251.396C225.431 251.396 227.687 255.155 230.696 252.899Z" fill="#2F2E41"/>
<path d="M261.157 244.63C261.157 244.63 263.512 243.145 264.779 243.7C266.045 244.255 266.798 250.268 266.798 250.268C266.798 250.268 270.558 254.779 262.285 255.531C254.011 256.282 252.131 254.779 251.379 252.524C250.627 250.268 252.131 248.013 252.131 248.013L254.388 247.261C254.388 247.261 257.02 245.382 256.268 244.63C255.516 243.879 256.268 242.375 256.268 242.375C256.268 242.375 258.9 247.637 261.157 244.63Z" fill="#2F2E41"/>
<path d="M227.775 91.1151C227.734 90.7866 227.66 90.4631 227.555 90.1494C227.009 89.0051 224.88 89.3391 224.5 88.1294C224.426 87.8927 224.441 87.6352 224.369 87.398C224.183 86.7932 223.471 86.4932 222.839 86.5222C222.207 86.5512 221.615 86.8213 221.006 86.994C219.518 87.416 217.935 87.2549 216.398 87.0904C215.718 87.0177 215.013 86.9366 214.43 86.5785C213.848 86.2205 213.429 85.4998 213.641 84.8502C213.844 84.2273 214.526 83.8851 214.832 83.306C215.319 82.3866 214.724 81.1991 215.119 80.2366C215.753 78.6926 218.151 79.0026 219.369 77.8614C219.665 77.5844 219.877 77.2303 220.161 76.9408C221.002 76.0817 222.33 75.9154 223.526 76.0339C224.723 76.1525 225.899 76.5036 227.101 76.4824C228.241 76.4622 229.436 76.1152 230.487 76.5585C231.124 76.8274 231.611 77.3534 232.077 77.8643L234.772 80.8181C235.142 81.1668 235.427 81.5958 235.605 82.0719C235.767 82.6379 235.618 83.2455 235.687 83.8301C235.845 85.1635 237.094 86.1705 237.262 87.5025C237.296 87.9156 237.276 88.3314 237.203 88.7393L236.825 91.5209C236.806 91.7921 236.734 92.057 236.613 92.3003C236.503 92.4877 236.337 92.6358 236.213 92.8144C235.864 93.3188 235.896 93.9856 235.723 94.5738C235.549 95.1619 234.928 95.7441 234.384 95.4606C234.029 95.2756 233.794 93.7462 233.363 93.3491C232.763 92.796 232.449 92.8641 231.708 92.8735C230.224 92.8923 228.25 93.0195 227.775 91.1151Z" fill="#2F2E41"/>
<path d="M229.567 113.078C229.567 113.078 240.849 117.588 237.465 127.737C234.08 137.885 225.055 169.082 225.055 169.082L219.79 171.713L218.285 175.847L211.14 173.216L212.268 167.578C212.268 167.578 212.645 167.202 212.645 165.699C212.645 164.195 211.14 163.82 213.021 163.82C214.901 163.82 214.901 161.94 214.901 161.94L221.67 119.843C221.67 119.843 221.67 112.702 229.567 113.078Z" fill="#D0CDE1"/>
<path opacity="0.1" d="M238.029 129.804L226.371 169.645L221.482 174.532L224.303 169.457L238.029 129.804Z" fill="black"/>
</g>
<defs>
<clipPath id="clip0_13196_294990">
<rect width="215" height="189" fill="white" transform="translate(83 76)"/>
</clipPath>
</defs>
</svg>
