<svg width="375" height="297" viewBox="0 0 375 297" fill="none" xmlns="http://www.w3.org/2000/svg">
<path d="M74.8797 180.895C124.683 180.895 165.056 140.512 165.056 90.6974C165.056 40.8828 124.683 0.5 74.8797 0.5C25.0768 0.5 -15.2964 40.8828 -15.2964 90.6974C-15.2964 140.512 25.0768 180.895 74.8797 180.895Z" fill="#F2F2F2"/>
<path d="M-2.98022 81.5297C-2.98022 48.3436 19.9893 21.4897 48.3752 21.4897Z" fill="#0878C8"/>
<path d="M-2.98022 81.5297C-2.98022 39.1252 23.5689 4.81198 56.3786 4.81198Z" fill="#2F2E41"/>
<path d="M-12.6616 81.9483C-12.6616 81.9483 -6.13526 81.7472 -4.16838 80.3463C-2.2015 78.9454 5.8708 77.2726 6.35873 79.5194C6.84667 81.7662 16.1666 90.6938 8.79841 90.7533C1.43019 90.8127 -8.32207 89.6053 -10.2852 88.4092C-12.2483 87.2131 -12.6616 81.9483 -12.6616 81.9483Z" fill="#A8A8A8"/>
<path opacity="0.2" d="M8.9299 89.9711C1.56168 90.0306 -8.19057 88.8232 -10.1537 87.6271C-11.6487 86.7162 -12.2444 83.4477 -12.4437 81.9398C-12.5818 81.9457 -12.6616 81.9483 -12.6616 81.9483C-12.6616 81.9483 -12.2483 87.2131 -10.2852 88.4092C-8.32206 89.6052 1.43019 90.8127 8.79842 90.7532C10.9253 90.736 11.66 89.9792 11.6197 88.8581C11.3242 89.5354 10.513 89.9584 8.9299 89.9711Z" fill="black"/>
<path d="M35.0837 191.032C78.8074 191.032 114.252 186.209 114.252 180.26C114.252 174.31 78.8074 169.487 35.0837 169.487C-8.63993 169.487 -44.085 174.31 -44.085 180.26C-44.085 186.209 -8.63993 191.032 35.0837 191.032Z" fill="#3F3D56"/>
<path opacity="0.1" d="M35.0836 189.304C71.7927 189.304 101.551 185.255 101.551 180.26C101.551 175.264 71.7927 171.215 35.0836 171.215C-1.62561 171.215 -31.3843 175.264 -31.3843 180.26C-31.3843 185.255 -1.62561 189.304 35.0836 189.304Z" fill="black"/>
<path d="M305.189 296.5C371.359 296.5 425 289.201 425 280.197C425 271.193 371.359 263.893 305.189 263.893C239.019 263.893 185.377 271.193 185.377 280.197C185.377 289.201 239.019 296.5 305.189 296.5Z" fill="#3F3D56"/>
<path d="M82.5001 283.638C122.249 283.638 154.472 279.254 154.472 273.845C154.472 268.436 122.249 264.051 82.5001 264.051C42.7513 264.051 10.5286 268.436 10.5286 273.845C10.5286 279.254 42.7513 283.638 82.5001 283.638Z" fill="#3F3D56"/>
<path d="M146.851 265.587C184.954 275.327 258.195 252.883 266.239 227.476" stroke="#2F2E41" stroke-width="2" stroke-miterlimit="10"/>
<path d="M82.0767 110.177C82.0767 110.177 137.114 94.932 140.501 144.054C143.888 193.175 95.2009 207.15 133.303 216.889" stroke="#2F2E41" stroke-width="2" stroke-miterlimit="10"/>
<path d="M28.9033 228.019C28.9033 228.019 45.4451 223.437 46.463 238.201C47.481 252.965 32.8479 257.165 44.2999 260.092" stroke="#2F2E41" stroke-width="2" stroke-miterlimit="10"/>
<path d="M280.674 239.011L277.339 260.309C277.339 260.309 260.92 269.033 272.465 269.29C284.009 269.547 338.396 269.29 338.396 269.29C338.396 269.29 348.914 269.29 332.239 260.052L328.904 237.728L280.674 239.011Z" fill="#2F2E41"/>
<path opacity="0.1" d="M270.142 269.059C272.764 266.725 277.339 264.294 277.339 264.294L280.674 242.996L328.904 243.041L332.239 264.037C336.128 266.192 338.536 267.843 339.946 269.11C342.087 268.621 344.428 266.805 332.239 260.052L328.904 237.728L280.674 239.011L277.339 260.309C277.339 260.309 263.542 267.641 270.142 269.059Z" fill="black"/>
<path d="M405.539 90.5656H203.526C199.307 90.5656 195.886 93.9868 195.886 98.2072V234.32C195.886 238.54 199.307 241.962 203.526 241.962H405.539C409.758 241.962 413.178 238.54 413.178 234.32V98.2072C413.178 93.9868 409.758 90.5656 405.539 90.5656Z" fill="#2F2E41"/>
<path d="M405.867 98.6486H203.198V212.067H405.867V98.6486Z" fill="#3F3D56"/>
<path d="M304.532 96.3391C305.241 96.3391 305.815 95.7647 305.815 95.0561C305.815 94.3475 305.241 93.7731 304.532 93.7731C303.824 93.7731 303.25 94.3475 303.25 95.0561C303.25 95.7647 303.824 96.3391 304.532 96.3391Z" fill="#F2F2F2"/>
<path d="M413.178 221.048V234.32C413.178 235.324 412.981 236.317 412.597 237.244C412.213 238.172 411.65 239.014 410.941 239.724C410.232 240.433 409.389 240.996 408.462 241.38C407.535 241.764 406.542 241.962 405.539 241.962H203.526C202.523 241.962 201.53 241.764 200.603 241.38C199.676 240.996 198.833 240.433 198.124 239.724C197.414 239.014 196.852 238.172 196.468 237.244C196.084 236.317 195.886 235.324 195.886 234.32V221.048H413.178Z" fill="#2F2E41"/>
<path d="M361.229 283.147V285.713H223.208V283.66L223.398 283.147L226.8 273.909H358.406L361.229 283.147Z" fill="#2F2E41"/>
<path d="M304.533 236.445C307.225 236.445 309.407 234.262 309.407 231.569C309.407 228.877 307.225 226.694 304.533 226.694C301.841 226.694 299.658 228.877 299.658 231.569C299.658 234.262 301.841 236.445 304.533 236.445Z" fill="#F2F2F2"/>
<path opacity="0.1" d="M361.229 283.147V285.713H223.208V283.66L223.398 283.147H361.229Z" fill="black"/>
<path d="M85.0403 67.8305H-3.01904V170.308H85.0403V67.8305Z" fill="#2F2E41"/>
<path d="M93.9308 57.6674H-11.9097V94.0851H93.9308V57.6674Z" fill="#3F3D56"/>
<path d="M93.9308 100.861H-11.9097V137.278H93.9308V100.861Z" fill="#3F3D56"/>
<path d="M93.9308 144.054H-11.9097V180.471H93.9308V144.054Z" fill="#3F3D56"/>
<path opacity="0.4" d="M72.7628 64.0193H65.989V70.7947H72.7628V64.0193Z" fill="#0878C8"/>
<path opacity="0.8" d="M82.5001 64.0193H75.7263V70.7947H82.5001V64.0193Z" fill="#0878C8"/>
<path d="M92.2374 64.0193H85.4636V70.7947H92.2374V64.0193Z" fill="#0878C8"/>
<path opacity="0.4" d="M72.7628 106.789H65.989V113.564H72.7628V106.789Z" fill="#0878C8"/>
<path opacity="0.8" d="M82.5001 106.789H75.7263V113.564H82.5001V106.789Z" fill="#0878C8"/>
<path d="M92.2374 106.789H85.4636V113.564H92.2374V106.789Z" fill="#0878C8"/>
<path opacity="0.4" d="M72.7628 149.559H65.989V156.334H72.7628V149.559Z" fill="#0878C8"/>
<path opacity="0.8" d="M82.5001 149.559H75.7263V156.334H82.5001V149.559Z" fill="#0878C8"/>
<path d="M92.2374 149.559H85.4636V156.334H92.2374V149.559Z" fill="#0878C8"/>
<path d="M85.0403 261.776C103.512 261.776 118.486 246.798 118.486 228.323C118.486 209.847 103.512 194.869 85.0403 194.869C66.5688 194.869 51.5947 209.847 51.5947 228.323C51.5947 246.798 66.5688 261.776 85.0403 261.776Z" fill="#2F2E41"/>
<path d="M79.96 254.577H69.7993V272.786H79.96V254.577Z" fill="#2F2E41"/>
<path d="M100.281 254.577H90.1206V272.786H100.281V254.577Z" fill="#2F2E41"/>
<path d="M78.2666 276.174C82.9429 276.174 86.7338 274.752 86.7338 272.998C86.7338 271.244 82.9429 269.822 78.2666 269.822C73.5902 269.822 69.7993 271.244 69.7993 272.998C69.7993 274.752 73.5902 276.174 78.2666 276.174Z" fill="#2F2E41"/>
<path d="M98.5878 275.75C103.264 275.75 107.055 274.328 107.055 272.574C107.055 270.82 103.264 269.398 98.5878 269.398C93.9115 269.398 90.1206 270.82 90.1206 272.574C90.1206 274.328 93.9115 275.75 98.5878 275.75Z" fill="#2F2E41"/>
<path d="M85.8868 231.287C92.1999 231.287 97.3176 226.168 97.3176 219.853C97.3176 213.539 92.1999 208.42 85.8868 208.42C79.5738 208.42 74.4561 213.539 74.4561 219.853C74.4561 226.168 79.5738 231.287 85.8868 231.287Z" fill="white"/>
<path d="M85.8869 223.665C87.9912 223.665 89.6971 221.958 89.6971 219.853C89.6971 217.749 87.9912 216.042 85.8869 216.042C83.7826 216.042 82.0767 217.749 82.0767 219.853C82.0767 221.958 83.7826 223.665 85.8869 223.665Z" fill="#3F3D56"/>
<path d="M52.597 197.212C49.8964 185.115 58.5291 172.891 71.8786 169.909C85.2281 166.928 98.2393 174.317 100.94 186.415C103.64 198.512 94.7932 202.974 81.4437 205.955C68.0942 208.937 55.2976 209.309 52.597 197.212Z" fill="#0878C8"/>
<path d="M116.409 221.65C124.9 218.015 130.858 212.907 129.717 210.241C128.576 207.575 120.768 208.361 112.278 211.995C103.787 215.63 97.8286 220.738 98.9695 223.405C100.11 226.071 107.918 225.285 116.409 221.65Z" fill="#2F2E41"/>
<path d="M53.7513 244.094C62.242 240.459 68.2003 235.351 67.0594 232.685C65.9186 230.019 58.1107 230.804 49.6199 234.439C41.1292 238.074 35.1709 243.182 36.3118 245.848C37.4526 248.514 45.2606 247.729 53.7513 244.094Z" fill="#2F2E41"/>
<path d="M104.515 238.062C104.515 241.336 96.0865 247.802 86.7339 247.802C77.3812 247.802 68.5293 241.76 68.5293 238.486C68.5293 235.211 77.3812 235.945 86.7339 235.945C96.0865 235.945 104.515 234.788 104.515 238.062Z" fill="white"/>
</svg>
