<svg width="375" height="296" viewBox="0 0 375 296" fill="none" xmlns="http://www.w3.org/2000/svg">
<g clip-path="url(#clip0_31571_142762)">
<path d="M46.8309 130.253C32.6127 124.291 21.2149 113.129 14.9708 99.0516C11.4772 91.0772 9.77165 82.4295 8.80052 73.7799C7.84775 65.2939 7.65321 56.3425 11.3114 48.6237C13.3144 44.3975 16.3799 40.7614 20.2091 38.0697C24.0383 35.378 28.5008 33.7225 33.1615 33.2646C37.8222 32.8067 42.5223 33.562 46.8036 35.4569C51.085 37.3517 54.8017 40.3215 57.5914 44.0768C59.9926 47.3091 61.6809 51.1876 61.7239 55.2115C61.8143 63.652 55.016 70.4258 52.0336 78.3242C48.9516 86.4865 50.0624 95.5302 50.5864 104.237C51.1103 112.945 50.7782 122.384 45.4861 129.325" fill="#F2F2F2"/>
<path d="M301.834 236.982C316.849 233.471 329.952 224.362 338.46 211.522C343.237 204.241 346.364 195.998 348.766 187.632C351.123 179.423 352.811 170.63 350.493 162.41C349.224 157.909 346.809 153.814 343.483 150.522C340.157 147.23 336.034 144.855 331.515 143.628C326.996 142.4 322.236 142.362 317.698 143.518C313.16 144.673 308.999 146.982 305.621 150.221C302.713 153.008 300.401 156.551 299.686 160.511C298.187 168.819 303.758 176.629 305.379 184.914C307.055 193.475 304.448 202.207 302.477 210.705C300.506 219.203 299.256 228.566 303.315 236.29" fill="#F2F2F2"/>
<path d="M187.321 223.428C165.919 223.496 145.096 216.489 128.101 203.501C111.461 190.809 99.3049 173.155 93.395 153.1L94.2413 152.854C106.193 193.889 144.469 222.548 187.321 222.548C200.134 222.572 212.823 220.045 224.646 215.113L224.985 215.925C213.055 220.901 200.251 223.452 187.321 223.428Z" fill="#E6E6E6"/>
<path d="M279.841 96.8683C267.128 56.291 229.947 29.028 187.321 29.028C174.69 29.0051 162.178 31.4612 150.496 36.2566L150.16 35.4432C165.788 29.0539 182.804 26.8065 199.558 28.9193C216.312 31.032 232.234 37.433 245.779 47.501C262.263 59.83 274.468 77.0011 280.682 96.6059L279.841 96.8683Z" fill="#E6E6E6"/>
<path d="M306.272 254.215C266.19 254.215 233.58 221.66 233.58 181.645C233.58 141.63 266.19 109.075 306.272 109.075C346.355 109.075 378.964 141.63 378.964 181.645C378.964 221.66 346.355 254.215 306.272 254.215ZM306.272 109.955C266.676 109.955 234.461 142.115 234.461 181.645C234.461 221.175 266.676 253.335 306.272 253.335C345.869 253.335 378.083 221.175 378.083 181.645C378.083 142.115 345.869 109.955 306.272 109.955Z" fill="#3F3D56"/>
<path d="M69.6921 145.14C29.6095 145.14 -3 112.585 -3 72.5701C-3 32.5547 29.6095 0 69.6921 0C109.775 0 142.384 32.5547 142.384 72.5701C142.384 112.585 109.775 145.14 69.6921 145.14ZM69.6921 0.879637C30.0954 0.879637 -2.11888 33.0399 -2.11888 72.5701C-2.11888 112.1 30.0954 144.26 69.6921 144.26C109.289 144.26 141.503 112.1 141.503 72.5701C141.503 33.0399 109.289 0.879637 69.6921 0.879637Z" fill="#3F3D56"/>
<path d="M64.0402 72.9781L57.6211 85.4242L63.9593 89.0516C63.9593 89.0516 68.3074 75.0712 68.4354 74.5407C69.0911 74.2732 69.6499 73.8133 70.038 73.2218C70.4261 72.6303 70.6253 71.9351 70.609 71.2282C70.5928 70.5213 70.3619 69.836 69.9471 69.2629C69.5322 68.6898 68.9528 68.256 68.2856 68.0188C67.6184 67.7816 66.8947 67.7522 66.2104 67.9345C65.5261 68.1168 64.9133 68.5022 64.4531 69.0397C63.993 69.5772 63.7071 70.2416 63.6334 70.9448C63.5597 71.6481 63.7016 72.3571 64.0402 72.9781Z" fill="#A0616A"/>
<path d="M31.0972 74.6709C33.9606 85.2619 44.2527 91.9886 52.7993 100.053C53.8517 100.422 54.9696 100.567 56.0815 100.48C57.1934 100.393 58.2748 100.075 59.2567 99.5468C60.2385 99.0186 61.0992 98.2916 61.7836 97.4125C62.468 96.5333 62.9611 95.5212 63.2314 94.441L66.1119 83.1869L58.7905 82.9915L55.7606 86.2789L45.957 79.3046L31.0972 74.6709Z" fill="#3F3D56"/>
<path d="M295.465 192.921C296.708 193.002 297.871 193.565 298.705 194.488C299.539 195.412 299.979 196.624 299.932 197.867C299.918 198.119 299.884 198.37 299.829 198.617L313.945 207.495L306.141 210.941L293.932 201.982C292.925 201.674 292.048 201.043 291.438 200.186C290.828 199.329 290.519 198.294 290.56 197.243C290.589 196.646 290.736 196.06 290.992 195.518C291.248 194.977 291.608 194.492 292.052 194.09C292.496 193.688 293.015 193.377 293.579 193.175C294.143 192.973 294.742 192.884 295.34 192.913C295.382 192.915 295.424 192.918 295.465 192.921Z" fill="#FFB6B6"/>
<path d="M309.078 203.46L305.579 210.666L319.412 219.553C320.396 220.19 321.527 220.566 322.698 220.645C323.869 220.723 325.04 220.501 326.101 220C327.391 219.384 328.445 218.366 329.104 217.1C329.764 215.833 329.993 214.387 329.758 212.979L325.269 187.398C324.968 185.607 323.991 184.001 322.539 182.908C321.087 181.815 319.271 181.318 317.464 181.521C315.687 181.715 314.059 182.606 312.94 183.998C311.82 185.39 311.301 187.169 311.495 188.944C311.503 189.013 311.511 189.082 311.521 189.151C311.555 189.397 311.602 189.641 311.662 189.882L316.562 208.075L309.078 203.46Z" fill="#166DFF"/>
<path d="M296.505 206.381L291.296 192.963C291.118 192.504 291.13 191.993 291.329 191.542C291.529 191.092 291.899 190.739 292.358 190.56L295.288 189.427C295.748 189.249 296.26 189.261 296.711 189.46C297.162 189.659 297.516 190.029 297.694 190.487L302.904 203.906C303.081 204.365 303.069 204.876 302.87 205.327C302.671 205.777 302.301 206.13 301.841 206.309L298.912 207.442C298.452 207.619 297.94 207.607 297.489 207.409C297.038 207.21 296.684 206.84 296.505 206.381Z" fill="#3F3D56"/>
<path d="M292.967 191.112C292.719 191.208 292.52 191.399 292.413 191.641C292.305 191.884 292.299 192.159 292.395 192.407L297.604 205.825C297.7 206.073 297.891 206.272 298.134 206.379C298.377 206.486 298.653 206.492 298.901 206.397L301.83 205.263C302.078 205.167 302.277 204.977 302.384 204.734C302.492 204.491 302.498 204.216 302.402 203.969L297.193 190.55C297.097 190.303 296.906 190.104 296.663 189.997C296.42 189.89 296.144 189.883 295.896 189.979L292.967 191.112Z" fill="#166DFF"/>
<path d="M308.094 234.381H327.877V214.631H308.094V234.381Z" fill="#FFB8B8"/>
<path d="M261.18 272.794L253.625 270.257L249.418 290.787L254.537 292.507L261.18 272.794Z" fill="#FFB6B6"/>
<path d="M274.579 268.888L266.822 270.72L274.117 290.369L279.373 289.128L274.579 268.888Z" fill="#FFB6B6"/>
<path d="M327.167 239.54C331.132 265.929 278.331 250.327 278.331 250.327L261.776 273.127L252.083 271.368C252.083 271.368 256.445 257.681 264.233 239.332C267.692 231.183 306.967 233.175 306.967 233.175L307.783 226.785L330.251 226.345L327.167 239.54Z" fill="#2F2E41"/>
<path d="M276.664 244.666L262.284 244.996C264.589 264.791 266.622 272.687 266.622 272.687L274.993 270.049L276.664 244.666Z" fill="#2F2E41"/>
<path d="M315.866 182.539L319.848 177.429L325.528 177.183L326.095 181.989L328.909 183.284C331.72 193.943 332.154 205.087 330.181 215.931C329.804 216.285 329.528 216.734 329.382 217.23C329.237 217.727 329.226 218.253 329.353 218.754L329.535 219.481L329.518 219.507C328.919 220.45 328.716 221.591 328.952 222.683L330.296 225.067C330.779 225.924 331.068 226.876 331.145 227.857C331.221 228.837 331.083 229.823 330.739 230.744C330.396 231.666 329.855 232.502 329.155 233.194C328.455 233.885 327.613 234.417 326.686 234.751C318.425 237.741 310.68 238.854 304.95 230.465L303.149 201.23L315.866 182.539Z" fill="#166DFF"/>
<path d="M320.037 178.786C325.837 178.786 330.539 174.092 330.539 168.302C330.539 162.511 325.837 157.817 320.037 157.817C314.237 157.817 309.535 162.511 309.535 168.302C309.535 174.092 314.237 178.786 320.037 178.786Z" fill="#FFB8B8"/>
<path d="M325.309 155.663C329.756 155.748 333.283 159.866 333.187 164.86C336.477 168.288 335.389 172.482 332.64 176.968C327.61 177.55 326.436 177.793 322.025 179.589L321.444 176.878L320.126 180.409C319.006 180.925 317.893 181.491 316.789 182.108C315.996 178.474 316.192 174.943 318.325 171.867C320.219 169.134 315.609 165.89 312.312 166.348L312.36 163.839L311.532 166.334C310.247 167.276 308.825 166.935 307.367 166.254C305.003 153.987 323.306 150.633 325.309 155.663Z" fill="#2F2E41"/>
<path d="M256.864 295.979L253.498 295.54L253.312 292.289L251.358 295.261L242.431 294.097C242.003 294.041 241.604 293.85 241.292 293.552C240.981 293.254 240.773 292.864 240.699 292.44C240.625 292.015 240.689 291.579 240.881 291.193C241.074 290.807 241.384 290.493 241.768 290.296L249.541 286.31L249.961 283.103L257.401 284.528L256.864 295.979Z" fill="#2F2E41"/>
<path d="M281.305 294.129L277.938 294.561L276.928 291.465L275.798 294.836L266.868 295.983C266.44 296.038 266.005 295.955 265.628 295.746C265.25 295.537 264.95 295.213 264.77 294.822C264.59 294.43 264.54 293.991 264.627 293.57C264.715 293.148 264.935 292.765 265.256 292.477L271.754 286.644L271.34 283.436L278.898 282.919L281.305 294.129Z" fill="#2F2E41"/>
<path d="M296.731 195.374C297.975 195.455 299.137 196.017 299.971 196.941C300.805 197.865 301.245 199.077 301.198 200.32C301.184 200.572 301.15 200.823 301.095 201.07L315.211 209.948L307.407 213.394L295.198 204.435C294.191 204.127 293.314 203.496 292.704 202.639C292.094 201.781 291.785 200.747 291.826 199.696C291.855 199.098 292.002 198.512 292.258 197.971C292.514 197.43 292.874 196.945 293.318 196.543C293.762 196.141 294.281 195.83 294.845 195.628C295.409 195.426 296.008 195.337 296.606 195.366C296.648 195.368 296.69 195.371 296.731 195.374Z" fill="#FFB6B6"/>
<path d="M310.344 205.913L306.845 213.119L320.678 222.005C321.662 222.643 322.794 223.019 323.964 223.097C325.135 223.176 326.306 222.954 327.367 222.453C328.657 221.837 329.711 220.819 330.37 219.552C331.03 218.286 331.259 216.84 331.024 215.432L326.535 189.851C326.234 188.06 325.257 186.454 323.805 185.36C322.353 184.267 320.537 183.771 318.73 183.974C317.85 184.07 316.998 184.338 316.221 184.763C315.445 185.188 314.76 185.762 314.206 186.451C313.652 187.14 313.239 187.932 312.991 188.78C312.743 189.629 312.665 190.518 312.761 191.397C312.769 191.466 312.777 191.535 312.787 191.604C312.821 191.85 312.868 192.094 312.929 192.335L317.829 210.528L310.344 205.913Z" fill="#166DFF"/>
<path d="M45.6443 204.523L50.0816 206.521L59.914 190.386L53.3651 187.436L45.6443 204.523Z" fill="#A0616A"/>
<path d="M43.3997 209.073L57.0445 215.218L57.1223 215.046C57.7577 213.64 57.8076 212.039 57.261 210.597C56.7144 209.154 55.6161 207.987 54.2076 207.352L52.568 204.342L47.0646 204.135L45.8735 203.599L43.3997 209.073Z" fill="#2F2E41"/>
<path d="M100.601 182.58L105.288 181.266L102.443 162.594L95.5261 164.533L100.601 182.58Z" fill="#A0616A"/>
<path d="M101.809 187.507L116.221 183.468L116.169 183.286C115.752 181.801 114.76 180.542 113.413 179.787C112.066 179.031 110.473 178.841 108.985 179.258L105.792 178.002L101.441 181.372L100.183 181.725L101.809 187.507Z" fill="#2F2E41"/>
<path d="M29.6712 128.021C29.791 131.482 37.165 140.821 41.0432 142.16C41.7024 142.388 42.0876 142.513 42.0876 142.513L43.4374 142.106L59.7834 137.169C62.6456 138.849 71.1839 139.704 78.1897 140.131C83.7659 140.47 86.874 143.381 86.874 143.381C88.519 155.871 93.2616 164.976 98.7306 176.167L105.294 175.028L99.0935 133.343C98.9596 132.442 98.5637 131.601 97.955 130.924C97.3463 130.246 96.5516 129.762 95.6696 129.532L51.0653 117.884C51.0653 117.884 48.6055 117.44 43.4174 119.938C34.8763 124.052 29.5856 125.502 29.6712 128.021Z" fill="#2F2E41"/>
<path d="M38.1943 127.351C36.6984 130.476 38.9152 142.16 41.7346 145.136L42.483 145.644L42.7361 145.776C44.4275 151.487 62.5776 168.192 62.5776 168.192C56.4468 175.989 50.9833 185.502 48.5454 196.159L55.6344 198.745L75.5893 169.005C76.112 168.226 76.3862 167.308 76.3759 166.37C76.3657 165.433 76.0714 164.52 75.5317 163.753L67.391 152.176L54.1259 126.525C44.6473 126.233 39.2841 125.078 38.1943 127.351Z" fill="#2F2E41"/>
<path d="M29.9378 129.381C29.9158 129.381 29.3963 128.024 29.3857 128.021C29.2091 127.971 26.8174 127.736 27.3553 123.783L28.0434 119.432L27.3716 115.591L26.2416 114.463L28.0577 112.65L26.9447 104.427L26.5174 87.9636C25.4449 82.3085 25.725 77.1362 30.9204 74.6455L36.8766 69.1302L43.6542 69.0483L51.3435 73.5992L55.069 81.0137L56.514 101.108L57.5929 103.621L57.5005 103.705C57.4934 103.711 56.7746 104.36 56.4517 104.717C56.2952 104.939 56.5887 106.595 56.9511 108.001L57.4157 111.472L56.2447 112.307L57.7672 114.103L61.9179 121.107L61.6692 121.045C61.389 120.975 58.7788 124.887 30.1296 129.236C29.9974 129.256 29.9928 129.381 29.9378 129.381Z" fill="#3F3D56"/>
<path d="M62.7431 85.8932L60.3714 84.6577C59.9993 84.4634 59.7196 84.1296 59.5937 83.7296C59.4678 83.3297 59.506 82.8962 59.6998 82.5243L65.3781 71.6605C65.5728 71.289 65.9072 71.0098 66.3078 70.8841C66.7084 70.7584 67.1427 70.7965 67.5152 70.9901L69.8869 72.2255C70.259 72.4199 70.5387 72.7537 70.6646 73.1536C70.7904 73.5536 70.7523 73.9871 70.5584 74.359L64.8801 85.2228C64.6854 85.5943 64.3511 85.8735 63.9504 85.9992C63.5498 86.1249 63.1156 86.0867 62.7431 85.8932Z" fill="#3F3D56"/>
<path d="M66.9479 71.3996C66.7472 71.2953 66.5132 71.2747 66.2973 71.3425C66.0814 71.4102 65.9012 71.5606 65.7963 71.7608L60.118 82.6246C60.0135 82.8251 59.9929 83.0587 60.0608 83.2742C60.1286 83.4897 60.2793 83.6696 60.4798 83.7743L62.8515 85.0098C63.0523 85.1141 63.2863 85.1346 63.5022 85.0669C63.7181 84.9992 63.8982 84.8487 64.0032 84.6485L69.6815 73.7847C69.7859 73.5843 69.8065 73.3507 69.7387 73.1352C69.6708 72.9196 69.5201 72.7398 69.3196 72.635L66.9479 71.3996Z" fill="#166DFF"/>
<path d="M41.7925 67.5654C47.1444 67.5654 51.4829 63.2341 51.4829 57.8912C51.4829 52.5483 47.1444 48.217 41.7925 48.217C36.4406 48.217 32.1021 52.5483 32.1021 57.8912C32.1021 63.2341 36.4406 67.5654 41.7925 67.5654Z" fill="#A0616A"/>
<path d="M37.0266 64.1222C36.6017 63.7849 36.0717 63.6072 35.5291 63.6201C35.3607 63.6478 35.2002 63.7108 35.058 63.805C34.9159 63.8992 34.7954 64.0225 34.7046 64.1667C34.6541 64.2301 34.5886 64.2799 34.514 64.3116C34.4394 64.3433 34.358 64.3559 34.2773 64.3482C33.2433 64.3858 31.0393 62.4708 30.8886 58.7759C30.817 57.0198 29.7646 54.0484 31.44 52.439C31.5523 51.7895 32.8606 45.0768 38.7579 44.8918C44.7955 44.7002 48.8147 45.911 49.7802 48.2082C50.4506 50.0321 50.9604 51.9108 51.3036 53.8231L51.506 54.9602L51.033 53.9063C51.0241 53.8866 50.1612 51.9997 48.5612 51.3703C48.5353 51.6774 48.457 51.9778 48.3299 52.2586C47.8078 53.3881 46.4917 54.1253 44.977 54.1367C43.9303 54.1045 42.8981 53.8829 41.9307 53.4827C42.0402 53.6406 42.1017 53.8266 42.1078 54.0185C42.1138 54.2104 42.0641 54.4 41.9647 54.5644C41.8653 54.7287 41.7204 54.8609 41.5474 54.9449C41.3745 55.0289 41.1809 55.0611 40.99 55.0378L40.7099 55.003C40.6217 54.992 40.5324 55.0122 40.4575 55.0601C40.3826 55.108 40.3268 55.1805 40.2999 55.2651C40.273 55.3497 40.2766 55.4411 40.3101 55.5233C40.3435 55.6056 40.4048 55.6735 40.4832 55.7154L40.7298 55.847L40.4306 55.9915C39.2258 56.5281 38.2332 57.448 37.6078 58.6076C36.9824 59.7671 36.7596 61.1009 36.9741 62.4003L37.323 64.3598L37.0266 64.1222Z" fill="#2F2E41"/>
<path d="M62.7152 83.2768L53.4504 93.7852L58.7117 98.8457C58.7117 98.8457 66.3425 86.3452 66.5962 85.8619C67.2974 85.762 67.9517 85.452 68.4725 84.9728C68.9933 84.4936 69.3562 83.8679 69.5131 83.1784C69.6699 82.4888 69.6134 81.768 69.351 81.1112C69.0886 80.4545 68.6326 79.8927 68.0435 79.5003C67.4543 79.1078 66.7597 78.9032 66.0514 78.9135C65.3432 78.9237 64.6548 79.1484 64.0773 79.5577C63.4998 79.967 63.0603 80.5417 62.8171 81.2058C62.5739 81.8699 62.5383 82.5921 62.7152 83.2768Z" fill="#A0616A"/>
<path d="M30.3525 76.9014C30.5433 87.8698 38.8824 96.8983 45.2018 106.8C46.1325 107.413 47.1811 107.826 48.2808 108.012C49.3804 108.198 50.5069 108.153 51.5881 107.88C52.6693 107.607 53.6814 107.111 54.5599 106.425C55.4383 105.739 56.1637 104.877 56.6896 103.896L62.2314 93.682L55.1786 91.7107L51.4374 94.1615L43.6325 85.0117L30.3525 76.9014Z" fill="#3F3D56"/>
<path d="M187.817 156.511C205.591 156.511 220 142.107 220 124.339C220 106.571 205.591 92.1677 187.817 92.1677C170.043 92.1677 155.635 106.571 155.635 124.339C155.635 142.107 170.043 156.511 187.817 156.511Z" fill="#166DFF"/>
<path d="M187.823 144.061C189.455 144.061 190.778 142.739 190.778 141.107C190.778 139.476 189.455 138.153 187.823 138.153C186.191 138.153 184.868 139.476 184.868 141.107C184.868 142.739 186.191 144.061 187.823 144.061Z" fill="white"/>
<path d="M187.811 104.618C187.539 106.421 188.026 106.798 188.028 114.571C188.031 122.344 189.644 132.766 187.82 132.767C185.996 132.767 185.329 111.259 178.996 109.355C171.549 107.117 188.689 98.7809 187.811 104.618Z" fill="white"/>
</g>
<defs>
<clipPath id="clip0_31571_142762">
<rect width="381.964" height="296" fill="white" transform="translate(-3)"/>
</clipPath>
</defs>
</svg>
