<svg width="128" height="128" viewBox="0 0 128 128" fill="none" xmlns="http://www.w3.org/2000/svg">
<path d="M14.0889 64.3237V64.2227C14.0889 53.9916 22.1134 45.9701 32.9444 45.9701C39.1127 45.9701 43.4754 47.8262 47.1877 51.0337L41.4708 57.9534C38.9642 55.8478 36.5052 54.645 32.9949 54.645C27.9313 54.645 24.017 58.8562 24.017 64.2227V64.3237C24.017 70.0406 27.9788 74.1034 33.5443 74.1034C35.9528 74.1034 37.7555 73.6015 39.1602 72.6481V68.3864H32.291V61.2648H48.3875V77.0108C44.6752 80.1203 39.5612 82.4783 33.1433 82.4783C22.2114 82.4783 14.0889 74.9557 14.0889 64.3237Z" fill="white"/>
<path d="M51.0723 46.671H79.3065V55.144H60.7005V60.261H77.5513V67.9351H60.7005V73.5005H79.556V81.7745H51.0723V46.671Z" fill="white"/>
<path d="M92.151 55.1974H81.6704V46.671H112.411V55.1974H101.88V81.7745H92.151V55.1974Z" fill="white"/>
<path fill-rule="evenodd" clip-rule="evenodd" d="M0.208008 64.0861C0.208008 28.8133 28.8016 0.219727 64.0744 0.219727C99.3442 0.219727 127.941 28.8133 127.941 64.0861C127.941 99.3588 99.3471 127.952 64.0744 127.952C28.8016 127.952 0.208008 99.3588 0.208008 64.0861ZM125.455 64.0861C125.455 30.2418 97.9186 2.70548 64.0744 2.70548C30.2271 2.70548 2.69376 30.2418 2.69376 64.0861C2.69376 97.9304 30.2301 125.467 64.0744 125.467C97.9186 125.467 125.455 97.9304 125.455 64.0861Z" fill="white"/>
</svg>
