<svg width="200" height="144" xmlns="http://www.w3.org/2000/svg"><g fill-rule="nonzero" fill="none"><ellipse fill="#166DFF" cx="188.9" cy="125.4" rx="1.66" ry="1.13"/><path d="M188.9 125.4s7.89 13.7 7.68 15.68" fill="#166DFF"/><path fill="#F2F2F2" d="M11.52 10.17h86.93v132.78H11.52z"/><path d="M107.57 143.15H11.31V0h96.26v143.15zm-95.85-.41h95.44V.4H11.72v142.33z" fill="#3F3D56"/><path d="M136.56 15.6s-.48-1.71-1.19-2.14v2.14s-2.84-.43-4.86 1.7l1.9.43s-2.79.92-3.38 4.9l1.19-.56 3.2 6.82 2.01-3.7 4.03 4.13-.95-2.28 1.54.71-1.06-1.84 4.74 2.13-.36-1.14 1.74 2.91s5.97-6.18-.55-12.72c0 0-2.97-3.13-8-1.5z" fill="#2F2E41"/><path d="M136 30.78s1.78 6.72 1.25 7.6c-.53.88 5.12 5.65 5.12 5.65l5.48-1.06.35-7.6s-4.95-4.23-3.89-7.41l-8.3 2.82z" fill="#FFB9B9"/><path d="M136 30.78s1.78 6.72 1.25 7.6c-.53.88 5.12 5.65 5.12 5.65l5.48-1.06.35-7.6s-4.95-4.23-3.89-7.41l-8.3 2.82z" fill="#000" opacity=".1"/><path d="M131.42 73.19s-1.42 8.83-.36 16.08c1.06 7.24 1.6 12.54 1.06 13.6-.53 1.06-1.06.88-.7 2.12.35 1.24 1.06.7.35 1.94-.7 1.24-.53 3.36-.53 3.9 0 .52-.88 12 0 13.24.88 1.24 1.24 1.06 1.24 1.06l1.06 6.36 5.65-.88-.88-5.83s2.12-1.06 1.23-1.77c-.88-.7-1.41-.7-.88-.7.53 0 1.41-.18.7-.53-.7-.36-.17-9.9-.17-9.9s1.24-17.5 6.18-16.96c4.95.53 8.84 10.78 8.84 10.78l1.41 4.6s.53 8.65.88 9.35c.36.71.18.89 0 1.24-.17.36-1.4-.53-.17.89 1.23 1.4 1.23 1.94 1.23 1.94l.8 9.27 5.74-3.62v-5.47s1.06-1.77.7-3.19c-.34-1.4-.34-8.12 0-9.36.36-1.24.19-1.59-.17-2.12-.35-.53-1.24-.18-.53-1.41a8.62 8.62 0 0 0 .18-6.72c-1.06-2.3-6.9-24.9-9.37-26.15-2.47-1.23-23.5-1.76-23.5-1.76z" fill="#2F2E41"/><path d="M139.19 127.6s-4.06-.7-4.24.36a12.1 12.1 0 0 0 0 2.65s-1.41.18-1.24 1.41c.18 1.24.36 4.6.36 4.6s-2.21 5.2-.98 6.45c.02 0 2.44-.1 3.84-.1h5.09s.7-2.47 0-2.82c-.71-.35-2.3-3.53-2.12-4.24.17-.7 0-5.83 0-5.83l-.78.04.07-2.51zM159.86 130.79l-2.12 1.59s.88 3 .35 3.53c-.53.53-1.67 6.63-.61 6.98 1.06.35 7.6-.18 7.6-.18s7.33.27 7.5-.09c.18-.35.53-2.47-1.59-3.18-2.12-.7-3.35-.53-4.06-2.65-.7-2.12-2.3-5.3-2.3-5.3l-.35-3.88s-2.12.35-2.48.35c-.35 0-2.12.88-1.94 1.59.1.4.1.83 0 1.24z" fill="#3F3D56"/><circle fill="#FFB9B9" cx="139.01" cy="25.66" r="7.33"/><path d="M143.78 38.2l2.65-4.63s6.19-.31 6.54.4c.35.7 3.36 35.68 3.36 35.68s1.41 1.95.53 3.18l-.89 1.24v2.47s-4.41 3.54-10.42 2.83c-6-.7-13.6-3.89-13.6-3.89l1.59-9.89-.18-29.15 3.56-1.74s4.04 2.8 4.74 3.68c.71.88 2.12-.18 2.12-.18z" fill="#3F3D56"/><path d="M137.6 38.2l-.8-4.68-10.86 7.69 6 17.67s-3.7 6.71-3 9.18c.7 2.48 1.06 6.19 1.06 6.19s9.54 2.47 9.37 1.23c-.18-1.23 0-6.71 0-6.71s3.09-22.88 1.54-26.37c-1.54-3.49-3.31-4.2-3.31-4.2zM147.32 35.9l-1.68-3.26c0-.1 11.92 1.55 12.45 2.56l-1.4 27.21s.17 3.89 1.05 4.95.7 2.82.35 3c-.35.18-6.18 1.94-6.18 1.94s-5.65-9.71-5.12-21.37c.53-11.67.53-15.02.53-15.02z" fill="#D0CDE1"/><path d="M155.97 35.38l1.88-.4a3.96 3.96 0 0 1 1.66 1.81c.53 1.24 6.71 14.49 6.71 15.37 0 .89.18 7.42-3.7 7.42-3.9 0-6.9-16.6-6.9-16.6l.35-7.6z" fill="#D0CDE1"/><path fill="#FFB9B9" d="M129.47 81.14l3.18 4.77 1.77-6-1.24-1.78z"/><path fill="#D0CDE1" d="M127.53 41.38l-1.6-.17-3.88 20.85 6.72 20.84 5.83-4.41-4.07-13.96 1.42-10.78z"/><path d="M146.67 23.6c-.97-3.55-4-6.13-7.6-6.13-2.6 0-4.9 1.34-6.35 3.41l1.82 3.48 1.8-2.98 3.62 3.32-.85-1.83 1.39.57-.96-1.49 4.25 1.72-.32-.92 2.03 2.64c.47-.54.86-1.15 1.17-1.8z" fill="#2F2E41"/><path fill="#000" opacity=".1" d="M154.83 43.95l4.76 4.15-2.47-5.39z"/><path d="M152.85 37.43l-.17-.06.9-2.25a.52.52 0 0 0-.3-.68l-5.07-2.02a.52.52 0 0 0-.68.29l-4.16 10.46c-.11.27.02.57.29.68l5.07 2.02a.52.52 0 0 0 .68-.3l2.15-5.39.17.07 1.12-2.82z" fill="#2F2E41"/><circle fill="#166DFF" cx="149.62" cy="36.15" r="1"/><path d="M152.8 43.33s-2.3-7.07-5.13-5.83c-2.83 1.23 1.06 8.66 1.06 8.66l2.47 1.59 1.6-4.42z" fill="#FFB9B9"/><path d="M164.99 52.34l-12.37-9.72-4.42 6.54s11.66 12.37 14.31 9.9c2.65-2.48 2.48-6.72 2.48-6.72z" fill="#D0CDE1"/><path fill="#2F2E41" d="M0 142.77h199.9v1H0z"/><path fill="#3F3D56" d="M54.46 1.87h9.13v1h-9.13zM0 31h110.79v77.8H0z"/><path fill="#F2F2F2" d="M7.47 43.45h41.7v9.02H7.47zM85.27 95.11h13.69v9.02H85.27zM7.47 60.25h41.7v9.02H7.47zM7.47 77.06h41.7v9.02H7.47z"/><path d="M86.38 52.43v-1.06c-.57 0-1.12-.16-1.6-.46l.25-.7c.45.3.97.45 1.5.45.75 0 1.25-.43 1.25-1.02 0-.58-.4-.94-1.18-1.25-1.07-.42-1.73-.9-1.73-1.8 0-.88.62-1.54 1.58-1.7v-1.05h.65v1.01c.48 0 .95.13 1.36.37l-.26.7c-.4-.25-.85-.37-1.32-.36-.8 0-1.1.48-1.1.9 0 .54.38.81 1.3 1.19 1.07.44 1.61.98 1.61 1.91 0 .83-.57 1.6-1.65 1.78v1.09h-.66zM91.67 52.43v-1.06c-.56 0-1.12-.16-1.6-.46l.25-.7c.45.3.97.45 1.5.45.75 0 1.25-.43 1.25-1.02 0-.58-.4-.94-1.18-1.25-1.07-.42-1.73-.9-1.73-1.8 0-.88.62-1.54 1.58-1.7v-1.05h.65v1.01c.48 0 .95.13 1.36.37l-.26.7c-.4-.25-.85-.37-1.32-.36-.8 0-1.1.48-1.1.9 0 .54.38.81 1.3 1.19 1.07.44 1.61.98 1.61 1.91 0 .83-.57 1.6-1.65 1.78v1.09h-.66zM96.96 52.43v-1.06c-.56 0-1.12-.16-1.6-.46l.25-.7c.45.3.97.45 1.5.45.75 0 1.25-.43 1.25-1.02 0-.58-.4-.94-1.18-1.25-1.07-.42-1.72-.9-1.72-1.8 0-.88.61-1.54 1.57-1.7v-1.05h.65v1.01c.48 0 .95.13 1.36.37l-.26.7c-.4-.25-.85-.37-1.32-.36-.8 0-1.1.48-1.1.9 0 .54.38.81 1.3 1.19 1.07.44 1.61.98 1.61 1.91 0 .83-.57 1.6-1.65 1.78v1.09h-.66zM86.38 68.92v-1.05c-.57 0-1.12-.16-1.6-.46l.25-.7c.45.29.97.44 1.5.45.75 0 1.25-.43 1.25-1.03 0-.58-.4-.93-1.18-1.25-1.07-.41-1.73-.9-1.73-1.8 0-.87.62-1.53 1.58-1.69v-1.06h.65v1.02c.48 0 .95.13 1.36.36l-.26.7c-.4-.24-.85-.36-1.32-.36-.8 0-1.1.48-1.1.9 0 .54.38.82 1.3 1.2 1.07.43 1.61.98 1.61 1.9 0 .83-.57 1.6-1.65 1.79v1.08h-.66zM91.67 68.92v-1.05c-.56 0-1.12-.16-1.6-.46l.25-.7c.45.29.97.44 1.5.45.75 0 1.25-.43 1.25-1.03 0-.58-.4-.93-1.18-1.25-1.07-.41-1.73-.9-1.73-1.8 0-.87.62-1.53 1.58-1.69v-1.06h.65v1.02c.48 0 .95.13 1.36.36l-.26.7c-.4-.24-.85-.36-1.32-.36-.8 0-1.1.48-1.1.9 0 .54.38.82 1.3 1.2 1.07.43 1.61.98 1.61 1.9 0 .83-.57 1.6-1.65 1.79v1.08h-.66zM96.96 68.92v-1.05c-.56 0-1.12-.16-1.6-.46l.25-.7c.45.29.97.44 1.5.45.75 0 1.25-.43 1.25-1.03 0-.58-.4-.93-1.18-1.25-1.07-.41-1.72-.9-1.72-1.8 0-.87.61-1.53 1.57-1.69v-1.06h.65v1.02c.48 0 .95.13 1.36.36l-.26.7c-.4-.24-.85-.36-1.32-.36-.8 0-1.1.48-1.1.9 0 .54.38.82 1.3 1.2 1.07.43 1.61.98 1.61 1.9 0 .83-.57 1.6-1.65 1.79v1.08h-.66zM86.38 85.42v-1.06c-.57 0-1.12-.16-1.6-.46l.25-.7c.45.29.97.45 1.5.45.75 0 1.25-.43 1.25-1.03 0-.57-.4-.93-1.18-1.24-1.07-.42-1.73-.9-1.73-1.81 0-.87.62-1.53 1.58-1.69v-1.05h.65v1.01c.48 0 .95.13 1.36.37l-.26.69c-.4-.24-.85-.36-1.32-.36-.8 0-1.1.48-1.1.9 0 .55.38.82 1.3 1.2 1.07.44 1.61.98 1.61 1.91 0 .83-.57 1.6-1.65 1.78v1.09h-.66zM91.67 85.42v-1.06c-.56 0-1.12-.16-1.6-.46l.25-.7c.45.29.97.45 1.5.45.75 0 1.25-.43 1.25-1.03 0-.57-.4-.93-1.18-1.24-1.07-.42-1.73-.9-1.73-1.81 0-.87.62-1.53 1.58-1.69v-1.05h.65v1.01c.48 0 .95.13 1.36.37l-.26.69c-.4-.24-.85-.36-1.32-.36-.8 0-1.1.48-1.1.9 0 .55.38.82 1.3 1.2 1.07.44 1.61.98 1.61 1.91 0 .83-.57 1.6-1.65 1.78v1.09h-.66zM96.96 85.42v-1.06c-.56 0-1.12-.16-1.6-.46l.25-.7c.45.29.97.45 1.5.45.75 0 1.25-.43 1.25-1.03 0-.57-.4-.93-1.18-1.24-1.07-.42-1.72-.9-1.72-1.81 0-.87.61-1.53 1.57-1.69v-1.05h.65v1.01c.48 0 .95.13 1.36.37l-.26.69c-.4-.24-.85-.36-1.32-.36-.8 0-1.1.48-1.1.9 0 .55.38.82 1.3 1.2 1.07.44 1.61.98 1.61 1.91 0 .83-.57 1.6-1.65 1.78v1.09h-.66z" fill="#166DFF"/><path fill="#3F3D56" d="M90.28 102.7l-2.07-2.75.49-.37 1.68 2.25 6.64-5.43.39.47zM194.09 126.35v8.01c-1.65-2.29-4.95-4.64-11.12-6.56l11.12 15.28v.11l.06-.03.02.02.04-.06c1.3-.75 12.16-7.51-.12-16.77z"/><path fill="#F2F2F2" d="M103.89 1.91h1.04v1.04h-1.04z"/></g></svg>