<?xml version="1.0" encoding="UTF-8"?>
<svg width="200px" height="145px" viewBox="0 0 200 145" version="1.1" xmlns="http://www.w3.org/2000/svg" xmlns:xlink="http://www.w3.org/1999/xlink">
    <!-- Generator: Sketch 56.3 (81716) - https://sketch.com -->
    <title>undraw_transfer_money_rywa</title>
    <desc>Created with Sketch.</desc>
    <g id="Accounts" stroke="none" stroke-width="1" fill="none" fill-rule="evenodd">
        <g id="Request-Funds-No-Accounts-" transform="translate(-87.000000, -150.000000)">
            <g id="undraw_transfer_money_rywa" transform="translate(87.000000, 150.000000)">
                <circle id="Oval" fill="#F2F2F2" fill-rule="nonzero" cx="85.4195972" cy="67.6465213" r="67.6465213"></circle>
                <ellipse id="Oval" fill="#F2F2F2" fill-rule="nonzero" cx="26.8409718" cy="140.37109" rx="26.8409718" ry="4.29455548"></ellipse>
                <ellipse id="Oval" fill="#F2F2F2" fill-rule="nonzero" cx="157.781388" cy="133.655205" rx="41.5309631" ry="6.64495409"></ellipse>
                <path d="M148.553959,69.7837518 C148.553959,69.7837518 148.90754,70.9623552 146.903914,72.0230977 C144.900288,73.0838403 144.310985,77.091094 146.668194,78.2696974 C149.025403,79.4483008 149.732562,80.9804868 148.553954,82.0412293 C147.375345,83.1019718 145.253863,85.9306312 148.082512,86.6377838 C150.91116,87.3449364 151.264741,88.7592706 150.439719,89.3485714 C149.614696,89.9378722 152.325478,88.2878289 152.325478,88.2878289 C152.325478,88.2878289 152.79692,91.1164684 155.271988,90.4093158 C157.747055,89.7021631 164.700817,76.2660714 161.165005,74.3803063 C157.629193,72.4945413 148.553959,69.7837518 148.553959,69.7837518 Z" id="Path" fill="#2F2E41" fill-rule="nonzero"></path>
                <path d="M152.825799,81.164362 C152.825799,81.164362 154.048366,85.4433479 151.908874,85.7489904 C150.581172,85.9559308 149.323002,86.4801679 148.241171,87.2771992 L152.214514,92.4731036 L159.54992,92.4731036 L164.13455,87.8884752 C164.13455,87.8884752 158.021711,83.3038468 159.244279,80.5530697 C160.466847,77.8022927 152.825799,81.164362 152.825799,81.164362 Z" id="Path" fill="#FFB9B9" fill-rule="nonzero"></path>
                <path d="M152.825799,81.164362 C152.825799,81.164362 154.048366,85.4433479 151.908874,85.7489904 C150.581172,85.9559308 149.323002,86.4801679 148.241171,87.2771992 L152.214514,92.4731036 L159.54992,92.4731036 L164.13455,87.8884752 C164.13455,87.8884752 158.021711,83.3038468 159.244279,80.5530697 C160.466847,77.8022927 152.825799,81.164362 152.825799,81.164362 Z" id="Path" fill="#000000" fill-rule="nonzero" opacity="0.1"></path>
                <polygon id="Path" fill="#FFB9B9" fill-rule="nonzero" points="154.659674 134.346137 161.68947 136.791204 166.579605 137.096792 166.274017 132.817834 156.187796 129.834859"></polygon>
                <path d="M163.676086,133.429128 C163.676086,133.429128 163.676086,137.708113 164.287369,137.708113 C164.898653,137.708113 173.150986,136.791188 175.596124,137.708113 C178.041262,138.625039 181.708963,135.262979 179.875111,133.429128 C178.04126,131.595276 175.049963,128.844499 173.183548,129.455782 C171.317134,130.067066 163.676086,131.595276 163.676086,131.595276 L163.676086,133.429128 Z" id="Path" fill="#575A89" fill-rule="nonzero"></path>
                <path d="M141.211406,129.455782 C141.211406,129.455782 137.543703,136.791188 139.988838,137.402473 C142.433973,138.013758 145.184751,137.09683 145.490392,136.791188 C145.796033,136.485545 150.075022,135.262979 150.686296,135.874262 C151.29758,136.485545 151.29758,133.429128 151.29758,133.429128 L141.211406,129.455782 Z" id="Path" fill="#575A89" fill-rule="nonzero"></path>
                <path d="M144.267826,119.3696 C144.267826,119.3696 138.460629,127.316289 142.739615,129.455782 C147.018601,131.595276 167.496603,131.595276 169.024819,129.455782 C170.553035,127.316289 171.164313,120.592168 169.024819,119.980883 C166.885325,119.3696 144.267826,119.3696 144.267826,119.3696 Z" id="Path" fill="#2F2E41" fill-rule="nonzero"></path>
                <path d="M144.267826,119.3696 C144.267826,119.3696 138.460629,127.316289 142.739615,129.455782 C147.018601,131.595276 167.496603,131.595276 169.024819,129.455782 C170.553035,127.316289 171.164313,120.592168 169.024819,119.980883 C166.885325,119.3696 144.267826,119.3696 144.267826,119.3696 Z" id="Path" fill="#000000" fill-rule="nonzero" opacity="0.2"></path>
                <circle id="Oval" fill="#FFB9B9" fill-rule="nonzero" cx="155.270934" cy="76.2740911" r="7.02976476"></circle>
                <path d="M144.267826,87.2771992 L150.380663,86.054631 C150.380663,86.054631 151.908874,90.944902 156.799143,90.0279763 C161.689412,89.1110506 162.911982,86.054631 162.911982,86.054631 C162.911982,86.054631 166.579685,87.5828417 166.885327,87.5828417 C167.19097,87.5828417 171.164313,89.1110506 171.164313,90.0279763 C171.164313,90.944902 166.579685,100.114159 166.579685,100.114159 L167.190968,116.618817 L144.573459,116.007532 L146.10167,99.8085126 L144.267826,87.2771992 Z" id="Path" fill="#166DFF" fill-rule="nonzero"></path>
                <path d="M140.905764,95.2238897 C140.905764,95.2238897 139.071912,111.422909 140.294481,112.645478 C141.517049,113.868046 146.407318,117.230106 146.407318,117.230106 L146.407318,113.562403 L143.962183,108.977775 L146.407318,98.2803074 L140.905764,95.2238897 Z" id="Path" fill="#FFB9B9" fill-rule="nonzero"></path>
                <path d="M172.539702,94.7654259 C172.539702,94.7654259 171.469955,111.422909 171.469955,112.034194 C171.469955,112.645479 168.719178,114.784971 167.802253,114.784971 C166.885327,114.784971 166.274042,113.256761 166.274042,113.256761 L168.413536,110.811626 L166.885327,98.2803074 L172.539702,94.7654259 Z" id="Path" fill="#FFB9B9" fill-rule="nonzero"></path>
                <path d="M169.636104,118.147032 C169.636104,118.147032 183.389989,110.505984 183.695632,118.147032 C184.001274,125.78808 176.665867,128.844499 176.665867,128.844499 C176.665867,128.844499 157.716068,134.526805 156.951964,132.449753 C156.18786,130.372701 154.659651,127.010648 155.882217,126.705005 C157.104783,126.399363 158.632994,125.78808 159.244279,126.399363 C159.855564,127.010646 167.496608,121.814734 167.496608,121.814734 L169.636104,118.147032 Z" id="Path" fill="#2F2E41" fill-rule="nonzero"></path>
                <path d="M176.054584,117.230106 C176.054584,117.230106 173.303807,118.452674 172.386881,119.3696 C171.469955,120.286526 167.49661,121.814734 167.49661,121.814734" id="Path" stroke="#000000" stroke-width="1.06299921" opacity="0.2"></path>
                <path d="M146.101677,87.8884824 L144.267826,87.2771992 C144.267826,87.2771992 137.543703,94.306964 139.683197,96.1408154 C141.822691,97.9746667 143.045258,98.5859499 143.656541,99.1972403 C144.267824,99.8085308 147.324243,100.114166 147.324243,100.114166 L146.101677,87.8884824 Z" id="Path" fill="#166DFF" fill-rule="nonzero"></path>
                <path d="M168.413536,89.4166931 L171.164313,90.0279763 C171.164313,90.0279763 173.303807,94.6126047 173.91509,95.2238806 C174.526373,95.8351565 172.998164,95.5295213 172.081239,96.7520895 C171.164313,97.9746576 170.247387,100.11415 168.413536,100.11415 C166.579685,100.11415 164.13455,97.0577247 164.13455,97.0577247 L168.413536,89.4166931 Z" id="Path" fill="#166DFF" fill-rule="nonzero"></path>
                <path d="M144.879109,120.897809 C144.879109,120.897809 133.264716,112.645479 129.291372,118.758317 C125.318029,124.871154 146.407318,133.123485 149.463737,134.346053 C152.520157,135.568621 155.270934,136.791188 155.270934,136.791188 C155.270934,136.791188 158.021711,130.067066 158.021711,128.844499 C158.021711,127.621933 155.882217,127.621931 155.270934,127.621931 C154.659651,127.621931 151.908874,127.010648 151.297589,126.093722 C150.686304,125.176796 144.879109,120.897809 144.879109,120.897809 Z" id="Path" fill="#2F2E41" fill-rule="nonzero"></path>
                <path d="M138.460629,118.758317 C138.460629,118.758317 141.517054,121.203451 144.267826,121.814742 C147.018597,122.426032 147.935528,123.954236 147.935528,123.954236" id="Path" stroke="#000000" stroke-width="1.06299921" opacity="0.2"></path>
                <path d="M142.770756,107.266302 L143.014925,120.207308 C143.031712,121.097043 143.763029,121.80667 144.652865,121.796776 L168.735341,121.526085 C169.586741,121.51652 170.285437,120.849508 170.334477,119.999469 L171.065464,107.329052 C171.091143,106.883935 170.93224,106.447911 170.626186,106.123691 C170.320131,105.79947 169.893983,105.615716 169.448127,105.615716 L144.390496,105.615716 C143.955541,105.615716 143.538855,105.790619 143.23421,106.101066 C142.929564,106.411513 142.762551,106.831424 142.770756,107.266302 Z" id="Path" fill="#575A89" fill-rule="nonzero"></path>
                <path d="M155.646508,67.4433479 C155.646508,67.4433479 156.038205,68.7490052 153.818589,69.9240975 C151.598973,71.0991898 150.946142,75.5384235 153.557457,76.8440809 C156.168772,78.1497382 156.952165,79.8470905 155.646508,81.0221828 C154.340851,82.1972751 151.990668,85.3308516 155.124246,86.1142452 C158.257824,86.8976389 158.649519,88.464428 157.735559,89.1172567 C156.821599,89.7700853 159.824621,87.9421662 159.824621,87.9421662 C159.824621,87.9421662 160.346883,91.0757426 163.088762,90.292349 C165.830642,89.5089553 168.566366,75.26867 165.509947,71.6009672 C162.66801,68.1906531 155.646508,67.4433479 155.646508,67.4433479 Z" id="Path" fill="#2F2E41" fill-rule="nonzero"></path>
                <path d="M154.812472,66.0994132 C154.813069,64.1865587 160.535892,65.561034 162.989538,68.231805 C164.688626,70.0812749 167.269363,72.8637515 165.106784,74.8251138 C162.944206,76.7864761 168.813628,79.3576254 170.38776,80.1371689 C171.961892,80.9167123 175.06991,83.300595 172.263598,84.8998472 C169.457285,86.4990994 169.502527,88.113475 170.558652,88.4957068 C171.614777,88.8779386 168.230136,87.9273801 168.230136,87.9273801 C168.230136,87.9273801 168.572086,91.0857282 165.720527,91.0706571 C162.868967,91.0554777 154.688075,75.3841478 156.642424,71.0281954 C158.459623,66.9779454 154.812472,66.0994132 154.812472,66.0994132 Z" id="Path" fill="#2F2E41" fill-rule="nonzero"></path>
                <path d="M156.052052,65.6802188 C148.399139,65.2193884 147.631079,70.9800213 147.631079,70.9800213 C147.683985,74.3137081 152.978022,72.6893505 154.448401,73.1863165 C156.222334,71.9102097 159.641703,69.4956684 162.087137,67.7725343 C160.311731,66.5224101 158.220268,65.7973168 156.052052,65.6802188 Z" id="Path" fill="#2F2E41" fill-rule="nonzero"></path>
                <path d="M153.871754,102.439764 C153.871754,102.439764 147.006985,70.2669746 104.039493,46.9282237" id="Path" stroke="#3F3D56" stroke-width="1.06299921"></path>
                <polygon id="Path" fill="#3F3D56" fill-rule="nonzero" points="105.809831 46.2265009 105.895795 46.5792421 104.157842 47.0007179 104.705361 48.7034874 104.359693 48.814297 103.693203 46.7402879"></polygon>
                <path d="M12.4181787,135.313226 C12.4181787,139.388077 9.99588257,140.810865 7.00756837,140.810865 C6.93834284,140.810865 6.86922674,140.810095 6.80022005,140.808556 C6.66176235,140.805589 6.52462493,140.798996 6.38913787,140.789765 C3.69224226,140.598897 1.59695984,139.102926 1.59695984,135.313226 C1.59695984,131.391334 6.60868795,126.442571 6.98515072,126.076324 L6.98581086,126.075666 C7.00031949,126.061491 7.00757381,126.054567 7.00757381,126.054567 C7.00757381,126.054567 12.4181787,131.238375 12.4181787,135.313226 Z" id="Path" fill="#166DFF" fill-rule="nonzero"></path>
                <path d="M6.81043594,140.187487 L8.78934643,137.422361 L6.80549031,140.4911 L6.80022005,140.808556 C6.66176235,140.805589 6.52462493,140.798996 6.38913787,140.789765 L6.60242748,136.712937 L6.60077712,136.681289 L6.60440428,136.675356 L6.62451324,136.290321 L4.63570605,133.21399 L6.6307719,136.001543 L6.6353929,136.083297 L6.79658926,133.003013 L5.0939304,129.824158 L6.81735837,132.462372 L6.98515072,126.076317 L6.98581086,126.054554 L6.98581086,126.075653 L6.9577965,131.111468 L8.65287823,129.11508 L6.95086863,131.545276 L6.90603695,134.303158 L8.48870578,131.656368 L6.89944459,134.708965 L6.87439181,136.242183 L9.17207693,132.558301 L6.86582083,136.777212 L6.81043594,140.187487 Z" id="Path" fill="#3F3D56" fill-rule="nonzero"></path>
                <path d="M38.2253959,134.25754 L39.3827858,133.397684 C39.3827858,133.397684 40.1489051,137.677112 39.2940129,138.318287 C38.4391207,138.959461 35.2332713,140.028073 35.2332713,141.310413 C35.2332713,142.592753 27.9666803,144.302538 27.7529573,142.379028 C27.5392342,140.455519 28.3941264,139.386904 28.3941264,139.386904 C28.3941264,139.386904 31.8136989,135.967331 32.241145,135.326162 C32.6685911,134.684993 33.7372081,133.402653 33.7372081,133.402653 L38.2253959,134.25754 Z" id="Path" fill="#2F2E41" fill-rule="nonzero"></path>
                <path d="M21.1275372,81.0404528 C21.1275372,81.0404528 21.1595995,81.22853 21.215144,81.5726204 C21.2664683,81.8782448 21.3369802,82.3099691 21.422476,82.8421385 C22.3201288,88.319873 24.9382389,104.445287 24.7608309,104.977456 C24.5471079,105.618625 23.0510465,107.969581 24.7608309,108.610752 C24.9254024,108.672725 25.1027831,108.873626 25.2930003,109.189933 C25.6601338,109.871208 25.9627983,110.585302 26.197046,111.3229 C27.2165096,114.280822 28.3065197,119.014797 28.9369923,122.293304 C29.2127035,123.733809 29.4007554,124.892186 29.4563252,125.499153 C29.4756444,125.639429 29.4777997,125.781536 29.4627435,125.922333 C29.2490204,126.777227 30.7450818,129.769352 31.3862528,130.624244 C32.0274237,131.479136 33.096039,132.33403 32.8823141,133.188924 C32.6685893,134.043818 38.2253959,136.394772 38.866565,134.898711 C39.5077342,133.402649 39.507736,132.547754 39.721459,132.120307 C39.9351821,131.692861 40.1489051,128.700737 39.0802899,128.273289 C38.0116746,127.845841 38.652842,120.365529 37.5842267,118.869467 C37.2273252,118.371488 36.6823211,116.685209 36.1116693,114.656976 C35.887277,113.861932 35.6607174,113.015584 35.4384361,112.167113 C34.5365305,108.689833 33.7372081,105.191181 33.7372081,105.191181 L33.9509276,80.1855588 L22.1961489,78.6894974 L21.8948172,79.3541742 L21.2942432,80.6728439 L21.1275372,81.0404528 Z" id="Path" fill="#2F2E41" fill-rule="nonzero"></path>
                <path d="M20.4863717,122.075309 C20.4863717,122.075309 18.7765855,120.365523 17.9216933,122.075309 C17.0668011,123.785096 16.2119071,130.410519 14.7158439,131.906579 C13.2197807,133.402638 11.2962732,140.882956 13.4335056,141.310402 C15.5707379,141.737848 17.9216933,140.669231 18.1354163,139.386893 C18.3491394,138.104555 22.8373144,131.479138 22.8373144,130.837969 C22.8373144,130.1968 19.8451899,127.845843 19.8451899,127.845843 L20.4863717,122.075309 Z" id="Path" fill="#2F2E41" fill-rule="nonzero"></path>
                <path d="M46.7743252,69.2856741 C46.7743252,69.2856741 43.9959219,94.2912929 43.3547545,96.6422464 C42.7135872,98.9932 39.2940129,107.969577 38.2253959,109.46564 C37.1567788,110.961704 30.3176357,123.143928 29.4627435,123.785098 C28.6078513,124.426267 26.8980632,126.136053 26.8980632,126.136053 C26.8980632,126.136053 23.6922157,129.341902 23.2647696,129.983071 C22.8373235,130.624241 19.204028,128.700733 18.9903049,127.418393 C18.7765819,126.136053 19.204028,123.998821 19.417751,123.143928 C19.6314741,122.289036 18.9903049,121.006696 19.6314741,120.365525 C20.2726432,119.724354 23.4784926,116.518507 23.4784926,115.022445 C23.4784926,113.526384 29.0352992,104.76373 31.1725297,102.84022 C33.3097602,100.916711 32.8823141,97.7108617 32.8823141,97.7108617 L32.8823141,84.6737483 L21.1275372,81.0404528 C21.1275372,81.0404528 21.7687064,70.7817373 23.2647696,70.7817373 C24.7608327,70.7817373 44.4233698,67.3621648 46.7743252,69.2856741 Z" id="Path" fill="#2F2E41" fill-rule="nonzero"></path>
                <circle id="Oval" fill="#9F616A" fill-rule="nonzero" cx="29.4627435" cy="26.5410257" r="7.05286795"></circle>
                <path d="M31.8136989,32.0978287 C31.8136989,32.0978287 32.6685911,35.3036781 33.7372081,36.1585721 C34.8058252,37.0134661 30.9588049,40.6467598 30.9588049,40.6467598 L23.6922157,41.0742059 L22.4098755,37.0134643 C22.4098755,37.0134643 24.7608309,32.3115536 24.1196618,29.3194272 C23.4784926,26.3273009 31.8136989,32.0978287 31.8136989,32.0978287 Z" id="Path" fill="#9F616A" fill-rule="nonzero"></path>
                <path d="M34.8058234,35.7311242 C34.8058234,35.7311242 32.8823141,35.9448472 32.454868,36.5860182 C32.0274219,37.2271892 29.0352974,39.1506966 26.6843402,38.7232505 C24.333383,38.2958044 22.8373216,37.6546335 22.4098755,37.8683565 C21.9824294,38.0820796 21.1275372,42.5702691 21.1275372,42.5702691 L23.4784926,49.4094122 L23.0510465,68.217057 L22.4098755,73.3464157 C22.4098755,73.3464157 21.1275372,71.6366295 26.2568941,72.7052465 C31.386251,73.7738636 38.0116728,71.8503525 40.1489106,71.6366295 C42.2861483,71.4229064 45.9194384,70.7817373 46.1331614,69.4993971 C46.3468845,68.217057 45.4919923,63.5151463 45.4919923,63.5151463 L42.0724198,49.1956891 L39.9351875,41.501652 L34.8058234,35.7311242 Z" id="Path" fill="#166DFF" fill-rule="nonzero"></path>
                <path d="M32.7842376,34.766505 C32.7842376,34.766505 34.5921004,33.8076149 35.2332713,34.6625089 C35.8744423,35.517403 43.9959237,36.7997413 43.9959237,37.4409122 C43.9959237,38.0820832 45.7057099,55.3936649 45.2782638,56.8897353 C44.8508177,58.3858057 46.133156,60.0955829 46.133156,60.0955829 L47.6292192,66.5072817 C47.6292192,66.5072817 51.6899608,78.6895065 49.9801746,79.1169526 C48.2703883,79.5443987 46.7743252,79.1169526 46.133156,79.1169526 C45.4919869,79.1169526 45.7057099,70.9954694 43.9959237,68.858237 C42.2861375,66.7210047 39.9351821,61.377923 39.507736,60.3093077 C39.0802899,59.2406925 33.7372081,44.4937874 33.9509294,42.7840012 C34.1646506,41.074215 32.7842376,34.766505 32.7842376,34.766505 Z" id="Path" fill="#D0CDE1" fill-rule="nonzero"></path>
                <path d="M23.9059387,35.7311242 C23.9059387,35.7311242 22.1961525,35.7311242 21.9824294,36.1585721 C21.7687064,36.58602 19.6314741,39.3644197 18.77658,40.0055925 C17.921686,40.6467653 14.9295651,43.4251613 14.9295651,44.0663304 C14.9295651,44.7074996 21.127539,49.4094122 21.127539,49.4094122 C21.127539,49.4094122 23.6922175,62.0190831 22.4098774,66.2935477 C21.1275372,70.5680124 19.2040298,80.8267297 20.058922,81.4678989 C20.9138142,82.109068 22.8373253,82.3227911 22.8373253,81.4678989 C22.8373253,80.6130067 24.1196654,71.4229064 25.1882825,69.4993971 C26.2568995,67.5758879 29.4627471,55.3936631 28.180407,51.9740906 C26.8980669,48.5545182 23.9059387,35.7311242 23.9059387,35.7311242 Z" id="Path" fill="#D0CDE1" fill-rule="nonzero"></path>
                <path d="M52.1174069,56.8897262 C52.1174069,56.8897262 52.3311299,63.5151463 49.9801746,66.9347187 C47.6292192,70.3542912 46.133156,74.2013079 46.133156,74.2013079 C46.133156,74.2013079 42.2861375,73.1326926 41.6449683,71.8503525 C41.0037991,70.5680124 36.9430557,71.6366295 36.9430557,71.2091834 C36.9430557,70.7817373 41.8586914,68.6445049 42.2861375,68.217057 C42.7135836,67.7896091 44.2096467,67.7896109 45.0645407,66.9347187 C45.9194348,66.0798265 46.1331578,64.1563154 46.1331578,64.1563154 L46.98805,58.5995088 L52.1174069,56.8897262 Z" id="Path" fill="#9F616A" fill-rule="nonzero"></path>
                <path d="M34.3203845,22.1923748 C34.8629711,22.143089 35.4225636,22.0888575 35.9020957,21.8302484 C36.9765652,21.2507935 37.2614876,19.6006577 36.4435434,18.6944467 C36.2180173,18.4638683 35.965769,18.2610398 35.692154,18.0902673 L34.0675806,16.9844954 C33.3490659,16.4954384 32.6135671,15.9983654 31.775543,15.7678159 C31.0175684,15.5592924 30.2170183,15.5807198 29.4323987,15.6294906 C27.9092425,15.7241594 26.3766574,15.9197141 24.9440351,16.4456012 C23.5114127,16.9714884 22.1750261,17.8512865 21.3073627,19.1067258 C19.9318481,21.0969839 19.9129415,23.7812007 20.6705334,26.0788496 C21.4281253,28.3764984 22.8672094,30.3772861 24.2851962,32.3375113 L25.0209508,28.7475676 C25.0864845,28.4278173 25.1712312,28.0773721 25.4371672,27.8881306 C26.0981334,27.4177843 26.9066505,28.3834988 27.7178609,28.3772384 C28.239098,28.3732159 28.6767111,27.9444966 28.8742443,27.4621226 C29.0717775,26.9797487 29.0847827,26.4455589 29.1304849,25.9263149 C29.2272829,24.8265224 29.6116909,23.2962515 30.6532004,22.689709 C31.623721,22.1245143 33.2294858,22.2914579 34.3203845,22.1923748 Z" id="Path" fill="#2F2E41" fill-rule="nonzero"></path>
                <path d="M33.9247395,81.2129459 C33.9247395,81.2129459 33.2029005,102.092191 32.7754526,102.733362 C32.3480047,103.374533 32.7754526,81.1473143 32.7754526,81.1473143 L33.9247395,81.2129459 Z" id="Path" fill="#000000" fill-rule="nonzero" opacity="0.1"></path>
                <path d="M42.2861375,37.4409104 L43.9959237,37.4409104 C43.9959237,37.4409104 51.2625147,47.2721798 50.4076207,47.913349 C49.5527266,48.5545182 50.4076207,50.2643062 50.4076207,50.2643062 L52.1174069,53.4701538 C52.1174069,53.4701538 54.2546392,55.3936631 53.6134701,55.8211092 C52.9723009,56.2485553 52.1174069,57.9583415 52.1174069,57.9583415 C52.1174069,57.9583415 47.8429422,57.3171723 46.5606003,59.8818508 L43.7886515,56.3824355 L42.2861375,37.4409104 Z" id="Path" fill="#D0CDE1" fill-rule="nonzero"></path>
                <polygon id="Rectangle" fill="#2F2E41" fill-rule="nonzero" transform="translate(42.214371, 47.281165) rotate(-22.437870) translate(-42.214371, -47.281165) " points="39.0406072 41.3667525 45.3881343 41.3667525 45.3881343 53.1955779 39.0406072 53.1955779"></polygon>
                <ellipse id="Oval" fill="#166DFF" fill-rule="nonzero" transform="translate(41.757675, 45.937641) rotate(-22.437850) translate(-41.757675, -45.937641) " cx="41.7576747" cy="45.9376412" rx="1.26950542" ry="1.16622209"></ellipse>
                <path d="M38.0116728,54.5387708 C38.0116728,54.5387708 22.6235986,67.3621648 20.0589202,63.3014232 C17.4942417,59.2406816 22.8373235,55.8211092 22.8373235,55.8211092 C22.8373235,55.8211092 27.539236,56.0348322 32.8823159,52.6152616 L38.2253977,50.2643062 C38.2253977,50.2643062 43.1032093,43.3003435 44.7654199,45.952159 C46.4276305,48.6039745 41.9280571,53.2192397 38.0116728,54.5387708 Z" id="Path" fill="#9F616A" fill-rule="nonzero"></path>
                <path d="M17.2805187,43.2114382 L14.9295651,44.0663304 L14.9295651,50.4780292 L14.0746711,51.7603676 C14.0746711,51.7603676 14.2883942,54.3250478 14.9295651,54.9662169 C15.5707361,55.6073861 16.8530726,55.3936631 16.4256265,56.8897262 C16.1687291,57.8650979 16.0962455,58.879868 16.2119034,59.8818508 C16.2119034,59.8818508 20.058922,64.7974864 20.272645,64.1563154 C20.4863681,63.5151444 23.4784944,55.6073861 23.9059405,55.6073861 C24.3333866,55.6073861 19.6314759,43.2114382 19.6314759,43.2114382 L17.2805187,43.2114382 Z" id="Path" fill="#D0CDE1" fill-rule="nonzero"></path>
                <path d="M45.3851253,75.5905095 C45.3851253,75.5905095 47.5949715,73.4532772 46.4900503,73.3464157 C45.385129,73.2395542 41.5381068,71.1023218 40.8969358,72.1709371 C40.2557648,73.2395523 45.3851253,75.5905095 45.3851253,75.5905095 Z" id="Path" fill="#2F2E41" fill-rule="nonzero"></path>
                <ellipse id="Oval" fill="#57B894" fill-rule="nonzero" cx="87.4145162" cy="33.1885605" rx="3.0830846" ry="1.63222126"></ellipse>
                <path d="M99.2027808,38.6292981 C92.2507273,36.003655 85.2986738,36.003655 78.3466203,38.6292981 L78.3466203,30.105476 C85.1472357,28.0533494 92.4021654,28.0533494 99.2027808,30.105476 L99.2027808,38.6292981 Z" id="Path" stroke="#3F3D56" stroke-width="1.06299921"></path>
                <path d="M96.3010541,36.8665245 C91.2834851,34.9714939 86.265916,34.9714939 81.248347,36.8665245 L81.248347,30.7145484 C86.1566173,29.2334491 91.3927838,29.2334491 96.3010541,30.7145484 L96.3010541,36.8665245 Z" id="Path" stroke="#3F3D56" stroke-width="1.06299921"></path>
                <ellipse id="Oval" stroke="#3F3D56" stroke-width="1.06299921" cx="88.5026637" cy="32.4631289" rx="3.0830846" ry="1.63222126"></ellipse>
                <ellipse id="Oval" fill="#57B894" fill-rule="nonzero" transform="translate(89.355082, 43.443515) rotate(-11.535460) translate(-89.355082, -43.443515) " cx="89.3550821" cy="43.4435148" rx="3.0830846" ry="1.63222126"></ellipse>
                <path d="M101.993244,46.4170047 C94.6565574,45.2346273 87.8449275,46.6248596 81.5583548,50.5877018 L79.8538098,42.2360518 C86.1066878,38.8654274 93.2150761,37.4146276 100.288699,38.0653547 L101.993244,46.4170047 Z" id="Path" stroke="#3F3D56" stroke-width="1.06299921"></path>
                <path d="M98.7976272,45.2701081 C93.5024524,44.4167393 88.5862328,45.4201244 84.0489685,48.2802633 L82.8187252,42.25255 C87.3316718,39.8198388 92.4620735,38.7727399 97.567384,39.2423948 L98.7976272,45.2701081 Z" id="Path" stroke="#3F3D56" stroke-width="1.06299921"></path>
                <ellipse id="Oval" stroke="#3F3D56" stroke-width="1.06299921" transform="translate(90.276183, 42.515136) rotate(-11.535460) translate(-90.276183, -42.515136) " cx="90.2761831" cy="42.5151359" rx="3.0830846" ry="1.63222126"></ellipse>
                <ellipse id="Oval" fill="#57B894" fill-rule="nonzero" transform="translate(88.715708, 53.588564) rotate(-86.019400) translate(-88.715708, -53.588564) " cx="88.7157082" cy="53.5885639" rx="1.63222126" ry="3.0830846"></ellipse>
                <path d="M100.097853,59.8345091 C93.3448421,56.7325959 86.4095594,56.2499928 79.2920047,58.3866998 L79.8837175,49.8834401 C86.8103837,48.3083557 94.0478116,48.8119841 100.689566,51.3312493 L100.097853,59.8345091 Z" id="Path" stroke="#3F3D56" stroke-width="1.06299921"></path>
                <path d="M97.3254961,57.8745541 C92.4515842,55.6357861 87.446122,55.2874726 82.3091095,56.8296133 L82.7361729,50.6924777 C87.7354186,49.5556772 92.9589534,49.9191656 97.7525667,51.7374185 L97.3254961,57.8745541 Z" id="Path" stroke="#3F3D56" stroke-width="1.06299921"></path>
                <ellipse id="Oval" stroke="#3F3D56" stroke-width="1.06299921" transform="translate(89.851588, 52.940421) rotate(-86.019400) translate(-89.851588, -52.940421) " cx="89.8515881" cy="52.9404211" rx="1.63222126" ry="3.0830846"></ellipse>
                <path d="M75.2493553,38.8271958 C75.2493553,38.8271958 61.9202521,37.0036909 52.4015458,42.5820048" id="Path" stroke="#3F3D56" stroke-width="1.06299921"></path>
                <polygon id="Path" fill="#3F3D56" fill-rule="nonzero" points="52.7221975 40.7074168 53.0684097 40.816957 52.5272377 42.52154 54.2671856 42.9366683 54.1824914 43.2897722 52.0636869 42.7836022"></polygon>
            </g>
        </g>
    </g>
</svg>