<svg width="46" height="37" viewBox="0 0 46 37" fill="none" xmlns="http://www.w3.org/2000/svg">
<path d="M23.1553 23.2424C23.0559 23.2354 22.9566 23.2143 22.8572 23.2143C19.7198 23.2143 17.1786 25.7315 17.1786 28.8393C17.1786 31.9471 19.7198 34.4643 22.8572 34.4643C25.9946 34.4643 28.5357 31.9471 28.5357 28.8393C28.5357 28.2768 28.4293 27.7494 28.2731 27.2362L23.1553 23.2424ZM22.8572 32.2143C20.9761 32.2143 19.45 30.7026 19.45 28.8393C19.45 26.976 20.9761 25.4643 22.8572 25.4643C24.7382 25.4643 26.2643 26.976 26.2643 28.8393C26.2643 30.7026 24.7382 32.2143 22.8572 32.2143ZM0.412615 11.8237C0.0648023 12.1541 0.0506059 12.7026 0.39132 13.0401L0.795919 13.4408C1.12244 13.7643 1.6548 13.7713 1.98842 13.4619C3.34418 12.1893 4.79221 11.0783 6.30413 10.101L4.43021 8.6385C3.03895 9.59475 1.6832 10.6283 0.412615 11.8237ZM43.7259 13.4619C44.0595 13.7783 44.5919 13.7713 44.9184 13.4408L45.323 13.0401C45.6637 12.7026 45.6566 12.1541 45.3017 11.8237C35.8895 2.97834 22.4384 0.756466 10.9961 5.16506L13.1397 6.8385C23.4889 3.37912 35.3358 5.5799 43.7259 13.4619ZM22.6087 14.2213L25.7745 16.6963C29.4514 17.2377 33.0005 18.7916 35.9463 21.3862C36.287 21.6885 36.8123 21.6674 37.1246 21.3369L37.515 20.9291C37.8486 20.5846 37.8273 20.0362 37.4653 19.7197C33.249 15.9932 27.9253 14.1651 22.6087 14.2213ZM45.3585 34.8299L1.77547 0.840841C1.53413 0.643966 1.17212 0.679122 0.980472 0.925216L0.270651 1.80412C0.0719006 2.05022 0.11449 2.40178 0.355829 2.59162L43.9389 36.5877C44.1802 36.7846 44.5422 36.7424 44.7339 36.5033L45.4437 35.6244C45.6425 35.3783 45.607 35.0268 45.3585 34.8299ZM8.23485 19.7197C7.87994 20.0362 7.85864 20.5846 8.19226 20.9291L8.58266 21.3369C8.90208 21.6674 9.42025 21.6885 9.76806 21.3862C11.5994 19.769 13.7218 18.5104 16.0216 17.6737L13.9844 16.0846C11.9259 16.9776 9.98101 18.1799 8.23485 19.7197Z" fill="#0878C8"/>
</svg>
