<?xml version="1.0" encoding="UTF-8"?>
<svg width="375px" height="806px" viewBox="0 0 375 806" version="1.1" xmlns="http://www.w3.org/2000/svg" xmlns:xlink="http://www.w3.org/1999/xlink">
    <!-- Generator: Sketch 63.1 (92452) - https://sketch.com -->
    <title>Group 2</title>
    <desc>Created with Sketch.</desc>
    <defs>
        <linearGradient x1="50.012528%" y1="99.9850584%" x2="50.012528%" y2="0.00588387637%" id="linearGradient-1">
            <stop stop-color="#303030" stop-opacity="0.25" offset="0%"></stop>
            <stop stop-color="#808080" stop-opacity="0.12" offset="54%"></stop>
            <stop stop-color="#808080" stop-opacity="0.1" offset="100%"></stop>
        </linearGradient>
    </defs>
    <g id="Login" stroke="none" stroke-width="1" fill="none" fill-rule="evenodd">
        <g id="Login---First-Time-User" transform="translate(0.000000, -6.000000)">
            <g id="Group-2" transform="translate(-243.000000, 6.000000)">
                <g id="sky" transform="translate(76.000000, 0.000000)" fill-rule="nonzero">
                    <g id="SKY" opacity="0.5" fill="#166DFF">
                        <path d="M546.794229,51.4165325 L488.03197,51.4165325 C485.226826,51.4165325 482.952807,48.6691242 482.952807,45.2800244 C482.952807,41.8909245 485.226826,39.1435162 488.03197,39.1435162 L498.190297,39.1435162 C495.385153,39.1435162 493.111134,36.396108 493.111134,33.0070081 C493.111134,29.6179083 495.385153,26.8705 498.190297,26.8705 L490.931337,26.8705 C488.126192,26.8705 485.852173,24.1230917 485.852173,20.7339918 C485.852173,17.344892 488.126192,14.5974837 490.931337,14.5974837 L521.61191,14.5974837 C514.806305,10.7760983 506.851497,8.05654562 497.689498,6.62989506 C414.061215,-6.35007752 384.203008,2.23530179 373.670399,11.0881781 C360.675964,21.9791266 346.179129,29.9912981 330.685967,33.8508974 C279.077238,46.6971215 182.581037,62.1673636 95.1414051,28.8639894 C51.6719887,12.3046524 19.3624989,40.2771939 0,87 L557,87 C556.272523,73.4213437 554.095362,60.8871994 550.099507,49.9070853 C549.184141,50.8746919 548.010488,51.4106729 546.794229,51.4165325 Z" id="Path" opacity="0.1"></path>
                        <path d="M116.262798,261 C114.008078,288.427502 114.775194,316.094448 118.544132,343.278918 L634.173045,366 C648.526675,346.082366 660.578476,323.911953 670,300.092973 L116.262798,261 Z M320.160321,319.693481 L310.028669,319.693481 C312.832267,319.693481 315.105032,322.435097 315.105032,325.817051 C315.105032,329.199005 312.832267,331.940621 310.028669,331.940621 L251.298806,331.940621 C248.495208,331.940621 246.222443,329.199005 246.222443,325.817051 C246.222443,322.435097 248.495208,319.693481 251.298806,319.693481 L261.451533,319.693481 C258.647935,319.693481 256.37517,316.951865 256.37517,313.569911 C256.37517,310.187957 258.647935,307.446341 261.451533,307.446341 L254.196575,307.446341 C251.392976,307.446341 249.120211,304.704725 249.120211,301.322771 C249.120211,297.940817 251.392976,295.199201 254.196575,295.199201 L312.926438,295.199201 C315.730036,295.199201 318.002801,297.940817 318.002801,301.322771 C318.002801,304.704725 315.730036,307.446341 312.926438,307.446341 L320.160321,307.446341 C322.963919,307.446341 325.236685,310.187957 325.236685,313.569911 C325.236685,316.951865 322.963919,319.693481 320.160321,319.693481 Z" id="Shape" opacity="0.1" transform="translate(392.500000, 313.500000) scale(-1, 1) translate(-392.500000, -313.500000) "></path>
                        <path d="M698.738913,95 L135.489643,111.590876 C128.636757,132.910151 124.098038,157.01797 122,182 L688.870757,182 C692.57569,167.323201 695.316593,152.314908 697.067863,137.1153 C698.738913,122.438756 699.41893,108.215271 698.738913,95 Z M236.343044,149.328737 L226.206044,149.328737 C229.011122,149.328737 231.285087,152.081378 231.285087,155.476933 C231.285087,158.872487 229.011122,161.625128 226.206044,161.625128 L167.445179,161.625128 C164.640101,161.625128 162.366136,158.872487 162.366136,155.476933 C162.366136,152.081378 164.640101,149.328737 167.445179,149.328737 L177.603265,149.328737 C174.798187,149.328737 172.524222,146.576096 172.524222,143.180541 C172.524222,139.784987 174.798187,137.032346 177.603265,137.032346 L170.344477,137.032346 C167.539399,137.032346 165.265434,134.279705 165.265434,130.88415 C165.265434,127.488595 167.539399,124.735954 170.344477,124.735954 L229.105342,124.735954 C231.91042,124.735954 234.184385,127.488595 234.184385,130.88415 C234.184385,134.279705 231.91042,137.032346 229.105342,137.032346 L236.343044,137.032346 C239.148122,137.032346 241.422087,139.784987 241.422087,143.180541 C241.422087,146.576096 239.148122,149.328737 236.343044,149.328737 L236.343044,149.328737 Z" id="Shape" opacity="0.1"></path>
                        <path d="M115,388 C124.154687,435.203504 143.53457,476.007181 174.162695,495.785576 C237.813086,536.88825 381.361328,515.691205 488.496484,491.332415 C542.629264,479.072488 591.767343,445.193813 628,395.150504 L115,388 Z" id="Path" opacity="0.1"></path>
                    </g>
                    <g id="undraw_ideation_2a64" transform="translate(467.642305, 129.246479) scale(-1, 1) rotate(30.000000) translate(-467.642305, -129.246479) translate(399.142305, 45.746479)">
                        <polygon id="Path" fill="#166DFF" points="100.671143 131.959899 110.676094 149.28857 120.680673 166.617241 100.671143 166.617241 80.661984 166.617241 90.6665635 149.28857"></polygon>
                        <rect id="Rectangle" fill="#166DFF" x="1.86143945" y="97.9248716" width="41.958042" height="41.958042"></rect>
                        <circle id="Oval" fill="#166DFF" cx="73.8956" cy="44.2705613" r="26.9199827"></circle>
                        <path d="M98.1236846,89.2198032 C98.1236846,86.7589763 100.118579,84.7640819 102.579406,84.7640819 C105.040233,84.7640819 107.035127,86.7589763 107.035127,89.2198032 C107.035127,91.6806301 105.040233,93.6755245 102.579406,93.6755245 C100.119718,93.6727763 98.1264328,91.6794909 98.1236846,89.2198032 Z M98.8663048,89.2198032 C98.8663048,91.2704923 100.528717,92.9329043 102.579406,92.9329043 C104.630095,92.9329043 106.292507,91.2704923 106.292507,89.2198032 C106.292507,87.1691141 104.630095,85.5067021 102.579406,85.5067021 C100.529688,85.5090451 98.8686478,87.1700854 98.8663048,89.2198032 Z" id="Shape" fill="#3F3D56"></path>
                        <path d="M59.7618962,166.72608 L53.2031153,159.694272 L60.234923,153.135495 L66.7937038,160.167302 L59.7618962,166.72608 Z M54.2485463,159.73066 L59.7982845,165.680649 L65.7482728,160.130914 L60.1985346,154.180926 L54.2485463,159.73066 Z" id="Shape" fill="#3F3D56"></path>
                        <path d="M5.59463952,66.6928647 L0.256574045,60.96981 L5.97963983,55.6317371 L11.3177053,61.3547918 L5.59463952,66.6928647 Z M1.10742744,60.9994183 L5.62425521,65.8420038 L10.4668408,61.3251798 L5.950013,56.4825794 L1.10742744,60.9994183 Z" id="Shape" fill="#3F3D56"></path>
                        <path d="M80.5791819,74.5323349 C60.072291,74.5323349 43.4481713,57.9082152 43.4481713,37.4013243 C43.4481713,16.8944334 60.072291,0.270313757 80.5791819,0.270313757 C101.086073,0.270313757 117.710192,16.8944334 117.710192,37.4013243 C117.687004,57.8986027 101.07646,74.5091468 80.5791819,74.5323349 L80.5791819,74.5323349 Z M80.5791819,1.01293397 C60.4824288,1.01293397 44.1907915,17.3045713 44.1907915,37.4013243 C44.1907915,57.4980774 60.4824288,73.7897147 80.5791819,73.7897147 C100.675935,73.7897147 116.967572,57.4980774 116.967572,37.4013243 C116.944918,17.3139624 100.666544,1.03558817 80.5791819,1.01293397 Z" id="Shape" fill="#3F3D56"></path>
                        <polygon id="Rectangle" fill="#3F3D56" transform="translate(53.259154, 76.433035) rotate(-64.335790) translate(-53.259154, -76.433035) " points="42.1854182 76.0617171 64.3328889 76.0617171 64.3328889 76.8043522 42.1854182 76.8043522"></polygon>
                        <polygon id="Rectangle" fill="#3F3D56" transform="translate(76.455431, 124.581432) rotate(-61.578070) translate(-76.455431, -124.581432) " points="76.0840878 100.560828 76.8267749 100.560828 76.8267749 148.602036 76.0840878 148.602036"></polygon>
                        <path d="M55.7014048,140.254224 L1.49012934,140.254224 L1.49012934,86.0429482 L55.7014048,86.0429482 L55.7014048,140.254224 Z M2.23274955,139.511603 L54.9587846,139.511603 L54.9587846,86.7855684 L2.23274955,86.7855684 L2.23274955,139.511603 Z" id="Shape" fill="#3F3D56"></path>
                        <path d="M136.09367,166.988551 L80.0189529,166.988551 L108.05613,118.426521 L136.09367,166.988551 Z M81.3051228,166.245931 L134.807137,166.245931 L108.05613,119.91158 L81.3051228,166.245931 Z" id="Shape" fill="#3F3D56"></path>
                    </g>
                </g>
                <g id="landscape" transform="translate(0.000000, 389.000000)">
                    <g id="GROUND" transform="translate(0.000000, 140.000000)">
                        <circle id="Oval-Copy-2" fill="#0043B3" cx="187.5" cy="247.5" r="187.5"></circle>
                        <path d="M440.278007,37.393208 C340.541893,12.8889556 274.782557,0.636829433 243,0.636829433 L243,79.5274709 L440.278007,37.393208 Z" id="Oval-Copy" fill="#003387"></path>
                        <path d="M618,277 L618,10.8150317 C553.115891,4.93834391 504.782557,2 473,2 C402.799081,2 301.638372,5.34666089 243,35 L243,277 L618,277 Z" id="Oval" fill="#0043B3"></path>
                    </g>
                    <g id="GUY-AND-PLANTS-WITH-MAP" transform="translate(235.000000, 0.000000)">
                        <g id="lost" transform="translate(0.000000, 0.410000)">
                            <g id="Group-5" transform="translate(0.230938, 84.717001)">
                                <g id="Group-7" transform="translate(307.769062, 40.872999)">
                                    <path d="M4.28468546,1.3671067 C4.28468546,1.3671067 -11.5351962,10.908144 17.6210913,25.5915198 C17.6210913,25.5915198 24.0425836,13.6652232 16.9429293,3.94412217 C14.0898983,0.020632755 8.75317269,-1.14878529 4.52087291,1.22212035 L4.28468546,1.3671067 Z" id="Path" fill="#166DFF" fill-rule="nonzero"></path>
                                    <path d="M4.46708765,1.1659966 C4.46708765,1.1659966 18.0022651,11.5208283 17.6210913,25.5915198" id="Path" stroke="#535461"></path>
                                </g>
                                <g id="Group-6" transform="translate(21.269062, 88.872999) scale(-1, 1) translate(-21.269062, -88.872999) translate(10.769062, 75.872999)">
                                    <path d="M4.28468546,1.3671067 C4.28468546,1.3671067 -11.5351962,10.908144 17.6210913,25.5915198 C17.6210913,25.5915198 24.0425836,13.6652232 16.9429293,3.94412217 C14.0898983,0.020632755 8.75317269,-1.14878529 4.52087291,1.22212035 L4.28468546,1.3671067 Z" id="Path" fill="#166DFF" fill-rule="nonzero"></path>
                                    <path d="M4.46708765,1.1659966 C4.46708765,1.1659966 18.0022651,11.5208283 17.6210913,25.5915198" id="Path" stroke="#535461"></path>
                                </g>
                                <g id="Group-8" transform="translate(312.769062, 2.872999)">
                                    <path d="M11.9190728,65.0269113 C11.9190728,65.0269113 6.96381351,48.1897867 12.8544686,35.8168385 C15.3560695,30.6379722 16.1101684,24.7873463 15.0035405,19.1434081 C14.4500578,16.4678622 13.6524117,13.8487025 12.6206197,11.3188222" id="Path" stroke="#535461" stroke-width="2"></path>
                                    <path d="M16.2897098,3.49423617 C16.2897098,5.55678394 12.5481265,11.5363017 12.5481265,11.5363017 C12.5481265,11.5363017 8.80654326,5.55678394 8.80654326,3.49423617 C8.93680186,1.52814357 10.569539,-2.4158453e-13 12.5399418,-2.4158453e-13 C14.5103447,-2.4158453e-13 16.1430817,1.52814357 16.2733403,3.49423617 L16.2897098,3.49423617 Z" id="Path" fill="#166DFF" fill-rule="nonzero"></path>
                                    <path d="M22.4609837,14.9154191 C21.3408472,16.6459013 14.9567707,19.6368294 14.9567707,19.6368294 C14.9567707,19.6368294 15.0736952,12.588622 16.1938317,10.8581397 C17.3716046,9.27734285 19.5738625,8.88152178 21.2283863,9.95325809 C22.8829101,11.0249944 23.4220834,13.1966082 22.4609837,14.9177575 L22.4609837,14.9154191 Z" id="Path" fill="#166DFF" fill-rule="nonzero"></path>
                                    <path d="M22.1920574,34.4347912 C20.3516661,35.370187 13.3315205,34.7224254 13.3315205,34.7224254 C13.3315205,34.7224254 16.9889181,28.6961379 18.8316479,27.7677575 C20.6460761,26.9972374 22.7471034,27.7666283 23.634844,29.5266759 C24.5225846,31.2867236 23.8924998,33.4336449 22.1943959,34.4347912 L22.1920574,34.4347912 Z" id="Path" fill="#166DFF" fill-rule="nonzero"></path>
                                    <path d="M18.6609382,49.1579213 C17.0029491,50.3832899 9.97578803,50.9375119 9.97578803,50.9375119 C9.97578803,50.9375119 12.5621575,44.3897412 14.2201465,43.1526802 C15.8784057,42.0798496 18.0849505,42.4806712 19.259958,44.0681681 C20.4349655,45.655665 20.1737247,47.8830516 18.6632767,49.1555828 L18.6609382,49.1579213 Z" id="Path" fill="#166DFF" fill-rule="nonzero"></path>
                                    <path d="M7.11581532,20.0367111 C8.59374071,21.4725437 15.4852694,22.9621616 15.4852694,22.9621616 C15.4852694,22.9621616 13.7968799,16.1174027 12.3189545,14.6815701 C10.8180087,13.4058539 8.58500739,13.5123746 7.21231139,14.9251718 C5.83961538,16.337969 5.79742018,18.5731113 7.11581532,20.0367111 Z" id="Path" fill="#166DFF" fill-rule="nonzero"></path>
                                    <path d="M3.20819931,37.3064564 C5.04859058,38.2418522 12.0687362,37.5940906 12.0687362,37.5940906 C12.0687362,37.5940906 8.41133853,31.567803 6.56860877,30.6394227 C5.36661699,29.9307678 3.87016016,29.9498344 2.68661378,30.6888838 C1.50306741,31.4279331 0.829094476,32.7641618 0.938244238,34.155227 C1.047394,35.5462922 1.92152968,36.7610487 3.20586082,37.3064564 L3.20819931,37.3064564 Z" id="Path" fill="#166DFF" fill-rule="nonzero"></path>
                                    <path d="M1.71156601,54.6136174 C3.36955509,55.8389859 10.3967161,56.393208 10.3967161,56.393208 C10.3967161,56.393208 7.81034672,49.8454373 6.15235764,48.6083763 C5.08704516,47.7108655 3.61133771,47.4794696 2.32244334,48.0078326 C1.03354896,48.5361957 0.144881765,49.7368318 0.016078878,51.1238524 C-0.112724009,52.5108729 0.539664494,53.8546162 1.70922752,54.6112789 L1.71156601,54.6136174 Z" id="Path" fill="#166DFF" fill-rule="nonzero"></path>
                                    <path d="M16.2897098,3.49423617 C16.2897098,5.55678394 12.5481265,11.5363017 12.5481265,11.5363017 C12.5481265,11.5363017 8.80654326,5.55678394 8.80654326,3.49423617 C8.93680186,1.52814357 10.569539,-2.4158453e-13 12.5399418,-2.4158453e-13 C14.5103447,-2.4158453e-13 16.1430817,1.52814357 16.2733403,3.49423617 L16.2897098,3.49423617 Z" id="Path" fill="#000000" fill-rule="nonzero" opacity="0.25"></path>
                                    <path d="M22.4609837,14.9154191 C21.3408472,16.6459013 14.9567707,19.6368294 14.9567707,19.6368294 C14.9567707,19.6368294 15.0736952,12.588622 16.1938317,10.8581397 C17.3716046,9.27734285 19.5738625,8.88152178 21.2283863,9.95325809 C22.8829101,11.0249944 23.4220834,13.1966082 22.4609837,14.9177575 L22.4609837,14.9154191 Z" id="Path" fill="#000000" fill-rule="nonzero" opacity="0.25"></path>
                                    <path d="M22.1920574,34.4347912 C20.3516661,35.370187 13.3315205,34.7224254 13.3315205,34.7224254 C13.3315205,34.7224254 16.9889181,28.6961379 18.8316479,27.7677575 C20.6460761,26.9972374 22.7471034,27.7666283 23.634844,29.5266759 C24.5225846,31.2867236 23.8924998,33.4336449 22.1943959,34.4347912 L22.1920574,34.4347912 Z" id="Path" fill="#000000" fill-rule="nonzero" opacity="0.25"></path>
                                    <path d="M18.6609382,49.1579213 C17.0029491,50.3832899 9.97578803,50.9375119 9.97578803,50.9375119 C9.97578803,50.9375119 12.5621575,44.3897412 14.2201465,43.1526802 C15.8784057,42.0798496 18.0849505,42.4806712 19.259958,44.0681681 C20.4349655,45.655665 20.1737247,47.8830516 18.6632767,49.1555828 L18.6609382,49.1579213 Z" id="Path" fill="#000000" fill-rule="nonzero" opacity="0.25"></path>
                                    <path d="M7.11581532,20.0367111 C8.59374071,21.4725437 15.4852694,22.9621616 15.4852694,22.9621616 C15.4852694,22.9621616 13.7968799,16.1174027 12.3189545,14.6815701 C10.8180087,13.4058539 8.58500739,13.5123746 7.21231139,14.9251718 C5.83961538,16.337969 5.79742018,18.5731113 7.11581532,20.0367111 Z" id="Path" fill="#000000" fill-rule="nonzero" opacity="0.25"></path>
                                    <path d="M3.20819931,37.3064564 C5.04859058,38.2418522 12.0687362,37.5940906 12.0687362,37.5940906 C12.0687362,37.5940906 8.41133853,31.567803 6.56860877,30.6394227 C5.36661699,29.9307678 3.87016016,29.9498344 2.68661378,30.6888838 C1.50306741,31.4279331 0.829094476,32.7641618 0.938244238,34.155227 C1.047394,35.5462922 1.92152968,36.7610487 3.20586082,37.3064564 L3.20819931,37.3064564 Z" id="Path" fill="#000000" fill-rule="nonzero" opacity="0.25"></path>
                                    <path d="M1.71156601,54.6136174 C3.36955509,55.8389859 10.3967161,56.393208 10.3967161,56.393208 C10.3967161,56.393208 7.81034672,49.8454373 6.15235764,48.6083763 C5.08704516,47.7108655 3.61133771,47.4794696 2.32244334,48.0078326 C1.03354896,48.5361957 0.144881765,49.7368318 0.016078878,51.1238524 C-0.112724009,52.5108729 0.539664494,53.8546162 1.70922752,54.6112789 L1.71156601,54.6136174 Z" id="Path" fill="#000000" fill-rule="nonzero" opacity="0.25"></path>
                                </g>
                                <g id="PLANT-BIG" transform="translate(13.269062, 68.872999) scale(-1, 1) translate(-13.269062, -68.872999) translate(0.769062, 35.872999)">
                                    <path d="M11.9190728,65.0269113 C11.9190728,65.0269113 6.96381351,48.1897867 12.8544686,35.8168385 C15.3560695,30.6379722 16.1101684,24.7873463 15.0035405,19.1434081 C14.4500578,16.4678622 13.6524117,13.8487025 12.6206197,11.3188222" id="Path" stroke="#535461" stroke-width="2"></path>
                                    <path d="M16.2897098,3.49423617 C16.2897098,5.55678394 12.5481265,11.5363017 12.5481265,11.5363017 C12.5481265,11.5363017 8.80654326,5.55678394 8.80654326,3.49423617 C8.93680186,1.52814357 10.569539,-2.4158453e-13 12.5399418,-2.4158453e-13 C14.5103447,-2.4158453e-13 16.1430817,1.52814357 16.2733403,3.49423617 L16.2897098,3.49423617 Z" id="Path" fill="#166DFF" fill-rule="nonzero"></path>
                                    <path d="M22.4609837,14.9154191 C21.3408472,16.6459013 14.9567707,19.6368294 14.9567707,19.6368294 C14.9567707,19.6368294 15.0736952,12.588622 16.1938317,10.8581397 C17.3716046,9.27734285 19.5738625,8.88152178 21.2283863,9.95325809 C22.8829101,11.0249944 23.4220834,13.1966082 22.4609837,14.9177575 L22.4609837,14.9154191 Z" id="Path" fill="#166DFF" fill-rule="nonzero"></path>
                                    <path d="M22.1920574,34.4347912 C20.3516661,35.370187 13.3315205,34.7224254 13.3315205,34.7224254 C13.3315205,34.7224254 16.9889181,28.6961379 18.8316479,27.7677575 C20.6460761,26.9972374 22.7471034,27.7666283 23.634844,29.5266759 C24.5225846,31.2867236 23.8924998,33.4336449 22.1943959,34.4347912 L22.1920574,34.4347912 Z" id="Path" fill="#166DFF" fill-rule="nonzero"></path>
                                    <path d="M18.6609382,49.1579213 C17.0029491,50.3832899 9.97578803,50.9375119 9.97578803,50.9375119 C9.97578803,50.9375119 12.5621575,44.3897412 14.2201465,43.1526802 C15.8784057,42.0798496 18.0849505,42.4806712 19.259958,44.0681681 C20.4349655,45.655665 20.1737247,47.8830516 18.6632767,49.1555828 L18.6609382,49.1579213 Z" id="Path" fill="#166DFF" fill-rule="nonzero"></path>
                                    <path d="M7.11581532,20.0367111 C8.59374071,21.4725437 15.4852694,22.9621616 15.4852694,22.9621616 C15.4852694,22.9621616 13.7968799,16.1174027 12.3189545,14.6815701 C10.8180087,13.4058539 8.58500739,13.5123746 7.21231139,14.9251718 C5.83961538,16.337969 5.79742018,18.5731113 7.11581532,20.0367111 Z" id="Path" fill="#166DFF" fill-rule="nonzero"></path>
                                    <path d="M3.20819931,37.3064564 C5.04859058,38.2418522 12.0687362,37.5940906 12.0687362,37.5940906 C12.0687362,37.5940906 8.41133853,31.567803 6.56860877,30.6394227 C5.36661699,29.9307678 3.87016016,29.9498344 2.68661378,30.6888838 C1.50306741,31.4279331 0.829094476,32.7641618 0.938244238,34.155227 C1.047394,35.5462922 1.92152968,36.7610487 3.20586082,37.3064564 L3.20819931,37.3064564 Z" id="Path" fill="#166DFF" fill-rule="nonzero"></path>
                                    <path d="M1.71156601,54.6136174 C3.36955509,55.8389859 10.3967161,56.393208 10.3967161,56.393208 C10.3967161,56.393208 7.81034672,49.8454373 6.15235764,48.6083763 C5.08704516,47.7108655 3.61133771,47.4794696 2.32244334,48.0078326 C1.03354896,48.5361957 0.144881765,49.7368318 0.016078878,51.1238524 C-0.112724009,52.5108729 0.539664494,53.8546162 1.70922752,54.6112789 L1.71156601,54.6136174 Z" id="Path" fill="#166DFF" fill-rule="nonzero"></path>
                                    <path d="M16.2897098,3.49423617 C16.2897098,5.55678394 12.5481265,11.5363017 12.5481265,11.5363017 C12.5481265,11.5363017 8.80654326,5.55678394 8.80654326,3.49423617 C8.93680186,1.52814357 10.569539,-2.4158453e-13 12.5399418,-2.4158453e-13 C14.5103447,-2.4158453e-13 16.1430817,1.52814357 16.2733403,3.49423617 L16.2897098,3.49423617 Z" id="Path" fill="#000000" fill-rule="nonzero" opacity="0.25"></path>
                                    <path d="M22.4609837,14.9154191 C21.3408472,16.6459013 14.9567707,19.6368294 14.9567707,19.6368294 C14.9567707,19.6368294 15.0736952,12.588622 16.1938317,10.8581397 C17.3716046,9.27734285 19.5738625,8.88152178 21.2283863,9.95325809 C22.8829101,11.0249944 23.4220834,13.1966082 22.4609837,14.9177575 L22.4609837,14.9154191 Z" id="Path" fill="#000000" fill-rule="nonzero" opacity="0.25"></path>
                                    <path d="M22.1920574,34.4347912 C20.3516661,35.370187 13.3315205,34.7224254 13.3315205,34.7224254 C13.3315205,34.7224254 16.9889181,28.6961379 18.8316479,27.7677575 C20.6460761,26.9972374 22.7471034,27.7666283 23.634844,29.5266759 C24.5225846,31.2867236 23.8924998,33.4336449 22.1943959,34.4347912 L22.1920574,34.4347912 Z" id="Path" fill="#000000" fill-rule="nonzero" opacity="0.25"></path>
                                    <path d="M18.6609382,49.1579213 C17.0029491,50.3832899 9.97578803,50.9375119 9.97578803,50.9375119 C9.97578803,50.9375119 12.5621575,44.3897412 14.2201465,43.1526802 C15.8784057,42.0798496 18.0849505,42.4806712 19.259958,44.0681681 C20.4349655,45.655665 20.1737247,47.8830516 18.6632767,49.1555828 L18.6609382,49.1579213 Z" id="Path" fill="#000000" fill-rule="nonzero" opacity="0.25"></path>
                                    <path d="M7.11581532,20.0367111 C8.59374071,21.4725437 15.4852694,22.9621616 15.4852694,22.9621616 C15.4852694,22.9621616 13.7968799,16.1174027 12.3189545,14.6815701 C10.8180087,13.4058539 8.58500739,13.5123746 7.21231139,14.9251718 C5.83961538,16.337969 5.79742018,18.5731113 7.11581532,20.0367111 Z" id="Path" fill="#000000" fill-rule="nonzero" opacity="0.25"></path>
                                    <path d="M3.20819931,37.3064564 C5.04859058,38.2418522 12.0687362,37.5940906 12.0687362,37.5940906 C12.0687362,37.5940906 8.41133853,31.567803 6.56860877,30.6394227 C5.36661699,29.9307678 3.87016016,29.9498344 2.68661378,30.6888838 C1.50306741,31.4279331 0.829094476,32.7641618 0.938244238,34.155227 C1.047394,35.5462922 1.92152968,36.7610487 3.20586082,37.3064564 L3.20819931,37.3064564 Z" id="Path" fill="#000000" fill-rule="nonzero" opacity="0.25"></path>
                                    <path d="M1.71156601,54.6136174 C3.36955509,55.8389859 10.3967161,56.393208 10.3967161,56.393208 C10.3967161,56.393208 7.81034672,49.8454373 6.15235764,48.6083763 C5.08704516,47.7108655 3.61133771,47.4794696 2.32244334,48.0078326 C1.03354896,48.5361957 0.144881765,49.7368318 0.016078878,51.1238524 C-0.112724009,52.5108729 0.539664494,53.8546162 1.70922752,54.6112789 L1.71156601,54.6136174 Z" id="Path" fill="#000000" fill-rule="nonzero" opacity="0.25"></path>
                                </g>
                                <g id="PLANT-BIG-Copy" transform="translate(73.269062, 55.872999) scale(-1, 1) translate(-73.269062, -55.872999) translate(65.769062, 35.872999)">
                                    <path d="M7.1514437,39.0161468 C7.1514437,39.0161468 4.1782881,28.913872 7.71268119,21.4901031 C9.21364172,18.3827833 9.66610106,14.8724078 9.00212432,11.4860449 C8.67003466,9.88071735 8.19144701,8.30922147 7.57237182,6.79129329" id="Path" stroke="#535461" stroke-width="1.2"></path>
                                    <path d="M9.77382586,2.0965417 C9.77382586,3.33407036 7.52887591,6.92178101 7.52887591,6.92178101 C7.52887591,6.92178101 5.28392596,3.33407036 5.28392596,2.0965417 C5.36208112,0.916886142 6.34172337,-2.4158453e-13 7.52396508,-2.4158453e-13 C8.70620679,-2.4158453e-13 9.68584905,0.916886142 9.76400421,2.0965417 L9.77382586,2.0965417 Z" id="Path" fill="#166DFF" fill-rule="nonzero"></path>
                                    <path d="M13.4765902,8.94925144 C12.8045083,9.98754079 8.97406244,11.7820977 8.97406244,11.7820977 C8.97406244,11.7820977 9.04421713,7.55317318 9.71629902,6.51488383 C10.4229627,5.56640571 11.7443175,5.32891307 12.7370318,5.97195485 C13.7297461,6.61499664 14.05325,7.91796494 13.4765902,8.95065453 L13.4765902,8.94925144 Z" id="Path" fill="#166DFF" fill-rule="nonzero"></path>
                                    <path d="M13.3152344,20.6608747 C12.2109997,21.2221122 7.99891231,20.8334553 7.99891231,20.8334553 C7.99891231,20.8334553 10.1933509,17.2176827 11.2989887,16.6606545 C12.3876457,16.1983424 13.648262,16.659977 14.1809064,17.7160056 C14.7135508,18.7720341 14.3354999,20.0601869 13.3166375,20.6608747 L13.3152344,20.6608747 Z" id="Path" fill="#166DFF" fill-rule="nonzero"></path>
                                    <path d="M11.1965629,29.4947528 C10.2017694,30.2299739 5.98547282,30.5625071 5.98547282,30.5625071 C5.98547282,30.5625071 7.53729447,26.6338447 8.53208792,25.8916081 C9.52704343,25.2479098 10.8509703,25.4884027 11.5559748,26.4409008 C12.2609793,27.393399 12.1042348,28.729831 11.197966,29.4933497 L11.1965629,29.4947528 Z" id="Path" fill="#166DFF" fill-rule="nonzero"></path>
                                    <path d="M4.26948919,12.0220267 C5.15624443,12.8835262 9.29116162,13.7772969 9.29116162,13.7772969 C9.29116162,13.7772969 8.27812796,9.67044161 7.39137273,8.80894206 C6.49080519,8.04351235 5.15100444,8.10742473 4.32738683,8.95510307 C3.50376923,9.80278141 3.47845211,11.1438668 4.26948919,12.0220267 Z" id="Path" fill="#166DFF" fill-rule="nonzero"></path>
                                    <path d="M1.92491959,22.3838738 C3.02915435,22.9451113 7.2412417,22.5564543 7.2412417,22.5564543 C7.2412417,22.5564543 5.04680312,18.9406818 3.94116526,18.3836536 C3.21997019,17.9584607 2.3220961,17.9699006 1.61196827,18.4133303 C0.901840445,18.8567599 0.497456685,19.6584971 0.562946543,20.4931362 C0.6284364,21.3277753 1.15291781,22.0566292 1.92351649,22.3838738 L1.92491959,22.3838738 Z" id="Path" fill="#166DFF" fill-rule="nonzero"></path>
                                    <path d="M1.0269396,32.7681705 C2.02173305,33.5033916 6.23802969,33.8359248 6.23802969,33.8359248 C6.23802969,33.8359248 4.68620803,29.9072624 3.69141458,29.1650258 C3.0522271,28.6265193 2.16680263,28.4876817 1.393466,28.8046996 C0.620129378,29.1217174 0.0869290591,29.8420991 0.00964732682,30.6743114 C-0.0676344055,31.5065238 0.323798697,32.3127697 1.02553651,32.7667674 L1.0269396,32.7681705 Z" id="Path" fill="#166DFF" fill-rule="nonzero"></path>
                                    <path d="M9.77382586,2.0965417 C9.77382586,3.33407036 7.52887591,6.92178101 7.52887591,6.92178101 C7.52887591,6.92178101 5.28392596,3.33407036 5.28392596,2.0965417 C5.36208112,0.916886142 6.34172337,-2.4158453e-13 7.52396508,-2.4158453e-13 C8.70620679,-2.4158453e-13 9.68584905,0.916886142 9.76400421,2.0965417 L9.77382586,2.0965417 Z" id="Path" fill="#000000" fill-rule="nonzero" opacity="0.25"></path>
                                    <path d="M13.4765902,8.94925144 C12.8045083,9.98754079 8.97406244,11.7820977 8.97406244,11.7820977 C8.97406244,11.7820977 9.04421713,7.55317318 9.71629902,6.51488383 C10.4229627,5.56640571 11.7443175,5.32891307 12.7370318,5.97195485 C13.7297461,6.61499664 14.05325,7.91796494 13.4765902,8.95065453 L13.4765902,8.94925144 Z" id="Path" fill="#000000" fill-rule="nonzero" opacity="0.25"></path>
                                    <path d="M13.3152344,20.6608747 C12.2109997,21.2221122 7.99891231,20.8334553 7.99891231,20.8334553 C7.99891231,20.8334553 10.1933509,17.2176827 11.2989887,16.6606545 C12.3876457,16.1983424 13.648262,16.659977 14.1809064,17.7160056 C14.7135508,18.7720341 14.3354999,20.0601869 13.3166375,20.6608747 L13.3152344,20.6608747 Z" id="Path" fill="#000000" fill-rule="nonzero" opacity="0.25"></path>
                                    <path d="M11.1965629,29.4947528 C10.2017694,30.2299739 5.98547282,30.5625071 5.98547282,30.5625071 C5.98547282,30.5625071 7.53729447,26.6338447 8.53208792,25.8916081 C9.52704343,25.2479098 10.8509703,25.4884027 11.5559748,26.4409008 C12.2609793,27.393399 12.1042348,28.729831 11.197966,29.4933497 L11.1965629,29.4947528 Z" id="Path" fill="#000000" fill-rule="nonzero" opacity="0.25"></path>
                                    <path d="M4.26948919,12.0220267 C5.15624443,12.8835262 9.29116162,13.7772969 9.29116162,13.7772969 C9.29116162,13.7772969 8.27812796,9.67044161 7.39137273,8.80894206 C6.49080519,8.04351235 5.15100444,8.10742473 4.32738683,8.95510307 C3.50376923,9.80278141 3.47845211,11.1438668 4.26948919,12.0220267 Z" id="Path" fill="#000000" fill-rule="nonzero" opacity="0.25"></path>
                                    <path d="M1.92491959,22.3838738 C3.02915435,22.9451113 7.2412417,22.5564543 7.2412417,22.5564543 C7.2412417,22.5564543 5.04680312,18.9406818 3.94116526,18.3836536 C3.21997019,17.9584607 2.3220961,17.9699006 1.61196827,18.4133303 C0.901840445,18.8567599 0.497456685,19.6584971 0.562946543,20.4931362 C0.6284364,21.3277753 1.15291781,22.0566292 1.92351649,22.3838738 L1.92491959,22.3838738 Z" id="Path" fill="#000000" fill-rule="nonzero" opacity="0.25"></path>
                                    <path d="M1.0269396,32.7681705 C2.02173305,33.5033916 6.23802969,33.8359248 6.23802969,33.8359248 C6.23802969,33.8359248 4.68620803,29.9072624 3.69141458,29.1650258 C3.0522271,28.6265193 2.16680263,28.4876817 1.393466,28.8046996 C0.620129378,29.1217174 0.0869290591,29.8420991 0.00964732682,30.6743114 C-0.0676344055,31.5065238 0.323798697,32.3127697 1.02553651,32.7667674 L1.0269396,32.7681705 Z" id="Path" fill="#000000" fill-rule="nonzero" opacity="0.25"></path>
                                </g>
                                <g id="Group-8-Copy-2" transform="translate(173.269062, 33.872999) scale(-1, 1) translate(-173.269062, -33.872999) translate(160.769062, 0.872999)">
                                    <path d="M11.9190728,65.0269113 C11.9190728,65.0269113 6.96381351,48.1897867 12.8544686,35.8168385 C15.3560695,30.6379722 16.1101684,24.7873463 15.0035405,19.1434081 C14.4500578,16.4678622 13.6524117,13.8487025 12.6206197,11.3188222" id="Path" stroke="#535461" stroke-width="2"></path>
                                    <path d="M16.2897098,3.49423617 C16.2897098,5.55678394 12.5481265,11.5363017 12.5481265,11.5363017 C12.5481265,11.5363017 8.80654326,5.55678394 8.80654326,3.49423617 C8.93680186,1.52814357 10.569539,-2.4158453e-13 12.5399418,-2.4158453e-13 C14.5103447,-2.4158453e-13 16.1430817,1.52814357 16.2733403,3.49423617 L16.2897098,3.49423617 Z" id="Path" fill="#166DFF" fill-rule="nonzero"></path>
                                    <path d="M22.4609837,14.9154191 C21.3408472,16.6459013 14.9567707,19.6368294 14.9567707,19.6368294 C14.9567707,19.6368294 15.0736952,12.588622 16.1938317,10.8581397 C17.3716046,9.27734285 19.5738625,8.88152178 21.2283863,9.95325809 C22.8829101,11.0249944 23.4220834,13.1966082 22.4609837,14.9177575 L22.4609837,14.9154191 Z" id="Path" fill="#166DFF" fill-rule="nonzero"></path>
                                    <path d="M22.1920574,34.4347912 C20.3516661,35.370187 13.3315205,34.7224254 13.3315205,34.7224254 C13.3315205,34.7224254 16.9889181,28.6961379 18.8316479,27.7677575 C20.6460761,26.9972374 22.7471034,27.7666283 23.634844,29.5266759 C24.5225846,31.2867236 23.8924998,33.4336449 22.1943959,34.4347912 L22.1920574,34.4347912 Z" id="Path" fill="#166DFF" fill-rule="nonzero"></path>
                                    <path d="M18.6609382,49.1579213 C17.0029491,50.3832899 9.97578803,50.9375119 9.97578803,50.9375119 C9.97578803,50.9375119 12.5621575,44.3897412 14.2201465,43.1526802 C15.8784057,42.0798496 18.0849505,42.4806712 19.259958,44.0681681 C20.4349655,45.655665 20.1737247,47.8830516 18.6632767,49.1555828 L18.6609382,49.1579213 Z" id="Path" fill="#166DFF" fill-rule="nonzero"></path>
                                    <path d="M7.11581532,20.0367111 C8.59374071,21.4725437 15.4852694,22.9621616 15.4852694,22.9621616 C15.4852694,22.9621616 13.7968799,16.1174027 12.3189545,14.6815701 C10.8180087,13.4058539 8.58500739,13.5123746 7.21231139,14.9251718 C5.83961538,16.337969 5.79742018,18.5731113 7.11581532,20.0367111 Z" id="Path" fill="#166DFF" fill-rule="nonzero"></path>
                                    <path d="M3.20819931,37.3064564 C5.04859058,38.2418522 12.0687362,37.5940906 12.0687362,37.5940906 C12.0687362,37.5940906 8.41133853,31.567803 6.56860877,30.6394227 C5.36661699,29.9307678 3.87016016,29.9498344 2.68661378,30.6888838 C1.50306741,31.4279331 0.829094476,32.7641618 0.938244238,34.155227 C1.047394,35.5462922 1.92152968,36.7610487 3.20586082,37.3064564 L3.20819931,37.3064564 Z" id="Path" fill="#166DFF" fill-rule="nonzero"></path>
                                    <path d="M1.71156601,54.6136174 C3.36955509,55.8389859 10.3967161,56.393208 10.3967161,56.393208 C10.3967161,56.393208 7.81034672,49.8454373 6.15235764,48.6083763 C5.08704516,47.7108655 3.61133771,47.4794696 2.32244334,48.0078326 C1.03354896,48.5361957 0.144881765,49.7368318 0.016078878,51.1238524 C-0.112724009,52.5108729 0.539664494,53.8546162 1.70922752,54.6112789 L1.71156601,54.6136174 Z" id="Path" fill="#166DFF" fill-rule="nonzero"></path>
                                    <path d="M16.2897098,3.49423617 C16.2897098,5.55678394 12.5481265,11.5363017 12.5481265,11.5363017 C12.5481265,11.5363017 8.80654326,5.55678394 8.80654326,3.49423617 C8.93680186,1.52814357 10.569539,-2.4158453e-13 12.5399418,-2.4158453e-13 C14.5103447,-2.4158453e-13 16.1430817,1.52814357 16.2733403,3.49423617 L16.2897098,3.49423617 Z" id="Path" fill="#000000" fill-rule="nonzero" opacity="0.25"></path>
                                    <path d="M22.4609837,14.9154191 C21.3408472,16.6459013 14.9567707,19.6368294 14.9567707,19.6368294 C14.9567707,19.6368294 15.0736952,12.588622 16.1938317,10.8581397 C17.3716046,9.27734285 19.5738625,8.88152178 21.2283863,9.95325809 C22.8829101,11.0249944 23.4220834,13.1966082 22.4609837,14.9177575 L22.4609837,14.9154191 Z" id="Path" fill="#000000" fill-rule="nonzero" opacity="0.25"></path>
                                    <path d="M22.1920574,34.4347912 C20.3516661,35.370187 13.3315205,34.7224254 13.3315205,34.7224254 C13.3315205,34.7224254 16.9889181,28.6961379 18.8316479,27.7677575 C20.6460761,26.9972374 22.7471034,27.7666283 23.634844,29.5266759 C24.5225846,31.2867236 23.8924998,33.4336449 22.1943959,34.4347912 L22.1920574,34.4347912 Z" id="Path" fill="#000000" fill-rule="nonzero" opacity="0.25"></path>
                                    <path d="M18.6609382,49.1579213 C17.0029491,50.3832899 9.97578803,50.9375119 9.97578803,50.9375119 C9.97578803,50.9375119 12.5621575,44.3897412 14.2201465,43.1526802 C15.8784057,42.0798496 18.0849505,42.4806712 19.259958,44.0681681 C20.4349655,45.655665 20.1737247,47.8830516 18.6632767,49.1555828 L18.6609382,49.1579213 Z" id="Path" fill="#000000" fill-rule="nonzero" opacity="0.25"></path>
                                    <path d="M7.11581532,20.0367111 C8.59374071,21.4725437 15.4852694,22.9621616 15.4852694,22.9621616 C15.4852694,22.9621616 13.7968799,16.1174027 12.3189545,14.6815701 C10.8180087,13.4058539 8.58500739,13.5123746 7.21231139,14.9251718 C5.83961538,16.337969 5.79742018,18.5731113 7.11581532,20.0367111 Z" id="Path" fill="#000000" fill-rule="nonzero" opacity="0.25"></path>
                                    <path d="M3.20819931,37.3064564 C5.04859058,38.2418522 12.0687362,37.5940906 12.0687362,37.5940906 C12.0687362,37.5940906 8.41133853,31.567803 6.56860877,30.6394227 C5.36661699,29.9307678 3.87016016,29.9498344 2.68661378,30.6888838 C1.50306741,31.4279331 0.829094476,32.7641618 0.938244238,34.155227 C1.047394,35.5462922 1.92152968,36.7610487 3.20586082,37.3064564 L3.20819931,37.3064564 Z" id="Path" fill="#000000" fill-rule="nonzero" opacity="0.25"></path>
                                    <path d="M1.71156601,54.6136174 C3.36955509,55.8389859 10.3967161,56.393208 10.3967161,56.393208 C10.3967161,56.393208 7.81034672,49.8454373 6.15235764,48.6083763 C5.08704516,47.7108655 3.61133771,47.4794696 2.32244334,48.0078326 C1.03354896,48.5361957 0.144881765,49.7368318 0.016078878,51.1238524 C-0.112724009,52.5108729 0.539664494,53.8546162 1.70922752,54.6112789 L1.71156601,54.6136174 Z" id="Path" fill="#000000" fill-rule="nonzero" opacity="0.25"></path>
                                </g>
                                <g id="Group-9" transform="translate(366.769062, 7.872999)">
                                    <path d="M11.9120574,65.0292498 C11.9120574,65.0292498 6.95679804,48.1921252 12.8474532,35.819177 C15.3490541,30.6403107 16.103153,24.7896848 14.9965251,19.1457466 C14.450619,16.4709664 13.6608061,13.8518249 12.6369891,11.3211606" id="Path" stroke="#535461" stroke-width="2"></path>
                                    <path d="M16.2920483,3.49423617 C16.2920483,5.55678394 12.550465,11.5363017 12.550465,11.5363017 C12.550465,11.5363017 8.80888175,5.55678394 8.80888175,3.49423617 C8.93914035,1.52814357 10.5718774,-2.84217094e-14 12.5422803,-2.84217094e-14 C14.5126831,-2.84217094e-14 16.1454202,1.52814357 16.2756788,3.49423617 L16.2920483,3.49423617 Z" id="Path" fill="#166DFF" fill-rule="nonzero"></path>
                                    <path d="M22.4633221,14.9177575 C21.3431857,16.6482398 14.9520938,19.629814 14.9520938,19.629814 C14.9520938,19.629814 15.0690182,12.5816065 16.1891547,10.8511242 C17.3669276,9.27032738 19.5691856,8.87450631 21.2237094,9.94624262 C22.8782331,11.0179789 23.4174064,13.1895928 22.4563067,14.9107421 L22.4633221,14.9177575 Z" id="Path" fill="#166DFF" fill-rule="nonzero"></path>
                                    <path d="M22.2014113,34.4371297 C20.3610201,35.3725255 13.3408745,34.7247639 13.3408745,34.7247639 C13.3408745,34.7247639 16.9982721,28.6984764 18.8410019,27.770096 C20.6544616,27.0051043 22.7505463,27.7758636 23.6364233,29.5334387 C24.5223004,31.2910139 23.8950548,33.4344233 22.2014113,34.4371297 Z" id="Path" fill="#166DFF" fill-rule="nonzero"></path>
                                    <path d="M18.6632767,49.1602598 C17.0052876,50.3856283 9.97812652,50.9398504 9.97812652,50.9398504 C9.97812652,50.9398504 12.5644959,44.3920797 14.222485,43.1550187 C15.8807442,42.0821881 18.087289,42.4830096 19.2622965,44.0705066 C20.4373039,45.6580035 20.1760632,47.8853901 18.6656151,49.1579213 L18.6632767,49.1602598 Z" id="Path" fill="#166DFF" fill-rule="nonzero"></path>
                                    <path d="M7.11815381,20.0390496 C8.5960792,21.4748822 15.4876079,22.9645 15.4876079,22.9645 C15.4876079,22.9645 13.7992184,16.1197412 12.321293,14.6839086 C10.8203471,13.4081924 8.58734588,13.514713 7.21464988,14.9275103 C5.84195387,16.3403075 5.79975867,18.5754498 7.11815381,20.0390496 Z" id="Path" fill="#166DFF" fill-rule="nonzero"></path>
                                    <path d="M3.20819931,37.3087949 C5.04859058,38.2441907 12.0687362,37.5964291 12.0687362,37.5964291 C12.0687362,37.5964291 8.40432306,31.5701415 6.57094726,30.6417612 C4.75651905,29.871241 2.65549179,30.6406319 1.76775117,32.4006796 C0.880010554,34.1607272 1.51009535,36.3076485 3.20819931,37.3087949 Z" id="Path" fill="#166DFF" fill-rule="nonzero"></path>
                                    <path d="M1.71156601,54.6159559 C3.36955509,55.8413244 10.3967161,56.3955464 10.3967161,56.3955464 C10.3967161,56.3955464 7.81034672,49.8477757 6.15235764,48.6107148 C5.08704516,47.713204 3.61133771,47.481808 2.32244334,48.0101711 C1.03354896,48.5385342 0.144881765,49.7391703 0.016078878,51.1261909 C-0.112724009,52.5132114 0.539664494,53.8569546 1.70922752,54.6136174 L1.71156601,54.6159559 Z" id="Path" fill="#166DFF" fill-rule="nonzero"></path>
                                </g>
                                <g id="Group-9-Copy" transform="translate(337.769062, 37.872999)">
                                    <path d="M5.71778753,31.2140399 C5.71778753,31.2140399 3.33926306,23.1322201 6.16677753,17.193205 C7.36754595,14.7073491 7.72951342,11.8990487 7.19833203,9.18995838 C6.93629712,7.90606387 6.55718695,6.64887593 6.06575478,5.43415711" id="Path" stroke="#535461" stroke-width="0.96"></path>
                                    <path d="M7.82018317,1.67723336 C7.82018317,2.66725629 6.0242232,5.53742481 6.0242232,5.53742481 C6.0242232,5.53742481 4.22826324,2.66725629 4.22826324,1.67723336 C4.29078737,0.733508914 5.07450117,-2.84217094e-14 6.02029454,-2.84217094e-14 C6.96608791,-2.84217094e-14 7.74980171,0.733508914 7.81232584,1.67723336 L7.82018317,1.67723336 Z" id="Path" fill="#166DFF" fill-rule="nonzero"></path>
                                    <path d="M10.7823946,7.16052362 C10.2447291,7.99115511 7.177005,9.4223107 7.177005,9.4223107 C7.177005,9.4223107 7.23312875,6.03917112 7.77079427,5.20853964 C8.33612525,4.44975714 9.39320907,4.25976303 10.1873805,4.77419646 C10.9815519,5.28862988 11.2403551,6.33100452 10.7790272,7.1571562 L10.7823946,7.16052362 Z" id="Path" fill="#166DFF" fill-rule="nonzero"></path>
                                    <path d="M10.6566774,16.5298223 C9.77328963,16.9788122 6.40361975,16.6678867 6.40361975,16.6678867 C6.40361975,16.6678867 8.15917061,13.7752687 9.04368089,13.3296461 C9.91414156,12.9624501 10.9202622,13.3324145 11.3454832,14.1760506 C11.7707042,15.0196867 11.4696263,16.0485232 10.6566774,16.5298223 Z" id="Path" fill="#166DFF" fill-rule="nonzero"></path>
                                    <path d="M8.95837279,23.5969247 C8.16253803,24.1851016 4.78950073,24.4511282 4.78950073,24.4511282 C4.78950073,24.4511282 6.03095805,21.3081982 6.82679281,20.714409 C7.62275722,20.1994503 8.68189874,20.3918446 9.24590232,21.1538432 C9.8099059,21.9158417 9.68451033,22.9849873 8.95949527,23.5958022 L8.95837279,23.5969247 Z" id="Path" fill="#166DFF" fill-rule="nonzero"></path>
                                    <path d="M3.41671383,9.61874382 C4.12611802,10.3079435 7.43405177,11.02296 7.43405177,11.02296 C7.43405177,11.02296 6.62362484,7.73747576 5.91422066,7.04827613 C5.19376663,6.43593236 4.12192602,6.48706226 3.46303194,7.16520493 C2.80413786,7.84334761 2.78388416,8.91621588 3.41671383,9.61874382 Z" id="Path" fill="#166DFF" fill-rule="nonzero"></path>
                                    <path d="M1.53993567,17.9082215 C2.42332348,18.3572115 5.79299336,18.046286 5.79299336,18.046286 C5.79299336,18.046286 4.03407507,15.1536679 3.15405469,14.7080454 C2.28312915,14.3381957 1.27463606,14.7075033 0.848520562,15.5523262 C0.422405066,16.3971491 0.724845766,17.4276713 1.53993567,17.9082215 Z" id="Path" fill="#166DFF" fill-rule="nonzero"></path>
                                    <path d="M0.821551684,26.2156588 C1.61738644,26.8038357 4.99042375,27.0698623 4.99042375,27.0698623 C4.99042375,27.0698623 3.74896642,23.9269324 2.95313167,23.3331431 C2.44178168,22.9023379 1.7334421,22.7912679 1.1147728,23.0448821 C0.496103503,23.2984964 0.0695432473,23.8748017 0.00771786146,24.5405716 C-0.0541075244,25.2063415 0.259038957,25.8513382 0.820429209,26.2145364 L0.821551684,26.2156588 Z" id="Path" fill="#166DFF" fill-rule="nonzero"></path>
                                </g>
                            </g>
                            <ellipse id="Oval" fill="#003C9F" fill-rule="nonzero" transform="translate(231.641492, 168.307015) rotate(-1.000000) translate(-231.641492, -168.307015) " cx="231.641492" cy="168.307015" rx="124.641492" ry="7.71701547"></ellipse>
                            <path d="M294.330027,47.1649409 C294.330027,47.1649409 279.875823,33.5619472 277.787552,31.5274613 C277.060282,30.8259145 276.372766,30.1243676 275.785805,29.5327298 C274.656827,28.4038103 273.21047,27.6459613 271.639663,27.360273 C266.223722,26.3336761 260.68384,23.003667 260.68384,23.003667 L260.68384,23.003667 C260.653439,22.9639126 260.623039,22.9288353 260.594977,22.8867425 C260.125537,22.2302452 259.78073,21.4930721 259.577734,20.7119472 C259.547334,20.5973612 259.516934,20.4780983 259.49121,20.3564968 C259.578514,20.2442493 259.663479,20.1296633 259.746106,20.0127389 C259.840836,19.9797059 259.932405,19.9382257 260.019709,19.8887989 C260.704886,19.4982712 261.090737,18.7756779 261.350309,18.0647771 C261.584158,17.4357234 261.771237,16.741192 262.327798,16.3319563 C262.527104,16.2214488 262.706524,16.0783866 262.858635,15.9086897 C262.971455,15.685697 263.014636,15.4339393 262.982575,15.1860965 C262.982575,13.5889081 262.72768,12.3635396 263.0995,10.8061056 C263.693476,8.31327571 264.238344,5.19373066 262.35586,3.34398544 C261.383748,2.40500859 260.145831,1.78849997 258.81071,1.57842584 C257.601711,1.3866697 255.812766,3.03296633 254.587398,2.98151956 C251.465514,2.8622566 248.834713,0.0467151956 245.86717,0.956387625 C244.575616,1.34837135 243.44949,2.15556554 242.663439,3.25278435 C241.199545,5.33871702 241.339854,8.03733394 241.550318,10.5254868 C241.5472,10.7149619 241.603638,10.9006358 241.711674,11.0563239 C241.821583,11.1849409 241.99697,11.2527571 242.10454,11.381374 C242.219583,11.5521311 242.26323,11.7611306 242.226142,11.9636579 C242.191916,12.3662867 242.094043,12.7609384 241.936169,13.1329026 C241.854305,13.2586905 241.837779,13.4161237 241.891738,13.5561692 C241.950169,13.6333552 242.032326,13.6892219 242.125587,13.7151865 C242.251082,13.7575415 242.38026,13.7880746 242.511438,13.8063876 C242.490391,14.0121747 242.471683,14.2179618 242.464668,14.4260874 C242.464668,14.5430118 242.464668,14.6599363 242.464668,14.7791993 C242.476018,17.8663568 244.042862,20.739783 246.631856,22.4213831 C246.65758,22.5897543 246.685641,22.7628025 246.711365,22.9428662 C246.790874,23.4970883 246.863367,24.112111 246.917152,24.780919 C246.917152,24.9025205 246.93586,25.014768 246.945214,25.1480619 L246.882075,25.0194449 L236.82657,29.9489809 C236.083606,30.1207775 235.389979,30.4607907 234.799099,30.9428389 L234.600328,31.0410555 L234.600328,31.0995177 C234.517701,31.1681134 234.433515,31.2413861 234.347771,31.3193358 L225.622866,21.4649409 L205.278007,39.1252138 L216.465341,51.1707734 L229.037061,50.1231301 C228.417361,54.3791811 227.994095,57.641374 227.994095,57.641374 C227.994095,57.641374 225.695359,67.4934304 236.831247,65.6086078 C236.758753,71.8219745 234.097552,82.1908371 234.097552,82.1908371 C234.406985,82.5957021 234.771407,82.9554014 235.180273,83.2595268 L235.117134,83.6827934 L234.415587,88.4462966 C234.415587,88.4462966 230.239045,100.017143 229.598298,110.336897 C228.957552,120.656652 228.153112,126.442075 228.153112,126.442075 L226.707925,147.083922 L224.675778,156.522066 C221.328554,160.182773 217.431033,163.299212 213.12364,165.759099 C212.73956,165.963021 212.453715,166.312943 212.330536,166.72999 C212.207358,167.147038 212.257212,167.596111 212.468863,167.975987 C213.292011,169.393112 215.824595,170.864022 223.494841,168.506824 C235.701756,164.765241 234.576943,164.910227 234.576943,164.910227 C234.576943,164.910227 234.757006,159.901183 234.237862,156.931301 C234.221492,156.842439 234.205123,156.755914 234.188753,156.66939 C237.111865,153.374459 235.699418,148.016979 235.699418,148.016979 C235.699418,148.016979 241.480164,136.75949 238.739454,129.409618 C238.739454,129.409618 238.096369,123.154158 241.47081,120.184277 C241.51758,120.142184 241.566688,120.095414 241.615796,120.046306 L241.660227,119.999536 L241.770136,119.882611 L241.819245,119.828826 L241.947862,119.679163 L241.975924,119.646424 C242.02737,119.583285 242.081156,119.515469 242.134941,119.445314 L242.177034,119.38919 L242.312666,119.237188 L242.364113,119.162357 L242.490391,118.977616 L242.532484,118.916815 L242.703194,118.657243 L242.735933,118.605796 L242.878581,118.371947 L242.932366,118.283085 L243.063321,118.063267 L243.112429,117.979081 L243.292493,117.665723 L243.292493,117.665723 L243.472557,117.343012 L243.524004,117.247134 L243.661975,116.992238 L243.71576,116.889345 L243.881793,116.573649 L243.902839,116.533894 L244.094595,116.159736 L244.141365,116.068535 L244.291028,115.771547 L244.347152,115.659299 L244.503831,115.341265 L244.543585,115.261756 L244.740018,114.85252 L244.772757,114.784704 L244.936451,114.436269 L244.992575,114.317006 L245.144577,113.991956 L245.193685,113.886724 L245.394795,113.449427 L245.394795,113.449427 L245.58889,113.016806 L245.642675,112.897543 L245.794677,112.553785 L245.846124,112.434522 L246.054249,111.987871 L246.054249,111.969163 L246.257698,111.501465 L246.302129,111.40091 L246.461146,111.031429 L246.514932,110.907489 L246.680965,110.512284 L246.713703,110.437452 L246.914813,109.969754 L246.947552,109.892584 L247.113585,109.495041 L247.16737,109.366424 L247.319372,108.994604 L247.363803,108.887034 L247.557898,108.419336 L247.574268,108.379581 L247.749654,107.946961 L247.803439,107.813667 L247.946087,107.458217 L247.997534,107.3296 L248.165905,106.903995 L248.182275,106.859563 L248.364677,106.391865 L248.418462,106.256233 L248.549418,105.921829 L248.605541,105.774504 L248.743512,105.419054 L248.783267,105.313822 L248.953976,104.871847 L249.000746,104.750246 L249.124686,104.427534 L249.187825,104.26384 L249.297734,103.978544 L249.356197,103.824204 L249.510537,103.414968 L249.554968,103.295705 L249.667216,102.996379 L249.730355,102.830346 L249.823894,102.580127 L249.887034,102.409418 L249.992266,102.12646 L250.060082,101.944058 L250.165314,101.658763 L250.23313,101.47636 L250.305623,101.279927 L250.373439,101.092848 L250.431902,100.931492 L250.588581,100.505887 L250.614304,100.433394 L250.686797,100.232284 L250.735905,100.09899 L250.810737,99.8955414 L250.845814,99.7996633 C251.516961,97.9499181 251.928535,96.7596269 251.928535,96.7596269 C251.928535,96.7596269 254.968571,107.392739 254.500874,110.675978 C254.033176,113.959217 257.391247,126.156779 257.391247,126.156779 C257.391247,126.156779 255.464331,138.35434 256.589145,141.324222 C257.713958,144.294104 254.982602,155.397252 254.982602,155.397252 C254.982602,155.397252 255.190728,155.511838 255.54384,155.687225 L255.522793,155.98889 C255.347407,158.430273 254.966233,163.121283 254.500874,164.935951 C253.857789,167.438135 254.1805,170.096997 259.318162,169.78364 C264.455823,169.470282 264.617179,166.343722 264.617179,166.343722 C264.617179,166.343722 262.921774,160.876333 262.713649,157.651556 C262.713649,157.546324 262.713649,157.44343 262.699618,157.342875 L262.699618,157.342875 L262.844604,157.28909 L262.886697,157.272721 C262.945159,157.246997 263.001283,157.221274 263.055068,157.193212 L263.055068,157.193212 C263.106515,157.16515 263.153285,157.137088 263.202393,157.106688 L263.244486,157.078626 C263.28502,157.050564 263.324774,157.020943 263.363749,156.989763 L263.391811,156.966379 C263.438581,156.927404 263.483012,156.88687 263.525105,156.844777 L263.555505,156.814377 C263.588244,156.77852 263.620203,156.741884 263.651383,156.704468 L263.684122,156.662375 C263.721538,156.613267 263.758954,156.56182 263.794031,156.505696 C265.559591,153.699509 265.720946,147.748053 265.720946,147.748053 C265.720946,147.748053 269.254404,127.732921 267.970573,125.064704 C266.686742,122.396488 267.327489,116.152721 267.327489,116.152721 C267.327489,116.152721 265.882302,106.770701 267.488844,102.236369 C268.690828,98.8408826 269.443822,87.1156961 269.408744,81.5056597 C269.408744,81.3887352 269.408744,81.2741492 269.408744,81.1619017 C269.408744,81.1221474 269.408744,81.0823931 269.408744,81.0426388 C270.606051,79.5553594 271.513385,76.9456051 270.867962,72.3715196 C270.830546,72.1119472 270.802484,71.8500364 270.774422,71.5834486 C272.598444,70.2201092 274.399081,68.6182439 274.399081,68.6182439 L275.021119,67.9774977 L275.219891,67.7717106 C275.392939,67.8442038 275.575341,67.9096815 275.764759,67.9681438 C276.466306,68.2861783 276.966742,68.4639035 276.966742,68.4639035 C276.966742,68.4639035 286.121929,60.9573521 293.027489,57.3607552 C299.933048,53.7641583 294.330027,47.1649409 294.330027,47.1649409 Z M283.409281,53.7314195 C283.409281,53.7314195 273.772366,59.8395541 272.011483,62.9590992 C271.909814,63.1337363 271.831209,63.320815 271.777634,63.5156597 L271.543785,63.6138763 L271.543785,63.6138763 L271.249136,63.7261237 C272.724722,55.3075614 276.674431,47.0082621 276.674431,47.0082621 C276.674431,47.0082621 279.714468,49.6671247 281.819108,50.7498453 C283.923749,51.832566 283.409281,53.733758 283.409281,53.733758 L283.409281,53.7314195 Z" id="Shape" fill="url(#linearGradient-1)" fill-rule="nonzero"></path>
                            <path d="M224.477006,167.53869 C217.078025,169.877179 214.634304,168.417962 213.841556,167.01253 C213.421928,166.230449 213.701997,165.256429 214.472948,164.816688 C218.678106,162.344891 222.46638,159.2243 225.697698,155.5703 C226.520846,154.634904 226.953467,154.061975 226.953467,154.061975 C226.953467,154.061975 232.685105,152.976915 234.078844,154.061975 C234.427279,154.333239 234.670482,155.09091 234.836515,156.073076 C235.336952,159.014895 235.163904,163.97717 235.163904,163.97717 C235.163904,163.97717 236.248963,163.820491 224.477006,167.53869 Z" id="Path" fill="#2C2942" fill-rule="nonzero"></path>
                            <path d="M264.130773,165.368571 C264.130773,165.368571 263.976433,168.46707 259.018835,168.775751 C254.061237,169.084431 253.752557,166.451292 254.372257,163.974832 C254.821247,162.178872 255.188389,157.532293 255.356761,155.111956 C255.4199,154.19293 255.454977,153.596615 255.454977,153.596615 C255.454977,153.596615 263.200055,152.822575 262.426015,154.999709 C262.273643,155.575878 262.229243,156.175276 262.295059,156.767607 C262.496169,159.954968 264.130773,165.368571 264.130773,165.368571 Z" id="Path" fill="#2C2942" fill-rule="nonzero"></path>
                            <path d="M234.8295,156.073076 L234.691529,156.232093 C231.74737,159.484932 225.552712,156.232093 225.552712,156.232093 L225.690682,155.572639 C226.513831,154.637243 226.946451,154.064313 226.946451,154.064313 C226.946451,154.064313 232.678089,152.979254 234.071829,154.064313 C234.429618,154.333239 234.672821,155.09091 234.8295,156.073076 Z" id="Path" fill="#000000" fill-rule="nonzero" opacity="0.1"></path>
                            <path d="M262.423676,154.990355 C262.271304,155.566524 262.226904,156.165922 262.292721,156.758253 C260.267589,157.4598 256.680346,155.799472 255.354422,155.12131 C255.417561,154.202284 255.452639,153.605969 255.452639,153.605969 C255.452639,153.605969 263.202393,152.822575 262.423676,154.990355 Z" id="Path" fill="#000000" fill-rule="nonzero" opacity="0.1"></path>
                            <path d="M267.383612,124.475405 C268.623012,127.108544 265.215833,146.924904 265.215833,146.924904 C265.215833,146.924904 265.061492,152.810883 263.356733,155.598362 C261.651975,158.385842 254.837616,154.513303 254.837616,154.513303 C254.837616,154.513303 257.470755,143.522402 256.385696,140.571228 C255.300637,137.620055 257.159736,125.55111 257.159736,125.55111 C257.159736,125.55111 253.906897,113.468135 254.372257,110.215296 C254.837616,106.962457 251.893458,96.4182075 251.893458,96.4182075 C251.893458,96.4182075 245.076761,116.71162 241.823922,119.653439 C238.571083,122.595259 239.190783,128.792257 239.190783,128.792257 C241.823922,136.071975 236.246624,147.22657 236.246624,147.22657 C236.246624,147.22657 237.649718,152.647188 234.698544,155.900027 C231.74737,159.152866 225.559727,155.900027 225.559727,155.900027 L227.580182,146.316897 L228.983276,125.869145 C228.983276,125.869145 229.757316,120.137507 230.386369,109.913631 C231.015423,99.6897543 235.032948,88.2264786 235.032948,88.2264786 L235.706433,83.5074067 L236.272348,79.5506824 C236.272348,79.5506824 267.718016,78.4656233 268.492056,78.311283 C268.686151,78.2715287 268.784368,79.4548044 268.793722,81.3185805 C268.828799,86.8771702 268.092175,98.4901092 266.941638,101.855196 C265.393558,106.347434 266.787298,115.652284 266.787298,115.652284 C266.787298,115.652284 266.144213,121.842266 267.383612,124.475405 Z" id="Path" fill="#574F4F" fill-rule="nonzero"></path>
                            <g id="Group" opacity="0.05" transform="translate(229.998180, 78.241128)" fill="#000000" fill-rule="nonzero">
                                <path d="M20.1928571,18.1957871 C20.1928571,18.1957871 13.3761601,38.4891993 10.1233212,41.4310191 C6.87048226,44.3728389 7.49018198,50.5698362 7.49018198,50.5698362 C10.1233212,57.8495541 4.54602366,69.0041492 4.54602366,69.0041492 C4.54602366,69.0041492 5.94911738,74.424768 2.99794359,77.6776069 C2.25140118,78.4822144 1.2334613,78.9820212 0.140309372,79.0807006 C1.77725205,79.2514104 3.50539581,79.0035305 4.70036397,77.6776069 C7.64452229,74.424768 6.24844404,69.0041492 6.24844404,69.0041492 C6.24844404,69.0041492 11.8257416,57.8518926 9.19260237,50.5698362 C9.19260237,50.5698362 8.57290264,44.3728389 11.8257416,41.4310191 C14.3255869,39.1696997 18.9253958,26.6728116 20.9248044,20.999636 C20.5132302,19.3439854 20.1928571,18.1957871 20.1928571,18.1957871 Z" id="Path"></path>
                                <path d="M36.7657325,37.4041401 C36.7657325,37.4041401 35.3626388,28.1109827 36.9200728,23.6070519 C38.0893176,20.2419654 38.8048954,8.62902639 38.7721565,3.07043676 C38.7721565,1.19964513 38.664586,0.030400364 38.4704914,0.0624691582 C38.3746133,0.0818471338 37.7970064,0.116924477 36.863949,0.161355778 C36.9949045,0.479390355 37.0603822,1.54574158 37.0697361,3.07277525 C37.1048135,8.63136488 36.3681893,20.2443039 35.2176524,23.6093904 C33.6695723,28.1016288 35.0633121,37.4064786 35.0633121,37.4064786 C35.0633121,37.4064786 34.4436124,43.6034759 35.6830118,46.2366151 C36.9224113,48.8697543 33.515232,68.6861146 33.515232,68.6861146 C33.515232,68.6861146 33.3608917,74.5720928 31.6561328,77.3595723 C31.3384834,77.861048 30.8205848,78.2017708 30.2343312,78.2949682 C31.5602548,78.4914013 32.7669154,78.327707 33.3585532,77.3595723 C35.0633121,74.5720928 35.2176524,68.6861146 35.2176524,68.6861146 C35.2176524,68.6861146 38.6248317,48.8580619 37.3854322,46.2366151 C36.1460328,43.6151683 36.7657325,37.4041401 36.7657325,37.4041401 Z" id="Path"></path>
                            </g>
                            <path d="M262.737034,25.1831392 L261.651975,35.8700364 C261.651975,35.8700364 244.457061,39.5882348 246.31616,33.5455778 C247.195432,30.6856051 247.251556,27.6151683 247.048107,25.1761237 C246.994322,24.5166697 246.926506,23.9039854 246.849336,23.3544404 C246.723516,22.4052929 246.545521,21.4637946 246.31616,20.534222 C246.31616,20.534222 259.645551,10.4646861 259.018835,17.2813831 C258.875126,18.5697016 258.958229,19.8732362 259.264377,21.1328753 C259.459377,21.9040863 259.792109,22.6337215 260.246542,23.2866242 C261.343294,24.8347043 262.737034,25.1831392 262.737034,25.1831392 Z" id="Path" fill="#FDC2CC" fill-rule="nonzero"></path>
                            <path d="M259.266715,21.1352138 C259.142775,21.3035851 259.01182,21.4696178 258.878526,21.6286351 C255.888245,25.1732714 250.717522,25.9171157 246.849336,23.3591174 C246.723516,22.4099699 246.545521,21.4684716 246.31616,20.538899 C246.31616,20.538899 259.645551,10.4693631 259.018835,17.2860601 C258.876166,18.5737446 258.960059,19.8764652 259.266715,21.1352138 L259.266715,21.1352138 Z" id="Path" fill="#000000" fill-rule="nonzero" opacity="0.1"></path>
                            <path d="M261.032275,15.2679436 C261.032275,20.3151729 256.940687,24.4067607 251.893458,24.4067607 C246.846228,24.4067607 242.754641,20.3151729 242.754641,15.2679436 C242.754641,15.1510191 242.754641,15.0340946 242.754641,14.9171702 C242.949541,9.94492438 247.086719,6.0424664 252.061867,6.13798312 C257.037014,6.23349983 261.021354,10.291881 261.025259,15.2679436 L261.032275,15.2679436 Z" id="Path" fill="#FDC2CC" fill-rule="nonzero"></path>
                            <path d="M268.770337,81.3232575 C267.986908,82.3744279 266.820647,83.0743527 265.524513,83.2712193 L258.406151,85.7617106 L258.389782,85.7617106 L256.231356,86.5170428 L255.32636,84.2908007 L254.217916,81.5594449 L254.217916,86.5170428 C254.217916,86.5170428 240.617261,87.4524386 235.683048,83.5027298 L236.248963,79.5460055 C236.248963,79.5460055 267.694631,78.4609463 268.468672,78.306606 C268.662766,78.2762056 268.760983,79.4571429 268.770337,81.3232575 Z" id="Path" fill="#000000" fill-rule="nonzero" opacity="0.1"></path>
                            <path d="M262.737034,25.1831392 L261.651975,35.8700364 C261.651975,35.8700364 244.457061,39.5882348 246.31616,33.5455778 C247.195432,30.6856051 247.251556,27.6151683 247.048107,25.1761237 C247.345096,25.798162 249.531583,30.1991993 252.358817,30.9638854 L252.358817,30.9638854 C252.710707,31.0624378 253.077383,31.0972838 253.441538,31.0667789 C254.04281,30.9955107 254.616335,30.7735012 255.108881,30.4213558 C257.653157,28.7306278 259.78586,24.2804823 260.253558,23.2889627 C261.343294,24.8347043 262.737034,25.1831392 262.737034,25.1831392 Z" id="Path" fill="#000000" fill-rule="nonzero" opacity="0.1"></path>
                            <path d="M291.549563,57.402848 C284.889545,60.9667061 276.059409,68.3937489 276.059409,68.3937489 C276.059409,68.3937489 269.553731,66.0692903 271.25849,62.9731301 C272.963248,59.87697 282.24939,53.834313 282.24939,53.834313 C282.24939,53.834313 282.717088,51.9752138 280.70131,50.8901547 C278.685532,49.8050955 275.743712,47.1719563 275.743712,47.1719563 C275.743712,47.1719563 268.772675,62.1967516 270.166415,72.2662875 C271.560155,82.3358235 265.519836,82.7894904 265.519836,82.7894904 L258.401474,85.2799818 L258.385105,85.2799818 L256.226679,86.0353139 L255.321683,83.8090719 L254.213239,81.0777161 L254.213239,86.0353139 C254.213239,86.0353139 238.412066,87.1203731 234.696206,82.0084349 C234.696206,82.0084349 238.103385,68.3773794 237.175005,63.111101 C236.246624,57.8448226 235.161565,31.3567516 235.161565,31.3567516 L247.010692,25.3936033 C247.010692,25.3936033 249.328135,30.4517561 252.368171,31.2772429 L252.368171,31.2772429 C252.720061,31.3757954 253.086737,31.4106414 253.450892,31.3801365 C254.052164,31.3088683 254.625689,31.0868588 255.118235,30.7347134 C257.987561,28.8288444 260.344759,23.4035487 260.344759,23.4035487 C260.344759,23.4035487 265.688207,26.7008189 270.912393,27.7180619 C272.435473,28.0051763 273.83234,28.7567072 274.91121,29.8694722 C275.477125,30.4611101 276.141256,31.1416106 276.842803,31.8454959 C278.856242,33.8589354 292.798317,47.3356506 292.798317,47.3356506 C292.798317,47.3356506 298.202566,53.83899 291.549563,57.402848 Z" id="Path" fill="#196D88" fill-rule="nonzero"></path>
                            <path d="M276.220764,65.7676251 L274.186278,67.921374 L273.587625,68.5574431 C273.587625,68.5574431 268.167006,73.5150409 266.770928,73.3583621 C265.37485,73.2016833 263.05273,63.7541856 265.835532,64.3738854 C267.528599,64.7503822 269.509299,64.1564058 270.800146,63.6302457 L270.800146,63.6302457 C271.273842,63.4406179 271.736088,63.22355 272.184531,62.9801456 L276.220764,65.7676251 Z" id="Path" fill="#FDC2CC" fill-rule="nonzero"></path>
                            <path d="M261.032275,15.2679436 C261.035838,17.4266313 260.271611,19.5162365 258.876187,21.1632757 C258.389819,21.2101439 257.917395,20.98428 257.64848,20.5763148 C257.391247,20.1249864 257.498817,19.5590719 257.328107,19.0726661 C257.157398,18.5862602 256.769208,18.2518562 256.523667,17.8192357 C255.901629,16.7294995 256.16354,15.0785259 255.024695,14.4939035 C254.500874,14.2273157 253.867143,14.3161783 253.28252,14.4143949 C252.134322,14.6038126 250.979108,14.9803094 249.847279,15.1369882 C248.556433,15.3193904 247.394204,14.4798726 246.119727,14.4611647 C244.983221,14.4424568 243.842038,15.1089263 242.763995,14.9171702 C242.958895,9.94492438 247.096073,6.0424664 252.071221,6.13798312 C257.046368,6.23349983 261.030708,10.291881 261.034613,15.2679436 L261.032275,15.2679436 Z" id="Path" fill="#000000" fill-rule="nonzero" opacity="0.1"></path>
                            <path d="M253.28252,13.7946952 C253.867143,13.6988171 254.500874,13.607616 255.024695,13.8765423 C256.16354,14.4588262 255.901629,16.1097998 256.523667,17.1995359 C256.769208,17.6321565 257.166752,17.9852684 257.330446,18.4529663 C257.49414,18.9206642 257.393585,19.5052866 257.650819,19.9566151 C258.022639,20.6090537 259.030528,20.7049318 259.69232,20.3167425 C260.354113,19.9285532 260.723594,19.2153139 260.973813,18.5090901 C261.193631,17.8870519 261.378371,17.1995359 261.909208,16.7926388 C262.102148,16.6827633 262.275265,16.5412655 262.421338,16.3740491 C262.531026,16.1525633 262.573307,15.9037576 262.542939,15.6584713 C262.542939,14.0776524 262.297398,12.8522839 262.655187,11.3205732 C263.228116,8.8511283 263.751938,5.75964513 261.93727,3.92860783 C261.008303,3.0027842 259.81274,2.39110079 258.518399,2.17941765 C257.349154,1.98766151 255.628025,3.61992721 254.44475,3.58251137 C251.435114,3.46324841 248.895514,0.675768881 246.026187,1.57608735 C244.771616,1.97019754 243.683939,2.77073433 242.934704,3.85143767 C241.531611,5.91866242 241.657889,8.58921747 241.861338,11.0563239 C241.858284,11.24364 241.912989,11.4273523 242.018016,11.5824841 C242.123248,11.7087625 242.293958,11.7765787 242.396852,11.9051956 C242.507558,12.075108 242.549368,12.2808162 242.513776,12.4804641 C242.48247,12.8823256 242.388578,13.27683 242.235496,13.6497088 C242.157314,13.7760229 242.141782,13.9313426 242.193403,14.0706369 C242.25095,14.1487471 242.333456,14.2048516 242.427252,14.2296542 C243.596497,14.6505823 244.859281,13.8391265 246.110373,13.8601729 C247.361465,13.8812193 248.549418,14.7183985 249.840264,14.5359964 C250.979108,14.3606096 252.134322,13.9841128 253.28252,13.7946952 Z" id="Path" fill="#383A49" fill-rule="nonzero"></path>
                            <path d="M258.40849,85.2963512 L258.39212,85.2963512 L256.154186,86.1288535 L255.32636,83.8254413 L251.818626,74.0458781 L252.368171,31.2772429 L252.368171,31.2772429 C252.720061,31.3757954 253.086737,31.4106414 253.450892,31.3801365 C254.052164,31.3088683 254.625689,31.0868588 255.118235,30.7347134 L255.118235,30.7347134 L254.454104,72.827525 L258.40849,85.2963512 Z" id="Path" fill="#000000" fill-rule="nonzero" opacity="0.05"></path>
                            <circle id="Oval" fill="#FFFFFF" fill-rule="nonzero" cx="254.063576" cy="32.9282166" r="1"></circle>
                            <circle id="Oval" fill="#FFFFFF" fill-rule="nonzero" cx="253.132857" cy="48.7270519" r="1"></circle>
                            <circle id="Oval" fill="#FFFFFF" fill-rule="nonzero" cx="252.358817" cy="65.1479254" r="1"></circle>
                            <circle id="Oval" fill="#FFFFFF" fill-rule="nonzero" cx="253.289536" cy="73.3560237" r="1"></circle>
                            <polygon id="Path" fill="#000000" fill-rule="nonzero" opacity="0.05" points="269.24505 50.586151 259.329854 50.586151 259.329854 40.6732939 264.287452 39.2772157 269.24505 40.6732939"></polygon>
                            <circle id="Oval" fill="#FFFFFF" fill-rule="nonzero" cx="253.598217" cy="40.2079345" r="1"></circle>
                            <circle id="Oval" fill="#FFFFFF" fill-rule="nonzero" cx="264.596133" cy="40.6732939" r="1"></circle>
                            <circle id="Oval" fill="#FFFFFF" fill-rule="nonzero" cx="252.669836" cy="57.2461692" r="1"></circle>
                            <path d="M237.334022,30.2950773 C237.334022,30.2950773 232.996124,30.9147771 231.602384,38.8141947 C230.208644,46.7136124 228.814904,57.7115287 228.814904,57.7115287 C228.814904,57.7115287 226.490446,67.9354049 238.103385,65.451929 L238.723085,61.888071 C238.723085,61.888071 237.55384,65.9921201 237.871874,57.7840218 C238.189909,49.5759236 238.260064,44.2207825 238.260064,44.2207825 L237.334022,30.2950773 Z" id="Path" fill="#196D88" fill-rule="nonzero"></path>
                            <path d="M237.334022,30.2950773 C237.334022,30.2950773 232.996124,30.9147771 231.602384,38.8141947 C230.208644,46.7136124 228.814904,57.7115287 228.814904,57.7115287 C228.814904,57.7115287 226.490446,67.9354049 238.103385,65.451929 L238.723085,61.888071 C238.723085,61.888071 236.941156,65.8377798 237.252175,57.627343 C237.563194,49.4169063 238.260064,44.227798 238.260064,44.227798 L237.334022,30.2950773 Z" id="Path" fill="#000000" fill-rule="nonzero" opacity="0.05"></path>
                            <path d="M276.220764,65.7676251 L274.186278,67.921374 C271.293567,66.7521292 270.732329,63.6863694 270.732329,63.6863694 L270.807161,63.6302457 L270.807161,63.6302457 C271.280858,63.4406179 271.743103,63.22355 272.191547,62.9801456 L276.220764,65.7676251 Z" id="Path" fill="#000000" fill-rule="nonzero" opacity="0.1"></path>
                            <path d="M273.349099,61.8179163 L271.036333,63.5320291 C271.036333,63.5320291 271.801019,67.7038944 276.136579,68.1692539 L277.995678,64.9164149 L273.349099,61.8179163 Z" id="Path" fill="#176781" fill-rule="nonzero"></path>
                            <g id="MAP" transform="translate(206.905596, 21.874177)" fill-rule="nonzero">
                                <polygon id="Path" fill="#F2F5FB" points="-1.27897692e-13 17.4942402 19.6152502 -3.19744231e-14 28.5927116 10.4460328 43.9986806 9.65094631 48.6686442 19.3089081 34.0016379 38.4658144 27.1311556 28.0291356 10.7897907 29.4275523"></polygon>
                                <polygon id="Path" fill="#DDE0ED" points="47.043394 19.332293 41.8823476 26.0367425 36.3752047 33.1925205 33.8309281 36.5014832 27.94495 27.3439581 21.7713376 27.8864877 11.7205096 28.7680983 4.23266606 20.4875068 1.65798908 17.6415651 12.1040218 8.32502275 19.9519927 1.32826206 23.9952411 6.033303 28.3214468 11.068071 32.6429754 10.8459145 42.6891265 10.3267698 46.6107734 18.4366515"></polygon>
                                <polygon id="Path" fill="#ABB1D1" points="14.5968517 12.281747 4.23266606 20.4875068 1.65798908 17.6415651 12.1040218 8.32502275"></polygon>
                                <polygon id="Path" fill="#ABB1D1" points="26.4202548 18.3267425 25.6041219 13.184404 20.1507643 6.78395814 23.9952411 6.033303 28.3214468 11.068071 32.6429754 10.8459145 34.2284713 16.9704186 26.5278253 18.997889"></polygon>
                                <polygon id="Path" fill="#ABB1D1" points="47.043394 19.332293 41.8823476 26.0367425 39.2024386 21.9958326 46.6107734 18.4366515"></polygon>
                                <polygon id="Path" fill="#ABB1D1" points="36.3752047 33.1925205 33.8309281 36.5014832 27.94495 27.3439581 21.7713376 27.8864877 20.6512011 20.1437489 26.4202548 18.3267425 27.1124477 23.6164058 31.0153867 24.2220746"></polygon>
                                <polygon id="Path" fill="#FFFFFF" opacity="0.1" points="11.7251865 28.5623112 28.2863694 11.0329936 42.6587261 10.3337853 27.9847043 27.2831574"></polygon>
                            </g>
                            <path d="M232.996124,58.9415742 C232.996124,58.9415742 236.868662,49.4402912 238.727762,50.4271338 C240.586861,51.4139763 246.00748,57.3373703 242.29162,59.9284167 C238.57576,62.5194631 235.940282,63.7541856 235.940282,63.7541856 L232.996124,63.3847043 L232.996124,58.9415742 Z" id="Path" fill="#FDC2CC" fill-rule="nonzero"></path>
                            <path d="M230.905514,59.0280983 C230.905514,59.0280983 234.45768,56.2406187 237.327006,64.682566 L234.621374,65.0707552 L231.522875,63.2116561 L230.905514,59.0280983 Z" id="Path" fill="#196D88" fill-rule="nonzero"></path>
                            <path d="M230.905514,59.0280983 C230.905514,59.0280983 234.45768,56.2406187 237.327006,64.682566 L234.621374,65.0707552 L231.522875,63.2116561 L230.905514,59.0280983 Z" id="Path" fill="#000000" fill-rule="nonzero" opacity="0.05"></path>
                        </g>
                    </g>
                </g>
            </g>
        </g>
    </g>
</svg>