<svg width="28" height="28" viewBox="0 0 28 28" fill="none" xmlns="http://www.w3.org/2000/svg">
<path d="M14.0004 2.7998C12.3307 2.7998 11.0581 3.36952 10.1723 4.44002C9.37542 5.40312 8.90532 6.7578 8.75047 8.39981C8.58816 10.1209 8.81012 11.4251 9.51608 12.3596C10.3299 13.4368 11.7836 13.9998 14.0004 13.9998C16.2135 13.9998 17.6669 13.4307 18.4816 12.346C19.1853 11.4089 19.4084 10.1059 19.2505 8.39983C19.0962 6.73322 18.6275 5.37731 17.8287 4.41859C16.9464 3.35994 15.6753 2.7998 14.0004 2.7998ZM14.0002 15.6915C18.1763 15.6915 21.0587 17.821 22.8415 21.1474C23.8819 23.0886 22.3552 25.1998 20.1355 25.1998H7.86491C5.64526 25.1998 4.11848 23.0886 5.15888 21.1473C6.94166 17.8211 9.82409 15.6915 14.0002 15.6915ZM14.0002 17.1498C10.4238 17.1498 7.99376 18.9452 6.44424 21.8362C5.95952 22.7407 6.68328 23.7415 7.86491 23.7415H20.1355C21.3171 23.7415 22.0409 22.7407 21.5562 21.8363C20.0066 18.9452 17.5766 17.1498 14.0002 17.1498ZM14.0004 4.25814C15.2541 4.25814 16.1114 4.63591 16.7084 5.35221C17.2953 6.05654 17.6691 7.13817 17.7983 8.53426C17.9261 9.91392 17.7612 10.8767 17.3155 11.4703C16.8101 12.1431 15.7928 12.5415 14.0004 12.5415C12.2023 12.5415 11.183 12.1467 10.6797 11.4805C10.2348 10.8916 10.071 9.92948 10.2024 8.53673C10.3319 7.16323 10.7075 6.08081 11.2959 5.36972C11.898 4.64211 12.7557 4.25814 14.0004 4.25814Z" fill="black" fill-opacity="0.87"/>
</svg>
