<svg width="28" height="28" viewBox="0 0 28 28" fill="none" xmlns="http://www.w3.org/2000/svg">
<path fill-rule="evenodd" clip-rule="evenodd" d="M16.5898 7.89957C18.6653 8.36124 20.1359 9.48773 20.9379 11.2626C21.7738 13.1123 22.3665 16.787 22.7484 22.3529C22.7668 22.6209 22.6302 22.8758 22.3968 23.0089C19.8358 24.4696 17.0329 25.2008 14 25.2008C10.9672 25.2008 8.16419 24.4696 5.60319 23.0089C5.37192 22.877 5.23551 22.6253 5.25123 22.3595C5.58082 16.7872 6.17455 13.1061 7.06927 11.2473C7.91712 9.48579 9.38318 8.36463 11.4107 7.9025C11.2397 7.17399 11.0701 6.6126 10.9054 6.22383C10.6897 5.71439 10.2402 4.92782 9.56247 3.88137C9.22192 3.35557 9.6906 2.68146 10.3021 2.81757C11.9632 3.18731 13.2025 3.37074 14 3.37074C14.7976 3.37074 16.0368 3.18731 17.6979 2.81757C18.3095 2.68144 18.7782 3.35574 18.4374 3.88153C17.7605 4.92609 17.3111 5.71255 17.0946 6.22383C16.9296 6.61334 16.7602 7.17372 16.5898 7.89957ZM12.9062 17.2373L14.7437 17.7186C14.9187 17.7623 15.05 17.9373 15.05 18.0686C15.05 18.2873 14.875 18.4623 14.6125 18.4623H13.475C13.2562 18.4623 13.0812 18.4186 12.95 18.3311C12.8187 18.2873 12.6437 18.2873 12.5562 18.3748L12.0312 18.9436C11.8562 19.0748 11.9 19.3373 12.075 19.4248C12.425 19.6873 12.8625 19.8186 13.3 19.8623V20.2998C13.3 20.4748 13.475 20.6498 13.65 20.6498H14.35C14.525 20.6498 14.7 20.4748 14.7 20.2998V19.8623C15.6625 19.8186 16.45 19.0311 16.45 18.0686C16.45 17.2811 15.8812 16.5811 15.0937 16.3623L13.2562 15.8811C13.0812 15.8373 12.95 15.6623 12.95 15.5311C12.95 15.3123 13.125 15.1373 13.3875 15.1373H14.525C14.7437 15.1373 14.9187 15.1811 15.05 15.2686C15.1812 15.3123 15.3562 15.3123 15.4437 15.2248L15.9687 14.6561C16.1437 14.5248 16.1 14.2623 15.925 14.1748C15.575 13.9123 15.1375 13.7811 14.7 13.7373V13.2998C14.7 13.1248 14.525 12.9498 14.35 12.9498H13.65C13.475 12.9498 13.3 13.1248 13.3 13.2998V13.7373C12.3375 13.7811 11.55 14.5686 11.55 15.5311C11.55 16.3186 12.1187 17.0186 12.9062 17.2373ZM21.3204 22.0042C19.0773 23.2024 16.6406 23.8009 14 23.8009C11.3579 23.8009 8.91989 23.2017 6.67567 22.0021C6.99951 16.8543 7.56252 13.4506 8.33078 11.8545C9.06756 10.3237 10.3803 9.43184 12.3484 9.1526C12.7484 9.09584 13.0175 8.71316 12.9355 8.31753C12.6956 7.15951 12.4512 6.28365 12.1946 5.67788C12.0591 5.35777 11.8586 4.96819 11.5924 4.50655C12.5813 4.6824 13.3818 4.77075 14 4.77075C14.6182 4.77075 15.4187 4.68241 16.4074 4.50659C16.1417 4.96755 15.9413 5.35712 15.8055 5.67788C15.5481 6.28552 15.3037 7.16153 15.0645 8.31776C14.9826 8.71409 15.2528 9.09714 15.6537 9.15287C17.6693 9.4331 18.9761 10.3209 19.6621 11.8391C20.3864 13.4418 20.9491 16.8505 21.3204 22.0042Z" fill="black" fill-opacity="0.87"/>
</svg>
