<svg width="28" height="28" xmlns="http://www.w3.org/2000/svg"><path d="M13.5 7.13a4.2 4.2 0 0 0-4.25 4.12 4.2 4.2 0 0 0 4.25 4.13 4.2 4.2 0 0 0 4.25-4.13 4.2 4.2 0 0 0-4.25-4.12zm0 6.87a2.8 2.8 0 0 1-2.83-2.75A2.8 2.8 0 0 1 13.5 8.5a2.8 2.8 0 0 1 2.83 2.75A2.8 2.8 0 0 1 13.5 14zm0-11C8.8 3 5 6.7 5 11.25c0 3.33 1.2 4.26 7.63 13.3a1.07 1.07 0 0 0 1.75 0C20.8 15.52 22 14.59 22 11.26 22 6.69 18.2 3 13.5 3zm0 20.36c-6.17-8.65-7.08-9.34-7.08-12.11 0-1.84.73-3.56 2.07-4.86a7.15 7.15 0 0 1 5.01-2.01c1.9 0 3.67.71 5 2a6.73 6.73 0 0 1 2.08 4.87c0 2.77-.91 3.46-7.08 12.11z" fill="#000" fill-rule="nonzero" fill-opacity=".87"/></svg>