<svg width="28" height="28" viewBox="0 0 28 28" fill="none" xmlns="http://www.w3.org/2000/svg">
<path fill-rule="evenodd" clip-rule="evenodd" d="M23.8002 24.3248V25.1998H4.2002V24.3248C4.2002 24.0349 4.43526 23.7998 4.7252 23.7998H5.6002V3.8498C5.6002 3.2699 6.07029 2.7998 6.6502 2.7998H21.3502C21.9301 2.7998 22.4002 3.2699 22.4002 3.8498V23.7998H23.2752C23.5651 23.7998 23.8002 24.0349 23.8002 24.3248ZM12.6002 9.23105V7.48105C12.6002 7.19112 12.3651 6.95605 12.0752 6.95605H10.3252C10.0352 6.95605 9.80016 7.19112 9.80016 7.48105V9.23105C9.80016 9.52098 10.0352 9.75605 10.3252 9.75605H12.0752C12.3651 9.75605 12.6002 9.52098 12.6002 9.23105ZM15.9252 6.95605H17.6752C17.9651 6.95605 18.2002 7.19112 18.2002 7.48105V9.23105C18.2002 9.52098 17.9651 9.75605 17.6752 9.75605H15.9252C15.6353 9.75605 15.4002 9.52098 15.4002 9.23105V7.48105C15.4002 7.19112 15.6353 6.95605 15.9252 6.95605ZM12.0752 11.1561H10.3252C10.0352 11.1561 9.80016 11.3911 9.80016 11.6811V13.4311C9.80016 13.721 10.0352 13.9561 10.3252 13.9561H12.0752C12.3651 13.9561 12.6002 13.721 12.6002 13.4311V11.6811C12.6002 11.3911 12.3651 11.1561 12.0752 11.1561ZM15.9252 11.1561H17.6752C17.9651 11.1561 18.2002 11.3911 18.2002 11.6811V13.4311C18.2002 13.721 17.9651 13.9561 17.6752 13.9561H15.9252C15.6353 13.9561 15.4002 13.721 15.4002 13.4311V11.6811C15.4002 11.3911 15.6353 11.1561 15.9252 11.1561ZM12.0752 15.3561H10.3252C10.0352 15.3561 9.80016 15.5911 9.80016 15.8811V17.6311C9.80016 17.921 10.0352 18.1561 10.3252 18.1561H12.0752C12.3651 18.1561 12.6002 17.921 12.6002 17.6311V15.8811C12.6002 15.5911 12.3651 15.3561 12.0752 15.3561ZM15.9252 15.3561H17.6752C17.9651 15.3561 18.2002 15.5911 18.2002 15.8811V17.6311C18.2002 17.921 17.9651 18.1561 17.6752 18.1561H15.9252C15.6353 18.1561 15.4002 17.921 15.4002 17.6311V15.8811C15.4002 15.5911 15.6353 15.3561 15.9252 15.3561ZM21.0002 4.1998V23.7998H15.4002V20.0811C15.4002 19.7911 15.1651 19.5561 14.8752 19.5561H13.1252C12.8352 19.5561 12.6002 19.7911 12.6002 20.0811V23.7998H7.00018V4.1998H21.0002Z" fill="black" fill-opacity="0.87"/>
</svg>
