<svg width="160" height="100" viewBox="0 0 160 100" fill="none" xmlns="http://www.w3.org/2000/svg">
<path d="M0 7.84314C0 3.51149 3.58172 0 8 0H152C156.418 0 160 3.51149 160 7.84314V92.1569C160 96.4885 156.418 100 152 100H8C3.58172 100 0 96.4885 0 92.1569V7.84314Z" fill="#1F72CD"/>
<path fill-rule="evenodd" clip-rule="evenodd" d="M28.6699 33L13.7 66.128H31.6211L33.8428 60.846H38.9211L41.1428 66.128H60.8689V62.0966L62.6266 66.128H72.8305L74.5882 62.0114V66.128H115.613L120.602 60.9832L125.273 66.128L146.344 66.1706L131.327 49.6565L146.344 33H125.599L120.743 38.0497L116.219 33H71.5897L67.7574 41.5506L63.8351 33H45.9514V36.8942L43.962 33H28.6699ZM32.1376 37.7042H40.8732L50.8027 60.1685V37.7042H60.3722L68.0416 53.811L75.1099 37.7042H84.6316V61.4757H78.8379L78.7906 42.8485L70.3439 61.4757H65.1611L56.6672 42.8485V61.4757H44.7482L42.4885 56.1465H30.2806L28.0257 61.4711H21.6396L32.1376 37.7042ZM113.491 37.7042H89.9322V61.4617H113.126L120.602 53.5881L127.807 61.4617H135.339L124.391 49.6518L135.339 37.7042H128.134L120.696 45.4874L113.491 37.7042ZM36.3871 41.7263L32.3651 51.2199H40.4044L36.3871 41.7263ZM95.7497 46.9656V42.6261V42.6219H110.449L116.864 49.5619L110.165 56.5397H95.7497V51.8023H108.602V46.9656H95.7497Z" fill="white"/>
</svg>
