<svg width="28" height="28" viewBox="0 0 28 28" fill="none" xmlns="http://www.w3.org/2000/svg">
<path fill-rule="evenodd" clip-rule="evenodd" d="M21.7002 5.5998H19.6002V3.3248C19.6002 3.03605 19.3639 2.7998 19.0752 2.7998H18.7252C18.4364 2.7998 18.2002 3.03605 18.2002 3.3248V5.5998H9.8002V3.3248C9.8002 3.03605 9.56395 2.7998 9.2752 2.7998H8.9252C8.63645 2.7998 8.4002 3.03605 8.4002 3.3248V5.5998H6.3002C5.14082 5.5998 4.2002 6.54043 4.2002 7.6998V23.0998C4.2002 24.2592 5.14082 25.1998 6.3002 25.1998H21.7002C22.8596 25.1998 23.8002 24.2592 23.8002 23.0998V7.6998C23.8002 6.54043 22.8596 5.5998 21.7002 5.5998ZM6.30023 6.99981H21.7002C22.0852 6.99981 22.4002 7.31481 22.4002 7.69981V9.79981H5.60023V7.69981C5.60023 7.31481 5.91523 6.99981 6.30023 6.99981ZM6.30023 23.7998H21.7002C22.0852 23.7998 22.4002 23.4848 22.4002 23.0998V11.1998H5.60023V23.0998C5.60023 23.4848 5.91523 23.7998 6.30023 23.7998ZM10.6752 16.7998H8.92521C8.63646 16.7998 8.40021 16.5636 8.40021 16.2748V14.5248C8.40021 14.2361 8.63646 13.9998 8.92521 13.9998H10.6752C10.964 13.9998 11.2002 14.2361 11.2002 14.5248V16.2748C11.2002 16.5636 10.964 16.7998 10.6752 16.7998ZM13.1252 16.7998H14.8752C15.164 16.7998 15.4002 16.5636 15.4002 16.2748V14.5248C15.4002 14.2361 15.164 13.9998 14.8752 13.9998H13.1252C12.8365 13.9998 12.6002 14.2361 12.6002 14.5248V16.2748C12.6002 16.5636 12.8365 16.7998 13.1252 16.7998ZM19.0752 16.7998H17.3252C17.0364 16.7998 16.8002 16.5636 16.8002 16.2748V14.5248C16.8002 14.2361 17.0364 13.9998 17.3252 13.9998H19.0752C19.3639 13.9998 19.6002 14.2361 19.6002 14.5248V16.2748C19.6002 16.5636 19.3639 16.7998 19.0752 16.7998ZM13.1252 20.9998H14.8752C15.164 20.9998 15.4002 20.7636 15.4002 20.4748V18.7248C15.4002 18.4361 15.164 18.1998 14.8752 18.1998H13.1252C12.8365 18.1998 12.6002 18.4361 12.6002 18.7248V20.4748C12.6002 20.7636 12.8365 20.9998 13.1252 20.9998ZM10.6752 20.9998H8.92521C8.63646 20.9998 8.40021 20.7636 8.40021 20.4748V18.7248C8.40021 18.4361 8.63646 18.1998 8.92521 18.1998H10.6752C10.964 18.1998 11.2002 18.4361 11.2002 18.7248V20.4748C11.2002 20.7636 10.964 20.9998 10.6752 20.9998ZM17.3252 20.9998H19.0752C19.3639 20.9998 19.6002 20.7636 19.6002 20.4748V18.7248C19.6002 18.4361 19.3639 18.1998 19.0752 18.1998H17.3252C17.0364 18.1998 16.8002 18.4361 16.8002 18.7248V20.4748C16.8002 20.7636 17.0364 20.9998 17.3252 20.9998Z" fill="#424547"/>
</svg>
