<svg width="328" height="135" viewBox="0 0 328 135" xmlns="http://www.w3.org/2000/svg">
  <g transform="matrix(-1 0 0 1 330 0)" fill="none" fill-rule="evenodd" opacity=".5">
    <path d="M4.2 76.6c1.2 1.9 2.2 3 3 3.1.8.2 2.2-.2 4.1-1-1.7 1-2.7 1.9-3 2.7-.2.8.1 2.1 1 3.8-1-1.6-1.9-2.5-2.7-2.7-.9-.3-2.2.1-4 1 1.8-1 2.7-2 3-2.8.2-.8-.3-2.2-1.4-4.1z" stroke="#88C8FF" stroke-width="1.2" fill="#88C8FF" fill-rule="nonzero" stroke-linecap="round" stroke-linejoin="round"/>
    <path d="M61.8 89.7c.4 1.8.9 2.8 1.4 3.2.6.4 1.7.5 3.4.3-1.6.3-2.6.7-3 1.3-.4.6-.5 1.6-.3 3-.3-1.4-.7-2.3-1.3-2.7-.6-.4-1.7-.5-3.3-.2 1.6-.4 2.6-.9 3-1.4.4-.6.4-1.7.1-3.5z" stroke="#7AE3C9" stroke-width=".9" fill="#7AE3C9" fill-rule="nonzero" stroke-linecap="round" stroke-linejoin="round"/>
    <path d="M267.3 94c.2 3.4.7 5.5 1.5 6.3.9.9 3 1.4 6.2 1.7-3 0-5 .5-6 1.4-.9 1-1.4 2.8-1.6 5.6 0-2.8-.5-4.7-1.4-5.6-1-.9-3-1.4-6-1.4 3-.2 5-.8 6-1.6.9-1 1.3-3 1.3-6.4z" stroke="#FCE3B5" stroke-width="1.7" fill="#FCE3B5" fill-rule="nonzero" stroke-linecap="round" stroke-linejoin="round"/>
    <circle stroke="#F3A9B3" stroke-width="2" cx="154.5" cy="61.5" r="2.5"/>
    <circle stroke="#FCE3B5" stroke-width="2" cx="326.5" cy="119.5" r="2.5"/>
    <circle stroke="#88C8FF" stroke-width="2" cx="291" cy="126" r="3"/>
    <circle stroke="#F3A9B3" stroke-width="2" cx="185" cy="133" r="1"/>
    <path stroke="#A7ECDB" stroke-width="2" d="M269.7 57.5l4.2 4.2-4.2 4.3-4.3-4.3z"/>
    <path stroke="#88C8FF" d="M60.2.6l2.6 1.5-1.5 2.6-2.6-1.5z"/>
    <path stroke="#FCE3B5" d="M322.8 43.7l2.1 2-2 2.2-2.2-2.1z"/>
    <path stroke="#F3A9B3" d="M61.7 121.7l2.8 1-1 2.8-2.8-1z"/>
    <path stroke="#88C8FF" stroke-width="4" d="M20.7 12.7l.9.5-.5.9-.9-.5z"/>
    <path stroke="#F3A9B3" stroke-width="4" d="M317.7 84.7l.9-.5.5.9-1 .5z"/>
    <path stroke="#FCE3B5" stroke-width="1.5" d="M18.7 124l4.2 1.7-1.7 4.2-4.2-1.7z"/>
    <path stroke="#88C8FF" stroke-width="2.5" d="M322.5 10.7l3.1 6.8-6.8 3.1-3.1-6.8z"/>
  </g>
</svg>
