<svg width="28" height="28" viewBox="0 0 28 28" fill="none" xmlns="http://www.w3.org/2000/svg">
<path fill-rule="evenodd" clip-rule="evenodd" d="M8.1198 5.25H3.0798C2.9258 5.25 2.7998 5.37551 2.7998 5.52891V10.8281C2.7998 10.9815 2.9258 11.107 3.0798 11.107H3.6398C3.7938 11.107 3.9198 10.9815 3.9198 10.8281V6.36563H8.1198C8.27381 6.36563 8.39981 6.24012 8.39981 6.08672V5.52891C8.39981 5.37551 8.27381 5.25 8.1198 5.25ZM8.1198 21.9844H3.9198V17.5219C3.9198 17.3685 3.7938 17.243 3.6398 17.243H3.0798C2.9258 17.243 2.7998 17.3685 2.7998 17.5219V22.8211C2.7998 22.9745 2.9258 23.1 3.0798 23.1H8.1198C8.27381 23.1 8.39981 22.9745 8.39981 22.8211V22.2633C8.39981 22.1099 8.27381 21.9844 8.1198 21.9844ZM19.8798 5.25H24.9198C25.0738 5.25 25.1998 5.37551 25.1998 5.52891V10.8281C25.1998 10.9815 25.0738 11.107 24.9198 11.107H24.3598C24.2058 11.107 24.0798 10.9815 24.0798 10.8281V6.36563H19.8798C19.7258 6.36563 19.5998 6.24012 19.5998 6.08672V5.52891C19.5998 5.37551 19.7258 5.25 19.8798 5.25ZM24.9198 17.243H24.3598C24.2058 17.243 24.0798 17.3685 24.0798 17.5219V21.9844H19.8798C19.7258 21.9844 19.5998 22.1099 19.5998 22.2633V22.8211C19.5998 22.9745 19.7258 23.1 19.8798 23.1H24.9198C25.0738 23.1 25.1998 22.9745 25.1998 22.8211V17.5219C25.1998 17.3685 25.0738 17.243 24.9198 17.243ZM6.43972 8.59687H8.11972C8.27372 8.59687 8.39972 8.72238 8.39972 8.87578V19.4742C8.39972 19.6276 8.27372 19.7531 8.11972 19.7531H6.43972C6.28572 19.7531 6.15972 19.6276 6.15972 19.4742V8.87578C6.15972 8.72238 6.28572 8.59687 6.43972 8.59687ZM19.8798 19.7531H21.5598C21.7138 19.7531 21.8398 19.6276 21.8398 19.4742V8.87578C21.8398 8.72238 21.7138 8.59687 21.5598 8.59687H19.8798C19.7258 8.59687 19.5998 8.72238 19.5998 8.87578V19.4742C19.5998 19.6276 19.7258 19.7531 19.8798 19.7531ZM15.3997 8.59687H17.0797C17.2337 8.59687 17.3597 8.72238 17.3597 8.87578V19.4742C17.3597 19.6276 17.2337 19.7531 17.0797 19.7531H15.3997C15.2457 19.7531 15.1197 19.6276 15.1197 19.4742V8.87578C15.1197 8.72238 15.2457 8.59687 15.3997 8.59687ZM10.3596 8.59687H9.79963C9.64563 8.59687 9.51963 8.72238 9.51963 8.87578V19.4742C9.51963 19.6276 9.64563 19.7531 9.79963 19.7531H10.3596C10.5136 19.7531 10.6396 19.6276 10.6396 19.4742V8.87578C10.6396 8.72238 10.5136 8.59687 10.3596 8.59687ZM12.0397 8.59687H12.5997C12.7537 8.59687 12.8797 8.72238 12.8797 8.87578V19.4742C12.8797 19.6276 12.7537 19.7531 12.5997 19.7531H12.0397C11.8857 19.7531 11.7597 19.6276 11.7597 19.4742V8.87578C11.7597 8.72238 11.8857 8.59687 12.0397 8.59687Z" fill="black" fill-opacity="0.87"/>
</svg>
