<svg width="27" height="25" viewBox="0 0 27 25" fill="none" xmlns="http://www.w3.org/2000/svg">
<path fill-rule="evenodd" clip-rule="evenodd" d="M8.37984 7.75488H7.05984C6.93884 7.75488 6.83984 7.8535 6.83984 7.97402V16.3014C6.83984 16.4219 6.93884 16.5205 7.05984 16.5205H8.37984C8.50084 16.5205 8.59984 16.4219 8.59984 16.3014V7.97402C8.59984 7.8535 8.50084 7.75488 8.37984 7.75488ZM17.6199 16.5205H18.9399C19.0609 16.5205 19.1599 16.4219 19.1599 16.3014V7.97402C19.1599 7.8535 19.0609 7.75488 18.9399 7.75488H17.6199C17.4989 7.75488 17.3999 7.8535 17.3999 7.97402V16.3014C17.3999 16.4219 17.4989 16.5205 17.6199 16.5205ZM14.0998 7.75488H15.4198C15.5408 7.75488 15.6398 7.8535 15.6398 7.97402V16.3014C15.6398 16.4219 15.5408 16.5205 15.4198 16.5205H14.0998C13.9788 16.5205 13.8798 16.4219 13.8798 16.3014V7.97402C13.8798 7.8535 13.9788 7.75488 14.0998 7.75488ZM10.1398 7.75488H9.69978C9.57878 7.75488 9.47978 7.8535 9.47978 7.97402V16.3014C9.47978 16.4219 9.57878 16.5205 9.69978 16.5205H10.1398C10.2608 16.5205 10.3598 16.4219 10.3598 16.3014V7.97402C10.3598 7.8535 10.2608 7.75488 10.1398 7.75488ZM11.4598 7.75488H11.8998C12.0208 7.75488 12.1198 7.8535 12.1198 7.97402V16.3014C12.1198 16.4219 12.0208 16.5205 11.8998 16.5205H11.4598C11.3388 16.5205 11.2398 16.4219 11.2398 16.3014V7.97402C11.2398 7.8535 11.3388 7.75488 11.4598 7.75488Z" fill="black" fill-opacity="0.87"/>
<path d="M2.975 4.3326C2.32704 3.47165 1.23413 3.0466 0.191857 3.0002C0.0869258 2.99552 0 3.09126 0 3.20941V3.90713C0 4.01838 0.077412 4.11097 0.176207 4.11592C1.4416 4.17927 2.47917 4.92193 2.47917 5.78908V11.3672H1.1776C1.12829 11.3672 1.081 11.3892 1.04613 11.4285C1.01126 11.4677 0.991667 11.5209 0.991667 11.5764V12.2736C0.991667 12.3291 1.01126 12.3823 1.04613 12.4215C1.081 12.4608 1.12829 12.4828 1.1776 12.4828H2.47917V18.0609C2.47917 18.9281 1.4416 19.6707 0.176207 19.7341C0.077412 19.739 0 19.8316 0 19.9429V20.6406C0 20.7587 0.0869568 20.8545 0.191887 20.8498C1.24051 20.8032 2.3302 20.3741 2.975 19.5174C3.62296 20.3783 4.71587 20.8034 5.75814 20.8498C5.86307 20.8545 5.95 20.7587 5.95 20.6406V19.9429C5.95 19.8316 5.87259 19.739 5.77379 19.7341C4.5084 19.6707 3.47083 18.9281 3.47083 18.0609V12.4828H4.7724C4.82171 12.4828 4.869 12.4608 4.90387 12.4215C4.93874 12.3823 4.95833 12.3291 4.95833 12.2736V11.5764C4.95833 11.5209 4.93874 11.4677 4.90387 11.4285C4.869 11.3892 4.82171 11.3672 4.7724 11.3672H3.47083V5.78908C3.47083 4.92193 4.5084 4.17927 5.77379 4.11592C5.87259 4.11097 5.95 4.01838 5.95 3.90713V3.20941C5.95 3.09126 5.86304 2.99552 5.75811 3.00016C4.70949 3.04681 3.6198 3.47584 2.975 4.3326Z" fill="black"/>
</svg>
