<?xml version="1.0" encoding="UTF-8"?>
<svg width="28px" height="28px" viewBox="0 0 28 28" version="1.1" xmlns="http://www.w3.org/2000/svg" xmlns:xlink="http://www.w3.org/1999/xlink">
    <!-- Generator: Sketch 59.1 (86144) - https://sketch.com -->
    <title>🔩 Parts/Icon/Font Awesome/barcode</title>
    <desc>Created with Sketch.</desc>
    <g id="🔩-Parts/Icon/Font-Awesome/barcode" stroke="none" stroke-width="1" fill="none" fill-rule="evenodd">
        <path d="M12.6,8.421875 L12.04,8.421875 C11.9,8.421875 11.76,8.56132812 11.76,8.70078125 L11.76,19.2992188 C11.76,19.4386719 11.9,19.578125 12.04,19.578125 L12.6,19.578125 C12.74,19.578125 12.88,19.4386719 12.88,19.2992188 L12.88,8.70078125 C12.88,8.56132812 12.74,8.421875 12.6,8.421875 Z M10.36,8.421875 L9.8,8.421875 C9.66,8.421875 9.52,8.56132812 9.52,8.70078125 L9.52,19.2992188 C9.52,19.4386719 9.66,19.578125 9.8,19.578125 L10.36,19.578125 C10.5,19.578125 10.64,19.4386719 10.64,19.2992188 L10.64,8.70078125 C10.64,8.56132812 10.5,8.421875 10.36,8.421875 Z M23.52,5.075 L4.48,5.075 C3.57,5.075 2.8,5.84199219 2.8,6.7484375 L2.8,21.2515625 C2.8,22.1928711 3.57,22.925 4.48,22.925 L23.52,22.925 C24.465,22.925 25.2,22.1928711 25.2,21.2515625 L25.2,6.7484375 C25.2,5.84199219 24.465,5.075 23.52,5.075 Z M24.08,21.2515625 C24.08,21.565332 23.835,21.809375 23.52,21.809375 L4.48,21.809375 C4.165,21.809375 3.92,21.565332 3.92,21.2515625 L3.92,6.7484375 C3.92,6.43466797 4.165,6.190625 4.48,6.190625 L23.52,6.190625 C23.835,6.190625 24.08,6.43466797 24.08,6.7484375 L24.08,21.2515625 Z M8.12,8.421875 L6.44,8.421875 C6.3,8.421875 6.16,8.56132812 6.16,8.70078125 L6.16,19.2992188 C6.16,19.4386719 6.3,19.578125 6.44,19.578125 L8.12,19.578125 C8.26,19.578125 8.4,19.4386719 8.4,19.2992188 L8.4,8.70078125 C8.4,8.56132812 8.26,8.421875 8.12,8.421875 Z M21.56,8.421875 L19.88,8.421875 C19.74,8.421875 19.6,8.56132812 19.6,8.70078125 L19.6,19.2992188 C19.6,19.4386719 19.74,19.578125 19.88,19.578125 L21.56,19.578125 C21.7,19.578125 21.84,19.4386719 21.84,19.2992188 L21.84,8.70078125 C21.84,8.56132812 21.7,8.421875 21.56,8.421875 Z M17.08,8.421875 L15.4,8.421875 C15.26,8.421875 15.12,8.56132812 15.12,8.70078125 L15.12,19.2992188 C15.12,19.4386719 15.26,19.578125 15.4,19.578125 L17.08,19.578125 C17.22,19.578125 17.36,19.4386719 17.36,19.2992188 L17.36,8.70078125 C17.36,8.56132812 17.22,8.421875 17.08,8.421875 Z" id="↳-💧-Icon-Content" fill="#f3f3f3" fill-rule="nonzero"></path>
    </g>
</svg>