<?xml version="1.0" encoding="UTF-8"?>
<svg width="50px" height="32px" viewBox="0 0 50 32" version="1.1" xmlns="http://www.w3.org/2000/svg" xmlns:xlink="http://www.w3.org/1999/xlink">
    <!-- Generator: Sketch 56.2 (81672) - https://sketch.com -->
    <title>Dropdown/Icons/Bill Me</title>
    <desc>Created with Sketch.</desc>
    <g id="Dropdown/Icons/Bill-Me" stroke="none" stroke-width="1" fill="none" fill-rule="evenodd">
        <path d="M26.31875,20.4162502 L23.7875,19.6625002 C23.4857647,19.5569382 23.2875694,19.2676187 23.298125,18.9481252 C23.298125,18.5375002 23.59625,18.2056252 23.961875,18.2056252 L25.5425,18.2056252 C25.80125,18.2056252 26.04875,18.2787502 26.268125,18.4137502 C26.448125,18.5262502 26.67875,18.5262502 26.830625,18.3743752 L27.494375,17.7443752 C27.5917585,17.6548106 27.644792,17.5269281 27.6393741,17.3947313 C27.6339562,17.2625344 27.5706359,17.1394205 27.46625,17.0581252 C26.9536043,16.6757023 26.3387743,16.4544418 25.7,16.4225002 L25.7,15.0500002 C25.7,14.801472 25.4985281,14.6000002 25.25,14.6000002 L24.35,14.6000002 C24.1014719,14.6000002 23.9,14.801472 23.9,15.0500002 L23.9,16.4056252 C22.5462859,16.4603285 21.4817975,17.5821546 21.498125,18.9368752 C21.498125,20.0618752 22.229375,21.0687502 23.275625,21.3837502 L25.806875,22.1431252 C26.110836,22.2467271 26.3116351,22.5365167 26.301875,22.8575002 C26.301875,23.2681252 26.00375,23.6000002 25.638125,23.6000002 L24.0575,23.6000002 C23.8007551,23.6010374 23.5490381,23.5288395 23.331875,23.3918752 C23.151875,23.2793752 22.92125,23.2793752 22.769375,23.4312502 L22.1,24.0612502 C22.0026165,24.1508148 21.949583,24.2786973 21.9550009,24.4108941 C21.9604188,24.5430909 22.0237391,24.6662048 22.128125,24.7475002 C22.64,25.1300002 23.25875,25.3493752 23.894375,25.3831252 L23.894375,26.7500002 C23.894375,26.9985283 24.0958469,27.2000002 24.344375,27.2000002 L25.244375,27.2000002 C25.4929031,27.2000002 25.694375,26.9985283 25.694375,26.7500002 L25.694375,25.3943752 C27.0480891,25.3396719 28.1125775,24.2178457 28.09625,22.8631252 C28.09625,21.7381252 27.365,20.7312502 26.31875,20.4162502 L26.31875,20.4162502 Z M18.05,7.40000019 L24.35,7.40000019 C24.5985281,7.40000019 24.8,7.19852832 24.8,6.95000019 L24.8,6.05000019 C24.8,5.80147205 24.5985281,5.60000019 24.35,5.60000019 L18.05,5.60000019 C17.8014719,5.60000019 17.6,5.80147205 17.6,6.05000019 L17.6,6.95000019 C17.6,7.19852832 17.8014719,7.40000019 18.05,7.40000019 Z M24.8,10.5500002 L24.8,9.65000019 C24.8,9.40147205 24.5985281,9.20000019 24.35,9.20000019 L18.05,9.20000019 C17.8014719,9.20000019 17.6,9.40147205 17.6,9.65000019 L17.6,10.5500002 C17.6,10.7985283 17.8014719,11.0000002 18.05,11.0000002 L24.35,11.0000002 C24.5985281,11.0000002 24.8,10.7985283 24.8,10.5500002 Z M34.806875,7.51250019 L30.0875,2.78750019 C29.5811775,2.28293264 28.8954332,2 28.180625,2 L16.7,2 C15.209375,2.00562519 14,3.21500019 14,4.70000019 L14,28.1000002 C14,29.591169 15.2088312,30.8000002 16.7,30.8000002 L32.9,30.8000002 C34.3911688,30.8000002 35.6,29.591169 35.6,28.1000002 L35.6,9.42500019 C35.6,8.71062519 35.313125,8.01875019 34.806875,7.51250019 Z M28.4,3.83375019 C28.5575,3.87312519 28.698125,3.94625019 28.81625,4.07000019 L33.54125,8.78937519 C33.65375,8.90187519 33.7325,9.04812519 33.771875,9.20562519 L28.4,9.20562519 L28.4,3.83375019 Z M33.8,28.1000002 C33.8,28.5970565 33.3970563,29.0000002 32.9,29.0000002 L16.7,29.0000002 C16.2029437,29.0000002 15.8,28.5970565 15.8,28.1000002 L15.8,4.70000019 C15.8,4.21062519 16.205,3.80000019 16.7,3.80000019 L26.6,3.80000019 L26.6,9.65000019 C26.6,10.4037502 27.201875,11.0000002 27.95,11.0000002 L33.8,11.0000002 L33.8,28.1000002 Z" id="↳-💧-Icon-Content" fill="#000000" fill-rule="nonzero"></path>
    </g>
</svg>