<svg width="308" height="56" viewBox="0 0 308 56" fill="none" xmlns="http://www.w3.org/2000/svg">
<path d="M17.1991 23.1162H20.6273C20.7516 23.1162 20.8558 23.0111 20.8558 22.8877V13.9745C20.8558 13.4699 21.2663 13.0604 21.77 13.0604H23.4429L14.0151 4.89411L4.55802 13.0604H6.22912C6.73374 13.0604 7.14329 13.4699 7.14329 13.9745V22.8877C7.14329 23.0111 7.24842 23.1162 7.37183 23.1162H10.8V17.4027C10.8 16.7728 11.3128 16.26 11.9427 16.26H16.0564C16.6863 16.26 17.1991 16.7728 17.1991 17.4027V23.1162ZM20.6273 24.4875H16.7421C16.2374 24.4875 15.8279 24.0779 15.8279 23.5733V17.9493C15.8279 17.7738 15.6853 17.6312 15.5098 17.6312H12.4893C12.3138 17.6312 12.1712 17.7738 12.1712 17.9493V23.5733C12.1712 24.0779 11.7617 24.4875 11.257 24.4875H7.37183C6.48874 24.4875 5.77203 23.7708 5.77203 22.8877V14.4316H4.00677C3.54786 14.4316 3.10175 14.1903 2.90886 13.7734C2.69129 13.3035 2.80739 12.7669 3.18951 12.4305L13.0863 3.85744C13.3121 3.64078 13.6412 3.50549 13.9895 3.5C14.3579 3.50549 14.6879 3.64078 14.9384 3.88029L24.8059 12.4269C24.8078 12.4287 24.8087 12.4296 24.8096 12.4305C25.1926 12.7669 25.3087 13.3035 25.0912 13.7734C24.8974 14.1903 24.4522 14.4316 23.9923 14.4316H22.2271V22.8877C22.2271 23.7708 21.5113 24.4875 20.6273 24.4875Z" fill="black" fill-opacity="0.6"/>
<path fill-rule="evenodd" clip-rule="evenodd" d="M44.5898 7.89981C46.6653 8.36149 48.1359 9.48797 48.9379 11.2628C49.7738 13.1126 50.3665 16.7873 50.7484 22.3532C50.7668 22.6212 50.6302 22.876 50.3968 23.0091C47.8358 24.4699 45.0329 25.2011 42 25.2011C38.9672 25.2011 36.1642 24.4699 33.6032 23.0091C33.3719 22.8772 33.2355 22.6255 33.2512 22.3598C33.5808 16.7874 34.1745 13.1063 35.0693 11.2475C35.9171 9.48603 37.3832 8.36487 39.4107 7.90274C39.2397 7.17423 39.0701 6.61284 38.9054 6.22407C38.6897 5.71464 38.2402 4.92806 37.5625 3.88162C37.2219 3.35581 37.6906 2.68171 38.3021 2.81781C39.9632 3.18755 41.2025 3.37099 42 3.37099C42.7976 3.37099 44.0368 3.18755 45.6979 2.81781C46.3095 2.68169 46.7782 3.35599 46.4374 3.88178C45.7605 4.92634 45.3111 5.7128 45.0946 6.22407C44.9296 6.61359 44.7602 7.17396 44.5898 7.89981ZM40.9062 17.2375L42.7437 17.7188C42.9187 17.7625 43.05 17.9375 43.05 18.0688C43.05 18.2875 42.875 18.4625 42.6125 18.4625H41.475C41.2562 18.4625 41.0812 18.4188 40.95 18.3313C40.8187 18.2875 40.6437 18.2875 40.5562 18.375L40.0312 18.9438C39.8562 19.075 39.9 19.3375 40.075 19.425C40.425 19.6875 40.8625 19.8188 41.3 19.8625V20.3C41.3 20.475 41.475 20.65 41.65 20.65H42.35C42.525 20.65 42.7 20.475 42.7 20.3V19.8625C43.6625 19.8188 44.45 19.0313 44.45 18.0688C44.45 17.2813 43.8812 16.5813 43.0937 16.3625L41.2562 15.8813C41.0812 15.8375 40.95 15.6625 40.95 15.5313C40.95 15.3125 41.125 15.1375 41.3875 15.1375H42.525C42.7437 15.1375 42.9187 15.1813 43.05 15.2688C43.1812 15.3125 43.3562 15.3125 43.4437 15.225L43.9687 14.6563C44.1437 14.525 44.1 14.2625 43.925 14.175C43.575 13.9125 43.1375 13.7813 42.7 13.7375V13.3C42.7 13.125 42.525 12.95 42.35 12.95H41.65C41.475 12.95 41.3 13.125 41.3 13.3V13.7375C40.3375 13.7813 39.55 14.5688 39.55 15.5313C39.55 16.3188 40.1187 17.0188 40.9062 17.2375ZM49.3204 22.0044C47.0773 23.2027 44.6406 23.8011 42 23.8011C39.3579 23.8011 36.9199 23.202 34.6757 22.0023C34.9995 16.8545 35.5625 13.4508 36.3308 11.8547C37.0676 10.324 38.3803 9.43209 40.3484 9.15284C40.7484 9.09608 41.0175 8.7134 40.9355 8.31777C40.6956 7.15975 40.4512 6.28389 40.1946 5.67812C40.0591 5.35801 39.8586 4.96844 39.5924 4.50679C40.5813 4.68264 41.3818 4.771 42 4.771C42.6182 4.771 43.4187 4.68265 44.4074 4.50683C44.1417 4.96779 43.9413 5.35737 43.8055 5.67812C43.5481 6.28577 43.3037 7.16177 43.0645 8.31801C42.9826 8.71433 43.2528 9.09739 43.6537 9.15312C45.6693 9.43335 46.9761 10.3212 47.6621 11.8394C48.3864 13.4421 48.9491 16.8507 49.3204 22.0044Z" fill="black" fill-opacity="0.6"/>
<path fill-rule="evenodd" clip-rule="evenodd" d="M72.2615 11.2001H67.7383C66.6678 11.2001 65.7999 12.0955 65.7999 13.2001V23.2C65.7999 24.3046 66.6678 25.2001 67.7383 25.2001H72.2615C73.332 25.2001 74.1999 24.3046 74.1999 23.2V13.2001C74.1999 12.0955 73.332 11.2001 72.2615 11.2001ZM72.1777 12.6C72.5213 12.6 72.7999 12.895 72.7999 13.2589V23.1412C72.7999 23.5051 72.5213 23.8 72.1777 23.8H67.8221C67.4785 23.8 67.1999 23.5051 67.1999 23.1412V13.2589C67.1999 12.895 67.4785 12.6 67.8221 12.6H72.1777ZM70 5.97922C71.8708 5.97922 73.4653 6.45537 74.7797 7.25133C75.581 7.73658 76.1179 8.23113 76.4021 8.58529C76.6542 8.89935 76.604 9.35829 76.2899 9.61036C75.9759 9.86244 75.5169 9.8122 75.2648 9.49814L75.1938 9.41815C75.1447 9.36599 75.0751 9.29645 74.9849 9.21343C74.7227 8.97189 74.4026 8.72786 74.0243 8.49877C72.9305 7.8364 71.5948 7.43755 70 7.43755C68.3991 7.43755 67.0008 7.8401 65.81 8.51045C65.3958 8.74363 65.0383 8.99246 64.7395 9.23929L64.5621 9.39153C64.4885 9.45754 64.4375 9.50754 64.4096 9.5376C64.1358 9.83284 63.6744 9.85017 63.3792 9.5763C63.0839 9.30243 63.0666 8.84108 63.3405 8.54583C63.6592 8.20217 64.2462 7.71729 65.0946 7.23965C66.4943 6.45166 68.1355 5.97922 70 5.97922ZM70 2.80005C72.797 2.80005 75.1786 3.49318 77.1438 4.65097C78.3362 5.35349 79.132 6.06543 79.545 6.56417C79.8018 6.87435 79.7586 7.334 79.4484 7.59084C79.1382 7.84767 78.6786 7.80443 78.4218 7.49426C78.3536 7.41193 78.1963 7.24673 77.9493 7.02578C77.5255 6.64665 77.0105 6.26503 76.4035 5.90746C74.6558 4.87775 72.5276 4.25838 70 4.25838C67.4725 4.25838 65.3443 4.87776 63.5964 5.90746C62.9895 6.26504 62.4744 6.64666 62.0506 7.02579C61.8036 7.24674 61.6463 7.41195 61.5781 7.49428C61.3212 7.80444 60.8616 7.84767 60.5514 7.59082C60.2412 7.33397 60.198 6.87432 60.4549 6.56415C60.8679 6.06541 61.6637 5.35348 62.8562 4.65097C64.8214 3.49317 67.2031 2.80005 70 2.80005Z" fill="black" fill-opacity="0.6"/>
<path fill-rule="evenodd" clip-rule="evenodd" d="M103.6 8.40005C103.6 5.30725 100.916 2.80005 98 2.80005C95.0845 2.80005 92.4 5.30725 92.4 8.40005H89.6C88.8268 8.40005 88.2 9.02685 88.2 9.80005V21.7C88.2 23.625 89.775 25.2 91.7 25.2H104.3C106.225 25.2 107.8 23.625 107.8 21.7V9.80005C107.8 9.02685 107.173 8.40005 106.4 8.40005H103.6ZM98 4.20454C100.921 4.20454 102.2 6.47505 102.2 8.40005H93.8C93.8 6.47505 95.0794 4.20454 98 4.20454ZM92.05 23.8002H103.95C105.303 23.8002 106.4 22.7033 106.4 21.3502V10.5007C106.4 10.1141 106.087 9.80069 105.7 9.80069H103.6V12.3473C103.6 13.0862 103.367 13.4556 102.9 13.4556C102.433 13.4556 102.2 13.0862 102.2 12.3473V9.80069H93.8V12.3473C93.8 13.0862 93.5667 13.4556 93.1 13.4556C92.6334 13.4556 92.4 13.0862 92.4 12.3473V9.80069H90.3C89.9134 9.80069 89.6 10.1141 89.6 10.5007V21.3502C89.6 22.7033 90.6969 23.8002 92.05 23.8002Z" fill="black" fill-opacity="0.6"/>
<path fill-rule="evenodd" clip-rule="evenodd" d="M135.8 24.325V25.2H116.2V24.325C116.2 24.0351 116.435 23.8 116.725 23.8H117.6V3.85005C117.6 3.27014 118.07 2.80005 118.65 2.80005H133.35C133.93 2.80005 134.4 3.27014 134.4 3.85005V23.8H135.275C135.565 23.8 135.8 24.0351 135.8 24.325ZM124.6 9.2313V7.4813C124.6 7.19137 124.365 6.9563 124.075 6.9563H122.325C122.035 6.9563 121.8 7.19137 121.8 7.4813V9.2313C121.8 9.52123 122.035 9.7563 122.325 9.7563H124.075C124.365 9.7563 124.6 9.52123 124.6 9.2313ZM127.925 6.9563H129.675C129.965 6.9563 130.2 7.19137 130.2 7.4813V9.2313C130.2 9.52123 129.965 9.7563 129.675 9.7563H127.925C127.635 9.7563 127.4 9.52123 127.4 9.2313V7.4813C127.4 7.19137 127.635 6.9563 127.925 6.9563ZM124.075 11.1563H122.325C122.035 11.1563 121.8 11.3914 121.8 11.6813V13.4313C121.8 13.7212 122.035 13.9563 122.325 13.9563H124.075C124.365 13.9563 124.6 13.7212 124.6 13.4313V11.6813C124.6 11.3914 124.365 11.1563 124.075 11.1563ZM127.925 11.1563H129.675C129.965 11.1563 130.2 11.3914 130.2 11.6813V13.4313C130.2 13.7212 129.965 13.9563 129.675 13.9563H127.925C127.635 13.9563 127.4 13.7212 127.4 13.4313V11.6813C127.4 11.3914 127.635 11.1563 127.925 11.1563ZM124.075 15.3563H122.325C122.035 15.3563 121.8 15.5914 121.8 15.8813V17.6313C121.8 17.9212 122.035 18.1563 122.325 18.1563H124.075C124.365 18.1563 124.6 17.9212 124.6 17.6313V15.8813C124.6 15.5914 124.365 15.3563 124.075 15.3563ZM127.925 15.3563H129.675C129.965 15.3563 130.2 15.5914 130.2 15.8813V17.6313C130.2 17.9212 129.965 18.1563 129.675 18.1563H127.925C127.635 18.1563 127.4 17.9212 127.4 17.6313V15.8813C127.4 15.5914 127.635 15.3563 127.925 15.3563ZM133 4.20005V23.8001H127.4V20.0813C127.4 19.7914 127.165 19.5563 126.875 19.5563H125.125C124.835 19.5563 124.6 19.7914 124.6 20.0813V23.8001H119V4.20005H133Z" fill="black" fill-opacity="0.6"/>
<path fill-rule="evenodd" clip-rule="evenodd" d="M160.222 4.49248V6.51865H164.733C164.99 6.51865 165.2 6.72906 165.2 6.98623V9.38647C165.2 11.8023 162.556 14.6233 158.951 15.1572C157.807 17.5223 156.088 18.6757 154.622 18.9329V22.728H157.967C158.527 22.728 158.978 23.1839 158.978 23.745C158.978 23.8736 158.873 23.9749 158.744 23.9749H149.256C149.127 23.9749 149.022 23.8736 149.022 23.745C149.022 23.1839 149.473 22.728 150.033 22.728H153.378V18.9329C151.916 18.6757 150.193 17.5223 149.049 15.1572C145.448 14.6233 142.8 11.8062 142.8 9.38647V6.98623C142.8 6.72906 143.01 6.51865 143.267 6.51865H147.778V4.49248C147.778 4.23531 147.988 4.0249 148.244 4.0249H159.756C160.012 4.0249 160.222 4.23531 160.222 4.49248ZM144.044 7.76553V9.38647C144.044 10.9606 145.829 13.0842 148.497 13.7739C148.05 12.3984 147.778 10.7191 147.778 8.70068V7.76553H144.044ZM154 17.7405C151.2 17.7405 149.022 13.6882 149.022 8.70068V5.27178H158.978V8.70068C158.978 13.6882 156.8 17.7405 154 17.7405ZM159.503 13.7739C162.167 13.0842 163.956 10.9606 163.956 9.38647V7.76553H160.222V8.70068C160.222 10.7191 159.95 12.3984 159.503 13.7739Z" fill="black" fill-opacity="0.6"/>
<path fill-rule="evenodd" clip-rule="evenodd" d="M170.8 11.8967C170.8 8.10495 174.385 5.07495 178.763 5.07495C181.605 5.07495 184.196 6.36075 185.622 8.42725C185.817 8.70985 185.744 9.0959 185.46 9.28951C185.175 9.48313 184.786 9.411 184.591 9.1284C183.405 7.40811 181.203 6.31547 178.763 6.31547C175.034 6.31547 172.049 8.83848 172.049 11.8967C172.049 13.5006 172.871 15.0023 174.294 16.0598C174.615 16.2977 174.673 16.6184 174.645 17.0848C174.631 17.3148 174.602 17.5102 174.521 17.982L174.519 17.9953C174.5 18.1043 174.484 18.198 174.471 18.2799C174.561 18.212 174.669 18.1292 174.805 18.0245C175.927 17.1568 176.106 17.0419 176.604 17.1827C176.659 17.198 176.819 17.245 176.972 17.29C177.1 17.3277 177.224 17.3641 177.277 17.3793C177.376 17.4077 177.467 17.433 177.553 17.4563C177.89 17.5472 178.151 17.6031 178.326 17.6201C178.669 17.6533 178.921 17.9567 178.887 18.2976C178.854 18.6386 178.548 18.888 178.205 18.8548C177.943 18.8294 177.626 18.7612 177.226 18.6534C177.133 18.6283 177.036 18.6012 176.931 18.5711C176.872 18.5542 176.739 18.5151 176.605 18.4759L176.397 18.415C176.361 18.4344 176.315 18.4612 176.263 18.4951C176.101 18.5994 175.943 18.7169 175.572 19.0033C175.156 19.3248 174.978 19.4573 174.767 19.5904C174.33 19.8668 174.027 19.9772 173.653 19.8001C173.232 19.6003 173.141 19.239 173.163 18.7313C173.173 18.4891 173.205 18.27 173.287 17.7875L173.289 17.7742C173.362 17.3515 173.388 17.1774 173.398 17.0097C173.399 16.9849 173.4 16.9623 173.401 16.9423C171.762 15.664 170.8 13.8509 170.8 11.8967ZM185.76 16.2036C185.76 16.7652 185.301 17.2205 184.736 17.2205C184.17 17.2205 183.712 16.7652 183.712 16.2036C183.712 15.6419 184.17 15.1866 184.736 15.1866C185.301 15.1866 185.76 15.6419 185.76 16.2036ZM189.173 16.2036C189.173 16.7652 188.714 17.2205 188.149 17.2205C187.583 17.2205 187.125 16.7652 187.125 16.2036C187.125 15.6419 187.583 15.1866 188.149 15.1866C188.714 15.1866 189.173 15.6419 189.173 16.2036ZM186.442 22.2978C182.728 22.2978 179.684 19.6798 179.684 16.4033C179.684 13.1267 182.728 10.5087 186.442 10.5087C190.156 10.5087 193.2 13.1267 193.2 16.4033C193.2 18.0752 192.399 19.6281 191.033 20.731C191.037 20.8334 191.053 20.9557 191.094 21.2226L191.095 21.2296C191.149 21.585 191.168 21.7439 191.17 21.9311C191.174 22.34 191.077 22.656 190.709 22.8377C190.387 22.997 190.123 22.9241 189.759 22.732C189.592 22.6438 189.452 22.5555 189.135 22.3455L189.133 22.3441C188.857 22.1618 188.742 22.0882 188.626 22.0254C188.607 22.0152 188.589 22.0063 188.574 21.9988C187.892 22.1961 187.175 22.2978 186.442 22.2978ZM189.804 20.7425C189.793 20.3706 189.857 20.0915 190.136 19.8791C191.301 18.9937 191.971 17.741 191.971 16.4033C191.971 13.8428 189.514 11.729 186.442 11.729C183.37 11.729 180.913 13.8428 180.913 16.4033C180.913 18.9637 183.37 21.0775 186.442 21.0775C187.101 21.0775 187.743 20.98 188.348 20.7919C188.644 20.6997 188.884 20.7755 189.213 20.9537C189.374 21.0406 189.505 21.124 189.814 21.3286L189.816 21.3299L189.873 21.3675C189.826 21.0522 189.809 20.9125 189.804 20.7425ZM175.179 10.9494C174.802 10.9494 174.496 10.6459 174.496 10.2714C174.496 9.89702 174.802 9.59348 175.179 9.59348H179.957C180.334 9.59348 180.64 9.89702 180.64 10.2714C180.64 10.6459 180.334 10.9494 179.957 10.9494H175.179ZM174.496 12.9833C174.496 13.3577 174.802 13.6612 175.179 13.6612H177.568C177.945 13.6612 178.251 13.3577 178.251 12.9833C178.251 12.6088 177.945 12.3053 177.568 12.3053H175.179C174.802 12.3053 174.496 12.6088 174.496 12.9833Z" fill="black" fill-opacity="0.6"/>
<path fill-rule="evenodd" clip-rule="evenodd" d="M220.344 5.28916L220.578 5.25012C220.889 5.25012 221.2 5.52343 221.2 5.87483V19.3842C221.205 19.8981 220.897 20.3628 220.422 20.5555L214.511 22.6249C214.006 22.7917 213.461 22.7917 212.955 22.6249L206.267 20.2431L199.656 22.7029C199.463 22.7813 199.244 22.7577 199.072 22.64C198.9 22.5223 198.798 22.3262 198.8 22.1173V8.60793C198.795 8.09405 199.103 7.62929 199.578 7.4366L205.489 5.36725C205.722 5.28916 205.994 5.25012 206.267 5.25012C206.53 5.24753 206.793 5.28707 207.044 5.36725L213.733 7.74896L220.344 5.28916ZM205.644 6.65572L200.006 8.60793L200.044 21.2193L205.644 19.1499V6.65572ZM206.889 19.1499V6.65572L213.111 8.8422V21.3364L206.889 19.1499ZM214.356 8.8422V21.3364L219.994 19.3842L219.955 6.77285L214.356 8.8422Z" fill="black" fill-opacity="0.6"/>
<path fill-rule="evenodd" clip-rule="evenodd" d="M241.251 3.19555C242.925 3.69284 244.458 4.57642 245.728 5.77505C245.904 5.94444 246.019 6.16836 246.054 6.41084C246.088 6.65332 246.04 6.90028 245.917 7.11205L245.059 8.59605C245.504 9.18638 245.872 9.83088 246.155 10.5141L247.852 10.5071C248.356 10.5036 248.79 10.8466 248.902 11.3366C249.305 13.0516 249.298 14.8366 248.885 16.5551C248.827 16.7926 248.692 17.0042 248.501 17.1559C248.309 17.3075 248.072 17.3905 247.828 17.3916L246.127 17.3986C245.836 18.0846 245.462 18.7286 245.014 19.3236L245.857 20.8006L245.892 20.8601C246.102 21.2801 246.011 21.8015 245.665 22.1306C244.386 23.3489 242.84 24.2504 241.15 24.7626C240.917 24.8339 240.667 24.8243 240.441 24.7353C240.215 24.6463 240.025 24.4832 239.904 24.2726L239.064 22.7956C238.329 22.8936 237.587 22.8971 236.855 22.8061L235.998 24.2866C235.876 24.4996 235.686 24.6654 235.459 24.7575C235.232 24.8496 234.98 24.8624 234.745 24.7941C233.07 24.2947 231.537 23.4087 230.268 22.2076C230.091 22.0382 229.976 21.8142 229.942 21.5718C229.908 21.3293 229.956 21.0823 230.079 20.8706L230.937 19.3901C230.492 18.7997 230.124 18.1552 229.841 17.4721L228.144 17.4791C227.9 17.4797 227.664 17.3977 227.473 17.2463C227.282 17.095 227.148 16.8833 227.094 16.6461C226.691 14.9311 226.698 13.1461 227.111 11.4276C227.169 11.1906 227.304 10.9798 227.496 10.8289C227.688 10.6779 227.924 10.5954 228.168 10.5946L229.869 10.5841C230.16 9.89805 230.534 9.25405 230.982 8.65905L230.139 7.18205C230.018 6.97063 229.971 6.72491 230.006 6.48393C230.041 6.24296 230.155 6.02055 230.331 5.85205C231.611 4.63312 233.158 3.7316 234.85 3.22005C235.083 3.14897 235.333 3.15909 235.559 3.24875C235.785 3.33841 235.975 3.50229 236.096 3.71355L236.936 5.18705C237.671 5.08905 238.413 5.08555 239.144 5.17655L240.002 3.69605C240.124 3.48505 240.314 3.32111 240.54 3.2304C240.767 3.13969 241.017 3.12742 241.251 3.19555ZM241.101 4.67255L239.883 6.77955C238.283 6.48555 237.779 6.48905 236.176 6.79705L234.979 4.69705C233.708 5.12449 232.537 5.80691 231.539 6.70255L232.736 8.80255C231.742 9.97155 231.458 10.4336 230.972 11.7566L230.87 12.0331L228.455 12.0436C228.179 13.3596 228.175 14.7141 228.441 16.0266L230.856 16.0161C231.364 17.4721 231.619 17.9481 232.508 19.0121L232.694 19.2326L231.476 21.3396C232.469 22.2257 233.634 22.8977 234.899 23.3136L236.117 21.2066C237.622 21.4831 238.164 21.4901 239.498 21.2521L239.82 21.1891L241.02 23.2891L241.22 23.2191C242.41 22.7886 243.512 22.1341 244.461 21.2836L243.26 19.1836C244.254 18.0146 244.541 17.5561 245.028 16.2296L245.129 15.9531L247.544 15.9426C247.817 14.6336 247.824 13.2756 247.558 11.9596L245.143 11.9736C244.639 10.5281 244.391 10.0521 243.495 8.97755L243.306 8.75355L244.52 6.65005C243.528 5.76389 242.364 5.09188 241.101 4.67605V4.67255ZM234.255 11.8301C234.827 10.8304 235.773 10.0987 236.885 9.79559C237.996 9.49245 239.183 9.64258 240.184 10.2131C242.249 11.4031 242.949 14.0701 241.745 16.1561C241.172 17.1563 240.227 17.8887 239.115 18.1925C238.004 18.4963 236.817 18.3467 235.816 17.7766C234.821 17.1944 234.098 16.2412 233.805 15.1263C233.512 14.0113 233.674 12.8258 234.255 11.8301ZM235.504 12.5511C235.118 13.2146 235.011 14.0042 235.205 14.7468C235.4 15.4894 235.881 16.1245 236.544 16.5131C237.919 17.3111 239.694 16.8281 240.499 15.4351C240.885 14.7711 240.991 13.9812 240.796 13.2385C240.6 12.4958 240.118 11.861 239.456 11.4731C238.788 11.0923 237.997 10.992 237.255 11.1941C236.514 11.3962 235.883 11.8842 235.501 12.5511H235.504Z" fill="black" fill-opacity="0.6"/>
<path fill-rule="evenodd" clip-rule="evenodd" d="M255.675 6.6499C255.192 6.6499 254.8 7.04165 254.8 7.5249C254.8 8.00815 255.192 8.3999 255.675 8.3999H276.325C276.808 8.3999 277.2 8.00815 277.2 7.5249C277.2 7.04165 276.808 6.6499 276.325 6.6499H255.675ZM254.8 13.8249C254.8 13.3417 255.192 12.9499 255.675 12.9499H276.325C276.808 12.9499 277.2 13.3417 277.2 13.8249C277.2 14.3082 276.808 14.6999 276.325 14.6999H255.675C255.192 14.6999 254.8 14.3082 254.8 13.8249ZM254.8 20.4749C254.8 19.9917 255.192 19.5999 255.675 19.5999H276.325C276.808 19.5999 277.2 19.9917 277.2 20.4749C277.2 20.9582 276.808 21.3499 276.325 21.3499H255.675C255.192 21.3499 254.8 20.9582 254.8 20.4749Z" fill="black" fill-opacity="0.6"/>
<path d="M301.35 6.66175C300.895 6.20675 300.16 6.20675 299.705 6.66175L294 12.3551L288.295 6.65009C287.84 6.19509 287.105 6.19509 286.65 6.65009C286.195 7.10509 286.195 7.84009 286.65 8.29509L292.355 14.0001L286.65 19.7051C286.195 20.1601 286.195 20.8951 286.65 21.3501C287.105 21.8051 287.84 21.8051 288.295 21.3501L294 15.6451L299.705 21.3501C300.16 21.8051 300.895 21.8051 301.35 21.3501C301.805 20.8951 301.805 20.1601 301.35 19.7051L295.645 14.0001L301.35 8.29509C301.793 7.85176 301.793 7.10509 301.35 6.66175Z" fill="black" fill-opacity="0.6"/>
<path d="M24.8099 40.4304C24.8089 40.4295 24.808 40.4285 24.8062 40.4267L14.9388 31.8803C14.6874 31.6408 14.3583 31.5055 13.9899 31.5C13.6416 31.5055 13.3125 31.6408 13.0867 31.8574L3.19012 40.4304C2.80708 40.7668 2.69099 41.3034 2.90947 41.7733C3.10236 42.1901 3.54846 42.4315 4.00737 42.4315H5.7726V50.8874C5.7726 51.7705 6.4893 52.4871 7.37237 52.4871H11.2575C11.7621 52.4871 12.1717 52.0776 12.1717 51.573V45.9327C12.1717 45.7654 12.307 45.631 12.4734 45.631H15.5266C15.693 45.631 15.8283 45.7654 15.8283 45.9327V51.573C15.8283 52.0776 16.2378 52.4871 16.7425 52.4871H20.6276C21.5116 52.4871 22.2274 51.7705 22.2274 50.8874V42.4315H23.9926C24.4515 42.4315 24.8976 42.1901 25.0905 41.7733C25.309 41.3034 25.1929 40.7668 24.8099 40.4304Z" fill="#0061F1"/>
<path fill-rule="evenodd" clip-rule="evenodd" d="M48.9379 39.2628C48.1359 37.488 46.6653 36.3615 44.5898 35.8998C44.7602 35.174 44.9296 34.6136 45.0946 34.2241C45.3111 33.7128 45.7605 32.9263 46.4374 31.8818C46.7782 31.356 46.3095 30.6817 45.6979 30.8178C44.0368 31.1876 42.7976 31.371 42 31.371C41.2025 31.371 39.9632 31.1876 38.3021 30.8178C37.6906 30.6817 37.2219 31.3558 37.5625 31.8816C38.2402 32.9281 38.6897 33.7146 38.9054 34.2241C39.0701 34.6128 39.2397 35.1742 39.4107 35.9027C37.3832 36.3649 35.9171 37.486 35.0693 39.2475C34.1745 41.1063 33.5808 44.7874 33.2512 50.3598C33.2355 50.6255 33.3719 50.8772 33.6032 51.0091C36.1642 52.4699 38.9672 53.2011 42 53.2011C45.0329 53.2011 47.8358 52.4699 50.3968 51.0091C50.6302 50.876 50.7668 50.6212 50.7484 50.3532C50.3665 44.7873 49.7738 41.1126 48.9379 39.2628ZM42.7437 45.7188L40.9062 45.2375C40.1187 45.0188 39.55 44.3188 39.55 43.5313C39.55 42.5688 40.3375 41.7813 41.3 41.7375V41.3C41.3 41.125 41.475 40.95 41.65 40.95H42.35C42.525 40.95 42.7 41.125 42.7 41.3V41.7375C43.1375 41.7813 43.575 41.9125 43.925 42.175C44.1 42.2625 44.1437 42.525 43.9687 42.6563L43.4437 43.225C43.3562 43.3125 43.1812 43.3125 43.05 43.2688C42.9187 43.1813 42.7437 43.1375 42.525 43.1375H41.3875C41.125 43.1375 40.95 43.3125 40.95 43.5313C40.95 43.6625 41.0812 43.8375 41.2562 43.8813L43.0937 44.3625C43.8812 44.5813 44.45 45.2813 44.45 46.0688C44.45 47.0313 43.6625 47.8188 42.7 47.8625V48.3C42.7 48.475 42.525 48.65 42.35 48.65H41.65C41.475 48.65 41.3 48.475 41.3 48.3V47.8625C40.8625 47.8188 40.425 47.6875 40.075 47.425C39.9 47.3375 39.8562 47.075 40.0312 46.9438L40.5562 46.375C40.6437 46.2875 40.8187 46.2875 40.95 46.3313C41.0812 46.4188 41.2562 46.4625 41.475 46.4625H42.6125C42.875 46.4625 43.05 46.2875 43.05 46.0688C43.05 45.9375 42.9187 45.7625 42.7437 45.7188Z" fill="#0061F1"/>
<path fill-rule="evenodd" clip-rule="evenodd" d="M72.2615 39.2001H67.7383C66.6678 39.2001 65.7999 40.0955 65.7999 41.2001V51.2C65.7999 52.3046 66.6678 53.2001 67.7383 53.2001H72.2615C73.332 53.2001 74.1999 52.3046 74.1999 51.2V41.2001C74.1999 40.0955 73.332 39.2001 72.2615 39.2001ZM70 33.9792C71.8708 33.9792 73.4653 34.4554 74.7797 35.2513C75.581 35.7366 76.1179 36.2311 76.4021 36.5853C76.6542 36.8993 76.604 37.3583 76.2899 37.6104C75.9759 37.8624 75.5169 37.8122 75.2648 37.4981L75.1938 37.4181C75.1447 37.366 75.0751 37.2965 74.9849 37.2134C74.7227 36.9719 74.4026 36.7279 74.0243 36.4988C72.9305 35.8364 71.5948 35.4375 70 35.4375C68.3991 35.4375 67.0008 35.8401 65.81 36.5104C65.3958 36.7436 65.0383 36.9925 64.7395 37.2393L64.5621 37.3915C64.4885 37.4575 64.4375 37.5075 64.4096 37.5376C64.1358 37.8328 63.6744 37.8502 63.3792 37.5763C63.0839 37.3024 63.0666 36.8411 63.3405 36.5458C63.6592 36.2022 64.2462 35.7173 65.0946 35.2397C66.4943 34.4517 68.1355 33.9792 70 33.9792ZM70 30.8C72.797 30.8 75.1786 31.4932 77.1438 32.651C78.3362 33.3535 79.132 34.0654 79.545 34.5642C79.8018 34.8743 79.7586 35.334 79.4484 35.5908C79.1382 35.8477 78.6786 35.8044 78.4218 35.4943C78.3536 35.4119 78.1963 35.2467 77.9493 35.0258C77.5255 34.6466 77.0105 34.265 76.4035 33.9075C74.6558 32.8778 72.5276 32.2584 70 32.2584C67.4725 32.2584 65.3443 32.8778 63.5964 33.9075C62.9895 34.265 62.4744 34.6467 62.0506 35.0258C61.8036 35.2467 61.6463 35.4119 61.5781 35.4943C61.3212 35.8044 60.8616 35.8477 60.5514 35.5908C60.2412 35.334 60.198 34.8743 60.4549 34.5642C60.8679 34.0654 61.6637 33.3535 62.8562 32.651C64.8214 31.4932 67.2031 30.8 70 30.8Z" fill="#0061F1"/>
<path fill-rule="evenodd" clip-rule="evenodd" d="M98.0001 30.8C100.881 30.8 103.536 33.2479 103.599 36.2898L103.6 36.4H106.4C106.759 36.4 107.105 36.5381 107.365 36.7857C107.625 37.0332 107.78 37.3713 107.798 37.73L107.8 37.8V49.7001C107.8 51.5925 106.278 53.1465 104.398 53.1987L104.3 53.2001H91.7001C89.8077 53.2001 88.2537 51.6779 88.2015 49.7977L88.2001 49.7001V37.8C88.2001 37.4409 88.3382 37.0954 88.5857 36.8352C88.8333 36.5749 89.1714 36.4198 89.5301 36.4018L89.6001 36.4H92.4001C92.4001 33.3071 95.0846 30.8 98.0001 30.8ZM93.1001 37.8C92.9145 37.8 92.7364 37.8738 92.6052 38.0051C92.4739 38.1364 92.4001 38.3144 92.4001 38.5C92.4001 38.6857 92.4739 38.8637 92.6052 38.995C92.7364 39.1263 92.9145 39.2 93.1001 39.2C93.2858 39.2 93.4638 39.1263 93.5951 38.995C93.7264 38.8637 93.8001 38.6857 93.8001 38.5C93.8001 38.3144 93.7264 38.1364 93.5951 38.0051C93.4638 37.8738 93.2858 37.8 93.1001 37.8ZM102.9 37.8C102.714 37.8 102.536 37.8738 102.405 38.0051C102.274 38.1364 102.2 38.3144 102.2 38.5C102.2 38.6857 102.274 38.8637 102.405 38.995C102.536 39.1263 102.714 39.2 102.9 39.2C103.086 39.2 103.264 39.1263 103.395 38.995C103.526 38.8637 103.6 38.6857 103.6 38.5C103.6 38.3144 103.526 38.1364 103.395 38.0051C103.264 37.8738 103.086 37.8 102.9 37.8ZM98.0001 32.2046C95.1224 32.2046 93.8383 34.4089 93.8008 36.315L93.8001 36.4H102.2C102.2 34.475 100.921 32.2046 98.0001 32.2046Z" fill="#0061F1"/>
<path fill-rule="evenodd" clip-rule="evenodd" d="M135.8 53.2V52.325C135.8 52.0351 135.565 51.8 135.275 51.8H134.4V31.85C134.4 31.2701 133.93 30.8 133.35 30.8H118.65C118.07 30.8 117.6 31.2701 117.6 31.85V51.8H116.725C116.435 51.8 116.2 52.0351 116.2 52.325V53.2H135.8ZM124.6 37.2313V35.4813C124.6 35.1914 124.365 34.9563 124.075 34.9563H122.325C122.035 34.9563 121.8 35.1914 121.8 35.4813V37.2313C121.8 37.5212 122.035 37.7563 122.325 37.7563H124.075C124.365 37.7563 124.6 37.5212 124.6 37.2313ZM127.925 34.9563H129.675C129.965 34.9563 130.2 35.1914 130.2 35.4813V37.2313C130.2 37.5212 129.965 37.7563 129.675 37.7563H127.925C127.635 37.7563 127.4 37.5212 127.4 37.2313V35.4813C127.4 35.1914 127.635 34.9563 127.925 34.9563ZM124.075 39.1563H122.325C122.035 39.1563 121.8 39.3914 121.8 39.6813V41.4313C121.8 41.7212 122.035 41.9563 122.325 41.9563H124.075C124.365 41.9563 124.6 41.7212 124.6 41.4313V39.6813C124.6 39.3914 124.365 39.1563 124.075 39.1563ZM127.925 39.1563H129.675C129.965 39.1563 130.2 39.3914 130.2 39.6813V41.4313C130.2 41.7212 129.965 41.9563 129.675 41.9563H127.925C127.635 41.9563 127.4 41.7212 127.4 41.4313V39.6813C127.4 39.3914 127.635 39.1563 127.925 39.1563ZM124.075 43.3563H122.325C122.035 43.3563 121.8 43.5914 121.8 43.8813V45.6313C121.8 45.9212 122.035 46.1563 122.325 46.1563H124.075C124.365 46.1563 124.6 45.9212 124.6 45.6313V43.8813C124.6 43.5914 124.365 43.3563 124.075 43.3563ZM127.925 43.3563H129.675C129.965 43.3563 130.2 43.5914 130.2 43.8813V45.6313C130.2 45.9212 129.965 46.1563 129.675 46.1563H127.925C127.635 46.1563 127.4 45.9212 127.4 45.6313V43.8813C127.4 43.5914 127.635 43.3563 127.925 43.3563ZM124.6 48.0784C124.6 47.7884 124.835 47.5534 125.125 47.5534H126.875C127.165 47.5534 127.4 47.7884 127.4 48.0784V51.2867C127.4 51.5767 127.165 51.8117 126.875 51.8117H125.125C124.835 51.8117 124.6 51.5767 124.6 51.2867V48.0784Z" fill="#0061F1"/>
<path fill-rule="evenodd" clip-rule="evenodd" d="M159.752 32.0134C159.875 32.0134 159.994 32.0626 160.082 32.1501C160.169 32.2376 160.218 32.3563 160.218 32.4801V34.5101H164.733C164.857 34.5101 164.976 34.5593 165.063 34.6468C165.151 34.7343 165.2 34.853 165.2 34.9768V37.3918C165.2 39.8068 162.563 42.6184 158.947 43.1551C157.803 45.5234 156.088 46.6784 154.618 46.9351V50.7268H157.967C158.236 50.7268 158.494 50.8337 158.684 51.024C158.875 51.2144 158.982 51.4726 158.982 51.7418C158.982 51.8036 158.957 51.863 158.913 51.9068C158.869 51.9505 158.81 51.9751 158.748 51.9751H149.252C149.19 51.9751 149.13 51.9505 149.087 51.9068C149.043 51.863 149.018 51.8036 149.018 51.7418C149.018 51.1934 149.473 50.7268 150.033 50.7268H153.37V46.9351C151.912 46.6784 150.197 45.5234 149.053 43.1551C145.448 42.6184 142.8 39.8068 142.8 37.3918V34.9884C142.8 34.8647 142.849 34.746 142.937 34.6584C143.024 34.5709 143.143 34.5218 143.267 34.5218H147.782V32.4801C147.782 32.3563 147.831 32.2376 147.918 32.1501C148.006 32.0626 148.124 32.0134 148.248 32.0134H159.752ZM147.782 35.7468H144.048V37.3801C144.048 38.9434 145.833 41.0551 148.493 41.7668C147.993 40.1185 147.753 38.4023 147.782 36.6801V35.7468ZM163.952 35.7351H160.218V36.6684C160.218 38.6984 159.95 40.3784 159.507 41.7551C162.167 41.0551 163.952 38.9318 163.952 37.3684V35.7351Z" fill="#0061F1"/>
<path fill-rule="evenodd" clip-rule="evenodd" d="M186.442 38.5087C190.156 38.5087 193.2 41.1267 193.2 44.4032C193.2 46.075 192.399 47.6279 191.032 48.7308L191.039 48.8217C191.043 48.8662 191.05 48.9179 191.059 48.9827L191.129 49.4628C191.157 49.6661 191.169 49.7906 191.17 49.9309C191.174 50.3399 191.077 50.6559 190.709 50.8376C190.408 50.987 190.156 50.9323 189.826 50.7665L189.759 50.7319C189.631 50.6641 189.518 50.5962 189.329 50.4729L188.86 50.1657C188.784 50.116 188.705 50.0692 188.625 50.0253L188.574 49.9986C187.892 50.1959 187.175 50.2977 186.442 50.2977C182.728 50.2977 179.684 47.6796 179.684 44.4032C179.684 41.1267 182.728 38.5087 186.442 38.5087ZM178.763 33.075C181.327 33.075 183.687 34.1215 185.171 35.8438L185.295 35.9896C185.422 36.1399 185.548 36.2988 185.622 36.4271L185.671 36.5155C185.739 36.6413 185.773 36.7433 185.719 36.8968C185.622 37.2241 185.075 37.2421 184.779 37.3058C181.188 38.0798 178.5 40.949 178.5 44.411C178.5 44.8645 178.546 45.3077 178.635 45.737L178.672 45.8641C178.731 46.0823 178.832 46.5181 178.73 46.6519C178.593 46.8329 178.41 46.8746 178.205 46.8547C177.972 46.8322 177.695 46.7758 177.356 46.6878L177.131 46.6275L176.718 46.509L176.397 46.4148C176.365 46.4326 176.332 46.4513 176.301 46.471L176.198 46.5378L176.094 46.6094C175.984 46.6877 175.849 46.7893 175.644 46.948L175.301 47.2118L175.108 47.356C175.01 47.429 174.909 47.4988 174.806 47.5653L174.767 47.5903C174.33 47.8668 174.027 47.977 173.653 47.8C173.253 47.6102 173.151 47.2747 173.161 46.8064L173.163 46.7312C173.171 46.5399 173.192 46.3632 173.242 46.0595L173.347 45.4254L173.369 45.2797C173.384 45.1708 173.393 45.0895 173.398 45.0096L173.401 44.9422C171.762 43.664 170.8 41.8509 170.8 39.8967C170.8 36.105 174.385 33.075 178.763 33.075ZM184.735 43.1866C184.17 43.1866 183.712 43.6418 183.712 44.2035C183.712 44.7651 184.17 45.2204 184.735 45.2204C185.301 45.2204 185.759 44.7651 185.759 44.2034C185.759 43.6418 185.301 43.1867 184.735 43.1867V43.1866ZM188.148 43.1866C187.583 43.1866 187.125 43.6418 187.125 44.2035C187.125 44.7651 187.583 45.2204 188.148 45.2204C188.714 45.2204 189.172 44.7651 189.172 44.2034C189.172 43.6418 188.714 43.1867 188.148 43.1867V43.1866ZM176.111 40.306H175.173C174.998 40.306 174.83 40.3738 174.704 40.4951C174.578 40.6165 174.504 40.7819 174.497 40.9567C174.49 41.1315 174.551 41.3022 174.667 41.433C174.784 41.5638 174.946 41.6446 175.12 41.6583L175.173 41.6604H176.111C176.287 41.6607 176.455 41.5931 176.581 41.4717C176.708 41.3504 176.782 41.1847 176.789 41.0096C176.796 40.8346 176.735 40.6636 176.618 40.5328C176.502 40.4019 176.339 40.3213 176.164 40.3079L176.111 40.306ZM177.861 37.5935H175.173C174.998 37.5935 174.83 37.6613 174.704 37.7826C174.578 37.904 174.504 38.0694 174.497 38.2442C174.49 38.419 174.551 38.5897 174.667 38.7205C174.784 38.8513 174.946 38.9321 175.12 38.9459L175.173 38.948H177.861C178.037 38.9482 178.205 38.8806 178.331 38.7592C178.458 38.6379 178.532 38.4722 178.539 38.2971C178.546 38.1221 178.485 37.9511 178.368 37.8203C178.252 37.6894 178.089 37.6088 177.914 37.5954L177.861 37.5935Z" fill="#0061F1"/>
<path d="M198.8 36.5961V50.1242C198.8 50.5664 199.244 50.8687 199.653 50.7047L205.022 48.25V33.25L199.582 35.4355C199.351 35.5283 199.153 35.6885 199.014 35.8953C198.875 36.1022 198.8 36.3463 198.8 36.5961V36.5961ZM206.267 48.25L213.733 50.75V35.75L206.267 33.25V48.25ZM220.347 33.2953L214.978 35.75V50.75L220.417 48.5645C220.648 48.4717 220.846 48.3116 220.986 48.1047C221.125 47.8979 221.2 47.6537 221.2 47.4039V33.8758C221.2 33.4336 220.755 33.1313 220.347 33.2953Z" fill="#0061F1"/>
<path fill-rule="evenodd" clip-rule="evenodd" d="M241.251 31.1934C242.925 31.6906 244.458 32.5742 245.728 33.7729C245.904 33.9422 246.019 34.1662 246.054 34.4086C246.088 34.6511 246.04 34.8981 245.917 35.1099L245.059 36.5939C245.504 37.1842 245.872 37.8287 246.155 38.5119L247.852 38.5049C248.356 38.5014 248.79 38.8444 248.902 39.3344C249.305 41.0494 249.298 42.8344 248.885 44.5529C248.827 44.7905 248.692 45.002 248.501 45.1537C248.309 45.3053 248.072 45.3883 247.828 45.3894L246.127 45.3964C245.836 46.0824 245.462 46.7264 245.014 47.3214L245.857 48.7984L245.892 48.8579C246.102 49.2779 246.011 49.7994 245.665 50.1284C244.386 51.3467 242.84 52.2482 241.15 52.7604C240.917 52.8317 240.667 52.8222 240.441 52.7331C240.215 52.6441 240.025 52.481 239.904 52.2704L239.064 50.7934C238.329 50.8914 237.587 50.8949 236.855 50.8039L235.998 52.2844C235.876 52.4974 235.686 52.6632 235.459 52.7553C235.232 52.8474 234.98 52.8602 234.745 52.7919C233.07 52.2925 231.537 51.4065 230.268 50.2054C230.091 50.036 229.976 49.812 229.942 49.5696C229.908 49.3271 229.956 49.0801 230.079 48.8684L230.937 47.3879C230.492 46.7975 230.124 46.153 229.841 45.4699L228.144 45.4769C227.9 45.4775 227.664 45.3955 227.473 45.2441C227.282 45.0928 227.148 44.8811 227.094 44.6439C226.691 42.9289 226.698 41.1439 227.111 39.4254C227.169 39.1884 227.304 38.9776 227.496 38.8267C227.688 38.6757 227.924 38.5932 228.168 38.5924L229.869 38.5819C230.16 37.8959 230.534 37.2519 230.982 36.6569L230.139 35.1799C230.018 34.9684 229.971 34.7227 230.006 34.4817C230.041 34.2408 230.155 34.0184 230.331 33.8499C231.611 32.6309 233.158 31.7294 234.85 31.2179C235.083 31.1468 235.333 31.1569 235.559 31.2465C235.785 31.3362 235.975 31.5001 236.096 31.7114L236.936 33.1849C237.671 33.0869 238.413 33.0834 239.144 33.1744L240.002 31.6939C240.124 31.4828 240.314 31.3189 240.54 31.2282C240.767 31.1375 241.017 31.1252 241.251 31.1934ZM235.504 40.5489C235.118 41.2124 235.011 42.002 235.205 42.7446C235.4 43.4872 235.881 44.1224 236.544 44.5109C237.919 45.3089 239.694 44.8259 240.499 43.4329C240.885 42.7689 240.991 41.979 240.796 41.2363C240.6 40.4937 240.118 39.8588 239.456 39.4709C238.788 39.0901 237.997 38.9898 237.255 39.1919C236.514 39.394 235.883 39.882 235.501 40.5489H235.504Z" fill="#0061F1"/>
<path d="M256.2 34.125C255.427 34.125 254.8 34.7518 254.8 35.525C254.8 36.2982 255.427 36.925 256.2 36.925H275.8C276.573 36.925 277.2 36.2982 277.2 35.525C277.2 34.7518 276.573 34.125 275.8 34.125H256.2Z" fill="#0061F1"/>
<path d="M254.8 41.825C254.8 41.0518 255.427 40.425 256.2 40.425H275.8C276.573 40.425 277.2 41.0518 277.2 41.825C277.2 42.5982 276.573 43.225 275.8 43.225H256.2C255.427 43.225 254.8 42.5982 254.8 41.825Z" fill="#0061F1"/>
<path d="M254.8 48.475C254.8 47.7018 255.427 47.075 256.2 47.075H275.8C276.573 47.075 277.2 47.7018 277.2 48.475C277.2 49.2482 276.573 49.875 275.8 49.875H256.2C255.427 49.875 254.8 49.2482 254.8 48.475Z" fill="#0061F1"/>
</svg>
