<svg width="28" height="28" viewBox="0 0 28 28" xmlns="http://www.w3.org/2000/svg"><path d="M12.6 7.48v1.75c0 .3-.24.53-.53.53h-1.75a.53.53 0 01-.52-.53V7.48c0-.29.24-.52.52-.52h1.75c.3 0 .53.23.53.52zm5.08-.52h-1.75a.53.53 0 00-.53.52v1.75c0 .3.24.53.53.53h1.75c.28 0 .52-.24.52-.53V7.48a.53.53 0 00-.52-.52zm-5.6 4.2h-1.76a.53.53 0 00-.52.52v1.75c0 .3.24.53.52.53h1.75c.3 0 .53-.24.53-.53v-1.75a.53.53 0 00-.53-.52zm5.6 0h-1.75a.53.53 0 00-.53.52v1.75c0 .3.24.53.53.53h1.75c.28 0 .52-.24.52-.53v-1.75a.53.53 0 00-.52-.52zm-5.6 4.2h-1.76a.53.53 0 00-.52.52v1.75c0 .3.24.53.52.53h1.75c.3 0 .53-.24.53-.53v-1.75a.53.53 0 00-.53-.52zm5.6 0h-1.75a.53.53 0 00-.53.52v1.75c0 .3.24.53.53.53h1.75c.28 0 .52-.24.52-.53v-1.75a.53.53 0 00-.52-.52zm6.12 8.96v.88H4.2v-.88c0-.28.24-.52.52-.52h.88V3.85c0-.58.47-1.05 1.05-1.05h14.7c.58 0 1.05.47 1.05 1.05V23.8h.88c.28 0 .52.24.52.52zM21 23.8V4.2H7v19.6h5.6v-3.72c0-.29.24-.52.53-.52h1.74c.3 0 .53.23.53.52v3.72H21z" fill="#8c8c8c" fill-rule="nonzero"/></svg>