<?xml version="1.0" encoding="UTF-8"?>
<svg width="28px" height="28px" viewBox="0 0 28 28" version="1.1" xmlns="http://www.w3.org/2000/svg" xmlns:xlink="http://www.w3.org/1999/xlink">
    <!-- Generator: Sketch 59.1 (86144) - https://sketch.com -->
    <title>🔩 Parts/Icon/Font Awesome/calendar-alt-fill</title>
    <desc>Created with Sketch.</desc>
    <g id="🔩-Parts/Icon/Font-Awesome/calendar-alt-fill" stroke="none" stroke-width="1" fill="none" fill-rule="evenodd">
        <g id="cal-alt-fill" transform="translate(4.200000, 2.800000)" fill="#FFFFFF" fill-rule="nonzero">
            <path d="M0,20.3 C0,21.48125 0.9625,22.4 2.1,22.4 L17.5,22.4 C18.68125,22.4 19.6,21.48125 19.6,20.3 L19.6,8.4 L0,8.4 L0,20.3 Z M14,11.725 C14,11.41875 14.21875,11.2 14.525,11.2 L16.275,11.2 C16.58125,11.2 16.8,11.41875 16.8,11.725 L16.8,13.475 C16.8,13.78125 16.58125,14 16.275,14 L14.525,14 C14.21875,14 14,13.78125 14,13.475 L14,11.725 Z M14,17.325 C14,17.01875 14.21875,16.8 14.525,16.8 L16.275,16.8 C16.58125,16.8 16.8,17.01875 16.8,17.325 L16.8,19.075 C16.8,19.38125 16.58125,19.6 16.275,19.6 L14.525,19.6 C14.21875,19.6 14,19.38125 14,19.075 L14,17.325 Z M8.4,11.725 C8.4,11.41875 8.61875,11.2 8.925,11.2 L10.675,11.2 C10.98125,11.2 11.2,11.41875 11.2,11.725 L11.2,13.475 C11.2,13.78125 10.98125,14 10.675,14 L8.925,14 C8.61875,14 8.4,13.78125 8.4,13.475 L8.4,11.725 Z M8.4,17.325 C8.4,17.01875 8.61875,16.8 8.925,16.8 L10.675,16.8 C10.98125,16.8 11.2,17.01875 11.2,17.325 L11.2,19.075 C11.2,19.38125 10.98125,19.6 10.675,19.6 L8.925,19.6 C8.61875,19.6 8.4,19.38125 8.4,19.075 L8.4,17.325 Z M2.8,11.725 C2.8,11.41875 3.01875,11.2 3.325,11.2 L5.075,11.2 C5.38125,11.2 5.6,11.41875 5.6,11.725 L5.6,13.475 C5.6,13.78125 5.38125,14 5.075,14 L3.325,14 C3.01875,14 2.8,13.78125 2.8,13.475 L2.8,11.725 Z M2.8,17.325 C2.8,17.01875 3.01875,16.8 3.325,16.8 L5.075,16.8 C5.38125,16.8 5.6,17.01875 5.6,17.325 L5.6,19.075 C5.6,19.38125 5.38125,19.6 5.075,19.6 L3.325,19.6 C3.01875,19.6 2.8,19.38125 2.8,19.075 L2.8,17.325 Z M17.5,2.8 L15.4,2.8 L15.4,0.7 C15.4,0.30625 15.09375,0 14.7,0 L13.3,0 C12.90625,0 12.6,0.30625 12.6,0.7 L12.6,2.8 L7,2.8 L7,0.7 C7,0.30625 6.69375,0 6.3,0 L4.9,0 C4.50625,0 4.2,0.30625 4.2,0.7 L4.2,2.8 L2.1,2.8 C0.9625,2.8 0,3.7625 0,4.9 L0,7 L19.6,7 L19.6,4.9 C19.6,3.7625 18.68125,2.8 17.5,2.8 Z" id="Shape"></path>
        </g>
    </g>
</svg>