<svg width="28" height="28" viewBox="0 0 28 28" fill="none" xmlns="http://www.w3.org/2000/svg">
<path fill-rule="evenodd" clip-rule="evenodd" d="M21.7 5.5998H19.6V3.3248C19.6 3.03605 19.3638 2.7998 19.075 2.7998H18.725C18.4363 2.7998 18.2 3.03605 18.2 3.3248V5.5998H9.80001V3.3248C9.80001 3.03605 9.56376 2.7998 9.27501 2.7998H8.92501C8.63626 2.7998 8.40001 3.03605 8.40001 3.3248V5.5998H6.30001C5.14064 5.5998 4.20001 6.54043 4.20001 7.6998V23.0998C4.20001 24.2592 5.14064 25.1998 6.30001 25.1998H21.7C22.8594 25.1998 23.8 24.2592 23.8 23.0998V7.6998C23.8 6.54043 22.8594 5.5998 21.7 5.5998ZM6.30004 6.99981H21.7C22.085 6.99981 22.4 7.31481 22.4 7.69981V9.79981H5.60004V7.69981C5.60004 7.31481 5.91504 6.99981 6.30004 6.99981ZM6.30004 23.7998H21.7C22.085 23.7998 22.4 23.4848 22.4 23.0998V11.1998H5.60004V23.0998C5.60004 23.4848 5.91504 23.7998 6.30004 23.7998ZM10.675 16.7998H8.92503C8.63628 16.7998 8.40003 16.5636 8.40003 16.2748V14.5248C8.40003 14.2361 8.63628 13.9998 8.92503 13.9998H10.675C10.9638 13.9998 11.2 14.2361 11.2 14.5248V16.2748C11.2 16.5636 10.9638 16.7998 10.675 16.7998ZM13.125 16.7998H14.875C15.1638 16.7998 15.4 16.5636 15.4 16.2748V14.5248C15.4 14.2361 15.1638 13.9998 14.875 13.9998H13.125C12.8363 13.9998 12.6 14.2361 12.6 14.5248V16.2748C12.6 16.5636 12.8363 16.7998 13.125 16.7998ZM19.075 16.7998H17.325C17.0362 16.7998 16.8 16.5636 16.8 16.2748V14.5248C16.8 14.2361 17.0362 13.9998 17.325 13.9998H19.075C19.3637 13.9998 19.6 14.2361 19.6 14.5248V16.2748C19.6 16.5636 19.3637 16.7998 19.075 16.7998ZM13.125 20.9998H14.875C15.1638 20.9998 15.4 20.7636 15.4 20.4748V18.7248C15.4 18.4361 15.1638 18.1998 14.875 18.1998H13.125C12.8363 18.1998 12.6 18.4361 12.6 18.7248V20.4748C12.6 20.7636 12.8363 20.9998 13.125 20.9998ZM10.675 20.9998H8.92503C8.63628 20.9998 8.40003 20.7636 8.40003 20.4748V18.7248C8.40003 18.4361 8.63628 18.1998 8.92503 18.1998H10.675C10.9638 18.1998 11.2 18.4361 11.2 18.7248V20.4748C11.2 20.7636 10.9638 20.9998 10.675 20.9998ZM17.325 20.9998H19.075C19.3637 20.9998 19.6 20.7636 19.6 20.4748V18.7248C19.6 18.4361 19.3637 18.1998 19.075 18.1998H17.325C17.0362 18.1998 16.8 18.4361 16.8 18.7248V20.4748C16.8 20.7636 17.0362 20.9998 17.325 20.9998Z" fill="black" fill-opacity="0.87"/>
</svg>
