<svg width="24" height="20" viewBox="0 0 24 20" fill="none" xmlns="http://www.w3.org/2000/svg">
<path fill-rule="evenodd" clip-rule="evenodd" d="M9.25692 0.200012H14.9882C15.7188 0.200012 16.3707 0.650637 16.6244 1.33751L17.25 3.00001H21.1C22.2594 3.00001 23.2 3.94064 23.2 5.10001V17.7C23.2 18.8594 22.2594 19.8 21.1 19.8H2.90005C1.74067 19.8 0.800049 18.8594 0.800049 17.7V5.10001C0.800049 3.94064 1.74067 3.00001 2.90005 3.00001H6.75005L7.29255 1.56064C7.5988 0.742512 8.38192 0.200012 9.25692 0.200012ZM2.90008 0.550012C2.51348 0.550012 2.20008 0.863412 2.20008 1.25001C2.20008 1.63661 2.51348 1.95001 2.90008 1.95001H5.00008C5.38668 1.95001 5.70008 1.63661 5.70008 1.25001C5.70008 0.863412 5.38668 0.550012 5.00008 0.550012H2.90008ZM6.75006 11.4C6.75006 14.2963 9.10382 16.65 12.0001 16.65C14.8963 16.65 17.2501 14.2963 17.2501 11.4C17.2501 8.50376 14.8963 6.15001 12.0001 6.15001C9.10382 6.15001 6.75006 8.50376 6.75006 11.4ZM12 7.55001C9.87814 7.55001 8.15002 9.27814 8.15002 11.4C8.15002 13.5219 9.87814 15.25 12 15.25C14.1219 15.25 15.85 13.5219 15.85 11.4C15.85 9.27814 14.1219 7.55001 12 7.55001ZM12 10C12.77 10 13.4 10.63 13.4 11.4C13.4 11.785 13.715 12.1 14.1 12.1C14.485 12.1 14.8 11.785 14.8 11.4C14.8 9.85564 13.5444 8.60001 12 8.60001C11.615 8.60001 11.3 8.91501 11.3 9.30001C11.3 9.68501 11.615 10 12 10ZM14.9882 1.60001C15.1326 1.60001 15.2638 1.69189 15.3163 1.82751L16.2832 4.40001H21.1001C21.4851 4.40001 21.8001 4.71501 21.8001 5.10001V17.7C21.8001 18.085 21.4851 18.4 21.1001 18.4H2.90008C2.51508 18.4 2.20008 18.085 2.20008 17.7V5.10001C2.20008 4.71501 2.51508 4.40001 2.90008 4.40001H7.72133L8.60071 2.05501C8.70133 1.78376 8.96383 1.60001 9.25696 1.60001H14.9882Z" fill="black" fill-opacity="0.87"/>
</svg>
