<svg width="257" height="143" viewBox="0 0 257 143" fill="none" xmlns="http://www.w3.org/2000/svg">
<g clip-path="url(#clip0)">
<rect width="257" height="143" fill="white"/>
<rect y="35" width="192" height="108" rx="8" fill="#F1F1F1"/>
<path d="M0 43C0 38.5817 3.58172 35 8 35H184C188.418 35 192 38.5817 192 43V53H0V43Z" fill="black" fill-opacity="0.1"/>
<rect x="16" y="69" width="58" height="58" rx="4" fill="black" fill-opacity="0.05"/>
<path d="M45.0008 78.7998C42.1385 78.7998 39.9568 79.7765 38.4383 81.6116C37.0722 83.2626 36.2663 85.5849 36.0008 88.3998C35.7226 91.3503 36.1031 93.5861 37.3133 95.1881C38.7085 97.0346 41.2005 97.9998 45.0008 97.9998C48.7945 97.9998 51.2861 97.0242 52.6828 95.1648C53.8891 93.5583 54.2716 91.3245 54.0008 88.3999C53.7363 85.5428 52.933 83.2184 51.5635 81.5749C50.0509 79.76 47.8719 78.7998 45.0008 78.7998ZM45.0004 100.9C52.1594 100.9 57.1006 104.551 60.1569 110.253C61.9405 113.581 59.3232 117.2 55.518 117.2H34.4827C30.6776 117.2 28.0603 113.581 29.8438 110.253C32.9 104.551 37.8413 100.9 45.0004 100.9Z" fill="black" fill-opacity="0.15"/>
<rect x="90" y="72" width="86" height="12" rx="6" fill="black" fill-opacity="0.05"/>
<rect x="90" y="92" width="86" height="12" rx="6" fill="black" fill-opacity="0.05"/>
<rect x="90" y="112" width="54" height="12" rx="6" fill="black" fill-opacity="0.05"/>
<mask id="mask0" mask-type="alpha" maskUnits="userSpaceOnUse" x="115" y="1" width="98" height="98">
<circle cx="164" cy="50" r="49" fill="white"/>
</mask>
<g mask="url(#mask0)">
<rect x="-44" y="33" width="240" height="135" rx="8" fill="#F1F1F1"/>
<path d="M-44 41C-44 36.5817 -40.4183 33 -36 33H188C192.418 33 196 36.5817 196 41V55.5H-44V41Z" fill="black" fill-opacity="0.1"/>
<rect x="68" y="70" width="107.5" height="15" rx="7.5" fill="black" fill-opacity="0.05"/>
</g>
<path fill-rule="evenodd" clip-rule="evenodd" d="M204.95 79.3292C219.09 59.7675 217.35 32.2829 199.73 14.6631C180.183 -4.88425 148.494 -4.88819 128.952 14.6543C109.409 34.1967 109.413 65.8853 128.96 85.4326C146.58 103.052 174.065 104.793 193.627 90.6523L243.628 140.654C246.756 143.781 251.826 143.782 254.953 140.655C258.079 137.529 258.079 132.458 254.951 129.331L204.95 79.3292ZM194.068 20.3246C210.488 36.7444 210.491 63.3627 194.076 79.7784C177.66 96.1941 151.042 96.1908 134.622 79.771C118.202 63.3513 118.199 36.7329 134.615 20.3172C151.03 3.90157 177.649 3.90488 194.068 20.3246Z" fill="#9E9E9E"/>
</g>
<defs>
<clipPath id="clip0">
<rect width="257" height="143" fill="white"/>
</clipPath>
</defs>
</svg>
