<svg width="24" height="19" viewBox="0 0 24 19" fill="none" xmlns="http://www.w3.org/2000/svg">
<path d="M21.0741 0.666504H2.92597C1.49599 0.666504 0.333374 1.82912 0.333374 3.2591V16.2221C0.333374 17.652 1.49599 18.8147 2.92597 18.8147H21.0741C22.5041 18.8147 23.6667 17.652 23.6667 16.2221V3.2591C23.6667 1.82912 22.5041 0.666504 21.0741 0.666504ZM22.3704 16.2221C22.3704 16.935 21.7871 17.5184 21.0741 17.5184H2.92597C2.213 17.5184 1.62967 16.935 1.62967 16.2221V3.2591C1.62967 2.54613 2.213 1.9628 2.92597 1.9628H21.0741C21.7871 1.9628 22.3704 2.54613 22.3704 3.2591V16.2221ZM19.4537 11.0369H14.9167C14.7385 11.0369 14.5926 11.1827 14.5926 11.3609V12.0091C14.5926 12.1873 14.7385 12.3332 14.9167 12.3332H19.4537C19.632 12.3332 19.7778 12.1873 19.7778 12.0091V11.3609C19.7778 11.1827 19.632 11.0369 19.4537 11.0369ZM19.4537 8.44428H14.9167C14.7385 8.44428 14.5926 8.59011 14.5926 8.76836V9.4165C14.5926 9.59474 14.7385 9.74058 14.9167 9.74058H19.4537C19.632 9.74058 19.7778 9.59474 19.7778 9.4165V8.76836C19.7778 8.59011 19.632 8.44428 19.4537 8.44428ZM19.4537 5.85169H14.9167C14.7385 5.85169 14.5926 5.99752 14.5926 6.17576V6.82391C14.5926 7.00215 14.7385 7.14798 14.9167 7.14798H19.4537C19.632 7.14798 19.7778 7.00215 19.7778 6.82391V6.17576C19.7778 5.99752 19.632 5.85169 19.4537 5.85169ZM8.7593 11.0369C10.5498 11.0369 12 9.58664 12 7.79613C12 6.00562 10.5498 4.55539 8.7593 4.55539C6.96879 4.55539 5.51856 6.00562 5.51856 7.79613C5.51856 9.58664 6.96879 11.0369 8.7593 11.0369ZM8.7593 5.85169C9.8328 5.85169 10.7037 6.72264 10.7037 7.79613C10.7037 8.86963 9.8328 9.74058 8.7593 9.74058C7.6858 9.74058 6.81486 8.86963 6.81486 7.79613C6.81486 6.72264 7.6858 5.85169 8.7593 5.85169ZM10.6551 11.685C9.8652 11.685 9.66671 11.9686 8.7593 11.9686C7.85189 11.9686 7.6534 11.685 6.86347 11.685C6.00467 11.685 5.17018 12.0658 4.68407 12.795C4.3924 13.2284 4.22226 13.751 4.22226 14.3141V15.2498C4.22226 15.4281 4.3681 15.5739 4.54634 15.5739H5.19449C5.37273 15.5739 5.51856 15.4281 5.51856 15.2498V14.3141C5.51856 14.0305 5.60363 13.755 5.76161 13.5201C5.98847 13.1839 6.40166 12.9854 6.86752 12.9854C7.36983 12.9854 7.71011 13.2689 8.76335 13.2689C9.81254 13.2689 10.1528 12.9854 10.6592 12.9854C11.125 12.9854 11.5382 13.1879 11.7651 13.5201C11.9231 13.755 12.0081 14.0305 12.0081 14.3141V15.2498C12.0081 15.4281 12.154 15.5739 12.3322 15.5739H12.9804C13.1586 15.5739 13.3044 15.4281 13.3044 15.2498V14.3141C13.3044 13.751 13.1343 13.2284 12.8426 12.795C12.3444 12.0658 11.5099 11.685 10.6551 11.685Z" fill="black" fill-opacity="0.87"/>
</svg>
