<svg width="24" height="24" viewBox="0 0 24 24" fill="none" xmlns="http://www.w3.org/2000/svg">
<path d="M11.9996 14.185C12.6485 14.185 13.1746 14.7102 13.1746 15.358C13.1746 16.0058 12.6485 16.531 11.9996 16.531C11.3506 16.531 10.8245 16.0058 10.8245 15.358C10.8245 14.7102 11.3506 14.185 11.9996 14.185ZM11.9996 7.14693C12.6458 7.14693 13.1746 7.67478 13.1746 8.31994V11.3991C13.1746 12.0442 12.6458 12.5721 11.9996 12.5721C11.3533 12.5721 10.8245 12.0442 10.8245 11.3991V8.31994C10.8245 7.67478 11.3533 7.14693 11.9996 7.14693ZM13.9992 1.62822L22.3716 10.0007C23.4759 11.1049 23.4759 12.8952 22.3716 13.9994L13.9992 22.3719C12.895 23.4761 11.1046 23.4761 10.0004 22.3719L1.62798 13.9994C0.523747 12.8952 0.523747 11.1049 1.62798 10.0007L10.0004 1.62822C11.1046 0.523991 12.895 0.523991 13.9992 1.62822ZM13.0092 2.61817C12.4703 2.07926 11.6077 2.06129 11.0472 2.56428L10.9904 2.61817L2.61793 10.9906C2.07901 11.5295 2.06105 12.3921 2.56404 12.9526L2.61793 13.0095L10.9904 21.3819C11.5293 21.9208 12.3919 21.9388 12.9524 21.4358L13.0092 21.3819L21.3817 13.0095C21.9206 12.4706 21.9386 11.608 21.4356 11.0475L21.3817 10.9906L13.0092 2.61817Z" fill="#DC2F45"/>
</svg>
