<?xml version="1.0" encoding="UTF-8"?>
<svg width="50px" height="32px" viewBox="0 0 50 32" version="1.1" xmlns="http://www.w3.org/2000/svg" xmlns:xlink="http://www.w3.org/1999/xlink">
    <!-- Generator: Sketch 56.2 (81672) - https://sketch.com -->
    <title>Dropdown/Icons/MasterCard</title>
    <desc>Created with Sketch.</desc>
    <g id="Dropdown/Icons/MasterCard" stroke="none" stroke-width="1" fill="none" fill-rule="evenodd">
        <g id="MasterCard-dark">
            <rect id="Rectangle" fill="#000066" x="0" y="0" width="50" height="32" rx="2.13333333"></rect>
            <path d="M28.6859641,16.4081145 C28.6859641,22.1565175 24.0555392,26.8159 18.3432272,26.8159 C12.6307517,26.8159 8,22.1565175 8,16.4081145 C8,10.659876 12.6307517,6 18.3432272,6 C24.0555392,6 28.6859641,10.659876 28.6859641,16.4081145" id="Fill-333" fill="#CC0000"></path>
            <path d="M32.2292713,6 C29.5561812,6 27.1214039,7.02026793 25.2855137,8.69401392 C24.9120264,9.03514494 24.5633838,9.40357959 24.2415473,9.79586381 L26.3312781,9.79586381 C26.6166648,10.1455478 26.8796587,10.51316 27.1197693,10.8982071 L23.4528926,10.8982071 C23.2335404,11.2520031 23.0341292,11.6196153 22.8569475,12.0005505 L27.7153875,12.0005505 C27.8814545,12.357307 28.0275804,12.7247548 28.1534383,13.1024003 L22.4188968,13.1024003 C22.299577,13.4612952 22.1988907,13.8290719 22.1184725,14.2040857 L28.4535357,14.2040857 C28.6052189,14.9146383 28.6859641,15.6518366 28.6859641,16.4081145 C28.6859641,17.5635848 28.4988118,18.6757969 28.1534383,19.7144865 L22.4188968,19.7144865 C22.5447546,20.0918031 22.6908805,20.4597443 22.8566206,20.8169943 L27.7153875,20.8169943 C27.5378789,21.1969426 27.3394485,21.5648838 27.1187886,21.9191732 L23.4528926,21.9191732 C23.6920225,22.3030689 23.9555068,22.6711746 24.2415473,23.0203652 L26.3306243,23.0203652 C26.0094415,23.4129783 25.660472,23.781413 25.2858406,24.122544 C27.1215673,25.79629 29.5561812,26.8159 32.2292713,26.8159 C37.9414198,26.8159 42.5720081,22.1565175 42.5720081,16.4081145 C42.5720081,10.6603694 37.9414198,6 32.2292713,6" id="Fill-334" fill="#FF9900"></path>
            <path d="M15.9279006,17.5476302 C15.8100519,17.5341429 15.7580742,17.5298664 15.6771656,17.5298664 C15.0406845,17.5298664 14.7188479,17.7496114 14.7188479,18.1836734 C14.7188479,18.450953 14.8759251,18.6208606 15.1211027,18.6208606 C15.5786042,18.6208606 15.9082864,18.1826866 15.9279006,17.5476302 L15.9279006,17.5476302 Z M16.744669,19.4606943 L15.8139747,19.4606943 L15.8353869,19.0157765 C15.5516346,19.3671053 15.1729169,19.5348746 14.6585342,19.5348746 C14.0501668,19.5348746 13.6328745,19.0568965 13.6328745,18.3622985 C13.6328745,17.3167007 14.3584368,16.7069742 15.6041027,16.7069742 C15.7317585,16.7069742 15.8948833,16.7188167 16.061931,16.7400346 C16.0965828,16.5982531 16.1057361,16.5380535 16.1057361,16.4615704 C16.1057361,16.1773494 15.9102478,16.0707665 15.3857311,16.0707665 C14.8363698,16.0651742 14.3832815,16.2028437 14.1971099,16.2643592 C14.2088785,16.192975 14.3528795,15.2986985 14.3528795,15.2986985 C14.9122114,15.1332319 15.2812854,15.0713875 15.6966164,15.0713875 C16.6609817,15.0713875 17.1717685,15.5069299 17.1706243,16.3303156 C17.1725857,16.5512119 17.136136,16.8227679 17.0797451,17.1810049 C16.9823279,17.8027383 16.7731096,19.1361757 16.744669,19.4606943 L16.744669,19.4606943 Z" id="Fill-336" fill="#000066"></path>
            <polyline id="Fill-337" fill="#000066" points="13.1629507 19.4606943 12.0398736 19.4606943 12.6835467 15.4026497 11.2469692 19.4606943 10.4818515 19.4606943 10.3872129 15.4253479 9.71117645 19.4606943 8.66018165 19.4606943 9.53808104 14.1813875 11.152821 14.1813875 11.2504017 17.1364308 12.2355254 14.1813875 14.0313699 14.1813875 13.1629507 19.4606943"></polyline>
            <path d="M33.6166498,17.5476302 C33.4988011,17.5341429 33.4474772,17.5298664 33.3667321,17.5298664 C32.7297606,17.5298664 32.408251,17.7496114 32.408251,18.1836734 C32.408251,18.450953 32.5646743,18.6208606 32.8105057,18.6208606 C33.2676803,18.6208606 33.5975259,18.1826866 33.6166498,17.5476302 L33.6166498,17.5476302 Z M34.4339086,19.4606943 L33.5035412,19.4606943 L33.5246265,19.0157765 C33.2408742,19.3671053 32.8623199,19.5348746 32.3482642,19.5348746 C31.7390795,19.5348746 31.3222775,19.0568965 31.3222775,18.3622985 C31.3222775,17.3167007 32.0481667,16.7069742 33.2935057,16.7069742 C33.420998,16.7069742 33.583796,16.7188167 33.7510071,16.7400346 C33.7858224,16.5982531 33.7948122,16.5380535 33.7948122,16.4615704 C33.7948122,16.1773494 33.5993239,16.0707665 33.0748072,16.0707665 C32.5254459,16.0651742 32.072521,16.2028437 31.8856957,16.2643592 C31.898118,16.192975 32.0424459,15.2986985 32.0424459,15.2986985 C32.6014509,15.1332319 32.9708519,15.0713875 33.385529,15.0713875 C34.3505482,15.0713875 34.8606811,15.5069299 34.8597004,16.3303156 C34.8616618,16.5512119 34.825539,16.8227679 34.7688212,17.1810049 C34.6717309,17.8027383 34.4620223,19.1361757 34.4339086,19.4606943 L34.4339086,19.4606943 Z" id="Fill-338" fill="#000066"></path>
            <path d="M21.7348512,19.3953958 C21.4273984,19.4927678 21.1879416,19.5348746 20.9280533,19.5348746 C20.3541742,19.5348746 20.0408372,19.2029545 20.0408372,18.5915832 C20.032828,18.4017736 20.1233803,17.9025775 20.1946453,17.4472976 C20.2596991,17.0461315 20.6817315,14.5174197 20.6817315,14.5174197 L21.7976167,14.5174197 L21.6673456,15.1672792 L22.3415841,15.1672792 L22.1894105,16.1992252 L21.5128837,16.1992252 C21.3832665,17.0155382 21.1984025,18.032681 21.1962776,18.1675544 C21.1962776,18.3889442 21.313636,18.4856583 21.5808796,18.4856583 C21.7088624,18.4856583 21.8079141,18.4724999 21.8835923,18.4451963 L21.7348512,19.3953958" id="Fill-339" fill="#000066"></path>
            <path d="M25.1568772,19.3606906 C24.7734194,19.4786226 24.4038549,19.5361905 24.0117342,19.5348746 C22.7621455,19.5332298 22.1107902,18.8769556 22.1107902,17.6195079 C22.1107902,16.1520195 22.9393272,15.0713875 24.0643656,15.0713875 C24.9844356,15.0713875 25.5723715,15.676344 25.5723715,16.6247343 C25.5723715,16.940042 25.5321624,17.2472902 25.4345817,17.6808588 L23.2119647,17.6808588 C23.1369404,18.3037437 23.5328205,18.5631282 24.1825413,18.5631282 C24.581527,18.5631282 24.9421016,18.4802304 25.3427218,18.293217 L25.1568772,19.3606906 L25.1568772,19.3606906 Z M24.5295493,16.8155308 C24.535924,16.7258894 24.647725,16.0490552 24.0097727,16.0490552 C23.6547555,16.0490552 23.4002611,16.3217626 23.2971231,16.8155308 L24.5295493,16.8155308 L24.5295493,16.8155308 Z" id="Fill-340" fill="#000066"></path>
            <path d="M17.4180903,16.5247306 C17.4180903,17.0673493 17.6796131,17.4418697 18.272943,17.7232946 C18.7275023,17.9385986 18.7982769,18.0022523 18.7982769,18.1971608 C18.7982769,18.4644404 18.5975582,18.5858264 18.1534597,18.5858264 C17.8182202,18.5858264 17.5066811,18.532864 17.1472507,18.4159189 C17.1472507,18.4159189 16.9999807,19.3626643 16.9929522,19.4078963 C17.2481004,19.4634904 17.4756253,19.5153016 18.1614689,19.5348746 C19.3461672,19.5348746 19.8934037,19.0809105 19.8934037,18.0997888 C19.8934037,17.5099644 19.6645712,17.1637345 19.1019703,16.9031985 C18.6313927,16.6859208 18.5769632,16.6372348 18.5769632,16.4368984 C18.5769632,16.2048175 18.7637886,16.0862276 19.126488,16.0862276 C19.3469845,16.0862276 19.6478991,16.1099127 19.9334494,16.1505392 L20.0931417,15.1547787 C19.8025245,15.108231 19.3615317,15.0713875 19.1049124,15.0713875 C17.8489491,15.0713875 17.414004,15.7314448 17.4180903,16.5247306" id="Fill-341" fill="#000066"></path>
            <path d="M30.6179639,15.1847141 C30.9298298,15.1847141 31.2211008,15.266296 31.6213942,15.4697575 L31.8052774,14.3239915 C31.6401911,14.2588575 31.0614085,13.8771 30.5710532,13.8771 C29.8198289,13.8771 29.1840016,14.2527718 28.7376148,14.8713801 C28.0857692,14.6542668 27.8175449,15.0930988 27.4893338,15.530615 L27.1975724,15.5990386 C27.2196384,15.4551188 27.2397429,15.3121859 27.2333683,15.1672792 L26.2016608,15.1672792 C26.0610923,16.4964401 25.8115015,17.8422135 25.6161766,19.1718678 L25.5650162,19.4606943 L26.6884201,19.4606943 C26.8758993,18.2346622 26.9783836,17.4499293 27.0408221,16.9183307 L27.4638353,16.6824667 C27.527418,16.4454514 27.7247043,16.3658432 28.1215652,16.3755475 C28.069751,16.655492 28.0416372,16.9504042 28.0416372,17.2555142 C28.0416372,18.6603358 28.7958037,19.5348746 30.0040391,19.5348746 C30.3154146,19.5348746 30.5828217,19.4937547 30.996845,19.3802637 L31.1936409,18.1772587 C30.8212978,18.3613116 30.5164603,18.4479924 30.2400634,18.4479924 C29.5872371,18.4479924 29.1921742,17.9629416 29.1921742,17.1617607 C29.1921742,15.9990533 29.7792929,15.1847141 30.6179639,15.1847141" id="Fill-342" fill="#000066"></path>
            <path d="M40.124645,14.1813875 L39.8750541,15.7066083 C39.5685821,15.3001788 39.2387364,15.0057601 38.803301,15.0057601 C38.2367772,15.0057601 37.7210869,15.4380129 37.3833955,16.0745495 C36.9131448,15.9763551 36.4272028,15.8094082 36.4272028,15.8094082 L36.4268759,15.8135202 C36.4643063,15.4577505 36.4801611,15.2412951 36.4764017,15.1672792 L35.4448577,15.1672792 C35.3047795,16.4964401 35.0548618,17.8422135 34.8597004,19.1718678 L34.8080497,19.4606943 L35.9317805,19.4606943 C36.0834637,18.4698682 36.199351,17.6461536 36.2848363,16.9938269 C36.6689479,16.6444719 36.8611672,16.3406778 37.2483844,16.3604154 C37.0765966,16.7785229 36.9764007,17.2597907 36.9764007,17.7535589 C36.9764007,18.8264603 37.5154646,19.5348746 38.3320695,19.5348746 C38.7436411,19.5348746 39.0594299,19.3919417 39.367373,19.0610085 L39.3144146,19.4603653 L40.376851,19.4603653 L41.2321941,14.1813875 L40.124645,14.1813875 L40.124645,14.1813875 Z M38.7204309,18.4688813 C38.3382807,18.4688813 38.1447538,18.1836734 38.1447538,17.6224685 C38.1447538,16.7785229 38.5064726,16.18031 39.0156248,16.18031 C39.4015344,16.18031 39.6107526,16.4757157 39.6107526,17.0211305 C39.6107526,17.8723133 39.2429862,18.4688813 38.7204309,18.4688813 L38.7204309,18.4688813 Z" id="Fill-343" fill="#000066"></path>
            <polyline id="Fill-344" fill="#FFFFFF" points="13.4859313 19.1473603 12.3631812 19.1473603 13.0066908 15.0893158 11.5704402 19.1473603 10.8049956 19.1473603 10.7105205 15.1128364 10.0343206 19.1473603 8.98332577 19.1473603 9.86122516 13.868547 11.4759651 13.868547 11.5210778 17.1364308 12.6106472 13.868547 14.354514 13.868547 13.4859313 19.1473603"></polyline>
            <path d="M16.2510447,17.2349542 C16.1333595,17.2211379 16.0813818,17.2173549 16.0004732,17.2173549 C15.363992,17.2173549 15.0419921,17.4367709 15.0419921,17.870504 C15.0419921,18.1374546 15.1992327,18.3083491 15.4445737,18.3083491 C15.9019118,18.3083491 16.231594,17.870175 16.2510447,17.2349542 L16.2510447,17.2349542 Z M17.0676497,19.1473603 L16.1374457,19.1473603 L16.1586945,18.7027716 C15.8749422,19.0539358 15.4962245,19.2218697 14.9818418,19.2218697 C14.3733109,19.2218697 13.956182,18.7432336 13.956182,18.0488 C13.956182,17.0030378 14.6819078,16.3941337 15.9275737,16.3941337 C16.0549026,16.3941337 16.2180275,16.4058118 16.3852386,16.4275231 C16.4198904,16.2854126 16.4290437,16.2250485 16.4290437,16.1482365 C16.4290437,15.8641799 16.2335554,15.7584194 15.7090387,15.7584194 C15.1595139,15.7518403 14.7065891,15.8895098 14.5202541,15.9508608 C14.532186,15.8798055 14.6760236,14.9855291 14.6760236,14.9855291 C15.235519,14.8203914 15.604593,14.7580536 16.0199239,14.7580536 C16.9841259,14.7580536 17.4947491,15.1940894 17.4939319,16.0171461 C17.4957299,16.2377135 17.459607,16.5105854 17.4030527,16.8678354 C17.305472,17.4890754 17.0962538,18.8233352 17.0676497,19.1473603 L17.0676497,19.1473603 Z" id="Fill-345" fill="#FFFFFF"></path>
            <path d="M32.1282581,14.0106576 L31.9443749,15.1562591 C31.5434277,14.9534555 31.2529739,14.8713801 30.9414349,14.8713801 C30.1030908,14.8713801 29.5149914,15.6867063 29.5149914,16.8495781 C29.5149914,17.650759 29.9102177,18.134823 30.5630441,18.134823 C30.8396044,18.134823 31.1450958,18.0488 31.5166216,17.8640893 L31.3193353,19.0670942 C30.9059658,19.1804208 30.6383953,19.2218697 30.3271832,19.2218697 C29.1181305,19.2218697 28.3651083,18.3471663 28.3651083,16.9426737 C28.3651083,15.055433 29.4061325,13.7364698 30.8941973,13.7364698 C31.3845526,13.7364698 31.9636622,13.9455236 32.1282581,14.0106576" id="Fill-346" fill="#FFFFFF"></path>
            <path d="M33.9396305,17.2349542 C33.822599,17.2211379 33.7704579,17.2173549 33.6897127,17.2173549 C33.0535585,17.2173549 32.7313951,17.4367709 32.7313951,17.870504 C32.7313951,18.1374546 32.8884722,18.3083491 33.1336499,18.3083491 C33.5908244,18.3083491 33.9208335,17.870175 33.9396305,17.2349542 L33.9396305,17.2349542 Z M34.7568893,19.1473603 L33.8266853,19.1473603 L33.8477706,18.7027716 C33.5640183,19.0539358 33.1853006,19.2218697 32.6714083,19.2218697 C32.0622236,19.2218697 31.6455851,18.7432336 31.6455851,18.0488 C31.6455851,17.0030378 32.370657,16.3941337 33.6166498,16.3941337 C33.7439787,16.3941337 33.9067767,16.4058118 34.0738244,16.4275231 C34.1086396,16.2854126 34.1177929,16.2250485 34.1177929,16.1482365 C34.1177929,15.8641799 33.9227949,15.7584194 33.3979513,15.7584194 C32.8489169,15.7518403 32.3961555,15.8895098 32.2094936,15.9508608 C32.2212621,15.8798055 32.3652631,14.9855291 32.3652631,14.9855291 C32.9247585,14.8203914 33.2935057,14.7580536 33.7088366,14.7580536 C34.6730385,14.7580536 35.1841522,15.1940894 35.1828445,16.0171461 C35.1851329,16.2377135 35.1486831,16.5105854 35.0921288,16.8678354 C34.994875,17.4890754 34.7856568,18.8233352 34.7568893,19.1473603 L34.7568893,19.1473603 Z" id="Fill-347" fill="#FFFFFF"></path>
            <path d="M22.0578319,19.0822264 C21.750706,19.1795984 21.5109223,19.2218697 21.2513609,19.2218697 C20.6773183,19.2218697 20.3638178,18.889785 20.3638178,18.2790717 C20.3559722,18.0886041 20.4466879,17.5902305 20.5181163,17.1344571 C20.5826797,16.732962 21.0048756,14.2045792 21.0048756,14.2045792 L22.1210877,14.2045792 L21.9904897,14.8542742 L22.5635516,14.8542742 L22.4108877,15.8858913 L21.8360278,15.8858913 C21.7064106,16.7030267 21.5215466,17.7195116 21.5192583,17.854385 C21.5192583,18.0764326 21.637107,18.1724888 21.9040238,18.1724888 C22.0320065,18.1724888 22.1308948,18.1598239 22.2068999,18.1318623 L22.0578319,19.0822264" id="Fill-348" fill="#FFFFFF"></path>
            <path d="M25.4805117,19.048179 C25.0968904,19.16644 24.7265087,19.2221986 24.3348783,19.2218697 C23.0851262,19.2210473 22.4342613,18.5639506 22.4342613,17.3066674 C22.4342613,15.8386856 23.2626348,14.7580536 24.386856,14.7580536 C25.3079066,14.7580536 25.8955157,15.3630101 25.8955157,16.3125517 C25.8955157,16.6272015 25.8546527,16.9342852 25.7582162,17.3680183 L23.5352723,17.3680183 C23.459921,17.9909032 23.8562915,18.2507812 24.5053585,18.2507812 C24.9046711,18.2507812 25.2650822,18.1675544 25.6661929,17.9800475 L25.4805117,19.048179 L25.4805117,19.048179 Z M24.8530204,16.5021969 C24.8590681,16.412391 24.9713594,15.7358857 24.3335707,15.7358857 C23.9782266,15.7358857 23.7237322,16.0090866 23.6202672,16.5021969 L24.8530204,16.5021969 L24.8530204,16.5021969 Z" id="Fill-349" fill="#FFFFFF"></path>
            <path d="M17.7410709,16.2113967 C17.7410709,16.7550023 18.0029207,17.1287003 18.596414,17.4104541 C19.0509733,17.6255936 19.121421,17.6892473 19.121421,17.8843203 C19.121421,18.1519289 18.9208657,18.272657 18.4764404,18.272657 C18.1415277,18.272657 17.8298252,18.2203524 17.4702314,18.1037363 C17.4702314,18.1037363 17.3231248,19.0498238 17.3162598,19.0943979 C17.5712446,19.1506499 17.7989329,19.2019676 18.4844495,19.2218697 C19.6694748,19.2218697 20.2167113,18.76807 20.2167113,17.7869483 C20.2167113,17.1967949 19.9875519,16.8507295 19.4251144,16.5908515 C18.9543733,16.3729158 18.9002708,16.3247232 18.9002708,16.1240579 C18.9002708,15.891977 19.0869327,15.7725647 19.4499591,15.7725647 C19.6699651,15.7725647 19.9712067,15.7972367 20.2565935,15.8376987 L20.4164493,14.8421027 C20.1256686,14.7958839 19.6850027,14.7580536 19.42822,14.7580536 C18.1719298,14.7580536 17.7373116,15.4182753 17.7410709,16.2113967" id="Fill-350" fill="#FFFFFF"></path>
            <path d="M40.6999952,19.1473603 L39.6378856,19.1473603 L39.6905171,18.747839 C39.3824105,19.0789368 39.0667852,19.2218697 38.6552137,19.2218697 C37.8392625,19.2218697 37.2993813,18.5142778 37.2993813,17.4402249 C37.2993813,16.0122117 38.1364178,14.8085489 39.1264451,14.8085489 C39.5618806,14.8085489 39.8915628,14.9875028 40.1986886,15.3940968 L40.4477891,13.868547 L41.5551748,13.868547 L40.6999952,19.1473603 L40.6999952,19.1473603 Z M39.0434116,18.1553829 C39.5666207,18.1553829 39.9337333,17.5591438 39.9337333,16.7087835 C39.9337333,16.1632041 39.7246785,15.8668116 39.3387689,15.8668116 C38.8294532,15.8668116 38.467898,16.465189 38.467898,17.3094635 C38.467898,17.8713264 38.6615883,18.1553829 39.0434116,18.1553829 L39.0434116,18.1553829 Z" id="Fill-351" fill="#FFFFFF"></path>
            <path d="M35.7683287,14.8542742 C35.6279237,16.1831062 35.3781694,17.5288795 35.1828445,18.8586984 L35.1316841,19.1473603 L36.2547612,19.1473603 C36.6565256,16.5219345 36.7531256,16.00958 37.3833955,16.0735627 C37.4835915,15.5362073 37.6704168,15.0656307 37.8095143,14.8284509 C37.3392636,14.7297631 37.0765966,14.9972071 36.7323672,15.5054496 C36.7598271,15.2855401 36.809353,15.0722099 36.8000362,14.8542742 L35.7683287,14.8542742" id="Fill-352" fill="#FFFFFF"></path>
            <path d="M26.5252953,14.8542742 C26.3842364,16.1831062 26.1341552,17.5288795 25.9391573,18.8586984 L25.8881603,19.1473603 L27.0115643,19.1473603 C27.4134921,16.5219345 27.5097652,16.00958 28.1390545,16.0735627 C28.2399042,15.5362073 28.4270565,15.0656307 28.565827,14.8284509 C28.0960667,14.7297631 27.8329094,14.9972071 27.4893338,15.5054496 C27.5164668,15.2855401 27.5663195,15.0722099 27.5565124,14.8542742 L26.5252953,14.8542742" id="Fill-353" fill="#FFFFFF"></path>
        </g>
    </g>
</svg>