<?xml version="1.0" encoding="UTF-8"?>
<svg width="50px" height="32px" viewBox="0 0 50 32" version="1.1" xmlns="http://www.w3.org/2000/svg" xmlns:xlink="http://www.w3.org/1999/xlink">
    <!-- Generator: Sketch 56.2 (81672) - https://sketch.com -->
    <title>Dropdown/Icons/Visa</title>
    <desc>Created with Sketch.</desc>
    <g id="Dropdown/Icons/Visa" stroke="none" stroke-width="1" fill="none" fill-rule="evenodd">
        <g id="Visa-dark">
            <rect id="Rectangle" fill="#26337A" x="0" y="0" width="50" height="32" rx="2.13333333"></rect>
            <g id="Group" transform="translate(9.000000, 11.000000)">
                <polyline id="Fill-3" fill="#FFFFFE" points="11.4082556 10.3499718 13.0481155 0.177126761 15.6693727 0.177126761 14.0296627 10.3499718 11.4082556 10.3499718"></polyline>
                <path d="M23.5377917,0.426816901 C23.0195072,0.222647887 22.2043748,2.66453526e-15 21.188945,2.66453526e-15 C18.5973727,2.66453526e-15 16.7731072,1.38050704 16.757965,3.35729577 C16.7414734,4.81953052 18.0597481,5.63500469 19.0535889,6.12101408 C20.0750157,6.61919249 20.4181899,6.93799061 20.4141419,7.38343662 C20.4070955,8.06475117 19.5988596,8.37693897 18.8451957,8.37693897 C17.7957333,8.37693897 17.238169,8.22324883 16.3761106,7.8434554 L16.0389333,7.68150235 L15.6723711,9.95861033 C16.283608,10.2419531 17.4167275,10.4878873 18.592725,10.5008075 C21.3469641,10.5008075 23.1365972,9.13697653 23.1575865,7.02602817 C23.1670316,5.86651643 22.4685395,4.98764319 20.9558144,4.26200939 C20.0397837,3.7902723 19.4775717,3.47778404 19.4840184,3.00033803 C19.4846181,2.57757746 19.9589751,2.12492019 20.9856492,2.12492019 C21.8430599,2.11109859 22.4637419,2.30910798 22.9473942,2.51583099 L23.1827736,2.63211268 L23.5377917,0.426816901" id="Fill-4" fill="#FFFFFE"></path>
                <path d="M27.0281536,6.74328638 C27.2453923,6.15857277 28.0723687,3.89979343 28.0723687,3.89979343 C28.0570765,3.92668545 28.288408,3.31057277 28.4207902,2.929277 L28.5976995,3.80664789 C28.5976995,3.80664789 29.1006919,6.23474178 29.2042888,6.74328638 L27.0281536,6.74328638 L27.0281536,6.74328638 Z M30.2619969,0.187492958 L28.2362347,0.187492958 C27.6079066,0.187492958 27.1375975,0.367474178 26.8623386,1.03076056 L22.9695828,10.3535775 L25.7227724,10.3535775 C25.7227724,10.3535775 26.1719422,9.09941784 26.27389,8.82418779 C26.5741862,8.82418779 29.2494157,8.82944601 29.63127,8.82944601 C29.7098298,9.1844507 29.9504565,10.3535775 29.9504565,10.3535775 L32.3834101,10.3535775 L30.2619969,0.187492958 L30.2619969,0.187492958 Z" id="Fill-5" fill="#FFFFFE"></path>
                <path d="M9.20918218,0.185690141 L6.64354654,7.12112676 L6.36873733,5.71132394 C5.89063226,4.08698592 4.4023447,2.32638498 2.73759754,1.44420657 L5.08479508,10.341108 L7.85897389,10.3394554 L11.9869591,0.185690141 L9.20918218,0.185690141" id="Fill-6" fill="#FFFFFE"></path>
                <path d="M4.26186667,0.178779343 L0.0347821813,0.178779343 L-1.27897692e-13,0.389558685 C3.28916498,1.23222535 5.46545008,3.26625352 6.36873733,5.71132394 L5.45015791,1.03707042 C5.29168909,0.392413146 4.83112504,0.201314554 4.26186667,0.178779343" id="Fill-7" fill="#EC982D"></path>
            </g>
        </g>
    </g>
</svg>