<svg width="20" height="20" viewBox="0 0 20 20" fill="none" xmlns="http://www.w3.org/2000/svg">
<path fill-rule="evenodd" clip-rule="evenodd" d="M9.9999 0.400391C4.69668 0.400391 0.399902 4.69716 0.399902 10.0004C0.399902 15.3036 4.69668 19.6004 9.9999 19.6004C15.3031 19.6004 19.5999 15.3036 19.5999 10.0004C19.5999 4.69716 15.3031 0.400391 9.9999 0.400391ZM18.3612 10.0004C18.3612 14.5952 14.6412 18.3617 9.99991 18.3617C5.40507 18.3617 1.63862 14.6417 1.63862 10.0004C1.63862 5.40555 5.35862 1.6391 9.99991 1.6391C14.5948 1.6391 18.3612 5.3591 18.3612 10.0004ZM9.45416 11.1346L12.5974 13.4185C12.8064 13.5694 13.0967 13.523 13.2477 13.3178L13.5651 12.8804C13.6382 12.7809 13.6687 12.6564 13.6498 12.5343C13.6309 12.4123 13.5642 12.3028 13.4645 12.2301L10.7354 10.2443V4.58103C10.7354 4.32555 10.5264 4.11652 10.2709 4.11652H9.729C9.47351 4.11652 9.26448 4.32555 9.26448 4.58103V10.7591C9.26448 10.9062 9.33416 11.0455 9.45416 11.1346Z" fill="black" fill-opacity="0.87"/>
</svg>
