<svg width="16" height="16" viewBox="0 0 16 16" fill="none" xmlns="http://www.w3.org/2000/svg">
<path d="M15.3503 0.661633C14.8953 0.206632 14.1603 0.206632 13.7053 0.661633L8.00033 6.35497L2.29533 0.649966C1.84033 0.194966 1.10533 0.194966 0.650332 0.649966C0.195332 1.10497 0.195332 1.83997 0.650332 2.29497L6.35533 7.99997L0.650332 13.705C0.195332 14.16 0.195332 14.895 0.650332 15.35C1.10533 15.805 1.84033 15.805 2.29533 15.35L8.00033 9.64497L13.7053 15.35C14.1603 15.805 14.8953 15.805 15.3503 15.35C15.8053 14.895 15.8053 14.16 15.3503 13.705L9.64533 7.99997L15.3503 2.29497C15.7937 1.85163 15.7937 1.10497 15.3503 0.661633Z" fill="white" fill-opacity="0.6"/>
</svg>
