<svg width="28" height="28" viewBox="0 0 28 28" fill="none" xmlns="http://www.w3.org/2000/svg">
<path fill-rule="evenodd" clip-rule="evenodd" d="M6.29993 7.29183H21.6999C22.8275 7.29183 23.7416 8.20591 23.7416 9.3335V10.2085H4.25826V9.3335C4.25826 8.20592 5.17235 7.29183 6.29993 7.29183ZM4.25826 13.1252V18.6668C4.25826 19.7944 5.17234 20.7085 6.29992 20.7085H21.6999C22.8275 20.7085 23.7416 19.7944 23.7416 18.6668V13.1252H4.25826ZM2.79993 9.3335C2.79993 7.4005 4.36693 5.8335 6.29993 5.8335H21.6999C23.6329 5.8335 25.1999 7.4005 25.1999 9.3335V18.6668C25.1999 20.5998 23.6329 22.1668 21.6999 22.1668H6.29992C4.36693 22.1668 2.79993 20.5998 2.79993 18.6668V9.3335ZM6.56254 17.2085C6.15983 17.2085 5.83337 17.535 5.83337 17.9377C5.83337 18.3404 6.15983 18.6668 6.56254 18.6668H10.0625C10.4652 18.6668 10.7917 18.3404 10.7917 17.9377C10.7917 17.535 10.4652 17.2085 10.0625 17.2085H6.56254ZM12.25 17.9377C12.25 17.535 12.5765 17.2085 12.9792 17.2085H19.6875C20.0902 17.2085 20.4167 17.535 20.4167 17.9377C20.4167 18.3404 20.0902 18.6668 19.6875 18.6668H12.9792C12.5765 18.6668 12.25 18.3404 12.25 17.9377Z" fill="black" fill-opacity="0.87"/>
</svg>
