<svg width="23" height="23" viewBox="0 0 23 23" fill="none" xmlns="http://www.w3.org/2000/svg">
<path d="M8.29175 1.95833C7.88904 1.95833 7.56258 2.28479 7.56258 2.6875V4.08749H6.10425V2.6875C6.10425 1.47938 7.08362 0.5 8.29175 0.5H14.7084C15.9165 0.5 16.8959 1.47938 16.8959 2.6875V4.08749H15.4376V2.6875C15.4376 2.28479 15.1111 1.95833 14.7084 1.95833H8.29175Z" fill="white" fill-opacity="0.87"/>
<path d="M8.52531 9.36666C8.52531 8.96395 8.85177 8.63749 9.25448 8.63749C9.65718 8.63749 9.98364 8.96395 9.98364 9.36666V17.2417C9.98364 17.6444 9.65718 17.9708 9.25448 17.9708C8.85177 17.9708 8.52531 17.6444 8.52531 17.2417V9.36666Z" fill="white" fill-opacity="0.87"/>
<path d="M13.7457 8.63749C13.343 8.63749 13.0165 8.96395 13.0165 9.36666V17.2417C13.0165 17.6444 13.343 17.9708 13.7457 17.9708C14.1484 17.9708 14.4749 17.6444 14.4749 17.2417V9.36666C14.4749 8.96395 14.1484 8.63749 13.7457 8.63749Z" fill="white" fill-opacity="0.87"/>
<path fill-rule="evenodd" clip-rule="evenodd" d="M2.05424 5.54583L4.08322 20.2559C4.29223 21.7713 5.58732 22.9 7.117 22.9H15.8832C17.4128 22.9 18.7079 21.7713 18.9169 20.2559L20.9459 5.54583H21.3875C21.7902 5.54583 22.1166 5.21937 22.1166 4.81666C22.1166 4.41396 21.7902 4.0875 21.3875 4.0875H1.61247C1.20976 4.0875 0.883301 4.41396 0.883301 4.81666C0.883301 5.21937 1.20976 5.54583 1.61247 5.54583H2.05424ZM3.52638 5.54583L5.52788 20.0567C5.63736 20.8504 6.31574 21.4417 7.117 21.4417H15.8832C16.6844 21.4417 17.3628 20.8504 17.4723 20.0567L19.4738 5.54583H3.52638Z" fill="white" fill-opacity="0.87"/>
</svg>
