<?xml version="1.0" encoding="UTF-8"?>
<svg width="28px" height="28px" viewBox="0 0 28 28" version="1.1" xmlns="http://www.w3.org/2000/svg" xmlns:xlink="http://www.w3.org/1999/xlink">
    <!-- Generator: Sketch 61 (89581) - https://sketch.com -->
    <title>deposit-filled</title>
    <desc>Created with Sketch.</desc>
    <g id="deposit-filled" stroke="none" stroke-width="1" fill="none" fill-rule="evenodd">
        <path d="M25.2,14 C25.2,20.1870968 20.1870968,25.2 14,25.2 C7.81290323,25.2 2.8,20.1870968 2.8,14 C2.8,7.81290323 7.81290323,2.8 14,2.8 C20.1870968,2.8 25.2,7.81290323 25.2,14 Z M18.7148387,12.6948387 L15.4451613,16.1045161 L15.4451613,7.85806452 C15.4451613,7.25741935 14.9619355,6.77419355 14.3612903,6.77419355 L13.6387097,6.77419355 C13.0380645,6.77419355 12.5548387,7.25741935 12.5548387,7.85806452 L12.5548387,16.1045161 L9.28516129,12.6948387 C8.86516129,12.2567742 8.16516129,12.2477419 7.73612903,12.6767742 L7.24387097,13.1735484 C6.81935484,13.5980645 6.81935484,14.2845161 7.24387097,14.7045161 L13.2322581,20.6974194 C13.6567742,21.1219355 14.3432258,21.1219355 14.7632258,20.6974194 L20.756129,14.7045161 C21.1806452,14.28 21.1806452,13.5935484 20.756129,13.1735484 L20.263871,12.6767742 C19.8348387,12.2477419 19.1348387,12.2567742 18.7148387,12.6948387 Z" id="↳-💧-Icon-Content" fill="#FFFFFF" fill-rule="nonzero"></path>
    </g>
</svg>