<svg width="28" height="28" viewBox="0 0 28 28" fill="none" xmlns="http://www.w3.org/2000/svg">
<g clip-path="url(#clip0)">
<path d="M21.9 7.4H15.3C15.0083 7.4 14.7285 7.51589 14.5222 7.72218C14.3159 7.92847 14.2 8.20826 14.2 8.5V19.5C14.2 19.7917 14.3159 20.0715 14.5222 20.2778C14.7285 20.4841 15.0083 20.6 15.3 20.6H21.9C22.1917 20.6 22.4715 20.4841 22.6778 20.2778C22.8841 20.0715 23 19.7917 23 19.5V8.5C23 8.20826 22.8841 7.92847 22.6778 7.72218C22.4715 7.51589 22.1917 7.4 21.9 7.4ZM21.9 19.5H15.3V8.5H21.9V19.5ZM4.3 4.1H17.5V6.3H18.6V4.1C18.6 3.80826 18.4841 3.52847 18.2778 3.32218C18.0715 3.11589 17.7917 3 17.5 3H4.3C4.00826 3 3.72847 3.11589 3.52218 3.32218C3.31589 3.52847 3.2 3.80826 3.2 4.1V12.9H1.55C1.40413 12.9 1.26424 12.9579 1.16109 13.0611C1.05795 13.1642 1 13.3041 1 13.45V14C1.00127 14.5826 1.23304 15.1409 1.64467 15.5531C2.05631 15.9654 2.61436 16.1979 3.19691 16.2H13.1V15.1H3.19691C2.9057 15.0992 2.62671 14.9829 2.42109 14.7767C2.21547 14.5705 2.1 14.2912 2.1 14H13.1V12.9H4.3V4.1Z" fill="black" fill-opacity="0.87"/>
</g>
<defs>
<clipPath id="clip0">
<rect width="22" height="17.6" fill="white" transform="translate(1 3)"/>
</clipPath>
</defs>
</svg>
