<svg width="160" height="100" viewBox="0 0 160 100" fill="none" xmlns="http://www.w3.org/2000/svg">
<path d="M153.6 0H6.4C2.86538 0 0 2.80919 0 6.27451V93.7255C0 97.1908 2.86538 100 6.4 100H153.6C157.135 100 160 97.1908 160 93.7255V6.27451C160 2.80919 157.135 0 153.6 0Z" fill="white"/>
<path fill-rule="evenodd" clip-rule="evenodd" d="M153.6 2H6.4C3.93243 2 2 3.95092 2 6.27451V93.7255C2 96.0491 3.93243 98 6.4 98H153.6C156.068 98 158 96.0491 158 93.7255V6.27451C158 3.95091 156.068 2 153.6 2ZM6.4 0H153.6C157.135 0 160 2.80919 160 6.27451V93.7255C160 97.1908 157.135 100 153.6 100H6.4C2.86538 100 0 97.1908 0 93.7255V6.27451C0 2.80919 2.86538 0 6.4 0Z" fill="#E2E2E2"/>
<path fill-rule="evenodd" clip-rule="evenodd" d="M137.92 39.5068C142.887 39.5068 145.619 41.7172 145.619 45.8926C145.867 49.0855 143.632 51.7872 140.652 52.2784L147.357 61.366H142.142L136.43 52.524H135.933V61.366H131.711V39.5068H137.92ZM135.933 49.5767H137.175C139.907 49.5767 141.148 48.3486 141.148 46.1382C141.148 44.1733 139.907 42.9452 137.175 42.9452H135.933V49.5767ZM117.058 61.3659H128.979V57.6818H121.28V51.7872H128.73V48.1031H121.28V43.1909H128.979V39.5067H117.058V61.3659ZM104.64 54.2433L98.9279 39.5067H94.4575L103.647 61.8572H105.882L115.071 39.5067H110.601L104.64 54.2433ZM54.2238 50.5591C54.2238 56.6994 59.1909 61.8571 65.3998 61.8571C67.3866 61.8571 69.1251 61.3659 70.8636 60.6291V55.7169C69.6218 57.1906 67.8833 58.173 65.8965 58.173C61.9228 58.173 58.6942 55.2257 58.6942 51.296V50.8047C58.4458 46.875 61.6744 43.4365 65.6481 43.1909C67.635 43.1909 69.6218 44.1733 70.8636 45.647V40.7348C69.3735 39.7523 67.3866 39.5067 65.6481 39.5067C59.1909 39.0155 54.2238 44.1733 54.2238 50.5591ZM46.5249 47.8574C44.0413 46.875 43.2963 46.3838 43.2963 45.1557C43.5446 43.6821 44.7864 42.454 46.2765 42.6996C47.5183 42.6996 48.7601 43.4365 49.7535 44.4189L51.9887 41.4716C50.2502 39.9979 48.015 39.0155 45.7798 39.0155C42.3028 38.7699 39.3226 41.4716 39.0742 44.9101V45.1557C39.0742 48.103 40.316 49.8223 44.2897 51.0504C45.2831 51.296 46.2765 51.7872 47.27 52.2784C48.015 52.7696 48.5117 53.5064 48.5117 54.4889C48.5117 56.2081 47.0216 57.6818 45.5315 57.6818H45.2831C43.2963 57.6818 41.5578 56.4537 40.8127 54.7345L38.0808 57.4362C39.5709 60.1379 42.5512 61.6115 45.5315 61.6115C49.5052 61.8571 52.7338 58.9098 52.9821 54.9801V54.2433C52.7338 51.296 51.492 49.8223 46.5249 47.8574ZM32.12 61.3659H36.3421V39.5067H32.12V61.3659ZM12.5 39.5068H18.7089H19.9507C25.9112 39.7524 30.63 44.6646 30.3816 50.5592C30.3816 53.7521 28.8915 56.6994 26.4079 58.9099C24.1727 60.6291 21.4408 61.6116 18.7089 61.366H12.5V39.5068ZM17.9638 57.6818C19.9507 57.9274 22.1859 57.1906 23.676 55.9626C25.1662 54.4889 25.9112 52.524 25.9112 50.3135C25.9112 48.3487 25.1662 46.3838 23.676 44.9102C22.1859 43.6821 19.9507 42.9453 17.9638 43.1909H16.7221V57.6818H17.9638Z" fill="black"/>
<path fill-rule="evenodd" clip-rule="evenodd" d="M83.5298 39C77.3209 39 72.1055 43.9122 72.1055 50.298C72.1055 56.4382 77.0726 61.596 83.5298 61.8416C89.9871 62.0872 94.9542 56.9295 95.2025 50.5436C94.9542 44.1578 89.9871 39 83.5298 39V39Z" fill="#FD6020"/>
<path d="M70 100L160 74V94C160 97.3137 157.314 100 154 100H70Z" fill="#FD6020"/>
</svg>
