<svg width="14" height="20" viewBox="0 0 14 20" fill="none" xmlns="http://www.w3.org/2000/svg">
<path fill-rule="evenodd" clip-rule="evenodd" d="M4.66667 3.00002C4.66667 4.28335 3.61667 5.33335 2.33333 5.33335C1.05 5.33335 0 4.28335 0 3.00002C0 1.71669 1.05 0.666687 2.33333 0.666687C3.61667 0.666687 4.66667 1.71669 4.66667 3.00002ZM0 10C0 8.71669 1.05 7.66669 2.33333 7.66669C3.61667 7.66669 4.66667 8.71669 4.66667 10C4.66667 11.2834 3.61667 12.3334 2.33333 12.3334C1.05 12.3334 0 11.2834 0 10ZM2.33333 14.6667C1.05 14.6667 0 15.7167 0 17C0 18.2834 1.05 19.3334 2.33333 19.3334C3.61667 19.3334 4.66667 18.2834 4.66667 17C4.66667 15.7167 3.61667 14.6667 2.33333 14.6667ZM14 3.00002C14 4.28335 12.95 5.33335 11.6667 5.33335C10.3833 5.33335 9.33333 4.28335 9.33333 3.00002C9.33333 1.71669 10.3833 0.666687 11.6667 0.666687C12.95 0.666687 14 1.71669 14 3.00002ZM11.6667 7.66669C10.3833 7.66669 9.33333 8.71669 9.33333 10C9.33333 11.2834 10.3833 12.3334 11.6667 12.3334C12.95 12.3334 14 11.2834 14 10C14 8.71669 12.95 7.66669 11.6667 7.66669ZM9.33333 17C9.33333 15.7167 10.3833 14.6667 11.6667 14.6667C12.95 14.6667 14 15.7167 14 17C14 18.2834 12.95 19.3334 11.6667 19.3334C10.3833 19.3334 9.33333 18.2834 9.33333 17Z" fill="black" fill-opacity="0.6"/>
</svg>
