<svg width="22" height="15" viewBox="0 0 22 15" fill="none" xmlns="http://www.w3.org/2000/svg">
<path d="M18.8138 0.5H3.41958C1.80904 0.5 0.5 1.48257 0.5 2.69128V12.6404C0.5 13.8491 1.80904 14.8325 3.41958 14.8325H18.8138C20.4243 14.8325 21.7333 13.8491 21.7333 12.6404V2.69128C21.7333 1.48257 20.4243 0.5 18.8138 0.5ZM3.41958 1.69438H18.8138C19.5463 1.69438 20.1408 2.14028 20.1408 2.68969V3.25821L11.5944 7.53168C11.3046 7.67501 10.9298 7.6766 10.6389 7.53009L2.0925 3.25821V2.68969C2.0925 2.14028 2.68703 1.69438 3.41958 1.69438ZM18.8138 13.6365H3.41958C2.68703 13.6365 2.0925 13.1906 2.0925 12.6412V4.65802L9.77897 8.5039C10.1856 8.70774 10.6517 8.80966 11.1167 8.80966C11.5838 8.80966 12.0477 8.70774 12.4544 8.5047L20.1408 4.65881V12.6388C20.1408 13.1882 19.5463 13.6341 18.8138 13.6341V13.6365Z" fill="black" fill-opacity="0.6"/>
</svg>
