<svg width="176" height="161" fill="none" xmlns="http://www.w3.org/2000/svg">
  <g clip-path="url(#clip0)">
    <path d="M150.98 134.876c-.224.313-.449.623-.673.931-.643.443-1.405.679-2.186.678H27.8788c-.7457 0-1.4757-.215-2.1014-.621-.2077-.274-.413-.55-.6207-.826l.2077-.114 60.8719-33.741c.5401-.299 1.147-.456 1.7643-.456.6172-.001 1.2246.154 1.7654.452l61.009 33.583.205.114z" fill="#EFEFEF"/>
    <path d="M148.121 63.9287L95.3655 33.4618a14.60837 14.60837 0 00-7.2982-1.9579 14.60737 14.60737 0 00-7.3 1.9507L27.8788 63.9287a3.8839 3.8839 0 00-2.7411 1.1376A3.8846 3.8846 0 0024 67.8074v64.7986c.0012 1.028.4102 2.014 1.1374 2.741.7271.728 1.713 1.137 2.7414 1.138H148.121c1.028-.002 2.014-.411 2.741-1.138.727-.727 1.136-1.713 1.138-2.741V67.8074c-.001-1.0282-.411-2.014-1.138-2.7411-.727-.7271-1.713-1.1362-2.741-1.1376zm3.423 68.6773c-.003.907-.364 1.776-1.005 2.418-.642.641-1.511 1.002-2.418 1.004H27.8788c-.9072-.001-1.7768-.362-2.4183-1.004-.6414-.641-1.0025-1.511-1.0042-2.418V67.8074a3.4267 3.4267 0 011.0037-2.4188 3.42643 3.42643 0 012.4188-1.0036l52.8885-30.474a14.60747 14.60747 0 017.3-1.9508c2.5624.0013 5.0793.6765 7.2982 1.958L148.121 64.385c.908.0011 1.777.362 2.419 1.0036a3.42489 3.42489 0 011.004 2.4188v64.7986z" fill="#3F3D56"/>
    <path d="M88.0685 100.59c-.3974.001-.7922-.065-1.1673-.196l-.0691-.024-.0139-.154c-.043.022-.0864.042-.1299.061l-.0459.02-.0459-.02c-.0962-.042-.1917-.09-.2838-.142L44.3066 76.5307V28.335a4.22595 4.22595 0 011.2377-2.9833 4.22636 4.22636 0 012.9834-1.2377h78.9443c1.12.0013 2.192.4464 2.984 1.2377a4.22528 4.22528 0 011.237 2.9833v48.2573l-.058.0327-41.8108 23.51c-.5367.299-1.1412.456-1.7557.455z" fill="#fff"/>
    <path d="M88.0685 100.704c-.4103.002-.8178-.067-1.2051-.202l-.1382-.049-.0059-.065-.0769.034-.0918-.041c-.0996-.043-.1984-.093-.2938-.147L44.1926 76.5976V28.3351a4.34004 4.34004 0 011.2712-3.0639A4.34004 4.34004 0 0148.5277 24h78.9443c1.15.0013 2.252.4585 3.064 1.2712.813.8127 1.27 1.9146 1.272 3.0639v48.324L89.8802 100.235c-.5538.308-1.1776.47-1.8117.469zm-.9157-.588c.8389.241 1.7389.141 2.504-.2793l41.6942-23.4445V28.3351a3.88276 3.88276 0 00-1.137-2.7414c-.727-.7272-1.713-1.1362-2.742-1.1374H48.5277a3.88332 3.88332 0 00-2.7414 1.1374 3.88263 3.88263 0 00-1.1373 2.7414v47.9953l2.7356 1.5364 39.096 21.97c.0532.0299.1072.0581.162.0845.0548-.0264.1087-.0545.1618-.0844l.3073-.1731.0411.4522z" fill="#3F3D56"/>
    <path d="M150.989 65.6125l-16.557 9.3091-2.853 1.604-41.8106 23.5104c-.5196.289-1.1049.441-1.6999.44-.3844.001-.7663-.063-1.1293-.189-.101-.033-.2001-.071-.2967-.115-.0935-.041-.1847-.086-.2737-.136L47.2729 78.0657l-2.8521-1.6017-19.3757-10.888a.23087.23087 0 01-.1075-.1385.23083.23083 0 01.0209-.1741.22772.22772 0 01.1372-.1075.2276.2276 0 01.173.0208l19.1521 10.7625 2.8521 1.6017 39.3195 22.0954c.1304.0732.2661.1365.4061.1894.0593.0228.121.0433.1826.0616.3905.1197.8013.1597 1.2075.1167a3.03388 3.03388 0 001.1562-.3677l42.0342-23.6332 2.853-1.604 16.334-9.1836a.22928.22928 0 01.084-.0277c.03-.0036.06-.0013.089.0068.029.008.056.0217.079.0401.024.0185.043.0414.058.0675.015.0261.024.0548.028.0845.003.0297.001.0598-.007.0886s-.022.0558-.04.0793a.23869.23869 0 01-.068.0579z" fill="#3F3D56"/>
    <path d="M61.4361 39.0588h-6.3886c-.4841 0-.9484-.1923-1.2907-.5346a1.82535 1.82535 0 01-.5346-1.2907c0-.4841.1923-.9484.5346-1.2907a1.82535 1.82535 0 011.2907-.5346h6.3886c.4841 0 .9483.1923 1.2907.5346.3423.3423.5346.8066.5346 1.2907s-.1923.9484-.5346 1.2907a1.82552 1.82552 0 01-1.2907.5346z" fill="#EFEFEF"/>
    <path d="M68.9655 45.2192h-13.918c-.4841 0-.9484-.1923-1.2907-.5346a1.82535 1.82535 0 01-.5346-1.2907c0-.4841.1923-.9484.5346-1.2907a1.82535 1.82535 0 011.2907-.5346h13.918c.4841 0 .9484.1923 1.2907.5346.3423.3423.5346.8066.5346 1.2907s-.1923.9484-.5346 1.2907a1.82535 1.82535 0 01-1.2907.5346z" fill="#E6E6E6"/>
    <path d="M107.85 61.647H68.3778c-.4841 0-.9484-.1923-1.2907-.5347a1.82517 1.82517 0 01-.5346-1.2907c0-.4841.1923-.9483.5346-1.2906a1.82502 1.82502 0 011.2907-.5347H107.85c.484 0 .949.1923 1.291.5347.342.3423.534.8065.534 1.2906 0 .4842-.192.9484-.534 1.2907-.342.3424-.807.5347-1.291.5347z" fill="#EFEFEF"/>
    <path d="M111.501 68.7202H64.4991c-.4841 0-.9483-.1923-1.2907-.5346a1.82535 1.82535 0 01-.5346-1.2907c0-.4841.1923-.9484.5346-1.2907a1.82552 1.82552 0 011.2907-.5346h47.0019c.484 0 .948.1923 1.291.5346.342.3423.534.8066.534 1.2907s-.192.9484-.534 1.2907c-.343.3423-.807.5346-1.291.5346zM111.501 75.5649H64.4991c-.4841 0-.9483-.1923-1.2907-.5346a1.82535 1.82535 0 01-.5346-1.2907c0-.4841.1923-.9484.5346-1.2907a1.82552 1.82552 0 011.2907-.5346h47.0019c.484 0 .948.1923 1.291.5346.342.3423.534.8066.534 1.2907s-.192.9484-.534 1.2907c-.343.3423-.807.5346-1.291.5346z" fill="#E6E6E6"/>
    <path d="M89.9998 86.8c-6.1824 0-11.2 5.0176-11.2 11.2 0 6.182 5.0176 11.2 11.2 11.2 6.1824 0 11.2002-5.018 11.2002-11.2 0-6.1824-5.0178-11.2-11.2002-11.2z" fill="#fff"/>
    <path d="M89.9998 86.8c-6.1824 0-11.2 5.0176-11.2 11.2 0 6.182 5.0176 11.2 11.2 11.2 6.1824 0 11.2002-5.018 11.2002-11.2 0-6.1824-5.0178-11.2-11.2002-11.2zm5.544 9.2176l-6.3392 6.3394c-.4368.437-1.1424.437-1.5792 0l-3.1696-3.1698c-.4368-.4368-.4368-1.1424 0-1.5792.4368-.4368 1.1424-.4368 1.5792 0l2.3744 2.3744 5.544-5.544c.4368-.4368 1.1424-.4368 1.5792 0 .448.4368.448 1.1424.0112 1.5792z" fill="#007B53"/>
  </g>
  <defs>
    <clipPath id="clip0">
      <path fill="#fff" transform="translate(24 24)" d="M0 0h128v112.485H0z"/>
    </clipPath>
  </defs>
</svg>
