<svg width="32" height="40" viewBox="0 0 32 40" fill="none" xmlns="http://www.w3.org/2000/svg">
<path d="M16.0008 0.799988C13.1385 0.799988 10.9568 1.77665 9.43835 3.61179C8.07218 5.26281 7.2663 7.58512 7.00085 10.4C6.7226 13.3504 7.10309 15.5863 8.31332 17.1883C9.70847 19.0348 12.2005 20 16.0008 20C19.7945 20 22.2861 19.0244 23.6828 17.1649C24.8891 15.5585 25.2716 13.3247 25.0008 10.4C24.7363 7.54299 23.933 5.21856 22.5635 3.57506C21.0509 1.76021 18.8719 0.799988 16.0008 0.799988ZM16.0004 22.9C23.1594 22.9 28.1006 26.5507 31.1569 32.2529C32.9405 35.5808 30.3232 39.2 26.518 39.2H5.48275C1.67762 39.2 -0.939718 35.5808 0.843834 32.2529C3.90003 26.5508 8.84133 22.9 16.0004 22.9Z" fill="black" fill-opacity="0.15"/>
</svg>
