<?xml version="1.0" encoding="UTF-8"?>
<svg width="80px" height="80px" viewBox="0 0 80 80" version="1.1" xmlns="http://www.w3.org/2000/svg" xmlns:xlink="http://www.w3.org/1999/xlink">
    <!-- Generator: Sketch 55.2 (78181) - https://sketchapp.com -->
    <title>🔩 Parts/Icon/Custom/envelope-open-dollar@3x</title>
    <desc>Created with Sketch.</desc>
    <g id="🔩-Parts/Icon/Custom/envelope-open-dollar" stroke="none" stroke-width="1" fill="none" fill-rule="evenodd">
        <path d="M69.825,28.5625 L64,23.875 L64,20 C64,17.790861 62.209139,16 60,16 L54.1875,16 L52.9125,14.9875 C50.1625,12.775 45.425,8 40,8 C34.6,8 29.925,12.7125 27.0875,14.9875 L25.8125,16 L20,16 C17.790861,16 16,17.790861 16,20 L16,23.875 L10.1875,28.55 C8.80464204,29.6879483 8.00239413,31.3841296 8,33.175 L8,66 C8,69.3137085 10.6862915,72 14,72 L66,72 C69.3137085,72 72,69.3137085 72,66 L72,33.1875 C72.000685,31.3986911 71.2031886,29.7028656 69.825,28.5625 Z M40,12 C42.725,12 45.575,14.0875 47.8875,16 L32.125,16 C34.4375,14.0875 37.3,12 40.0125,12 L40,12 Z M20,20 L60,20 L60,41.6625 C55.9625,44.9125 51.8375,48.225 49.175,50.3375 C47.075,52.0125 42.9,56.05 40,56 C37.1,56.05 32.925,52.0125 30.825,50.3375 C28.1625,48.2125 24.0375,44.925 20,41.6625 L20,20 Z M11.9999793,33.1875 C11.997279,32.5883158 12.2633484,32.0194777 12.725,31.6375 L16,29.0125 L16,38.45 L11.9999793,35.225 L11.9999793,33.1875 L11.9999793,33.1875 Z M68,66 C68,67.1045695 67.1045695,68 66,68 L14,68 C12.8954305,68 12,67.1045695 12,66 L12,40.375 C17.35,44.675 24.4125,50.35 28.3375,53.4625 C30.9,55.5125 35.425,60.0375 40,60 C44.5625,60.0375 49.0375,55.5625 51.6625,53.4625 C55.5875,50.35 62.6625,44.6625 68,40.3625 L68,66 Z M68.0000207,35.225 L64,38.45 L64,29.0125 L67.275,31.6375 C67.7366516,32.0194777 68.002721,32.5883158 68.0000207,33.1875 L68.0000207,35.225 L68.0000207,35.225 Z M36.625,38.075 L42.25,39.7625 C42.9205229,39.9970821 43.3609568,40.6400144 43.3375,41.35 C43.3375,42.2625 42.675,43 41.8625,43 L38.35,43 C37.7794558,43.0023049 37.2200846,42.8418651 36.7375,42.5375 C36.3375,42.2875 35.825,42.2875 35.4875,42.625 L34,44.025 C33.7835923,44.2240324 33.66574,44.5082157 33.6777798,44.8019865 C33.6898196,45.0957572 33.8305313,45.3693437 34.0625,45.55 C35.2,46.4 36.575,46.8875 37.9875,46.9625 L37.9875,49 C37.9875,49.5522847 38.4352153,50 38.9875,50 L40.9875,50 C41.5397847,50 41.9875,49.5522847 41.9875,49 L41.9875,46.9875 C44.9957536,46.8659372 47.3612833,44.3729901 47.325,41.3625 C47.325,38.8625 45.7,36.625 43.375,35.925 L37.75,34.2375 C37.074531,34.0072735 36.6283109,33.3632967 36.65,32.65 C36.65,31.7375 37.3125,31 38.125,31 L41.6375,31 C42.2125,31 42.7625,31.1625 43.25,31.4625 C43.65,31.7125 44.1625,31.7125 44.5,31.375 L45.975,29.975 C46.1914077,29.7759676 46.30926,29.4917843 46.2972202,29.1980135 C46.2851804,28.9042428 46.1444687,28.6306563 45.9125,28.45 C44.7732874,27.6001714 43.4069984,27.1084814 41.9875,27.0375 L41.9875,25 C41.9875,24.4477153 41.5397847,24 40.9875,24 L38.9875,24 C38.4352153,24 37.9875,24.4477153 37.9875,25 L37.9875,27.0125 C34.9792464,27.1340628 32.6137167,29.6270099 32.65,32.6375 C32.65,35.1375 34.275,37.375 36.6,38.075 L36.625,38.075 Z" id="↳-💧-Icon-Content" fill="#FFFFFF" fill-rule="nonzero"></path>
    </g>
</svg>