<?xml version="1.0" encoding="UTF-8"?>
<svg width="28px" height="28px" viewBox="0 0 28 28" version="1.1" xmlns="http://www.w3.org/2000/svg" xmlns:xlink="http://www.w3.org/1999/xlink">
    <!-- Generator: Sketch 59.1 (86144) - https://sketch.com -->
    <title>🔩 Parts/Icon/Font Awesome/envelope-open-dollar-filled</title>
    <desc>Created with Sketch.</desc>
    <g id="🔩-Parts/Icon/Font-Awesome/envelope-open-dollar-filled" stroke="none" stroke-width="1" fill="none" fill-rule="evenodd">
        <path d="M13.9781676,21.0139983 C13.261193,21.0139983 12.5442183,20.7930548 11.932039,20.3507312 L2.8,13.7538657 L2.8,23.0605636 C2.8,24.2181152 3.73835478,25.15647 4.89590643,25.15647 L23.0604288,25.15647 C24.2179805,25.15647 25.1563353,24.2181152 25.1563353,23.0605636 L25.1563353,13.7538657 L16.0242963,20.3507312 C15.412117,20.7926182 14.6951423,21.0139983 13.9781676,21.0139983 Z M24.3533411,9.91530041 C23.9669084,9.61226728 23.6005614,9.32713667 23.0604288,8.91930821 L23.0604288,6.99194759 C23.0604288,5.83439593 22.1220741,4.89604115 20.9645224,4.89604115 L17.5783236,4.89604115 C17.4455828,4.79997878 17.3220117,4.71002946 17.1835945,4.60960061 C16.4495906,4.07427117 14.9911891,2.78485207 13.9781676,2.80013472 C12.9651462,2.78485207 11.5071813,4.07383453 10.7727407,4.60960061 C10.6343236,4.71002946 10.5107524,4.79997878 10.3780117,4.89604115 L6.99181287,4.89604115 C5.83426121,4.89604115 4.89590643,5.83439593 4.89590643,6.99194759 L4.89590643,8.91930821 C4.35577388,9.32670002 3.9894269,9.61226728 3.60299415,9.91530041 C3.09617936,10.3124852 2.8,10.9206092 2.8,11.5645168 L2.8,12.029546 L6.99181287,15.0576942 L6.99181287,6.99194759 L20.9645224,6.99194759 L20.9645224,15.0576942 L25.1563353,12.029546 L25.1563353,11.5645168 C25.1563353,10.9208989 24.8602885,10.3126493 24.3533411,9.91530041 Z M14.3274854,8.73853628 L13.6288499,8.73853628 C13.4358519,8.73853628 13.2795322,8.89485597 13.2795322,9.08785402 L13.2795322,9.79172926 C12.2481715,9.81923804 11.4163587,10.6890392 11.4163587,11.7596981 C11.4163587,12.6316825 11.9831267,13.410661 12.7952904,13.6543102 L14.7602027,14.2437838 C14.9855127,14.3114642 15.1431423,14.5398306 15.1431423,14.7996357 C15.1431423,15.1170782 14.9117193,15.3755733 14.6278986,15.3755733 L13.4004834,15.3755733 C13.2013723,15.3755733 13.0092476,15.3192458 12.8407018,15.2131406 C12.6992281,15.1245012 12.5193294,15.129741 12.3983782,15.2450158 L11.8853177,15.7344973 C11.7311813,15.8816474 11.7399142,16.1366493 11.9102066,16.264587 C12.3075556,16.562817 12.7869942,16.734856 13.2799688,16.7601815 L13.2799688,17.4714798 C13.2799688,17.6644778 13.4362885,17.8207975 13.6292865,17.8207975 L14.327922,17.8207975 C14.5209201,17.8207975 14.6772398,17.6644778 14.6772398,17.4714798 L14.6772398,16.7676045 C15.7086004,16.7400957 16.5404133,15.8707312 16.5404133,14.7996357 C16.5404133,13.9276513 15.9736452,13.1486727 15.1614815,12.9050236 L13.1965692,12.3155499 C12.9712593,12.2478696 12.8136296,12.0195031 12.8136296,11.7596981 C12.8136296,11.4422556 13.0450526,11.1837605 13.3288733,11.1837605 L14.5562885,11.1837605 C14.7553996,11.1837605 14.9475244,11.2400879 15.1160702,11.3461932 C15.2575439,11.4348326 15.4374425,11.4295928 15.5583938,11.314318 L16.0714542,10.8248365 C16.2255906,10.6776864 16.2168577,10.4226844 16.0465653,10.2947468 C15.6492164,9.99651679 15.1697778,9.8244778 14.6768031,9.79915227 L14.6768031,9.08785402 C14.6768031,8.89485597 14.5204834,8.73853628 14.3274854,8.73853628 L14.3274854,8.73853628 Z" id="↳-💧-Icon-Content" fill="#FFFFFF" fill-rule="nonzero"></path>
    </g>
</svg>