<svg width="24" height="24" viewBox="0 0 24 24"  xmlns="http://www.w3.org/2000/svg">
<path fill-rule="evenodd" clip-rule="evenodd" d="M13.9992 1.62822L22.3716 10.0007C23.4759 11.1049 23.4759 12.8952 22.3716 13.9994L13.9992 22.3719C12.895 23.4761 11.1046 23.4761 10.0004 22.3719L1.62798 13.9994C0.523747 12.8952 0.523747 11.1049 1.62798 10.0007L10.0004 1.62822C11.1046 0.523991 12.895 0.523991 13.9992 1.62822ZM11.9996 14.185C11.3506 14.185 10.8245 14.7102 10.8245 15.358C10.8245 16.0058 11.3506 16.531 11.9996 16.531C12.6485 16.531 13.1746 16.0058 13.1746 15.358C13.1746 14.7102 12.6485 14.185 11.9996 14.185ZM11.9996 7.14693C11.3533 7.14693 10.8245 7.67478 10.8245 8.31994V11.3991C10.8245 12.0442 11.3533 12.5721 11.9996 12.5721C12.6458 12.5721 13.1746 12.0442 13.1746 11.3991V8.31994C13.1746 7.67478 12.6458 7.14693 11.9996 7.14693Z" fill-opacity="0.87"/>
</svg>
