<svg width="59" height="64" viewBox="0 0 59 64" fill="none" xmlns="http://www.w3.org/2000/svg">
<path fill-rule="evenodd" clip-rule="evenodd" d="M3.20332 17.5625V10.375C3.20332 6.44625 6.12688 3.25 9.72032 3.25H16.2945C17.1153 3.25 17.7808 2.52244 17.7808 1.625C17.7808 0.727562 17.1153 0 16.2945 0H9.72032C4.48774 0 0.230652 4.65419 0.230652 10.375V17.5625C0.230652 18.4599 0.896129 19.1875 1.71699 19.1875C2.53784 19.1875 3.20332 18.4599 3.20332 17.5625ZM16.2945 60.75C17.1153 60.75 17.7808 61.4776 17.7808 62.375C17.7808 63.2724 17.1153 64 16.2945 64H9.72032C4.48774 64 0.230652 59.3457 0.230652 53.625V46.4375C0.230652 45.5401 0.896129 44.8125 1.71699 44.8125C2.53784 44.8125 3.20332 45.5401 3.20332 46.4375V53.625C3.20332 57.5537 6.12688 60.75 9.72032 60.75H16.2945ZM58.7693 46.4375V53.625C58.7693 59.3457 54.5122 64 49.2796 64H42.7055C41.8846 64 41.2192 63.2724 41.2192 62.375C41.2192 61.4776 41.8846 60.75 42.7055 60.75H49.2796C52.8731 60.75 55.7966 57.5537 55.7966 53.625V46.4375C55.7966 45.5401 56.4621 44.8125 57.283 44.8125C58.1038 44.8125 58.7693 45.5401 58.7693 46.4375ZM58.7693 10.375V17.5625C58.7693 18.4599 58.1038 19.1875 57.283 19.1875C56.4621 19.1875 55.7966 18.4599 55.7966 17.5625V10.375C55.7966 6.44625 52.8731 3.25 49.2796 3.25H42.7055C41.8846 3.25 41.2192 2.52244 41.2192 1.625C41.2192 0.727562 41.8846 0 42.7055 0H49.2796C54.5122 0 58.7693 4.65419 58.7693 10.375ZM39.7573 47.3023C40.3835 46.6699 40.4222 45.6023 39.8438 44.9176C39.2653 44.233 38.2888 44.1907 37.6626 44.823C35.4345 47.0733 32.5355 48.3125 29.4999 48.3125C26.4643 48.3125 23.5654 47.0733 21.3372 44.823C20.7109 44.1907 19.7345 44.2331 19.1561 44.9176C18.5777 45.6023 18.6164 46.6699 19.2426 47.3023C22.0429 50.1301 25.6856 51.6875 29.4999 51.6875C33.3143 51.6875 36.957 50.1301 39.7573 47.3023ZM32.587 24.125V36.125C32.587 38.5029 30.8175 40.4375 28.6425 40.4375H27.3848C26.5323 40.4375 25.8413 39.682 25.8413 38.75C25.8413 37.818 26.5323 37.0625 27.3848 37.0625H28.6425C29.1153 37.0625 29.5 36.6419 29.5 36.125V24.125C29.5 23.193 30.191 22.4375 31.0435 22.4375C31.896 22.4375 32.587 23.193 32.587 24.125ZM43.22 28.8438V24.0312C43.22 23.1511 42.5673 22.4375 41.7622 22.4375C40.9572 22.4375 40.3045 23.1511 40.3045 24.0312V28.8438C40.3045 29.7239 40.9572 30.4375 41.7622 30.4375C42.5673 30.4375 43.22 29.7239 43.22 28.8438ZM16.123 28.8438C16.123 29.7239 16.7757 30.4375 17.5807 30.4375C18.3858 30.4375 19.0385 29.7239 19.0385 28.8438V24.0312C19.0385 23.1511 18.3858 22.4375 17.5807 22.4375C16.7757 22.4375 16.123 23.1511 16.123 24.0312V28.8438Z" fill="black" fill-opacity="0.87"/>
</svg>
