<svg width="28" height="28" viewBox="0 0 28 28" fill="none" xmlns="http://www.w3.org/2000/svg">
<path fill-rule="evenodd" clip-rule="evenodd" d="M3.93749 8.94668V6.43105C3.93749 5.05599 5.0562 3.9373 6.43124 3.9373H8.94686C9.26097 3.9373 9.51561 3.68266 9.51561 3.36855C9.51561 3.05445 9.26097 2.7998 8.94686 2.7998H6.43124C4.42898 2.7998 2.79999 4.42877 2.79999 6.43105V8.94668C2.79999 9.26078 3.05463 9.51543 3.36874 9.51543C3.68284 9.51543 3.93749 9.26078 3.93749 8.94668ZM8.94686 24.0623C9.26097 24.0623 9.51561 24.3169 9.51561 24.6311C9.51561 24.9452 9.26097 25.1998 8.94686 25.1998H6.43124C4.42898 25.1998 2.79999 23.5708 2.79999 21.5686V19.0529C2.79999 18.7388 3.05463 18.4842 3.36874 18.4842C3.68284 18.4842 3.93749 18.7388 3.93749 19.0529V21.5686C3.93749 22.9436 5.0562 24.0623 6.43124 24.0623H8.94686ZM25.2 19.0529V21.5686C25.2 23.5708 23.571 25.1998 21.5688 25.1998H19.0531C18.739 25.1998 18.4844 24.9452 18.4844 24.6311C18.4844 24.3169 18.739 24.0623 19.0531 24.0623H21.5688C22.9438 24.0623 24.0625 22.9436 24.0625 21.5686V19.0529C24.0625 18.7388 24.3171 18.4842 24.6313 18.4842C24.9454 18.4842 25.2 18.7388 25.2 19.0529ZM25.2 6.43105V8.94668C25.2 9.26078 24.9454 9.51543 24.6313 9.51543C24.3171 9.51543 24.0625 9.26078 24.0625 8.94668V6.43105C24.0625 5.05599 22.9438 3.9373 21.5688 3.9373H19.0531C18.739 3.9373 18.4844 3.68266 18.4844 3.36855C18.4844 3.05445 18.739 2.7998 19.0531 2.7998H21.5688C23.571 2.7998 25.2 4.42877 25.2 6.43105ZM17.9249 19.3556C18.1646 19.1343 18.1794 18.7606 17.958 18.521C17.7367 18.2814 17.363 18.2665 17.1234 18.4879C16.2708 19.2754 15.1615 19.7092 13.9999 19.7092C12.8383 19.7092 11.7291 19.2754 10.8764 18.4879C10.6368 18.2665 10.2632 18.2814 10.0418 18.521C9.8205 18.7606 9.83531 19.1343 10.0749 19.3556C11.1465 20.3454 12.5404 20.8904 13.9999 20.8904C15.4595 20.8904 16.8534 20.3454 17.9249 19.3556ZM15.1812 11.2436V15.4436C15.1812 16.2758 14.5041 16.9529 13.6718 16.9529H13.1906C12.8644 16.9529 12.6 16.6885 12.6 16.3623C12.6 16.0361 12.8644 15.7717 13.1906 15.7717H13.6718C13.8528 15.7717 14 15.6245 14 15.4436V11.2436C14 10.9174 14.2644 10.6529 14.5906 10.6529C14.9168 10.6529 15.1812 10.9174 15.1812 11.2436ZM19.25 12.8951V11.2107C19.25 10.9027 19.0002 10.6529 18.6921 10.6529C18.3841 10.6529 18.1343 10.9027 18.1343 11.2107V12.8951C18.1343 13.2032 18.3841 13.4529 18.6921 13.4529C19.0002 13.4529 19.25 13.2032 19.25 12.8951ZM8.88122 12.8951C8.88122 13.2032 9.13097 13.4529 9.43903 13.4529C9.7471 13.4529 9.99685 13.2032 9.99685 12.8951V11.2107C9.99685 10.9027 9.7471 10.6529 9.43903 10.6529C9.13097 10.6529 8.88122 10.9027 8.88122 11.2107V12.8951Z" fill="black" fill-opacity="0.87"/>
</svg>
