<svg width="16" height="14" xmlns="http://www.w3.org/2000/svg"><g fill="none" fill-rule="evenodd" opacity=".87"><path d="M15.75 11H6V9.75A.748.748 0 005.25 9h-1.5a.748.748 0 00-.75.75V11H.25a.25.25 0 00-.25.25v.5c0 .137.113.25.25.25H3v1.25c0 .416.334.75.75.75h1.5c.416 0 .75-.334.75-.75V12h9.75a.25.25 0 00.25-.25v-.5a.25.25 0 00-.25-.25zM5 13H4v-3h1v3zM15.75 2H8V.75A.748.748 0 007.25 0h-1.5A.748.748 0 005 .75V2H.25a.25.25 0 00-.25.25v.5c0 .138.113.25.25.25H5v1.25c0 .416.334.75.75.75h1.5c.416 0 .75-.334.75-.75V3h7.75a.25.25 0 00.25-.25v-.5a.25.25 0 00-.25-.25zM7 4H6V1h1v3zm8.75 2.5H13V5.25a.748.748 0 00-.75-.75h-1.5a.748.748 0 00-.75.75V6.5H.25a.25.25 0 00-.25.25v.5c0 .138.113.25.25.25H10v1.25c0 .416.334.75.75.75h1.5c.416 0 .75-.334.75-.75V7.5h2.75a.25.25 0 00.25-.25v-.5a.25.25 0 00-.25-.25zM12 8.5h-1v-3h1v3z" fill-rule="nonzero" fill="#000"/></g></svg>
