<svg width="61" height="68" viewBox="0 0 61 68" fill="none" xmlns="http://www.w3.org/2000/svg">
<path d="M30.4996 22.7916C27.1316 22.845 24.2065 24.0442 21.9997 26.4596C19.8559 28.8033 18.7019 31.9205 18.7507 35.2408C18.8436 41.7812 18.285 48.3268 17.0833 54.6927C16.8678 55.8203 17.5335 56.9218 18.5613 57.1549C19.5737 57.371 20.5967 56.664 20.8135 55.5351C22.0711 48.8723 22.6595 42.0221 22.563 35.177C22.5332 32.9934 23.2883 30.9453 24.696 29.4075C26.9184 26.9778 29.7303 26.9596 30.502 26.9596C34.9229 27.0312 38.4113 30.8906 38.478 35.5611C38.5709 42.1197 38.1243 48.694 37.1536 55.1002C36.9821 56.2356 37.6824 57.3072 38.7209 57.4947C38.8293 57.5156 38.9329 57.5234 39.0377 57.5234C39.9536 57.5234 40.7611 56.8007 40.9135 55.7799C41.9223 49.1289 42.3832 42.3059 42.2903 35.4947C42.1867 28.5937 36.9535 22.8958 30.4996 22.7916ZM30.4889 34.0013C29.4361 34.0195 28.5989 34.9661 28.6131 36.1171C28.7465 45.6731 27.6342 54.996 25.3046 64.121L25.1593 64.6848C24.939 65.5481 25.3666 67.3333 26.9946 67.3333C27.8283 67.3333 28.5917 66.733 28.8299 65.8151L28.9752 65.246C31.406 55.7304 32.5672 46.0091 32.4254 36.052C32.4088 34.901 31.4453 33.9817 30.4889 34.0013ZM13.4283 20.1705C10.4282 24.2044 8.8168 29.2994 8.89184 34.513C8.96568 39.664 8.5798 44.8177 7.74969 49.8268C7.5639 50.9596 8.24871 52.0442 9.28724 52.25C9.40276 52.2721 9.51472 52.2825 9.62905 52.2825C10.5294 52.2825 11.3333 51.5768 11.5013 50.5716C12.3754 45.2942 12.778 39.871 12.7029 34.4492C12.6398 30.151 13.9165 26.1224 16.3842 22.7994C17.05 21.9062 16.9238 20.5937 16.1091 19.8684C15.2933 19.1458 14.0952 19.2734 13.4283 20.1705ZM60.9742 33.5859C60.9445 31.4375 60.7134 29.2851 60.2894 27.1875C60.062 26.0664 59.058 25.3645 58.0194 25.6028C56.9928 25.8515 56.3414 26.9622 56.5676 28.0872C56.9357 29.9101 57.1369 31.7838 57.1631 33.651C57.1774 34.6484 57.1822 35.6445 57.1739 36.6419C57.1667 37.7916 58.0111 38.7317 59.0639 38.7408H59.0782C60.1239 38.7408 60.9766 37.819 60.9838 36.6744C60.9921 35.6445 60.9885 34.6158 60.9742 33.5859ZM30.0947 0.673133C21.7615 0.498654 14.1023 3.90621 8.38567 10.1601C2.87385 16.1901 -0.0928588 24.2031 0.0298114 32.7239C0.044103 33.707 0.0369572 34.6888 0.0107558 35.6692C-0.0190185 36.819 0.811089 37.7786 1.86391 37.8111H1.91631C2.94293 37.8111 3.79209 36.9166 3.82187 35.7864C3.84807 34.7447 3.85521 33.7005 3.84092 32.6575C3.73373 25.276 6.30504 18.3294 11.0797 13.1054C16.0555 7.65751 22.8584 4.72391 30.034 4.8398C38.9293 4.98173 47.2876 9.81766 52.3945 17.7721C53.0043 18.7135 54.1952 18.9401 55.048 18.2812C55.9114 17.6197 56.1198 16.3216 55.5136 15.3802C49.7076 6.33329 40.2061 0.835893 30.0947 0.673133ZM30.2472 11.7317C28.4358 11.6986 26.6277 11.9134 24.8652 12.371C23.8421 12.6354 23.2085 13.7591 23.4515 14.8789C23.6932 15.996 24.7318 16.6849 25.7441 16.4231C27.1876 16.0507 28.7322 15.8697 30.1876 15.8984C40.0465 16.0572 48.1856 24.6953 48.3345 35.1549C48.4083 40.3177 48.1749 45.5182 47.6425 50.6106C47.5234 51.7539 48.2749 52.7851 49.3206 52.9153C49.3944 52.9257 49.4659 52.9296 49.5397 52.9296C50.4925 52.9296 51.319 52.1458 51.4298 51.082C51.98 45.8125 52.2182 40.4322 52.1444 35.0898C51.9669 22.4023 42.1414 11.9231 30.2472 11.7317Z" fill="black" fill-opacity="0.87"/>
</svg>
