<svg width="81" height="80" viewBox="0 0 81 80" fill="none" xmlns="http://www.w3.org/2000/svg">
<path d="M9.19379 40.1488V40.0856C9.19379 33.6778 14.2196 28.6538 21.0031 28.6538C24.8664 28.6538 27.5988 29.8163 29.9239 31.8252L26.3433 36.159C24.7734 34.8403 23.2333 34.087 21.0348 34.087C17.8634 34.087 15.4119 36.7245 15.4119 40.0856V40.1488C15.4119 43.7294 17.8932 46.2739 21.3789 46.2739C22.8874 46.2739 24.0164 45.9596 24.8962 45.3625V42.6933H20.5939V38.233H30.6753V48.0949C28.3503 50.0423 25.1473 51.5192 21.1278 51.5192C14.281 51.5192 9.19379 46.8077 9.19379 40.1488Z" fill="#333333"/>
<path d="M32.3568 29.0928H50.0401V34.3994H38.387V37.6043H48.9408V42.4106H38.387V45.8963H50.1964V51.0784H32.3568V29.0928Z" fill="#333333"/>
<path d="M58.0848 34.4329H51.5207V29.0928H70.7739V34.4329H64.1782V51.0784H58.0848V34.4329Z" fill="#333333"/>
<path fill-rule="evenodd" clip-rule="evenodd" d="M0.5 40C0.5 17.9084 18.4084 0 40.5 0C62.5897 0 80.5 17.9084 80.5 40C80.5 62.0916 62.5916 80 40.5 80C18.4084 80 0.5 62.0916 0.5 40ZM78.9432 40.0001C78.9432 18.8031 61.6969 1.5569 40.5 1.5569C19.3012 1.5569 2.05685 18.8031 2.05685 40.0001C2.05685 61.197 19.3031 78.4432 40.5 78.4432C61.6969 78.4432 78.9432 61.197 78.9432 40.0001Z" fill="#333333"/>
</svg>
