<svg width="80" height="80" viewBox="0 0 80 80" xmlns="http://www.w3.org/2000/svg">
  <path d="M66 25h-4.9c1.1-1.6 1.9-3.8 1.9-6 0-5.5-4.1-10-9.3-10-5.3 0-8.3 3.1-13.7 12-5.4-8.9-8.4-12-13.6-12C21 9 17 13.5 17 19c0 2.3.8 4.4 1.9 6H14a6 6 0 0 0-6 6v12c0 1.1.9 2 2 2h2v18a6 6 0 0 0 6 6h44a6 6 0 0 0 6-6V45h2a2 2 0 0 0 2-2V31a6 6 0 0 0-6-6zm-23.5-.5C48.8 14.1 50.8 13 53.6 13c3 0 5.4 2.8 5.4 6 0 3.3-2.4 6-5.3 6H42.3l.3-.5zM26.4 13c2.9 0 4.9 1.1 11.1 11.5l.3.5H26.3c-3 0-5.3-2.6-5.3-6 0-3.3 2.4-6 5.4-6zM32 65H18a2 2 0 0 1-2-2V45h16v20zm0-24H12V31c0-1.1.9-2 2-2h18v12zm12 24h-8V29h8v36zm20-2a2 2 0 0 1-2 2H48V45h16v18zm4-22H48V29h18a2 2 0 0 1 2 2v10z" fill="#FFF" fill-rule="nonzero"/>
</svg>
