<svg width="24" height="24" viewBox="0 0 24 24" fill="none" xmlns="http://www.w3.org/2000/svg">
<path fill-rule="evenodd" clip-rule="evenodd" d="M0.800049 11.9998C0.800049 5.81271 5.81295 0.799805 12 0.799805C18.1871 0.799805 23.2 5.81271 23.2 11.9998C23.2 18.1869 18.1871 23.1998 12 23.1998C5.81295 23.1998 0.800049 18.1869 0.800049 11.9998ZM16.9994 7.66432H20.7252C19.5736 5.35206 17.5323 3.55916 15.0485 2.73722C15.911 3.95206 16.593 5.65916 16.9994 7.66432ZM15.9742 11.9998C15.9742 13.034 15.902 13.9959 15.78 14.8901H8.22003C8.09809 13.9959 8.02584 13.034 8.02584 11.9998C8.02584 10.9656 8.09809 10.0037 8.22003 9.10948H15.78C15.902 10.0037 15.9742 10.9656 15.9742 11.9998ZM15.5271 7.66432C14.7729 4.23658 13.2148 2.24497 12 2.24497C10.7852 2.24497 9.22711 4.23658 8.47291 7.66432H15.5271ZM8.95162 2.73722C8.09355 3.94755 7.4071 5.65464 7.00065 7.66432H3.27484C4.42646 5.35206 6.46775 3.55916 8.95162 2.73722ZM2.68329 9.10948C2.39877 10.0217 2.24522 10.9927 2.24522 11.9998C2.24522 13.0069 2.39877 13.9779 2.68329 14.8901H6.77038C6.64845 13.9643 6.58071 13.0024 6.58071 11.9998C6.58071 10.9972 6.65296 10.0353 6.77038 9.10948H2.68329ZM3.27484 16.3353H7.00065C7.4071 18.3404 8.08904 20.0475 8.95162 21.2624C6.46775 20.4404 4.42646 18.6475 3.27484 16.3353ZM8.47291 16.3353C9.22711 19.763 10.7852 21.7546 12 21.7546C13.2148 21.7546 14.7729 19.763 15.5271 16.3353H8.47291ZM15.0485 21.2624C15.9065 20.0521 16.593 18.345 16.9994 16.3353H20.7252C19.5736 18.6475 17.5323 20.4404 15.0485 21.2624ZM17.4194 11.9998C17.4194 13.0024 17.3471 13.9643 17.2297 14.8901H21.3168C21.6013 13.9779 21.7549 13.0069 21.7549 11.9998C21.7549 10.9927 21.6013 10.0217 21.3168 9.10948H17.2297C17.3516 10.0353 17.4194 10.9972 17.4194 11.9998Z" fill="black" fill-opacity="0.6"/>
</svg>
