<svg width="28" height="28" viewBox="0 0 28 28" fill="none" xmlns="http://www.w3.org/2000/svg">
<path fill-rule="evenodd" clip-rule="evenodd" d="M24.4386 9.99668L22.3998 8.35605V6.9998C22.3998 6.22661 21.773 5.5998 20.9998 5.5998H18.9654L18.5192 5.24543C18.3841 5.13677 18.2354 5.01045 18.0742 4.87357L18.0741 4.87354C17.0866 4.03492 15.6321 2.7998 13.9998 2.7998C12.3786 2.7998 10.9441 4.01342 9.94202 4.86117C9.7759 5.00171 9.62166 5.1322 9.48043 5.24543L9.03418 5.5998H6.9998C6.22661 5.5998 5.5998 6.22661 5.5998 6.9998V8.35605L3.56543 9.9923C3.08143 10.3906 2.80064 10.9842 2.7998 11.6111V23.0998C2.7998 24.2596 3.74001 25.1998 4.8998 25.1998H23.0998C24.2596 25.1998 25.1998 24.2596 25.1998 23.0998V11.6154C25.2 10.9893 24.9209 10.3958 24.4386 9.99668ZM14.002 4.19981C14.9551 4.20092 15.9516 4.93094 16.7604 5.5998H11.2435C12.0523 4.93094 13.0532 4.20092 14.002 4.19981ZM14.002 4.19981L13.9998 4.1998H14.0041L14.002 4.19981ZM20.9998 14.5817V6.99981H6.99982V14.5817C8.28301 15.6186 9.59145 16.6627 10.5189 17.4028L10.5192 17.403L10.5194 17.4032L10.7886 17.6179C10.9119 17.7163 11.0557 17.838 11.2145 17.9723C12.0015 18.6382 13.1552 19.6144 13.9998 19.5998C14.8445 19.6144 15.9981 18.6383 16.7851 17.9723L16.7851 17.9723L16.7851 17.9723L16.7852 17.9723L16.7852 17.9723C16.9439 17.838 17.0877 17.7163 17.2111 17.6179C18.1429 16.8786 19.5867 15.7192 20.9998 14.5817ZM4.19982 11.6154C4.19887 11.4057 4.292 11.2066 4.45357 11.0729L5.59982 10.1542V13.4573L4.19982 12.3285V11.6154ZM23.0998 23.7998C23.4864 23.7998 23.7998 23.4864 23.7998 23.0998V14.1267C21.9317 15.6317 19.4555 17.6223 18.0817 18.7117C17.9439 18.8219 17.7915 18.9509 17.6266 19.0904C16.6924 19.881 15.3572 21.011 13.9998 20.9998C12.6386 21.011 11.29 19.868 10.3652 19.0844C10.2022 18.9462 10.0524 18.8192 9.91796 18.7117C8.54421 17.6223 6.07234 15.6361 4.19984 14.1311V23.0998C4.19984 23.4864 4.51324 23.7998 4.89984 23.7998H23.0998ZM23.7998 12.3285L22.3998 13.4573V10.1542L23.546 11.0729C23.7076 11.2066 23.8007 11.4057 23.7998 11.6154V12.3285ZM14.7874 13.9167L12.8186 13.3261H12.8099C11.9961 13.0811 11.4274 12.2979 11.4274 11.4229C11.4147 10.3693 12.2426 9.49673 13.2955 9.45418V8.7498C13.2955 8.55651 13.4522 8.39981 13.6455 8.39981H14.3455C14.5388 8.39981 14.6955 8.55651 14.6955 8.7498V9.46293C15.1923 9.48777 15.6705 9.65986 16.0692 9.9573C16.1504 10.0205 16.1997 10.1163 16.2039 10.2191C16.2081 10.3219 16.1669 10.4214 16.0911 10.4911L15.5749 10.9811C15.4567 11.0992 15.2774 11.0992 15.1374 11.0117C14.9667 10.9067 14.7742 10.8498 14.573 10.8498H13.3436C13.0592 10.8498 12.8274 11.1079 12.8274 11.4273C12.8198 11.677 12.9759 11.9024 13.2124 11.9829L15.1811 12.5736C15.9949 12.8186 16.5636 13.6017 16.5636 14.4767C16.5763 15.5304 15.7484 16.4029 14.6955 16.4454V17.1498C14.6955 17.3431 14.5388 17.4998 14.3455 17.4998H13.6455C13.4522 17.4998 13.2955 17.3431 13.2955 17.1498V16.4367C12.8011 16.4104 12.3199 16.2398 11.9217 15.9423C11.8405 15.8791 11.7913 15.7833 11.7871 15.6805C11.7829 15.5777 11.8241 15.4782 11.8999 15.4086L12.4205 14.9186C12.5386 14.8004 12.718 14.8004 12.858 14.8879C13.0269 14.9945 13.2227 15.0506 13.4224 15.0498H14.6517C14.9361 15.0498 15.168 14.7917 15.168 14.4723C15.1762 14.2238 15.022 13.9988 14.7874 13.9167Z" fill="#424547"/>
</svg>
