<svg width="28" height="28" viewBox="0 0 28 28" fill="none" xmlns="http://www.w3.org/2000/svg">
<path d="M13.9217 18.5382C14.5634 18.5382 15.0823 19.057 15.0823 19.6988C15.0823 20.3385 14.5634 20.8594 13.9217 20.8594C13.2799 20.8594 12.761 20.3395 12.761 19.6988C12.761 19.057 13.2799 18.5382 13.9217 18.5382Z" fill="black" fill-opacity="0.87"/>
<path d="M13.9227 7.48609C16.3315 7.48609 18.2923 9.44688 18.2923 11.8557L18.2954 11.8567C18.2954 14.0008 16.743 15.7783 14.7062 16.1471V16.6295C14.7062 17.0608 14.3551 17.4109 13.9248 17.4109C13.4945 17.4109 13.1434 17.0608 13.1434 16.6295V15.4449C13.1434 15.0135 13.4945 14.6635 13.9248 14.6635C15.4709 14.6635 16.7316 13.4039 16.7316 11.8557C16.7316 10.3095 15.4719 9.04889 13.9237 9.04889C12.3766 9.04889 11.1159 10.3085 11.1159 11.8557C11.1159 12.287 10.7659 12.6371 10.3345 12.6371C9.9032 12.6371 9.55314 12.287 9.55314 11.8557C9.55314 9.44688 11.5139 7.48609 13.9227 7.48609Z" fill="black" fill-opacity="0.87"/>
<path fill-rule="evenodd" clip-rule="evenodd" d="M2.79987 13.9998C2.79987 20.176 7.82372 25.1998 13.9999 25.1998C20.176 25.1998 25.1999 20.176 25.1999 13.9998C25.1999 7.82366 20.175 2.7998 13.9999 2.7998C7.82476 2.7998 2.79987 7.82366 2.79987 13.9998ZM4.36266 13.9998C4.36266 8.68632 8.68638 4.3626 13.9999 4.3626C19.3134 4.3626 23.6371 8.68632 23.6371 13.9998C23.6371 19.3133 19.3134 23.637 13.9999 23.637C8.68638 23.637 4.36266 19.3133 4.36266 13.9998Z" fill="black" fill-opacity="0.87"/>
</svg>
