<?xml version="1.0" encoding="UTF-8"?>
<svg width="25px" height="25px" viewBox="0 0 28 28" version="1.1" xmlns="http://www.w3.org/2000/svg" xmlns:xlink="http://www.w3.org/1999/xlink">
    <!-- Generator: Sketch 59.1 (86144) - https://sketch.com -->
    <title>🔩 Parts/Icon/Font Awesome/history-solid</title>
    <desc>Created with Sketch.</desc>
    <g id="🔩-Parts/Icon/Font-Awesome/history-solid" stroke="none" stroke-width="1" fill="none" fill-rule="evenodd">
        <path d="M25.154949,13.9563268 C25.1663324,20.1147493 20.144,25.1505577 13.9855775,25.1548874 C11.3257465,25.1567775 8.88256901,24.2295887 6.96261408,22.6800225 C6.46336901,22.277093 6.4260507,21.5288789 6.87972958,21.0752 L7.38753803,20.5673915 C7.7755493,20.1793803 8.39499718,20.1369239 8.82487887,20.4779718 C10.2394141,21.6004507 12.0295662,22.2704225 13.9774648,22.2704225 C18.5613521,22.2704225 22.2704225,18.560631 22.2704225,13.9774648 C22.2704225,9.39357746 18.560631,5.68450704 13.9774648,5.68450704 C11.7773972,5.68450704 9.7792,6.53944789 8.29552676,7.93496338 L10.583031,10.2224676 C11.0373408,10.6767775 10.7155831,11.4535211 10.0731493,11.4535211 L3.52112676,11.4535211 C3.12283944,11.4535211 2.8,11.1306817 2.8,10.7323944 L2.8,4.18037183 C2.8,3.53793803 3.57674366,3.21618028 4.03105352,3.67044507 L6.25627042,5.89566197 C8.26294085,3.97796056 10.9826254,2.8 13.9774648,2.8 C20.1435493,2.8 25.1435268,7.79290141 25.154949,13.9563268 Z M17.0011493,17.5071549 L17.4438761,16.9379155 C17.8106592,16.4663437 17.7257014,15.7867268 17.2541296,15.4199887 L15.4197183,13.9931944 L15.4197183,9.29014085 C15.4197183,8.69273239 14.9354366,8.2084507 14.3380282,8.2084507 L13.6169014,8.2084507 C13.019493,8.2084507 12.5352113,8.69273239 12.5352113,9.29014085 L12.5352113,15.4039887 L15.4832225,17.6969014 C15.9547944,18.0636394 16.6343662,17.9787268 17.0011493,17.5071549 L17.0011493,17.5071549 Z" id="↳-💧-Icon-Content" fill="#FFFFFF" fill-rule="nonzero"></path>
    </g>
</svg>