<svg width="28" height="28" viewBox="0 0 28 28" fill="none" xmlns="http://www.w3.org/2000/svg">
<path fill-rule="evenodd" clip-rule="evenodd" d="M20.7917 3.7085H6.625C5.6585 3.7085 4.875 4.492 4.875 5.4585V10.2918C4.875 11.2583 5.6585 12.0418 6.625 12.0418H20.7917C21.7582 12.0418 22.5417 11.2583 22.5417 10.2918V5.4585C22.5417 4.492 21.7582 3.7085 20.7917 3.7085ZM6.125 5.4585C6.125 5.18235 6.34886 4.9585 6.625 4.9585H20.7917C21.0678 4.9585 21.2917 5.18235 21.2917 5.4585V10.2918C21.2917 10.568 21.0678 10.7918 20.7917 10.7918H6.625C6.34886 10.7918 6.125 10.568 6.125 10.2918V5.4585ZM20.7917 15.3752H6.625C5.6585 15.3752 4.875 16.1587 4.875 17.1252V21.9585C4.875 22.925 5.6585 23.7085 6.625 23.7085H20.7917C21.7582 23.7085 22.5417 22.925 22.5417 21.9585V17.1252C22.5417 16.1587 21.7582 15.3752 20.7917 15.3752ZM6.125 17.1252C6.125 16.849 6.34886 16.6252 6.625 16.6252H20.7917C21.0678 16.6252 21.2917 16.849 21.2917 17.1252V21.9585C21.2917 22.2346 21.0678 22.4585 20.7917 22.4585H6.625C6.34886 22.4585 6.125 22.2346 6.125 21.9585V17.1252Z" fill="black" fill-opacity="0.87"/>
</svg>
