<svg width="20" height="20" viewBox="0 0 20 20" fill="none" xmlns="http://www.w3.org/2000/svg">
<path fill-rule="evenodd" clip-rule="evenodd" d="M0.400391 10.0004C0.400391 4.70038 4.69883 0.400391 10.0004 0.400391C15.3019 0.400391 19.6004 4.70038 19.6004 10.0004C19.6004 15.3035 15.3019 19.6004 10.0004 19.6004C4.69883 19.6004 0.400391 15.3035 0.400391 10.0004ZM10.0004 18.3617C14.6219 18.3617 18.3617 14.6181 18.3617 10.0004C18.3617 5.35813 14.5922 1.6391 10.0004 1.6391C5.37854 1.6391 1.63911 5.38608 1.63911 10.0004C1.63911 14.6238 5.3845 18.3617 10.0004 18.3617ZM8.60691 13.7165H9.07143V9.07136H8.60691C8.35038 9.07136 8.14239 8.86337 8.14239 8.60684V8.29716C8.14239 8.04063 8.35038 7.83265 8.60691 7.83265H10.465C10.7215 7.83265 10.9295 8.04063 10.9295 8.29716V13.7165H11.394C11.6505 13.7165 11.8585 13.9245 11.8585 14.181V14.4907C11.8585 14.7472 11.6505 14.9552 11.394 14.9552H8.60691C8.35038 14.9552 8.14239 14.7472 8.14239 14.4907V14.181C8.14239 13.9245 8.35038 13.7165 8.60691 13.7165ZM8.76168 5.66491C8.76168 4.98079 9.31628 4.4262 10.0004 4.4262C10.6845 4.4262 11.2391 4.98079 11.2391 5.66491C11.2391 6.34902 10.6845 6.90361 10.0004 6.90361C9.31628 6.90361 8.76168 6.34902 8.76168 5.66491Z" fill="black" fill-opacity="0.87"/>
</svg>
