<svg width="28" height="28" viewBox="0 0 28 28" fill="none" xmlns="http://www.w3.org/2000/svg">
<path fill-rule="evenodd" clip-rule="evenodd" d="M2.80005 14C2.80005 7.8167 7.81489 2.80005 14 2.80005C20.1852 2.80005 25.2 7.8167 25.2 14C25.2 20.187 20.1852 25.2 14 25.2C7.81489 25.2 2.80005 20.187 2.80005 14ZM14.0001 23.7549C19.3919 23.7549 23.7549 19.3874 23.7549 14.0001C23.7549 8.58408 19.3571 4.24521 14.0001 4.24521C8.60789 4.24521 4.24522 8.61669 4.24522 14.0001C4.24522 19.394 8.61485 23.7549 14.0001 23.7549ZM12.3743 18.3355H12.9163V12.9162H12.3743C12.075 12.9162 11.8324 12.6735 11.8324 12.3742V12.013C11.8324 11.7137 12.075 11.471 12.3743 11.471H14.5421C14.8413 11.471 15.084 11.7137 15.084 12.013V18.3355H15.6259C15.9252 18.3355 16.1679 18.5782 16.1679 18.8775V19.2388C16.1679 19.538 15.9252 19.7807 15.6259 19.7807H12.3743C12.075 19.7807 11.8324 19.538 11.8324 19.2388V18.8775C11.8324 18.5782 12.075 18.3355 12.3743 18.3355ZM12.5549 8.94198C12.5549 8.14385 13.2019 7.49682 14.0001 7.49682C14.7982 7.49682 15.4452 8.14385 15.4452 8.94198C15.4452 9.74012 14.7982 10.3871 14.0001 10.3871C13.2019 10.3871 12.5549 9.74012 12.5549 8.94198Z" fill="black" fill-opacity="0.87"/>
</svg>
