<svg width="22" height="21" viewBox="0 0 22 21" fill="none" xmlns="http://www.w3.org/2000/svg">
<path d="M11 12.8701C10.384 12.8701 9.88004 12.3661 9.88004 11.7501V8.81007C9.88004 8.19407 10.384 7.69007 11 7.69007C11.616 7.69007 12.12 8.19407 12.12 8.81007V11.7501C12.12 12.3661 11.616 12.8701 11 12.8701Z" fill="#E61E39"/>
<path d="M11 16.6501C10.3815 16.6501 9.88004 16.1486 9.88004 15.5301C9.88004 14.9115 10.3815 14.4101 11 14.4101C11.6186 14.4101 12.12 14.9115 12.12 15.5301C12.12 16.1486 11.6186 16.6501 11 16.6501Z" fill="#E61E39"/>
<path fill-rule="evenodd" clip-rule="evenodd" d="M12.9378 2.07887C12.0754 0.58927 9.92504 0.58927 9.06264 2.07887L0.629039 16.6501C-0.23336 18.1397 0.841839 20.0101 2.56664 20.0101H19.4338C21.1586 20.0101 22.2338 18.1397 21.3714 16.6501L12.9378 2.07887ZM20.1094 17.3808C20.4097 17.8995 20.0337 18.5517 19.4338 18.5517H2.56664C1.96681 18.5517 1.5908 17.8995 1.89112 17.3808L10.3247 2.80955C10.6254 2.29036 11.3749 2.29021 11.6757 2.80939L20.1094 17.3808Z" fill="#E61E39"/>
</svg>
