<svg width="28" height="28" viewBox="0 0 28 28" fill="none" xmlns="http://www.w3.org/2000/svg">
<path fill-rule="evenodd" clip-rule="evenodd" d="M9.79999 10.4998C9.79999 6.24595 13.2482 2.7998 17.5 2.7998C21.7538 2.7998 25.2 6.248 25.2 10.4998C25.2 14.7537 21.7518 18.1998 17.5 18.1998C16.8303 18.1998 16.1721 18.1147 15.5336 17.9461L14.1875 19.2923C13.9905 19.4892 13.7234 19.5998 13.445 19.5998H12.6V21.3498C12.6 21.9297 12.1299 22.3998 11.55 22.3998H9.79999V24.1498C9.79999 24.7297 9.32989 25.1998 8.74999 25.1998H3.84999C3.27008 25.1998 2.79999 24.7297 2.79999 24.1498V20.1548C2.8 19.8764 2.91062 19.6093 3.10751 19.4124L10.0536 12.4662C9.88508 11.8277 9.79999 11.1695 9.79999 10.4998ZM23.8 10.4998C23.8 7.02041 20.9794 4.1998 17.5 4.1998C14.0206 4.1998 11.2 7.02041 11.2 10.4998C11.2 11.3297 11.3608 12.1219 11.6524 12.8475L4.20002 20.2998V23.7998H8.40002V20.9998H11.2V18.1998H13.3L15.1524 16.3475C15.8779 16.639 16.6702 16.7998 17.5 16.7998C20.9794 16.7998 23.8 13.9792 23.8 10.4998ZM19.6 7.52481C20.0824 7.52481 20.475 7.91733 20.475 8.39981C20.475 8.88228 20.0824 9.27481 19.6 9.27481C19.1175 9.27481 18.725 8.88228 18.725 8.39981C18.725 7.91733 19.1175 7.52481 19.6 7.52481ZM17.5 8.3998C17.5 7.23999 18.4402 6.2998 19.6 6.2998C20.7598 6.2998 21.7 7.23999 21.7 8.3998C21.7 9.55962 20.7598 10.4998 19.6 10.4998C18.4402 10.4998 17.5 9.55962 17.5 8.3998Z" fill="black" fill-opacity="0.87"/>
</svg>
