<svg width="80" height="80" viewBox="0 0 80 80" xmlns="http://www.w3.org/2000/svg">
  <path d="M36.627 51.155a5.554 5.554 0 0 1-2.249-4.462c0-3.08 2.517-5.578 5.622-5.578s5.622 2.498 5.622 5.578a5.554 5.554 0 0 1-2.249 4.462v3.346c0 2.464-.89 4.462-3.373 4.462-2.484 0-3.373-1.998-3.373-4.462v-3.346zm18.754-17.08H20.866a2.584 2.584 0 0 0-2.588 2.579v29.002a2.584 2.584 0 0 0 2.588 2.58h38.268a2.584 2.584 0 0 0 2.588-2.58V36.654a2.584 2.584 0 0 0-2.588-2.58H55.38zm-30.762-3.766v-6.981C24.619 14.862 31.505 8 40 8c8.495 0 15.381 6.862 15.381 15.328v6.981h3.753c3.516 0 6.366 2.84 6.366 6.345v29.002C65.5 69.16 62.65 72 59.134 72H20.866c-3.516 0-6.366-2.84-6.366-6.344V36.654c0-3.504 2.85-6.345 6.366-6.345h3.753zm3.778 0h23.206v-6.981c0-6.386-5.195-11.563-11.603-11.563-6.408 0-11.603 5.177-11.603 11.563v6.981z" fill="#C4C4C4" fill-rule="evenodd"/>
</svg>
