<svg width="28" height="28" viewBox="0 0 28 28" fill="none" xmlns="http://www.w3.org/2000/svg">
<path d="M14 2.4C20.1687 2.4 25.2 7.43125 25.2 13.6C25.2 19.8125 20.1687 24.8 14 24.8C7.7875 24.8 2.8 19.8125 2.8 13.6C2.8 7.43125 7.7875 2.4 14 2.4ZM14 22.7C18.9875 22.7 23.1 18.6313 23.1 13.6C23.1 8.6125 18.9875 4.5 14 4.5C8.96875 4.5 4.9 8.6125 4.9 13.6C4.9 18.6313 8.96875 22.7 14 22.7ZM14 15.7C13.3875 15.7 12.95 15.2625 12.95 14.65V9.05C12.95 8.48125 13.3875 8 14 8C14.5687 8 15.05 8.48125 15.05 9.05V14.65C15.05 15.2625 14.5687 15.7 14 15.7ZM14 17.1875C14.7437 17.1875 15.3562 17.8 15.3562 18.5438C15.3562 19.2875 14.7437 19.9 14 19.9C13.2125 19.9 12.6 19.2875 12.6 18.5438C12.6 17.8 13.2125 17.1875 14 17.1875Z" fill="#424547"/>
</svg>
