<svg width="28" height="28" viewBox="0 0 28 28" fill="none" xmlns="http://www.w3.org/2000/svg">
<path d="M21.8138 4.6665H6.41958C4.80904 4.6665 3.5 5.9766 3.5 7.58821V20.8537C3.5 22.4653 4.80904 23.7765 6.41958 23.7765H21.8138C23.4243 23.7765 24.7333 22.4653 24.7333 20.8537V7.58821C24.7333 5.9766 23.4243 4.6665 21.8138 4.6665ZM6.41958 6.259H21.8138C22.5463 6.259 23.1408 6.85354 23.1408 7.58609V8.34412L14.5944 14.0421C14.3046 14.2332 13.9298 14.2353 13.6389 14.04L5.0925 8.34412V7.58609C5.0925 6.85354 5.68703 6.259 6.41958 6.259ZM21.8138 22.1819H6.41958C5.68703 22.1819 5.0925 21.5873 5.0925 20.8548V10.2105L12.779 15.3384C13.1856 15.6102 13.6517 15.7461 14.1167 15.7461C14.5838 15.7461 15.0477 15.6102 15.4544 15.3394L23.1408 10.2116V20.8516C23.1408 21.5842 22.5463 22.1787 21.8138 22.1787V22.1819Z" fill="black" fill-opacity="0.87"/>
</svg>
