<?xml version="1.0" encoding="UTF-8"?>
<svg width="25px" height="25px" viewBox="0 0 28 28" version="1.1" xmlns="http://www.w3.org/2000/svg" xmlns:xlink="http://www.w3.org/1999/xlink">
    <!-- Generator: Sketch 59.1 (86144) - https://sketch.com -->
    <title>🔩 Parts/Icon/Font Awesome/map-marker-alt-fill</title>
    <desc>Created with Sketch.</desc>
    <g id="🔩-Parts/Icon/Font-Awesome/map-marker-alt-fill" stroke="none" stroke-width="1" fill="none" fill-rule="evenodd">
        <g id="map-marker-alt-filled" transform="translate(5.600000, 2.800000)" fill="#FFFFFF" fill-rule="nonzero">
            <path d="M7.5368125,21.9480625 C1.1799375,12.7325625 0,11.7866875 0,8.4 C0,3.76075 3.76075,0 8.4,0 C13.03925,0 16.8,3.76075 16.8,8.4 C16.8,11.7866875 15.6200625,12.7325625 9.2631875,21.9480625 C9.06692643,22.2310713 8.74440152,22.3998964 8.4,22.3998964 C8.05559848,22.3998964 7.73307357,22.2310713 7.5368125,21.9480625 Z M8.4,11.9 C10.3329966,11.9 11.9,10.3329966 11.9,8.4 C11.9,6.46700338 10.3329966,4.9 8.4,4.9 C6.46700338,4.9 4.9,6.46700338 4.9,8.4 C4.9,10.3329966 6.46700338,11.9 8.4,11.9 L8.4,11.9 Z" id="Shape"></path>
        </g>
    </g>
</svg>