<svg width="28" height="28" viewBox="0 0 28 28" fill="none" xmlns="http://www.w3.org/2000/svg">
<path fill-rule="evenodd" clip-rule="evenodd" d="M13.9998 2.7998C9.36054 2.7998 5.59979 6.56055 5.59979 11.1998C5.59979 13.9825 6.39641 15.1174 10.2069 20.5458C11.0339 21.724 12.0029 23.1044 13.1366 24.7479C13.3329 25.0309 13.6554 25.1997 13.9998 25.1997C14.3442 25.1997 14.6667 25.0309 14.863 24.7479C15.9966 23.1044 16.9657 21.724 17.7927 20.5458C21.6032 15.1174 22.3998 13.9825 22.3998 11.1998C22.3998 6.56055 18.639 2.7998 13.9998 2.7998ZM9.79981 11.1998C9.79981 8.88368 11.6837 6.99981 13.9998 6.99981C16.3159 6.99981 18.1998 8.88368 18.1998 11.1998C18.1998 13.5159 16.3159 15.3998 13.9998 15.3998C11.6837 15.3998 9.79981 13.5159 9.79981 11.1998ZM11.1998 11.1998C11.1998 12.7437 12.4558 13.9998 13.9998 13.9998C15.5437 13.9998 16.7998 12.7437 16.7998 11.1998C16.7998 9.65587 15.5437 8.3998 13.9998 8.3998C12.4558 8.3998 11.1998 9.65587 11.1998 11.1998ZM11.2779 19.6321C12.0444 20.7249 12.9443 22.0079 13.9998 23.5342C15.057 22.0053 15.9581 20.7206 16.7253 19.6266C20.3811 14.414 20.9998 13.5318 20.9998 11.1998C20.9998 9.32993 20.2718 7.57206 18.9497 6.24993C17.6276 4.92781 15.8697 4.19981 13.9998 4.19981C12.1299 4.19981 10.3721 4.92781 9.04995 6.24993C7.72782 7.57206 6.99982 9.32993 6.99982 11.1998C6.99982 13.5329 7.6189 14.4155 11.2779 19.6321Z" fill="black" fill-opacity="0.87"/>
</svg>
