<svg width="160" height="100" viewBox="0 0 160 100" fill="none" xmlns="http://www.w3.org/2000/svg">
<path d="M0 7.84314C0 3.51149 3.58172 0 8 0H152C156.418 0 160 3.51149 160 7.84314V92.1569C160 96.4885 156.418 100 152 100H8C3.58172 100 0 96.4885 0 92.1569V7.84314Z" fill="#000066"/>
<path fill-rule="evenodd" clip-rule="evenodd" d="M90.8181 50.0005C90.8181 68.2267 76.0851 83 57.9098 83C39.734 83 25 68.2267 25 50.0005C25 31.7748 39.734 17 57.9098 17C76.0851 17 90.8181 31.7748 90.8181 50.0005Z" fill="#CC0000"/>
<path fill-rule="evenodd" clip-rule="evenodd" d="M102.092 17C93.5865 17 85.8396 20.2349 79.9982 25.5418C78.8099 26.6234 77.7005 27.7916 76.6765 29.0354H83.3256C84.2336 30.1441 85.0704 31.3097 85.8344 32.5305H74.1672C73.4693 33.6523 72.8348 34.8179 72.271 36.0257H87.7295C88.2579 37.1568 88.7228 38.3219 89.1233 39.5192H70.8773C70.4976 40.6572 70.1773 41.8233 69.9214 43.0123H90.0781C90.5608 45.2652 90.8177 47.6026 90.8177 50.0005C90.8177 53.6641 90.2222 57.1906 89.1233 60.4839H70.8773C71.2777 61.6802 71.7427 62.8468 72.27 63.9795H87.7295C87.1647 65.1842 86.5334 66.3508 85.8313 67.4742H74.1672C74.9281 68.6914 75.7664 69.8585 76.6765 70.9657H83.3235C82.3016 72.2105 81.1912 73.3787 79.9992 74.4603C85.8401 79.7672 93.5865 83 102.092 83C120.266 83 135 68.2267 135 50.0005C135 31.7764 120.266 17 102.092 17Z" fill="#FF9900"/>
<path fill-rule="evenodd" clip-rule="evenodd" d="M50.2245 53.6135C49.8495 53.5708 49.6841 53.5572 49.4267 53.5572C47.4016 53.5572 46.3776 54.2539 46.3776 55.6302C46.3776 56.4777 46.8773 57.0164 47.6574 57.0164C49.1131 57.0164 50.1621 55.6271 50.2245 53.6135ZM52.8234 59.6792C52.347 59.6792 49.8621 59.6792 49.8621 59.6792L49.9303 58.2685C49.0274 59.3825 47.8224 59.9144 46.1858 59.9144C44.2501 59.9144 42.9224 58.3989 42.9224 56.1966C42.9224 52.8813 45.2309 50.9481 49.1944 50.9481C49.6005 50.9481 50.1196 50.9856 50.6511 51.0529C50.7613 50.6034 50.7905 50.4125 50.7905 50.17C50.7905 49.2688 50.1685 48.9309 48.4996 48.9309C46.7516 48.9132 45.31 49.3497 44.7176 49.5447C44.7551 49.3184 45.2133 46.4829 45.2133 46.4829C46.9929 45.9583 48.1672 45.7622 49.4887 45.7622C52.5571 45.7622 54.1823 47.1432 54.1787 49.7538C54.1849 50.4542 54.069 51.3152 53.8895 52.4511C53.5796 54.4224 52.9139 58.6503 52.8234 59.6792Z" fill="#000066"/>
<path fill-rule="evenodd" clip-rule="evenodd" d="M41.4271 59.6792H37.8538L39.9018 46.8126L35.3309 59.6792H32.8965L32.5954 46.8845L30.4444 59.6792H27.1003L29.8936 42.9404H35.0314L35.3418 52.3098L38.4763 42.9404H44.1903L41.4271 59.6792Z" fill="#000066"/>
<path fill-rule="evenodd" clip-rule="evenodd" d="M106.506 53.6135C106.131 53.5708 105.968 53.5572 105.711 53.5572C103.684 53.5572 102.661 54.2539 102.661 55.6302C102.661 56.4777 103.159 57.0164 103.941 57.0164C105.396 57.0164 106.445 55.6271 106.506 53.6135ZM109.107 59.6792C108.629 59.6792 106.146 59.6792 106.146 59.6792L106.213 58.2685C105.311 59.3825 104.106 59.9144 102.471 59.9144C100.532 59.9144 99.2061 58.3989 99.2061 56.1966C99.2061 52.8813 101.516 50.9481 105.478 50.9481C105.884 50.9481 106.402 50.9856 106.934 51.0529C107.045 50.6034 107.073 50.4125 107.073 50.17C107.073 49.2688 106.451 48.9309 104.782 48.9309C103.034 48.9132 101.593 49.3497 100.999 49.5447C101.038 49.3184 101.497 46.4829 101.497 46.4829C103.276 45.9583 104.451 45.7622 105.771 45.7622C108.841 45.7622 110.464 47.1432 110.461 49.7538C110.468 50.4542 110.353 51.3152 110.172 52.4511C109.863 54.4224 109.196 58.6503 109.107 59.6792Z" fill="#000066"/>
<path fill-rule="evenodd" clip-rule="evenodd" d="M68.7009 59.4721C67.7226 59.7809 66.9607 59.9144 66.1338 59.9144C64.3079 59.9144 63.3109 58.862 63.3109 56.9235C63.2854 56.3217 63.5735 54.7389 63.8003 53.2954C64.0073 52.0234 65.3501 44.0058 65.3501 44.0058H68.9006L68.4861 46.0663H70.6314L70.1472 49.3382H67.9946C67.5822 51.9264 66.994 55.1515 66.9873 55.5791C66.9873 56.281 67.3607 56.5877 68.211 56.5877C68.6182 56.5877 68.9333 56.546 69.1741 56.4594L68.7009 59.4721Z" fill="#000066"/>
<path fill-rule="evenodd" clip-rule="evenodd" d="M79.5894 59.3621C78.3694 59.736 77.1935 59.9186 75.9458 59.9144C71.9699 59.9092 69.8975 57.8284 69.8975 53.8414C69.8975 49.1885 72.5337 45.7622 76.1133 45.7622C79.0408 45.7622 80.9114 47.6803 80.9114 50.6873C80.9114 51.6871 80.7835 52.6613 80.473 54.0359H73.4012C73.1624 56.0109 74.422 56.8333 76.4893 56.8333C77.7588 56.8333 78.9061 56.5705 80.1807 55.9775L79.5894 59.3621ZM77.5932 51.2923C77.6135 51.0081 77.9692 48.8621 75.9394 48.8621C74.8098 48.8621 74.0001 49.7267 73.6719 51.2923H77.5932Z" fill="#000066"/>
<path fill-rule="evenodd" clip-rule="evenodd" d="M54.9662 50.3703C54.9662 52.0907 55.7983 53.2782 57.6862 54.1705C59.1325 54.8532 59.3577 55.055 59.3577 55.673C59.3577 56.5204 58.719 56.9053 57.306 56.9053C56.2393 56.9053 55.2481 56.7374 54.1045 56.3666C54.1045 56.3666 53.6359 59.3684 53.6135 59.5118C54.4253 59.6881 55.1493 59.8523 57.3315 59.9144C61.1009 59.9144 62.8421 58.475 62.8421 55.3642C62.8421 53.4941 62.114 52.3963 60.3239 51.5703C58.8267 50.8813 58.6535 50.727 58.6535 50.0918C58.6535 49.3559 59.2479 48.9799 60.402 48.9799C61.1035 48.9799 62.061 49.055 62.9695 49.1838L63.4776 46.0266C62.553 45.879 61.1498 45.7622 60.3333 45.7622C56.3371 45.7622 54.9532 47.855 54.9662 50.3703Z" fill="#000066"/>
<path fill-rule="evenodd" clip-rule="evenodd" d="M96.965 46.1215C97.9573 46.1215 98.8841 46.3802 100.158 47.0253L100.743 43.3925C100.218 43.186 98.376 41.9755 96.8158 41.9755C94.4256 41.9755 92.4025 43.1667 90.9822 45.1281C88.9082 44.4397 88.0547 45.8311 87.0104 47.2183L86.0821 47.4352C86.1523 46.9789 86.2163 46.5257 86.196 46.0663H82.9134C82.4661 50.2806 81.672 54.5475 81.0505 58.7634L80.8877 59.6792H84.4621C85.0586 55.7919 85.3847 53.3037 85.5834 51.6182L86.9293 50.8704C87.1316 50.1189 87.7593 49.8665 89.0221 49.8973C88.8572 50.7849 88.7677 51.7199 88.7677 52.6873C88.7677 57.1415 91.1673 59.9144 95.0117 59.9144C96.0024 59.9144 96.8532 59.784 98.1706 59.4242L98.7967 55.6099C97.612 56.1934 96.6421 56.4683 95.7627 56.4683C93.6855 56.4683 92.4285 54.9303 92.4285 52.3901C92.4285 48.7035 94.2966 46.1215 96.965 46.1215Z" fill="#000066"/>
<path fill-rule="evenodd" clip-rule="evenodd" d="M127.214 42.9404L126.419 47.7763C125.444 46.4877 124.395 45.5542 123.009 45.5542C121.207 45.5542 119.566 46.9247 118.492 48.9429C116.995 48.6316 115.449 48.1022 115.449 48.1022L115.448 48.1153C115.567 46.9873 115.618 46.301 115.606 46.0663H112.324C111.878 50.2806 111.083 54.5476 110.462 58.7634L110.297 59.6792H113.873C114.355 56.5376 114.724 53.9259 114.996 51.8576C116.218 50.7499 116.83 49.7867 118.062 49.8493C117.515 51.175 117.197 52.7009 117.197 54.2665C117.197 57.6683 118.912 59.9144 121.51 59.9144C122.82 59.9144 123.824 59.4612 124.804 58.4119L124.636 59.6782H128.016L130.738 42.9404H127.214ZM122.745 56.5345C121.53 56.5345 120.914 55.6302 120.914 53.8508C120.914 51.175 122.065 49.2782 123.685 49.2782C124.913 49.2782 125.578 50.2149 125.578 51.9442C125.578 54.643 124.408 56.5345 122.745 56.5345Z" fill="#000066"/>
<path fill-rule="evenodd" clip-rule="evenodd" d="M42.4552 58.6857H38.8829L40.9304 45.8191L36.3605 58.6857H33.9251L33.6245 45.8936L31.4729 58.6857H28.1289L30.9222 41.9484H36.0599L36.2035 52.3098L39.6702 41.9484H45.2188L42.4552 58.6857Z" fill="white"/>
<path fill-rule="evenodd" clip-rule="evenodd" d="M51.2528 52.6222C50.8783 52.5784 50.713 52.5664 50.4555 52.5664C48.4304 52.5664 47.4059 53.2621 47.4059 54.6373C47.4059 55.4837 47.9062 56.0255 48.6868 56.0255C50.1419 56.0255 51.1909 54.6362 51.2528 52.6222ZM53.8514 58.6857C53.3755 58.6857 50.8917 58.6857 50.8917 58.6857L50.9593 57.2761C50.0565 58.3895 48.8515 58.922 47.2148 58.922C45.2786 58.922 43.9514 57.4044 43.9514 55.2026C43.9514 51.8868 46.2605 49.9562 50.2239 49.9562C50.6291 49.9562 51.1481 49.9932 51.6801 50.0621C51.7904 49.6115 51.8195 49.4201 51.8195 49.1766C51.8195 48.2759 51.1975 47.9406 49.5286 47.9406C47.7801 47.9197 46.339 48.3562 45.7462 48.5507C45.7841 48.3255 46.2418 45.49 46.2418 45.49C48.022 44.9664 49.1963 44.7688 50.5178 44.7688C53.5857 44.7688 55.2103 46.1513 55.2077 48.7609C55.2135 49.4603 55.0985 50.3254 54.9186 51.4582C54.6081 53.4279 53.9424 57.6584 53.8514 58.6857Z" fill="white"/>
<path fill-rule="evenodd" clip-rule="evenodd" d="M101.77 42.399L101.185 46.0313C99.9096 45.3883 98.9854 45.1281 97.9942 45.1281C95.3267 45.1281 93.4555 47.7132 93.4555 51.4003C93.4555 53.9405 94.7131 55.4753 96.7902 55.4753C97.6702 55.4753 98.6422 55.2026 99.8243 54.6169L99.1966 58.4312C97.8813 58.7906 97.03 58.922 96.0398 58.922C92.1928 58.922 89.7969 56.1486 89.7969 51.6954C89.7969 45.7116 93.1092 41.5297 97.8439 41.5297C99.4041 41.5297 101.247 42.1925 101.77 42.399Z" fill="white"/>
<path fill-rule="evenodd" clip-rule="evenodd" d="M107.533 52.6222C107.161 52.5784 106.995 52.5664 106.738 52.5664C104.714 52.5664 103.689 53.2621 103.689 54.6373C103.689 55.4837 104.189 56.0255 104.969 56.0255C106.423 56.0255 107.473 54.6362 107.533 52.6222ZM110.134 58.6857C109.659 58.6857 107.174 58.6857 107.174 58.6857L107.241 57.2761C106.339 58.3895 105.134 58.922 103.499 58.922C101.56 58.922 100.235 57.4044 100.235 55.2026C100.235 51.8868 102.542 49.9562 106.506 49.9562C106.911 49.9562 107.429 49.9932 107.961 50.0621C108.072 49.6115 108.101 49.4201 108.101 49.1766C108.101 48.2759 107.48 47.9406 105.81 47.9406C104.063 47.9197 102.623 48.3562 102.029 48.5507C102.066 48.3255 102.524 45.49 102.524 45.49C104.305 44.9664 105.478 44.7688 106.799 44.7688C109.867 44.7688 111.494 46.1513 111.489 48.7609C111.497 49.4603 111.381 50.3254 111.201 51.4582C110.891 53.4279 110.226 57.6584 110.134 58.6857Z" fill="white"/>
<path fill-rule="evenodd" clip-rule="evenodd" d="M69.7286 58.4792C68.7514 58.7879 67.9885 58.922 67.1626 58.922C65.3362 58.922 64.3387 57.869 64.3387 55.9327C64.3137 55.3288 64.6023 53.7486 64.8296 52.3035C65.035 51.0305 66.3784 43.0139 66.3784 43.0139H69.9299L69.5144 45.0738H71.3377L70.852 48.3447H69.0229C68.6105 50.9356 68.0223 54.1585 68.015 54.5862C68.015 55.2902 68.39 55.5948 69.2393 55.5948C69.6465 55.5948 69.9611 55.5546 70.2029 55.4659L69.7286 58.4792Z" fill="white"/>
<path fill-rule="evenodd" clip-rule="evenodd" d="M80.6192 58.3713C79.3986 58.7462 78.2202 58.923 76.9741 58.922C72.9977 58.9194 70.9268 56.8359 70.9268 52.8495C70.9268 48.1951 73.5625 44.7688 77.1395 44.7688C80.0701 44.7688 81.9397 46.6869 81.9397 49.6975C81.9397 50.6952 81.8097 51.6688 81.5028 53.0441H74.4299C74.1902 55.019 75.4513 55.843 77.5165 55.843C78.787 55.843 79.9338 55.5791 81.21 54.9846L80.6192 58.3713ZM78.6228 50.2988C78.642 50.0141 78.9993 47.8691 76.97 47.8691C75.8394 47.8691 75.0297 48.7353 74.7005 50.2988H78.6228Z" fill="white"/>
<path fill-rule="evenodd" clip-rule="evenodd" d="M55.9935 49.3768C55.9935 51.1004 56.8266 52.2853 58.715 53.1786C60.1613 53.8607 60.3855 54.0626 60.3855 54.6811C60.3855 55.5296 59.7473 55.9124 58.3333 55.9124C57.2677 55.9124 56.2759 55.7465 55.1317 55.3768C55.1317 55.3768 54.6637 58.3765 54.6418 58.5178C55.4532 58.6962 56.1776 58.8589 58.3588 58.922C62.1293 58.922 63.8704 57.4831 63.8704 54.3723C63.8704 52.5012 63.1413 51.4039 61.3517 50.5799C59.854 49.8889 59.6818 49.7361 59.6818 49.0999C59.6818 48.364 60.2757 47.9854 61.4308 47.9854C62.1308 47.9854 63.0893 48.0637 63.9973 48.1919L64.506 45.0353C63.5808 44.8887 62.1787 44.7688 61.3616 44.7688C57.3644 44.7688 55.9815 46.8621 55.9935 49.3768Z" fill="white"/>
<path fill-rule="evenodd" clip-rule="evenodd" d="M129.044 58.6857H125.664L125.832 57.419C124.852 58.4688 123.847 58.922 122.538 58.922C119.942 58.922 118.224 56.6784 118.224 53.273C118.224 48.7452 120.887 44.9289 124.037 44.9289C125.423 44.9289 126.472 45.4963 127.449 46.7854L128.241 41.9484H131.765L129.044 58.6857ZM123.773 55.5405C125.437 55.5405 126.606 53.65 126.606 50.9538C126.606 49.224 125.94 48.2842 124.713 48.2842C123.092 48.2842 121.942 50.1815 121.942 52.8584C121.942 54.6399 122.558 55.5405 123.773 55.5405Z" fill="white"/>
<path fill-rule="evenodd" clip-rule="evenodd" d="M113.352 45.0738C112.906 49.2871 112.111 53.5541 111.489 57.7705L111.327 58.6857H114.9C116.178 50.3614 116.486 48.7369 118.491 48.9398C118.81 47.236 119.404 45.744 119.847 44.992C118.351 44.6791 117.515 45.527 116.42 47.1385C116.507 46.4412 116.665 45.7648 116.635 45.0738H113.352Z" fill="white"/>
<path fill-rule="evenodd" clip-rule="evenodd" d="M83.9435 45.0738C83.4947 49.2871 82.699 53.5541 82.0785 57.7705L81.9163 58.6857H85.4907C86.7695 50.3614 87.0758 48.7369 89.0781 48.9398C89.399 47.236 89.9945 45.744 90.436 44.992C88.9413 44.6791 88.104 45.527 87.0108 47.1385C87.0972 46.4412 87.2558 45.7648 87.2246 45.0738H83.9435Z" fill="white"/>
</svg>
