<svg width="28" height="28" viewBox="0 0 28 28" fill="none" xmlns="http://www.w3.org/2000/svg">
<path fill-rule="evenodd" clip-rule="evenodd" d="M6.99423 23.7608L5.59454 9.79979H15.0466C15.2398 9.79979 15.3965 9.64309 15.3965 9.44979V8.74979C15.3965 8.55649 15.2398 8.39979 15.0466 8.39979H9.29476L10.3445 4.1998H12.2472C12.4405 4.1998 12.5971 4.0431 12.5971 3.8498V3.1498C12.5971 2.95651 12.4405 2.7998 12.2472 2.7998H10.3445C9.70186 2.79955 9.1416 3.23707 8.98595 3.86074L7.85133 8.39979H3.14991C2.95665 8.39979 2.79999 8.55649 2.79999 8.74979V9.44979C2.79999 9.64309 2.95665 9.79979 3.14991 9.79979H4.19967V9.87329L5.59935 23.8999C5.64948 24.635 6.26249 25.2042 6.99904 25.1998H10.9836C10.6021 24.7918 10.3025 24.3145 10.1009 23.7936L6.99423 23.7608ZM25.1938 20.0054C25.1921 19.404 24.8987 18.8313 24.3863 18.4294C25.3331 17.655 25.4713 16.3862 24.7087 15.4698C24.5621 15.3219 24.4142 15.1605 24.2599 14.9922L24.2597 14.9921C23.8384 14.5327 23.3695 14.0213 22.7501 13.5887C21.0029 12.3684 20.054 12.3678 18.2045 12.3665L18.1957 12.3665C16.22 12.3678 14.7881 12.8256 13.6501 13.5887C12.8986 14.0927 12.2908 14.7216 11.684 15.4698C10.9211 16.386 11.0591 17.655 12.0059 18.4294C11.017 19.1988 10.9237 20.5206 11.7968 21.3903C11.4151 21.7055 11.1985 22.1438 11.1976 22.6026C11.1995 24.0363 12.53 25.1981 14.1719 25.1998H22.2195C23.8613 25.1981 25.1919 24.0363 25.1938 22.6026C25.1931 22.1439 24.9768 21.7056 24.5954 21.3903C24.979 21.0064 25.1914 20.5148 25.1938 20.0054ZM12.8255 16.1756C13.3784 15.493 13.9507 14.9638 14.7 14.5054C15.5381 13.9927 16.6021 13.5899 18.1956 13.5887C21.2136 13.5864 22.4 14.8109 23.5661 16.1756C24.1714 16.884 23.5587 17.8665 22.5504 17.8665H13.8407C12.8329 17.8665 12.2472 16.8879 12.8255 16.1756ZM12.597 22.6026C12.597 23.362 13.302 23.9776 14.1717 23.9776H22.2179C22.6355 23.9776 23.0373 23.8327 23.3326 23.5748C23.628 23.317 23.7939 22.9672 23.7939 22.6026C23.7939 22.3494 23.5589 22.1442 23.269 22.1442H13.1219C12.832 22.1442 12.597 22.3494 12.597 22.6026ZM13.6468 20.922C13.067 20.922 12.597 20.5116 12.597 20.0054C12.597 19.4991 13.067 19.0887 13.6468 19.0887H22.7441C23.3239 19.0887 23.7939 19.4991 23.7939 20.0054C23.7939 20.5116 23.3239 20.922 22.7441 20.922H13.6468ZM18.8952 15.3998C18.8952 15.7864 18.5819 16.0998 18.1954 16.0998C17.8089 16.0998 17.4955 15.7864 17.4955 15.3998C17.4955 15.0132 17.8089 14.6998 18.1954 14.6998C18.5819 14.6998 18.8952 15.0132 18.8952 15.3998ZM21.3445 16.7998C21.731 16.7998 22.0443 16.4864 22.0443 16.0998C22.0443 15.7132 21.731 15.3998 21.3445 15.3998C20.958 15.3998 20.6446 15.7132 20.6446 16.0998C20.6446 16.4864 20.958 16.7998 21.3445 16.7998ZM15.7461 16.0998C15.7461 16.4864 15.4328 16.7998 15.0463 16.7998C14.6598 16.7998 14.3465 16.4864 14.3465 16.0998C14.3465 15.7132 14.6598 15.3998 15.0463 15.3998C15.4328 15.3998 15.7461 15.7132 15.7461 16.0998ZM23.4271 8.31668L21.4584 7.72606H21.4496C20.6359 7.48106 20.0671 6.69793 20.0671 5.82293C20.0544 4.76926 20.8824 3.89673 21.9353 3.85418V3.14981C21.9353 2.95651 22.092 2.79981 22.2853 2.79981H22.9853C23.1786 2.79981 23.3353 2.95651 23.3353 3.14981V3.86293C23.8321 3.88778 24.3103 4.05987 24.709 4.35731C24.7902 4.42054 24.8395 4.51629 24.8437 4.61911C24.8479 4.72193 24.8066 4.8214 24.7309 4.89106L24.2146 5.38106C24.0965 5.49918 23.9171 5.49918 23.7771 5.41168C23.6065 5.30668 23.414 5.24981 23.2128 5.24981H21.9834C21.699 5.24981 21.4671 5.50793 21.4671 5.82731C21.4595 6.07696 21.6157 6.30235 21.8521 6.38293L23.8209 6.97356C24.6346 7.21856 25.2034 8.00168 25.2034 8.87668C25.2161 9.93035 24.3882 10.8029 23.3353 10.8454V11.5498C23.3353 11.7431 23.1786 11.8998 22.9853 11.8998H22.2853C22.092 11.8998 21.9353 11.7431 21.9353 11.5498V10.8367C21.4409 10.8104 20.9596 10.6398 20.5615 10.3423C20.4803 10.2791 20.4311 10.1833 20.4269 10.0805C20.4226 9.97768 20.4639 9.87822 20.5396 9.80856L21.0603 9.31856C21.1784 9.20043 21.3578 9.20043 21.4978 9.28793C21.6667 9.39446 21.8624 9.45061 22.0621 9.44981H23.2915C23.5759 9.44981 23.8078 9.19168 23.8078 8.87231C23.816 8.62381 23.6618 8.39879 23.4271 8.31668Z" fill="black" fill-opacity="0.87"/>
</svg>
