<svg width="28" height="28" viewBox="0 0 28 28" fill="none" xmlns="http://www.w3.org/2000/svg">
<path fill-rule="evenodd" clip-rule="evenodd" d="M6.99409 23.7608L5.59441 9.79978H15.0465C15.2397 9.79978 15.3963 9.64308 15.3963 9.44978V8.74978C15.3963 8.55648 15.2397 8.39978 15.0465 8.39978H9.29463L10.3444 4.1998H12.247C12.4404 4.1998 12.597 4.0431 12.597 3.8498V3.1498C12.597 2.9565 12.4404 2.7998 12.247 2.7998H10.3444C9.70172 2.79955 9.14147 3.23707 8.98582 3.86073L7.85121 8.39978H3.14978C2.95654 8.39978 2.79987 8.55648 2.79987 8.74978V9.44978C2.79987 9.64308 2.95654 9.79978 3.14978 9.79978H4.19955V9.87328L5.59923 23.8999C5.64935 24.635 6.26236 25.2042 6.99891 25.1998H10.9834C10.602 24.7918 10.3023 24.3145 10.1008 23.7936L6.99409 23.7608ZM25.1936 20.0053C25.1919 19.4039 24.8985 18.8313 24.3862 18.4294C25.3329 17.6549 25.4711 16.3862 24.7085 15.4698C24.5619 15.3218 24.414 15.1605 24.2596 14.9921V14.992C23.8383 14.5327 23.3693 14.0212 22.7499 13.5886C21.0027 12.3684 20.0539 12.3677 18.2044 12.3664H18.1955C16.2199 12.3678 14.7879 12.8255 13.65 13.5886C12.8985 14.0926 12.2907 14.7216 11.6839 15.4698C10.921 16.386 11.059 17.6549 12.0058 18.4294C11.0169 19.1988 10.9235 20.5206 11.7967 21.3902C11.415 21.7055 11.1983 22.1438 11.1975 22.6025C11.1994 24.0362 12.5298 25.1981 14.1718 25.1998H22.2193C23.8612 25.1981 25.1917 24.0362 25.1936 22.6025C25.1929 22.1439 24.9766 21.7056 24.5953 21.3902C24.9789 21.0064 25.1913 20.5148 25.1936 20.0053ZM12.8254 16.1756C13.3782 15.493 13.9505 14.9638 14.6998 14.5054C15.538 13.9927 16.602 13.5899 18.1954 13.5886C21.2134 13.5864 22.3998 14.811 23.5659 16.1756C24.1712 16.8839 23.5584 17.8665 22.5503 17.8665H13.8405C12.8327 17.8665 12.247 16.8879 12.8254 16.1756ZM12.5969 22.6025C12.5969 23.3619 13.3018 23.9776 14.1716 23.9776H22.2177C22.6354 23.9776 23.0372 23.8327 23.3325 23.5748C23.6277 23.317 23.7936 22.9672 23.7936 22.6025C23.7936 22.3494 23.5587 22.1441 23.2688 22.1441H13.1218C12.8319 22.1441 12.5969 22.3494 12.5969 22.6025ZM13.6467 20.9219C13.0669 20.9219 12.5969 20.5116 12.5969 20.0053C12.5969 19.4991 13.0669 19.0886 13.6467 19.0886H22.7439C23.3237 19.0886 23.7936 19.4991 23.7936 20.0053C23.7936 20.5116 23.3237 20.9219 22.7439 20.9219H13.6467ZM18.8951 15.3998C18.8951 15.7864 18.5818 16.0998 18.1953 16.0998C17.8088 16.0998 17.4954 15.7864 17.4954 15.3998C17.4954 15.0131 17.8088 14.6998 18.1953 14.6998C18.5818 14.6998 18.8951 15.0131 18.8951 15.3998ZM21.3443 16.7998C21.7309 16.7998 22.0441 16.4864 22.0441 16.0998C22.0441 15.7131 21.7309 15.3998 21.3443 15.3998C20.9578 15.3998 20.6445 15.7131 20.6445 16.0998C20.6445 16.4864 20.9578 16.7998 21.3443 16.7998ZM15.0461 15.3998C15.4326 15.3998 15.746 15.7131 15.746 16.0998C15.746 16.4864 15.4326 16.7998 15.0461 16.7998C14.6596 16.7998 14.3463 16.4864 14.3463 16.0998C14.3463 15.7131 14.6596 15.3998 15.0461 15.3998ZM17.5729 3.06229L17.6065 3.06335C17.8059 3.05264 18.009 3.12348 18.1614 3.27586L19.966 5.08045C20.2507 5.36521 20.2507 5.82689 19.966 6.11165C19.6812 6.3964 19.2195 6.3964 18.9348 6.11165L18.2288 5.40547L18.2291 10.4269C18.2291 10.7893 17.9353 11.0831 17.5729 11.0831C17.2104 11.0831 16.9166 10.7893 16.9166 10.4269L16.9163 5.27823L16.1046 6.09029C15.8483 6.34657 15.4328 6.34657 15.1765 6.09029C14.9203 5.83401 14.9203 5.4185 15.1765 5.16222L17.0843 3.2545C17.2007 3.13804 17.3501 3.0745 17.5024 3.06389L17.5729 3.06229ZM22.5312 3.06229C22.8936 3.06229 23.1874 3.35611 23.1874 3.71854L23.1871 8.73994L23.8931 8.03376C24.1779 7.749 24.6395 7.749 24.9243 8.03376C25.2091 8.31851 25.2091 8.7802 24.9243 9.06495L23.1197 10.8695C22.9673 11.0219 22.7643 11.0928 22.5648 11.0821L22.5312 11.0831L22.4607 11.0815C22.3084 11.0709 22.159 11.0074 22.0426 10.8909L20.1349 8.98319C19.8786 8.72691 19.8786 8.31139 20.1349 8.05511C20.3912 7.79883 20.8067 7.79883 21.0629 8.05511L21.8746 8.86718L21.8749 3.71854C21.8749 3.35611 22.1688 3.06229 22.5312 3.06229Z" fill="black" fill-opacity="0.87"/>
</svg>
