<svg width="28" height="28" viewBox="0 0 28 28" fill="none" xmlns="http://www.w3.org/2000/svg">
<path fill-rule="evenodd" clip-rule="evenodd" d="M5.5928 9.79981L6.9928 23.7613L10.1008 23.7963C10.3025 24.3162 10.6019 24.7926 10.9828 25.1998H6.9998C6.64496 25.2024 6.30249 25.0695 6.04232 24.8282C5.78214 24.5869 5.62387 24.2554 5.5998 23.9013L4.1998 9.86981V9.79981H3.1498C3.05698 9.79981 2.96796 9.76294 2.90232 9.6973C2.83668 9.63166 2.7998 9.54263 2.7998 9.44981V8.74981C2.7998 8.65698 2.83668 8.56796 2.90232 8.50232C2.96796 8.43668 3.05698 8.39981 3.1498 8.39981H7.85031L8.9843 3.86031C9.06016 3.55685 9.23545 3.28754 9.48221 3.09532C9.72898 2.90311 10.033 2.79907 10.3458 2.79981H12.2463C12.3391 2.79981 12.4282 2.83668 12.4938 2.90232C12.5594 2.96796 12.5963 3.05698 12.5963 3.14981V3.84981C12.5963 3.94263 12.5594 4.03166 12.4938 4.0973C12.4282 4.16293 12.3391 4.19981 12.2463 4.19981H10.3458L9.2958 8.39981H15.0463C15.1391 8.39981 15.2282 8.43668 15.2938 8.50232C15.3594 8.56796 15.3963 8.65698 15.3963 8.74981V9.44981C15.3963 9.54263 15.3594 9.63166 15.2938 9.6973C15.2282 9.76294 15.1391 9.79981 15.0463 9.79981H5.5963H5.5928ZM24.3878 17.4438C24.6408 17.6718 24.8431 17.9504 24.9818 18.2615C25.1204 18.5725 25.1923 18.9092 25.1928 19.2498C25.1928 19.8343 24.9793 20.3978 24.5978 20.8353C24.7859 21.0145 24.9357 21.2301 25.038 21.469C25.1402 21.7078 25.1929 21.965 25.1928 22.2248C25.1928 23.8698 23.8628 25.1998 22.2178 25.1998H14.1748C13.3858 25.1998 12.6291 24.8864 12.0712 24.3285C11.5132 23.7705 11.1998 23.0138 11.1998 22.2248C11.1998 21.6998 11.4168 21.1958 11.7983 20.8353C11.3795 20.3563 11.1666 19.7314 11.2059 19.0964C11.2452 18.4613 11.5336 17.8675 12.0083 17.4438C11.5512 17.0152 11.2663 16.4345 11.207 15.8107C11.1477 15.1869 11.3181 14.5629 11.6863 14.0558C12.2278 13.2418 12.8898 12.5148 13.6498 11.8998C14.7873 11.0248 16.2188 10.4998 18.1963 10.4998H18.1998C20.0513 10.4998 20.9998 10.4998 22.7463 11.8998C23.3658 12.3968 23.8313 12.9813 24.2548 13.5098C24.4088 13.6988 24.5593 13.8843 24.7063 14.0558C25.074 14.5633 25.2439 15.1875 25.184 15.8113C25.124 16.4352 24.8384 17.0156 24.3808 17.4438H24.3878ZM14.6998 12.9498C13.965 13.4707 13.3296 14.1191 12.8238 14.8643C12.6925 15.0487 12.6148 15.2659 12.5995 15.4918C12.5841 15.7176 12.6316 15.9434 12.7367 16.1439C12.8419 16.3443 13.0005 16.5118 13.1951 16.6276C13.3896 16.7434 13.6124 16.803 13.8388 16.7998H22.5503C23.5583 16.7998 24.1708 15.6728 23.5653 14.8643C22.3998 13.2998 21.2133 11.8963 18.1998 11.8998C16.6038 11.8998 15.5398 12.3618 14.7033 12.9498H14.6998ZM14.1748 23.7998C13.7571 23.7998 13.3565 23.6339 13.0611 23.3385C12.7657 23.0431 12.5998 22.6425 12.5998 22.2248C12.5998 21.9343 12.8308 21.6998 13.1248 21.6998H23.2678C23.5583 21.6998 23.7928 21.9343 23.7928 22.2248C23.7928 22.6425 23.6269 23.0431 23.3315 23.3385C23.0361 23.6339 22.6355 23.7998 22.2178 23.7998H14.1713H14.1748ZM12.5998 19.2498C12.5998 19.5283 12.7104 19.7954 12.9073 19.9923C13.1043 20.1892 13.3713 20.2998 13.6498 20.2998H22.7428C23.0213 20.2998 23.2884 20.1892 23.4853 19.9923C23.6822 19.7954 23.7928 19.5283 23.7928 19.2498C23.7928 18.9713 23.6822 18.7043 23.4853 18.5073C23.2884 18.3104 23.0213 18.1998 22.7428 18.1998H13.6498C13.3713 18.1998 13.1043 18.3104 12.9073 18.5073C12.7104 18.7043 12.5998 18.9713 12.5998 19.2498ZM18.1963 14.6998C18.382 14.6998 18.56 14.6261 18.6913 14.4948C18.8226 14.3635 18.8963 14.1855 18.8963 13.9998C18.8963 13.8142 18.8226 13.6361 18.6913 13.5048C18.56 13.3736 18.382 13.2998 18.1963 13.2998C18.0107 13.2998 17.8326 13.3736 17.7013 13.5048C17.5701 13.6361 17.4963 13.8142 17.4963 13.9998C17.4963 14.1855 17.5701 14.3635 17.7013 14.4948C17.8326 14.6261 18.0107 14.6998 18.1963 14.6998ZM22.0463 14.6998C22.0463 14.8855 21.9726 15.0635 21.8413 15.1948C21.71 15.3261 21.532 15.3998 21.3463 15.3998C21.1607 15.3998 20.9826 15.3261 20.8513 15.1948C20.7201 15.0635 20.6463 14.8855 20.6463 14.6998C20.6463 14.5142 20.7201 14.3361 20.8513 14.2048C20.9826 14.0736 21.1607 13.9998 21.3463 13.9998C21.532 13.9998 21.71 14.0736 21.8413 14.2048C21.9726 14.3361 22.0463 14.5142 22.0463 14.6998ZM15.0463 15.3998C15.232 15.3998 15.41 15.3261 15.5413 15.1948C15.6726 15.0635 15.7463 14.8855 15.7463 14.6998C15.7463 14.5142 15.6726 14.3361 15.5413 14.2048C15.41 14.0736 15.232 13.9998 15.0463 13.9998C14.8607 13.9998 14.6826 14.0736 14.5513 14.2048C14.4201 14.3361 14.3463 14.5142 14.3463 14.6998C14.3463 14.8855 14.4201 15.0635 14.5513 15.1948C14.6826 15.3261 14.8607 15.3998 15.0463 15.3998Z" fill="black" fill-opacity="0.87"/>
</svg>
