<?xml version="1.0" encoding="UTF-8"?>
<svg width="28px" height="28px" viewBox="0 0 28 28" version="1.1" xmlns="http://www.w3.org/2000/svg" xmlns:xlink="http://www.w3.org/1999/xlink">
    <!-- Generator: Sketch 59.1 (86144) - https://sketch.com -->
    <title>🔩 Parts/Icon/Font Awesome/meal-filled</title>
    <desc>Created with Sketch.</desc>
    <g id="🔩-Parts/Icon/Font-Awesome/meal-filled" stroke="none" stroke-width="1" fill="none" fill-rule="evenodd">
        <path d="M15.12,11.06 L15.12,9.94 C15.12,9.63072054 14.8692795,9.38 14.56,9.38 L10.0359,9.38 L10.7359,6.58 L12.32,6.58 C12.6292795,6.58 12.88,6.32927946 12.88,6.02 L12.88,5.46 C12.88,5.15072054 12.6292795,4.9 12.32,4.9 L10.5175,4.9 C9.87501468,4.9 9.31495269,5.33719196 9.15915,5.9605 L8.3041,9.38 L3.36,9.38 C3.05072054,9.38 2.8,9.63072054 2.8,9.94 L2.8,11.06 C2.8,11.3692795 3.05072054,11.62 3.36,11.62 L14.56,11.62 C14.8692795,11.62 15.12,11.3692795 15.12,11.06 Z M12.02425,16.0377 C11.630077,15.2943391 11.6804851,14.3937309 12.15515,13.699 C12.39035,13.35355 12.6826,13.0389 12.9983,12.74 L4.13945,12.74 L5.04175,21.78015 C5.08181594,22.3674916 5.57129938,22.8226576 6.16,22.8200116 L11.76,22.8200116 C11.9260614,22.8171802 12.0893539,22.7769851 12.23775,22.7024 C11.9258411,22.241094 11.7594246,21.6968573 11.76,21.14 C11.7600461,20.6461217 11.9777186,20.1773576 12.355,19.85865 C11.9463041,19.4167779 11.7329319,18.8288442 11.7630977,18.2277009 C11.7932636,17.6265576 12.0644216,17.062938 12.5153,16.6642 C12.3155261,16.4863581 12.1492174,16.2741752 12.02425,16.0377 L12.02425,16.0377 Z M24.64,20.58 L13.44,20.58 C13.1307205,20.58 12.88,20.8307205 12.88,21.14 C12.88,22.0678384 13.6321616,22.82 14.56,22.82 L23.52,22.82 C24.4478384,22.82 25.2,22.0678384 25.2,21.14 C25.2,20.8307205 24.9492795,20.58 24.64,20.58 Z M24.08,17.22 L14,17.22 C13.3814411,17.22 12.88,17.7214411 12.88,18.34 C12.88,18.9585589 13.3814411,19.46 14,19.46 L24.08,19.46 C24.6985589,19.46 25.2,18.9585589 25.2,18.34 C25.2,17.7214411 24.6985589,17.22 24.08,17.22 Z M13.0809,14.32935 C12.57235,15.07555 13.08755,16.1 13.9748,16.1 L24.10555,16.1 C24.9928,16.1 25.50555,15.07555 24.9991,14.32935 C23.968,12.81455 21.6979,11.62245 19.04,11.6199962 C16.3821,11.61755 14.11235,12.81455 13.0809,14.32935 Z M21.84,13.3 C22.1492795,13.3 22.4,13.5507205 22.4,13.86 C22.4,14.1692795 22.1492795,14.42 21.84,14.42 C21.5307205,14.42 21.28,14.1692795 21.28,13.86 C21.28,13.5507205 21.5307205,13.3 21.84,13.3 Z M19.04,12.74 C19.3492795,12.74 19.6,12.9907205 19.6,13.3 C19.6,13.6092795 19.3492795,13.86 19.04,13.86 C18.7307205,13.86 18.48,13.6092795 18.48,13.3 C18.48,12.9907205 18.7307205,12.74 19.04,12.74 Z M16.24,13.3 C16.5492795,13.3 16.8,13.5507205 16.8,13.86 C16.8,14.1692795 16.5492795,14.42 16.24,14.42 C15.9307205,14.42 15.68,14.1692795 15.68,13.86 C15.68,13.5507205 15.9307205,13.3 16.24,13.3 Z" id="↳-💧-Icon-Content" fill="#8c8c8c" fill-rule="nonzero"></path>
    </g>
</svg>