<?xml version="1.0" encoding="UTF-8"?>
<svg width="28px" height="28px" viewBox="0 0 28 28" version="1.1" xmlns="http://www.w3.org/2000/svg" xmlns:xlink="http://www.w3.org/1999/xlink">
    <!-- Generator: Sketch 59.1 (86144) - https://sketch.com -->
    <title>🔩 Parts/Icon/Custom/mobile-access</title>
    <desc>Created with Sketch.</desc>
    <g id="🔩-Parts/Icon/Custom/mobile-access" stroke="none" stroke-width="1" fill-rule="evenodd">
        <path d="M16.2615385,11.2 C17.3321212,11.2 18.2,12.0954305 18.2,13.2 L18.2,23.2 C18.2,24.3045695 17.3321212,25.2 16.2615385,25.2 L11.7384615,25.2 C10.6678788,25.2 9.8,24.3045695 9.8,23.2 L9.8,13.2 C9.8,12.0954305 10.6678788,11.2 11.7384615,11.2 L16.2615385,11.2 Z M16.1777778,12.6 L11.8222222,12.6 C11.4785784,12.6 11.2,12.8949653 11.2,13.2588235 L11.2,23.1411765 C11.2,23.5050347 11.4785784,23.8 11.8222222,23.8 L16.1777778,23.8 C16.5214216,23.8 16.8,23.5050347 16.8,23.1411765 L16.8,13.2588235 C16.8,12.8949653 16.5214216,12.6 16.1777778,12.6 Z M7.20630615,8.6311046 C10.9512603,5.15116418 16.7779939,5.14240608 20.5131519,8.6180865 C20.6548482,8.75373006 20.654626,8.98198737 20.5156857,9.12092765 L20.5156857,9.12092765 L20.0278509,9.60876241 C19.8919982,9.74461513 19.6791667,9.74173781 19.5404847,9.61540608 C16.3539408,6.65116657 11.3908714,6.67142193 8.18313501,9.63263395 C8.04420675,9.759236 7.82828767,9.75944624 7.69578081,9.62693938 L7.69578081,9.62693938 L7.20273203,9.13389061 C7.06406206,8.99522064 7.06120277,8.76388177 7.20630615,8.6311046 Z M4.30699027,6.6430321 C9.68841317,1.52674497 18.1709485,1.51848545 23.5393365,6.62122082 C23.6810329,6.75686438 23.6808106,6.98512169 23.5418704,7.12406197 L23.5418704,7.12406197 L23.0478605,7.61807185 C22.9150953,7.75083701 22.6991762,7.75104725 22.5605003,7.6185464 C17.7252944,3.03652063 10.1156981,3.03467651 5.28080461,7.63537181 C5.14187034,7.76814298 4.92903281,7.77143477 4.7934444,7.63584636 L4.7934444,7.63584636 L4.30347718,7.14587914 C4.16480721,7.00720917 4.16502947,6.77895186 4.30699027,6.6430321 Z" id="↳-💧-Icon-Content" fill="#ced7e6" fill-rule="nonzero"></path>
    </g>
</svg>