<?xml version="1.0" encoding="UTF-8"?>
<svg width="28px" height="28px" viewBox="0 0 28 28" version="1.1" xmlns="http://www.w3.org/2000/svg" xmlns:xlink="http://www.w3.org/1999/xlink">
    <!-- Generator: Sketch 59.1 (86144) - https://sketch.com -->
    <title>🔩 Parts/Icon/Custom/more-vertical</title>
    <desc>Created with Sketch.</desc>
    <g id="🔩-Parts/Icon/Custom/more-vertical" stroke="none" stroke-width="1" fill="none" fill-rule="evenodd">
        <path d="M14,9.33333333 C15.2833333,9.33333333 16.3333333,8.28333333 16.3333333,7 C16.3333333,5.71666667 15.2833333,4.66666667 14,4.66666667 C12.7166667,4.66666667 11.6666667,5.71666667 11.6666667,7 C11.6666667,8.28333333 12.7166667,9.33333333 14,9.33333333 Z M14,11.6666667 C12.7166667,11.6666667 11.6666667,12.7166667 11.6666667,14 C11.6666667,15.2833333 12.7166667,16.3333333 14,16.3333333 C15.2833333,16.3333333 16.3333333,15.2833333 16.3333333,14 C16.3333333,12.7166667 15.2833333,11.6666667 14,11.6666667 Z M14,18.6666667 C12.7166667,18.6666667 11.6666667,19.7166667 11.6666667,21 C11.6666667,22.2833333 12.7166667,23.3333333 14,23.3333333 C15.2833333,23.3333333 16.3333333,22.2833333 16.3333333,21 C16.3333333,19.7166667 15.2833333,18.6666667 14,18.6666667 Z" id="↳-💧-Icon-Content" fill="#FFFFFF" fill-rule="nonzero"></path>
    </g>
</svg>