<svg width="28" height="28" viewBox="0 0 28 28" fill="none" xmlns="http://www.w3.org/2000/svg">
<path fill-rule="evenodd" clip-rule="evenodd" d="M25.2 24.4998V4.8998C25.2 3.74001 24.2598 2.7998 23.1 2.7998H4.89999C3.74019 2.7998 2.79999 3.74001 2.79999 4.8998V24.4998C2.79999 24.8864 3.11339 25.1998 3.49999 25.1998C3.88659 25.1998 4.19999 24.8864 4.19999 24.4998V4.8998C4.19999 4.51321 4.51339 4.1998 4.89999 4.1998H23.1C23.4866 4.1998 23.8 4.51321 23.8 4.8998V24.4998C23.8 24.8864 24.1134 25.1998 24.5 25.1998C24.8866 25.1998 25.2 24.8864 25.2 24.4998ZM7.7 21.1748H20.3C20.6866 21.1748 21 20.8614 21 20.4748C21 20.0882 20.6866 19.7748 20.3 19.7748H7.7C7.3134 19.7748 7 20.0882 7 20.4748C7 20.8614 7.3134 21.1748 7.7 21.1748ZM20.3 16.9748H7.7C7.3134 16.9748 7 16.6614 7 16.2748C7 15.8882 7.3134 15.5748 7.7 15.5748H20.3C20.6866 15.5748 21 15.8882 21 16.2748C21 16.6614 20.6866 16.9748 20.3 16.9748ZM7.7 12.7748H20.3C20.6866 12.7748 21 12.4614 21 12.0748C21 11.6882 20.6866 11.3748 20.3 11.3748H7.7C7.3134 11.3748 7 11.6882 7 12.0748C7 12.4614 7.3134 12.7748 7.7 12.7748ZM20.3 8.5748H7.7C7.3134 8.5748 7 8.2614 7 7.8748C7 7.4882 7.3134 7.1748 7.7 7.1748H20.3C20.6866 7.1748 21 7.4882 21 7.8748C21 8.2614 20.6866 8.5748 20.3 8.5748Z" fill="black" fill-opacity="0.87"/>
</svg>
