<svg width="375" height="260" viewBox="0 0 375 260" fill="none" xmlns="http://www.w3.org/2000/svg">
<path d="M150.237 116.847V148.134H118.951V116.847H150.237Z" fill="#E6E6E6"/>
<path d="M233.669 140.068L221.39 132.5V191.027H233.669V140.068Z" fill="#E6E6E6"/>
<path d="M202.55 191.027H214.829V128.456L202.55 120.887V191.027Z" fill="#E6E6E6"/>
<path d="M195.99 116.844L134.594 79V113.146H154.274V152.507H134.594V191.027H195.99V116.844Z" fill="#E6E6E6"/>
<path d="M240.229 144.112V191.027H246.62L263.946 158.731L240.229 144.112Z" fill="#E6E6E6"/>
<path d="M264.083 168.637C253.893 176.254 251.02 189.636 251.02 189.636C251.02 189.636 264.668 190.669 274.858 183.052C285.048 175.434 287.921 162.052 287.921 162.052C287.921 162.052 274.273 161.02 264.083 168.637Z" fill="#3F3D56"/>
<path d="M251.028 189.507C251.028 189.507 250.879 189.423 250.608 189.257C250.392 189.124 250.096 188.939 249.738 188.703C246.536 186.593 238.24 180.387 234.838 170.811C230.581 158.823 235.608 146.092 235.608 146.092C235.608 146.092 246.573 152.256 251.23 163.328C251.433 163.805 251.621 164.291 251.798 164.787C255.502 175.219 252.178 186.212 251.252 188.891C251.113 189.292 251.028 189.507 251.028 189.507Z" fill="#0878C8"/>
<path fill-rule="evenodd" clip-rule="evenodd" d="M250.921 189.772L251.077 189.886L251.168 189.715C251.233 189.594 257.614 177.445 254.772 165.129C251.93 152.814 240.871 144.689 240.76 144.608L240.603 144.495L240.513 144.665C240.448 144.787 234.067 156.936 236.908 169.251C239.75 181.567 250.81 189.692 250.921 189.772ZM237.236 169.176C234.608 157.788 239.953 146.529 240.72 144.999C242.08 146.039 251.817 153.817 254.444 165.205C257.072 176.593 251.728 187.852 250.961 189.382C249.601 188.342 239.864 180.564 237.236 169.176Z" fill="#3F3D56"/>
<path opacity="0.1" d="M251.251 188.891C251.003 189.036 250.786 189.158 250.607 189.257C250.215 189.472 249.997 189.58 249.997 189.58C249.997 189.58 249.894 189.27 249.737 188.703C248.874 185.6 246.405 174.787 250.538 164.855C250.756 164.335 250.986 163.826 251.23 163.328C251.433 163.805 251.621 164.292 251.797 164.787C255.501 175.219 252.177 186.212 251.251 188.891Z" fill="black"/>
<path d="M268.337 172.201C263.45 183.947 251.181 190.013 251.181 190.013C251.181 190.013 246.834 177.035 251.721 165.288C256.608 153.542 268.877 147.476 268.877 147.476C268.877 147.476 273.224 160.455 268.337 172.201Z" fill="#0878C8"/>
<path d="M251.144 189.608L268.628 147.929L268.938 148.059L251.454 189.738L251.144 189.608Z" fill="#3F3D56"/>
<path d="M286.066 193.465C286.066 195.04 277.004 196.481 262.023 197.587C259.299 197.787 256.38 197.976 253.284 198.155C250.608 198.308 247.804 198.453 244.872 198.588C242.031 198.717 239.081 198.837 236.023 198.948C226.361 199.299 215.682 199.552 204.337 199.678C201.584 199.708 198.794 199.732 195.966 199.749C193.022 199.766 190.045 199.774 187.033 199.774C132.338 199.774 88 196.95 88 193.465C88 189.979 132.338 187.155 187.033 187.155C210.579 187.155 232.204 187.679 249.2 188.552C249.826 188.585 250.445 188.617 251.058 188.648C251.062 188.65 251.066 188.651 251.07 188.651C272.479 189.809 286.066 191.535 286.066 193.465Z" fill="#3F3D56"/>
<path opacity="0.15" d="M286.066 193.465C286.066 195.04 277.004 196.481 262.023 197.587C259.299 197.787 256.38 197.976 253.284 198.155C250.608 198.308 247.804 198.453 244.872 198.588C242.031 198.717 239.081 198.837 236.023 198.948C226.361 199.299 215.682 199.552 204.337 199.678C201.584 199.708 198.794 199.732 195.966 199.749C193.022 199.766 190.045 199.774 187.033 199.774C132.338 199.774 88 196.95 88 193.465C88 189.979 132.338 187.155 187.033 187.155C210.579 187.155 232.204 187.679 249.2 188.552C249.826 188.585 250.445 188.617 251.058 188.648C251.062 188.65 251.066 188.651 251.07 188.651C272.479 189.809 286.066 191.535 286.066 193.465Z" fill="black"/>
<path d="M278.454 192.354C278.454 193.671 270.006 194.876 256.04 195.801C253.502 195.967 250.778 196.125 247.894 196.275C245.399 196.403 242.785 196.523 240.052 196.637C237.402 196.746 234.652 196.846 231.801 196.938C222.793 197.232 212.837 197.442 202.26 197.548C199.695 197.574 197.094 197.593 194.457 197.607C191.712 197.622 188.936 197.63 186.129 197.629C135.138 197.629 93.8027 195.267 93.8027 192.354C93.8027 189.441 135.138 187.079 186.129 187.079C197.404 187.079 208.206 187.195 218.195 187.407H218.22C227.666 187.607 236.385 187.893 244.085 188.248C244.669 188.275 245.247 188.301 245.818 188.327C245.821 188.33 245.825 188.331 245.83 188.331C249.357 188.502 252.657 188.687 255.698 188.886C255.732 188.887 255.766 188.891 255.799 188.892C269.91 189.819 278.454 191.029 278.454 192.354Z" fill="#3F3D56"/>
<path opacity="0.1" d="M255.699 188.886C254.449 197.012 246.569 194.289 237.033 194.289C226.959 194.289 218.734 197.328 218.221 187.407C227.667 187.607 236.386 187.893 244.086 188.248C244.67 188.275 245.247 188.302 245.819 188.327C245.822 188.33 245.826 188.331 245.83 188.331C249.358 188.502 252.658 188.687 255.699 188.886Z" fill="black"/>
<path d="M141.369 186.414C141.369 189.343 139.627 190.366 137.479 190.366C137.429 190.366 137.379 190.365 137.33 190.364C137.23 190.362 137.131 190.358 137.034 190.351C135.095 190.214 133.589 189.138 133.589 186.414C133.589 183.595 137.191 180.037 137.463 179.773L137.463 179.773C137.473 179.762 137.479 179.757 137.479 179.757C137.479 179.757 141.369 183.484 141.369 186.414Z" fill="#0878C8"/>
<path d="M137.337 189.918L138.76 187.93L137.333 190.136L137.33 190.364C137.23 190.362 137.131 190.358 137.034 190.351L137.187 187.42L137.186 187.397L137.189 187.393L137.203 187.116L135.773 184.905L137.208 186.908L137.211 186.967L137.327 184.753L136.103 182.468L137.342 184.364L137.463 179.773L137.463 179.757V179.773L137.443 183.393L138.662 181.958L137.438 183.705L137.406 185.688L138.544 183.785L137.401 185.979L137.383 187.082L139.035 184.433L137.377 187.466L137.337 189.918Z" fill="#3F3D56"/>
<path d="M218.193 184.365C218.193 173.217 226.628 164.18 237.033 164.18C247.437 164.18 255.872 173.217 255.872 184.365C255.872 195.513 247.437 192.271 237.033 192.271C226.628 192.271 218.193 195.513 218.193 184.365Z" fill="#3F3D56"/>
<rect x="113.464" y="171.066" width="0.336417" height="22.7385" fill="#3F3D56"/>
<path d="M113.633 174.281C115.408 174.281 116.848 172.842 116.848 171.066C116.848 169.29 115.408 167.85 113.633 167.85C111.857 167.85 110.417 169.29 110.417 171.066C110.417 172.842 111.857 174.281 113.633 174.281Z" fill="#3F3D56"/>
<path d="M113.632 185.08C113.632 185.08 113.173 175.2 103.756 176.349L113.632 185.08Z" fill="#3F3D56"/>
<path fill-rule="evenodd" clip-rule="evenodd" d="M200.567 169.916C202.115 171.005 203.662 172.094 205.087 173.333C205.512 173.024 205.875 172.638 206.158 172.195C204.423 171.305 202.707 170.376 201.012 169.411C200.777 169.277 200.541 169.142 200.306 169.007L200.305 169.007C199.108 168.32 197.898 167.627 196.661 167.019C197.913 168.048 199.24 168.982 200.567 169.916L200.567 169.916ZM207.54 175.692C207.44 175.399 207.346 175.104 207.262 174.807C207.094 174.701 206.916 174.61 206.731 174.537C206.561 174.47 206.381 174.414 206.201 174.358C206.439 174.591 206.675 174.828 206.911 175.065L206.911 175.065L206.911 175.065C207.12 175.275 207.329 175.484 207.54 175.692ZM206.219 167.538C206.261 167.495 206.303 167.451 206.346 167.408C206.347 167.735 206.349 168.041 206.353 168.318C206.116 168.239 205.88 168.159 205.644 168.076C205.847 167.909 206.039 167.729 206.219 167.538ZM185.729 169.739C184.942 171.185 183.995 172.536 182.904 173.768C185.255 173.872 187.599 174.127 189.939 174.436C189.523 173.996 189.086 173.573 188.65 173.151C187.563 172.099 186.478 171.049 185.729 169.739Z" fill="url(#paint0_linear_0_8156)"/>
<path d="M107.727 190.787C107.727 193.717 105.986 194.74 103.837 194.74C103.787 194.74 103.738 194.739 103.688 194.738C103.589 194.736 103.49 194.731 103.392 194.724C101.453 194.587 99.9473 193.512 99.9473 190.787C99.9473 187.968 103.55 184.41 103.821 184.147L103.821 184.146C103.832 184.136 103.837 184.131 103.837 184.131C103.837 184.131 107.727 187.858 107.727 190.787Z" fill="#0878C8"/>
<path d="M103.695 194.291L105.118 192.304L103.692 194.51L103.688 194.738C103.589 194.736 103.49 194.731 103.392 194.724L103.546 191.794L103.545 191.771L103.547 191.767L103.562 191.49L102.132 189.278L103.566 191.282L103.57 191.341L103.685 189.126L102.461 186.841L103.7 188.738L103.821 184.147L103.821 184.131V184.146L103.801 187.767L105.02 186.331L103.796 188.078L103.764 190.061L104.902 188.158L103.759 190.353L103.741 191.455L105.393 188.807L103.735 191.84L103.695 194.291Z" fill="#3F3D56"/>
<path d="M109.699 167.478C110.628 167.478 111.381 166.725 111.381 165.796C111.381 164.867 110.628 164.114 109.699 164.114C108.77 164.114 108.017 164.867 108.017 165.796C108.017 166.725 108.77 167.478 109.699 167.478Z" fill="#0878C8"/>
<path d="M217.855 142.251C217.855 142.251 223.957 140.901 224.63 146.283C225.303 151.666 221.39 152.682 221.39 152.682L218.911 153.348L209.323 150.825L210.669 146.956L217.855 142.251Z" fill="#2F2E41"/>
<path d="M215.656 142.549C220.211 142.549 223.902 138.857 223.902 134.303C223.902 129.749 220.211 126.057 215.656 126.057C211.102 126.057 207.41 129.749 207.41 134.303C207.41 138.857 211.102 142.549 215.656 142.549Z" fill="#2F2E41"/>
<path d="M186.68 151.426L188.355 151.763L194.052 160.186L191.539 160.523L186.68 151.426Z" fill="#2F2E41"/>
<path d="M146.153 185.602C146.605 187.088 147.161 188.541 147.818 189.95C149.707 189.554 151.564 189.025 153.377 188.366C153.433 188.345 152.337 186.912 152.222 186.795C151.788 186.354 151.226 185.838 150.653 185.588C150.074 185.336 149.361 185.528 148.742 185.56C147.88 185.604 147.017 185.618 146.153 185.602Z" fill="#FBBEBE"/>
<path d="M150.663 187.852C149.718 187.557 149.144 186.606 148.76 185.69C148.376 184.773 148.066 183.774 147.338 183.102C147.059 183.115 146.834 183.342 146.696 183.586C146.557 183.83 146.475 184.106 146.316 184.336C146.012 184.775 145.478 184.988 145.096 185.36C144.695 185.75 144.476 186.302 144.062 186.678C143.541 187.149 142.805 187.266 142.122 187.422C141.065 187.663 140.044 188.041 139.086 188.547C138.733 188.76 138.355 188.929 137.961 189.051C137.528 189.135 137.084 189.149 136.646 189.095L133.625 188.88C133.356 188.845 133.084 188.857 132.819 188.915C132.198 189.09 131.813 189.783 131.858 190.429C131.904 191.076 132.306 191.655 132.814 192.054C133.34 192.431 133.92 192.725 134.534 192.926C137.165 193.919 139.874 194.693 142.633 195.239L142.635 195.837C144.553 196.781 146.662 197.272 148.8 197.273C148.958 197.285 149.116 197.257 149.261 197.193C149.473 197.078 149.571 196.83 149.65 196.601C150.375 194.482 150.799 192.272 150.91 190.035C150.963 189.467 150.919 188.895 150.78 188.343C150.615 187.799 151.182 188.028 150.657 187.815" fill="#2F2E41"/>
<path d="M208.594 176.465C199.639 177.001 190.788 174.38 181.821 174.1C180.706 174.065 179.579 174.068 178.491 174.312C177.339 174.571 176.266 175.092 175.195 175.59C170.386 177.828 165.41 179.681 160.441 181.532L154.733 183.658C153.592 184.083 152.41 184.514 151.196 184.44C150.652 184.407 149.984 184.324 149.677 184.778C148.749 186.154 149.188 188.175 149.801 189.719C150 190.22 150.337 190.761 150.871 190.818C151.247 190.858 151.596 190.641 151.961 190.543C153 190.265 154.036 190.964 155.105 191.077C156.427 191.218 157.653 190.465 158.9 190.005C160.968 189.24 163.229 189.264 165.403 188.902C169.048 188.295 172.426 186.603 175.584 184.675C176.786 183.94 178.003 183.154 179.384 182.885C180.973 182.576 182.604 182.986 184.161 183.426C187.875 184.477 191.53 185.722 195.113 187.155C196.999 187.91 198.872 188.72 200.835 189.242C205.081 190.36 209.572 190.098 213.659 188.494C215.093 187.928 216.65 186.926 216.732 185.38C216.779 184.498 216.095 183.721 215.638 182.967C215.345 182.484 215.052 182 214.733 181.533C213.189 179.276 211.315 176.302 208.594 176.465Z" fill="#2F2E41"/>
<path opacity="0.1" d="M208.594 176.465C199.639 177.001 190.788 174.38 181.821 174.1C180.706 174.065 179.579 174.068 178.491 174.312C177.339 174.571 176.266 175.092 175.195 175.59C170.386 177.828 165.41 179.681 160.441 181.532L154.733 183.658C153.592 184.083 152.41 184.514 151.196 184.44C150.652 184.407 149.984 184.324 149.677 184.778C148.749 186.154 149.188 188.175 149.801 189.719C150 190.22 150.337 190.761 150.871 190.818C151.247 190.858 151.596 190.641 151.961 190.543C153 190.265 154.036 190.964 155.105 191.077C156.427 191.218 157.653 190.465 158.9 190.005C160.968 189.24 163.229 189.264 165.403 188.902C169.048 188.295 172.426 186.603 175.584 184.675C176.786 183.94 178.003 183.154 179.384 182.885C180.973 182.576 182.604 182.986 184.161 183.426C187.875 184.477 191.53 185.722 195.113 187.155C196.999 187.91 198.872 188.72 200.835 189.242C205.081 190.36 209.572 190.098 213.659 188.494C215.093 187.928 216.65 186.926 216.732 185.38C216.779 184.498 216.095 183.721 215.638 182.967C215.345 182.484 215.052 182 214.733 181.533C213.189 179.276 211.315 176.302 208.594 176.465Z" fill="black"/>
<path d="M163.348 186.038C164.749 186.516 166.164 186.956 167.59 187.358C168.388 186.047 169.882 185.134 170.222 183.636C170.244 183.57 170.244 183.5 170.223 183.435C170.186 183.371 170.13 183.32 170.062 183.291C169.04 182.725 167.906 182.393 166.74 182.318C165.82 182.26 165.4 183.221 164.982 183.896C164.813 184.17 163.723 186.166 163.348 186.038Z" fill="#FBBEBE"/>
<path d="M165.312 185.081C164.484 184.908 163.674 184.463 163.252 183.726C163.054 183.381 162.843 182.916 162.448 182.942C162.081 182.966 161.912 183.404 161.829 183.764C161.52 185.114 161.216 186.474 160.673 187.747C160.13 189.019 159.327 190.214 158.195 191.002C157.675 191.363 157.096 191.633 156.588 192.011C156.132 192.35 155.734 192.776 155.231 193.039C154.893 193.193 154.545 193.323 154.189 193.427C153.665 193.609 153.165 193.853 152.698 194.153C152.287 194.391 151.939 194.724 151.682 195.123C151.426 195.532 151.394 196.044 151.599 196.481C151.817 196.84 152.179 197.087 152.593 197.162C153.001 197.232 153.417 197.243 153.828 197.193C155.461 197.072 157.092 196.927 158.723 196.782C159.412 196.737 160.098 196.642 160.774 196.496C161.131 196.41 161.481 196.296 161.837 196.204C162.447 196.047 163.072 195.956 163.702 195.933C163.885 195.917 164.069 195.934 164.246 195.982C164.624 196.106 164.892 196.482 165.282 196.558C165.532 196.582 165.784 196.548 166.019 196.459C167.194 196.138 168.429 196.147 169.645 196.081C170.181 196.052 170.808 195.951 171.054 195.471C171.36 194.873 170.852 194.204 170.649 193.563C170.548 193.153 170.492 192.734 170.481 192.312C170.388 191.269 170.082 190.257 169.582 189.337C169.166 188.574 168.599 187.73 168.891 186.911C168.99 186.633 169.187 186.374 169.168 186.08C169.081 184.786 166.063 185.238 165.312 185.081Z" fill="#2F2E41"/>
<path d="M195.165 162.098C193.578 161.399 192.307 160.136 191.597 158.554C191.447 158.214 191.324 157.859 191.18 157.515C190.711 156.375 189.98 155.361 189.048 154.554C188.814 154.356 188.541 154.167 188.256 154.219C187.983 154.269 187.767 154.539 187.674 154.843C187.593 155.155 187.573 155.48 187.615 155.8C187.694 156.553 187.824 157.301 188.003 158.038L188.437 160.015C188.49 160.319 188.581 160.616 188.707 160.898C188.894 161.231 189.141 161.526 189.435 161.77C189.832 162.135 190.235 162.49 190.644 162.836C191.212 163.381 191.954 163.711 192.74 163.768C194.518 164.097 196.327 164.573 197.828 165.733C197.811 165.72 197.821 164.407 197.795 164.256C197.727 163.858 197.673 163.464 197.414 163.195C196.832 162.591 195.874 162.413 195.165 162.098Z" fill="#FBBEBE"/>
<path opacity="0.1" d="M195.165 162.098C193.578 161.399 192.307 160.136 191.597 158.554C191.447 158.214 191.324 157.859 191.18 157.515C190.711 156.375 189.98 155.361 189.048 154.554C188.814 154.356 188.541 154.167 188.256 154.219C187.983 154.269 187.767 154.539 187.674 154.843C187.593 155.155 187.573 155.48 187.615 155.8C187.694 156.553 187.824 157.301 188.003 158.038L188.437 160.015C188.49 160.319 188.581 160.616 188.707 160.898C188.894 161.231 189.141 161.526 189.435 161.77C189.832 162.135 190.235 162.49 190.644 162.836C191.212 163.381 191.954 163.711 192.74 163.768C194.518 164.097 196.327 164.573 197.828 165.733C197.811 165.72 197.821 164.407 197.795 164.256C197.727 163.858 197.673 163.464 197.414 163.195C196.832 162.591 195.874 162.413 195.165 162.098Z" fill="black"/>
<path d="M213.403 146.961C214.606 146.961 215.581 145.981 215.581 144.771C215.581 143.562 214.606 142.581 213.403 142.581C212.2 142.581 211.225 143.562 211.225 144.771C211.225 145.981 212.2 146.961 213.403 146.961Z" fill="#2F2E41"/>
<path d="M212.055 143.448C211.464 143.383 210.807 143.334 210.333 143.696C210.082 143.918 209.881 144.192 209.744 144.498C209.289 145.353 208.84 146.224 208.611 147.166C208.416 147.966 208.384 148.801 208.143 149.588C207.697 151.047 206.552 152.278 206.422 153.799C206.363 154.48 206.477 155.277 205.98 155.743C205.858 155.846 205.727 155.939 205.589 156.02C205.245 156.251 204.953 156.551 204.732 156.902C204.546 157.197 204.403 157.536 204.123 157.744C203.68 158.072 202.945 158.039 202.726 158.547C202.502 159.068 203.071 159.649 202.939 160.202C202.832 160.652 202.33 160.859 201.984 161.165C201.541 161.557 201.339 162.148 201.154 162.712C199.68 162.991 198.157 162.611 196.986 161.672C197.594 163.17 197.607 164.822 197.634 166.44C197.642 166.964 197.626 167.553 197.252 167.919C198.986 167.956 200.677 168.425 202.369 168.808C203.109 168.975 203.911 169.12 204.601 168.804C204.988 168.597 205.334 168.321 205.623 167.991C206.544 167.057 207.51 166.039 207.735 164.744C207.861 164.018 207.739 163.274 207.772 162.538C207.814 161.626 208.092 160.745 208.331 159.865C208.819 158.062 209.147 156.22 209.309 154.36C209.409 153.212 210.401 152.288 210.923 151.262C211.908 149.325 212.915 147.308 212.989 145.134C213.014 144.407 212.774 143.528 212.055 143.448Z" fill="#2F2E41"/>
<path opacity="0.1" d="M212.055 143.448C211.464 143.383 210.807 143.334 210.333 143.696C210.082 143.918 209.881 144.192 209.744 144.498C209.289 145.353 208.84 146.224 208.611 147.166C208.416 147.966 208.384 148.801 208.143 149.588C207.697 151.047 206.552 152.278 206.422 153.799C206.363 154.48 206.477 155.277 205.98 155.743C205.858 155.846 205.727 155.939 205.589 156.02C205.245 156.251 204.953 156.551 204.732 156.902C204.546 157.197 204.403 157.536 204.123 157.744C203.68 158.072 202.945 158.039 202.726 158.547C202.502 159.068 203.071 159.649 202.939 160.202C202.832 160.652 202.33 160.859 201.984 161.165C201.541 161.557 201.339 162.148 201.154 162.712C199.68 162.991 198.157 162.611 196.986 161.672C197.594 163.17 197.607 164.822 197.634 166.44C197.642 166.964 197.626 167.553 197.252 167.919C198.986 167.956 200.677 168.425 202.369 168.808C203.109 168.975 203.911 169.12 204.601 168.804C204.988 168.597 205.334 168.321 205.623 167.991C206.544 167.057 207.51 166.039 207.735 164.744C207.861 164.018 207.739 163.274 207.772 162.538C207.814 161.626 208.092 160.745 208.331 159.865C208.819 158.062 209.147 156.22 209.309 154.36C209.409 153.212 210.401 152.288 210.923 151.262C211.908 149.325 212.915 147.308 212.989 145.134C213.014 144.407 212.774 143.528 212.055 143.448Z" fill="black"/>
<path d="M210.015 178.351C208.149 177.464 206.785 175.809 205.277 174.393C202.398 171.69 198.877 169.776 195.85 167.242C193.843 165.562 192.049 163.605 189.844 162.199C187.902 160.962 185.701 160.191 183.412 159.945C183.15 159.9 182.881 159.913 182.624 159.984C182.335 160.112 182.083 160.311 181.892 160.563C180.915 161.666 180.047 162.86 179.299 164.128C175.463 170.642 170.013 176.118 165.498 182.176C165.199 182.471 165.175 182.946 165.444 183.269L166.362 185.069C166.876 186.076 167.699 187.249 168.807 187.049C169.314 186.958 169.717 186.585 170.09 186.229L174.213 182.287L178.536 178.155C181.069 175.734 183.646 173.256 185.297 170.159C186.587 172.397 188.877 173.862 190.448 175.911C191.045 176.69 191.533 177.547 192.067 178.372C192.922 179.695 193.894 180.936 194.865 182.175L199.824 188.505C200.5 189.368 201.195 190.248 202.12 190.834C203.294 191.577 204.722 191.773 206.105 191.897C207.968 192.064 209.838 192.131 211.708 192.099C213.134 192.075 214.604 191.982 215.883 191.348C217.163 190.715 218.214 189.415 218.147 187.983C218.113 187.238 217.789 186.54 217.432 185.886C215.661 182.636 213.346 179.936 210.015 178.351Z" fill="#2F2E41"/>
<path d="M214.744 147.972C215.669 147.972 216.419 147.218 216.419 146.288C216.419 145.357 215.669 144.603 214.744 144.603C213.818 144.603 213.068 145.357 213.068 146.288C213.068 147.218 213.818 147.972 214.744 147.972Z" fill="#2F2E41"/>
<path d="M214.373 145.022C214.782 145.743 214.782 146.641 214.557 147.439C214.333 148.238 213.903 148.96 213.479 149.672C213.061 150.372 212.639 151.079 212.078 151.67C214.664 151.794 217.171 150.78 219.454 149.551C221.29 148.562 223.122 147.341 224.102 145.493C223.529 145.665 222.897 145.495 222.39 145.177C221.897 144.833 221.456 144.422 221.078 143.955L219.78 142.494C219.475 142.176 219.207 141.825 218.981 141.446C218.7 140.928 218.581 140.338 218.638 139.752C218.123 140.292 217.546 140.77 216.92 141.178C215.993 141.781 214.971 142.219 214.042 142.819C213.712 143.032 212.979 143.374 213.168 143.805C213.352 144.225 214.112 144.56 214.373 145.022Z" fill="#FBBEBE"/>
<path opacity="0.1" d="M214.373 145.022C214.782 145.743 214.782 146.641 214.557 147.439C214.333 148.238 213.903 148.96 213.479 149.672C213.061 150.372 212.639 151.079 212.078 151.67C214.664 151.794 217.171 150.78 219.454 149.551C221.29 148.562 223.122 147.341 224.102 145.493C223.529 145.665 222.897 145.495 222.39 145.177C221.897 144.833 221.456 144.422 221.078 143.955L219.78 142.494C219.475 142.176 219.207 141.825 218.981 141.446C218.7 140.928 218.581 140.338 218.638 139.752C218.123 140.292 217.546 140.77 216.92 141.178C215.993 141.781 214.971 142.219 214.042 142.819C213.712 143.032 212.979 143.374 213.168 143.805C213.352 144.225 214.112 144.56 214.373 145.022Z" fill="black"/>
<path d="M214.409 145.277C213.923 146.094 213.818 147.059 214.409 147.804C214.482 147.897 214.755 148.472 214.873 148.477C214.987 148.468 215.093 148.414 215.168 148.328C215.796 147.754 216.256 147.021 216.808 146.373C217.36 145.724 218.056 145.133 218.894 145.003C219.907 144.845 220.884 145.381 221.77 145.899C222.138 146.114 222.52 146.342 222.752 146.701C222.938 147.038 223.049 147.412 223.074 147.797C223.38 150.102 223.374 152.437 223.366 154.763C223.361 156.444 223.355 158.137 223.037 159.788C222.872 160.641 222.625 161.478 222.509 162.339C222.423 163.099 222.388 163.864 222.405 164.628L222.402 167.829C222.381 168.417 222.422 169.006 222.526 169.585C222.678 170.286 223.01 170.934 223.232 171.616C223.461 172.4 223.617 173.204 223.7 174.017L224.138 177.331C224.276 178.375 224.378 179.517 223.746 180.357C223.461 180.737 223.086 181.041 222.797 181.418C221.713 182.829 222.061 184.843 221.609 186.566C221.252 187.829 220.519 188.953 219.507 189.788C218.733 190.446 217.733 190.963 216.736 190.778C215.39 190.528 214.582 189.125 214.215 187.799C213.848 186.473 213.714 185.03 212.919 183.91C212.27 182.996 211.264 182.42 210.355 181.767C209.445 181.115 208.557 180.273 208.359 179.167C208.272 178.684 208.326 178.187 208.275 177.699C208.128 176.439 207.306 175.36 206.131 174.883C205.442 174.615 204.591 174.519 204.203 173.887C205.205 173.323 205.87 172.28 206.22 171.18C206.57 170.081 206.642 168.914 206.711 167.761L206.941 163.91C207.044 162.188 207.09 160.482 207.848 158.936C208.187 158.244 208.609 157.597 208.962 156.912C209.428 155.952 209.827 154.96 210.154 153.944C210.704 152.366 211.253 150.787 211.743 149.189C211.976 148.428 212.201 147.652 212.617 146.974C213.033 146.296 213.63 145.423 214.409 145.277Z" fill="#0878C8"/>
<path d="M205.856 170.3L206.874 170.337L207.092 168.796C207.12 168.488 207.193 168.186 207.307 167.898C207.475 167.594 207.672 167.307 207.893 167.04C208.896 165.623 208.823 163.741 209.072 162.019C209.403 159.723 210.362 157.574 211.311 155.459L213.289 151.049C213.684 150.301 213.873 149.461 213.837 148.615C213.854 147.934 214.056 145.453 214.074 144.771C214.08 144.519 213.517 144.659 213.403 144.434C213.155 143.945 212.816 145.273 212.352 145.564C211.889 145.855 211.633 146.383 211.437 146.896C211.01 148.006 210.75 149.175 210.352 150.296C209.955 151.418 209.399 152.52 208.505 153.301C208.099 153.656 207.631 153.937 207.248 154.317C206.017 155.534 205.897 157.456 205.853 159.192C205.828 160.223 205.628 170.3 205.856 170.3Z" fill="#2F2E41"/>
<path d="M220.528 143.438C219.538 143.827 218.995 144.9 218.717 145.932C218.438 146.963 218.325 148.063 217.793 148.988C216.551 151.152 213.381 151.782 212.505 154.119C212.218 154.884 212.23 155.724 212.153 156.537C211.994 158.212 211.443 159.83 211.28 161.505C211.154 162.802 211.263 164.11 211.372 165.409L212.479 178.619C212.639 180.527 212.635 182.577 212.148 184.428C213.269 184.647 214.435 184.354 215.475 183.88C216.516 183.405 217.465 182.754 218.467 182.202C220.189 181.252 222.088 180.579 223.596 179.313C223.868 179.101 224.102 178.842 224.287 178.55C224.589 178.027 224.613 177.395 224.757 176.809C224.888 176.341 225.054 175.883 225.254 175.44C225.806 174.109 226.287 172.75 226.694 171.367C226.975 170.45 227.196 169.516 227.357 168.571C227.478 167.818 227.543 167.057 227.608 166.297C227.689 165.107 227.925 163.933 228.312 162.805C229.275 160.115 229.82 157.293 229.929 154.437C229.962 154.025 229.934 153.61 229.846 153.206C229.715 152.704 229.419 152.266 229.176 151.808C228.716 150.941 228.439 149.987 228.005 149.107C227.023 147.117 225.29 145.609 223.474 144.345C222.582 143.724 221.538 143.041 220.528 143.438Z" fill="#2F2E41"/>
<path d="M197.371 164.989C196.605 164.542 195.838 164.062 195.261 163.386C194.985 163.062 194.757 162.699 194.476 162.379C193.792 161.601 192.824 161.119 191.823 160.867C190.821 160.614 189.78 160.576 188.748 160.567C188.057 160.562 187.35 160.572 186.703 160.816C186.057 161.06 185.474 161.586 185.349 162.269C185.198 163.091 185.735 163.891 186.38 164.418C186.979 164.908 187.685 165.25 188.441 165.419C189.057 165.527 189.679 165.6 190.304 165.637C193.971 166.021 197.243 168.017 200.457 169.835C203.28 171.431 206.157 172.924 209.09 174.312C209.206 173.434 209.254 172.548 209.234 171.663C209.22 171.001 209.187 169.993 208.562 169.604C207.834 169.152 206.636 169.048 205.814 168.779C203.925 168.159 202.079 167.413 200.29 166.544C199.298 166.063 198.325 165.544 197.371 164.989Z" fill="#FBBEBE"/>
<path d="M213.403 144.266C217.012 144.266 219.938 141.324 219.938 137.696C219.938 134.067 217.012 131.125 213.403 131.125C209.795 131.125 206.869 134.067 206.869 137.696C206.869 141.324 209.795 144.266 213.403 144.266Z" fill="#FBBEBE"/>
<path d="M222.396 150.887C221.813 151.567 221.521 152.444 221.129 153.251C220.322 154.913 219.056 156.339 218.422 158.075C217.754 159.906 217.776 162.084 216.466 163.522C216.238 163.772 215.963 164.014 215.897 164.346C215.858 164.544 215.898 164.755 215.83 164.944C215.643 165.467 214.787 165.493 214.628 166.025C214.581 166.181 214.607 166.353 214.549 166.505C214.418 166.849 213.964 166.902 213.66 167.108C213.026 167.538 213.154 168.538 212.701 169.159C212.343 169.649 211.668 169.814 211.068 169.73C210.469 169.647 209.92 169.36 209.374 169.098C209.186 168.992 208.978 168.927 208.764 168.906C208.511 168.915 208.266 168.998 208.06 169.147C206.853 169.914 206.287 171.434 206.295 172.87C206.303 174.306 206.797 175.689 207.302 177.033C207.371 177.259 207.484 177.47 207.635 177.653C208.035 178.076 208.732 178.007 209.264 177.772C209.795 177.537 210.278 177.166 210.849 177.063C211.861 176.88 212.849 177.574 213.875 177.517C214.626 177.475 215.291 177.038 215.915 176.616C216.912 175.941 217.927 175.249 218.66 174.292C219.108 173.706 219.437 173.037 219.828 172.411C220.331 171.642 220.882 170.906 221.478 170.207L225.246 165.595C226.152 164.609 226.775 163.398 227.051 162.089C227.409 160.86 227.77 159.616 227.832 158.337C227.883 157.284 227.73 156.232 227.558 155.192C227.389 154.169 227.196 153.134 226.747 152.199C225.928 150.499 223.935 149.092 222.396 150.887Z" fill="#2F2E41"/>
<path d="M224.589 131.692C229.143 131.692 232.835 128 232.835 123.445C232.835 118.891 229.143 115.199 224.589 115.199C220.035 115.199 216.343 118.891 216.343 123.445C216.343 128 220.035 131.692 224.589 131.692Z" fill="#2F2E41"/>
<path d="M231.702 130.274C229.536 131.839 226.746 132.258 224.217 131.398C221.687 130.537 219.73 128.505 218.968 125.944C219.356 129.028 221.444 131.631 224.371 132.679C227.297 133.726 230.564 133.04 232.82 130.903C235.077 128.765 235.941 125.541 235.054 122.562C235.43 125.552 234.145 128.509 231.702 130.274Z" fill="#2F2E41"/>
<path d="M217.855 141.724C221.195 141.724 223.902 139.017 223.902 135.677C223.902 132.337 221.195 129.63 217.855 129.63C214.515 129.63 211.808 132.337 211.808 135.677C211.808 139.017 214.515 141.724 217.855 141.724Z" fill="#2F2E41"/>
<path d="M212.77 137.601C215.73 137.601 218.13 135.724 218.13 133.409C218.13 131.094 215.73 129.217 212.77 129.217C209.81 129.217 207.41 131.094 207.41 133.409C207.41 135.724 209.81 137.601 212.77 137.601Z" fill="#2F2E41"/>
<path d="M214.829 140.954C215.19 140.661 215.126 139.985 214.686 139.445C214.246 138.904 213.598 138.704 213.237 138.997C212.877 139.29 212.941 139.966 213.381 140.506C213.82 141.047 214.469 141.247 214.829 140.954Z" fill="#FBBEBE"/>
<path d="M208.148 193.478C208.148 196.408 206.406 197.431 204.258 197.431C204.208 197.431 204.158 197.43 204.109 197.429C204.01 197.427 203.911 197.422 203.813 197.415C201.874 197.278 200.368 196.203 200.368 193.478C200.368 190.659 203.971 187.101 204.242 186.838L204.242 186.837C204.253 186.827 204.258 186.822 204.258 186.822C204.258 186.822 208.148 190.549 208.148 193.478Z" fill="#0878C8"/>
<path d="M204.116 196.982L205.539 194.995L204.113 197.201L204.109 197.429C204.01 197.427 203.911 197.422 203.813 197.415L203.967 194.484L203.965 194.462L203.968 194.458L203.983 194.18L202.553 191.969L203.987 193.973L203.991 194.032L204.106 191.817L202.882 189.532L204.121 191.429L204.242 186.838L204.242 186.822V186.837L204.222 190.457L205.441 189.022L204.217 190.769L204.185 192.752L205.323 190.849L204.18 193.044L204.162 194.146L205.814 191.497L204.156 194.531L204.116 196.982Z" fill="#3F3D56"/>
<path d="M127.399 220.928C127.549 220.736 127.735 220.64 127.959 220.64C128.151 220.64 128.322 220.72 128.471 220.88C128.631 221.029 128.711 221.205 128.711 221.408C128.711 221.6 128.647 221.765 128.519 221.904L124.743 226.608V231.248C124.743 231.515 124.663 231.723 124.503 231.872C124.354 232.011 124.157 232.08 123.911 232.08C123.666 232.08 123.469 232.011 123.319 231.872C123.17 231.723 123.095 231.515 123.095 231.248V226.608L119.319 221.904C119.191 221.765 119.127 221.595 119.127 221.392C119.127 221.189 119.202 221.013 119.351 220.864C119.501 220.715 119.677 220.64 119.879 220.64C120.093 220.64 120.279 220.736 120.439 220.928L123.927 225.312L127.399 220.928ZM132.09 232.112C131.322 232.112 130.645 231.947 130.058 231.616C129.482 231.285 129.034 230.816 128.714 230.208C128.405 229.589 128.25 228.875 128.25 228.064C128.25 227.243 128.405 226.528 128.714 225.92C129.034 225.301 129.482 224.827 130.058 224.496C130.645 224.165 131.322 224 132.09 224C132.858 224 133.53 224.165 134.106 224.496C134.693 224.827 135.141 225.301 135.45 225.92C135.77 226.528 135.93 227.243 135.93 228.064C135.93 228.875 135.77 229.589 135.45 230.208C135.141 230.816 134.693 231.285 134.106 231.616C133.53 231.947 132.858 232.112 132.09 232.112ZM132.09 230.832C132.805 230.832 133.349 230.597 133.722 230.128C134.106 229.659 134.298 228.971 134.298 228.064C134.298 227.168 134.106 226.485 133.722 226.016C133.338 225.536 132.794 225.296 132.09 225.296C131.386 225.296 130.842 225.536 130.458 226.016C130.074 226.485 129.882 227.168 129.882 228.064C129.882 228.971 130.069 229.659 130.442 230.128C130.826 230.597 131.375 230.832 132.09 230.832ZM143.777 224.032C144.023 224.032 144.215 224.101 144.353 224.24C144.503 224.379 144.577 224.571 144.577 224.816V231.328C144.577 231.552 144.503 231.733 144.353 231.872C144.204 232.011 144.007 232.08 143.761 232.08C143.537 232.08 143.356 232.016 143.217 231.888C143.079 231.749 143.009 231.568 143.009 231.344V230.736C142.764 231.184 142.423 231.525 141.985 231.76C141.559 231.995 141.079 232.112 140.545 232.112C138.647 232.112 137.697 231.067 137.697 228.976V224.816C137.697 224.571 137.767 224.379 137.905 224.24C138.055 224.101 138.257 224.032 138.513 224.032C138.759 224.032 138.951 224.101 139.089 224.24C139.239 224.379 139.313 224.571 139.313 224.816V228.96C139.313 229.589 139.441 230.053 139.697 230.352C139.953 230.651 140.348 230.8 140.881 230.8C141.511 230.8 142.012 230.597 142.385 230.192C142.769 229.787 142.961 229.248 142.961 228.576V224.816C142.961 224.581 143.036 224.395 143.185 224.256C143.335 224.107 143.532 224.032 143.777 224.032ZM157.442 220.64C157.687 220.64 157.884 220.709 158.034 220.848C158.183 220.987 158.258 221.173 158.258 221.408V231.296C158.258 231.541 158.183 231.733 158.034 231.872C157.895 232.011 157.703 232.08 157.458 232.08C157.212 232.08 157.015 232.011 156.866 231.872C156.727 231.733 156.658 231.541 156.658 231.296V230.656C156.423 231.125 156.082 231.488 155.634 231.744C155.186 231.989 154.668 232.112 154.082 232.112C153.41 232.112 152.807 231.941 152.274 231.6C151.751 231.259 151.34 230.779 151.042 230.16C150.754 229.541 150.61 228.832 150.61 228.032C150.61 227.221 150.754 226.512 151.042 225.904C151.34 225.296 151.751 224.827 152.274 224.496C152.796 224.165 153.399 224 154.082 224C154.668 224 155.18 224.128 155.618 224.384C156.066 224.629 156.407 224.981 156.642 225.44V221.376C156.642 221.152 156.711 220.976 156.85 220.848C156.999 220.709 157.196 220.64 157.442 220.64ZM154.466 230.832C155.159 230.832 155.698 230.592 156.082 230.112C156.466 229.632 156.658 228.949 156.658 228.064C156.658 227.179 156.466 226.496 156.082 226.016C155.708 225.536 155.17 225.296 154.466 225.296C153.762 225.296 153.212 225.536 152.818 226.016C152.434 226.485 152.242 227.157 152.242 228.032C152.242 228.907 152.439 229.595 152.834 230.096C153.228 230.587 153.772 230.832 154.466 230.832ZM163.903 232.112C163.135 232.112 162.457 231.947 161.871 231.616C161.295 231.285 160.847 230.816 160.527 230.208C160.217 229.589 160.063 228.875 160.063 228.064C160.063 227.243 160.217 226.528 160.527 225.92C160.847 225.301 161.295 224.827 161.871 224.496C162.457 224.165 163.135 224 163.903 224C164.671 224 165.343 224.165 165.919 224.496C166.505 224.827 166.953 225.301 167.263 225.92C167.583 226.528 167.743 227.243 167.743 228.064C167.743 228.875 167.583 229.589 167.263 230.208C166.953 230.816 166.505 231.285 165.919 231.616C165.343 231.947 164.671 232.112 163.903 232.112ZM163.903 230.832C164.617 230.832 165.161 230.597 165.535 230.128C165.919 229.659 166.111 228.971 166.111 228.064C166.111 227.168 165.919 226.485 165.535 226.016C165.151 225.536 164.607 225.296 163.903 225.296C163.199 225.296 162.655 225.536 162.271 226.016C161.887 226.485 161.695 227.168 161.695 228.064C161.695 228.971 161.881 229.659 162.255 230.128C162.639 230.597 163.188 230.832 163.903 230.832ZM173.75 224C175.617 224 176.55 225.051 176.55 227.152V231.312C176.55 231.557 176.475 231.749 176.326 231.888C176.187 232.016 175.99 232.08 175.734 232.08C175.489 232.08 175.291 232.011 175.142 231.872C175.003 231.733 174.934 231.547 174.934 231.312V227.232C174.934 226.571 174.801 226.085 174.534 225.776C174.278 225.467 173.873 225.312 173.318 225.312C172.667 225.312 172.145 225.515 171.75 225.92C171.355 226.325 171.158 226.869 171.158 227.552V231.312C171.158 231.547 171.083 231.733 170.934 231.872C170.795 232.011 170.603 232.08 170.358 232.08C170.113 232.08 169.915 232.011 169.766 231.872C169.617 231.733 169.542 231.547 169.542 231.312V224.8C169.542 224.576 169.617 224.395 169.766 224.256C169.926 224.107 170.123 224.032 170.358 224.032C170.593 224.032 170.779 224.101 170.918 224.24C171.057 224.379 171.126 224.56 171.126 224.784V225.44C171.382 224.971 171.739 224.613 172.198 224.368C172.657 224.123 173.174 224 173.75 224ZM179.497 225.328C179.187 225.328 179.006 225.152 178.953 224.8L178.617 221.744C178.606 221.691 178.601 221.621 178.601 221.536C178.601 221.259 178.681 221.04 178.841 220.88C179.011 220.72 179.23 220.64 179.497 220.64C179.763 220.64 179.971 220.715 180.121 220.864C180.281 221.013 180.361 221.227 180.361 221.504C180.361 221.611 180.355 221.691 180.345 221.744L180.041 224.8C179.977 225.152 179.795 225.328 179.497 225.328ZM186.288 230.848C186.522 230.869 186.688 230.933 186.784 231.04C186.89 231.136 186.944 231.275 186.944 231.456C186.944 231.669 186.858 231.835 186.688 231.952C186.528 232.059 186.288 232.101 185.968 232.08L185.536 232.048C184.672 231.984 184.026 231.723 183.6 231.264C183.173 230.795 182.96 230.107 182.96 229.2V225.44H182C181.53 225.44 181.296 225.232 181.296 224.816C181.296 224.624 181.354 224.475 181.472 224.368C181.6 224.251 181.776 224.192 182 224.192H182.96V222.544C182.96 222.299 183.029 222.107 183.168 221.968C183.317 221.829 183.514 221.76 183.76 221.76C184.005 221.76 184.202 221.829 184.352 221.968C184.501 222.107 184.576 222.299 184.576 222.544V224.192H186.16C186.384 224.192 186.554 224.251 186.672 224.368C186.8 224.475 186.864 224.624 186.864 224.816C186.864 225.019 186.8 225.173 186.672 225.28C186.554 225.387 186.384 225.44 186.16 225.44H184.576V229.312C184.576 229.813 184.677 230.181 184.88 230.416C185.093 230.651 185.413 230.784 185.84 230.816L186.288 230.848ZM196.547 224C198.403 224 199.331 225.051 199.331 227.152V231.312C199.331 231.547 199.256 231.733 199.107 231.872C198.958 232.011 198.76 232.08 198.515 232.08C198.27 232.08 198.072 232.011 197.923 231.872C197.784 231.733 197.715 231.547 197.715 231.312V227.168C197.715 226.528 197.582 226.059 197.315 225.76C197.059 225.461 196.654 225.312 196.099 225.312C195.448 225.312 194.926 225.515 194.531 225.92C194.136 226.325 193.939 226.869 193.939 227.552V231.312C193.939 231.547 193.864 231.733 193.715 231.872C193.576 232.011 193.384 232.08 193.139 232.08C192.894 232.08 192.696 232.011 192.547 231.872C192.398 231.733 192.323 231.547 192.323 231.312V221.408C192.323 221.173 192.398 220.987 192.547 220.848C192.707 220.709 192.91 220.64 193.155 220.64C193.39 220.64 193.576 220.709 193.715 220.848C193.864 220.976 193.939 221.152 193.939 221.376V225.376C194.206 224.928 194.563 224.587 195.011 224.352C195.459 224.117 195.971 224 196.547 224ZM204.822 224C205.857 224 206.625 224.261 207.126 224.784C207.638 225.307 207.894 226.101 207.894 227.168V231.312C207.894 231.557 207.825 231.749 207.686 231.888C207.547 232.016 207.355 232.08 207.11 232.08C206.875 232.08 206.689 232.011 206.55 231.872C206.411 231.733 206.342 231.547 206.342 231.312V230.72C206.139 231.168 205.835 231.515 205.43 231.76C205.035 231.995 204.571 232.112 204.038 232.112C203.526 232.112 203.057 232.011 202.63 231.808C202.214 231.595 201.883 231.307 201.638 230.944C201.393 230.581 201.27 230.171 201.27 229.712C201.259 229.136 201.403 228.688 201.702 228.368C202.001 228.037 202.486 227.803 203.158 227.664C203.83 227.515 204.763 227.44 205.958 227.44H206.326V226.976C206.326 226.379 206.203 225.947 205.958 225.68C205.713 225.413 205.318 225.28 204.774 225.28C204.401 225.28 204.049 225.328 203.718 225.424C203.387 225.52 203.025 225.659 202.63 225.84C202.342 226 202.139 226.08 202.022 226.08C201.862 226.08 201.729 226.021 201.622 225.904C201.526 225.787 201.478 225.637 201.478 225.456C201.478 225.296 201.521 225.157 201.606 225.04C201.702 224.912 201.851 224.789 202.054 224.672C202.427 224.469 202.865 224.309 203.366 224.192C203.867 224.064 204.353 224 204.822 224ZM204.326 230.912C204.913 230.912 205.393 230.715 205.766 230.32C206.139 229.915 206.326 229.397 206.326 228.768V228.352H206.038C205.206 228.352 204.566 228.389 204.118 228.464C203.67 228.539 203.35 228.667 203.158 228.848C202.966 229.019 202.87 229.269 202.87 229.6C202.87 229.984 203.009 230.299 203.286 230.544C203.563 230.789 203.91 230.912 204.326 230.912ZM215.656 224.512C215.72 224.352 215.811 224.235 215.928 224.16C216.056 224.085 216.19 224.048 216.328 224.048C216.531 224.048 216.707 224.117 216.856 224.256C217.016 224.395 217.096 224.56 217.096 224.752C217.096 224.859 217.075 224.96 217.032 225.056L213.976 231.536C213.902 231.707 213.784 231.84 213.624 231.936C213.475 232.021 213.315 232.064 213.144 232.064C212.974 232.064 212.808 232.021 212.648 231.936C212.499 231.84 212.387 231.707 212.312 231.536L209.256 225.056C209.214 224.971 209.192 224.869 209.192 224.752C209.192 224.56 209.278 224.395 209.448 224.256C209.619 224.117 209.811 224.048 210.024 224.048C210.334 224.048 210.563 224.197 210.712 224.496L213.192 230L215.656 224.512ZM224.42 230.032C224.569 230.032 224.692 230.091 224.788 230.208C224.884 230.325 224.932 230.475 224.932 230.656C224.932 230.965 224.74 231.227 224.356 231.44C223.982 231.653 223.572 231.819 223.124 231.936C222.686 232.053 222.265 232.112 221.86 232.112C220.622 232.112 219.646 231.755 218.932 231.04C218.217 230.315 217.86 229.328 217.86 228.08C217.86 227.28 218.014 226.571 218.324 225.952C218.644 225.333 219.086 224.853 219.652 224.512C220.228 224.171 220.878 224 221.604 224C222.649 224 223.476 224.336 224.084 225.008C224.692 225.68 224.996 226.587 224.996 227.728C224.996 228.155 224.804 228.368 224.42 228.368H219.476C219.582 230.021 220.377 230.848 221.86 230.848C222.254 230.848 222.596 230.795 222.884 230.688C223.172 230.581 223.476 230.443 223.796 230.272C223.828 230.251 223.913 230.208 224.052 230.144C224.201 230.069 224.324 230.032 224.42 230.032ZM221.636 225.184C221.017 225.184 220.521 225.381 220.148 225.776C219.774 226.171 219.55 226.725 219.476 227.44H223.604C223.572 226.715 223.385 226.16 223.044 225.776C222.713 225.381 222.244 225.184 221.636 225.184ZM234.275 224C235.31 224 236.078 224.261 236.579 224.784C237.091 225.307 237.347 226.101 237.347 227.168V231.312C237.347 231.557 237.278 231.749 237.139 231.888C237 232.016 236.808 232.08 236.563 232.08C236.328 232.08 236.142 232.011 236.003 231.872C235.864 231.733 235.795 231.547 235.795 231.312V230.72C235.592 231.168 235.288 231.515 234.883 231.76C234.488 231.995 234.024 232.112 233.491 232.112C232.979 232.112 232.51 232.011 232.083 231.808C231.667 231.595 231.336 231.307 231.091 230.944C230.846 230.581 230.723 230.171 230.723 229.712C230.712 229.136 230.856 228.688 231.155 228.368C231.454 228.037 231.939 227.803 232.611 227.664C233.283 227.515 234.216 227.44 235.411 227.44H235.779V226.976C235.779 226.379 235.656 225.947 235.411 225.68C235.166 225.413 234.771 225.28 234.227 225.28C233.854 225.28 233.502 225.328 233.171 225.424C232.84 225.52 232.478 225.659 232.083 225.84C231.795 226 231.592 226.08 231.475 226.08C231.315 226.08 231.182 226.021 231.075 225.904C230.979 225.787 230.931 225.637 230.931 225.456C230.931 225.296 230.974 225.157 231.059 225.04C231.155 224.912 231.304 224.789 231.507 224.672C231.88 224.469 232.318 224.309 232.819 224.192C233.32 224.064 233.806 224 234.275 224ZM233.779 230.912C234.366 230.912 234.846 230.715 235.219 230.32C235.592 229.915 235.779 229.397 235.779 228.768V228.352H235.491C234.659 228.352 234.019 228.389 233.571 228.464C233.123 228.539 232.803 228.667 232.611 228.848C232.419 229.019 232.323 229.269 232.323 229.6C232.323 229.984 232.462 230.299 232.739 230.544C233.016 230.789 233.363 230.912 233.779 230.912ZM243.766 224C245.632 224 246.566 225.051 246.566 227.152V231.312C246.566 231.557 246.491 231.749 246.342 231.888C246.203 232.016 246.006 232.08 245.75 232.08C245.504 232.08 245.307 232.011 245.158 231.872C245.019 231.733 244.95 231.547 244.95 231.312V227.232C244.95 226.571 244.816 226.085 244.55 225.776C244.294 225.467 243.888 225.312 243.334 225.312C242.683 225.312 242.16 225.515 241.766 225.92C241.371 226.325 241.174 226.869 241.174 227.552V231.312C241.174 231.547 241.099 231.733 240.95 231.872C240.811 232.011 240.619 232.08 240.374 232.08C240.128 232.08 239.931 232.011 239.782 231.872C239.632 231.733 239.558 231.547 239.558 231.312V224.8C239.558 224.576 239.632 224.395 239.782 224.256C239.942 224.107 240.139 224.032 240.374 224.032C240.608 224.032 240.795 224.101 240.934 224.24C241.072 224.379 241.142 224.56 241.142 224.784V225.44C241.398 224.971 241.755 224.613 242.214 224.368C242.672 224.123 243.19 224 243.766 224ZM254.328 224.512C254.392 224.352 254.483 224.235 254.6 224.16C254.728 224.085 254.862 224.048 255 224.048C255.203 224.048 255.379 224.117 255.528 224.256C255.688 224.395 255.768 224.56 255.768 224.752C255.768 224.859 255.747 224.96 255.704 225.056L251.256 234.496C251.192 234.645 251.096 234.757 250.968 234.832C250.851 234.917 250.723 234.96 250.584 234.96C250.392 234.96 250.216 234.896 250.056 234.768C249.907 234.64 249.832 234.48 249.832 234.288C249.832 234.203 249.859 234.096 249.912 233.968L251.016 231.616L247.928 225.056C247.886 224.971 247.864 224.875 247.864 224.768C247.864 224.565 247.95 224.395 248.12 224.256C248.291 224.117 248.483 224.048 248.696 224.048C249.016 224.048 249.246 224.197 249.384 224.496L251.864 230L254.328 224.512ZM146.539 246C148.406 246 149.339 247.051 149.339 249.152V253.312C149.339 253.557 149.264 253.749 149.115 253.888C148.976 254.016 148.779 254.08 148.523 254.08C148.278 254.08 148.08 254.011 147.931 253.872C147.792 253.733 147.723 253.547 147.723 253.312V249.232C147.723 248.571 147.59 248.085 147.323 247.776C147.067 247.467 146.662 247.312 146.107 247.312C145.456 247.312 144.934 247.515 144.539 247.92C144.144 248.325 143.947 248.869 143.947 249.552V253.312C143.947 253.547 143.872 253.733 143.723 253.872C143.584 254.011 143.392 254.08 143.147 254.08C142.902 254.08 142.704 254.011 142.555 253.872C142.406 253.733 142.331 253.547 142.331 253.312V246.8C142.331 246.576 142.406 246.395 142.555 246.256C142.715 246.107 142.912 246.032 143.147 246.032C143.382 246.032 143.568 246.101 143.707 246.24C143.846 246.379 143.915 246.56 143.915 246.784V247.44C144.171 246.971 144.528 246.613 144.987 246.368C145.446 246.123 145.963 246 146.539 246ZM154.942 254.112C154.174 254.112 153.496 253.947 152.91 253.616C152.334 253.285 151.886 252.816 151.566 252.208C151.256 251.589 151.102 250.875 151.102 250.064C151.102 249.243 151.256 248.528 151.566 247.92C151.886 247.301 152.334 246.827 152.91 246.496C153.496 246.165 154.174 246 154.942 246C155.71 246 156.382 246.165 156.958 246.496C157.544 246.827 157.992 247.301 158.302 247.92C158.622 248.528 158.782 249.243 158.782 250.064C158.782 250.875 158.622 251.589 158.302 252.208C157.992 252.816 157.544 253.285 156.958 253.616C156.382 253.947 155.71 254.112 154.942 254.112ZM154.942 252.832C155.656 252.832 156.2 252.597 156.574 252.128C156.958 251.659 157.15 250.971 157.15 250.064C157.15 249.168 156.958 248.485 156.574 248.016C156.19 247.536 155.646 247.296 154.942 247.296C154.238 247.296 153.694 247.536 153.31 248.016C152.926 248.485 152.734 249.168 152.734 250.064C152.734 250.971 152.92 251.659 153.294 252.128C153.678 252.597 154.227 252.832 154.942 252.832ZM164.374 252.848C164.608 252.869 164.774 252.933 164.87 253.04C164.976 253.136 165.03 253.275 165.03 253.456C165.03 253.669 164.944 253.835 164.774 253.952C164.614 254.059 164.374 254.101 164.054 254.08L163.622 254.048C162.758 253.984 162.112 253.723 161.686 253.264C161.259 252.795 161.046 252.107 161.046 251.2V247.44H160.086C159.616 247.44 159.382 247.232 159.382 246.816C159.382 246.624 159.44 246.475 159.558 246.368C159.686 246.251 159.862 246.192 160.086 246.192H161.046V244.544C161.046 244.299 161.115 244.107 161.254 243.968C161.403 243.829 161.6 243.76 161.846 243.76C162.091 243.76 162.288 243.829 162.438 243.968C162.587 244.107 162.662 244.299 162.662 244.544V246.192H164.246C164.47 246.192 164.64 246.251 164.758 246.368C164.886 246.475 164.95 246.624 164.95 246.816C164.95 247.019 164.886 247.173 164.758 247.28C164.64 247.387 164.47 247.44 164.246 247.44H162.662V251.312C162.662 251.813 162.763 252.181 162.966 252.416C163.179 252.651 163.499 252.784 163.926 252.816L164.374 252.848ZM167.006 254.08C166.772 254.08 166.574 254.016 166.414 253.888C166.265 253.76 166.19 253.568 166.19 253.312V246.816C166.19 246.56 166.265 246.368 166.414 246.24C166.574 246.101 166.772 246.032 167.006 246.032C167.241 246.032 167.433 246.101 167.582 246.24C167.732 246.368 167.806 246.56 167.806 246.816V253.312C167.806 253.568 167.732 253.76 167.582 253.888C167.433 254.016 167.241 254.08 167.006 254.08ZM167.006 244.464C166.697 244.464 166.452 244.379 166.27 244.208C166.089 244.037 165.998 243.813 165.998 243.536C165.998 243.259 166.089 243.04 166.27 242.88C166.452 242.709 166.697 242.624 167.006 242.624C167.305 242.624 167.545 242.709 167.726 242.88C167.918 243.04 168.014 243.259 168.014 243.536C168.014 243.813 167.924 244.037 167.742 244.208C167.561 244.379 167.316 244.464 167.006 244.464ZM176.337 244.464C176.028 244.464 175.783 244.379 175.601 244.208C175.42 244.037 175.329 243.813 175.329 243.536C175.329 243.259 175.42 243.04 175.601 242.88C175.783 242.709 176.028 242.624 176.337 242.624C176.636 242.624 176.876 242.709 177.057 242.88C177.249 243.04 177.345 243.259 177.345 243.536C177.345 243.813 177.255 244.037 177.073 244.208C176.892 244.379 176.647 244.464 176.337 244.464ZM176.433 246.192C176.657 246.192 176.828 246.251 176.945 246.368C177.073 246.475 177.137 246.624 177.137 246.816V253.312C177.137 253.568 177.063 253.76 176.913 253.888C176.764 254.016 176.572 254.08 176.337 254.08C176.103 254.08 175.905 254.016 175.745 253.888C175.596 253.76 175.521 253.568 175.521 253.312V247.44H172.177V253.296C172.177 253.552 172.097 253.749 171.937 253.888C171.788 254.016 171.596 254.08 171.361 254.08C171.127 254.08 170.935 254.016 170.785 253.888C170.636 253.749 170.561 253.552 170.561 253.296V247.44H169.601C169.377 247.44 169.201 247.387 169.073 247.28C168.956 247.163 168.897 247.008 168.897 246.816C168.897 246.624 168.956 246.475 169.073 246.368C169.201 246.251 169.377 246.192 169.601 246.192H170.561V246.016C170.561 245.035 170.812 244.267 171.313 243.712C171.815 243.147 172.524 242.821 173.441 242.736L173.825 242.704L174.033 242.688C174.503 242.688 174.737 242.885 174.737 243.28C174.737 243.653 174.529 243.867 174.113 243.92L173.745 243.952C173.212 243.995 172.817 244.165 172.561 244.464C172.305 244.752 172.177 245.179 172.177 245.744V246.192H176.433ZM182.737 254.112C181.98 254.112 181.313 253.947 180.737 253.616C180.172 253.285 179.729 252.816 179.409 252.208C179.1 251.6 178.945 250.896 178.945 250.096C178.945 249.285 179.105 248.571 179.425 247.952C179.756 247.333 180.215 246.853 180.801 246.512C181.388 246.171 182.06 246 182.817 246C183.223 246 183.628 246.059 184.033 246.176C184.449 246.293 184.817 246.453 185.137 246.656C185.479 246.891 185.649 247.163 185.649 247.472C185.649 247.653 185.601 247.808 185.505 247.936C185.409 248.053 185.287 248.112 185.137 248.112C185.041 248.112 184.945 248.091 184.849 248.048C184.753 247.995 184.631 247.92 184.481 247.824C184.215 247.653 183.964 247.525 183.729 247.44C183.505 247.344 183.233 247.296 182.913 247.296C182.188 247.296 181.623 247.541 181.217 248.032C180.823 248.523 180.625 249.205 180.625 250.08C180.625 250.955 180.823 251.632 181.217 252.112C181.612 252.581 182.172 252.816 182.897 252.816C183.217 252.816 183.5 252.768 183.745 252.672C183.991 252.576 184.241 252.448 184.497 252.288C184.615 252.213 184.732 252.149 184.849 252.096C184.967 252.043 185.073 252.016 185.169 252.016C185.319 252.016 185.441 252.08 185.537 252.208C185.633 252.325 185.681 252.475 185.681 252.656C185.681 252.805 185.639 252.944 185.553 253.072C185.479 253.189 185.345 253.312 185.153 253.44C184.833 253.653 184.46 253.819 184.033 253.936C183.607 254.053 183.175 254.112 182.737 254.112ZM190.408 246C191.442 246 192.21 246.261 192.712 246.784C193.224 247.307 193.48 248.101 193.48 249.168V253.312C193.48 253.557 193.41 253.749 193.272 253.888C193.133 254.016 192.941 254.08 192.696 254.08C192.461 254.08 192.274 254.011 192.136 253.872C191.997 253.733 191.928 253.547 191.928 253.312V252.72C191.725 253.168 191.421 253.515 191.016 253.76C190.621 253.995 190.157 254.112 189.624 254.112C189.112 254.112 188.642 254.011 188.216 253.808C187.8 253.595 187.469 253.307 187.224 252.944C186.978 252.581 186.856 252.171 186.856 251.712C186.845 251.136 186.989 250.688 187.288 250.368C187.586 250.037 188.072 249.803 188.744 249.664C189.416 249.515 190.349 249.44 191.544 249.44H191.912V248.976C191.912 248.379 191.789 247.947 191.544 247.68C191.298 247.413 190.904 247.28 190.36 247.28C189.986 247.28 189.634 247.328 189.304 247.424C188.973 247.52 188.61 247.659 188.216 247.84C187.928 248 187.725 248.08 187.608 248.08C187.448 248.08 187.314 248.021 187.208 247.904C187.112 247.787 187.064 247.637 187.064 247.456C187.064 247.296 187.106 247.157 187.192 247.04C187.288 246.912 187.437 246.789 187.64 246.672C188.013 246.469 188.45 246.309 188.952 246.192C189.453 246.064 189.938 246 190.408 246ZM189.912 252.912C190.498 252.912 190.978 252.715 191.352 252.32C191.725 251.915 191.912 251.397 191.912 250.768V250.352H191.624C190.792 250.352 190.152 250.389 189.704 250.464C189.256 250.539 188.936 250.667 188.744 250.848C188.552 251.019 188.456 251.269 188.456 251.6C188.456 251.984 188.594 252.299 188.872 252.544C189.149 252.789 189.496 252.912 189.912 252.912ZM199.514 252.848C199.749 252.869 199.914 252.933 200.01 253.04C200.117 253.136 200.17 253.275 200.17 253.456C200.17 253.669 200.085 253.835 199.914 253.952C199.754 254.059 199.514 254.101 199.194 254.08L198.762 254.048C197.898 253.984 197.253 253.723 196.826 253.264C196.4 252.795 196.186 252.107 196.186 251.2V247.44H195.226C194.757 247.44 194.522 247.232 194.522 246.816C194.522 246.624 194.581 246.475 194.698 246.368C194.826 246.251 195.002 246.192 195.226 246.192H196.186V244.544C196.186 244.299 196.256 244.107 196.394 243.968C196.544 243.829 196.741 243.76 196.986 243.76C197.232 243.76 197.429 243.829 197.578 243.968C197.728 244.107 197.802 244.299 197.802 244.544V246.192H199.386C199.61 246.192 199.781 246.251 199.898 246.368C200.026 246.475 200.09 246.624 200.09 246.816C200.09 247.019 200.026 247.173 199.898 247.28C199.781 247.387 199.61 247.44 199.386 247.44H197.802V251.312C197.802 251.813 197.904 252.181 198.106 252.416C198.32 252.651 198.64 252.784 199.066 252.816L199.514 252.848ZM202.147 254.08C201.912 254.08 201.715 254.016 201.555 253.888C201.406 253.76 201.331 253.568 201.331 253.312V246.816C201.331 246.56 201.406 246.368 201.555 246.24C201.715 246.101 201.912 246.032 202.147 246.032C202.382 246.032 202.574 246.101 202.723 246.24C202.872 246.368 202.947 246.56 202.947 246.816V253.312C202.947 253.568 202.872 253.76 202.723 253.888C202.574 254.016 202.382 254.08 202.147 254.08ZM202.147 244.464C201.838 244.464 201.592 244.379 201.411 244.208C201.23 244.037 201.139 243.813 201.139 243.536C201.139 243.259 201.23 243.04 201.411 242.88C201.592 242.709 201.838 242.624 202.147 242.624C202.446 242.624 202.686 242.709 202.867 242.88C203.059 243.04 203.155 243.259 203.155 243.536C203.155 243.813 203.064 244.037 202.883 244.208C202.702 244.379 202.456 244.464 202.147 244.464ZM208.598 254.112C207.83 254.112 207.153 253.947 206.566 253.616C205.99 253.285 205.542 252.816 205.222 252.208C204.913 251.589 204.758 250.875 204.758 250.064C204.758 249.243 204.913 248.528 205.222 247.92C205.542 247.301 205.99 246.827 206.566 246.496C207.153 246.165 207.83 246 208.598 246C209.366 246 210.038 246.165 210.614 246.496C211.201 246.827 211.649 247.301 211.958 247.92C212.278 248.528 212.438 249.243 212.438 250.064C212.438 250.875 212.278 251.589 211.958 252.208C211.649 252.816 211.201 253.285 210.614 253.616C210.038 253.947 209.366 254.112 208.598 254.112ZM208.598 252.832C209.313 252.832 209.857 252.597 210.23 252.128C210.614 251.659 210.806 250.971 210.806 250.064C210.806 249.168 210.614 248.485 210.23 248.016C209.846 247.536 209.302 247.296 208.598 247.296C207.894 247.296 207.35 247.536 206.966 248.016C206.582 248.485 206.39 249.168 206.39 250.064C206.39 250.971 206.577 251.659 206.95 252.128C207.334 252.597 207.883 252.832 208.598 252.832ZM218.445 246C220.312 246 221.245 247.051 221.245 249.152V253.312C221.245 253.557 221.171 253.749 221.021 253.888C220.883 254.016 220.685 254.08 220.429 254.08C220.184 254.08 219.987 254.011 219.837 253.872C219.699 253.733 219.629 253.547 219.629 253.312V249.232C219.629 248.571 219.496 248.085 219.229 247.776C218.973 247.467 218.568 247.312 218.013 247.312C217.363 247.312 216.84 247.515 216.445 247.92C216.051 248.325 215.853 248.869 215.853 249.552V253.312C215.853 253.547 215.779 253.733 215.629 253.872C215.491 254.011 215.299 254.08 215.053 254.08C214.808 254.08 214.611 254.011 214.461 253.872C214.312 253.733 214.237 253.547 214.237 253.312V246.8C214.237 246.576 214.312 246.395 214.461 246.256C214.621 246.107 214.819 246.032 215.053 246.032C215.288 246.032 215.475 246.101 215.613 246.24C215.752 246.379 215.821 246.56 215.821 246.784V247.44C216.077 246.971 216.435 246.613 216.893 246.368C217.352 246.123 217.869 246 218.445 246ZM226.176 254.112C225.088 254.112 224.197 253.888 223.504 253.44C223.312 253.323 223.173 253.2 223.088 253.072C223.013 252.944 222.976 252.8 222.976 252.64C222.976 252.469 223.024 252.325 223.12 252.208C223.216 252.091 223.339 252.032 223.488 252.032C223.627 252.032 223.845 252.117 224.144 252.288C224.464 252.459 224.773 252.597 225.072 252.704C225.381 252.811 225.765 252.864 226.224 252.864C226.736 252.864 227.136 252.773 227.424 252.592C227.712 252.411 227.856 252.155 227.856 251.824C227.856 251.611 227.797 251.44 227.68 251.312C227.573 251.184 227.381 251.072 227.104 250.976C226.827 250.869 226.416 250.757 225.872 250.64C224.933 250.437 224.256 250.165 223.84 249.824C223.435 249.472 223.232 248.997 223.232 248.4C223.232 247.941 223.365 247.531 223.632 247.168C223.899 246.795 224.267 246.507 224.736 246.304C225.205 246.101 225.739 246 226.336 246C226.763 246 227.179 246.059 227.584 246.176C227.989 246.283 228.347 246.443 228.656 246.656C229.008 246.891 229.184 247.163 229.184 247.472C229.184 247.643 229.131 247.787 229.024 247.904C228.928 248.021 228.811 248.08 228.672 248.08C228.576 248.08 228.48 248.059 228.384 248.016C228.288 247.973 228.16 247.904 228 247.808C227.712 247.637 227.44 247.504 227.184 247.408C226.939 247.312 226.629 247.264 226.256 247.264C225.808 247.264 225.445 247.36 225.168 247.552C224.901 247.744 224.768 248.005 224.768 248.336C224.768 248.635 224.891 248.869 225.136 249.04C225.392 249.2 225.867 249.355 226.56 249.504C227.275 249.653 227.835 249.824 228.24 250.016C228.645 250.208 228.933 250.448 229.104 250.736C229.285 251.013 229.376 251.371 229.376 251.808C229.376 252.501 229.083 253.061 228.496 253.488C227.92 253.904 227.147 254.112 226.176 254.112ZM231.881 254.08C231.593 254.08 231.347 253.984 231.145 253.792C230.953 253.6 230.857 253.355 230.857 253.056C230.857 252.757 230.953 252.512 231.145 252.32C231.347 252.117 231.593 252.016 231.881 252.016C232.169 252.016 232.409 252.117 232.601 252.32C232.793 252.512 232.889 252.757 232.889 253.056C232.889 253.355 232.793 253.6 232.601 253.792C232.409 253.984 232.169 254.08 231.881 254.08Z" fill="black" fill-opacity="0.6"/>
<defs>
<linearGradient id="paint0_linear_0_8156" x1="207.54" y1="175.692" x2="207.54" y2="167.019" gradientUnits="userSpaceOnUse">
<stop stop-color="#808080" stop-opacity="0.25"/>
<stop offset="0.53514" stop-color="#808080" stop-opacity="0.12"/>
<stop offset="1" stop-color="#808080" stop-opacity="0.1"/>
</linearGradient>
</defs>
</svg>
