<svg width="28" height="28" viewBox="0 0 28 28" fill="none" xmlns="http://www.w3.org/2000/svg">
<g opacity="0.87">
<path fill-rule="evenodd" clip-rule="evenodd" d="M19.6002 8.39981C19.6002 5.30701 16.9157 2.7998 14.0002 2.7998C11.0847 2.7998 8.4002 5.30701 8.4002 8.39981H8.2002C5.99106 8.39981 4.2002 10.1907 4.2002 12.3998V21.6998C4.2002 23.6248 5.7752 25.1998 7.70019 25.1998H20.3002C22.2252 25.1998 23.8002 23.6248 23.8002 21.6998V12.3998C23.8002 10.1907 22.0093 8.39981 19.8002 8.39981H19.6002ZM13.9998 4.2041C16.9203 4.2041 18.1994 6.47461 18.1994 8.39961H9.7998C9.7998 6.47461 11.0793 4.2041 13.9998 4.2041ZM15.4006 23.7997C19.2666 23.7997 22.4006 20.6657 22.4006 16.7997V11.8003C22.4006 10.6957 21.5052 9.80029 20.4006 9.80029H19.6006V12.3469C19.6006 12.3469 19.6006 13.4552 18.9006 13.4552C18.2006 13.4552 18.2002 12.3469 18.2002 12.3469V9.80029H9.80059V12.3469C9.80059 12.3469 9.80059 13.4552 9.10059 13.4552C8.40059 13.4552 8.40059 12.3469 8.40059 12.3469V9.80029H7.60059C6.49602 9.80029 5.60059 10.6957 5.60059 11.8003V16.7997C5.60059 20.6657 8.7346 23.7997 12.6006 23.7997H15.4006Z" fill="#424547"/>
</g>
</svg>
