<svg width="18" height="24" viewBox="0 0 18 24" fill="none" xmlns="http://www.w3.org/2000/svg">
<path fill-rule="evenodd" clip-rule="evenodd" d="M13.1124 1.4123L16.783 5.0873C17.1767 5.48105 17.3999 6.01918 17.3999 6.5748V21.0998C17.3999 22.2596 16.4597 23.1998 15.2999 23.1998H2.69985C1.54006 23.1998 0.599854 22.2596 0.599854 21.0998V2.8998C0.599854 1.7448 1.54048 0.80418 2.69985 0.799805H11.6292C12.1852 0.799598 12.7185 1.01986 13.1124 1.4123ZM8.64984 4.9998H3.74984C3.55654 4.9998 3.39984 4.8431 3.39984 4.6498V3.9498C3.39984 3.7565 3.55654 3.5998 3.74984 3.5998H8.64984C8.84314 3.5998 8.99984 3.7565 8.99984 3.9498V4.6498C8.99984 4.8431 8.84314 4.9998 8.64984 4.9998ZM8.21234 14.5373L10.1811 15.1236C10.9948 15.3686 11.5636 16.1517 11.5636 17.0267C11.5763 18.0803 10.7484 18.9529 9.69547 18.9954V20.0498C9.69547 20.2431 9.53876 20.3998 9.34547 20.3998H8.64546C8.45217 20.3998 8.29546 20.2431 8.29546 20.0498V18.9867C7.80109 18.9604 7.31984 18.7898 6.92171 18.4923C6.84053 18.4291 6.79128 18.3333 6.78706 18.2305C6.78285 18.1277 6.8241 18.0282 6.89984 17.9586L7.42046 17.4686C7.53859 17.3504 7.71796 17.3504 7.85796 17.4379C8.02687 17.5445 8.22265 17.6006 8.42234 17.5998H9.65172C9.93609 17.5998 10.168 17.3417 10.168 17.0223C10.1756 16.7726 10.0194 16.5473 9.78297 16.4667L7.81421 15.8761C7.00046 15.6311 6.43171 14.8479 6.43171 13.9729C6.41901 12.9193 7.24695 12.0467 8.29984 12.0042V10.9498C8.29984 10.7565 8.45654 10.5998 8.64984 10.5998H9.34984C9.54314 10.5998 9.69984 10.7565 9.69984 10.9498V12.0173C10.1967 12.0421 10.6749 12.2142 11.0736 12.5117C11.1548 12.5749 11.204 12.6707 11.2082 12.7735C11.2125 12.8763 11.1712 12.9758 11.0955 13.0454L10.5792 13.5354C10.4611 13.6536 10.2817 13.6536 10.1417 13.5661C9.97109 13.4611 9.77859 13.4042 9.57734 13.4042H8.34797C8.06359 13.4042 7.83172 13.6623 7.83172 13.9817C7.8235 14.2302 7.97766 14.4552 8.21234 14.5373ZM8.99984 7.44981V6.7498C8.99984 6.55651 8.84314 6.3998 8.64984 6.3998H3.74984C3.55654 6.3998 3.39984 6.55651 3.39984 6.7498V7.44981C3.39984 7.6431 3.55654 7.79981 3.74984 7.79981H8.64984C8.84314 7.79981 8.99984 7.6431 8.99984 7.44981ZM11.7999 2.22606C11.9224 2.25668 12.0317 2.31356 12.1236 2.40981L15.7986 6.08043C15.8861 6.16793 15.9474 6.28168 15.978 6.40418H11.7999V2.22606ZM15.2999 21.7998C15.6865 21.7998 15.9999 21.4864 15.9999 21.0998V7.79981H11.4499C10.868 7.79981 10.3999 7.33606 10.3999 6.74981V2.1998H2.69989C2.31489 2.1998 1.99989 2.51918 1.99989 2.89981V21.0998C1.99989 21.4864 2.31329 21.7998 2.69989 21.7998H15.2999Z" fill="black" fill-opacity="0.6"/>
</svg>
