<svg width="20" height="24" viewBox="0 0 20 24" fill="none" xmlns="http://www.w3.org/2000/svg">
<path d="M4.64327 0.799805C3.96561 0.799805 3.55642 1.00639 2.96369 1.46547L2.69192 1.67822L2.59923 1.74774L2.51922 1.83155C0.39518 4.05674 0.3915 7.54807 2.00165 11.468L2.16488 11.8591C3.43971 14.8575 5.44649 17.6838 7.82732 19.7774L7.97596 19.906C11.4576 23.0711 15.2154 24.2007 18.0321 22.2024L18.1289 22.1323C19.3458 21.2633 19.3943 19.4218 18.6821 18.1755L18.6413 18.1041L17.1392 16.0717L17.1782 16.1272C16.7956 15.5534 16.1847 15.2044 15.4979 15.0327L15.462 15.0242C14.7995 14.877 14.1787 15.0354 13.5479 15.3809C13.2841 15.5255 13.0311 15.6958 12.7458 15.9117L12.5889 16.0328L12.0412 16.4655L11.9971 16.4556C11.7791 16.3998 11.4671 16.2367 11.1018 15.9692C10.2943 15.3781 9.3631 14.3813 8.54016 13.2272C7.71791 12.074 7.08311 10.875 6.79417 9.93041C6.66468 9.50708 6.61598 9.16955 6.63608 8.95782L6.63926 8.92785L7.99796 7.8887L8.05707 7.85116C9.18184 7.10747 9.52959 5.68919 8.89468 4.49131L8.87506 4.4559L8.88757 4.48032C7.84056 2.38629 6.45239 0.799805 4.64327 0.799805ZM4.64327 2.1998C5.9256 2.1998 7.12244 4.08055 7.63536 5.10641C7.96555 5.6842 7.81754 6.34167 7.26831 6.69412L7.20793 6.7307L5.75461 7.84205C3.27545 9.55181 10.2855 19.383 12.7646 17.6733L12.8817 17.5865C13.4903 17.1222 14.437 16.2306 15.1583 16.3909C15.474 16.4698 15.7897 16.6215 15.9709 16.8461L17.4666 18.8701C17.8085 19.4685 17.894 20.5799 17.2956 21.0073C14.9873 22.7171 11.7388 21.4347 8.9177 18.8701C6.58539 16.8709 4.65889 14.1414 3.45451 11.314L3.36093 11.0906C1.99312 7.84205 1.73666 4.67897 3.53192 2.79822C3.87387 2.54176 4.21582 2.1998 4.64327 2.1998Z" fill="black" fill-opacity="0.6"/>
</svg>
