<svg width="28" height="28" viewBox="0 0 28 28" fill="none" xmlns="http://www.w3.org/2000/svg">
<path d="M14 13.6C12.425 13.6 11.2 12.375 11.2 10.8C11.2 9.26875 12.425 8 14 8C15.5313 8 16.8 9.26875 16.8 10.8C16.8 12.375 15.5313 13.6 14 13.6ZM14 9.4C13.2125 9.4 12.6 10.0563 12.6 10.8C12.6 11.5875 13.2125 12.2 14 12.2C14.7438 12.2 15.4 11.5875 15.4 10.8C15.4 10.0563 14.7438 9.4 14 9.4ZM15.4 15C17.325 15 18.9 16.575 18.9 18.5C18.9 18.8938 18.55 19.2 18.2 19.2C17.8063 19.2 17.5 18.8938 17.5 18.5C17.5 17.3625 16.5375 16.4 15.4 16.4H12.6C11.4188 16.4 10.5 17.3625 10.5 18.5C10.5 18.8938 10.15 19.2 9.8 19.2C9.40625 19.2 9.1 18.8938 9.1 18.5C9.1 16.575 10.6313 15 12.6 15H15.4ZM19.6 2.4C21.1313 2.4 22.4 3.66875 22.4 5.2V22C22.4 23.575 21.1313 24.8 19.6 24.8H8.4C6.825 24.8 5.6 23.575 5.6 22V5.2C5.6 3.66875 6.825 2.4 8.4 2.4H19.6ZM21 22V5.2C21 4.45625 20.3438 3.8 19.6 3.8H8.4C7.6125 3.8 7 4.45625 7 5.2V22C7 22.7875 7.6125 23.4 8.4 23.4H19.6C20.3438 23.4 21 22.7875 21 22Z" fill="#424547"/>
</svg>
