<svg width="17" height="24" viewBox="0 0 17 24" fill="none" xmlns="http://www.w3.org/2000/svg">
<path d="M7.79167 16.3125H1.41667C0.9806 16.3125 0.568439 16.1104 0.300069 15.76C0.0315796 15.4096 -0.0634831 14.9559 0.042302 14.5246L0.31884 13.4061C0.775183 11.5508 1.88505 10.001 3.36149 8.98574L3.89583 1.9375H2.83333C2.70539 1.9375 2.58586 1.90336 2.48227 1.84316C2.26888 1.71918 2.125 1.48604 2.125 1.21875C2.125 0.82182 2.44198 0.5 2.83333 0.5H14.1667C14.5563 0.5 14.875 0.82182 14.875 1.21875C14.875 1.48604 14.7333 1.71918 14.5164 1.84316C14.4146 1.90336 14.2951 1.9375 14.1667 1.9375H13.1042L13.6398 8.98574C15.1141 10.001 16.2253 11.5508 16.6812 13.4061L16.9557 14.5246C17.062 14.9559 16.969 15.4096 16.699 15.76C16.4333 16.1104 16.0216 16.3125 15.5833 16.3125H9.20833V22.7812C9.20833 23.1766 8.88958 23.5 8.46016 23.5C8.11042 23.5 7.75182 23.1766 7.75182 22.7812L7.79167 16.3125ZM4.7237 9.78984L4.15659 10.1762C2.96039 10.9982 2.06258 12.2516 1.69336 13.752L1.41667 14.875H7.79167V10.5625C7.79167 10.1672 8.11042 9.84375 8.5 9.84375C8.88958 9.84375 9.20833 10.1672 9.20833 10.5625V14.875H15.5833L15.3089 13.752C14.937 12.2516 14.0383 10.9982 12.843 10.1762L12.2807 9.78984L11.6831 1.9375H5.31693L4.7237 9.78984Z" fill="white"/>
</svg>
