<svg width="18" height="24" viewBox="0 0 18 24" fill="none" xmlns="http://www.w3.org/2000/svg">
<path fill-rule="evenodd" clip-rule="evenodd" d="M8.99985 0.799805C4.3606 0.799805 0.599854 4.56055 0.599854 9.19981C0.599854 11.9825 1.39647 13.1174 5.20695 18.5458C6.03399 19.724 7.00301 21.1044 8.13667 22.7479C8.33293 23.0309 8.65545 23.1997 8.99985 23.1997C9.34425 23.1997 9.66678 23.0309 9.86304 22.7479C10.9967 21.1044 11.9657 19.724 12.7928 18.5458C16.6032 13.1174 17.3999 11.9825 17.3999 9.19981C17.3999 4.56055 13.6391 0.799805 8.99985 0.799805ZM4.79987 9.19981C4.79987 6.88368 6.68374 4.99981 8.99987 4.99981C11.316 4.99981 13.1999 6.88368 13.1999 9.19981C13.1999 11.5159 11.316 13.3998 8.99987 13.3998C6.68374 13.3998 4.79987 11.5159 4.79987 9.19981ZM6.19982 9.1998C6.19982 10.7437 7.45588 11.9998 8.99982 11.9998C10.5438 11.9998 11.7998 10.7437 11.7998 9.1998C11.7998 7.65587 10.5438 6.3998 8.99982 6.3998C7.45588 6.3998 6.19982 7.65587 6.19982 9.1998ZM6.27792 17.6321C7.04442 18.7249 7.94432 20.0079 8.99989 21.5342C10.0571 20.0053 10.9581 18.7206 11.7254 17.6266C15.3812 12.414 15.9999 11.5318 15.9999 9.19981C15.9999 7.32993 15.2719 5.57206 13.9498 4.24993C12.6276 2.92781 10.8698 2.19981 8.99989 2.19981C7.13001 2.19981 5.37214 2.92781 4.05001 4.24993C2.72789 5.57206 1.99989 7.32993 1.99989 9.19981C1.99989 11.5329 2.61896 12.4155 6.27792 17.6321Z" fill="black" fill-opacity="0.6"/>
</svg>
