<svg width="28" height="28" viewBox="0 0 28 28" fill="none" xmlns="http://www.w3.org/2000/svg">
<path fill-rule="evenodd" clip-rule="evenodd" d="M9.79999 4.5498C9.79999 5.5163 9.01649 6.2998 8.04999 6.2998C7.08349 6.2998 6.29999 5.5163 6.29999 4.5498C6.29999 3.58331 7.08349 2.7998 8.04999 2.7998C9.01649 2.7998 9.79999 3.58331 9.79999 4.5498ZM15.909 23.1772C15.909 24.1437 15.1255 24.9272 14.159 24.9272C13.1925 24.9272 12.409 24.1437 12.409 23.1772C12.409 22.2107 13.1925 21.4272 14.159 21.4272C15.1255 21.4272 15.909 22.2107 15.909 23.1772ZM14.159 6.2998C15.1255 6.2998 15.909 5.5163 15.909 4.5498C15.909 3.58331 15.1255 2.7998 14.159 2.7998C13.1925 2.7998 12.409 3.58331 12.409 4.5498C12.409 5.5163 13.1925 6.2998 14.159 6.2998ZM22.0181 4.5498C22.0181 5.5163 21.2346 6.2998 20.2681 6.2998C19.3016 6.2998 18.5181 5.5163 18.5181 4.5498C18.5181 3.58331 19.3016 2.7998 20.2681 2.7998C21.2346 2.7998 22.0181 3.58331 22.0181 4.5498ZM20.2681 12.5089C21.2346 12.5089 22.0181 11.7254 22.0181 10.7589C22.0181 9.79244 21.2346 9.00893 20.2681 9.00893C19.3016 9.00893 18.5181 9.79244 18.5181 10.7589C18.5181 11.7254 19.3016 12.5089 20.2681 12.5089ZM15.909 10.7589C15.909 11.7254 15.1255 12.5089 14.159 12.5089C13.1925 12.5089 12.409 11.7254 12.409 10.7589C12.409 9.79244 13.1925 9.00893 14.159 9.00893C15.1255 9.00893 15.909 9.79244 15.909 10.7589ZM8.04999 12.5089C9.01649 12.5089 9.79999 11.7254 9.79999 10.7589C9.79999 9.79244 9.01649 9.00893 8.04999 9.00893C7.08349 9.00893 6.29999 9.79244 6.29999 10.7589C6.29999 11.7254 7.08349 12.5089 8.04999 12.5089ZM9.79999 16.9681C9.79999 17.9346 9.01649 18.7181 8.04999 18.7181C7.08349 18.7181 6.29999 17.9346 6.29999 16.9681C6.29999 16.0016 7.08349 15.2181 8.04999 15.2181C9.01649 15.2181 9.79999 16.0016 9.79999 16.9681ZM14.159 18.7181C15.1255 18.7181 15.909 17.9346 15.909 16.9681C15.909 16.0016 15.1255 15.2181 14.159 15.2181C13.1925 15.2181 12.409 16.0016 12.409 16.9681C12.409 17.9346 13.1925 18.7181 14.159 18.7181ZM22.0181 16.9681C22.0181 17.9346 21.2346 18.7181 20.2681 18.7181C19.3016 18.7181 18.5181 17.9346 18.5181 16.9681C18.5181 16.0016 19.3016 15.2181 20.2681 15.2181C21.2346 15.2181 22.0181 16.0016 22.0181 16.9681Z" fill="black" fill-opacity="0.87"/>
</svg>
