<svg width="11" height="15" viewBox="0 0 11 15" fill="none" xmlns="http://www.w3.org/2000/svg">
<path d="M0.916679 0.92125C0.916679 0.412547 1.32717 0 1.83335 0H9.16668C9.67371 0 10.0833 0.412547 10.0833 0.92125C10.0833 1.42995 9.67371 1.8425 9.16668 1.8425H8.32163L8.64819 6.10904C9.69949 6.68194 10.5274 7.64062 10.9255 8.83536L10.9542 8.92173C11.0458 9.20098 10.9742 9.51191 10.8024 9.75086C10.6534 9.99268 10.3784 10.1337 10.0833 10.1337H0.916679C0.621913 10.1337 0.345194 9.99268 0.173033 9.75086C0.000753958 9.51191 -0.0461364 9.20098 0.0470485 8.92173L0.0757516 8.83536C0.471809 7.64062 1.30111 6.68194 2.35298 6.10904L2.67954 1.8425H1.83335C1.32717 1.8425 0.916679 1.42995 0.916679 0.92125ZM6.41668 11.055V13.8187C6.41668 14.3283 6.00704 14.74 5.50001 14.74C4.99298 14.74 4.58335 14.3283 4.58335 13.8187V11.055H6.41668Z" fill="#8835B8"/>
</svg>
