<svg width="48" height="48" viewBox="0 0 48 48" fill="none" xmlns="http://www.w3.org/2000/svg">
<path id="Icon Color" d="M46.051 1.9849C44.686 0.619897 42.481 0.619897 41.116 1.9849L24.001 19.0649L6.886 1.9499C5.521 0.584897 3.316 0.584897 1.951 1.9499C0.585996 3.3149 0.585996 5.5199 1.951 6.8849L19.066 23.9999L1.951 41.1149C0.585996 42.4799 0.585996 44.6849 1.951 46.0499C3.316 47.4149 5.521 47.4149 6.886 46.0499L24.001 28.9349L41.116 46.0499C42.481 47.4149 44.686 47.4149 46.051 46.0499C47.416 44.6849 47.416 42.4799 46.051 41.1149L28.936 23.9999L46.051 6.8849C47.381 5.5549 47.381 3.3149 46.051 1.9849Z" fill="black" fill-opacity="0.87"/>
</svg>
