<svg width="28" height="28" viewBox="0 0 28 28" fill="none" xmlns="http://www.w3.org/2000/svg">
<path fill-rule="evenodd" clip-rule="evenodd" d="M21.3936 8.7499H23.0998C24.2811 8.7499 25.1998 9.7124 25.1998 10.8499V15.0499C25.1998 15.4437 24.8936 15.7499 24.4998 15.7499H23.7998V22.0499C23.7998 23.2312 22.8811 24.1499 21.6998 24.1499H6.2998C5.1623 24.1499 4.1998 23.2312 4.1998 22.0499V15.7499H3.4998C3.10605 15.7499 2.7998 15.4437 2.7998 15.0499V10.8499C2.7998 9.7124 3.7623 8.7499 4.8998 8.7499H6.60605C6.2123 8.18115 5.9498 7.4374 5.9498 6.6499C5.9498 4.7249 7.39355 3.1499 9.23105 3.1499C11.0686 3.1499 12.1186 4.24365 13.9998 7.3499C15.8811 4.24365 16.9311 3.1499 18.8123 3.1499C20.6061 3.1499 22.0498 4.7249 22.0498 6.6499C22.0498 7.4374 21.7873 8.18115 21.3936 8.7499ZM18.7685 4.5499C17.7623 4.5499 17.0623 4.94365 14.8748 8.5749L14.7873 8.7499H18.8123C19.8185 8.7499 20.6498 7.7874 20.6498 6.6499C20.6498 5.5124 19.8185 4.5499 18.7685 4.5499ZM9.23104 4.5499C10.2373 4.5499 10.9373 4.94365 13.1248 8.5749L13.2123 8.7499H9.18729C8.18104 8.7499 7.34979 7.83115 7.34979 6.6499C7.34979 5.5124 8.18104 4.5499 9.23104 4.5499ZM6.29979 22.7499H11.1998V15.7499H5.59979V22.0499C5.59979 22.4437 5.90604 22.7499 6.29979 22.7499ZM11.1998 14.3499H4.19984V10.8499C4.19984 10.4562 4.50609 10.1499 4.89984 10.1499H11.1998V14.3499ZM12.5998 22.7499H15.3998V10.1499H12.5998V22.7499ZM22.3998 22.0499C22.3998 22.4437 22.0936 22.7499 21.6998 22.7499H16.7998V15.7499H22.3998V22.0499ZM16.7998 14.3499H23.7998V10.8499C23.7998 10.4562 23.4936 10.1499 23.0998 10.1499H16.7998V14.3499Z" fill="#424547"/>
</svg>
