<?xml version="1.0" encoding="UTF-8"?>
<svg width="200px" height="200px" viewBox="0 0 200 200" version="1.1" xmlns="http://www.w3.org/2000/svg" xmlns:xlink="http://www.w3.org/1999/xlink">
    <!-- Generator: Sketch 59.1 (86144) - https://sketch.com -->
    <title>search</title>
    <desc>Created with Sketch.</desc>
    <g id="search" stroke="none" stroke-width="1" fill="none" fill-rule="evenodd">
        <g id="undraw_ice_cream_s2rh" transform="translate(0.000000, 4.000000)" fill-rule="nonzero">
            <path d="M115.569099,187.825507 L59.320081,188.011813 C44.397281,183.527863 32.1710503,167.953899 32.0931131,144.603909 C32.0787312,141.086325 32.3444513,137.573154 32.8883436,134.09784 L78.1943117,123.919264 L113.145065,116.06773 C115.72052,118.374021 118.120332,120.869231 120.324525,123.532589 L86.9035092,141.179782 L71.1373325,149.505227 L88.853762,143.393107 L125.625163,130.707394 C127.918287,134.213416 129.961484,137.876679 131.739573,141.669963 L120.644849,153.136182 L133.195602,144.919649 C133.249243,145.045514 133.302658,145.171581 133.355848,145.29785 C141.310044,164.181286 131.440923,187.772935 115.569099,187.825507 Z" id="Path" fill="#F2F2F2"></path>
            <path d="M106.3252,110.782775 C97.8189571,113.225769 87.3610896,116.312434 76.6087166,119.520667 C61.0623509,124.160621 44.9010061,129.0572 33.135038,132.636518 L33.142719,132.594555 C33.5776229,130.082889 34.6001034,127.709604 36.1267534,125.668294 C44.8426209,114.336059 55.9408859,106.419583 68.2927877,103.479656 L68.2938724,103.479656 C71.7672294,102.651135 75.3246836,102.226701 78.8954699,102.214542 C88.7226847,102.182253 98.031119,105.264493 106.3252,110.782775 Z" id="Path" fill="#F2F2F2"></path>
            <ellipse id="Oval" fill="#3F3D56" cx="69.8720515" cy="187.116564" rx="38.2822086" ry="5.52147239"></ellipse>
            <polygon id="Path" fill="#FBBEBE" points="56.2525153 135.582822 56.2525153 144.171779 62.3874847 144.907975 66.0684663 140.245399 63.123681 134.355828"></polygon>
            <polygon id="Path" fill="#FBBEBE" points="79.5653988 170.920245 82.7555828 179.509202 88.6451534 177.546012 84.2279755 170.429448"></polygon>
            <path d="M72.2033399,97.791411 C72.2033399,97.791411 40.3014994,94.601227 41.2830945,103.435583 C42.2646896,112.269939 56.2524196,137.546012 56.2524196,137.546012 L65.577573,135.828221 C65.577573,135.828221 58.9518061,125.521472 59.4426037,122.08589 C59.9334012,118.650307 57.970211,113.98773 57.970211,113.98773 L62.6327877,114.723926 L65.3321742,118.895706 L70.976346,147.852761 L79.5653031,173.865031 L85.9456712,172.147239 C85.9456712,172.147239 82.5100883,161.349693 83.4916834,157.91411 C84.4732785,154.478528 78.8291067,141.226994 78.8291067,141.226994 L82.7554871,118.159509 C82.7554871,118.159509 90.3628491,115.95092 88.1542601,108.343558 C85.9456712,100.736196 72.2033399,97.791411 72.2033399,97.791411 Z" id="Path" fill="#2F2E41"></path>
            <path d="M58.9518061,141.472393 C58.9518061,141.472393 55.2708245,138.527607 55.5162233,139.754601 C55.6549625,140.649049 55.6549625,141.55954 55.5162233,142.453988 L52.0806405,150.06135 C52.0806405,150.06135 43.7370822,157.668712 51.3444442,157.91411 C58.9518061,158.159509 62.8781865,150.306748 62.8781865,150.306748 C62.8781865,150.306748 73.4303337,142.453988 72.2033399,141.226994 C70.976346,140 64.5366577,137.181973 64.5366577,137.181973 C64.5366577,137.181973 62.387389,143.190184 58.9518061,141.472393 Z" id="Path" fill="#2F2E41"></path>
            <path d="M82.5100883,175.582822 C82.5100883,175.582822 79.0745055,172.392638 78.8291067,173.865031 C78.583708,175.337423 78.3383092,177.300613 78.3383092,177.300613 L73.184935,182.208589 C73.184935,182.208589 65.8229718,189.325153 72.2033399,189.570552 C75.9384484,189.7393 79.5485493,188.205007 82.0192908,185.398773 C82.0192908,185.398773 91.3444442,183.435583 90.8536466,181.96319 C90.3628491,180.490798 87.9019607,174.794601 86.8011166,174.575215 C85.7002724,174.355828 85.4548736,177.546012 82.5100883,175.582822 Z" id="Path" fill="#2F2E41"></path>
            <circle id="Oval" fill="#FBBEBE" cx="70.7309472" cy="54.8466258" r="7.60736196"></circle>
            <path d="M67.2953644,60 C67.2953644,60 70.4855485,68.5889571 70.2401497,69.3251534 C69.9947509,70.0613497 80.3014994,63.190184 80.3014994,63.190184 C80.3014994,63.190184 75.8843215,62.208589 75.8843215,58.2822086 L67.2953644,60 Z" id="Path" fill="#FBBEBE"></path>
            <path d="M95.2708245,72.5153374 C95.2708245,72.5153374 99.6880025,76.9325153 100.424199,78.404908 C101.160395,79.8773006 117.847512,98.5276074 117.847512,98.5276074 C117.847512,98.5276074 128.890456,111.533742 124.473279,111.779141 C120.056101,112.02454 114.411929,101.472393 114.411929,101.472393 C114.411929,101.472393 98.7064074,89.9386503 97.970211,87.2392638 L88.8904564,77.9141104 L95.2708245,72.5153374 Z" id="Path" fill="#FBBEBE"></path>
            <path d="M72.2033399,67.3619632 L69.5039534,67.3619632 L65.8229718,73.2515337 C65.8229718,73.2515337 62.1419902,76.4417178 64.8413767,83.0674847 C67.5407632,89.6932515 69.7493521,98.0368098 69.7493521,98.0368098 C69.7493521,98.0368098 77.6021129,99.0184049 79.0745055,101.472393 C80.5468982,103.92638 88.8904564,111.779141 88.8904564,111.779141 C88.8904564,111.779141 90.3628491,106.625767 89.8720515,99.0184049 C89.381254,91.4110429 89.8720515,79.8773006 89.8720515,79.8773006 L89.381254,64.6625767 C89.381254,64.6625767 79.9031141,62.4656736 79.243411,62.8279288 C78.583708,63.190184 72.2033399,67.3619632 72.2033399,67.3619632 Z" id="Path" fill="#575A89"></path>
            <path d="M85.7002724,65.398773 L89.381254,64.6625767 C89.381254,64.6625767 93.3076344,67.1165644 96.988616,74.2331288 C96.988616,74.2331288 89.1358552,79.3865031 88.3996589,79.1411043 C87.6634626,78.8957055 85.7002724,65.398773 85.7002724,65.398773 Z" id="Path" fill="#575A89"></path>
            <path d="M63.1235853,82.0858896 C63.1235853,82.0858896 57.4794135,91.1656442 59.1972049,94.601227 C60.9149963,98.0368098 63.1235853,97.791411 63.1235853,97.791411 C63.1235853,97.791411 67.2953644,97.0552147 67.2953644,93.6196319 C67.2953644,90.1840491 69.0131558,89.9386503 69.0131558,89.9386503 C69.0131558,89.9386503 79.8107018,81.1042945 75.6389227,81.1042945 C71.4671436,81.1042945 65.8229718,87.2392638 65.8229718,87.2392638 L65.577573,81.595092 L63.1235853,82.0858896 Z" id="Path" fill="#FBBEBE"></path>
            <path d="M66.8045669,73.006135 C66.8045669,73.006135 63.1235853,73.9877301 62.387389,77.9141104 C61.6511926,81.8404908 61.8965914,83.803681 61.8965914,83.803681 L66.8045669,83.3128834 L66.8045669,73.006135 Z" id="Path" fill="#575A89"></path>
            <path d="M59.9334012,92.6380368 C59.9334012,92.6380368 63.8597816,87.4846626 64.3505791,88.2208589 L59.9334012,92.6380368 Z" id="Path" fill="#000000" opacity="0.1"></path>
            <path d="M74.5954969,45.636984 C74.5954969,45.636984 70.5611656,41.606081 66.6772319,44.3125374 C62.7932982,47.0189939 60.9846356,49.5967092 61.4181472,51.3472663 C61.8516589,53.0978233 63.0624761,55.5168859 63.0624761,55.5168859 C63.0624761,55.5168859 62.2544098,51.8878724 65.5196957,51.5324 C68.7849816,51.1769276 73.2493963,48.8931583 73.2493963,48.8931583 L76.4782356,55.343973 C76.4782356,55.343973 76.8710135,53.819281 78.0809693,54.222027 C79.2909252,54.624773 78.1365006,46.0289031 74.5954969,45.636984 Z" id="Path" fill="#2F2E41"></path>
            <path d="M46.989335,180.5876 C46.989335,184.165728 44.8623166,185.415085 42.2382773,185.415085 C42.1774888,185.415085 42.1167935,185.414409 42.0561914,185.413058 C41.9346135,185.410452 41.8141914,185.404665 41.6952221,185.396557 C39.3270748,185.22895 37.4872074,183.915345 37.4872074,180.587607 C37.4872074,177.143794 41.8880074,172.798282 42.2185791,172.476687 L42.2191583,172.476108 C42.2318969,172.463661 42.238265,172.457583 42.238265,172.457583 C42.238265,172.457583 46.989335,177.009472 46.989335,180.5876 Z" id="Path" fill="#166DFF"></path>
            <path d="M42.0651755,184.867691 L43.8028564,182.439625 L42.0608319,185.134292 L42.0562037,185.41305 C41.9346258,185.410444 41.8142037,185.404658 41.6952344,185.39655 L41.8825227,181.816687 L41.8810748,181.788896 L41.884265,181.783686 L41.9019337,181.445588 L40.1555656,178.74426 L41.9074331,181.192012 L41.9114896,181.263799 L42.0530356,178.559001 L40.5579313,175.767649 L42.0712736,178.084272 L42.218611,172.476665 L42.2191902,172.457561 L42.2191902,172.476086 L42.1945865,176.898017 L43.683038,175.144991 L42.1885104,177.278957 L42.1491411,179.700655 L43.5388834,177.376508 L42.1433546,180.056999 L42.1213546,181.403318 L44.1389521,178.168501 L42.1138086,181.873129 L42.0651755,184.867691 Z" id="Path" fill="#3F3D56"></path>
            <path d="M154.921887,53.9056687 C154.921887,53.9056687 153.412052,58.6001472 151.056049,65.3451485 C150.294147,67.5361571 149.440906,69.9413202 148.520972,72.4729055 C147.239374,75.9981423 145.827865,79.7691706 144.349664,83.5401988 C143.440275,85.861119 142.506282,88.1785031 141.561747,90.4432319 C136.484564,102.581458 131.077347,113.09749 127.534508,113.244977 C119.574643,113.575038 102.524228,60.3171239 100.663274,54.4323485 C100.554405,54.088238 100.498258,53.9056687 100.498258,53.9056687 L154.921887,53.9056687 Z" id="Path" fill="#3F3D56"></path>
            <path d="M151.056049,65.3451485 C150.294147,67.5361571 149.440906,69.9413202 148.520972,72.4729055 L127.436189,53.9056687 L138.064604,53.9056687 L151.056049,65.3451485 Z" id="Path" fill="#000000" opacity="0.1"></path>
            <path d="M144.349664,83.5401988 C143.440275,85.861119 142.506282,88.1785031 141.561747,90.4432319 L100.663279,54.4323485 C100.55441,54.088238 100.498263,53.9056687 100.498263,53.9056687 L110.694805,53.9056687 L144.349664,83.5401988 Z" id="Path" fill="#000000" opacity="0.1"></path>
            <path d="M128.653816,6.73650061 C126.158888,8.71280736 122.213745,7.96551411 119.815968,10.0586282 C118.175855,11.4903485 117.738351,13.9386282 118.185875,16.0692515 C118.633399,18.1998748 119.822643,20.0904564 121.019043,21.9093644 C121.844746,23.1646969 122.701357,24.4299313 123.861585,25.3846626 C125.483728,26.7194945 127.565521,27.3408761 129.606125,27.8399632 C134.049959,28.9264883 138.587764,29.5842724 143.157205,29.8042798 C145.194913,29.9022429 147.502682,29.8042798 148.875629,28.2953423 C149.675117,27.4166724 149.996631,26.2125055 150.230906,25.0478798 C150.597372,23.2261129 150.80105,21.2647411 150.043745,19.5677963 C149.421281,18.1730012 148.223156,17.127519 147.01015,16.1993301 C143.205352,13.287919 138.724187,10.8775828 136.402012,6.68707975 C135.478982,5.0214184 134.909742,3.09125153 133.510766,1.79890307 C131.687168,0.114431902 127.629691,-0.574348466 125.482545,0.550905521 C125.814204,1.30716564 130.149453,5.55176196 128.653816,6.73650061 Z" id="Path" fill="#166DFF"></path>
            <path d="M107.688388,26.3788957 C106.948655,28.9440491 106.267175,31.6581301 106.890047,34.2541252 C107.711281,37.676854 110.71229,40.2401914 114.004258,41.4861669 C117.296226,42.7321423 120.886221,42.8776123 124.403639,43.008984 L142.819944,43.6968123 C145.1344,43.783254 147.493431,43.8781104 149.668562,44.6737153 C151.461335,45.3294675 153.59211,46.409254 155.086721,45.2217448 C155.764599,44.6831509 156.069144,43.8110798 156.309698,42.9793742 C157.092449,40.2730405 157.530344,37.3012147 156.477691,34.6880049 C155.271436,31.6934748 152.297004,29.7257963 149.208702,28.7852417 C146.1204,27.8446871 142.849683,27.7530945 139.640918,27.3978969 C136.385921,27.0374217 133.167544,26.4003476 130.020685,25.4935828 C127.389899,24.7353767 124.724488,23.7348933 122.778552,21.8089669 C121.725936,20.7671804 120.928879,19.4966724 119.936729,18.3971509 C114.253283,12.0986503 109.086258,21.5315877 107.688388,26.3788957 Z" id="Path" fill="#166DFF"></path>
            <path d="M103.641534,38.1635877 C99.9982664,39.7954543 97.4743005,43.2144854 96.9878956,47.1767822 C96.5014907,51.1390789 98.1235488,55.067069 101.263939,57.5316859 C104.06813,59.7324515 107.737867,60.4977669 111.293315,60.7539656 C114.765119,61.0041399 118.251921,60.8320319 121.728466,60.6598405 L152.488187,59.136319 C154.29122,59.0470135 156.331885,58.8395043 157.43252,57.4085914 C158.253966,56.3406454 158.302267,54.8677006 158.10614,53.5347264 C157.400591,48.7397178 153.779985,44.4947092 149.156353,43.0414748 C147.41255,42.4933865 145.576623,42.3199632 143.756675,42.1496761 L130.570842,40.9159239 C128.795151,40.7497767 127.009063,40.5817914 125.288064,40.1139804 C120.073674,38.6965816 115.414346,34.5582748 110.04561,35.1710282 C106.403413,35.5867337 103.404562,38.1365472 100.758822,40.6739558" id="Path" fill="#166DFF"></path>
            <path d="M120.863232,17.389173 C120.863232,17.389173 125.16691,25.1593276 147.242373,28.2966577" id="Path" fill="#000000" opacity="0.1"></path>
            <path d="M108.65229,37.7405055 C108.65229,37.7405055 116.649799,45.8299067 149.655094,45.8299067" id="Path" fill="#000000" opacity="0.1"></path>
            <ellipse id="Oval" fill="#3F3D56" cx="127.183394" cy="12.824611" rx="2.10672147" ry="1"></ellipse>
            <ellipse id="Oval" fill="#3F3D56" cx="134.205796" cy="17.389173" rx="2.10672147" ry="1"></ellipse>
            <ellipse id="Oval" fill="#3F3D56" cx="142.281561" cy="22.304854" rx="2.10672147" ry="1"></ellipse>
            <ellipse id="Oval" fill="#3F3D56" cx="114.191946" cy="24.4115755" rx="2.10672147" ry="1"></ellipse>
            <ellipse id="Oval" fill="#3F3D56" cx="132.099075" cy="31.0828589" rx="2.10672147" ry="1"></ellipse>
            <ellipse id="Oval" fill="#3F3D56" cx="106.818425" cy="44.7765448" rx="2.10672147" ry="1"></ellipse>
            <ellipse id="Oval" fill="#3F3D56" cx="120.160989" cy="31.7850994" rx="2.10672147" ry="1"></ellipse>
            <ellipse id="Oval" fill="#3F3D56" cx="112.085227" cy="50.0433472" rx="2.10672147" ry="1"></ellipse>
            <ellipse id="Oval" fill="#3F3D56" cx="125.778913" cy="46.8832663" rx="2.10672147" ry="1"></ellipse>
            <ellipse id="Oval" fill="#166DFF" cx="134.030236" cy="59.6991509" rx="2.28228221" ry="4.7401227"></ellipse>
            <ellipse id="Oval" fill="#166DFF" cx="136.839198" cy="61.4547534" rx="2.28228221" ry="4.7401227"></ellipse>
            <path d="M132.156415,107.161281 C132.175274,107.067514 132.648542,104.825794 135.124488,101.555391 C137.396103,98.555016 141.864265,94.0903362 150.251099,89.8598896 C166.139487,81.8456761 169.69478,66.7889497 169.728751,66.6376368 L170.153291,66.7334601 C170.144667,66.7718184 169.255433,70.626665 166.393342,75.4239926 C162.594992,81.7806973 157.063476,86.9230771 150.447063,90.2484687 C134.585821,98.2490307 132.601134,107.158488 132.582849,107.247573 L132.156415,107.161281 Z" id="Path" fill="#3F3D56"></path>
            <circle id="Oval" fill="#166DFF" cx="170.541364" cy="62.1986233" r="2.82813252"></circle>
            <circle id="Oval" fill="#3F3D56" cx="169.98171" cy="75.9203828" r="2.82813252"></circle>
            <circle id="Oval" fill="#166DFF" cx="160.781676" cy="76.8833939" r="2.82813252"></circle>
            <circle id="Oval" fill="#166DFF" cx="162.211652" cy="86.2197423" r="2.82813252"></circle>
            <circle id="Oval" fill="#3F3D56" cx="148.980064" cy="86.4112859" r="2.82813252"></circle>
            <path d="M133.338447,108.399296 C133.338447,108.399296 135.998056,101.371622 145.769482,103.311902 L133.338447,108.399296 Z" id="Path" fill="#3F3D56"></path>
            <path d="M130.87386,105.941779 C130.87386,105.941779 134.963627,99.6381718 127.615602,92.9112 L130.87386,105.941779 Z" id="Path" fill="#3F3D56"></path>
            <polygon id="Path" fill="#F2F2F2" points="197.829939 109.288098 193.148221 107.440491 188.466258 105.593129 192.407117 102.462331 196.347975 99.3312883 197.08908 104.309693"></polygon>
            <polygon id="Path" fill="#F2F2F2" points="9.36368098 77.3862577 4.68196319 75.5386503 0 73.6912883 3.9408589 70.5604908 7.88171779 67.4294479 8.62282209 72.4078528"></polygon>
            <polygon id="Path" fill="#F2F2F2" points="174.517055 136.527362 169.835337 134.679755 165.153374 132.832393 169.094233 129.701595 173.035092 126.570552 173.776196 131.548957"></polygon>
            <polygon id="Path" fill="#F2F2F2" points="199.779632 153.890798 195.357791 156.294969 190.936196 158.699387 191.064785 153.667975 191.193374 148.636319 195.486626 151.263558"></polygon>
            <polygon id="Path" fill="#F2F2F2" points="33.153865 57.6944785 28.7320245 60.0986503 24.3104294 62.5030675 24.4390184 57.4716564 24.5676074 52.44 28.8608589 55.0672393"></polygon>
        </g>
    </g>
</svg>