<svg width="24" height="24" viewBox="0 0 24 24" fill="none" xmlns="http://www.w3.org/2000/svg">
<path d="M7.79995 4.99999C6.25355 4.99999 4.99995 6.25359 4.99995 7.79999V20.4C4.99995 21.9464 6.25355 23.2 7.79995 23.2H20.4C21.9463 23.2 23.2 21.9464 23.2 20.4V7.79999C23.2 6.25359 21.9463 4.99999 20.4 4.99999H7.79995ZM7.79995 6.39999H20.4C21.1731 6.39999 21.8 7.02679 21.8 7.79999V20.4C21.8 21.1732 21.1731 21.8 20.4 21.8H7.79995C7.02675 21.8 6.39995 21.1732 6.39995 20.4V7.79999C6.39995 7.02679 7.02675 6.39999 7.79995 6.39999ZM3.59995 0.799988C2.08273 0.799988 0.847361 2.00673 0.801283 3.51278L0.79995 3.59999V16.2C0.79995 17.7172 2.00669 18.9526 3.51274 18.9987L3.59995 19V17.6C2.85018 17.6 2.23807 17.0106 2.20166 16.2699L2.19995 16.2V3.59999C2.19995 2.85022 2.78934 2.23811 3.53008 2.2017L3.59995 2.19999H16.2C16.9497 2.19999 17.5618 2.78938 17.5982 3.53011L17.6 3.59999H19C19 2.08277 17.7932 0.847398 16.2872 0.80132L16.2 0.799988H3.59995ZM11.6229 13.5082C11.5427 13.5599 11.4734 13.628 11.4192 13.7086L8.62735 17.8511C8.40577 18.1799 8.48061 18.6345 8.79451 18.8666C8.91189 18.9534 9.05204 19 9.19572 19H19.0042C19.3885 19 19.7 18.6737 19.7 18.2713C19.7 18.1165 19.6529 17.9657 19.5656 17.8408L17.7536 15.2488C17.5266 14.9241 17.0913 14.8536 16.7813 15.0913C16.7353 15.1266 16.6936 15.1677 16.6571 15.2137L14.8102 17.5426L12.58 13.7469C12.3787 13.4041 11.9501 13.2973 11.6229 13.5082Z" fill="black" fill-opacity="0.87"/>
</svg>
