<?xml version="1.0" encoding="UTF-8"?>
<svg width="80px" height="80px" viewBox="0 0 80 80" version="1.1" xmlns="http://www.w3.org/2000/svg" xmlns:xlink="http://www.w3.org/1999/xlink">
    <!-- Generator: Sketch 55.2 (78181) - https://sketchapp.com -->
    <title>🔩 Parts/Icon/Font Awesome/slider-v</title>
    <desc>Created with Sketch.</desc>
    <g id="🔩-Parts/Icon/Font-Awesome/slider-v" stroke="none" stroke-width="1" fill="none" fill-rule="evenodd">
        <g id="sliders-v" transform="translate(12.000000, 8.000000)" fill="#000000" fill-rule="nonzero">
            <path d="M20,21 L20,15 C20,13.3375 18.6625,12 17,12 L12,12 L12,1 C12,0.45 11.55,0 11,0 L9,0 C8.45,0 8,0.45 8,1 L8,12 L3,12 C1.3375,12 0,13.3375 0,15 L0,21 C0,22.6625 1.3375,24 3,24 L8,24 L8,63 C8,63.55 8.45,64 9,64 L11,64 C11.55,64 12,63.55 12,63 L12,24 L17,24 C18.6625,24 20,22.6625 20,21 Z M16,20 L4,20 L4,16 L16,16 L16,20 Z M35,40 L30,40 L30,1 C30,0.45 29.55,0 29,0 L27,0 C26.45,0 26,0.45 26,1 L26,40 L21,40 C19.3375,40 18,41.3375 18,43 L18,49 C18,50.6625 19.3375,52 21,52 L26,52 L26,63 C26,63.55 26.45,64 27,64 L29,64 C29.55,64 30,63.55 30,63 L30,52 L35,52 C36.6625,52 38,50.6625 38,49 L38,43 C38,41.3375 36.6625,40 35,40 Z M34,48 L22,48 L22,44 L34,44 L34,48 Z M53,20 L48,20 L48,1 C48,0.45 47.55,0 47,0 L45,0 C44.45,0 44,0.45 44,1 L44,20 L39,20 C37.3375,20 36,21.3375 36,23 L36,29 C36,30.6625 37.3375,32 39,32 L44,32 L44,63 C44,63.55 44.45,64 45,64 L47,64 C47.55,64 48,63.55 48,63 L48,32 L53,32 C54.6625,32 56,30.6625 56,29 L56,23 C56,21.3375 54.6625,20 53,20 Z M52,28 L40,28 L40,24 L52,24 L52,28 Z" id="Shape"></path>
        </g>
    </g>
</svg>