<svg width="24" height="18" viewBox="0 0 24 18" fill="none" xmlns="http://www.w3.org/2000/svg">
<path fill-rule="evenodd" clip-rule="evenodd" d="M8.15004 0.506653C6.00764 0.506653 4.27087 2.24341 4.27087 4.38582C4.27087 6.52822 6.00764 8.26499 8.15004 8.26499C10.2924 8.26499 12.0292 6.52822 12.0292 4.38582C12.0292 2.24341 10.2924 0.506653 8.15004 0.506653ZM5.72921 4.38582C5.72921 3.04883 6.81305 1.96499 8.15004 1.96499C9.48703 1.96499 10.5709 3.04883 10.5709 4.38582C10.5709 5.72281 9.48703 6.80665 8.15004 6.80665C6.81305 6.80665 5.72921 5.72281 5.72921 4.38582Z" fill="black" fill-opacity="0.87"/>
<path fill-rule="evenodd" clip-rule="evenodd" d="M15.7334 9.72331C13.591 9.72331 11.8542 11.4601 11.8542 13.6025C11.8542 15.7449 13.591 17.4816 15.7334 17.4816C17.8758 17.4816 19.6125 15.7449 19.6125 13.6025C19.6125 11.4601 17.8758 9.72331 15.7334 9.72331ZM13.3125 13.6025C13.3125 12.2655 14.3964 11.1816 15.7334 11.1816C17.0704 11.1816 18.1542 12.2655 18.1542 13.6025C18.1542 14.9395 17.0704 16.0233 15.7334 16.0233C14.3964 16.0233 13.3125 14.9395 13.3125 13.6025Z" fill="black" fill-opacity="0.87"/>
<path d="M0.799927 13.5733C0.799927 13.1706 1.12639 12.8442 1.52909 12.8442H10.5708C10.9735 12.8442 11.2999 13.1706 11.2999 13.5733C11.2999 13.976 10.9735 14.3025 10.5708 14.3025H1.52909C1.12639 14.3025 0.799927 13.976 0.799927 13.5733Z" fill="black" fill-opacity="0.87"/>
<path d="M13.4293 3.80248C13.0266 3.80248 12.7002 4.12894 12.7002 4.53165C12.7002 4.93436 13.0266 5.26082 13.4293 5.26082H22.471C22.8737 5.26082 23.2002 4.93436 23.2002 4.53165C23.2002 4.12894 22.8737 3.80248 22.471 3.80248H13.4293Z" fill="black" fill-opacity="0.87"/>
<path d="M20.4003 13.5733C20.4003 13.1706 20.7267 12.8442 21.1294 12.8442H22.4711C22.8738 12.8442 23.2003 13.1706 23.2003 13.5733C23.2003 13.976 22.8738 14.3025 22.4711 14.3025H21.1294C20.7267 14.3025 20.4003 13.976 20.4003 13.5733Z" fill="black" fill-opacity="0.87"/>
<path d="M1.52909 3.80248C1.12639 3.80248 0.799927 4.12894 0.799927 4.53165C0.799927 4.93436 1.12639 5.26082 1.52909 5.26082H2.87076C3.27347 5.26082 3.59993 4.93436 3.59993 4.53165C3.59993 4.12894 3.27347 3.80248 2.87076 3.80248H1.52909Z" fill="black" fill-opacity="0.87"/>
</svg>
