<svg width="28" height="28" viewBox="0 0 28 28" fill="none" xmlns="http://www.w3.org/2000/svg">
<path d="M10.7917 4.28756C10.389 4.28756 10.0626 4.61402 10.0626 5.01672V6.41672H8.60425V5.01672C8.60425 3.8086 9.58362 2.82922 10.7917 2.82922H17.2084C18.4165 2.82922 19.3959 3.8086 19.3959 5.01672V6.41672H17.9376V5.01672C17.9376 4.61402 17.6111 4.28756 17.2084 4.28756H10.7917Z" fill="black" fill-opacity="0.87"/>
<path d="M11.0253 11.6959C11.0253 11.2932 11.3518 10.9667 11.7545 10.9667C12.1572 10.9667 12.4836 11.2932 12.4836 11.6959V19.5709C12.4836 19.9736 12.1572 20.3 11.7545 20.3C11.3518 20.3 11.0253 19.9736 11.0253 19.5709V11.6959Z" fill="black" fill-opacity="0.87"/>
<path d="M16.2457 10.9667C15.843 10.9667 15.5165 11.2932 15.5165 11.6959V19.5709C15.5165 19.9736 15.843 20.3 16.2457 20.3C16.6484 20.3 16.9749 19.9736 16.9749 19.5709V11.6959C16.9749 11.2932 16.6484 10.9667 16.2457 10.9667Z" fill="black" fill-opacity="0.87"/>
<path fill-rule="evenodd" clip-rule="evenodd" d="M4.55424 7.87505L6.58322 22.5852C6.79223 24.1005 8.08732 25.2292 9.617 25.2292H18.3832C19.9128 25.2292 21.2079 24.1005 21.4169 22.5852L23.4459 7.87505H23.8875C24.2902 7.87505 24.6166 7.54859 24.6166 7.14589C24.6166 6.74318 24.2902 6.41672 23.8875 6.41672H4.11247C3.70976 6.41672 3.3833 6.74318 3.3833 7.14589C3.3833 7.54859 3.70976 7.87505 4.11247 7.87505H4.55424ZM6.02638 7.87505L8.02788 22.3859C8.13736 23.1796 8.81574 23.7709 9.617 23.7709H18.3832C19.1844 23.7709 19.8628 23.1796 19.9723 22.3859L21.9738 7.87505H6.02638Z" fill="black" fill-opacity="0.87"/>
</svg>
