<svg width="22" height="21" viewBox="0 0 22 21" fill="none" xmlns="http://www.w3.org/2000/svg">
<path d="M11.0001 12.8699C10.3841 12.8699 9.88013 12.3659 9.88013 11.7499V8.80994C9.88013 8.19394 10.3841 7.68994 11.0001 7.68994C11.6161 7.68994 12.1201 8.19394 12.1201 8.80994V11.7499C12.1201 12.3659 11.6161 12.8699 11.0001 12.8699Z" fill="black" fill-opacity="0.87"/>
<path d="M11.0001 16.6499C10.3816 16.6499 9.88013 16.1485 9.88013 15.5299C9.88013 14.9114 10.3816 14.4099 11.0001 14.4099C11.6187 14.4099 12.1201 14.9114 12.1201 15.5299C12.1201 16.1485 11.6187 16.6499 11.0001 16.6499Z" fill="black" fill-opacity="0.87"/>
<path fill-rule="evenodd" clip-rule="evenodd" d="M12.9379 2.07875C12.0755 0.589148 9.92513 0.589148 9.06273 2.07875L0.629131 16.65C-0.233269 18.1396 0.841931 20.01 2.56673 20.01H19.4339C21.1587 20.01 22.2339 18.1396 21.3715 16.65L12.9379 2.07875ZM20.1094 17.3806C20.4098 17.8994 20.0338 18.5516 19.4339 18.5516H2.56673C1.9669 18.5516 1.59089 17.8994 1.89121 17.3806L10.3248 2.80943C10.6255 2.29024 11.375 2.29008 11.6758 2.80927L20.1094 17.3806Z" fill="black" fill-opacity="0.87"/>
</svg>
