<svg width="160" height="100" viewBox="0 0 160 100" fill="none" xmlns="http://www.w3.org/2000/svg">
<path d="M34.8436 69.4792C32.3986 69.4792 30.4165 71.4613 30.4165 73.9063C30.4165 76.3513 32.3986 78.3334 34.8436 78.3334H56.0936C58.5386 78.3334 60.5207 76.3513 60.5207 73.9063C60.5207 71.4613 58.5386 69.4792 56.0936 69.4792H34.8436Z" fill="#919191"/>
<path d="M73.8021 69.4792C71.3571 69.4792 69.375 71.4613 69.375 73.9063C69.375 76.3513 71.3571 78.3334 73.8021 78.3334H114.531C116.976 78.3334 118.958 76.3513 118.958 73.9063C118.958 71.4613 116.976 69.4792 114.531 69.4792H73.8021Z" fill="#919191"/>
<path fill-rule="evenodd" clip-rule="evenodd" d="M0 16C0 7.16345 7.16344 0 16 0H144C152.837 0 160 7.16344 160 16V84C160 92.8366 152.837 100 144 100H16C7.16345 100 0 92.8366 0 84V16ZM16 9H144C147.866 9 151 12.134 151 16V27H9V16C9 12.134 12.134 9 16 9ZM9 45V84C9 87.866 12.134 91 16 91H144C147.866 91 151 87.866 151 84V45H9Z" fill="#919191"/>
</svg>
