<svg width="28" height="28" viewBox="0 0 28 28" fill="none" xmlns="http://www.w3.org/2000/svg">
<path d="M12.7146 9.09274C12.5407 8.91884 12.5407 8.63689 12.7146 8.46295L15.7635 5.41409C17.649 3.52845 20.7007 3.52882 22.5859 5.41409C24.4715 7.29961 24.4712 10.3514 22.5859 12.2365L19.5371 15.2854C19.3632 15.4593 19.0812 15.4593 18.9073 15.2854L18.5924 14.9705C18.4185 14.7966 18.4185 14.5147 18.5924 14.3407L21.6413 11.2919C23.0046 9.92844 23.0045 7.72196 21.6413 6.35871C20.2778 4.99527 18.0714 4.99546 16.7081 6.35867L13.6592 9.40754C13.4853 9.58143 13.2034 9.58143 13.0294 9.40754L12.7146 9.09274ZM12.2919 20.6447C10.9319 22.0047 8.71882 22.0047 7.35872 20.6446C5.99548 19.2814 5.99537 17.0749 7.35872 15.7114L10.4087 12.6614C10.5826 12.4875 10.5826 12.2056 10.4087 12.0316L10.0939 11.7168C9.91997 11.5429 9.63801 11.5429 9.46408 11.7168L6.41407 14.7668C4.52885 16.6519 4.52844 19.7037 6.41407 21.5892C8.29499 23.4702 11.3556 23.4702 13.2365 21.5892L16.2865 18.5392C16.4604 18.3653 16.4604 18.0834 16.2865 17.9094L15.9717 17.5946C15.7978 17.4207 15.5158 17.4207 15.3419 17.5946L12.2919 20.6447ZM5.4453 4.13048L5.13043 4.44535C4.95653 4.61924 4.95653 4.9012 5.13043 5.07513L22.9249 22.8696C23.0988 23.0435 23.3808 23.0435 23.5547 22.8696L23.8696 22.5547C24.0435 22.3808 24.0435 22.0989 23.8696 21.9249L6.07508 4.13048C5.90118 3.95655 5.61923 3.95655 5.4453 4.13048Z" fill="black" fill-opacity="0.87"/>
</svg>
