<svg width="24" height="24" viewBox="0 0 24 24" fill="none" xmlns="http://www.w3.org/2000/svg">
<path d="M1.32478 0.953874L0.953564 1.32509C0.748552 1.5301 0.748552 1.86252 0.953564 2.06757L21.9323 23.0463C22.1373 23.2513 22.4697 23.2513 22.6748 23.0463L23.046 22.6751C23.251 22.4701 23.251 22.1376 23.046 21.9326L2.06726 0.953874C1.86225 0.748818 1.52984 0.748818 1.32478 0.953874Z" fill="white"/>
<path fill-rule="evenodd" clip-rule="evenodd" d="M6.63533 9.74157C6.45201 9.55825 6.15764 9.54418 5.96961 9.72268C4.95023 10.6905 4.19338 11.9548 3.83641 13.4061L3.55987 14.5246C3.45409 14.9559 3.54915 15.4096 3.81764 15.76C4.08601 16.1103 4.49817 16.3125 4.93424 16.3125H11.3092L11.2694 22.7812C11.2694 23.1766 11.628 23.5 11.9777 23.5C12.4072 23.5 12.7259 23.1766 12.7259 22.7812V16.0393C12.7259 15.9066 12.6732 15.7795 12.5795 15.6857L11.9152 15.0214C11.8214 14.9277 11.6943 14.875 11.5617 14.875H4.93424L5.21093 13.752C5.49616 12.5929 6.09684 11.5812 6.90685 10.802C7.12176 10.5952 7.1426 10.2488 6.93173 10.038L6.63533 9.74157Z" fill="white"/>
<path d="M20.1988 13.4061L20.3552 14.0435C20.4206 14.3099 20.2591 14.5793 19.9933 14.6471L19.5904 14.75C19.3209 14.8188 19.047 14.6545 18.981 14.3843L18.8264 13.752C18.4545 12.2516 17.5559 10.9982 16.3605 10.1762L15.7983 9.78984L15.2006 1.9375H8.8345L8.63292 4.60576C8.60716 4.94678 8.19305 5.1003 7.95122 4.85847L7.40784 4.31509C7.30477 4.21202 7.25181 4.0691 7.26283 3.92374L7.41341 1.9375H6.35091C6.22297 1.9375 6.10344 1.90336 5.99984 1.84316C5.78646 1.71918 5.64258 1.48604 5.64258 1.21875C5.64258 0.82182 5.95956 0.5 6.35091 0.5H17.6842C18.0738 0.5 18.3926 0.82182 18.3926 1.21875C18.3926 1.48604 18.2509 1.71918 18.034 1.84316C17.9322 1.90336 17.8126 1.9375 17.6842 1.9375H16.6217L17.1574 8.98574C18.6316 10.001 19.7428 11.5508 20.1988 13.4061Z" fill="white"/>
</svg>
