<svg width="24" height="24" viewBox="0 0 24 24" fill="none" xmlns="http://www.w3.org/2000/svg">
<path d="M9.80023 1.47859C10.1751 1.47859 10.479 1.7825 10.479 2.15738C10.479 2.53226 10.1751 2.83617 9.80023 2.83617H3.69114C2.77859 2.83617 2.03428 3.55647 1.99574 4.45953L1.99417 4.53314V20.1453C1.99417 21.0578 2.71447 21.8021 3.61753 21.8407L3.69114 21.8422H19.3033C20.2158 21.8422 20.9601 21.1219 20.9987 20.2189L21.0002 20.1453V14.0362C21.0002 13.6613 21.3041 13.3574 21.679 13.3574C22.0539 13.3574 22.3578 13.6613 22.3578 14.0362V20.1453C22.3578 21.8021 21.0386 23.1509 19.3933 23.1985L19.3033 23.1998H3.69114C2.03429 23.1998 0.68554 21.8806 0.637899 20.2353L0.636597 20.1453V4.53314C0.636597 2.87628 1.95576 1.52754 3.60108 1.47989L3.69114 1.47859H9.80023ZM13.9281 12.9932C14.0064 13.0413 14.074 13.1048 14.1269 13.1798L16.8508 17.0387C17.067 17.3449 16.994 17.7685 16.6877 17.9847C16.5732 18.0655 16.4365 18.1089 16.2963 18.1089H6.72638C6.3515 18.1089 6.04759 17.805 6.04759 17.4301C6.04759 17.2859 6.09352 17.1455 6.1787 17.0291L7.94657 14.6146C8.16803 14.3121 8.59277 14.2464 8.89524 14.4679C8.94015 14.5008 8.98084 14.539 9.0164 14.5819L10.8184 16.7513L12.9943 13.2155C13.1908 12.8962 13.6089 12.7967 13.9281 12.9932ZM18.6245 0.799805C18.9994 0.799805 19.3033 1.10371 19.3033 1.47859V4.87253H22.6972C23.0721 4.87253 23.376 5.17644 23.376 5.55132C23.376 5.9262 23.0721 6.23011 22.6972 6.23011H19.3033V9.62405C19.3033 9.99893 18.9994 10.3028 18.6245 10.3028C18.2496 10.3028 17.9457 9.99893 17.9457 9.62405V6.23011H14.5517C14.1769 6.23011 13.873 5.9262 13.873 5.55132C13.873 5.17644 14.1769 4.87253 14.5517 4.87253H17.9457V1.47859C17.9457 1.10371 18.2496 0.799805 18.6245 0.799805Z" fill="black" fill-opacity="0.87"/>
</svg>
