<svg width="160" height="100" viewBox="0 0 160 100" fill="none" xmlns="http://www.w3.org/2000/svg">
<path d="M0 7.84314C0 3.51149 3.58172 0 8 0H152C156.418 0 160 3.51149 160 7.84314V92.1569C160 96.4885 156.418 100 152 100H8C3.58172 100 0 96.4885 0 92.1569V7.84314Z" fill="#26337A"/>
<path fill-rule="evenodd" clip-rule="evenodd" d="M64.9331 65.5403L70.0983 34.5397H78.3547L73.1899 65.5403H64.9331Z" fill="#FFFFFE"/>
<path fill-rule="evenodd" clip-rule="evenodd" d="M103.139 35.3007C101.506 34.6785 98.9388 34 95.7405 34C87.5776 34 81.8316 38.2069 81.7839 44.231C81.7319 48.6869 85.8842 51.172 89.0146 52.6531C92.2318 54.1712 93.3128 55.1427 93.3 56.5002C93.2778 58.5764 90.7321 59.5277 88.3582 59.5277C85.0526 59.5277 83.2964 59.0594 80.5811 57.902L79.5191 57.4085L78.3645 64.3477C80.2898 65.2112 83.8588 65.9606 87.563 66C96.2382 66 101.875 61.8439 101.941 55.411C101.971 51.8775 99.7709 49.1993 95.0062 46.988C92.1209 45.5504 90.35 44.5981 90.3703 43.1432C90.3722 41.8549 91.8663 40.4754 95.1001 40.4754C97.8008 40.4333 99.7558 41.0367 101.279 41.6667L102.021 42.021L103.139 35.3007Z" fill="#FFFFFE"/>
<path fill-rule="evenodd" clip-rule="evenodd" d="M114.132 54.5494C114.817 52.7676 117.421 45.8842 117.421 45.8842C117.373 45.9662 118.102 44.0886 118.519 42.9267L119.076 45.6004C119.076 45.6004 120.66 52.9997 120.987 54.5494C119.701 54.5494 115.744 54.5494 114.132 54.5494ZM124.318 34.5714H117.937C115.958 34.5714 114.477 35.1199 113.61 37.1411L101.349 65.5514H110.021C110.021 65.5514 111.435 61.7294 111.756 60.8907C112.702 60.8907 121.129 60.9067 122.331 60.9067C122.579 61.9886 123.337 65.5514 123.337 65.5514H131L124.318 34.5714Z" fill="#FFFFFE"/>
<path fill-rule="evenodd" clip-rule="evenodd" d="M58.0066 34.5658L49.9254 55.7008L49.0598 51.4046C47.5539 46.4546 42.8661 41.0894 37.6226 38.401L45.0157 65.5133L53.7537 65.5083L66.756 34.5658H58.0066Z" fill="#FFFFFE"/>
<path fill-rule="evenodd" clip-rule="evenodd" d="M42.4239 34.5448H29.1096L29 35.1871C39.3601 37.755 46.2149 43.9535 49.0601 51.4046L46.1668 37.1603C45.6676 35.1958 44.217 34.6134 42.4239 34.5448Z" fill="#EC982D"/>
</svg>
