<svg width="28" height="28" viewBox="0 0 28 28" fill="none" xmlns="http://www.w3.org/2000/svg">
<path d="M13.0909 6.53755C14.6862 6.53755 15.9821 5.23576 15.9821 3.63547C15.9821 2.03519 14.6862 0.733398 13.0909 0.733398C11.4957 0.733398 10.1998 2.03519 10.1998 3.63547C10.1998 5.23576 11.4957 6.53755 13.0909 6.53755ZM13.0909 2.39173C13.7724 2.39173 14.33 2.94986 14.33 3.63547C14.33 4.32109 13.7724 4.87922 13.0909 4.87922C12.4095 4.87922 11.8519 4.32109 11.8519 3.63547C11.8519 2.94986 12.4095 2.39173 13.0909 2.39173ZM18.9197 14.9691L16.9145 13.6274C16.7612 13.5254 16.6466 13.3724 16.5886 13.1983L15.7223 10.5885C15.2528 9.18098 14.0619 8.12587 12.6133 7.83514L11.6164 7.63516C10.6025 7.43408 9.55964 7.61546 8.68198 8.14406L5.96329 9.78166C5.65043 9.96822 5.37732 10.2273 5.17597 10.5331L3.73041 12.7107C3.47692 13.0931 3.58017 13.6062 3.95963 13.8601C4.33713 14.1119 4.8502 14.0115 5.10524 13.6301L6.5508 11.4525C6.61854 11.3513 6.70889 11.2638 6.81214 11.2015L9.15757 9.79036L8.24314 13.4714C7.86239 15.0049 8.36736 16.5964 9.56274 17.624L13.4172 20.9417C13.5398 21.0478 13.6302 21.1878 13.6754 21.3433L15.1901 26.6707C15.2903 27.0283 15.6207 27.2667 15.9821 27.2667C16.0563 27.2667 16.1337 27.2561 16.2095 27.2351C16.6484 27.1087 16.9019 26.6505 16.7759 26.21L15.2611 20.8826C15.124 20.4122 14.8578 19.996 14.4898 19.6804L10.6335 16.3631C9.92103 15.7465 9.61643 14.7929 9.84359 13.8705L10.9928 9.25669C11.0922 9.26418 11.19 9.241 11.2894 9.26044L12.2878 9.46042C13.1581 9.63655 13.8705 10.2688 14.1545 11.1135L15.0208 13.7223C15.195 14.2436 15.5401 14.6986 15.997 15.0059L18.0043 16.3486C18.1401 16.4409 18.3001 16.4875 18.4602 16.4875C18.7264 16.4875 18.9878 16.358 19.1473 16.1183C19.3998 15.7361 19.2965 15.223 18.9197 14.9691ZM8.91946 19.0631C8.5113 18.8615 8.01598 19.0234 7.81102 19.434L6.27615 22.5093C6.23743 22.5871 6.1858 22.6591 6.12127 22.7231L3.00763 25.8496C2.68496 26.1735 2.68496 26.6984 3.00763 27.0218C3.16886 27.1837 3.38038 27.2667 3.59153 27.2667C3.80269 27.2667 4.01426 27.1857 4.17544 27.0237L7.28907 23.8972C7.47947 23.7061 7.63596 23.4883 7.75372 23.251L9.28653 20.1748C9.49252 19.7679 9.32732 19.2652 8.91946 19.0631Z" fill="#424547"/>
<path fill-rule="evenodd" clip-rule="evenodd" d="M22.2633 15.0169C21.6132 13.7185 19.9683 13.2209 18.7542 13.8236C17.5401 14.4263 16.9491 16.0339 17.5992 17.3323C16.6332 17.8118 16.2415 18.9823 16.7243 19.9466L18.6455 23.7842C19.0501 24.5924 20.037 24.928 20.8386 24.53L26.0857 21.9252C26.8874 21.5272 27.2122 20.5404 26.8076 19.7322L24.8864 15.8947C24.4037 14.9303 23.2292 14.5374 22.2633 15.0169ZM19.0594 14.4247C20.2777 13.8193 21.2893 14.51 21.6946 15.3204L18.1906 17.0617C17.7854 16.2513 17.8411 15.0302 19.0594 14.4247ZM23.1652 22.6377C25.0985 21.6776 25.8826 19.3346 24.9166 17.4043L24.3044 16.1812C23.9824 15.5378 23.1989 15.2757 22.5545 15.5957L23.0901 16.6659C23.0901 16.6659 23.3232 17.1316 23.0315 17.2765C22.7398 17.4213 22.5065 16.9556 22.5065 16.9556L21.9709 15.8855L18.4704 17.6237L19.006 18.6939C19.006 18.6939 19.2392 19.1596 18.9474 19.3045C18.6557 19.4494 18.4226 18.9836 18.4226 18.9836L17.887 17.9134C17.2425 18.2334 16.9812 19.0144 17.3032 19.6578L17.9154 20.8809C18.8814 22.8112 21.2319 23.5977 23.1652 22.6377Z" fill="#424547"/>
<path d="M22.2633 15.0169L22.0379 15.1251L22.1513 15.3516L22.3781 15.239L22.2633 15.0169ZM17.5992 17.3323L17.714 17.5544L17.935 17.4447L17.8246 17.2241L17.5992 17.3323ZM21.6946 15.3204L21.8095 15.5425L22.0303 15.4328L21.92 15.2123L21.6946 15.3204ZM18.1906 17.0617L17.9652 17.1698L18.0786 17.3966L18.3056 17.2837L18.1906 17.0617ZM22.5545 15.5957L22.4396 15.3736L22.2187 15.4833L22.3291 15.7039L22.5545 15.5957ZM21.9709 15.8855L22.1963 15.7773L22.0829 15.5507L21.856 15.6634L21.9709 15.8855ZM18.4704 17.6237L18.3556 17.4016L18.1346 17.5113L18.245 17.7319L18.4704 17.6237ZM17.887 17.9134L18.1124 17.8052L17.999 17.5787L17.7721 17.6913L17.887 17.9134ZM18.8691 14.0457C19.9609 13.5036 21.4515 13.9538 22.0379 15.1251L22.4887 14.9087C21.775 13.4831 19.9757 12.9381 18.6394 13.6015L18.8691 14.0457ZM17.8246 17.2241C17.237 16.0504 17.775 14.5888 18.8691 14.0457L18.6394 13.6015C17.3052 14.2639 16.6613 16.0174 17.3738 17.4405L17.8246 17.2241ZM16.9497 19.8384C16.5281 18.9964 16.8706 17.9731 17.714 17.5544L17.4843 17.1102C16.3958 17.6506 15.9549 18.9683 16.4989 20.0549L16.9497 19.8384ZM18.8709 23.676L16.9497 19.8384L16.4989 20.0549L18.4201 23.8924L18.8709 23.676ZM20.7238 24.3079C20.0491 24.6429 19.2142 24.3617 18.8709 23.676L18.4201 23.8924C18.886 24.8231 20.0249 25.2131 20.9535 24.7521L20.7238 24.3079ZM25.9709 21.7031L20.7238 24.3079L20.9535 24.7521L26.2006 22.1473L25.9709 21.7031ZM26.5822 19.8405C26.9266 20.5284 26.648 21.367 25.9709 21.7031L26.2006 22.1473C27.1267 21.6875 27.4978 20.5525 27.033 19.624L26.5822 19.8405ZM24.661 16.0029L26.5822 19.8405L27.033 19.624L25.1118 15.7864L24.661 16.0029ZM22.3781 15.239C23.2193 14.8214 24.2406 15.1632 24.661 16.0029L25.1118 15.7864C24.5667 14.6975 23.2392 14.2533 22.1484 14.7948L22.3781 15.239ZM21.92 15.2123C21.6948 14.7619 21.2996 14.3399 20.7815 14.1145C20.255 13.8855 19.6189 13.8675 18.9445 14.2027L19.1744 14.6468C19.7183 14.3765 20.1971 14.4011 20.5823 14.5687C20.9759 14.7399 21.2891 15.0685 21.4691 15.4285L21.92 15.2123ZM18.3056 17.2837L21.8095 15.5425L21.5796 15.0984L18.0757 16.8397L18.3056 17.2837ZM18.9445 14.2027C18.2703 14.5377 17.9039 15.0535 17.7713 15.6069C17.6406 16.1523 17.7399 16.7193 17.9652 17.1698L18.4161 16.9536C18.2361 16.5937 18.1607 16.1449 18.2611 15.7258C18.3596 15.3147 18.6302 14.9172 19.1744 14.6468L18.9445 14.2027ZM24.6912 17.5126C25.596 19.3205 24.8612 21.5164 23.0503 22.4156L23.2801 22.8597C25.3359 21.8389 26.1692 19.3487 25.142 17.2961L24.6912 17.5126ZM24.079 16.2895L24.6912 17.5126L25.142 17.2961L24.5298 16.073L24.079 16.2895ZM22.6693 15.8177C23.189 15.5597 23.8194 15.7707 24.079 16.2895L24.5298 16.073C24.1454 15.305 23.2089 14.9916 22.4396 15.3736L22.6693 15.8177ZM23.3155 16.5577L22.7799 15.4875L22.3291 15.7039L22.8647 16.7741L23.3155 16.5577ZM23.1464 17.4986C23.4476 17.349 23.4443 17.0382 23.4187 16.88C23.4043 16.7912 23.3786 16.7117 23.3577 16.6564C23.3471 16.6282 23.3372 16.6049 23.3297 16.588C23.3259 16.5796 23.3228 16.5727 23.3203 16.5676C23.3191 16.565 23.3173 16.5613 23.3173 16.5613L23.3162 16.5591L23.3155 16.5577C23.3155 16.5577 23.3155 16.5576 23.0901 16.6659C22.8647 16.7741 22.8647 16.7741 22.8647 16.7741C22.8647 16.7741 22.8673 16.7797 22.8694 16.7843C22.8735 16.7935 22.8795 16.8077 22.8862 16.8254C22.9 16.8619 22.9143 16.908 22.9217 16.9537C22.9295 17.0018 22.9268 17.0325 22.9223 17.0474C22.9204 17.0539 22.9215 17.052 22.9166 17.0544L23.1464 17.4986ZM22.5065 16.9556C22.2811 17.0639 22.2811 17.0639 22.2811 17.0639L22.2819 17.0654L22.283 17.0675C22.283 17.0675 22.2849 17.0713 22.2862 17.0738C22.2889 17.0788 22.2925 17.0855 22.297 17.0935C22.3059 17.1096 22.3187 17.1316 22.335 17.157C22.3668 17.2069 22.4152 17.2754 22.4781 17.3406C22.5392 17.4041 22.627 17.478 22.74 17.5199C22.8623 17.5651 23.0051 17.5687 23.1464 17.4986L22.9166 17.0544C22.912 17.0567 22.9163 17.0564 22.9127 17.0551C22.9 17.0503 22.8748 17.0351 22.8411 17.0002C22.8092 16.9671 22.781 16.9282 22.76 16.8953C22.7499 16.8793 22.7422 16.866 22.7372 16.8572C22.7348 16.8529 22.7322 16.8479 22.7322 16.8479C22.7322 16.8479 22.7319 16.8474 22.5065 16.9556ZM21.7455 15.9937L22.2811 17.0639L22.7322 16.8479L22.1963 15.7773L21.7455 15.9937ZM18.5853 17.8458L22.0858 16.1075L21.856 15.6634L18.3556 17.4016L18.5853 17.8458ZM19.2315 18.5857L18.6958 17.5155L18.245 17.7319L18.7807 18.8021L19.2315 18.5857ZM19.0623 19.5266C19.3636 19.377 19.3603 19.0662 19.3346 18.908C19.3202 18.8192 19.2945 18.7397 19.2737 18.6844C19.2631 18.6562 19.2532 18.6329 19.2457 18.616C19.2419 18.6076 19.2387 18.6007 19.2363 18.5956C19.2351 18.5931 19.2332 18.5893 19.2332 18.5893L19.2322 18.5871L19.2315 18.5857C19.2315 18.5857 19.2314 18.5857 19.006 18.6939C18.7806 18.8021 18.7807 18.8021 18.7807 18.8021C18.7807 18.8021 18.7833 18.8077 18.7853 18.8123C18.7894 18.8215 18.7955 18.8357 18.8021 18.8534C18.8159 18.89 18.8303 18.936 18.8377 18.9817C18.8455 19.0298 18.8428 19.0605 18.8383 19.0755C18.8364 19.0819 18.8375 19.08 18.8326 19.0824L19.0623 19.5266ZM18.4226 18.9836C18.1972 19.0918 18.1973 19.0919 18.1973 19.0919L18.1979 19.0932L18.199 19.0954C18.199 19.0954 18.201 19.0991 18.2023 19.1016C18.2049 19.1066 18.2085 19.1133 18.213 19.1214C18.222 19.1375 18.2348 19.1595 18.251 19.1849C18.2829 19.2348 18.3312 19.3033 18.3941 19.3686C18.4552 19.432 18.543 19.506 18.656 19.5479C18.7782 19.5932 18.921 19.5967 19.0623 19.5266L18.8326 19.0824C18.828 19.0847 18.8323 19.0844 18.8288 19.0831C18.816 19.0784 18.7908 19.0631 18.7572 19.0282C18.7253 18.9951 18.6972 18.9562 18.6762 18.9233C18.666 18.9074 18.6583 18.8941 18.6534 18.8853C18.651 18.8809 18.648 18.8754 18.648 18.8754C18.648 18.8754 18.648 18.8754 18.4226 18.9836ZM17.6616 18.0216L18.1973 19.0919L18.648 18.8754L18.1124 17.8052L17.6616 18.0216ZM17.5286 19.5496C17.2678 19.0285 17.4799 18.3947 18.0019 18.1355L17.7721 17.6913C17.0052 18.0722 16.6946 19.0003 17.0778 19.7661L17.5286 19.5496ZM18.1408 20.7727L17.5286 19.5496L17.0778 19.7661L17.69 20.9892L18.1408 20.7727ZM23.0503 22.4156C21.2418 23.3137 19.0445 22.5784 18.1408 20.7727L17.69 20.9892C18.7184 23.044 21.2219 23.8818 23.2801 22.8597L23.0503 22.4156Z" fill="#424547"/>
</svg>
