<svg width="17" height="18" viewBox="0 0 17 18" fill="none" xmlns="http://www.w3.org/2000/svg">
<path d="M15.5002 10.1666H9.66683V15.9999C9.66683 16.6416 9.14183 17.1666 8.50016 17.1666C7.8585 17.1666 7.3335 16.6416 7.3335 15.9999V10.1666H1.50016C0.858496 10.1666 0.333496 9.64159 0.333496 8.99992C0.333496 8.35825 0.858496 7.83325 1.50016 7.83325H7.3335V1.99992C7.3335 1.35825 7.8585 0.833252 8.50016 0.833252C9.14183 0.833252 9.66683 1.35825 9.66683 1.99992V7.83325H15.5002C16.1418 7.83325 16.6668 8.35825 16.6668 8.99992C16.6668 9.64159 16.1418 10.1666 15.5002 10.1666Z" fill="black" fill-opacity="0.87"/>
</svg>
