<svg width="200" height="201" xmlns="http://www.w3.org/2000/svg"><g fill-rule="nonzero" fill="none"><path fill="#3F3D56" d="M0 197h200v1H0z"/><g transform="translate(143)" fill="#FFDF9C"><circle fill-opacity=".1" cx="28" cy="28" r="28"/><circle fill-opacity=".25" cx="28" cy="28" r="20"/><circle cx="28" cy="28" r="14"/></g><g transform="translate(0 49)"><path fill="#166DFF" d="M124.684 58.532h17.063v10.913h-17.063zM98.096 75.595h17.063v10.913H98.096z"/><path d="M191.63 62.103V38.89h-12.898v-15.08h-8.73v15.08h-12.897v23.214h-7.142V9.921h-14.485V4.96h-19.246V0H97.185v4.96H79.129v4.96H63.455v51.985H55.12V38.69H42.225V23.611h-8.73v15.08H20.597v23.214h-8.334v82.341h19.048v-29.167h13.095v29.167h51.19v-33.929h22.223v33.929h30.952v.198h19.048v-29.166h13.095v29.166h19.048v-82.34h-8.334zm-172.52 9.92h7.54v5.953h-7.54v-5.952zm.099 16.667h7.54v5.953h-7.54V88.69zm7.639 22.62h-7.54v-5.953h7.54v5.953zM46.59 57.54H29.13v-3.572h17.46v3.572zm0-5.159H29.13V48.81h17.46v3.571zm0-5.159H29.13v-3.571h17.46v3.571zm2.48 24.802h7.54v5.952h-7.54v-5.952zm.099 16.666h7.54v5.953h-7.54V88.69zm7.639 22.62h-7.54v-5.953h7.54v5.953zm30.853-9.921H73.772v-6.15h13.889v6.15zm0-17.659H73.772v-6.15h13.889v6.15zm0-17.659H73.772v-6.15h13.889v6.15zm0-17.658H73.772v-6.151h13.889v6.15zm0-17.659H73.772v-6.15h13.889v6.15zm25.992 70.635H99.764v-6.15h13.89v6.15zm0-17.659H99.764v-6.15h13.89v6.15zm0-17.659H99.764v-6.15h13.89v6.15zm0-17.658H99.764v-6.151h13.89v6.15zm0-17.659H99.764v-6.15h13.89v6.15zm25.992 70.635h-13.889v-6.15h13.89v6.15zm0-17.659h-13.889v-6.15h13.89v6.15zm0-17.659h-13.889v-6.15h13.89v6.15zm0-17.658h-13.889v-6.151h13.89v6.15zm0-17.659h-13.889v-6.15h13.89v6.15zm15.972 41.468h7.54v5.953h-7.54v-5.953zm.1 16.667h7.54v5.952h-7.54V88.89zm7.638 22.619h-7.54v-5.952h7.54v5.952zm19.743-53.77h-17.46v-3.571h17.46v3.571zm0-5.159h-17.46v-3.571h17.46v3.571zm0-5.158h-17.46v-3.572h17.46v3.572zm2.48 24.801h7.54v5.953h-7.54v-5.953zm.099 16.667h7.54v5.952h-7.54V88.89zm7.639 22.619h-7.54v-5.952h7.54v5.952z" fill="#F2F2F2"/><path d="M24.008 124.149a35.32 35.32 0 01-.277 2.585l2.426-2.69.013.045a7.069 7.069 0 00-.71-1.852l.016.043-1.468 1.869zM24.017 124.011l1.423-1.81a3.724 3.724 0 00-1.272-1.356 2.781 2.781 0 00-.079-.045c.008.214.045 1.47-.072 3.211zM22.734 131.108c-.062.19-.127.377-.193.56l3.572-2.094.005.052c.075-.325.137-.651.186-.977l-3.567 2.483-.003-.024zM23.231 129.35l3.217-2.654.01.05a11.113 11.113 0 00-.276-2.609l-2.472 2.742a28.62 28.62 0 01-.479 2.47zM23.654 126.827l-3.85-4.296.021-.048a9.278 9.278 0 00-.923 1.626l4.393 4.677c.15-.683.268-1.344.36-1.96zM18.86 124.205l.02-.049-.02.05zM18.646 124.732l-.02.05c.006-.018.014-.033.02-.05zM23.27 128.9l-4.41-4.694c-.074.17-.146.346-.214.526l4.506 4.665c.041-.167.08-.332.117-.497zM26.314 128.587c.088-.59.135-1.187.143-1.783l-3.26 2.689a22.68 22.68 0 01-.427 1.504l3.537-2.462.007.052zM18.061 128.921l3.57 4.657c.293-.567.552-1.15.775-1.749l-4.355-4.574a12.836 12.836 0 00-.015 1.718l.025-.052zM24.024 120.797l.032-.015c-.782-.417-1.628-.373-2.439.05l2.338 3.176c.125-1.885.07-3.193.069-3.211zM22.425 131.98a15.852 15.852 0 01-.701 1.577l3.59-1.858.003.052c.271-.457.482-.947.63-1.457.057-.2.109-.402.156-.604l-3.615 2.12-.063.17zM23.945 124.148l-2.391-3.248.022-.046a5.351 5.351 0 00-1.722 1.59l3.818 4.26c.133-.912.218-1.78.273-2.556zM22.445 131.724a21.54 21.54 0 00.68-2.216l-4.518-4.676c-.108.292-.206.596-.296.911a7.718 7.718 0 00-.25 1.383l4.38 4.6.004-.002zM27.085 136.769c-.543.57-1.17 1.19-1.862 1.815l3.584-.525-.018.043a7.068 7.068 0 00.634-1.878l-.015.042-2.323.503zM29.315 134.326a2.797 2.797 0 00-.032-.084c-.13.17-.902 1.16-2.103 2.427l2.25-.487c.12-.618.08-1.257-.115-1.856zM21.666 141.316c-.17.107-.339.21-.507.309l4.087.665-.03.043c.266-.203.522-.414.767-.633l-4.33-.363.013-.02zM23.17 140.28l4.17.008-.025.044a11.113 11.113 0 001.452-2.185l-3.653.534a28.62 28.62 0 01-1.944 1.598zM21.764 141.254l4.294.36-.027.044c.444-.4.86-.827 1.247-1.282l-4.226-.009c-.433.32-.862.615-1.288.887z" fill="#166DFF"/><path d="M16.504 143.379l.094-.097a11.04 11.04 0 002.549-.728l.116-3.095c.035-.079.069-.158.101-.238l-.124 3.294c.588-.25 1.16-.534 1.713-.852l-.4-5.754c.032-.016.063-.032.094-.05l.399 5.747h.004a21.54 21.54 0 001.937-1.273l-.434-5.662.092-.067.434 5.661c.138-.102.274-.205.407-.308l-.358-5.731.092-.076.358 5.736c.552-.43 1.064-.864 1.527-1.28l-.225-5.764.047-.024a8.18 8.18 0 00-.487.145c.308-.352.586-.73.83-1.13l-3.625 1.875c-.251.476-.533.936-.845 1.375-.065.061-.13.123-.193.186l.004.07-.089.116-.006-.093c-.046.047-.09.096-.136.145.46-.573.862-1.19 1.203-1.84l-3.543-4.622c.024.413.065.83.117 1.242a6.992 6.992 0 00-1.188-1.451l.028.035-.819 2.231c.19.764.379 1.626.536 2.545l1.455-3.263.02.152-1.45 3.255c.143.862.246 1.694.308 2.498l1.742-2.737.03.118-1.761 2.766c.038.536.058 1.056.06 1.562l2.129-2.81.033.108-2.152 2.84-.01-.022c0 .2-.005.398-.011.593l2.402-2.704.036.104-2.444 2.751-.008.181a15.858 15.858 0 01-.18 1.717l.232-.235-.128.27-.132.133c-.015.087-.032.172-.049.257l-.14.313c.043-.195.084-.391.118-.59l-4.798-3.3c1.252 3.202 3.61 6.249 3.76 6.442.123-.229.234-.464.336-.704l.09-.01-.038.089-.045.005.038.01a9.052 9.052 0 01-.227.493c.105-.094.265-.243.455-.432 1.129.288 4.168.904 6.771-.006l-3.988-.867c-.853.361-1.748.615-2.664.755zm2.802-5.046l.095-.097-.005.145-.096.097.006-.145zM29.236 134.197l.034.01c-.336-.82-1.016-1.326-1.911-1.517l-.225 3.936a32.275 32.275 0 002.102-2.429z" fill="#166DFF"/><path d="M20.871 141.79c-.5.284-1.017.54-1.545.768l3.95.859-.03.042c.5-.18.974-.421 1.413-.72.172-.118.34-.24.505-.366l-4.136-.673-.157.09zM25.197 138.523a35.165 35.165 0 001.84-1.795l.23-4.026.047-.022a5.351 5.351 0 00-2.34.126l.223 5.717zM16.938 128.807a3.724 3.724 0 00-1.63-.896 2.76 2.76 0 00-.088-.018c.074.2.497 1.383.925 3.076l.793-2.162zM16.67 133.758l-4.99-2.895.005-.052a9.278 9.278 0 00-.376 1.832l5.624 3.09c-.068-.696-.16-1.36-.263-1.975zM11.3 132.747l.004-.052-.004.052zM11.259 133.315l-.004.053.004-.053zM16.944 135.85l-5.644-3.102c-.018.185-.032.374-.041.567l5.728 3.043c-.013-.171-.027-.34-.043-.509zM17.029 138.902l-5.556-3.004c.136.557.308 1.105.517 1.639l.008-.058 4.833 3.326c.104-.63.17-1.265.198-1.903zM15.157 127.91l.026-.024c-.872-.156-1.663.149-2.304.802l3.205 2.297a32.273 32.273 0 00-.927-3.076zM16.118 131.121l-3.278-2.35.007-.05a5.351 5.351 0 00-1.147 2.043l4.949 2.872a35.157 35.157 0 00-.531-2.515zM17.033 138.79c.029-.773.016-1.547-.038-2.318l-5.742-3.05c-.012.31-.012.63 0 .958.02.469.085.935.19 1.392l5.588 3.021.002-.003zM193.85 123.553a35.326 35.326 0 01-.277 2.586l2.425-2.69.014.045a7.07 7.07 0 00-.71-1.852l.016.043-1.469 1.868zM193.859 123.416l1.422-1.81a3.723 3.723 0 00-1.272-1.356 2.778 2.778 0 00-.079-.045c.008.214.045 1.47-.071 3.21zM192.575 130.512c-.062.19-.127.378-.193.561l3.572-2.094.005.052c.075-.326.137-.651.187-.977l-3.567 2.482-.004-.024zM193.072 128.754l3.218-2.653.009.05a11.113 11.113 0 00-.276-2.609l-2.472 2.742a28.62 28.62 0 01-.479 2.47zM193.496 126.231l-3.85-4.295.02-.049a9.278 9.278 0 00-.923 1.626l4.393 4.678c.15-.683.268-1.344.36-1.96zM188.701 123.61l.02-.049-.02.05z" fill="#166DFF"/><path d="M193.11 128.305l-4.409-4.695c-.074.171-.146.347-.214.527l4.507 4.664c.04-.166.08-.332.117-.496zM188.487 124.137l-.02.05.02-.05zM196.155 127.991c.088-.59.136-1.186.143-1.783l-3.26 2.69a22.68 22.68 0 01-.427 1.504l3.537-2.462.007.051zM187.902 128.326l3.57 4.657c.293-.567.552-1.151.775-1.749l-4.355-4.574a12.836 12.836 0 00-.014 1.718l.024-.052zM193.865 120.201l.032-.014c-.781-.418-1.628-.373-2.439.05l2.338 3.176c.126-1.885.07-3.193.07-3.212zM192.266 131.385a15.852 15.852 0 01-.701 1.576l3.59-1.857.004.051c.27-.457.482-.946.63-1.456.056-.2.108-.402.155-.604l-3.615 2.12c-.02.057-.042.114-.063.17zM193.786 123.553l-2.391-3.248.022-.046a5.351 5.351 0 00-1.722 1.589l3.819 4.26c.132-.912.217-1.78.272-2.555zM192.286 131.13a21.54 21.54 0 00.68-2.218l-4.518-4.675c-.107.292-.206.595-.296.911a7.718 7.718 0 00-.25 1.383l4.38 4.6.004-.002zM196.927 136.174c-.544.569-1.17 1.19-1.862 1.814l3.584-.524-.019.043a7.068 7.068 0 00.635-1.879l-.015.043-2.323.503zM199.157 133.731a2.8 2.8 0 00-.032-.084c-.13.17-.902 1.16-2.103 2.427l2.25-.487c.119-.619.08-1.257-.115-1.856zM191.507 140.721c-.17.107-.338.21-.507.308l4.088.666-.03.043c.265-.203.52-.414.767-.633l-4.33-.364.012-.02zM193.011 139.684l4.17.008-.024.044a11.113 11.113 0 001.451-2.185l-3.652.535c-.652.583-1.3 1.115-1.945 1.598zM191.605 140.658l4.294.36-.027.044c.444-.398.861-.827 1.248-1.282l-4.227-.008c-.432.32-.862.615-1.288.886z" fill="#166DFF"/><path d="M186.345 142.784l.094-.097a11.04 11.04 0 002.549-.728l.117-3.096c.034-.078.068-.158.1-.237l-.124 3.293c.588-.25 1.16-.534 1.713-.852l-.399-5.753.094-.05.398 5.747h.004a21.54 21.54 0 001.937-1.273l-.434-5.662.092-.068.435 5.662c.137-.102.273-.205.406-.308l-.358-5.732.092-.075.359 5.735c.55-.43 1.063-.863 1.526-1.28l-.225-5.763.047-.024c-.16.041-.323.091-.487.145.309-.352.586-.73.83-1.13l-3.625 1.875c-.25.476-.533.936-.845 1.375-.065.061-.13.122-.193.186l.005.069-.09.116-.006-.092c-.046.047-.09.096-.135.144.459-.573.861-1.189 1.203-1.839l-3.543-4.622c.024.413.064.829.116 1.241a6.992 6.992 0 00-1.188-1.45l.028.035-.819 2.231c.19.764.379 1.626.536 2.544l1.456-3.262.02.152-1.451 3.255c.143.862.246 1.694.308 2.498l1.742-2.737.03.117-1.76 2.766c.037.536.057 1.057.058 1.563l2.13-2.81.034.108-2.153 2.84-.01-.022c0 .2-.004.398-.01.593l2.401-2.705.036.104-2.444 2.752-.008.181a15.858 15.858 0 01-.18 1.716l.233-.234-.129.269-.131.134-.05.257-.14.313c.043-.195.084-.392.119-.59l-4.799-3.3c1.252 3.202 3.61 6.249 3.76 6.442.123-.229.234-.464.337-.705l.089-.008-.038.087-.045.006.038.01a9.052 9.052 0 01-.226.493c.104-.094.264-.243.455-.432 1.128.288 4.168.904 6.77-.006l-3.987-.867c-.854.361-1.749.615-2.665.755zm2.802-5.046l.096-.097-.006.145-.095.097.005-.145zM199.077 133.602l.034.01c-.336-.82-1.016-1.326-1.91-1.517l-.226 3.936a32.264 32.264 0 002.102-2.429z" fill="#166DFF"/><path d="M190.712 141.195c-.5.284-1.016.54-1.545.768l3.95.859-.03.042c.5-.18.974-.422 1.413-.72.172-.119.34-.24.506-.366l-4.136-.673-.158.09zM195.039 137.928a35.155 35.155 0 001.84-1.795l.23-4.026.046-.022a5.351 5.351 0 00-2.34.126l.224 5.717zM186.78 128.212a3.724 3.724 0 00-1.63-.896 2.76 2.76 0 00-.088-.018c.073.2.496 1.383.924 3.075l.793-2.16zM186.511 133.163l-4.99-2.895.006-.053a9.278 9.278 0 00-.376 1.832l5.623 3.09c-.067-.695-.16-1.36-.263-1.974zM181.1 132.72l-.004.052.004-.052zM181.141 132.152l.004-.053-.004.053zM186.786 135.254l-5.645-3.102c-.018.186-.032.375-.04.568l5.727 3.042c-.013-.17-.027-.34-.042-.508zM186.87 138.307l-5.556-3.004c.136.557.309 1.104.518 1.638l.007-.057 4.834 3.325c.103-.63.17-1.265.197-1.902zM184.998 127.314l.026-.023c-.872-.156-1.663.148-2.303.802l3.204 2.297a32.273 32.273 0 00-.927-3.076zM185.96 130.526l-3.279-2.35.007-.05a5.351 5.351 0 00-1.146 2.043l4.948 2.872a35.154 35.154 0 00-.53-2.515zM186.875 138.195c.028-.773.015-1.547-.04-2.318l-5.74-3.05c-.013.31-.013.63-.001.958.021.468.085.934.19 1.392l5.588 3.02.003-.002z" fill="#166DFF"/><path d="M12.264 144.246h187.699v2.686a4.259 4.259 0 01-4.26 4.258H16.524a4.259 4.259 0 01-4.259-4.258v-2.686z" fill="#2F2E41"/><path fill="#3F3D56" d="M12.264 142.063h187.698v3.77H12.264z"/><path d="M157.73 13.09l2.155 1.367-1.309-2.38a2.132 2.132 0 011.338-.465c.15.003.3-.008.448-.033l.73.464-.313-.57a2.6 2.6 0 001.278-.97l1.307.83-.826-1.502c.765-.918 1.796-1.481 2.93-1.481 1.36 0 2.571.809 3.353 2.069a2.506 2.506 0 002.29 1.193c1.5 0 2.717 1.702 2.717 3.802s-1.217 3.801-2.718 3.801a2.04 2.04 0 01-.946-.237 3.922 3.922 0 00-3.29-.064 3.43 3.43 0 01-2.797.006 3.925 3.925 0 00-3.26.063c-.29.151-.611.23-.937.232-1.502 0-2.718-1.702-2.718-3.801a4.827 4.827 0 01.567-2.324zM48.055 24.255l1.371.87-.832-1.514a1.356 1.356 0 01.85-.296c.096.001.191-.006.285-.021l.465.294-.199-.362c.33-.115.614-.33.813-.617l.832.528-.526-.956a2.434 2.434 0 011.864-.942c.865 0 1.635.515 2.133 1.316a1.594 1.594 0 001.456.76c.955 0 1.729 1.082 1.729 2.418 0 1.335-.774 2.418-1.729 2.418-.21 0-.417-.053-.602-.15a2.495 2.495 0 00-2.093-.042 2.181 2.181 0 01-1.78.004 2.497 2.497 0 00-2.073.04 1.296 1.296 0 01-.596.148c-.955 0-1.73-1.083-1.73-2.418a3.07 3.07 0 01.362-1.478zM11.15 28.916l1.371.87-.832-1.514a1.356 1.356 0 01.851-.296c.095.002.19-.005.285-.02l.464.294-.199-.362c.33-.115.614-.33.813-.617l.832.527-.526-.955a2.434 2.434 0 011.864-.942c.865 0 1.635.514 2.133 1.316a1.594 1.594 0 001.456.76c.955 0 1.73 1.082 1.73 2.417 0 1.336-.775 2.419-1.73 2.419-.21-.001-.416-.053-.602-.151a2.495 2.495 0 00-2.093-.041 2.181 2.181 0 01-1.779.004 2.497 2.497 0 00-2.074.04 1.296 1.296 0 01-.596.148c-.955 0-1.729-1.083-1.729-2.419a3.07 3.07 0 01.361-1.478z" fill="#F2F2F2"/><path d="M60.659 118.425l-.24.24s.08 2.634.16 3.193c.08.56.4 1.517.16 2.236-.24.718-.32 1.277-.24 1.357.08.08-.08.4-.08.4l.639-.4 1.038-2.395-.48-2.555-.957-2.076z" fill="#166DFF"/><path d="M60.659 118.425l-.24.24s.08 2.634.16 3.193c.08.56.4 1.517.16 2.236-.24.718-.32 1.277-.24 1.357.08.08-.08.4-.08.4l.639-.4 1.038-2.395-.48-2.555-.957-2.076z" fill="#000" opacity=".1"/><path d="M64.89 143.254s0-.878-.16-1.038c-.16-.16-.399-.718-.718-.718-.32 0-1.437.32-1.437.399.009.25-.046.497-.16.718-.16.24-1.038 1.198-.16 1.358a2.23 2.23 0 001.677-.4c.08-.08.4-.16.479-.08.08.08.479-.239.479-.239zM67.125 141.817l.48.878s.16.799.399.879h.24s.239.878.797.798c.56-.08 1.198-.4 1.198-.559 0-.16 0-.639-.24-.798a11.377 11.377 0 01-.958-.879l-.399-.399-1.517.08z" fill="#166DFF"/><path d="M60.998 112.573c-.311.159-.526.46-.576.806-.045.57.519 1.107.337 1.65-.102.307-.423.507-.515.818-.049.248-.012.505.103.73.126.309.28.606.459.887.336.528.774 1.03.864 1.65.05.22-.007.45-.156.62a1.49 1.49 0 01.545-.259 6.932 6.932 0 002.236-1.245c.24-.169.42-.41.516-.687.122-.49-.25-.981-.214-1.486.023-.322.209-.607.314-.912a2.358 2.358 0 00-.204-1.838 2.193 2.193 0 00-1.305-1.135 2.59 2.59 0 00-1.318.038c-.375.077-.74.2-1.086.363z" fill="#2F2E41"/><path d="M61.448 117a2.071 2.071 0 011.805-1.09c1.278 0 1.038-.08 1.038-.08l-.399 1.597-.798.799L61.448 117z" fill="#166DFF"/><path d="M61.776 115.312s.719 1.197.24 1.676c-.48.48-.24.958-.16 1.038.08.08 2.315.24 2.315.24l.08-1.118.24-.958s-1.278-.24-1.118-.798c.16-.56-1.597-.08-1.597-.08z" fill="#FBBEBE"/><path d="M61.776 115.312s.719 1.197.24 1.676c-.48.48-.24.958-.16 1.038.08.08 2.315.24 2.315.24l.08-1.118.24-.958s-1.278-.24-1.118-.798c.16-.56-1.597-.08-1.597-.08z" fill="#000" opacity=".1"/><path d="M67.365 126.648a5.504 5.504 0 01-.32.799c-.08.08-.319-.56-.319-.56l.24-.558.399.32zM66.447 123.016l.32 1.836h-4.791l.24-1.836z" fill="#FBBEBE"/><circle fill="#FBBEBE" cx="62.655" cy="114.434" r="1.517"/><path d="M62.974 117.547s-.878.08-.878-.08-.08-.638-.24-.559c-.16.08-1.197.16-1.117.4.08.24.24.718.08.718a.52.52 0 00-.4.639c.08.399.958 2.794.958 2.794s.08.798.32 1.038c.2.258.2.62 0 .878-.16.16.399.32.638.639.24.32 2.076.08 2.156 0 .08-.08 1.996-.08 2.155-.24.16-.16-.08-.638-.08-.638s-.08-.719 0-.958c.08-.24-.319-4.152-.558-4.391-.24-.24.718-.958.718-.958s-.16-.639-1.197-.719c0 0-.32-.479-.639-.479-.32 0-1.013.372-1.013.372s-.185 1.065-.424 1.145c-.19.093-.354.23-.479.4z" fill="#166DFF"/><path d="M66.167 116.59l.56.239s1.596 4.95 1.436 5.907c-.16.958-.559 4.232-.798 4.232-.24 0-.719-.48-.719-.48v-.798c0-.16-.24-.638-.08-.638.16 0 .4-.16.24-.32-.16-.16-.32-.399-.16-.638.16-.24.24-.32.16-.56-.08-.239-.24-.478-.08-.638.16-.16-.399-.958-.399-.958l-.878-3.513.16-1.437.558-.399z" fill="#166DFF"/><path d="M66.487 124.174s-3.034-.24-3.433-.24c-.4 0-1.295-.376-1.295-.376s-2.298 2.292-1.5 6.044c.799 3.753.959 8.383 1.438 9.74.325.968.592 1.954.798 2.954 0 0 .798-1.437 2.315.16 0 0 .16-1.198-.08-1.677-.24-.479-.559-3.033-.559-3.033s-.558-4.072-.558-4.551c0-.48-.32-4.55-.24-4.63.08-.08.48 3.113.559 3.672.08.559.32 4.87.559 5.349.24.479 1.357 4.311 1.996 4.55.638.24 2.794-.08 2.714-.239-.08-.16-.639-1.038-.798-1.277l-.639-.958-1.517-5.19.719-6.307s.399-4.071-.48-3.991zM63.579 114.234h-1.946a.346.346 0 01-.342-.292l-.193-1.225h3.034l-.272 1.288a.288.288 0 01-.281.229zM163.832 113.856h3.07v4.385a3.07 3.07 0 01-3.07-3.07v-1.315z" fill="#2F2E41"/><path fill="#A0616A" d="M162.042 139.542l-.22 1.096h1.535l.073-1.096z"/><path d="M162.042 140.42s-.292-.22-.438-.074c-.147.146-.658 2.996-.731 3.07-.073.072-2.266 1.168-1.754 1.241.511.074 2.485.147 2.777 0 .292-.146 1.096-1.534 1.096-1.534v1.242h.146s.146-1.315.512-1.68c.365-.366-.293-1.608-.293-1.608s.147-.804.073-.804a84.8 84.8 0 00-1.388.146z" fill="#166DFF"/><path fill="#A0616A" d="M166.573 138.775l-.22 1.096h1.535l.073-1.096z"/><path d="M164.819 131.65s.73 2.192.877 2.411c.146.22.657 4.312.657 4.312s-.511.804.147.877c.657.073.365-.146.803 0a.825.825 0 00.731-.073s.22-.439.073-.585c-.146-.146.146-3.946.146-3.946l-.438-1.315-.365-4.166s.438-1.096.219-1.388c-.22-.292-.95.22-.95.22l-1.9 3.653z" fill="#2F2E41"/><path d="M163.869 125.95s-.22 2.338-.366 2.485c-.146.146-1.753 4.238-1.753 4.238s-.439.512-.293 2.412c.147 1.9.512 3.8.512 3.8s-.292 1.096.22 1.096c.51 0 .73-.293.95-.073.218.219.364 0 .438-.147.073-.146.365-.657.365-.803 0-.147.292-3.873.292-3.873s2.412-5.335 2.631-5.627c.22-.293 1.461-1.9 1.388-2.996l-4.384-.512z" fill="#2F2E41"/><circle fill="#A0616A" cx="165.696" cy="114.55" r="1.535"/><path d="M165.403 115.866s.585 1.315.658 1.68c.073.366 1.462-.73 1.462-.73s-.731-1.243-.512-1.827l-1.608.877z" fill="#A0616A"/><path d="M167.742 116.596s-1.096-.803-1.9.877c-.804 1.681-1.023 1.608-1.023 1.608s-.95.292-.658 2.338c.292 2.046-.95 4.75-.438 4.896.511.147 5.261.95 5.261.366 0-.585-.438-2.85-.073-4.239.365-1.388-.511-6.211-1.17-5.846z" fill="#3F3D56"/><path d="M166.646 116.962s-.877 1.315-.804 2.338c.073 1.023.073 1.68.073 1.68s-1.462 7.016-1.17 7.016c.293 0 1.17.366 1.243.146.073-.219 1.9-4.677 1.9-4.677s.439-4.457-.073-5.48c-.512-1.023-1.17-1.023-1.17-1.023z" fill="#3F3D56"/><path d="M164.892 127.777s-.73 2.485.292 2.558c1.023.073.439-2.412.439-2.412l-.731-.146z" fill="#A0616A"/><path d="M166.837 139.302s-.256-.192-.384-.064-.576 2.624-.64 2.688c-.064.064-1.984 1.023-1.536 1.087.448.064 2.176.128 2.432 0 .256-.128.96-1.343.96-1.343v1.087h.128s.128-1.151.448-1.471c.32-.32-.256-1.408-.256-1.408s.128-.704.064-.704-1.216.128-1.216.128z" fill="#166DFF"/><path d="M164.937 113.545a.427.427 0 01.185-.131.386.386 0 01.202.017c.458.134.855.423 1.124.817.052.101.13.186.226.246.063.018.124.042.183.07.171.112.07.374-.029.554a2.799 2.799 0 00-.335 1.51.432.432 0 00.077.257c.083.076.19.12.304.121a7.5 7.5 0 001.069.057c.35-.006.738-.056.964-.322.244-.287.206-.725.047-1.066-.158-.342-.416-.627-.599-.955a5.598 5.598 0 01-.409-1.087 4.552 4.552 0 00-.604-1.348 1.807 1.807 0 00-1.213-.778c-.664-.074-1.276.335-1.81.737-.599.451-1.236 1.01-1.285 1.758-.039.606.326 1.155.516 1.732.293.89.17 1.859.044 2.788.541-.324 1.154-.774 1.118-1.404-.024-.425-.344-.764-.544-1.14-.549-1.033.077-1.726.77-2.433z" fill="#2F2E41"/><path d="M186.517 121.014c.465-.811.705-1.73.696-2.665 0-2.408-1.492-4.36-3.331-4.36-1.84 0-3.33 1.952-3.33 4.36-.01.934.23 1.854.695 2.665a5.454 5.454 0 000 5.328 5.454 5.454 0 000 5.33 5.454 5.454 0 000 5.328 5.256 5.256 0 00-.696 2.665c0 2.408 1.492 4.36 3.331 4.36 1.84 0 3.33-1.952 3.33-4.36a5.256 5.256 0 00-.695-2.665 5.454 5.454 0 000-5.329 5.454 5.454 0 000-5.329 5.454 5.454 0 000-5.328z" fill="#3F3D56"/><ellipse fill="#3F3D56" cx="183.882" cy="113.02" rx="3.331" ry="4.36"/><ellipse fill="#3F3D56" cx="183.882" cy="107.691" rx="3.331" ry="4.36"/><path d="M196.35 71.224c.455-.58.87-1.19 1.24-1.826l-8.751-1.437 9.465.07a15.982 15.982 0 00.305-12.64l-12.699 6.586 11.711-8.608a15.955 15.955 0 10-26.35 17.855c-.709.901-1.319 1.877-1.82 2.91l11.36 5.9L168.7 75.97a15.963 15.963 0 002.572 14.981c-5.144 6.54-4.398 15.936 1.715 21.582 6.112 5.646 15.537 5.646 21.65 0 6.112-5.646 6.858-15.042 1.714-21.582a15.956 15.956 0 000-19.727z" fill="#F2F2F2"/><path d="M167.857 81.087a15.887 15.887 0 003.414 9.864c-5.144 6.54-4.398 15.936 1.715 21.582 6.112 5.646 15.537 5.646 21.65 0 6.112-5.646 6.858-15.042 1.714-21.582 2.138-2.714-28.493-11.654-28.493-9.864z" fill="#F2F2F2"/><path d="M196.35 71.224c.455-.58.87-1.19 1.24-1.826l-8.751-1.437 9.465.07a15.982 15.982 0 00.305-12.64l-12.699 6.586 11.711-8.608a15.955 15.955 0 10-26.35 17.855c-.709.901-1.319 1.877-1.82 2.91l11.36 5.9L168.7 75.97a15.963 15.963 0 002.572 14.981c-5.144 6.54-4.398 15.936 1.715 21.582 6.112 5.646 15.537 5.646 21.65 0 6.112-5.646 6.858-15.042 1.714-21.582a15.956 15.956 0 000-19.727z" fill="#57B894"/><path d="M167.857 81.087a15.887 15.887 0 003.414 9.864c-5.144 6.54-4.398 15.936 1.715 21.582 6.112 5.646 15.537 5.646 21.65 0 6.112-5.646 6.858-15.042 1.714-21.582 2.138-2.714-28.493-11.654-28.493-9.864z" fill="#000" opacity=".1"/><path d="M18.859 121.014c.464-.811.704-1.73.695-2.665 0-2.408-1.491-4.36-3.33-4.36-1.84 0-3.331 1.952-3.331 4.36-.01.934.23 1.854.695 2.665a5.454 5.454 0 000 5.328 5.454 5.454 0 000 5.33 5.454 5.454 0 000 5.328 5.256 5.256 0 00-.695 2.665c0 2.408 1.49 4.36 3.33 4.36s3.33-1.952 3.33-4.36A5.256 5.256 0 0018.86 137a5.454 5.454 0 000-5.329 5.454 5.454 0 000-5.329 5.454 5.454 0 000-5.328z" fill="#3F3D56"/><ellipse fill="#3F3D56" cx="16.223" cy="113.02" rx="3.331" ry="4.36"/><ellipse fill="#3F3D56" cx="16.223" cy="107.691" rx="3.331" ry="4.36"/><path d="M28.691 71.224c.455-.58.87-1.19 1.24-1.826l-8.75-1.437 9.464.07a15.982 15.982 0 00.305-12.64l-12.698 6.586 11.71-8.608a15.955 15.955 0 10-26.35 17.855c-.709.901-1.319 1.877-1.819 2.91l11.36 5.9L1.04 75.97A15.963 15.963 0 003.613 90.95c-5.145 6.54-4.398 15.936 1.714 21.582 6.112 5.646 15.538 5.646 21.65 0 6.112-5.646 6.859-15.042 1.714-21.582a15.956 15.956 0 000-19.727z" fill="#F2F2F2"/><path d="M.198 81.087a15.887 15.887 0 003.415 9.864c-5.145 6.54-4.398 15.936 1.714 21.582 6.112 5.646 15.538 5.646 21.65 0 6.112-5.646 6.859-15.042 1.714-21.582C30.83 88.237.198 79.297.198 81.087z" fill="#F2F2F2"/><path d="M28.691 71.224c.455-.58.87-1.19 1.24-1.826l-8.75-1.437 9.464.07a15.982 15.982 0 00.305-12.64l-12.698 6.586 11.71-8.608a15.955 15.955 0 10-26.35 17.855c-.709.901-1.319 1.877-1.819 2.91l11.36 5.9L1.04 75.97A15.963 15.963 0 003.613 90.95c-5.145 6.54-4.398 15.936 1.714 21.582 6.112 5.646 15.538 5.646 21.65 0 6.112-5.646 6.859-15.042 1.714-21.582a15.956 15.956 0 000-19.727z" fill="#57B894"/><path d="M.198 81.087a15.887 15.887 0 003.415 9.864c-5.145 6.54-4.398 15.936 1.714 21.582 6.112 5.646 15.538 5.646 21.65 0 6.112-5.646 6.859-15.042 1.714-21.582C30.83 88.237.198 79.297.198 81.087z" fill="#000" opacity=".1"/><path fill="#57B894" d="M115.169 70.348l-7.916 7.916-3.75-3.75-1.46 1.46 5.205 5.206 9.381-9.371zM140.367 52.293l-7.915 7.916-3.751-3.75-1.46 1.46 5.206 5.205 9.38-9.371z"/></g></g></svg>