<svg width="200" height="200" xmlns="http://www.w3.org/2000/svg"><g fill="none" fill-rule="evenodd"><path fill="#3F3D56" fill-rule="nonzero" d="M1 197h200v1H1z"/><path d="M189.013 128.25c-6.746 8.565-4.12 21.081.16 31.103 1.433 3.355 3.056 6.907 2.451 10.504-.74 4.4-4.666 7.619-8.79 9.325-7.515 3.11-16.511 2.367-23.412-1.928-5.968-3.713-10.244-9.752-16.314-13.294-10.158-5.93-23.09-3.69-34.127.397-7.805 2.89-16.337 6.649-24.093 3.629-5.456-2.125-9.228-7.3-11.284-12.784-.992-2.647-1.712-5.514-3.607-7.613-1.127-1.248-2.597-2.133-4.103-2.879-13.752-6.82-31.12-3.174-44.478-10.73-9.022-5.107-14.796-14.742-17.353-24.788C1.505 99.147 1.8 88.605 2.45 78.26c.462-7.353 1.29-15.203 5.988-20.877 4.96-6.004 13.492-8.236 21.208-7.095 7.716 1.14 14.697 5.208 20.845 9.998 7.683 5.986 14.81 13.44 24.242 15.873 6.433 1.644 13.179.74 19.808.426 11.077-.524 22.159.641 33.173 1.913 10.545 1.218 21.166 2.561 31.214 5.992 7.109 2.428 12.81 6.835 19.522 9.92 4.375 2.006 9.147 2.562 13.293 5.118 5.104 3.148 9.782 8.625 8.475 15.033-1.245 6.088-7.63 9.143-11.205 13.689z" fill="#166DFF" fill-rule="nonzero" opacity=".1"/><path d="M162 55.527c11.598 0 29-22.402 29-34 0-11.598-17.402-8-29-8-11.598 0-34 9.402-34 21s22.402 21 34 21z" fill="#E7F0FF"/><g fill-rule="nonzero"><path fill="#3F3D56" d="M100.105 163.473h2v34h-2z"/><path d="M109.105 167.933c.059 12.426-8.894 22.54-8.894 22.54s-9.047-10.033-9.105-22.46c-.06-12.426 8.893-22.54 8.893-22.54s9.047 10.033 9.106 22.46z" fill="#166DFF"/><path d="M109.105 167.933c.059 12.426-8.894 22.54-8.894 22.54s-9.047-10.033-9.105-22.46c-.06-12.426 8.893-22.54 8.893-22.54s9.047 10.033 9.106 22.46z" fill="#000" opacity=".1"/></g><g fill-rule="nonzero"><path fill="#3F3D56" d="M113.186 119.53l-3.08-2.49 17.252-15.567h43.747v13.698l-28.343 19.302z"/><path fill="#CCC" d="M180.31 108.397v-8.606h-5.795v2.108l-2.162-2.426-14.138 15.91-5.532 3.818-8.578 64.88 12.936 13.392h30.064V116.02z"/><path fill="#F2F2F2" d="M110.105 116.473h46v81h-46z"/><path fill="#CCC" d="M128.105 177.473h9v20h-9z"/><path fill="#3F3D56" d="M119.105 181.473v-2h-4v2h3.667zM118.772 186.473h-3.667v2h4v-2zM120.105 179.473h4v2h-4zM120.105 186.473h4v2h-4zM144.105 181.473v-2h-4v2h3.667zM143.772 186.473h-3.667v2h4v-2zM145.105 179.473h4v2h-4zM145.105 186.473h4v2h-4zM171.105 119.473v-2h-4v2h3.667zM170.772 123.473h-3.667v2h4v-2zM172.105 117.473h4v2h-4zM172.105 123.473h4v2h-4zM171.105 138.473v-2h-4v2h3.667zM170.772 139.473h-3.667v2h4v-2zM172.105 136.473h4v2h-4zM172.105 139.473h4v2h-4zM171.105 154.473v-2h-4v2h3.667zM170.772 157.473h-3.667v2h4v-2zM172.105 152.473h4v2h-4zM172.105 157.473h4v2h-4zM171.105 172.473v-2h-4v2h3.667zM170.772 175.473h-3.667v2h4v-2zM172.105 170.473h4v2h-4zM172.105 175.473h4v2h-4zM115.105 120.473h36v7h-36zM115.105 136.473h36v7h-36zM115.105 148.473h36v7h-36zM115.105 165.473h36v7h-36z"/></g><g fill-rule="nonzero"><path fill="#3F3D56" d="M14.135 119.53l-3.03-2.49 16.97-15.567h43.03v13.698l-27.878 19.302z"/><path fill="#CCC" d="M79.31 108.397v-8.606h-5.795v2.108l-2.162-2.426-14.138 15.91-5.532 3.818-8.578 64.88 12.936 13.392h30.064V116.02z"/><path fill="#F2F2F2" d="M11.105 116.473h46v81h-46z"/><path fill="#CCC" d="M29.105 177.473h9v20h-9z"/><path fill="#3F3D56" d="M18.105 181.473v-2h-4v2h3.667zM17.772 186.473h-3.667v2h4v-2zM21.105 179.473h4v2h-4zM21.105 186.473h4v2h-4zM45.105 181.473v-2h-4v2h3.667zM44.772 186.473h-3.667v2h4v-2zM48.105 179.473h4v2h-4zM48.105 186.473h4v2h-4zM70.105 119.473v-2h-4v2h3.667zM69.772 123.473h-3.667v2h4v-2zM73.105 117.473h4v2h-4zM73.105 123.473h4v2h-4zM70.105 138.473v-2h-4v2h3.667zM69.772 139.473h-3.667v2h4v-2zM73.105 136.473h4v2h-4zM73.105 139.473h4v2h-4zM70.105 154.473v-2h-4v2h3.667zM69.772 157.473h-3.667v2h4v-2zM73.105 152.473h4v2h-4zM73.105 157.473h4v2h-4zM70.105 172.473v-2h-4v2h3.667zM69.772 175.473h-3.667v2h4v-2zM73.105 170.473h4v2h-4zM73.105 175.473h4v2h-4zM16.105 120.473h36v7h-36zM16.105 136.473h36v7h-36zM16.105 148.473h36v7h-36zM16.105 165.473h36v7h-36z"/></g><g fill-rule="nonzero"><path fill="#3F3D56" d="M88.105 163.473h2v34h-2z"/><path d="M97.105 167.933c.059 12.426-8.894 22.54-8.894 22.54s-9.047-10.033-9.105-22.46c-.06-12.426 8.893-22.54 8.893-22.54s9.047 10.033 9.106 22.46z" fill="#166DFF"/></g></g></svg>