<svg width="200" height="200" xmlns="http://www.w3.org/2000/svg"><g fill="none" fill-rule="evenodd"><path d="M105 188c-46.228-3.785-72.633-8.923-90-22-17.367-13.077-19.523-32.525 5-42 24.523-9.475 48.178 19.696 83 8 34.822-11.696 13-38 36-41s23.335 5.385 33 33c9.665 27.615 29.991 40.725 14 56-15.991 15.275-34.772 11.785-81 8z" fill-opacity=".1" fill="#166DFF"/><g fill-rule="nonzero"><path fill="#3F3D56" d="M109.06 161.123h2.005v38.233h-2.005z"/><path d="M119.085 166.108c.065 13.892-9.907 25.2-9.907 25.2s-10.077-11.217-10.143-25.11C98.97 152.308 108.942 141 108.942 141s10.078 11.216 10.143 25.108z" fill="#166DFF"/><path d="M119.085 166.108c.065 13.892-9.907 25.2-9.907 25.2s-10.077-11.217-10.143-25.11C98.97 152.308 108.942 141 108.942 141s10.078 11.216 10.143 25.108z" fill="#000" opacity=".1"/><g><path fill="#3F3D56" d="M99.025 161.123h2.005v38.233h-2.005z"/><path d="M109.05 166.108c.065 13.892-9.907 25.2-9.907 25.2S89.066 180.09 89 166.197C88.935 152.308 98.907 141 98.907 141s10.077 11.216 10.143 25.108z" fill="#166DFF"/></g></g><g fill-rule="nonzero"><path fill="#3F3D56" d="M27.79 176.196L26 173.19l16.702-14.43h42.947v4.21L70.14 179.803l-17.895 3.607z"/><path fill="#CCC" d="M93.863 166.24V157h-5.714v2.913l-1.798-1.99-14.545 14.172-2.425 2.362-3.03 11.81 5.455 12.991h27.878v-26.573z"/><path fill="#F2F2F2" d="M26 171.086h45.614v28.172H26z"/><path fill="#3F3D56" d="M57.579 179.89h10.526v8.804H57.579z"/><path fill="#CCC" d="M43.544 181.651h8.772v18h-8.772z"/><path fill="#3F3D56" d="M33.018 181.65v-1.76h-3.51v1.76h3.217zM32.725 185.172h-3.216v1.76h3.509v-1.76zM36.526 179.89h3.509v1.761h-3.509zM36.526 185.172h3.509v1.761h-3.509zM85.65 181.65v-1.76h-3.51v1.76h3.217zM85.357 186.933H82.14v1.76h3.51v-1.76zM89.158 179.89h3.509v1.761h-3.509zM89.158 186.933h3.509v1.761h-3.509z"/><g><path d="M23.363 189.68c1.203 5.835 5.324 9.449 5.324 9.449s2.17-5.846.967-11.68C28.451 181.613 24.33 178 24.33 178s-2.17 5.846-.967 11.68z" fill="#3F3D56"/><path d="M24.686 189.217c3.876 3.89 4.35 9.869 4.35 9.869s-5.811-.327-9.687-4.217C15.473 190.98 15 185 15 185s5.81.327 9.686 4.217z" fill="#166DFF"/></g></g><g fill-rule="nonzero"><path fill="#3F3D56" d="M117.79 176.196L116 173.19l16.702-14.43h42.947v4.21l-15.509 16.834-17.895 3.607z"/><path fill="#CCC" d="M183.863 166.24V157h-5.714v2.913l-1.798-1.99-14.545 14.172-2.425 2.362-3.03 11.81 5.455 12.991h27.878v-26.573z"/><path fill="#F2F2F2" d="M116 171.086h45.614v28.172H116z"/><path fill="#3F3D56" d="M147.579 179.89h10.526v8.804h-10.526z"/><path fill="#CCC" d="M133.544 181.651h8.772v18h-8.772z"/><path fill="#3F3D56" d="M123.018 181.65v-1.76h-3.51v1.76h3.217zM122.725 185.172h-3.216v1.76h3.509v-1.76zM126.526 179.89h3.509v1.761h-3.509zM126.526 185.172h3.509v1.761h-3.509zM175.65 181.65v-1.76h-3.51v1.76h3.217zM175.357 186.933h-3.217v1.76h3.51v-1.76zM179.158 179.89h3.509v1.761h-3.509zM179.158 186.933h3.509v1.761h-3.509z"/></g><g fill-rule="nonzero"><path d="M189.466 194.009c-.722 3.5-3.194 5.668-3.194 5.668s-1.302-3.507-.58-7.008c.722-3.5 3.194-5.669 3.194-5.669s1.302 3.508.58 7.009z" fill="#3F3D56"/><path d="M189.083 193.53c-2.325 2.334-2.61 5.922-2.61 5.922s3.487-.197 5.812-2.53c2.326-2.334 2.61-5.922 2.61-5.922s-3.486.196-5.812 2.53z" fill="#166DFF"/></g><path fill="#001D4D" d="M0 199h200v1H0z"/></g></svg>