<svg width="100%" height="100%" viewBox="0 0 18 24" fill="none" xmlns="http://www.w3.org/2000/svg">
<path d="M16.7832 5.08316L13.1126 1.41253C12.7188 1.01878 12.1851 0.795654 11.6295 0.795654H2.7001C1.54072 0.800029 0.600098 1.74065 0.600098 2.90003V21.1C0.600098 22.2594 1.54072 23.2 2.7001 23.2H15.3001C16.4595 23.2 17.4001 22.2594 17.4001 21.1V6.57066C17.4001 6.01503 17.177 5.47691 16.7832 5.08316ZM15.7945 6.07628C15.8863 6.16816 15.9476 6.27753 15.9782 6.40003H11.8001V2.2219C11.9226 2.25253 12.032 2.31378 12.1238 2.40565L15.7945 6.07628ZM15.3001 21.8H2.7001C2.3151 21.8 2.0001 21.485 2.0001 21.1V2.90003C2.0001 2.51503 2.3151 2.20003 2.7001 2.20003H10.4001V6.75003C10.4001 7.33191 10.8682 7.80003 11.4501 7.80003H16.0001V21.1C16.0001 21.485 15.6851 21.8 15.3001 21.8ZM13.2001 11.125V11.475C13.2001 11.7638 12.9638 12 12.6751 12H5.3251C5.03635 12 4.8001 11.7638 4.8001 11.475V11.125C4.8001 10.8363 5.03635 10.6 5.3251 10.6H12.6751C12.9638 10.6 13.2001 10.8363 13.2001 11.125ZM13.2001 13.925V14.275C13.2001 14.5638 12.9638 14.8 12.6751 14.8H5.3251C5.03635 14.8 4.8001 14.5638 4.8001 14.275V13.925C4.8001 13.6363 5.03635 13.4 5.3251 13.4H12.6751C12.9638 13.4 13.2001 13.6363 13.2001 13.925ZM13.2001 16.725V17.075C13.2001 17.3638 12.9638 17.6 12.6751 17.6H5.3251C5.03635 17.6 4.8001 17.3638 4.8001 17.075V16.725C4.8001 16.4363 5.03635 16.2 5.3251 16.2H12.6751C12.9638 16.2 13.2001 16.4363 13.2001 16.725Z" fill="black" fill-opacity="0.87"/>
</svg>
