<svg width="24" height="18" viewBox="0 0 24 18" fill="none" xmlns="http://www.w3.org/2000/svg">
<path fill-rule="evenodd" clip-rule="evenodd" d="M2.90005 0.599976H21.1C22.2599 0.599976 23.2 1.54016 23.2 2.69998V15.3C23.2 16.4598 22.2599 17.4 21.1 17.4H2.90005C1.74024 17.4 0.800049 16.4598 0.800049 15.3V2.69998C0.800049 1.54016 1.74024 0.599976 2.90005 0.599976ZM21.1001 16C21.486 16 21.8001 15.6859 21.8001 15.3V2.69998C21.8001 2.31401 21.486 1.99998 21.1001 1.99998H2.90008C2.51412 1.99998 2.20008 2.31401 2.20008 2.69998V15.3C2.20008 15.6859 2.51412 16 2.90008 16H21.1001ZM5.70007 7.94998C7.05317 7.94998 8.15007 6.85308 8.15007 5.49998C8.15007 4.14688 7.05317 3.04998 5.70007 3.04998C4.34697 3.04998 3.25006 4.14688 3.25006 5.49998C3.25006 6.85308 4.34697 7.94998 5.70007 7.94998ZM6.75002 5.49998C6.75002 4.92099 6.279 4.44998 5.70002 4.44998C5.12103 4.44998 4.65002 4.92099 4.65002 5.49998C4.65002 6.07896 5.12103 6.54998 5.70002 6.54998C6.279 6.54998 6.75002 6.07896 6.75002 5.49998ZM14.7576 5.45749L10.6 9.61506L9.24251 8.25754C8.83245 7.84747 8.16762 7.84747 7.7576 8.25754L3.9076 12.1075C3.71067 12.3044 3.60004 12.5715 3.60003 12.85V14.075C3.60003 14.3649 3.8351 14.6 4.12503 14.6H19.875C20.165 14.6 20.4 14.3649 20.4 14.075V10.05C20.4 9.77151 20.2894 9.50441 20.0925 9.30749L16.2425 5.45749C15.8324 5.04747 15.1676 5.04747 14.7576 5.45749ZM5.00006 13.2H19.0001V10.195L15.5001 6.69497L10.6001 11.595L8.50006 9.49496L5.00006 12.995V13.2Z" fill="black" fill-opacity="0.87"/>
</svg>
