<svg width="161" height="161" viewBox="0 0 161 161" fill="none" xmlns="http://www.w3.org/2000/svg">
<path d="M104.875 136.852C135.872 123.515 150.189 87.5756 136.852 56.5787C123.516 25.5817 87.5761 11.2651 56.5791 24.6017C25.5821 37.9383 11.2655 73.8777 24.6021 104.875C37.9387 135.872 73.8782 150.188 104.875 136.852Z" fill="white" stroke="#41A35E" stroke-width="10" stroke-miterlimit="10"/>
<path d="M76.6594 42.5071V36.6815H86.9797V42.5071C95.8882 44.306 100.426 51.0392 100.426 61.6837V64.1592H88.5429V60.8586C88.5429 55.2475 86.257 53.1186 82.2566 53.1186C78.2562 53.1186 75.9871 55.2475 75.9871 60.8586C75.9871 76.9986 100.544 77.7908 100.544 100.218C100.544 110.879 95.8546 117.712 86.9461 119.511V125.237H76.6594V119.511C67.6333 117.712 63.0782 110.879 63.0782 100.218V94.8385H74.9449V101.011C74.9449 106.605 77.4662 108.635 81.4666 108.635C85.467 108.635 87.9714 106.605 87.9714 101.011C87.9714 84.8541 63.4144 84.0619 63.4144 61.6342C63.448 51.1382 67.8686 44.4215 76.6594 42.5071Z" fill="#41A35E"/>
</svg>
