<svg width="188" height="188" viewBox="0 0 188 188" fill="none" xmlns="http://www.w3.org/2000/svg">
<path d="M178 94C178 105.031 175.827 115.954 171.606 126.145C167.384 136.337 161.197 145.597 153.397 153.397C145.597 161.197 136.337 167.384 126.145 171.606C115.954 175.827 105.031 178 94 178C82.969 178 72.0459 175.827 61.8546 171.606C51.6632 167.384 42.4031 161.197 34.603 153.397C26.8029 145.597 20.6155 136.337 16.3941 126.145C12.1727 115.954 10 105.031 10 94C10 82.969 12.1727 72.0459 16.3941 61.8546C20.6155 51.6632 26.8029 42.4031 34.603 34.603C42.4032 26.8029 51.6633 20.6155 61.8546 16.3941C72.046 12.1727 82.969 10 94 10C105.031 10 115.954 12.1727 126.145 16.3941C136.337 20.6155 145.597 26.8029 153.397 34.603C161.197 42.4032 167.384 51.6633 171.606 61.8546C175.827 72.046 178 82.969 178 94L178 94Z" stroke="#41A35E" stroke-width="20" stroke-linecap="round" stroke-linejoin="round"/>
<path d="M81.0001 116.07L65.9634 101.033C64.2734 99.3434 61.5434 99.3434 59.8534 101.033C58.1634 102.723 58.1634 105.453 59.8534 107.143L77.9668 125.257C79.6568 126.947 82.3868 126.947 84.0768 125.257L129.923 79.41C131.613 77.72 131.613 74.99 129.923 73.3C128.233 71.61 125.503 71.61 123.813 73.3L81.0001 116.07Z" fill="#41A35E"/>
</svg>
