<svg width="28" height="28" viewBox="0 0 28 28" xmlns="http://www.w3.org/2000/svg"><path d="M17.13 18.85v4.3c0 .37.3.67.67.67h5.35c.37 0 .67-.3.67-.67v-4.3c0-.37-.3-.67-.67-.67H17.8c-.37 0-.67.3-.67.67zm6.02-2.03c1.12 0 2.03.91 2.03 2.03v4.3c0 1.12-.91 2.03-2.03 2.03H17.8a2.03 2.03 0 01-2.03-2.03v-4.3c0-1.12.91-2.03 2.03-2.03h5.35zm-11.55-14c1.12 0 2.03.91 2.03 2.03v18.3c0 1.12-.91 2.03-2.03 2.03H4.85a2.03 2.03 0 01-2.03-2.03V4.85c0-1.12.91-2.03 2.03-2.03h6.75zm0 1.36H4.85c-.37 0-.67.3-.67.67v18.3c0 .37.3.67.67.67h6.75c.37 0 .67-.3.67-.67V4.85c0-.37-.3-.67-.67-.67zm11.55-1.36c1.12 0 2.03.91 2.03 2.03v7.8c0 1.12-.91 2.03-2.03 2.03H17.8a2.03 2.03 0 01-2.03-2.03v-7.8c0-1.12.91-2.03 2.03-2.03h5.35zm0 1.36H17.8c-.37 0-.67.3-.67.67v7.8c0 .37.3.67.67.67h5.35c.37 0 .67-.3.67-.67v-7.8c0-.37-.3-.67-.67-.67z" fill="#000" fill-rule="nonzero"/></svg>