<svg width="20" height="20" viewBox="0 0 20 20" fill="none" xmlns="http://www.w3.org/2000/svg">
<path fill-rule="evenodd" clip-rule="evenodd" d="M19.6 9.9999C19.6 4.69797 15.302 0.399902 10 0.399902C4.69809 0.399902 0.400024 4.69797 0.400024 9.9999C0.400024 15.3018 4.69809 19.5999 10 19.5999C15.302 19.5999 19.6 15.3018 19.6 9.9999ZM10.96 6.1599C10.96 5.6319 10.528 5.1999 9.99999 5.1999C9.47199 5.1999 9.03999 5.6319 9.03999 6.1599V9.9999C9.03999 10.5279 9.47199 10.9599 9.99999 10.9599C10.528 10.9599 10.96 10.5279 10.96 9.9999V6.1599ZM10 1.5999C5.36083 1.5999 1.60002 5.36071 1.60002 9.9999C1.60002 14.6391 5.36083 18.3999 10 18.3999C14.6392 18.3999 18.4 14.6391 18.4 9.9999C18.4 5.36071 14.6392 1.5999 10 1.5999ZM10.96 13.8399C10.96 13.3097 10.5302 12.8799 9.99999 12.8799C9.4698 12.8799 9.03999 13.3097 9.03999 13.8399C9.03999 14.3701 9.4698 14.7999 9.99999 14.7999C10.5302 14.7999 10.96 14.3701 10.96 13.8399Z" fill="#C42C3C"/>
</svg>
