<?xml version="1.0" encoding="UTF-8"?>
<svg width="28px" height="28px" viewBox="0 0 28 28" version="1.1" xmlns="http://www.w3.org/2000/svg" xmlns:xlink="http://www.w3.org/1999/xlink">
    <!-- Generator: Sketch 59.1 (86144) - https://sketch.com -->
    <title>🔩 Parts/Icon/Font Awesome/map</title>
    <desc>Created with Sketch.</desc>
    <g id="🔩-Parts/Icon/Font-Awesome/map" stroke="none" stroke-width="1" fill="none" fill-rule="evenodd">
        <path d="M24.5777131,5.25 L24.3443812,5.28916368 L17.7333105,7.74895738 L11.0444625,5.36725237 C10.7930265,5.28706867 10.5304918,5.24753081 10.2666895,5.25 C9.99446894,5.25 9.72224838,5.28916368 9.48891647,5.36725237 L3.5778415,7.43660262 C3.10332085,7.6292915 2.79471794,8.09404914 2.8,8.60793295 L2.8,22.1172761 C2.79788439,22.3261562 2.89983032,22.5223097 3.07173407,22.6399861 C3.24363782,22.7576624 3.46274791,22.7812872 3.65561881,22.7029413 L10.2666895,20.2431476 L16.9555375,22.6248526 C17.4607351,22.7917158 18.0058859,22.7917158 18.5110835,22.6248526 L24.4221585,20.5555023 C24.8966792,20.3628135 25.2052821,19.8980558 25.2,19.384172 L25.2,5.87482885 C25.2,5.52342975 24.8888223,5.25 24.5777131,5.25 Z M4.00561667,8.60793295 L9.64447108,6.65571573 L9.64447108,19.1499059 L4.04450532,21.2192562 L4.00561667,8.60793295 Z M10.8889079,19.1499059 L10.8889079,6.65571573 L17.1110921,8.84219902 L17.1110921,21.3363892 L10.8889079,19.1499059 Z M18.3555289,21.3363892 L18.3555289,8.84219902 L23.9554947,6.77284877 L23.9943833,19.384172 L18.3555289,21.3363892 Z" id="↳-💧-Icon-Content" fill="#8c8c8c" fill-rule="nonzero"></path>
    </g>
</svg>