<svg width="29" height="40" viewBox="0 0 29 40" fill="none" xmlns="http://www.w3.org/2000/svg">
<path fill-rule="evenodd" clip-rule="evenodd" d="M6.5 3.125C6.5 4.85089 5.10089 6.25 3.375 6.25C1.64911 6.25 0.25 4.85089 0.25 3.125C0.25 1.39911 1.64911 0 3.375 0C5.10089 0 6.5 1.39911 6.5 3.125ZM17.409 36.3882C17.409 38.1141 16.0099 39.5132 14.284 39.5132C12.5581 39.5132 11.159 38.1141 11.159 36.3882C11.159 34.6624 12.5581 33.2632 14.284 33.2632C16.0099 33.2632 17.409 34.6624 17.409 36.3882ZM14.284 6.25C16.0099 6.25 17.409 4.85089 17.409 3.125C17.409 1.39911 16.0099 0 14.284 0C12.5581 0 11.159 1.39911 11.159 3.125C11.159 4.85089 12.5581 6.25 14.284 6.25ZM28.3181 3.125C28.3181 4.85089 26.9189 6.25 25.1931 6.25C23.4672 6.25 22.0681 4.85089 22.0681 3.125C22.0681 1.39911 23.4672 0 25.1931 0C26.9189 0 28.3181 1.39911 28.3181 3.125ZM25.1931 17.3377C26.9189 17.3377 28.3181 15.9386 28.3181 14.2127C28.3181 12.4868 26.9189 11.0877 25.1931 11.0877C23.4672 11.0877 22.0681 12.4868 22.0681 14.2127C22.0681 15.9386 23.4672 17.3377 25.1931 17.3377ZM17.409 14.2127C17.409 15.9386 16.0099 17.3377 14.284 17.3377C12.5581 17.3377 11.159 15.9386 11.159 14.2127C11.159 12.4868 12.5581 11.0877 14.284 11.0877C16.0099 11.0877 17.409 12.4868 17.409 14.2127ZM3.375 17.3377C5.10089 17.3377 6.5 15.9386 6.5 14.2127C6.5 12.4868 5.10089 11.0877 3.375 11.0877C1.64911 11.0877 0.25 12.4868 0.25 14.2127C0.25 15.9386 1.64911 17.3377 3.375 17.3377ZM6.5 25.3005C6.5 27.0264 5.10089 28.4255 3.375 28.4255C1.64911 28.4255 0.25 27.0264 0.25 25.3005C0.25 23.5746 1.64911 22.1755 3.375 22.1755C5.10089 22.1755 6.5 23.5746 6.5 25.3005ZM14.284 28.4255C16.0099 28.4255 17.409 27.0264 17.409 25.3005C17.409 23.5746 16.0099 22.1755 14.284 22.1755C12.5581 22.1755 11.159 23.5746 11.159 25.3005C11.159 27.0264 12.5581 28.4255 14.284 28.4255ZM28.3181 25.3005C28.3181 27.0264 26.9189 28.4255 25.1931 28.4255C23.4672 28.4255 22.0681 27.0264 22.0681 25.3005C22.0681 23.5746 23.4672 22.1755 25.1931 22.1755C26.9189 22.1755 28.3181 23.5746 28.3181 25.3005Z" fill="black" fill-opacity="0.87"/>
</svg>
